# Rebuilt from crane.obj object Lift with the source-global OBJ index tables preserved
mtllib crane_lift.mtl
v 0.250000 6.875000 -0.437500
v -0.250000 6.875000 -0.437500
v 0.250000 6.875000 -0.312500
v -0.250000 6.875000 -0.312500
v 0.250000 6.125000 -0.437500
v -0.250000 6.125000 -0.437500
v 0.250000 6.125000 -0.312500
v -0.250000 6.125000 -0.312500
v 0.250000 6.125000 0.500000
v -0.250000 6.125000 0.500000
v -0.500000 6.125000 0.250000
v -0.500000 6.125000 -0.250000
v -0.250000 6.125000 -0.500000
v 0.250000 6.125000 -0.500000
v 0.500000 6.125000 -0.250000
v 0.500000 6.125000 0.250000
v -0.500000 6.000000 -0.250000
v 0.500000 6.000000 -0.250000
v -0.500000 6.000000 0.250000
v 0.500000 6.000000 0.250000
v 0.250000 6.000000 -0.500000
v 0.250000 6.000000 0.500000
v -0.250000 6.000000 -0.500000
v -0.250000 6.000000 0.500000
v -0.250000 6.875000 0.500000
v -0.250000 6.875000 -0.500000
v 0.250000 6.875000 0.500000
v 0.250000 6.875000 -0.500000
v 0.500000 6.875000 0.250000
v -0.500000 6.875000 0.250000
v 0.500000 6.875000 -0.250000
v -0.500000 6.875000 -0.250000
v 0.500000 7.000000 0.250000
v 0.500000 7.000000 -0.250000
v 0.250000 7.000000 -0.500000
v -0.250000 7.000000 -0.500000
v -0.500000 7.000000 -0.250000
v -0.500000 7.000000 0.250000
v -0.250000 7.000000 0.500000
v 0.250000 7.000000 0.500000
v -0.250000 6.125000 0.437500
v 0.250000 6.125000 0.437500
v -0.250000 6.125000 0.312500
v 0.250000 6.125000 0.312500
v -0.250000 6.875000 0.437500
v 0.250000 6.875000 0.437500
v -0.250000 6.875000 0.312500
v 0.250000 6.875000 0.312500
v 0.000000 6.312500 0.312500
v -0.031250 6.304127 0.312500
v -0.054127 6.281250 0.312500
v -0.062500 6.250000 0.312500
v -0.054127 6.218750 0.312500
v -0.031250 6.195873 0.312500
v -0.000000 6.187500 0.312500
v 0.031250 6.195873 0.312500
v 0.054127 6.218750 0.312500
v 0.062500 6.250000 0.312500
v 0.054127 6.281250 0.312500
v 0.031250 6.304127 0.312500
v 0.000000 6.312500 0.250000
v -0.031250 6.304127 0.250000
v -0.054127 6.281250 0.250000
v -0.062500 6.250000 0.250000
v -0.054127 6.218750 0.250000
v -0.031250 6.195873 0.250000
v -0.000000 6.187500 0.250000
v 0.031250 6.195873 0.250000
v 0.054127 6.218750 0.250000
v 0.062500 6.250000 0.250000
v 0.054127 6.281250 0.250000
v 0.031250 6.304127 0.250000
v 0.187500 6.312500 0.312500
v 0.156250 6.304127 0.312500
v 0.133373 6.281250 0.312500
v 0.125000 6.250000 0.312500
v 0.133373 6.218750 0.312500
v 0.156250 6.195873 0.312500
v 0.187500 6.187500 0.312500
v 0.218750 6.195873 0.312500
v 0.241627 6.218750 0.312500
v 0.250000 6.250000 0.312500
v 0.241627 6.281250 0.312500
v 0.218750 6.304127 0.312500
v 0.187500 6.312500 0.250000
v 0.156250 6.304127 0.250000
v 0.133373 6.281250 0.250000
v 0.125000 6.250000 0.250000
v 0.133373 6.218750 0.250000
v 0.156250 6.195873 0.250000
v 0.187500 6.187500 0.250000
v 0.218750 6.195873 0.250000
v 0.241627 6.218750 0.250000
v 0.250000 6.250000 0.250000
v 0.241627 6.281250 0.250000
v 0.218750 6.304127 0.250000
v -0.187500 6.312500 0.312500
v -0.218750 6.304127 0.312500
v -0.241627 6.281250 0.312500
v -0.250000 6.250000 0.312500
v -0.241627 6.218750 0.312500
v -0.218750 6.195873 0.312500
v -0.187500 6.187500 0.312500
v -0.156250 6.195873 0.312500
v -0.133373 6.218750 0.312500
v -0.125000 6.250000 0.312500
v -0.133373 6.281250 0.312500
v -0.156250 6.304127 0.312500
v -0.187500 6.312500 0.250000
v -0.218750 6.304127 0.250000
v -0.241627 6.281250 0.250000
v -0.250000 6.250000 0.250000
v -0.241627 6.218750 0.250000
v -0.218750 6.195873 0.250000
v -0.187500 6.187500 0.250000
v -0.156250 6.195873 0.250000
v -0.133373 6.218750 0.250000
v -0.125000 6.250000 0.250000
v -0.133373 6.281250 0.250000
v -0.156250 6.304127 0.250000
v 0.000000 6.812500 0.312500
v -0.031250 6.804127 0.312500
v -0.054127 6.781250 0.312500
v -0.062500 6.750000 0.312500
v -0.054127 6.718750 0.312500
v -0.031250 6.695873 0.312500
v -0.000000 6.687500 0.312500
v 0.031250 6.695873 0.312500
v 0.054127 6.718750 0.312500
v 0.062500 6.750000 0.312500
v 0.054127 6.781250 0.312500
v 0.031250 6.804127 0.312500
v 0.000000 6.812500 0.250000
v -0.031250 6.804127 0.250000
v -0.054127 6.781250 0.250000
v -0.062500 6.750000 0.250000
v -0.054127 6.718750 0.250000
v -0.031250 6.695873 0.250000
v -0.000000 6.687500 0.250000
v 0.031250 6.695873 0.250000
v 0.054127 6.718750 0.250000
v 0.062500 6.750000 0.250000
v 0.054127 6.781250 0.250000
v 0.031250 6.804127 0.250000
v 0.187500 6.812500 0.312500
v 0.156250 6.804127 0.312500
v 0.133373 6.781250 0.312500
v 0.125000 6.750000 0.312500
v 0.133373 6.718750 0.312500
v 0.156250 6.695873 0.312500
v 0.187500 6.687500 0.312500
v 0.218750 6.695873 0.312500
v 0.241627 6.718750 0.312500
v 0.250000 6.750000 0.312500
v 0.241627 6.781250 0.312500
v 0.218750 6.804127 0.312500
v 0.187500 6.812500 0.250000
v 0.156250 6.804127 0.250000
v 0.133373 6.781250 0.250000
v 0.125000 6.750000 0.250000
v 0.133373 6.718750 0.250000
v 0.156250 6.695873 0.250000
v 0.187500 6.687500 0.250000
v 0.218750 6.695873 0.250000
v 0.241627 6.718750 0.250000
v 0.250000 6.750000 0.250000
v 0.241627 6.781250 0.250000
v 0.218750 6.804127 0.250000
v -0.187500 6.812500 0.312500
v -0.218750 6.804127 0.312500
v -0.241627 6.781250 0.312500
v -0.250000 6.750000 0.312500
v -0.241627 6.718750 0.312500
v -0.218750 6.695873 0.312500
v -0.187500 6.687500 0.312500
v -0.156250 6.695873 0.312500
v -0.133373 6.718750 0.312500
v -0.125000 6.750000 0.312500
v -0.133373 6.781250 0.312500
v -0.156250 6.804127 0.312500
v -0.187500 6.812500 0.250000
v -0.218750 6.804127 0.250000
v -0.241627 6.781250 0.250000
v -0.250000 6.750000 0.250000
v -0.241627 6.718750 0.250000
v -0.218750 6.695873 0.250000
v -0.187500 6.687500 0.250000
v -0.156250 6.695873 0.250000
v -0.133373 6.718750 0.250000
v -0.125000 6.750000 0.250000
v -0.133373 6.781250 0.250000
v -0.156250 6.804127 0.250000
v 0.000000 6.312500 -0.250000
v -0.031250 6.304127 -0.250000
v -0.054127 6.281250 -0.250000
v -0.062500 6.250000 -0.250000
v -0.054127 6.218750 -0.250000
v -0.031250 6.195873 -0.250000
v -0.000000 6.187500 -0.250000
v 0.031250 6.195873 -0.250000
v 0.054127 6.218750 -0.250000
v 0.062500 6.250000 -0.250000
v 0.054127 6.281250 -0.250000
v 0.031250 6.304127 -0.250000
v 0.000000 6.312500 -0.312500
v -0.031250 6.304127 -0.312500
v -0.054127 6.281250 -0.312500
v -0.062500 6.250000 -0.312500
v -0.054127 6.218750 -0.312500
v -0.031250 6.195873 -0.312500
v -0.000000 6.187500 -0.312500
v 0.031250 6.195873 -0.312500
v 0.054127 6.218750 -0.312500
v 0.062500 6.250000 -0.312500
v 0.054127 6.281250 -0.312500
v 0.031250 6.304127 -0.312500
v 0.187500 6.312500 -0.250000
v 0.156250 6.304127 -0.250000
v 0.133373 6.281250 -0.250000
v 0.125000 6.250000 -0.250000
v 0.133373 6.218750 -0.250000
v 0.156250 6.195873 -0.250000
v 0.187500 6.187500 -0.250000
v 0.218750 6.195873 -0.250000
v 0.241627 6.218750 -0.250000
v 0.250000 6.250000 -0.250000
v 0.241627 6.281250 -0.250000
v 0.218750 6.304127 -0.250000
v 0.187500 6.312500 -0.312500
v 0.156250 6.304127 -0.312500
v 0.133373 6.281250 -0.312500
v 0.125000 6.250000 -0.312500
v 0.133373 6.218750 -0.312500
v 0.156250 6.195873 -0.312500
v 0.187500 6.187500 -0.312500
v 0.218750 6.195873 -0.312500
v 0.241627 6.218750 -0.312500
v 0.250000 6.250000 -0.312500
v 0.241627 6.281250 -0.312500
v 0.218750 6.304127 -0.312500
v -0.187500 6.312500 -0.250000
v -0.218750 6.304127 -0.250000
v -0.241627 6.281250 -0.250000
v -0.250000 6.250000 -0.250000
v -0.241627 6.218750 -0.250000
v -0.218750 6.195873 -0.250000
v -0.187500 6.187500 -0.250000
v -0.156250 6.195873 -0.250000
v -0.133373 6.218750 -0.250000
v -0.125000 6.250000 -0.250000
v -0.133373 6.281250 -0.250000
v -0.156250 6.304127 -0.250000
v -0.187500 6.312500 -0.312500
v -0.218750 6.304127 -0.312500
v -0.241627 6.281250 -0.312500
v -0.250000 6.250000 -0.312500
v -0.241627 6.218750 -0.312500
v -0.218750 6.195873 -0.312500
v -0.187500 6.187500 -0.312500
v -0.156250 6.195873 -0.312500
v -0.133373 6.218750 -0.312500
v -0.125000 6.250000 -0.312500
v -0.133373 6.281250 -0.312500
v -0.156250 6.304127 -0.312500
v 0.000000 6.812500 -0.250000
v -0.031250 6.804127 -0.250000
v -0.054127 6.781250 -0.250000
v -0.062500 6.750000 -0.250000
v -0.054127 6.718750 -0.250000
v -0.031250 6.695873 -0.250000
v -0.000000 6.687500 -0.250000
v 0.031250 6.695873 -0.250000
v 0.054127 6.718750 -0.250000
v 0.062500 6.750000 -0.250000
v 0.054127 6.781250 -0.250000
v 0.031250 6.804127 -0.250000
v 0.000000 6.812500 -0.312500
v -0.031250 6.804127 -0.312500
v -0.054127 6.781250 -0.312500
v -0.062500 6.750000 -0.312500
v -0.054127 6.718750 -0.312500
v -0.031250 6.695873 -0.312500
v -0.000000 6.687500 -0.312500
v 0.031250 6.695873 -0.312500
v 0.054127 6.718750 -0.312500
v 0.062500 6.750000 -0.312500
v 0.054127 6.781250 -0.312500
v 0.031250 6.804127 -0.312500
v 0.187500 6.812500 -0.250000
v 0.156250 6.804127 -0.250000
v 0.133373 6.781250 -0.250000
v 0.125000 6.750000 -0.250000
v 0.133373 6.718750 -0.250000
v 0.156250 6.695873 -0.250000
v 0.187500 6.687500 -0.250000
v 0.218750 6.695873 -0.250000
v 0.241627 6.718750 -0.250000
v 0.250000 6.750000 -0.250000
v 0.241627 6.781250 -0.250000
v 0.218750 6.804127 -0.250000
v 0.187500 6.812500 -0.312500
v 0.156250 6.804127 -0.312500
v 0.133373 6.781250 -0.312500
v 0.125000 6.750000 -0.312500
v 0.133373 6.718750 -0.312500
v 0.156250 6.695873 -0.312500
v 0.187500 6.687500 -0.312500
v 0.218750 6.695873 -0.312500
v 0.241627 6.718750 -0.312500
v 0.250000 6.750000 -0.312500
v 0.241627 6.781250 -0.312500
v 0.218750 6.804127 -0.312500
v -0.187500 6.812500 -0.250000
v -0.218750 6.804127 -0.250000
v -0.241627 6.781250 -0.250000
v -0.250000 6.750000 -0.250000
v -0.241627 6.718750 -0.250000
v -0.218750 6.695873 -0.250000
v -0.187500 6.687500 -0.250000
v -0.156250 6.695873 -0.250000
v -0.133373 6.718750 -0.250000
v -0.125000 6.750000 -0.250000
v -0.133373 6.781250 -0.250000
v -0.156250 6.804127 -0.250000
v -0.187500 6.812500 -0.312500
v -0.218750 6.804127 -0.312500
v -0.241627 6.781250 -0.312500
v -0.250000 6.750000 -0.312500
v -0.241627 6.718750 -0.312500
v -0.218750 6.695873 -0.312500
v -0.187500 6.687500 -0.312500
v -0.156250 6.695873 -0.312500
v -0.133373 6.718750 -0.312500
v -0.125000 6.750000 -0.312500
v -0.133373 6.781250 -0.312500
v -0.156250 6.804127 -0.312500
v 0.000000 7.000000 -0.375000
v -0.187500 7.000000 -0.324760
v -0.324760 7.000000 -0.187500
v -0.375000 7.000000 0.000000
v -0.324760 7.000000 0.187500
v -0.187500 7.000000 0.324760
v -0.000000 7.000000 0.375000
v 0.187500 7.000000 0.324760
v 0.324759 7.000000 0.187500
v 0.375000 7.000000 0.000000
v 0.324760 7.000000 -0.187500
v 0.187500 7.000000 -0.324759
v 0.000000 7.250000 -0.375000
v -0.187500 7.250000 -0.324760
v -0.324760 7.250000 -0.187500
v -0.375000 7.250000 0.000000
v -0.324760 7.250000 0.187500
v -0.187500 7.250000 0.324760
v -0.000000 7.250000 0.375000
v 0.187500 7.250000 0.324760
v 0.324759 7.250000 0.187500
v 0.375000 7.250000 0.000000
v 0.324760 7.250000 -0.187500
v 0.187500 7.250000 -0.324759
v 0.000000 7.500000 -0.187500
v -0.093750 7.500000 -0.162380
v -0.162380 7.500000 -0.093750
v -0.187500 7.500000 0.000000
v -0.162380 7.500000 0.093750
v -0.093750 7.500000 0.162380
v -0.000000 7.500000 0.187500
v 0.093750 7.500000 0.162380
v 0.162380 7.500000 0.093750
v 0.187500 7.500000 0.000000
v 0.162380 7.500000 -0.093750
v 0.093750 7.500000 -0.162380
v 0.000000 8.000000 -0.187500
v -0.093750 8.000000 -0.162380
v -0.162380 8.000000 -0.093750
v -0.187500 8.000000 0.000000
v -0.162380 8.000000 0.093750
v -0.093750 8.000000 0.162380
v -0.000000 8.000000 0.187500
v 0.093750 8.000000 0.162380
v 0.162380 8.000000 0.093750
v 0.187500 8.000000 0.000000
v 0.162380 8.000000 -0.093750
v 0.093750 8.000000 -0.162380
v 0.000000 7.250000 -0.375000
v -0.187500 7.250000 -0.324760
v -0.324760 7.250000 -0.187500
v -0.375000 7.250000 0.000000
v -0.324760 7.250000 0.187500
v -0.187500 7.250000 0.324760
v -0.000000 7.250000 0.375000
v 0.187500 7.250000 0.324760
v 0.324759 7.250000 0.187500
v 0.375000 7.250000 0.000000
v 0.324760 7.250000 -0.187500
v 0.187500 7.250000 -0.324759
v 0.000000 7.500000 -0.187500
v -0.093750 7.500000 -0.162380
v -0.162380 7.500000 -0.093750
v -0.187500 7.500000 0.000000
v -0.162380 7.500000 0.093750
v -0.093750 7.500000 0.162380
v -0.000000 7.500000 0.187500
v 0.093750 7.500000 0.162380
v 0.162380 7.500000 0.093750
v 0.187500 7.500000 0.000000
v 0.162380 7.500000 -0.093750
v 0.093750 7.500000 -0.162380
v 0.000000 8.000000 -0.187500
v -0.093750 8.000000 -0.162380
v -0.162380 8.000000 -0.093750
v -0.187500 8.000000 0.000000
v -0.162380 8.000000 0.093750
v -0.093750 8.000000 0.162380
v -0.000000 8.000000 0.187500
v 0.093750 8.000000 0.162380
v 0.162380 8.000000 0.093750
v 0.187500 8.000000 0.000000
v 0.162380 8.000000 -0.093750
v 0.093750 8.000000 -0.162380
v -0.500000 6.125000 0.312500
v -0.500000 6.875000 0.312500
v -0.500000 6.125000 -0.312500
v -0.500000 6.875000 -0.312500
v 0.500000 6.125000 0.312500
v 0.500000 6.875000 0.312500
v 0.500000 6.125000 -0.312500
v 0.500000 6.875000 -0.312500
v -0.500000 6.187500 -0.312500
v 0.500000 6.187500 -0.312500
v -0.500000 6.187500 0.312500
v 0.500000 6.187500 0.312500
v -0.500000 6.812500 0.312500
v 0.500000 6.812500 0.312500
v -0.500000 6.812500 -0.312500
v 0.500000 6.812500 -0.312500
v -0.500000 6.187500 0.250000
v 0.500000 6.187500 0.250000
v -0.500000 6.812500 0.250000
v 0.500000 6.812500 0.250000
v -0.500000 6.187500 -0.250000
v 0.500000 6.187500 -0.250000
v -0.500000 6.812500 -0.250000
v 0.500000 6.812500 -0.250000
v -0.000000 5.000000 -0.437500
v -0.000000 6.000000 -0.437500
v 0.218750 5.000000 -0.378886
v 0.218750 6.000000 -0.378886
v 0.378886 5.000000 -0.218750
v 0.378886 6.000000 -0.218750
v 0.437500 5.000000 0.000000
v 0.437500 6.000000 0.000000
v 0.378886 5.000000 0.218750
v 0.378886 6.000000 0.218750
v 0.218750 5.000000 0.378886
v 0.218750 6.000000 0.378886
v 0.000000 5.000000 0.437500
v 0.000000 6.000000 0.437500
v -0.218750 5.000000 0.378886
v -0.218750 6.000000 0.378886
v -0.378886 5.000000 0.218750
v -0.378886 6.000000 0.218750
v -0.437500 5.000000 0.000000
v -0.437500 6.000000 0.000000
v -0.378886 5.000000 -0.218750
v -0.378886 6.000000 -0.218750
v -0.218750 5.000000 -0.378886
v -0.218750 6.000000 -0.378886
v -0.437500 4.437500 0.125000
v -0.437500 4.562500 0.125000
v -0.437500 4.437500 -0.125000
v -0.437500 4.562500 -0.125000
v 0.437500 4.437500 0.125000
v 0.437500 4.562500 0.125000
v 0.437500 4.437500 -0.125000
v 0.437500 4.562500 -0.125000
v 0.437500 4.437500 -0.062500
v 0.437500 4.187500 -0.062500
v 0.437500 4.437500 0.062500
v 0.437500 4.187500 0.062500
v -0.437500 4.437500 -0.062500
v -0.437500 4.187500 -0.062500
v -0.437500 4.437500 0.062500
v -0.437500 4.187500 0.062500
v -0.562500 4.437500 0.125000
v -0.562500 4.437500 0.062500
v -0.562500 4.562500 0.125000
v -0.562500 4.562500 -0.125000
v -0.562500 4.437500 -0.125000
v -0.562500 4.437500 -0.062500
v -0.562500 4.187500 -0.062500
v -0.562500 4.187500 0.062500
v 0.562500 4.562500 -0.125000
v 0.562500 4.437500 -0.125000
v 0.562500 4.437500 0.125000
v 0.562500 4.437500 0.062500
v 0.562500 4.562500 0.125000
v 0.562500 4.187500 0.062500
v 0.562500 4.437500 -0.062500
v 0.562500 4.187500 -0.062500
v -0.500000 0.125000 1.000000
v 0.500000 0.125000 1.000000
v 0.375000 1.625000 0.562500
v -0.375000 1.625000 0.562500
v 0.375000 1.625000 0.937500
v -0.500000 0.375000 1.000000
v 0.500000 0.375000 1.000000
v -0.375000 1.625000 0.937500
v 0.000000 5.000000 -0.500000
v -0.250000 5.000000 -0.433013
v -0.433013 5.000000 -0.250000
v -0.500000 5.000000 0.000000
v -0.433013 5.000000 0.250000
v -0.250000 5.000000 0.433013
v -0.000000 5.000000 0.500000
v 0.250000 5.000000 0.433013
v 0.433013 5.000000 0.250000
v 0.500000 5.000000 0.000000
v 0.433013 5.000000 -0.250000
v 0.250000 5.000000 -0.433013
v 0.000000 0.375000 -0.500000
v -0.250000 0.375000 -0.433013
v -0.433013 0.375000 -0.250000
v -0.500000 0.375000 0.000000
v -0.433013 0.375000 0.250000
v -0.250000 0.375000 0.433013
v -0.000000 0.375000 0.500000
v 0.250000 0.375000 0.433013
v 0.433013 0.375000 0.250000
v 0.500000 0.375000 0.000000
v 0.433013 0.375000 -0.250000
v 0.250000 0.375000 -0.433013
v 0.500000 0.125000 -0.375000
v 0.500000 0.375000 -0.375000
v -0.500000 0.125000 -0.375000
v -0.500000 0.375000 -0.375000
v 0.375000 0.125000 -0.500000
v 0.375000 0.375000 -0.500000
v -0.375000 0.125000 -0.500000
v -0.375000 0.375000 -0.500000
v -0.375000 0.875000 0.937500
v 0.375000 0.875000 0.937500
v -0.375000 1.125000 0.562500
v 0.375000 1.125000 0.562500
v -0.437500 0.375000 0.937500
v 0.437500 0.375000 0.937500
v 0.437500 1.687500 0.500000
v -0.437500 1.687500 0.500000
v 0.437500 1.687500 0.937500
v -0.437500 1.687500 0.937500
v 0.437500 0.375000 0.500000
v -0.437500 0.375000 0.500000
v 0.250000 2.875000 -0.433012
v 0.433013 2.875000 -0.250000
v 0.125000 1.875000 -0.466506
v 0.433013 2.875000 0.250000
v 0.250000 2.875000 0.433013
v -0.000000 2.875000 0.500000
v -0.250000 2.875000 0.433013
v -0.433013 2.875000 0.250000
v 0.466506 1.875000 -0.125000
v -0.433013 2.875000 -0.250000
v -0.250000 2.875000 -0.433013
v 0.466506 1.875000 0.125000
v 0.250000 3.000000 -0.433012
v 0.433013 3.000000 -0.250000
v -0.466506 1.875000 0.125000
v 0.433013 3.000000 0.250000
v 0.250000 3.000000 0.433013
v -0.000000 3.000000 0.500000
v -0.250000 3.000000 0.433013
v -0.433013 3.000000 0.250000
v -0.466506 1.875000 -0.125000
v -0.433013 3.000000 -0.250000
v -0.250000 3.000000 -0.433013
v -0.125000 1.875000 -0.466506
v 0.281250 3.000000 -0.487139
v 0.487139 3.000000 -0.281250
v 0.125000 2.000000 -0.466506
v 0.487139 3.000000 0.281250
v 0.281250 3.000000 0.487139
v -0.000000 3.000000 0.562500
v -0.281250 3.000000 0.487139
v -0.487139 3.000000 0.281250
v 0.466506 2.000000 -0.125000
v -0.487139 3.000000 -0.281250
v -0.281250 3.000000 -0.487139
v 0.466506 2.000000 0.125000
v 0.281250 2.875000 -0.487139
v 0.487139 2.875000 -0.281250
v -0.466506 2.000000 0.125000
v 0.487139 2.875000 0.281250
v 0.281250 2.875000 0.487139
v -0.000000 2.875000 0.562500
v -0.281250 2.875000 0.487139
v -0.487139 2.875000 0.281250
v -0.466506 2.000000 -0.125000
v -0.487139 2.875000 -0.281250
v -0.281250 2.875000 -0.487139
v -0.125000 2.000000 -0.466506
v -0.140625 2.875000 -0.524820
v -0.524820 2.875000 -0.140625
v -0.524820 2.875000 0.140625
v 0.524820 2.875000 0.140625
v 0.524820 2.875000 -0.140625
v 0.140625 2.875000 -0.524820
v -0.140625 3.000000 -0.524820
v -0.524820 3.000000 -0.140625
v -0.524820 3.000000 0.140625
v 0.524820 3.000000 0.140625
v 0.524820 3.000000 -0.140625
v 0.140625 3.000000 -0.524820
v -0.125000 3.000000 -0.466506
v -0.466506 3.000000 -0.125000
v -0.466506 3.000000 0.125000
v 0.466506 3.000000 0.125000
v 0.466506 3.000000 -0.125000
v 0.125000 3.000000 -0.466506
v -0.125000 2.875000 -0.466506
v -0.466506 2.875000 -0.125000
v -0.466506 2.875000 0.125000
v 0.466506 2.875000 0.125000
v 0.466506 2.875000 -0.125000
v 0.125000 2.875000 -0.466506
v 0.140625 2.000000 -0.524820
v 0.524820 2.000000 -0.140625
v 0.524820 2.000000 0.140625
v -0.524820 2.000000 0.140625
v -0.524820 2.000000 -0.140625
v -0.140625 2.000000 -0.524820
v 0.140625 1.875000 -0.524820
v 0.524820 1.875000 -0.140625
v 0.524820 1.875000 0.140625
v -0.524820 1.875000 0.140625
v -0.524820 1.875000 -0.140625
v -0.140625 1.875000 -0.524820
v -0.281250 1.875000 -0.487139
v -0.487139 1.875000 -0.281250
v -0.487139 1.875000 0.281250
v -0.281250 1.875000 0.487139
v -0.000000 1.875000 0.562500
v 0.281250 1.875000 0.487139
v 0.487139 1.875000 0.281250
v 0.487139 1.875000 -0.281250
v 0.281250 1.875000 -0.487139
v -0.281250 2.000000 -0.487139
v -0.487139 2.000000 -0.281250
v -0.487139 2.000000 0.281250
v -0.281250 2.000000 0.487139
v -0.000000 2.000000 0.562500
v 0.281250 2.000000 0.487139
v 0.487139 2.000000 0.281250
v 0.487139 2.000000 -0.281250
v 0.281250 2.000000 -0.487139
v -0.250000 2.000000 -0.433013
v -0.433013 2.000000 -0.250000
v -0.433013 2.000000 0.250000
v -0.250000 2.000000 0.433013
v -0.000000 2.000000 0.500000
v 0.250000 2.000000 0.433013
v 0.433013 2.000000 0.250000
v 0.433013 2.000000 -0.250000
v 0.250000 2.000000 -0.433012
v -0.250000 1.875000 -0.433013
v -0.433013 1.875000 -0.250000
v -0.433013 1.875000 0.250000
v -0.250000 1.875000 0.433013
v -0.000000 1.875000 0.500000
v 0.250000 1.875000 0.433013
v 0.433013 1.875000 0.250000
v 0.433013 1.875000 -0.250000
v 0.250000 1.875000 -0.433012
v 0.250000 3.875000 -0.433012
v 0.433013 3.875000 -0.250000
v 0.433013 3.875000 0.250000
v 0.250000 3.875000 0.433013
v -0.000000 3.875000 0.500000
v -0.250000 3.875000 0.433013
v -0.433013 3.875000 0.250000
v -0.433013 3.875000 -0.250000
v -0.250000 3.875000 -0.433013
v 0.250000 4.000000 -0.433012
v 0.433013 4.000000 -0.250000
v 0.433013 4.000000 0.250000
v 0.250000 4.000000 0.433013
v -0.000000 4.000000 0.500000
v -0.250000 4.000000 0.433013
v -0.433013 4.000000 0.250000
v -0.433013 4.000000 -0.250000
v -0.250000 4.000000 -0.433013
v 0.281250 4.000000 -0.487139
v 0.487139 4.000000 -0.281250
v 0.487139 4.000000 0.281250
v 0.281250 4.000000 0.487139
v -0.000000 4.000000 0.562500
v -0.281250 4.000000 0.487139
v -0.487139 4.000000 0.281250
v -0.487139 4.000000 -0.281250
v -0.281250 4.000000 -0.487139
v 0.281250 3.875000 -0.487139
v 0.487139 3.875000 -0.281250
v 0.487139 3.875000 0.281250
v 0.281250 3.875000 0.487139
v -0.000000 3.875000 0.562500
v -0.281250 3.875000 0.487139
v -0.487139 3.875000 0.281250
v -0.487139 3.875000 -0.281250
v -0.281250 3.875000 -0.487139
v -0.140625 3.875000 -0.524820
v -0.524820 3.875000 -0.140625
v -0.524820 3.875000 0.140625
v 0.524820 3.875000 0.140625
v 0.524820 3.875000 -0.140625
v 0.140625 3.875000 -0.524820
v -0.140625 4.000000 -0.524820
v -0.524820 4.000000 -0.140625
v -0.524820 4.000000 0.140625
v 0.524820 4.000000 0.140625
v 0.524820 4.000000 -0.140625
v 0.140625 4.000000 -0.524820
v 0.125000 4.875000 -0.466506
v 0.466506 4.875000 -0.125000
v 0.466506 4.875000 0.125000
v -0.466506 4.875000 0.125000
v -0.466506 4.875000 -0.125000
v -0.125000 4.875000 -0.466506
v 0.125000 5.000000 -0.466506
v 0.466506 5.000000 -0.125000
v 0.466506 5.000000 0.125000
v -0.466506 5.000000 0.125000
v -0.466506 5.000000 -0.125000
v -0.125000 5.000000 -0.466506
v 0.140625 5.000000 -0.524820
v 0.524820 5.000000 -0.140625
v 0.524820 5.000000 0.140625
v -0.524820 5.000000 0.140625
v -0.524820 5.000000 -0.140625
v -0.140625 5.000000 -0.524820
v 0.140625 4.875000 -0.524820
v 0.524820 4.875000 -0.140625
v 0.524820 4.875000 0.140625
v -0.524820 4.875000 0.140625
v -0.524820 4.875000 -0.140625
v -0.140625 4.875000 -0.524820
v -0.125000 4.000000 -0.466506
v -0.281250 4.875000 -0.487139
v -0.487139 4.875000 -0.281250
v -0.466506 4.000000 -0.125000
v -0.487139 4.875000 0.281250
v -0.281250 4.875000 0.487139
v -0.000000 4.875000 0.562500
v 0.281250 4.875000 0.487139
v 0.487139 4.875000 0.281250
v -0.466506 4.000000 0.125000
v 0.487139 4.875000 -0.281250
v 0.281250 4.875000 -0.487139
v 0.466506 4.000000 0.125000
v -0.281250 5.000000 -0.487139
v -0.487139 5.000000 -0.281250
v 0.466506 4.000000 -0.125000
v -0.487139 5.000000 0.281250
v -0.281250 5.000000 0.487139
v -0.000000 5.000000 0.562500
v 0.281250 5.000000 0.487139
v 0.487139 5.000000 0.281250
v 0.125000 4.000000 -0.466506
v 0.487139 5.000000 -0.281250
v 0.281250 5.000000 -0.487139
v -0.125000 3.875000 -0.466506
v -0.250000 5.000000 -0.433013
v -0.433013 5.000000 -0.250000
v -0.466506 3.875000 -0.125000
v -0.433013 5.000000 0.250000
v -0.250000 5.000000 0.433013
v -0.000000 5.000000 0.500000
v 0.250000 5.000000 0.433013
v 0.433013 5.000000 0.250000
v -0.466506 3.875000 0.125000
v 0.433013 5.000000 -0.250000
v 0.250000 5.000000 -0.433012
v 0.466506 3.875000 0.125000
v -0.250000 4.875000 -0.433013
v -0.433013 4.875000 -0.250000
v 0.466506 3.875000 -0.125000
v -0.433013 4.875000 0.250000
v -0.250000 4.875000 0.433013
v -0.000000 4.875000 0.500000
v 0.250000 4.875000 0.433013
v 0.433013 4.875000 0.250000
v 0.125000 3.875000 -0.466506
v 0.433013 4.875000 -0.250000
v 0.250000 4.875000 -0.433012
v 0.250000 3.968750 1.000000
v 0.250000 3.906250 1.000000
v -0.500000 3.968750 1.000000
v -0.500000 3.906250 1.000000
v 0.250000 3.968750 0.187500
v 0.250000 3.906250 0.187500
v -0.500000 3.968750 0.187500
v -0.500000 3.906250 0.187500
v 0.250000 1.968750 1.000000
v -0.375000 1.968750 1.000000
v 0.250000 1.968750 0.687500
v 0.250000 2.468750 1.000000
v -0.375000 2.468750 1.000000
v 0.250000 2.468750 0.687500
v 0.250000 2.968750 1.000000
v -0.375000 2.968750 1.000000
v 0.250000 2.968750 0.687500
v 0.250000 3.468750 1.000000
v -0.375000 3.468750 1.000000
v 0.250000 3.468750 0.687500
v 0.250000 3.968750 1.000000
v -0.375000 3.968750 1.000000
v 0.250000 3.968750 0.687500
v 0.250000 4.468750 1.000000
v -0.375000 4.468750 1.000000
v 0.250000 4.468750 0.687500
v -0.468750 0.375000 0.937500
v -0.468750 0.375000 0.500000
v -0.468750 3.937500 0.937500
v -0.468750 3.937500 0.500000
v 0.125000 0.875000 -0.466506
v 0.466506 0.875000 -0.125000
v 0.466506 0.875000 0.125000
v -0.466506 0.875000 0.125000
v -0.466506 0.875000 -0.125000
v -0.125000 0.875000 -0.466506
v 0.125000 1.000000 -0.466506
v 0.466506 1.000000 -0.125000
v 0.466506 1.000000 0.125000
v -0.466506 1.000000 0.125000
v -0.466506 1.000000 -0.125000
v -0.125000 1.000000 -0.466506
v 0.140625 1.000000 -0.524820
v 0.524820 1.000000 -0.140625
v 0.524820 1.000000 0.140625
v -0.524820 1.000000 0.140625
v -0.524820 1.000000 -0.140625
v -0.140625 1.000000 -0.524820
v 0.140625 0.875000 -0.524820
v 0.524820 0.875000 -0.140625
v 0.524820 0.875000 0.140625
v -0.524820 0.875000 0.140625
v -0.524820 0.875000 -0.140625
v -0.140625 0.875000 -0.524820
v -0.281250 0.875000 -0.487139
v -0.487139 0.875000 -0.281250
v -0.487139 0.875000 0.281250
v -0.281250 0.875000 0.487139
v -0.000000 0.875000 0.562500
v 0.281250 0.875000 0.487139
v 0.487139 0.875000 0.281250
v 0.487139 0.875000 -0.281250
v 0.281250 0.875000 -0.487139
v -0.281250 1.000000 -0.487139
v -0.487139 1.000000 -0.281250
v -0.487139 1.000000 0.281250
v -0.281250 1.000000 0.487139
v -0.000000 1.000000 0.562500
v 0.281250 1.000000 0.487139
v 0.487139 1.000000 0.281250
v 0.487139 1.000000 -0.281250
v 0.281250 1.000000 -0.487139
v -0.250000 1.000000 -0.433013
v -0.433013 1.000000 -0.250000
v -0.433013 1.000000 0.250000
v -0.250000 1.000000 0.433013
v -0.000000 1.000000 0.500000
v 0.250000 1.000000 0.433013
v 0.433013 1.000000 0.250000
v 0.433013 1.000000 -0.250000
v 0.250000 1.000000 -0.433012
v -0.250000 0.875000 -0.433013
v -0.433013 0.875000 -0.250000
v -0.433013 0.875000 0.250000
v -0.250000 0.875000 0.433013
v -0.000000 0.875000 0.500000
v 0.250000 0.875000 0.433013
v 0.433013 0.875000 0.250000
v 0.433013 0.875000 -0.250000
v 0.250000 0.875000 -0.433012
v -0.500000 2.906250 0.187500
v -0.500000 2.968750 0.187500
v 0.250000 2.906250 0.187500
v 0.250000 2.968750 0.187500
v -0.500000 2.906250 1.000000
v -0.500000 2.968750 1.000000
v 0.250000 2.906250 1.000000
v 0.250000 2.968750 1.000000
v 0.250000 1.968750 1.000000
v 0.250000 1.906250 1.000000
v -0.500000 1.968750 1.000000
v -0.500000 1.906250 1.000000
v 0.250000 1.968750 0.187500
v 0.250000 1.906250 0.187500
v -0.500000 1.968750 0.187500
v -0.500000 1.906250 0.187500
v 0.441942 1.437500 -0.530330
v 0.454886 1.393306 -0.517386
v 0.220971 1.437500 -0.397748
v 0.309359 1.437500 -0.486136
v 0.246859 1.349112 -0.371859
v 0.335248 1.349112 -0.460248
v 0.309359 1.312500 -0.309359
v 0.397748 1.312500 -0.397748
v 0.371859 1.349112 -0.246859
v 0.460248 1.349112 -0.335248
v 0.397748 1.437500 -0.220971
v 0.486136 1.437500 -0.309359
v 0.371859 1.525888 -0.246859
v 0.460248 1.525888 -0.335248
v 0.309359 1.562500 -0.309359
v 0.397748 1.562500 -0.397748
v 0.246859 1.525888 -0.371859
v 0.335248 1.525888 -0.460248
v 0.486136 1.375000 -0.486136
v 0.517386 1.393306 -0.454886
v 0.530330 1.437500 -0.441942
v 0.517386 1.481694 -0.454886
v 0.486136 1.500000 -0.486136
v 0.454886 1.481694 -0.517386
v 0.441942 2.437500 -0.530330
v 0.454886 2.393306 -0.517386
v 0.220971 2.437500 -0.397748
v 0.309359 2.437500 -0.486136
v 0.246859 2.349112 -0.371859
v 0.335248 2.349112 -0.460248
v 0.309359 2.312500 -0.309359
v 0.397748 2.312500 -0.397748
v 0.371859 2.349112 -0.246859
v 0.460248 2.349112 -0.335248
v 0.397748 2.437500 -0.220971
v 0.486136 2.437500 -0.309359
v 0.371859 2.525888 -0.246859
v 0.460248 2.525888 -0.335248
v 0.309359 2.562500 -0.309359
v 0.397748 2.562500 -0.397748
v 0.246859 2.525888 -0.371859
v 0.335248 2.525888 -0.460248
v 0.486136 2.375000 -0.486136
v 0.517386 2.393306 -0.454886
v 0.530330 2.437500 -0.441942
v 0.517386 2.481694 -0.454886
v 0.486136 2.500000 -0.486136
v 0.454886 2.481694 -0.517386
v 0.441942 3.437500 -0.530330
v 0.454886 3.393306 -0.517386
v 0.220971 3.437500 -0.397748
v 0.309359 3.437500 -0.486136
v 0.246859 3.349112 -0.371859
v 0.335248 3.349112 -0.460248
v 0.309359 3.312500 -0.309359
v 0.397748 3.312500 -0.397748
v 0.371859 3.349112 -0.246859
v 0.460248 3.349112 -0.335248
v 0.397748 3.437500 -0.220971
v 0.486136 3.437500 -0.309359
v 0.371859 3.525888 -0.246859
v 0.460248 3.525888 -0.335248
v 0.309359 3.562500 -0.309359
v 0.397748 3.562500 -0.397748
v 0.246859 3.525888 -0.371859
v 0.335248 3.525888 -0.460248
v 0.486136 3.375000 -0.486136
v 0.517386 3.393306 -0.454886
v 0.530330 3.437500 -0.441942
v 0.517386 3.481694 -0.454886
v 0.486136 3.500000 -0.486136
v 0.454886 3.481694 -0.517386
v 0.441942 4.437500 -0.530330
v 0.454886 4.393306 -0.517386
v 0.220971 4.437500 -0.397748
v 0.309359 4.437500 -0.486136
v 0.246859 4.349112 -0.371859
v 0.335248 4.349112 -0.460248
v 0.309359 4.312500 -0.309359
v 0.397748 4.312500 -0.397748
v 0.371859 4.349112 -0.246859
v 0.460248 4.349112 -0.335248
v 0.397748 4.437500 -0.220971
v 0.486136 4.437500 -0.309359
v 0.371859 4.525888 -0.246859
v 0.460248 4.525888 -0.335248
v 0.309359 4.562500 -0.309359
v 0.397748 4.562500 -0.397748
v 0.246859 4.525888 -0.371859
v 0.335248 4.525888 -0.460248
v 0.486136 4.375000 -0.486136
v 0.517386 4.393306 -0.454886
v 0.530330 4.437500 -0.441942
v 0.517386 4.481694 -0.454886
v 0.486136 4.500000 -0.486136
v 0.454886 4.481694 -0.517386
v 0.281250 3.000000 -0.487139
v 0.487139 3.000000 -0.281250
v -0.487139 3.000000 -0.281250
v -0.281250 3.000000 -0.487139
v 0.281250 2.875000 -0.487139
v 0.487139 2.875000 -0.281250
v -0.487139 2.875000 -0.281250
v -0.281250 2.875000 -0.487139
v -0.140625 2.875000 -0.524820
v -0.524820 2.875000 -0.140625
v 0.524820 2.875000 -0.140625
v 0.140625 2.875000 -0.524820
v -0.140625 3.000000 -0.524820
v -0.524820 3.000000 -0.140625
v 0.524820 3.000000 -0.140625
v 0.140625 3.000000 -0.524820
v 0.140625 2.000000 -0.524820
v 0.524820 2.000000 -0.140625
v -0.524820 2.000000 -0.140625
v -0.140625 2.000000 -0.524820
v 0.140625 1.875000 -0.524820
v 0.524820 1.875000 -0.140625
v -0.524820 1.875000 -0.140625
v -0.140625 1.875000 -0.524820
v -0.281250 1.875000 -0.487139
v -0.487139 1.875000 -0.281250
v 0.487139 1.875000 -0.281250
v 0.281250 1.875000 -0.487139
v -0.281250 2.000000 -0.487139
v -0.487139 2.000000 -0.281250
v 0.487139 2.000000 -0.281250
v 0.281250 2.000000 -0.487139
v 0.281250 4.000000 -0.487139
v 0.487139 4.000000 -0.281250
v -0.487139 4.000000 -0.281250
v -0.281250 4.000000 -0.487139
v 0.281250 3.875000 -0.487139
v 0.487139 3.875000 -0.281250
v -0.487139 3.875000 -0.281250
v -0.281250 3.875000 -0.487139
v -0.140625 3.875000 -0.524820
v -0.524820 3.875000 -0.140625
v 0.524820 3.875000 -0.140625
v 0.140625 3.875000 -0.524820
v -0.140625 4.000000 -0.524820
v -0.524820 4.000000 -0.140625
v 0.524820 4.000000 -0.140625
v 0.140625 4.000000 -0.524820
v 0.140625 5.000000 -0.524820
v 0.524820 5.000000 -0.140625
v -0.524820 5.000000 -0.140625
v -0.140625 5.000000 -0.524820
v 0.140625 4.875000 -0.524820
v 0.524820 4.875000 -0.140625
v -0.524820 4.875000 -0.140625
v -0.140625 4.875000 -0.524820
v -0.281250 4.875000 -0.487139
v -0.487139 4.875000 -0.281250
v 0.487139 4.875000 -0.281250
v 0.281250 4.875000 -0.487139
v -0.281250 5.000000 -0.487139
v -0.487139 5.000000 -0.281250
v 0.487139 5.000000 -0.281250
v 0.281250 5.000000 -0.487139
v 0.140625 1.000000 -0.524820
v 0.524820 1.000000 -0.140625
v -0.524820 1.000000 -0.140625
v -0.140625 1.000000 -0.524820
v 0.140625 0.875000 -0.524820
v 0.524820 0.875000 -0.140625
v -0.524820 0.875000 -0.140625
v -0.140625 0.875000 -0.524820
v -0.281250 0.875000 -0.487139
v -0.487139 0.875000 -0.281250
v 0.487139 0.875000 -0.281250
v 0.281250 0.875000 -0.487139
v -0.281250 1.000000 -0.487139
v -0.487139 1.000000 -0.281250
v 0.487139 1.000000 -0.281250
v 0.281250 1.000000 -0.487139
v -0.466506 1.875000 -0.125000
v -0.125000 1.875000 -0.466506
v -0.466506 2.000000 -0.125000
v -0.125000 2.000000 -0.466506
v -0.140625 2.875000 -0.524820
v -0.524820 2.875000 -0.140625
v -0.140625 3.000000 -0.524820
v -0.524820 3.000000 -0.140625
v -0.125000 3.000000 -0.466506
v -0.466506 3.000000 -0.125000
v -0.125000 2.875000 -0.466506
v -0.466506 2.875000 -0.125000
v -0.524820 2.000000 -0.140625
v -0.140625 2.000000 -0.524820
v -0.524820 1.875000 -0.140625
v -0.140625 1.875000 -0.524820
v -0.140625 3.875000 -0.524820
v -0.524820 3.875000 -0.140625
v -0.140625 4.000000 -0.524820
v -0.524820 4.000000 -0.140625
v -0.125000 4.875000 -0.466506
v -0.125000 5.000000 -0.466506
v -0.140625 5.000000 -0.524820
v -0.140625 4.875000 -0.524820
v -0.125000 4.000000 -0.466506
v -0.466506 4.000000 -0.125000
v -0.125000 3.875000 -0.466506
v -0.466506 3.875000 -0.125000
v -0.466506 0.875000 -0.125000
v -0.125000 0.875000 -0.466506
v -0.466506 1.000000 -0.125000
v -0.125000 1.000000 -0.466506
v -0.524820 1.000000 -0.140625
v -0.140625 1.000000 -0.524820
v -0.524820 0.875000 -0.140625
v -0.140625 0.875000 -0.524820
v 0.125000 1.875000 -0.466506
v 0.466506 1.875000 -0.125000
v 0.125000 2.000000 -0.466506
v 0.466506 2.000000 -0.125000
v 0.524820 2.875000 -0.140625
v 0.140625 2.875000 -0.524820
v 0.524820 3.000000 -0.140625
v 0.140625 3.000000 -0.524820
v 0.466506 3.000000 -0.125000
v 0.125000 3.000000 -0.466506
v 0.466506 2.875000 -0.125000
v 0.125000 2.875000 -0.466506
v 0.140625 2.000000 -0.524820
v 0.524820 2.000000 -0.140625
v 0.140625 1.875000 -0.524820
v 0.524820 1.875000 -0.140625
v 0.524820 3.875000 -0.140625
v 0.140625 3.875000 -0.524820
v 0.524820 4.000000 -0.140625
v 0.140625 4.000000 -0.524820
v 0.466506 4.000000 -0.125000
v 0.125000 4.000000 -0.466506
v 0.466506 3.875000 -0.125000
v 0.125000 3.875000 -0.466506
v 0.125000 0.875000 -0.466506
v 0.466506 0.875000 -0.125000
v 0.125000 1.000000 -0.466506
v 0.466506 1.000000 -0.125000
v 0.140625 1.000000 -0.524820
v 0.524820 1.000000 -0.140625
v 0.140625 0.875000 -0.524820
v 0.524820 0.875000 -0.140625
v 0.125000 4.875000 -0.466506
v 0.466506 4.875000 -0.125000
v 0.125000 5.000000 -0.466506
v 0.466506 5.000000 -0.125000
v 0.140625 5.000000 -0.524820
v 0.524820 5.000000 -0.140625
v 0.140625 4.875000 -0.524820
v 0.524820 4.875000 -0.140625
v 0.466506 1.875000 0.125000
v -0.466506 1.875000 0.125000
v 0.466506 2.000000 0.125000
v -0.466506 2.000000 0.125000
v -0.524820 2.875000 0.140625
v 0.524820 2.875000 0.140625
v -0.524820 3.000000 0.140625
v 0.524820 3.000000 0.140625
v -0.466506 3.000000 0.125000
v 0.466506 3.000000 0.125000
v -0.466506 2.875000 0.125000
v 0.466506 2.875000 0.125000
v 0.524820 2.000000 0.140625
v -0.524820 2.000000 0.140625
v 0.524820 1.875000 0.140625
v -0.524820 1.875000 0.140625
v -0.524820 3.875000 0.140625
v 0.524820 3.875000 0.140625
v -0.524820 4.000000 0.140625
v 0.524820 4.000000 0.140625
v 0.466506 4.875000 0.125000
v -0.466506 4.875000 0.125000
v 0.466506 5.000000 0.125000
v -0.466506 5.000000 0.125000
v 0.524820 5.000000 0.140625
v -0.524820 5.000000 0.140625
v 0.524820 4.875000 0.140625
v -0.524820 4.875000 0.140625
v -0.466506 4.000000 0.125000
v 0.466506 4.000000 0.125000
v -0.466506 3.875000 0.125000
v 0.466506 3.875000 0.125000
v 0.466506 0.875000 0.125000
v -0.466506 0.875000 0.125000
v 0.466506 1.000000 0.125000
v -0.466506 1.000000 0.125000
v 0.524820 1.000000 0.140625
v -0.524820 1.000000 0.140625
v 0.524820 0.875000 0.140625
v -0.524820 0.875000 0.140625
v 0.487139 3.000000 0.281250
v 0.281250 3.000000 0.487139
v -0.000000 3.000000 0.562500
v -0.281250 3.000000 0.487139
v -0.487139 3.000000 0.281250
v 0.487139 2.875000 0.281250
v 0.281250 2.875000 0.487139
v -0.000000 2.875000 0.562500
v -0.281250 2.875000 0.487139
v -0.487139 2.875000 0.281250
v -0.524820 2.875000 0.140625
v 0.524820 2.875000 0.140625
v -0.524820 3.000000 0.140625
v 0.524820 3.000000 0.140625
v 0.524820 2.000000 0.140625
v -0.524820 2.000000 0.140625
v 0.524820 1.875000 0.140625
v -0.524820 1.875000 0.140625
v -0.487139 1.875000 0.281250
v -0.281250 1.875000 0.487139
v -0.000000 1.875000 0.562500
v 0.281250 1.875000 0.487139
v 0.487139 1.875000 0.281250
v -0.487139 2.000000 0.281250
v -0.281250 2.000000 0.487139
v -0.000000 2.000000 0.562500
v 0.281250 2.000000 0.487139
v 0.487139 2.000000 0.281250
v 0.487139 4.000000 0.281250
v 0.281250 4.000000 0.487139
v -0.000000 4.000000 0.562500
v -0.281250 4.000000 0.487139
v -0.487139 4.000000 0.281250
v 0.487139 3.875000 0.281250
v 0.281250 3.875000 0.487139
v -0.000000 3.875000 0.562500
v -0.281250 3.875000 0.487139
v -0.487139 3.875000 0.281250
v -0.524820 3.875000 0.140625
v 0.524820 3.875000 0.140625
v -0.524820 4.000000 0.140625
v 0.524820 4.000000 0.140625
v 0.524820 5.000000 0.140625
v -0.524820 5.000000 0.140625
v 0.524820 4.875000 0.140625
v -0.524820 4.875000 0.140625
v -0.487139 4.875000 0.281250
v -0.281250 4.875000 0.487139
v -0.000000 4.875000 0.562500
v 0.281250 4.875000 0.487139
v 0.487139 4.875000 0.281250
v -0.487139 5.000000 0.281250
v -0.281250 5.000000 0.487139
v -0.000000 5.000000 0.562500
v 0.281250 5.000000 0.487139
v 0.487139 5.000000 0.281250
v 0.524820 1.000000 0.140625
v -0.524820 1.000000 0.140625
v 0.524820 0.875000 0.140625
v -0.524820 0.875000 0.140625
v -0.487139 0.875000 0.281250
v -0.281250 0.875000 0.487139
v -0.000000 0.875000 0.562500
v 0.281250 0.875000 0.487139
v 0.487139 0.875000 0.281250
v -0.487139 1.000000 0.281250
v -0.281250 1.000000 0.487139
v -0.000000 1.000000 0.562500
v 0.281250 1.000000 0.487139
v 0.487139 1.000000 0.281250
v 0.441942 1.437500 -0.530330
v 0.454886 1.393306 -0.517386
v 0.309359 1.437500 -0.486136
v 0.335248 1.349112 -0.460248
v 0.397748 1.312500 -0.397748
v 0.460248 1.349112 -0.335248
v 0.486136 1.437500 -0.309359
v 0.460248 1.525888 -0.335248
v 0.397748 1.562500 -0.397748
v 0.335248 1.525888 -0.460248
v 0.486136 1.375000 -0.486136
v 0.517386 1.393306 -0.454886
v 0.530330 1.437500 -0.441942
v 0.517386 1.481694 -0.454886
v 0.486136 1.500000 -0.486136
v 0.454886 1.481694 -0.517386
v 0.441942 2.437500 -0.530330
v 0.454886 2.393306 -0.517386
v 0.309359 2.437500 -0.486136
v 0.335248 2.349112 -0.460248
v 0.397748 2.312500 -0.397748
v 0.460248 2.349112 -0.335248
v 0.486136 2.437500 -0.309359
v 0.460248 2.525888 -0.335248
v 0.397748 2.562500 -0.397748
v 0.335248 2.525888 -0.460248
v 0.486136 2.375000 -0.486136
v 0.517386 2.393306 -0.454886
v 0.530330 2.437500 -0.441942
v 0.517386 2.481694 -0.454886
v 0.486136 2.500000 -0.486136
v 0.454886 2.481694 -0.517386
v 0.441942 3.437500 -0.530330
v 0.454886 3.393306 -0.517386
v 0.309359 3.437500 -0.486136
v 0.335248 3.349112 -0.460248
v 0.397748 3.312500 -0.397748
v 0.460248 3.349112 -0.335248
v 0.486136 3.437500 -0.309359
v 0.460248 3.525888 -0.335248
v 0.397748 3.562500 -0.397748
v 0.335248 3.525888 -0.460248
v 0.486136 3.375000 -0.486136
v 0.517386 3.393306 -0.454886
v 0.530330 3.437500 -0.441942
v 0.517386 3.481694 -0.454886
v 0.486136 3.500000 -0.486136
v 0.454886 3.481694 -0.517386
v 0.441942 4.437500 -0.530330
v 0.454886 4.393306 -0.517386
v 0.309359 4.437500 -0.486136
v 0.335248 4.349112 -0.460248
v 0.397748 4.312500 -0.397748
v 0.460248 4.349112 -0.335248
v 0.486136 4.437500 -0.309359
v 0.460248 4.525888 -0.335248
v 0.397748 4.562500 -0.397748
v 0.335248 4.525888 -0.460248
v 0.486136 4.375000 -0.486136
v 0.517386 4.393306 -0.454886
v 0.530330 4.437500 -0.441942
v 0.517386 4.481694 -0.454886
v 0.486136 4.500000 -0.486136
v 0.454886 4.481694 -0.517386
v 0.000000 5.000000 -0.500000
v -0.250000 5.000000 -0.433013
v -0.433013 5.000000 -0.250000
v -0.500000 5.000000 0.000000
v -0.433013 5.000000 0.250000
v -0.250000 5.000000 0.433013
v -0.000000 5.000000 0.500000
v 0.250000 5.000000 0.433013
v 0.433013 5.000000 0.250000
v 0.500000 5.000000 0.000000
v 0.433013 5.000000 -0.250000
v 0.250000 5.000000 -0.433013
vt 0.612500 0.721519
vt 0.562500 0.873418
vt 0.562500 0.721519
vt 0.625000 0.721519
vt 0.612500 0.873418
vt 0.675000 0.721519
vt 0.625000 0.873418
vt 0.687500 0.721519
vt 0.675000 0.873418
vt 0.987500 0.898734
vt 0.912500 0.949367
vt 0.887500 0.797468
vt 0.912500 0.721519
vt 0.887500 0.746835
vt 0.887500 0.721519
vt 0.962500 0.721519
vt 0.912500 0.746835
vt 0.812500 0.721519
vt 0.762500 0.746835
vt 0.762500 0.721519
vt 0.987500 0.721519
vt 0.962500 0.746835
vt 0.837500 0.721519
vt 0.812500 0.746835
vt 0.737500 0.721519
vt 0.687500 0.746835
vt 0.687500 0.721519
vt 0.837500 0.746835
vt 0.912500 0.518987
vt 0.987500 0.569620
vt 0.962500 0.721519
vt 0.987500 0.898734
vt 0.912500 0.949367
vt 0.887500 0.797468
vt 0.912500 0.721519
vt 0.887500 0.746835
vt 0.887500 0.721519
vt 0.762500 0.721519
vt 0.737500 0.746835
vt 0.737500 0.721519
vt 0.837500 0.746835
vt 0.837500 0.721519
vt 0.687500 0.746835
vt 0.687500 0.721519
vt 0.812500 0.746835
vt 0.812500 0.721519
vt 0.987500 0.721519
vt 0.962500 0.746835
vt 0.762500 0.746835
vt 0.912500 0.746835
vt 0.737500 0.746835
vt 0.912500 0.518987
vt 0.987500 0.569620
vt 0.687500 0.721519
vt 0.675000 0.873418
vt 0.675000 0.721519
vt 0.625000 0.873418
vt 0.625000 0.721519
vt 0.612500 0.873418
vt 0.612500 0.721519
vt 0.562500 0.873418
vt 0.562500 0.721519
vt 0.850287 0.433019
vt 0.882266 0.415664
vt 0.873697 0.480431
vt 0.687500 0.873418
vt 0.987500 0.797468
vt 0.962500 0.949367
vt 0.887500 0.898734
vt 0.987500 0.746835
vt 0.887500 0.670886
vt 0.887500 0.569620
vt 0.962500 0.518987
vt 0.987500 0.670886
vt 0.987500 0.797468
vt 0.962500 0.949367
vt 0.887500 0.898734
vt 0.987500 0.746835
vt 0.887500 0.670886
vt 0.887500 0.569620
vt 0.962500 0.518987
vt 0.987500 0.670886
vt 0.687500 0.873418
vt 0.863803 0.480431
vt 0.855234 0.470412
vt 0.850287 0.453057
vt 0.855234 0.415664
vt 0.863803 0.405645
vt 0.873697 0.405645
vt 0.887213 0.433019
vt 0.887213 0.453057
vt 0.882266 0.470412
vt 0.568750 0.506329
vt 0.562500 0.518987
vt 0.562500 0.506329
vt 0.568750 0.620253
vt 0.562500 0.632911
vt 0.562500 0.620253
vt 0.568750 0.556962
vt 0.562500 0.569620
vt 0.562500 0.556962
vt 0.568750 0.582278
vt 0.562500 0.594937
vt 0.562500 0.582278
vt 0.568750 0.518987
vt 0.562500 0.531646
vt 0.568750 0.632911
vt 0.562500 0.645570
vt 0.568750 0.569620
vt 0.568750 0.594937
vt 0.562500 0.607595
vt 0.568750 0.531646
vt 0.562500 0.544304
vt 0.568750 0.645570
vt 0.562500 0.658228
vt 0.568750 0.607595
vt 0.568750 0.544304
vt 0.568750 0.506329
vt 0.562500 0.518987
vt 0.562500 0.506329
vt 0.568750 0.620253
vt 0.562500 0.632911
vt 0.562500 0.620253
vt 0.568750 0.556962
vt 0.562500 0.569620
vt 0.562500 0.556962
vt 0.568750 0.582278
vt 0.562500 0.594937
vt 0.562500 0.582278
vt 0.568750 0.518987
vt 0.562500 0.531646
vt 0.568750 0.632911
vt 0.562500 0.645570
vt 0.568750 0.569620
vt 0.568750 0.594937
vt 0.562500 0.607595
vt 0.568750 0.531646
vt 0.562500 0.544304
vt 0.568750 0.645570
vt 0.562500 0.658228
vt 0.568750 0.607595
vt 0.568750 0.544304
vt 0.568750 0.506329
vt 0.562500 0.518987
vt 0.562500 0.506329
vt 0.568750 0.620253
vt 0.562500 0.632911
vt 0.562500 0.620253
vt 0.568750 0.556962
vt 0.562500 0.569620
vt 0.562500 0.556962
vt 0.568750 0.582278
vt 0.562500 0.594937
vt 0.562500 0.582278
vt 0.568750 0.518987
vt 0.562500 0.531646
vt 0.568750 0.632911
vt 0.562500 0.645570
vt 0.568750 0.569620
vt 0.568750 0.594937
vt 0.562500 0.607595
vt 0.568750 0.531646
vt 0.562500 0.544304
vt 0.568750 0.645570
vt 0.562500 0.658228
vt 0.568750 0.607595
vt 0.568750 0.544304
vt 0.562500 0.658228
vt 0.568750 0.645570
vt 0.568750 0.658228
vt 0.562500 0.544304
vt 0.568750 0.531646
vt 0.568750 0.544304
vt 0.562500 0.607595
vt 0.568750 0.594937
vt 0.568750 0.607595
vt 0.562500 0.582278
vt 0.568750 0.569620
vt 0.568750 0.582278
vt 0.562500 0.645570
vt 0.568750 0.632911
vt 0.562500 0.531646
vt 0.568750 0.518987
vt 0.562500 0.594937
vt 0.562500 0.569620
vt 0.568750 0.556962
vt 0.562500 0.632911
vt 0.568750 0.620253
vt 0.562500 0.518987
vt 0.568750 0.506329
vt 0.562500 0.556962
vt 0.562500 0.620253
vt 0.568750 0.506329
vt 0.562500 0.518987
vt 0.562500 0.506329
vt 0.568750 0.620253
vt 0.562500 0.632911
vt 0.562500 0.620253
vt 0.568750 0.556962
vt 0.562500 0.569620
vt 0.562500 0.556962
vt 0.568750 0.582278
vt 0.562500 0.594937
vt 0.562500 0.582278
vt 0.568750 0.518987
vt 0.562500 0.531646
vt 0.568750 0.632911
vt 0.562500 0.645570
vt 0.568750 0.569620
vt 0.568750 0.594937
vt 0.562500 0.607595
vt 0.568750 0.531646
vt 0.562500 0.544304
vt 0.568750 0.645570
vt 0.562500 0.658228
vt 0.568750 0.607595
vt 0.568750 0.544304
vt 0.568750 0.506329
vt 0.562500 0.518987
vt 0.562500 0.506329
vt 0.568750 0.620253
vt 0.562500 0.632911
vt 0.562500 0.620253
vt 0.568750 0.556962
vt 0.562500 0.569620
vt 0.562500 0.556962
vt 0.568750 0.582278
vt 0.562500 0.594937
vt 0.562500 0.582278
vt 0.568750 0.518987
vt 0.562500 0.531646
vt 0.568750 0.632911
vt 0.562500 0.645570
vt 0.568750 0.569620
vt 0.568750 0.594937
vt 0.562500 0.607595
vt 0.568750 0.531646
vt 0.562500 0.544304
vt 0.568750 0.645570
vt 0.562500 0.658228
vt 0.568750 0.607595
vt 0.568750 0.544304
vt 0.562500 0.658228
vt 0.568750 0.645570
vt 0.568750 0.658228
vt 0.562500 0.544304
vt 0.568750 0.531646
vt 0.568750 0.544304
vt 0.562500 0.607595
vt 0.568750 0.594937
vt 0.568750 0.607595
vt 0.562500 0.582278
vt 0.568750 0.569620
vt 0.568750 0.582278
vt 0.562500 0.645570
vt 0.568750 0.632911
vt 0.562500 0.531646
vt 0.568750 0.518987
vt 0.562500 0.594937
vt 0.562500 0.569620
vt 0.568750 0.556962
vt 0.562500 0.632911
vt 0.568750 0.620253
vt 0.562500 0.518987
vt 0.568750 0.506329
vt 0.562500 0.556962
vt 0.562500 0.620253
vt 0.568750 0.506329
vt 0.562500 0.518987
vt 0.562500 0.506329
vt 0.568750 0.620253
vt 0.562500 0.632911
vt 0.562500 0.620253
vt 0.568750 0.556962
vt 0.562500 0.569620
vt 0.562500 0.556962
vt 0.568750 0.582278
vt 0.562500 0.594937
vt 0.562500 0.582278
vt 0.568750 0.518987
vt 0.562500 0.531646
vt 0.568750 0.632911
vt 0.562500 0.645570
vt 0.568750 0.569620
vt 0.568750 0.594937
vt 0.562500 0.607595
vt 0.568750 0.531646
vt 0.562500 0.544304
vt 0.568750 0.645570
vt 0.562500 0.658228
vt 0.568750 0.607595
vt 0.568750 0.544304
vt 0.568750 0.506329
vt 0.562500 0.518987
vt 0.562500 0.506329
vt 0.568750 0.620253
vt 0.562500 0.632911
vt 0.562500 0.620253
vt 0.568750 0.556962
vt 0.562500 0.569620
vt 0.562500 0.556962
vt 0.568750 0.582278
vt 0.562500 0.594937
vt 0.562500 0.582278
vt 0.568750 0.518987
vt 0.562500 0.531646
vt 0.568750 0.632911
vt 0.562500 0.645570
vt 0.568750 0.569620
vt 0.568750 0.594937
vt 0.562500 0.607595
vt 0.568750 0.531646
vt 0.562500 0.544304
vt 0.568750 0.645570
vt 0.562500 0.658228
vt 0.568750 0.607595
vt 0.568750 0.544304
vt 0.568750 0.506329
vt 0.562500 0.518987
vt 0.562500 0.506329
vt 0.568750 0.620253
vt 0.562500 0.632911
vt 0.562500 0.620253
vt 0.568750 0.556962
vt 0.562500 0.569620
vt 0.562500 0.556962
vt 0.568750 0.582278
vt 0.562500 0.594937
vt 0.562500 0.582278
vt 0.568750 0.518987
vt 0.562500 0.531646
vt 0.568750 0.632911
vt 0.562500 0.645570
vt 0.568750 0.569620
vt 0.568750 0.594937
vt 0.562500 0.607595
vt 0.568750 0.531646
vt 0.562500 0.544304
vt 0.568750 0.645570
vt 0.562500 0.658228
vt 0.568750 0.607595
vt 0.568750 0.544304
vt 0.568750 0.506329
vt 0.562500 0.518987
vt 0.562500 0.506329
vt 0.568750 0.620253
vt 0.562500 0.632911
vt 0.562500 0.620253
vt 0.568750 0.556962
vt 0.562500 0.569620
vt 0.562500 0.556962
vt 0.568750 0.582278
vt 0.562500 0.594937
vt 0.562500 0.582278
vt 0.568750 0.518987
vt 0.562500 0.531646
vt 0.568750 0.632911
vt 0.562500 0.645570
vt 0.568750 0.569620
vt 0.568750 0.594937
vt 0.562500 0.607595
vt 0.568750 0.531646
vt 0.562500 0.544304
vt 0.568750 0.645570
vt 0.562500 0.658228
vt 0.568750 0.607595
vt 0.568750 0.544304
vt 0.568750 0.506329
vt 0.562500 0.518987
vt 0.562500 0.506329
vt 0.568750 0.620253
vt 0.562500 0.632911
vt 0.562500 0.620253
vt 0.568750 0.556962
vt 0.562500 0.569620
vt 0.562500 0.556962
vt 0.568750 0.582278
vt 0.562500 0.594937
vt 0.562500 0.582278
vt 0.568750 0.518987
vt 0.562500 0.531646
vt 0.568750 0.632911
vt 0.562500 0.645570
vt 0.568750 0.569620
vt 0.568750 0.594937
vt 0.562500 0.607595
vt 0.568750 0.531646
vt 0.562500 0.544304
vt 0.568750 0.645570
vt 0.562500 0.658228
vt 0.568750 0.607595
vt 0.568750 0.544304
vt 0.718750 0.405063
vt 0.700000 0.455696
vt 0.700000 0.405063
vt 0.775000 0.405063
vt 0.756250 0.455696
vt 0.756250 0.405063
vt 0.718750 0.405063
vt 0.700000 0.455696
vt 0.700000 0.405063
vt 0.737500 0.405063
vt 0.718750 0.455696
vt 0.775000 0.405063
vt 0.756250 0.455696
vt 0.756250 0.405063
vt 0.793750 0.405063
vt 0.775000 0.455696
vt 0.737500 0.405063
vt 0.718750 0.455696
vt 0.737500 0.455696
vt 0.793750 0.405063
vt 0.775000 0.455696
vt 0.812500 0.405063
vt 0.793750 0.455696
vt 0.737500 0.455696
vt 0.812500 0.405063
vt 0.793750 0.455696
vt 0.787500 0.518987
vt 0.775000 0.620253
vt 0.775000 0.518987
vt 0.731250 0.518987
vt 0.718750 0.620253
vt 0.718750 0.518987
vt 0.750000 0.518987
vt 0.737500 0.620253
vt 0.737500 0.518987
vt 0.787500 0.518987
vt 0.775000 0.620253
vt 0.775000 0.518987
vt 0.806250 0.518987
vt 0.793750 0.620253
vt 0.793750 0.518987
vt 0.750000 0.518987
vt 0.737500 0.620253
vt 0.737500 0.518987
vt 0.806250 0.518987
vt 0.793750 0.620253
vt 0.793750 0.518987
vt 0.712500 0.518987
vt 0.700000 0.620253
vt 0.700000 0.518987
vt 0.768750 0.518987
vt 0.756250 0.620253
vt 0.756250 0.518987
vt 0.712500 0.518987
vt 0.700000 0.620253
vt 0.700000 0.518987
vt 0.731250 0.518987
vt 0.718750 0.620253
vt 0.718750 0.518987
vt 0.768750 0.518987
vt 0.756250 0.620253
vt 0.756250 0.518987
vt 0.775000 0.455696
vt 0.787500 0.518987
vt 0.775000 0.518987
vt 0.812500 0.455696
vt 0.793750 0.518987
vt 0.793750 0.455696
vt 0.718750 0.455696
vt 0.700000 0.518987
vt 0.700000 0.455696
vt 0.731250 0.518987
vt 0.718750 0.518987
vt 0.756250 0.455696
vt 0.737500 0.518987
vt 0.737500 0.455696
vt 0.775000 0.455696
vt 0.756250 0.518987
vt 0.793750 0.455696
vt 0.775000 0.518987
vt 0.812500 0.455696
vt 0.793750 0.518987
vt 0.718750 0.455696
vt 0.700000 0.518987
vt 0.700000 0.455696
vt 0.731250 0.518987
vt 0.718750 0.518987
vt 0.756250 0.455696
vt 0.737500 0.518987
vt 0.737500 0.455696
vt 0.768750 0.518987
vt 0.756250 0.518987
vt 0.568750 0.658228
vt 0.568750 0.658228
vt 0.568750 0.658228
vt 0.562500 0.506329
vt 0.568750 0.658228
vt 0.568750 0.658228
vt 0.562500 0.506329
vt 0.568750 0.658228
vt 0.568750 0.658228
vt 0.568750 0.658228
vt 0.568750 0.658228
vt 0.568750 0.658228
vt 0.812500 0.455696
vt 0.812500 0.455696
vt 0.787500 0.620253
vt 0.731250 0.620253
vt 0.750000 0.620253
vt 0.787500 0.620253
vt 0.806250 0.620253
vt 0.750000 0.620253
vt 0.806250 0.620253
vt 0.712500 0.620253
vt 0.768750 0.620253
vt 0.712500 0.620253
vt 0.731250 0.620253
vt 0.768750 0.620253
vt 0.806250 0.518987
vt 0.712500 0.518987
vt 0.750000 0.518987
vt 0.768750 0.518987
vt 0.787500 0.518987
vt 0.806250 0.518987
vt 0.712500 0.518987
vt 0.750000 0.518987
vt 1.000000 0.405063
vt 0.993750 0.202532
vt 1.000000 0.202532
vt 0.912500 0.202532
vt 0.918750 0.405063
vt 0.912500 0.405063
vt 0.850000 0.405063
vt 0.843750 0.202532
vt 0.850000 0.202532
vt 0.762500 0.202532
vt 0.768750 0.405063
vt 0.762500 0.405063
vt 0.700000 0.202532
vt 0.987500 0.202532
vt 0.925000 0.405063
vt 0.925000 0.202532
vt 0.775000 0.405063
vt 0.837500 0.202532
vt 0.837500 0.405063
vt 0.843750 0.405063
vt 0.775000 0.202532
vt 0.768750 0.202532
vt 0.987500 0.405063
vt 0.993750 0.405063
vt 0.918750 0.202532
vt 0.700000 0.405063
vt 1.000000 0.202532
vt 0.975000 -0.000000
vt 1.000000 -0.000000
vt 0.975000 0.202532
vt 0.950000 0.000000
vt 0.950000 0.202532
vt 0.925000 0.000000
vt 0.925000 0.202532
vt 0.900000 0.000000
vt 0.900000 0.202532
vt 0.875000 0.000000
vt 0.875000 0.202532
vt 0.850000 0.000000
vt 0.850000 0.202532
vt 0.825000 0.000000
vt 0.825000 0.202532
vt 0.800000 0.000000
vt 0.800000 0.202532
vt 0.775000 0.000000
vt 0.775000 0.202532
vt 0.750000 0.000000
vt 0.750000 0.202532
vt 0.725000 0.000000
vt 0.725000 0.202532
vt 0.700000 0.000000
vt 0.700000 0.202532
vt 0.593750 0.582278
vt 0.593750 0.556962
vt 0.600000 0.556962
vt 0.612500 0.556962
vt 0.600000 0.506329
vt 0.612500 0.506329
vt 0.625000 0.556962
vt 0.625000 0.506329
vt 0.581250 0.607595
vt 0.593750 0.607595
vt 0.587500 0.506329
vt 0.587500 0.556962
vt 0.618750 0.607595
vt 0.631250 0.582278
vt 0.631250 0.607595
vt 0.575000 0.607595
vt 0.581250 0.582278
vt 0.612500 0.481013
vt 0.600000 0.481013
vt 0.618750 0.582278
vt 0.637500 0.582278
vt 0.637500 0.607595
vt 0.600000 0.556962
vt 0.612500 0.556962
vt 0.618750 0.582278
vt 0.600000 0.506329
vt 0.612500 0.506329
vt 0.581250 0.607595
vt 0.593750 0.582278
vt 0.593750 0.607595
vt 0.631250 0.607595
vt 0.637500 0.582278
vt 0.637500 0.607595
vt 0.575000 0.607595
vt 0.581250 0.582278
vt 0.612500 0.481013
vt 0.600000 0.481013
vt 0.587500 0.506329
vt 0.587500 0.556962
vt 0.618750 0.607595
vt 0.631250 0.582278
vt 0.625000 0.556962
vt 0.625000 0.506329
vt 0.618750 0.556962
vt 0.575000 0.582278
vt 0.618750 0.556962
vt 0.593750 0.556962
vt 0.575000 0.582278
vt 0.237500 0.278481
vt 0.262500 0.430380
vt 0.237500 0.430380
vt 0.225000 0.202532
vt 0.237500 0.253165
vt 0.225000 0.253165
vt 0.087500 0.202532
vt 0.225000 0.455696
vt 0.087500 0.506329
vt 0.087500 0.455696
vt 0.237500 0.455696
vt 0.225000 0.506329
vt 0.062500 0.253165
vt 0.062500 0.455696
vt 0.087500 0.253165
vt 0.225000 -0.000000
vt 0.775000 0.822785
vt 0.737500 0.924051
vt 0.737500 0.772152
vt 0.850000 0.822785
vt 0.775000 0.746835
vt 0.850000 0.746835
vt 0.775000 0.924051
vt 0.050000 0.607595
vt 0.131250 0.506329
vt 0.125000 0.607595
vt 0.850000 1.000000
vt 0.775000 1.000000
vt 0.887500 0.924051
vt 0.850000 0.924051
vt 0.131250 0.772152
vt 0.043750 0.860759
vt 0.043750 0.772152
vt 0.050000 0.759494
vt 0.125000 0.759494
vt 0.175000 0.772152
vt 0.262500 0.506329
vt 0.262500 0.772152
vt 0.175000 0.506329
vt 0.000000 0.506329
vt 0.000000 0.772152
vt 0.568750 0.316456
vt 0.562500 0.164557
vt 0.568750 0.164557
vt 0.568750 -0.000000
vt 0.650000 0.151899
vt 0.568750 0.151899
vt 0.650000 0.164557
vt 0.650000 0.316456
vt 0.650000 0.329114
vt 0.568750 0.329114
vt 0.656250 0.430380
vt 0.625000 0.329114
vt 0.656250 0.329114
vt 0.625000 0.430380
vt 0.562500 0.329114
vt 0.656250 0.430380
vt 0.625000 0.329114
vt 0.656250 0.329114
vt 0.625000 0.430380
vt 0.562500 0.329114
vt 0.656250 0.430380
vt 0.625000 0.329114
vt 0.656250 0.329114
vt 0.625000 0.430380
vt 0.562500 0.329114
vt 0.700000 -0.000000
vt 0.656250 0.721519
vt 0.656250 -0.000000
vt 0.568750 0.316456
vt 0.650000 0.329114
vt 0.568750 0.329114
vt 0.568750 0.164557
vt 0.650000 0.316456
vt 0.568750 0.151899
vt 0.650000 0.164557
vt 0.568750 -0.000000
vt 0.650000 0.151899
vt 0.562500 0.164557
vt 0.568750 0.316456
vt 0.562500 0.164557
vt 0.568750 0.164557
vt 0.568750 -0.000000
vt 0.650000 0.151899
vt 0.568750 0.151899
vt 0.650000 0.164557
vt 0.650000 0.316456
vt 0.650000 0.329114
vt 0.568750 0.329114
vt 0.262146 0.846476
vt 0.248843 0.947024
vt 0.199197 0.973966
vt 0.262500 0.278481
vt 0.237500 0.202532
vt 0.237500 0.506329
vt 0.087500 -0.000000
vt 0.237500 0.025316
vt 0.237500 0.177215
vt 0.043750 0.506329
vt 0.887500 0.772152
vt 0.131250 0.860759
vt 0.562500 0.316456
vt 0.650000 -0.000000
vt 0.562500 0.430380
vt 0.562500 0.430380
vt 0.562500 0.430380
vt 0.700000 0.721519
vt 0.650000 -0.000000
vt 0.562500 0.316456
vt 0.562500 0.316456
vt 0.650000 -0.000000
vt 0.176157 0.947024
vt 0.162854 0.900360
vt 0.162854 0.846476
vt 0.176157 0.799811
vt 0.199197 0.772869
vt 0.225803 0.772869
vt 0.248843 0.799811
vt 0.262146 0.900360
vt 0.225803 0.973966
vt 0.312500 0.000000
vt 0.337500 0.936709
vt 0.312500 0.936709
vt 0.487500 0.000000
vt 0.512500 0.936709
vt 0.487500 0.936709
vt 0.412500 0.000000
vt 0.437500 0.936709
vt 0.412500 0.936709
vt 0.337500 0.000000
vt 0.362500 0.936709
vt 0.512500 0.000000
vt 0.537500 0.936709
vt 0.262500 0.000000
vt 0.287500 0.936709
vt 0.262500 0.936709
vt 0.437500 0.000000
vt 0.462500 0.936709
vt 0.362500 0.000000
vt 0.387500 0.936709
vt 0.537500 0.000000
vt 0.562500 0.936709
vt 0.287500 0.000000
vt 0.462500 0.000000
vt 0.387500 0.000000
vt 0.818750 0.632911
vt 0.793750 0.658228
vt 0.793750 0.632911
vt 0.587500 0.455696
vt 0.593750 0.481013
vt 0.587500 0.481013
vt 0.743750 0.632911
vt 0.718750 0.658228
vt 0.718750 0.632911
vt 0.831250 0.632911
vt 0.837500 0.658228
vt 0.831250 0.658228
vt 0.743750 0.670886
vt 0.756250 0.683544
vt 0.743750 0.683544
vt 0.768750 0.658228
vt 0.768750 0.632911
vt 0.700000 0.658228
vt 0.706250 0.632911
vt 0.706250 0.658228
vt 0.700000 0.708861
vt 0.706250 0.683544
vt 0.706250 0.708861
vt 0.756250 0.708861
vt 0.743750 0.721519
vt 0.743750 0.708861
vt 0.743750 0.670886
vt 0.756250 0.683544
vt 0.743750 0.683544
vt 0.818750 0.620253
vt 0.831250 0.632911
vt 0.818750 0.632911
vt 0.831250 0.632911
vt 0.837500 0.658228
vt 0.831250 0.658228
vt 0.818750 0.658228
vt 0.793750 0.670886
vt 0.793750 0.658228
vt 0.700000 0.658228
vt 0.706250 0.632911
vt 0.706250 0.658228
vt 0.706250 0.708861
vt 0.718750 0.721519
vt 0.706250 0.721519
vt 0.718750 0.708861
vt 0.743750 0.721519
vt 0.818750 0.620253
vt 0.831250 0.632911
vt 0.818750 0.632911
vt 0.706250 0.708861
vt 0.718750 0.721519
vt 0.706250 0.721519
vt 0.743750 0.708861
vt 0.718750 0.708861
vt 0.743750 0.670886
vt 0.756250 0.683544
vt 0.743750 0.683544
vt 0.706250 0.658228
vt 0.718750 0.670886
vt 0.706250 0.670886
vt 0.743750 0.658228
vt 0.718750 0.658228
vt 0.768750 0.658228
vt 0.743750 0.670886
vt 0.768750 0.670886
vt 0.768750 0.620253
vt 0.793750 0.632911
vt 0.768750 0.632911
vt 0.793750 0.620253
vt 0.818750 0.632911
vt 0.756250 0.708861
vt 0.743750 0.721519
vt 0.743750 0.708861
vt 0.706250 0.683544
vt 0.718750 0.670886
vt 0.718750 0.683544
vt 0.743750 0.670886
vt 0.743750 0.683544
vt 0.756250 0.683544
vt 0.762500 0.708861
vt 0.756250 0.708861
vt 0.706250 0.683544
vt 0.718750 0.670886
vt 0.718750 0.683544
vt 0.743750 0.683544
vt 0.756250 0.683544
vt 0.762500 0.708861
vt 0.756250 0.708861
vt 0.706250 0.632911
vt 0.718750 0.620253
vt 0.718750 0.632911
vt 0.743750 0.632911
vt 0.743750 0.620253
vt 0.568750 0.455696
vt 0.575000 0.481013
vt 0.568750 0.481013
vt 0.606250 0.455696
vt 0.612500 0.481013
vt 0.606250 0.481013
vt 0.581250 0.455696
vt 0.581250 0.481013
vt 0.600000 0.455696
vt 0.600000 0.481013
vt 0.575000 0.455696
vt 0.743750 0.658228
vt 0.743750 0.632911
vt 0.718750 0.658228
vt 0.718750 0.632911
vt 0.706250 0.658228
vt 0.706250 0.632911
vt 0.743750 0.670886
vt 0.756250 0.683544
vt 0.743750 0.683544
vt 0.818750 0.632911
vt 0.793750 0.658228
vt 0.793750 0.632911
vt 0.768750 0.658228
vt 0.768750 0.632911
vt 0.700000 0.658228
vt 0.706250 0.632911
vt 0.706250 0.658228
vt 0.831250 0.658228
vt 0.818750 0.670886
vt 0.706250 0.658228
vt 0.706250 0.632911
vt 0.756250 0.708861
vt 0.743750 0.708861
vt 0.700000 0.708861
vt 0.706250 0.683544
vt 0.706250 0.708861
vt 0.756250 0.708861
vt 0.743750 0.721519
vt 0.756250 0.683544
vt 0.762500 0.708861
vt 0.756250 0.708861
vt 0.818750 0.620253
vt 0.831250 0.632911
vt 0.831250 0.632911
vt 0.837500 0.658228
vt 0.831250 0.658228
vt 0.756250 0.683544
vt 0.831250 0.632911
vt 0.818750 0.658228
vt 0.818750 0.632911
vt 0.743750 0.670886
vt 0.756250 0.683544
vt 0.831250 0.632911
vt 0.837500 0.658228
vt 0.831250 0.658228
vt 0.600000 0.455696
vt 0.593750 0.481013
vt 0.593750 0.455696
vt 0.743750 0.658228
vt 0.743750 0.632911
vt 0.718750 0.658228
vt 0.718750 0.632911
vt 0.706250 0.658228
vt 0.706250 0.632911
vt 0.831250 0.632911
vt 0.818750 0.658228
vt 0.818750 0.632911
vt 0.562500 0.455696
vt 0.568750 0.481013
vt 0.562500 0.481013
vt 0.756250 0.708861
vt 0.743750 0.721519
vt 0.743750 0.708861
vt 0.718750 0.632911
vt 0.706250 0.658228
vt 0.706250 0.632911
vt 0.831250 0.658228
vt 0.818750 0.670886
vt 0.818750 0.658228
vt 0.831250 0.632911
vt 0.818750 0.658228
vt 0.818750 0.632911
vt 0.831250 0.632911
vt 0.818750 0.658228
vt 0.718750 0.632911
vt 0.706250 0.658228
vt 0.706250 0.632911
vt 0.743750 0.632911
vt 0.718750 0.658228
vt 0.587500 0.455696
vt 0.587500 0.481013
vt 0.568750 0.455696
vt 0.575000 0.481013
vt 0.612500 0.455696
vt 0.606250 0.481013
vt 0.606250 0.455696
vt 0.581250 0.455696
vt 0.581250 0.481013
vt 0.600000 0.481013
vt 0.743750 0.620253
vt 0.768750 0.632911
vt 0.743750 0.632911
vt 0.718750 0.620253
vt 0.718750 0.632911
vt 0.706250 0.632911
vt 0.718750 0.670886
vt 0.718750 0.683544
vt 0.706250 0.683544
vt 0.718750 0.683544
vt 0.706250 0.683544
vt 0.718750 0.670886
vt 0.793750 0.620253
vt 0.793750 0.632911
vt 0.768750 0.620253
vt 0.793750 0.658228
vt 0.768750 0.670886
vt 0.768750 0.658228
vt 0.743750 0.670886
vt 0.743750 0.658228
vt 0.718750 0.670886
vt 0.718750 0.658228
vt 0.706250 0.658228
vt 0.706250 0.670886
vt 0.718750 0.721519
vt 0.718750 0.708861
vt 0.706250 0.708861
vt 0.706250 0.721519
vt 0.718750 0.708861
vt 0.718750 0.721519
vt 0.706250 0.708861
vt 0.706250 0.721519
vt 0.793750 0.670886
vt 0.818750 0.658228
vt 0.793750 0.670886
vt 0.793750 0.658228
vt 0.706250 0.708861
vt 0.718750 0.721519
vt 0.706250 0.721519
vt 0.718750 0.708861
vt 0.743750 0.721519
vt 0.706250 0.708861
vt 0.718750 0.721519
vt 0.706250 0.721519
vt 0.743750 0.708861
vt 0.718750 0.708861
vt 0.706250 0.658228
vt 0.718750 0.670886
vt 0.706250 0.670886
vt 0.743750 0.658228
vt 0.718750 0.658228
vt 0.768750 0.658228
vt 0.743750 0.670886
vt 0.768750 0.670886
vt 0.768750 0.620253
vt 0.793750 0.632911
vt 0.768750 0.632911
vt 0.793750 0.620253
vt 0.818750 0.632911
vt 0.706250 0.683544
vt 0.718750 0.670886
vt 0.718750 0.683544
vt 0.743750 0.670886
vt 0.743750 0.683544
vt 0.706250 0.683544
vt 0.718750 0.670886
vt 0.718750 0.683544
vt 0.743750 0.683544
vt 0.706250 0.632911
vt 0.718750 0.620253
vt 0.718750 0.632911
vt 0.743750 0.632911
vt 0.743750 0.620253
vt 0.575000 0.455696
vt 0.600000 0.455696
vt 0.593750 0.481013
vt 0.593750 0.455696
vt 0.568750 0.455696
vt 0.562500 0.481013
vt 0.562500 0.455696
vt 0.587500 0.455696
vt 0.587500 0.481013
vt 0.575000 0.481013
vt 0.568750 0.481013
vt 0.768750 0.632911
vt 0.743750 0.658228
vt 0.793750 0.632911
vt 0.768750 0.658228
vt 0.793750 0.658228
vt 0.793750 0.658228
vt 0.793750 0.632911
vt 0.831250 0.658228
vt 0.818750 0.670886
vt 0.743750 0.632911
vt 0.718750 0.658228
vt 0.756250 0.708861
vt 0.743750 0.708861
vt 0.612500 0.455696
vt 0.606250 0.481013
vt 0.606250 0.455696
vt 0.768750 0.632911
vt 0.743750 0.658228
vt 0.768750 0.658228
vt 0.768750 0.632911
vt 0.743750 0.658228
vt 0.700000 0.658228
vt 0.706250 0.632911
vt 0.706250 0.658228
vt 0.581250 0.481013
vt 0.581250 0.455696
vt 0.700000 0.658228
vt 0.706250 0.632911
vt 0.706250 0.658228
vt 0.743750 0.670886
vt 0.756250 0.683544
vt 0.743750 0.683544
vt 0.793750 0.632911
vt 0.768750 0.658228
vt 0.743750 0.670886
vt 0.756250 0.683544
vt 0.743750 0.683544
vt 0.831250 0.632911
vt 0.837500 0.658228
vt 0.831250 0.658228
vt 0.818750 0.620253
vt 0.831250 0.632911
vt 0.818750 0.632911
vt 0.762500 0.708861
vt 0.756250 0.708861
vt 0.743750 0.721519
vt 0.743750 0.708861
vt 0.700000 0.708861
vt 0.706250 0.683544
vt 0.706250 0.708861
vt 0.756250 0.708861
vt 0.743750 0.721519
vt 0.743750 0.708861
vt 0.793750 0.658228
vt 0.831250 0.658228
vt 0.818750 0.670886
vt 0.818750 0.658228
vt 0.700000 0.708861
vt 0.706250 0.683544
vt 0.706250 0.708861
vt 0.700000 0.708861
vt 0.706250 0.683544
vt 0.706250 0.708861
vt 0.756250 0.683544
vt 0.762500 0.708861
vt 0.756250 0.708861
vt 0.743750 0.670886
vt 0.756250 0.683544
vt 0.700000 0.708861
vt 0.706250 0.683544
vt 0.706250 0.708861
vt 0.756250 0.683544
vt 0.762500 0.708861
vt 0.756250 0.708861
vt 0.700000 0.708861
vt 0.706250 0.683544
vt 0.706250 0.708861
vt 0.600000 0.481013
vt 0.575000 0.455696
vt 0.593750 0.455696
vt 0.600000 0.481013
vt 0.593750 0.481013
vt 0.562500 0.455696
vt 0.568750 0.481013
vt 0.562500 0.481013
vt 0.587500 0.455696
vt 0.587500 0.481013
vt 0.743750 0.620253
vt 0.768750 0.632911
vt 0.743750 0.632911
vt 0.718750 0.620253
vt 0.718750 0.632911
vt 0.706250 0.632911
vt 0.700000 0.708861
vt 0.706250 0.683544
vt 0.706250 0.708861
vt 0.718750 0.670886
vt 0.718750 0.683544
vt 0.706250 0.683544
vt 0.756250 0.683544
vt 0.762500 0.708861
vt 0.756250 0.708861
vt 0.718750 0.683544
vt 0.706250 0.683544
vt 0.718750 0.670886
vt 0.756250 0.708861
vt 0.743750 0.721519
vt 0.793750 0.620253
vt 0.793750 0.632911
vt 0.768750 0.620253
vt 0.793750 0.658228
vt 0.768750 0.670886
vt 0.768750 0.658228
vt 0.743750 0.670886
vt 0.743750 0.658228
vt 0.718750 0.670886
vt 0.718750 0.658228
vt 0.706250 0.658228
vt 0.706250 0.670886
vt 0.756250 0.683544
vt 0.718750 0.721519
vt 0.718750 0.708861
vt 0.706250 0.708861
vt 0.706250 0.721519
vt 0.818750 0.620253
vt 0.831250 0.632911
vt 0.718750 0.708861
vt 0.718750 0.721519
vt 0.706250 0.708861
vt 0.706250 0.721519
vt 0.756250 0.683544
vt 0.762500 0.708861
vt 0.756250 0.708861
vt 0.793750 0.670886
vt 0.756250 0.708861
vt 0.743750 0.721519
vt 0.743750 0.708861
vt 0.831250 0.632911
vt 0.818750 0.658228
vt 0.831250 0.658228
vt 0.818750 0.670886
vt 0.818750 0.658228
vt 0.756250 0.683544
vt 0.762500 0.708861
vt 0.756250 0.708861
vt 0.700000 0.708861
vt 0.706250 0.683544
vt 0.706250 0.708861
vt 0.700000 0.708861
vt 0.706250 0.683544
vt 0.706250 0.708861
vt 0.756250 0.683544
vt 0.762500 0.708861
vt 0.756250 0.708861
vt 0.568750 0.455696
vt 0.575000 0.481013
vt 0.612500 0.455696
vt 0.606250 0.481013
vt 0.606250 0.455696
vt 0.581250 0.455696
vt 0.581250 0.481013
vt 0.600000 0.455696
vt 0.575000 0.455696
vt 0.743750 0.620253
vt 0.768750 0.632911
vt 0.743750 0.632911
vt 0.718750 0.620253
vt 0.718750 0.632911
vt 0.706250 0.632911
vt 0.718750 0.670886
vt 0.718750 0.683544
vt 0.706250 0.683544
vt 0.718750 0.683544
vt 0.706250 0.683544
vt 0.718750 0.670886
vt 0.793750 0.620253
vt 0.793750 0.632911
vt 0.768750 0.620253
vt 0.793750 0.658228
vt 0.768750 0.670886
vt 0.768750 0.658228
vt 0.743750 0.670886
vt 0.743750 0.658228
vt 0.718750 0.670886
vt 0.718750 0.658228
vt 0.706250 0.658228
vt 0.706250 0.670886
vt 0.718750 0.721519
vt 0.718750 0.708861
vt 0.706250 0.708861
vt 0.706250 0.721519
vt 0.718750 0.708861
vt 0.718750 0.721519
vt 0.706250 0.708861
vt 0.706250 0.721519
vt 0.793750 0.670886
vt 0.575000 0.430380
vt 0.568750 0.455696
vt 0.568750 0.430380
vt 0.562500 0.430380
vt 0.612500 0.455696
vt 0.606250 0.430380
vt 0.612500 0.430380
vt 0.606250 0.455696
vt 0.600000 0.430380
vt 0.593750 0.455696
vt 0.593750 0.430380
vt 0.587500 0.430380
vt 0.573353 0.484348
vt 0.573353 0.502994
vt 0.564147 0.502994
vt 0.587500 0.455696
vt 0.581250 0.430380
vt 0.581250 0.455696
vt 0.575000 0.430380
vt 0.568750 0.455696
vt 0.568750 0.430380
vt 0.562500 0.430380
vt 0.612500 0.455696
vt 0.606250 0.430380
vt 0.612500 0.430380
vt 0.606250 0.455696
vt 0.600000 0.430380
vt 0.593750 0.455696
vt 0.593750 0.430380
vt 0.587500 0.430380
vt 0.573353 0.484348
vt 0.573353 0.502994
vt 0.564147 0.502994
vt 0.587500 0.455696
vt 0.581250 0.430380
vt 0.581250 0.455696
vt 0.575000 0.430380
vt 0.568750 0.455696
vt 0.568750 0.430380
vt 0.562500 0.430380
vt 0.612500 0.455696
vt 0.606250 0.430380
vt 0.612500 0.430380
vt 0.606250 0.455696
vt 0.600000 0.430380
vt 0.593750 0.455696
vt 0.593750 0.430380
vt 0.587500 0.430380
vt 0.573353 0.484348
vt 0.573353 0.502994
vt 0.564147 0.502994
vt 0.587500 0.455696
vt 0.581250 0.430380
vt 0.581250 0.455696
vt 0.575000 0.455696
vt 0.568750 0.430380
vt 0.575000 0.430380
vt 0.568750 0.455696
vt 0.562500 0.430380
vt 0.612500 0.430380
vt 0.606250 0.455696
vt 0.606250 0.430380
vt 0.600000 0.430380
vt 0.600000 0.455696
vt 0.593750 0.430380
vt 0.593750 0.455696
vt 0.587500 0.430380
vt 0.573353 0.484348
vt 0.573353 0.502994
vt 0.564147 0.502994
vt 0.587500 0.455696
vt 0.581250 0.430380
vt 0.581250 0.455696
vt 0.756250 0.683544
vt 0.743750 0.708861
vt 0.743750 0.683544
vt 0.756250 0.683544
vt 0.743750 0.708861
vt 0.743750 0.683544
vt 0.756250 0.683544
vt 0.743750 0.708861
vt 0.743750 0.683544
vt 0.743750 0.683544
vt 0.718750 0.708861
vt 0.718750 0.683544
vt 0.706250 0.708861
vt 0.706250 0.683544
vt 0.743750 0.683544
vt 0.718750 0.708861
vt 0.718750 0.683544
vt 0.706250 0.708861
vt 0.706250 0.683544
vt 0.756250 0.683544
vt 0.743750 0.708861
vt 0.756250 0.683544
vt 0.743750 0.708861
vt 0.743750 0.683544
vt 0.756250 0.683544
vt 0.743750 0.708861
vt 0.718750 0.683544
vt 0.706250 0.708861
vt 0.706250 0.683544
vt 0.718750 0.708861
vt 0.718750 0.683544
vt 0.706250 0.708861
vt 0.706250 0.683544
vt 0.718750 0.708861
vt 0.743750 0.683544
vt 0.718750 0.708861
vt 0.718750 0.683544
vt 0.706250 0.708861
vt 0.706250 0.683544
vt 0.743750 0.683544
vt 0.718750 0.708861
vt 0.718750 0.683544
vt 0.706250 0.708861
vt 0.706250 0.683544
vt 0.756250 0.683544
vt 0.743750 0.708861
vt 0.743750 0.683544
vt 0.756250 0.683544
vt 0.743750 0.708861
vt 0.756250 0.683544
vt 0.743750 0.708861
vt 0.743750 0.683544
vt 0.718750 0.683544
vt 0.706250 0.708861
vt 0.706250 0.683544
vt 0.718750 0.708861
vt 0.718750 0.683544
vt 0.706250 0.708861
vt 0.706250 0.683544
vt 0.718750 0.708861
vt 0.756250 0.683544
vt 0.743750 0.708861
vt 0.718750 0.683544
vt 0.706250 0.708861
vt 0.706250 0.683544
vt 0.718750 0.708861
vt 0.718750 0.683544
vt 0.706250 0.708861
vt 0.706250 0.683544
vt 0.718750 0.708861
vt 0.562500 0.455696
vt 0.562500 0.481013
vt 0.593750 0.455696
vt 0.562500 0.000000
vt 0.837500 0.632911
vt 0.756250 0.670886
vt 0.700000 0.632911
vt 0.700000 0.683544
vt 0.756250 0.721519
vt 0.756250 0.670886
vt 0.831250 0.620253
vt 0.837500 0.632911
vt 0.700000 0.632911
vt 0.831250 0.620253
vt 0.756250 0.670886
vt 0.756250 0.721519
vt 0.706250 0.670886
vt 0.762500 0.683544
vt 0.706250 0.670886
vt 0.762500 0.683544
vt 0.706250 0.620253
vt 0.612500 0.455696
vt 0.756250 0.670886
vt 0.700000 0.632911
vt 0.831250 0.670886
vt 0.756250 0.721519
vt 0.700000 0.683544
vt 0.756250 0.721519
vt 0.762500 0.683544
vt 0.831250 0.620253
vt 0.837500 0.632911
vt 0.756250 0.670886
vt 0.831250 0.658228
vt 0.756250 0.670886
vt 0.837500 0.632911
vt 0.831250 0.658228
vt 0.756250 0.721519
vt 0.831250 0.670886
vt 0.831250 0.658228
vt 0.831250 0.658228
vt 0.612500 0.481013
vt 0.706250 0.620253
vt 0.706250 0.670886
vt 0.706250 0.670886
vt 0.706250 0.670886
vt 0.706250 0.670886
vt 0.706250 0.620253
vt 0.831250 0.670886
vt 0.756250 0.721519
vt 0.612500 0.481013
vt 0.700000 0.632911
vt 0.700000 0.632911
vt 0.756250 0.670886
vt 0.756250 0.670886
vt 0.837500 0.632911
vt 0.831250 0.620253
vt 0.762500 0.683544
vt 0.756250 0.721519
vt 0.700000 0.683544
vt 0.756250 0.721519
vt 0.831250 0.670886
vt 0.700000 0.683544
vt 0.700000 0.683544
vt 0.762500 0.683544
vt 0.756250 0.670886
vt 0.700000 0.683544
vt 0.762500 0.683544
vt 0.700000 0.683544
vt 0.706250 0.620253
vt 0.700000 0.683544
vt 0.706250 0.670886
vt 0.762500 0.683544
vt 0.706250 0.670886
vt 0.756250 0.721519
vt 0.756250 0.670886
vt 0.831250 0.620253
vt 0.762500 0.683544
vt 0.756250 0.721519
vt 0.831250 0.658228
vt 0.831250 0.670886
vt 0.762500 0.683544
vt 0.700000 0.683544
vt 0.700000 0.683544
vt 0.762500 0.683544
vt 0.612500 0.481013
vt 0.706250 0.620253
vt 0.706250 0.670886
vt 0.706250 0.670886
vt 0.575000 0.455696
vt 0.562500 0.455696
vt 0.600000 0.455696
vt 0.564147 0.484348
vt 0.568750 0.481013
vt 0.575000 0.493671
vt 0.568750 0.506329
vt 0.562500 0.493671
vt 0.575000 0.455696
vt 0.562500 0.455696
vt 0.600000 0.455696
vt 0.564147 0.484348
vt 0.568750 0.481013
vt 0.575000 0.493671
vt 0.568750 0.506329
vt 0.562500 0.493671
vt 0.575000 0.455696
vt 0.562500 0.455696
vt 0.600000 0.455696
vt 0.564147 0.484348
vt 0.568750 0.481013
vt 0.575000 0.493671
vt 0.568750 0.506329
vt 0.562500 0.493671
vt 0.562500 0.455696
vt 0.612500 0.455696
vt 0.564147 0.484348
vt 0.568750 0.481013
vt 0.575000 0.493671
vt 0.568750 0.506329
vt 0.562500 0.493671
vt 0.756250 0.708861
vt 0.756250 0.708861
vt 0.756250 0.708861
vt 0.756250 0.708861
vt 0.756250 0.708861
vt 0.756250 0.708861
vt 0.756250 0.708861
vt 0.756250 0.708861
vt 0.756250 0.708861
vt 0.756250 0.708861
vn 0.0000 0.0000 1.0000
vn 1.0000 0.0000 0.0000
vn 0.0000 0.0000 -1.0000
vn -1.0000 0.0000 0.0000
vn 0.0000 1.0000 0.0000
vn 0.7071 0.0000 0.7071
vn 0.7071 0.0000 -0.7071
vn -0.7071 0.0000 0.7071
vn 0.0000 -1.0000 0.0000
vn -0.7071 0.0000 -0.7071
vn 0.5000 -0.8660 0.0000
vn -0.8660 -0.5000 0.0000
vn 0.8660 0.5000 0.0000
vn 0.5000 0.8660 0.0000
vn -0.5000 0.8660 0.0000
vn 0.8660 -0.5000 0.0000
vn -0.5000 -0.8660 0.0000
vn -0.8660 0.5000 0.0000
vn 0.8660 0.0000 -0.5000
vn 0.5000 0.0000 0.8660
vn -0.8660 0.0000 0.5000
vn 0.5000 0.0000 -0.8660
vn -0.5000 0.0000 -0.8660
vn 0.8660 0.0000 0.5000
vn -0.5000 0.0000 0.8660
vn -0.8660 0.0000 -0.5000
vn 0.4000 0.6000 0.6928
vn 0.6928 0.6000 0.4000
vn 0.8000 0.6000 0.0000
vn 0.6928 0.6000 -0.4000
vn 0.4000 0.6000 -0.6928
vn 0.0000 0.6000 -0.8000
vn -0.4000 0.6000 -0.6928
vn -0.6928 0.6000 -0.4000
vn -0.8000 0.6000 0.0000
vn -0.6928 0.6000 0.4000
vn -0.4000 0.6000 0.6928
vn 0.0000 0.6000 0.8000
vn 0.0000 0.0000 1.0000
vn 0.0000 0.0000 -1.0000
vn 0.0000 -1.0000 0.0000
vn 0.0000 1.0000 0.0000
vn 0.0000 0.0000 -1.0000
vn 0.5000 0.0000 -0.8660
vn 0.8660 0.0000 -0.5000
vn 1.0000 0.0000 0.0000
vn 0.8660 0.0000 0.5000
vn 0.5000 0.0000 0.8660
vn 0.0000 0.0000 1.0000
vn -0.5000 0.0000 0.8660
vn -0.8660 0.0000 0.5000
vn -1.0000 0.0000 0.0000
vn -0.8660 0.0000 -0.5000
vn -0.5000 0.0000 -0.8660
vn -1.0000 0.0000 0.0000
vn 0.0000 0.0000 1.0000
vn 0.0000 0.0000 -1.0000
vn 0.0000 -1.0000 0.0000
vn 0.0000 1.0000 0.0000
vn 1.0000 0.0000 0.0000
vn 0.0000 0.0000 -1.0000
vn 0.7071 0.0000 -0.7071
vn 1.0000 0.0000 0.0000
vn -1.0000 0.0000 0.0000
vn -0.7071 0.0000 -0.7071
vn 0.0000 0.0000 1.0000
vn 0.0000 1.0000 0.0000
vn 0.0000 -1.0000 0.0000
vn 0.0000 0.8321 0.5547
vn -0.8660 0.0000 -0.5000
vn 0.8660 0.0000 -0.5000
vn 0.5000 0.0000 0.8660
vn -0.8660 0.0000 0.5000
vn 0.5000 0.0000 -0.8660
vn -0.5000 0.0000 -0.8660
vn 0.8660 0.0000 0.5000
vn -0.5000 0.0000 0.8660
vn 0.3162 0.8944 -0.3162
vn 0.7634 0.6324 0.1310
vn 0.2588 0.0000 -0.9659
vn -0.2588 0.0000 -0.9659
vn 0.2588 0.0000 0.9659
vn -0.9659 0.0000 -0.2588
vn -0.1310 -0.6324 -0.7634
vn -0.3162 0.0000 -0.9487
vn 0.7634 -0.6324 0.1310
vn 0.3162 -0.8944 -0.3162
vn -0.1310 0.6324 -0.7634
vn 0.9487 0.0000 0.3162
vn -0.9659 0.0000 0.2588
vn 0.9659 0.0000 0.2588
vn -0.1830 -0.7071 0.6830
vn -0.1830 0.7071 0.6830
vn 0.9659 0.0000 -0.2588
vn -0.2588 0.0000 0.9659
vn -0.5000 -0.7071 -0.5000
vn 0.5000 -0.7071 0.5000
vn 0.7071 0.0000 0.7071
vn 0.5000 0.7071 0.5000
vn -0.5000 0.7071 -0.5000
usemtl Material
o Lift
s off
f 488/571/55 489/572/55 490/573/55
f 486/574/55 491/575/55 492/576/55
f 483/577/56 492/576/56 484/578/56
f 471/579/57 488/571/57 472/580/57
f 482/581/57 490/573/57 481/582/57
f 470/583/56 485/584/56 469/585/56
f 481/586/58 489/587/58 471/579/58
f 484/588/58 491/575/58 482/589/58
f 472/580/59 487/590/59 470/583/59
f 469/585/58 486/591/58 483/592/58
f 496/593/60 499/594/60 493/595/60
f 499/594/60 498/596/60 500/597/60
f 473/598/56 497/599/56 474/600/56
f 475/601/58 499/602/58 477/603/58
f 479/604/58 495/605/58 473/598/58
f 478/606/58 498/596/58 480/607/58
f 480/608/56 496/593/56 479/609/56
f 474/600/59 493/595/59 476/610/59
f 476/610/57 494/611/57 475/601/57
f 477/612/57 500/597/57 478/613/57
f 490/573/55 486/574/55 488/571/55
f 486/574/55 485/614/55 487/590/55
f 488/571/55 486/574/55 487/590/55
f 486/574/55 490/573/55 491/575/55
f 483/577/56 486/574/56 492/576/56
f 471/579/57 489/587/57 488/571/57
f 482/581/57 491/575/57 490/573/57
f 470/583/56 487/590/56 485/584/56
f 481/586/58 490/615/58 489/587/58
f 484/588/58 492/576/58 491/575/58
f 472/580/59 488/571/59 487/590/59
f 469/585/58 485/584/58 486/591/58
f 499/594/60 494/616/60 493/595/60
f 493/595/60 497/599/60 496/593/60
f 497/599/60 495/617/60 496/593/60
f 499/594/60 496/593/60 498/596/60
f 473/598/56 495/605/56 497/599/56
f 475/601/58 494/611/58 499/602/58
f 479/604/58 496/618/58 495/605/58
f 478/606/58 500/597/58 498/596/58
f 480/608/56 498/596/56 496/593/56
f 474/600/59 497/599/59 493/595/59
f 476/610/57 493/595/57 494/611/57
f 477/612/57 499/594/57 500/597/57
