# Extracted from HBM 1.7.10 rbmk_element.obj
mtllib rbmk_element_cap.mtl
v -0.437400 1.000000 0.312500
v -0.437400 1.000000 0.187500
v -0.312400 1.000000 0.437500
v -0.312400 1.000000 0.062500
v -0.187400 1.000000 0.437500
v -0.187400 1.000000 0.062500
v -0.062400 1.000000 0.312500
v -0.062400 1.000000 0.187500
v -0.437400 0.000000 -0.187500
v -0.437400 0.000000 -0.312500
v -0.312400 0.000000 -0.062500
v -0.312400 0.000000 -0.437500
v -0.187400 0.000000 -0.062500
v -0.187400 0.000000 -0.437500
v -0.062400 0.000000 -0.187500
v -0.062400 0.000000 -0.312500
v -0.062400 1.000000 -0.312500
v -0.062400 1.000000 -0.187500
v -0.187400 1.000000 -0.437500
v -0.187400 1.000000 -0.062500
v -0.312400 1.000000 -0.437500
v -0.312400 1.000000 -0.062500
v -0.437400 1.000000 -0.312500
v -0.437400 1.000000 -0.187500
v -0.062400 0.000000 0.187500
v -0.062400 0.000000 0.312500
v -0.187400 0.000000 0.062500
v -0.187400 0.000000 0.437500
v -0.312400 0.000000 0.062500
v -0.312400 0.000000 0.437500
v -0.437400 0.000000 0.187500
v -0.437400 0.000000 0.312500
v 0.062600 1.000000 0.312500
v 0.062600 1.000000 0.187500
v 0.187600 1.000000 0.437500
v 0.187600 1.000000 0.062500
v 0.312600 1.000000 0.437500
v 0.312600 1.000000 0.062500
v 0.437600 1.000000 0.312500
v 0.437600 1.000000 0.187500
v 0.062600 0.000000 -0.187500
v 0.062600 0.000000 -0.312500
v 0.187600 0.000000 -0.062500
v 0.187600 0.000000 -0.437500
v 0.312600 0.000000 -0.062500
v 0.312600 0.000000 -0.437500
v 0.437600 0.000000 -0.187500
v 0.437600 0.000000 -0.312500
v 0.437600 1.000000 -0.312500
v 0.437600 1.000000 -0.187500
v 0.312600 1.000000 -0.437500
v 0.312600 1.000000 -0.062500
v 0.187600 1.000000 -0.437500
v 0.187600 1.000000 -0.062500
v 0.062600 1.000000 -0.312500
v 0.062600 1.000000 -0.187500
v 0.437600 0.000000 0.187500
v 0.437600 0.000000 0.312500
v 0.312600 0.000000 0.062500
v 0.312600 0.000000 0.437500
v 0.187600 0.000000 0.062500
v 0.187600 0.000000 0.437500
v 0.062600 0.000000 0.187500
v 0.062600 0.000000 0.312500
vt 0.562500 1.000000
vt 0.437500 1.000000
vt 0.437500 0.000000
vt 0.562500 0.000000
vt 0.562500 1.000000
vt 0.437500 1.000000
vt 0.437500 0.000000
vt 0.562500 0.000000
vt 0.562500 1.000000
vt 0.437500 1.000000
vt 0.437500 0.000000
vt 0.562500 0.000000
vt 0.562500 1.000000
vt 0.437500 1.000000
vt 0.437500 0.000000
vt 0.562500 0.000000
vt 0.437500 1.000000
vt 0.437500 0.000000
vt 0.562500 0.000000
vt 0.562500 1.000000
vt 0.437500 1.000000
vt 0.437500 0.000000
vt 0.562500 0.000000
vt 0.562500 1.000000
vt 0.437500 1.000000
vt 0.437500 0.000000
vt 0.562500 0.000000
vt 0.562500 1.000000
vt 0.437500 1.000000
vt 0.437500 0.000000
vt 0.562500 0.000000
vt 0.562500 1.000000
vt 0.562500 1.000000
vt 0.437500 1.000000
vt 0.437500 0.000000
vt 0.562500 0.000000
vt 0.562500 1.000000
vt 0.437500 1.000000
vt 0.437500 0.000000
vt 0.562500 0.000000
vt 0.562500 1.000000
vt 0.437500 1.000000
vt 0.437500 0.000000
vt 0.562500 0.000000
vt 0.562500 1.000000
vt 0.437500 1.000000
vt 0.437500 0.000000
vt 0.562500 0.000000
vt 0.437500 1.000000
vt 0.437500 0.000000
vt 0.562500 0.000000
vt 0.562500 1.000000
vt 0.437500 1.000000
vt 0.437500 0.000000
vt 0.562500 0.000000
vt 0.562500 1.000000
vt 0.437500 1.000000
vt 0.437500 0.000000
vt 0.562500 0.000000
vt 0.562500 1.000000
vt 0.437500 1.000000
vt 0.437500 0.000000
vt 0.562500 0.000000
vt 0.562500 1.000000
vt 0.562500 1.000000
vt 0.437500 1.000000
vt 0.437500 0.000000
vt 0.562500 0.000000
vt 0.562500 1.000000
vt 0.437500 1.000000
vt 0.437500 0.000000
vt 0.562500 0.000000
vt 0.562500 1.000000
vt 0.437500 1.000000
vt 0.437500 0.000000
vt 0.562500 0.000000
vt 0.562500 1.000000
vt 0.437500 1.000000
vt 0.437500 0.000000
vt 0.562500 0.000000
vt 0.437500 1.000000
vt 0.437500 0.000000
vt 0.562500 0.000000
vt 0.562500 1.000000
vt 0.437500 1.000000
vt 0.437500 0.000000
vt 0.562500 0.000000
vt 0.562500 1.000000
vt 0.437500 1.000000
vt 0.437500 0.000000
vt 0.562500 0.000000
vt 0.562500 1.000000
vt 0.437500 1.000000
vt 0.437500 0.000000
vt 0.562500 0.000000
vt 0.562500 1.000000
vt 0.562500 1.000000
vt 0.437500 1.000000
vt 0.437500 0.000000
vt 0.562500 0.000000
vt 0.562500 1.000000
vt 0.437500 1.000000
vt 0.437500 0.000000
vt 0.562500 0.000000
vt 0.562500 1.000000
vt 0.437500 1.000000
vt 0.437500 0.000000
vt 0.562500 0.000000
vt 0.562500 1.000000
vt 0.437500 1.000000
vt 0.437500 0.000000
vt 0.562500 0.000000
vt 0.437500 1.000000
vt 0.437500 0.000000
vt 0.562500 0.000000
vt 0.562500 1.000000
vt 0.437500 1.000000
vt 0.437500 0.000000
vt 0.562500 0.000000
vt 0.562500 1.000000
vt 0.437500 1.000000
vt 0.437500 0.000000
vt 0.562500 0.000000
vt 0.562500 1.000000
vt 0.437500 1.000000
vt 0.437500 0.000000
vt 0.562500 0.000000
vt 0.562500 1.000000
vn -0.7071 0.0000 0.7071
vn 0.0000 0.0000 1.0000
vn 1.0000 0.0000 0.0000
vn 0.7071 0.0000 0.7071
vn -1.0000 0.0000 0.0000
vn -0.7071 0.0000 -0.7071
vn 0.0000 0.0000 -1.0000
vn 0.7071 0.0000 -0.7071
v -0.374900 0.000000 0.312500
v -0.374900 0.000000 0.187500
v -0.312400 0.000000 0.375000
v -0.312400 0.000000 0.125000
v -0.187400 0.000000 0.375000
v -0.187400 0.000000 0.125000
v -0.124900 0.000000 0.312500
v -0.124900 0.000000 0.187500
v -0.374900 1.000000 0.312500
v -0.312400 1.000000 0.375000
v -0.374900 1.000000 0.187500
v -0.312400 1.000000 0.125000
v -0.187400 1.000000 0.375000
v -0.187400 1.000000 0.125000
v -0.124900 1.000000 0.312500
v -0.124900 1.000000 0.187500
v -0.374900 0.000000 -0.187500
v -0.374900 0.000000 -0.312500
v -0.312400 0.000000 -0.125000
v -0.312400 0.000000 -0.375000
v -0.187400 0.000000 -0.125000
v -0.187400 0.000000 -0.375000
v -0.124900 0.000000 -0.187500
v -0.124900 0.000000 -0.312500
v -0.374900 1.000000 -0.187500
v -0.312400 1.000000 -0.125000
v -0.374900 1.000000 -0.312500
v -0.312400 1.000000 -0.375000
v -0.187400 1.000000 -0.125000
v -0.187400 1.000000 -0.375000
v -0.124900 1.000000 -0.187500
v -0.124900 1.000000 -0.312500
v 0.125100 0.000000 -0.187500
v 0.125100 0.000000 -0.312500
v 0.187600 0.000000 -0.125000
v 0.187600 0.000000 -0.375000
v 0.312600 0.000000 -0.125000
v 0.312600 0.000000 -0.375000
v 0.375100 0.000000 -0.187500
v 0.375100 0.000000 -0.312500
v 0.125100 1.000000 -0.187500
v 0.187600 1.000000 -0.125000
v 0.125100 1.000000 -0.312500
v 0.187600 1.000000 -0.375000
v 0.312600 1.000000 -0.125000
v 0.312600 1.000000 -0.375000
v 0.375100 1.000000 -0.187500
v 0.375100 1.000000 -0.312500
v 0.125100 0.000000 0.312500
v 0.125100 0.000000 0.187500
v 0.187600 0.000000 0.375000
v 0.187600 0.000000 0.125000
v 0.312600 0.000000 0.375000
v 0.312600 0.000000 0.125000
v 0.375100 0.000000 0.312500
v 0.375100 0.000000 0.187500
v 0.125100 1.000000 0.312500
v 0.187600 1.000000 0.375000
v 0.125100 1.000000 0.187500
v 0.187600 1.000000 0.125000
v 0.312600 1.000000 0.375000
v 0.312600 1.000000 0.125000
v 0.375100 1.000000 0.312500
v 0.375100 1.000000 0.187500
vt 0.656250 0.968750
vt 0.687500 0.875000
vt 0.781250 0.906250
vt 0.750000 0.875000
vt 0.781250 0.968750
vt 0.687500 1.000000
vt 0.593750 0.500000
vt 0.562500 1.000000
vt 0.562500 0.500000
vt 0.593750 0.500000
vt 0.562500 1.000000
vt 0.562500 0.500000
vt 0.656250 0.500000
vt 0.593750 1.000000
vt 0.593750 0.500000
vt 0.656250 0.500000
vt 0.593750 1.000000
vt 0.656250 0.500000
vt 0.593750 1.000000
vt 0.593750 0.500000
vt 0.562500 1.000000
vt 0.562500 0.500000
vt 0.656250 0.500000
vt 0.593750 1.000000
vt 0.562500 1.000000
vt 0.562500 0.500000
vt 0.656250 0.968750
vt 0.687500 0.875000
vt 0.781250 0.906250
vt 0.750000 0.875000
vt 0.781250 0.968750
vt 0.687500 1.000000
vt 0.593750 0.500000
vt 0.562500 1.000000
vt 0.562500 0.500000
vt 0.593750 0.500000
vt 0.562500 1.000000
vt 0.562500 0.500000
vt 0.656250 0.500000
vt 0.593750 1.000000
vt 0.593750 0.500000
vt 0.656250 0.500000
vt 0.593750 1.000000
vt 0.656250 0.500000
vt 0.593750 1.000000
vt 0.593750 0.500000
vt 0.562500 1.000000
vt 0.562500 0.500000
vt 0.656250 0.500000
vt 0.593750 1.000000
vt 0.562500 1.000000
vt 0.562500 0.500000
vt 0.656250 0.968750
vt 0.687500 0.875000
vt 0.781250 0.906250
vt 0.750000 0.875000
vt 0.781250 0.968750
vt 0.687500 1.000000
vt 0.593750 0.500000
vt 0.562500 1.000000
vt 0.562500 0.500000
vt 0.593750 0.500000
vt 0.562500 1.000000
vt 0.562500 0.500000
vt 0.656250 0.500000
vt 0.593750 1.000000
vt 0.593750 0.500000
vt 0.656250 0.500000
vt 0.593750 1.000000
vt 0.656250 0.500000
vt 0.593750 1.000000
vt 0.593750 0.500000
vt 0.562500 1.000000
vt 0.562500 0.500000
vt 0.656250 0.500000
vt 0.593750 1.000000
vt 0.562500 1.000000
vt 0.562500 0.500000
vt 0.656250 0.968750
vt 0.687500 0.875000
vt 0.781250 0.906250
vt 0.750000 0.875000
vt 0.781250 0.968750
vt 0.687500 1.000000
vt 0.593750 0.500000
vt 0.562500 1.000000
vt 0.562500 0.500000
vt 0.593750 0.500000
vt 0.562500 1.000000
vt 0.562500 0.500000
vt 0.656250 0.500000
vt 0.593750 1.000000
vt 0.593750 0.500000
vt 0.656250 0.500000
vt 0.593750 1.000000
vt 0.656250 0.500000
vt 0.593750 1.000000
vt 0.593750 0.500000
vt 0.562500 1.000000
vt 0.562500 0.500000
vt 0.656250 0.500000
vt 0.593750 1.000000
vt 0.562500 1.000000
vt 0.562500 0.500000
vt 0.781250 0.968750
vt 0.750000 1.000000
vt 0.687500 1.000000
vt 0.656250 0.906250
vt 0.750000 0.875000
vt 0.656250 0.968750
vt 0.656250 0.906250
vt 0.687500 0.875000
vt 0.781250 0.906250
vt 0.750000 1.000000
vt 0.656250 1.000000
vt 0.656250 1.000000
vt 0.656250 1.000000
vt 0.656250 1.000000
vt 0.781250 0.968750
vt 0.750000 1.000000
vt 0.687500 1.000000
vt 0.656250 0.906250
vt 0.750000 0.875000
vt 0.656250 0.968750
vt 0.656250 0.906250
vt 0.687500 0.875000
vt 0.781250 0.906250
vt 0.750000 1.000000
vt 0.656250 1.000000
vt 0.656250 1.000000
vt 0.656250 1.000000
vt 0.656250 1.000000
vt 0.781250 0.968750
vt 0.750000 1.000000
vt 0.687500 1.000000
vt 0.656250 0.906250
vt 0.750000 0.875000
vt 0.656250 0.968750
vt 0.656250 0.906250
vt 0.687500 0.875000
vt 0.781250 0.906250
vt 0.750000 1.000000
vt 0.656250 1.000000
vt 0.656250 1.000000
vt 0.656250 1.000000
vt 0.656250 1.000000
vt 0.781250 0.968750
vt 0.750000 1.000000
vt 0.687500 1.000000
vt 0.656250 0.906250
vt 0.750000 0.875000
vt 0.656250 0.968750
vt 0.656250 0.906250
vt 0.687500 0.875000
vt 0.781250 0.906250
vt 0.750000 1.000000
vt 0.656250 1.000000
vt 0.656250 1.000000
vt 0.656250 1.000000
vt 0.656250 1.000000
vn 0.0000 -1.0000 0.0000
vn 0.0000 1.0000 0.0000
vn -0.7071 0.0000 0.7071
vn 0.7071 0.0000 -0.7071
vn 1.0000 0.0000 0.0000
vn 0.0000 0.0000 1.0000
vn -1.0000 0.0000 0.0000
vn 0.7071 0.0000 0.7071
vn 0.0000 0.0000 -1.0000
vn -0.7071 0.0000 -0.7071
v -0.500000 0.000000 0.500000
v -0.500000 1.000000 0.500000
v -0.500000 0.000000 -0.500000
v -0.500000 1.000000 -0.500000
v 0.500000 0.000000 0.500000
v 0.500000 1.000000 0.500000
v 0.500000 0.000000 -0.500000
v 0.500000 1.000000 -0.500000
v -0.437400 1.000000 0.312500
v -0.437400 1.000000 0.187500
v -0.312400 1.000000 0.437500
v -0.312400 1.000000 0.062500
v -0.187400 1.000000 0.437500
v -0.187400 1.000000 0.062500
v -0.062400 1.000000 0.312500
v -0.062400 1.000000 0.187500
v -0.437400 0.000000 -0.187500
v -0.437400 0.000000 -0.312500
v -0.312400 0.000000 -0.062500
v -0.312400 0.000000 -0.437500
v -0.187400 0.000000 -0.062500
v -0.187400 0.000000 -0.437500
v -0.062400 0.000000 -0.187500
v -0.062400 0.000000 -0.312500
v -0.062400 1.000000 -0.312500
v -0.062400 1.000000 -0.187500
v -0.187400 1.000000 -0.437500
v -0.187400 1.000000 -0.062500
v -0.312400 1.000000 -0.437500
v -0.312400 1.000000 -0.062500
v -0.437400 1.000000 -0.312500
v -0.437400 1.000000 -0.187500
v -0.062400 0.000000 0.187500
v -0.062400 0.000000 0.312500
v -0.187400 0.000000 0.062500
v -0.187400 0.000000 0.437500
v -0.312400 0.000000 0.062500
v -0.312400 0.000000 0.437500
v -0.437400 0.000000 0.187500
v -0.437400 0.000000 0.312500
v 0.062600 1.000000 0.312500
v 0.062600 1.000000 0.187500
v 0.187600 1.000000 0.437500
v 0.187600 1.000000 0.062500
v 0.312600 1.000000 0.437500
v 0.312600 1.000000 0.062500
v 0.437600 1.000000 0.312500
v 0.437600 1.000000 0.187500
v 0.062600 0.000000 -0.187500
v 0.062600 0.000000 -0.312500
v 0.187600 0.000000 -0.062500
v 0.187600 0.000000 -0.437500
v 0.312600 0.000000 -0.062500
v 0.312600 0.000000 -0.437500
v 0.437600 0.000000 -0.187500
v 0.437600 0.000000 -0.312500
v 0.437600 1.000000 -0.312500
v 0.437600 1.000000 -0.187500
v 0.312600 1.000000 -0.437500
v 0.312600 1.000000 -0.062500
v 0.187600 1.000000 -0.437500
v 0.187600 1.000000 -0.062500
v 0.062600 1.000000 -0.312500
v 0.062600 1.000000 -0.187500
v 0.437600 0.000000 0.187500
v 0.437600 0.000000 0.312500
v 0.312600 0.000000 0.062500
v 0.312600 0.000000 0.437500
v 0.187600 0.000000 0.062500
v 0.187600 0.000000 0.437500
v 0.062600 0.000000 0.187500
v 0.062600 0.000000 0.312500
vt 0.437500 0.312500
vt 0.437500 0.187500
vt 0.562500 0.187500
vt 0.562500 0.312500
vt 0.437500 0.812500
vt 0.437500 0.687500
vt 0.562500 0.687500
vt 0.562500 0.812500
vt 0.812500 0.437500
vt 0.812500 0.562500
vt 0.687500 0.562500
vt 0.687500 0.437500
vt 0.312500 0.437500
vt 0.312500 0.562500
vt 0.187500 0.562500
vt 0.187500 0.437500
vt 1.000000 1.000000
vt 0.687500 0.937500
vt 0.812500 0.937500
vt 0.000000 1.000000
vt 0.000000 0.000000
vt 0.062500 0.312500
vt 0.062500 0.687500
vt 1.000000 0.000000
vt 0.812500 0.062500
vt 0.687500 0.062500
vt 0.062500 0.187500
vt 0.187500 0.062500
vt 0.937500 0.812500
vt 0.937500 0.687500
vt 0.937500 0.187500
vt 0.062500 0.812500
vt 0.187500 0.937500
vt 0.187500 0.437500
vt 0.312500 0.437500
vt 0.312500 0.562500
vt 0.187500 0.562500
vt 0.562500 0.312500
vt 0.437500 0.312500
vt 0.437500 0.187500
vt 0.562500 0.187500
vt 0.562500 0.812500
vt 0.437500 0.812500
vt 0.437500 0.687500
vt 0.562500 0.687500
vt 0.687500 0.437500
vt 0.812500 0.437500
vt 0.812500 0.562500
vt 0.687500 0.562500
vt 0.000000 0.000000
vt 0.312500 0.062500
vt 0.187500 0.062500
vt 0.000000 1.000000
vt 0.062500 0.687500
vt 0.062500 0.812500
vt 0.312500 0.937500
vt 0.687500 0.937500
vt 1.000000 1.000000
vt 0.937500 0.812500
vt 0.937500 0.687500
vt 0.812500 0.937500
vt 0.937500 0.312500
vt 1.000000 0.000000
vt 0.062500 0.187500
vt 0.187500 0.937500
vt 0.687500 0.062500
vt 0.812500 0.062500
vt 0.937500 0.187500
vt 0.062500 0.312500
vt 0.312500 0.062500
vt 0.312500 0.937500
vt 0.937500 0.312500
vn 0.0000 1.0000 0.0000
vn 0.0000 -1.0000 0.0000
o Cap
usemtl Cap
f 144/289/19 143/290/19 169/291/19 170/292/19
f 153/293/19 154/294/19 192/295/19 191/296/19
f 174/297/19 188/298/19 190/299/19 172/300/19
f 142/301/19 156/302/19 158/303/19 140/304/19
f 144/289/19 170/292/19 172/300/19 190/299/19
f 136/305/19 189/306/19 187/307/19
f 132/308/19 130/309/19 138/310/19 160/311/19
f 134/312/19 173/313/19 171/314/19
f 137/315/19 130/309/19 139/316/19
f 136/305/19 185/317/19 186/318/19
f 173/313/19 134/312/19 175/319/19
f 187/307/19 185/317/19 136/305/19
f 159/320/19 157/321/19 132/308/19
f 195/322/20 197/323/20 179/324/20 181/325/20
f 161/326/20 199/327/20 200/328/20 162/329/20
f 152/330/20 178/331/20 177/332/20 151/333/20
f 163/334/20 165/335/20 147/336/20 149/337/20
f 161/326/20 163/334/20 149/337/20 199/327/20
f 133/338/20 198/339/20 196/340/20
f 135/341/20 183/342/20 184/343/20
f 135/341/20 180/344/20 150/345/20 131/346/20
f 131/346/20 146/347/20 145/348/20
f 146/347/20 131/346/20 148/349/20
f 167/350/20 129/351/20 131/346/20 145/348/20
f 196/340/20 194/352/20 133/338/20
f 182/353/20 135/341/20 184/343/20
f 190/299/19 192/295/19 142/301/19 144/289/19
f 142/301/19 192/295/19 154/294/19 156/302/19
f 199/327/20 149/337/20 151/333/20 197/323/20
f 197/323/20 151/333/20 177/332/20 179/324/20
f 198/339/20 164/354/20 162/329/20 200/328/20
f 133/338/20 129/351/20 164/354/20 198/339/20
f 145/348/20 147/336/20 165/335/20 167/350/20
f 166/355/20 129/351/20 168/356/20
f 164/354/20 129/351/20 166/355/20
f 183/342/20 193/357/20 195/322/20 181/325/20
f 193/357/20 183/342/20 135/341/20 133/338/20
f 133/338/20 194/352/20 193/357/20
f 131/346/20 150/345/20 148/349/20
f 150/345/20 180/344/20 178/331/20 152/330/20
f 180/344/20 135/341/20 182/353/20
f 171/314/19 169/291/19 143/290/19 141/358/19
f 141/358/19 139/316/19 130/309/19
f 130/309/19 134/312/19 171/314/19 141/358/19
f 189/306/19 136/305/19 132/308/19 155/359/19
f 155/359/19 132/308/19 157/321/19
f 155/359/19 153/293/19 191/296/19 189/306/19
f 186/318/19 188/298/19 174/297/19 176/360/19
f 176/360/19 175/319/19 134/312/19
f 134/312/19 136/305/19 186/318/19 176/360/19
f 160/311/19 138/310/19 140/304/19 158/303/19
f 160/311/19 159/320/19 132/308/19
f 138/310/19 130/309/19 137/315/19
f 168/356/20 129/351/20 167/350/20
