mtllib rbmk_rods.mtl
o Lid
usemtl Lid
v -0.500000 1.125000 0.500000
v -0.500000 1.250000 0.500000
v -0.500000 1.125000 -0.500000
v -0.500000 1.250000 -0.500000
v 0.500000 1.125000 0.500000
v 0.500000 1.250000 0.500000
v 0.500000 1.125000 -0.500000
v 0.500000 1.250000 -0.500000
v -0.375000 1.125000 0.375000
v -0.375000 1.125000 0.125000
v -0.125000 1.125000 0.375000
v -0.125000 1.125000 0.125000
v -0.375000 0.125000 0.375000
v -0.375000 0.125000 0.125000
v -0.125000 0.125000 0.375000
v -0.125000 0.125000 0.125000
v 0.125000 1.125000 -0.125000
v 0.125000 1.125000 -0.375000
v 0.375000 1.125000 -0.125000
v 0.375000 1.125000 -0.375000
v 0.125000 0.125000 -0.125000
v 0.125000 0.125000 -0.375000
v 0.375000 0.125000 -0.125000
v 0.375000 0.125000 -0.375000
v -0.125000 0.125000 -0.375000
v -0.125000 0.125000 -0.125000
v -0.375000 0.125000 -0.375000
v -0.375000 0.125000 -0.125000
v -0.125000 1.125000 -0.375000
v -0.125000 1.125000 -0.125000
v -0.375000 1.125000 -0.375000
v -0.375000 1.125000 -0.125000
v 0.125000 1.125000 0.375000
v 0.125000 1.125000 0.125000
v 0.375000 1.125000 0.375000
v 0.375000 1.125000 0.125000
v 0.125000 0.125000 0.375000
v 0.125000 0.125000 0.125000
v 0.375000 0.125000 0.375000
v 0.375000 0.125000 0.125000
vt 1.000000 0.000000
vt 0.500000 0.062500
vt 0.500000 0.000000
vt 1.000000 0.000000
vt 0.500000 0.062500
vt 0.500000 0.000000
vt 0.500000 0.062500
vt 1.000000 0.000000
vt 1.000000 0.062500
vt 0.500000 0.062500
vt 1.000000 0.000000
vt 1.000000 0.062500
vt 0.000000 0.500000
vt 0.500000 1.000000
vt 0.000000 1.000000
vt 0.500000 1.000000
vt 0.000000 0.500000
vt 0.500000 0.500000
vt 0.500000 1.000000
vt 0.625000 0.500000
vt 0.625000 1.000000
vt 0.500000 1.000000
vt 0.625000 0.500000
vt 0.625000 1.000000
vt 0.500000 1.000000
vt 0.625000 0.500000
vt 0.625000 1.000000
vt 0.500000 1.000000
vt 0.625000 0.500000
vt 0.625000 1.000000
vt 0.500000 1.000000
vt 0.625000 0.500000
vt 0.625000 1.000000
vt 0.500000 1.000000
vt 0.625000 0.500000
vt 0.625000 1.000000
vt 0.500000 1.000000
vt 0.625000 0.500000
vt 0.625000 1.000000
vt 0.500000 1.000000
vt 0.625000 0.500000
vt 0.625000 1.000000
vt 0.500000 1.000000
vt 0.625000 0.500000
vt 0.625000 1.000000
vt 0.500000 1.000000
vt 0.625000 0.500000
vt 0.625000 1.000000
vt 0.500000 1.000000
vt 0.625000 0.500000
vt 0.625000 1.000000
vt 0.500000 1.000000
vt 0.625000 0.500000
vt 0.625000 1.000000
vt 0.500000 1.000000
vt 0.625000 0.500000
vt 0.625000 1.000000
vt 0.500000 1.000000
vt 0.625000 0.500000
vt 0.625000 1.000000
vt 0.500000 1.000000
vt 0.625000 0.500000
vt 0.625000 1.000000
vt 0.500000 1.000000
vt 0.625000 0.500000
vt 0.625000 1.000000
vt 1.000000 0.062500
vt 1.000000 0.062500
vt 0.500000 0.000000
vt 0.500000 0.000000
vt 0.500000 0.500000
vt 0.000000 1.000000
vt 0.500000 0.500000
vt 0.500000 0.500000
vt 0.500000 0.500000
vt 0.500000 0.500000
vt 0.500000 0.500000
vt 0.500000 0.500000
vt 0.500000 0.500000
vt 0.500000 0.500000
vt 0.500000 0.500000
vt 0.500000 0.500000
vt 0.500000 0.500000
vt 0.500000 0.500000
vt 0.500000 0.500000
vt 0.500000 0.500000
vt 0.500000 0.500000
vt 0.500000 0.500000
vn -1.0000 0.0000 0.0000
vn 0.0000 0.0000 -1.0000
vn 1.0000 0.0000 0.0000
vn 0.0000 0.0000 1.0000
vn 0.0000 -1.0000 0.0000
vn 0.0000 1.0000 0.0000
s off
f 4/1/1 1/2/1 2/3/1
f 8/4/2 3/5/2 4/6/2
f 6/7/3 7/8/3 8/9/3
f 2/10/4 5/11/4 6/12/4
f 3/13/5 5/14/5 1/15/5
f 8/16/6 2/17/6 6/18/6
f 9/19/4 15/20/4 11/21/4
f 10/22/1 13/23/1 9/24/1
f 12/25/2 14/26/2 10/27/2
f 11/28/3 16/29/3 12/30/3
f 17/31/4 23/32/4 19/33/4
f 18/34/1 21/35/1 17/36/1
f 20/37/2 22/38/2 18/39/2
f 19/40/3 24/41/3 20/42/3
f 30/43/3 25/44/3 29/45/3
f 29/46/2 27/47/2 31/48/2
f 31/49/1 28/50/1 32/51/1
f 32/52/4 26/53/4 30/54/4
f 33/55/4 39/56/4 35/57/4
f 34/58/1 37/59/1 33/60/1
f 36/61/2 38/62/2 34/63/2
f 35/64/3 40/65/3 36/66/3
f 4/1/1 3/67/1 1/2/1
f 8/4/2 7/68/2 3/5/2
f 6/7/3 5/69/3 7/8/3
f 2/10/4 1/70/4 5/11/4
f 3/13/5 7/71/5 5/14/5
f 8/16/6 4/72/6 2/17/6
f 9/19/4 13/73/4 15/20/4
f 10/22/1 14/74/1 13/23/1
f 12/25/2 16/75/2 14/26/2
f 11/28/3 15/76/3 16/29/3
f 17/31/4 21/77/4 23/32/4
f 18/34/1 22/78/1 21/35/1
f 20/37/2 24/79/2 22/38/2
f 19/40/3 23/80/3 24/41/3
f 30/43/3 26/81/3 25/44/3
f 29/46/2 25/82/2 27/47/2
f 31/49/1 27/83/1 28/50/1
f 32/52/4 28/84/4 26/53/4
f 33/55/4 37/85/4 39/56/4
f 34/58/1 38/86/1 37/59/1
f 36/61/2 40/87/2 38/62/2
f 35/64/3 39/88/3 40/65/3
