# Converted from HBM 1.12.2 OBJ for ReinhardtsHBM
# Blender v2.79 (sub 0) OBJ File: 'cable_neo.blend'
# www.blender.org
v 0.65625 0 0.40625
v 0.65625 0 0.59375
v 0.34375 0 0.59375
v 0.34375 0 0.40625
v 0.59375 0 0.65625
v 0.40625 0 0.65625
v 0.40625 0 0.34375
v 0.59375 0 0.34375
v 0.34375 0.34375 0.59375
v 0.34375 0.34375 0.40625
v 0.65625 0.34375 0.59375
v 0.65625 0.34375 0.40625
v 0.40625 0.34375 0.34375
v 0.59375 0.34375 0.34375
v 0.59375 0.34375 0.65625
v 0.40625 0.34375 0.65625
vt 0.250000 0.062500
vt 0.500000 0.000000
vt 0.562500 0.250000
vt 0.250000 -0.000000
vt 0.062500 0.343750
vt 0.062500 -0.000000
vt 0.000000 0.343750
vt -0.000000 -0.000000
vt 0.250000 0.000000
vt 0.062500 0.343750
vt 0.062500 0.000000
vt -0.000000 0.000000
vt 0.250000 0.343750
vt 0.062500 0.000000
vt 0.250000 0.000000
vt 0.062500 0.343750
vt -0.000000 0.000000
vt 0.250000 0.000000
vt 0.062500 0.343750
vt 0.062500 0.000000
vt 0.000000 0.343750
vt -0.000000 0.000000
vt 0.312500 0.000000
vt 0.562500 0.062500
vt 0.500000 0.312500
vt 0.312500 0.312500
vt 0.250000 0.250000
vt 0.250000 0.343750
vt 0.250000 0.343750
vt 0.000000 0.343750
vt 0.000000 0.343750
vt 0.250000 0.343750
vn 0.0000 -1.0000 0.0000
vn -1.0000 0.0000 0.0000
vn -0.7071 0.0000 -0.7071
vn 0.0000 0.0000 -1.0000
vn 0.7071 -0.0000 -0.7071
vn 1.0000 0.0000 0.0000
vn 0.7071 0.0000 0.7071
vn 0.0000 0.0000 1.0000
vn -0.7071 0.0000 0.7071
s off
v 0 0.34375 0.40625
v 0 0.34375 0.59375
v 0 0.65625 0.59375
v 0 0.65625 0.40625
v 0 0.40625 0.65625
v 0 0.59375 0.65625
v 0 0.59375 0.34375
v 0 0.40625 0.34375
v 0.34375 0.65625 0.59375
v 0.34375 0.65625 0.40625
v 0.34375 0.34375 0.59375
v 0.34375 0.34375 0.40625
v 0.34375 0.59375 0.34375
v 0.34375 0.40625 0.34375
v 0.34375 0.40625 0.65625
v 0.34375 0.59375 0.65625
vt 0.250000 0.250000
vt 0.250000 0.062500
vt 0.562500 0.250000
vt 0.250000 -0.000000
vt 0.062500 0.343750
vt 0.062500 -0.000000
vt 0.000000 0.343750
vt -0.000000 -0.000000
vt 0.250000 0.000000
vt 0.062500 0.343750
vt 0.062500 0.000000
vt 0.000000 0.343750
vt -0.000000 0.000000
vt 0.250000 0.343750
vt 0.062500 0.000000
vt 0.250000 0.000000
vt 0.062500 0.343750
vt -0.000000 0.000000
vt 0.250000 0.000000
vt 0.062500 0.343750
vt 0.062500 0.000000
vt 0.000000 0.343750
vt -0.000000 0.000000
vt 0.312500 0.000000
vt 0.500000 0.000000
vt 0.562500 0.062500
vt 0.500000 0.312500
vt 0.312500 0.312500
vt 0.250000 0.343750
vt 0.250000 0.343750
vt 0.000000 0.343750
vt 0.250000 0.343750
vn -1.0000 0.0000 0.0000
vn 0.0000 1.0000 0.0000
vn 0.0000 0.7071 -0.7071
vn 0.0000 0.0000 -1.0000
vn 0.0000 -0.7071 -0.7071
vn 0.0000 -1.0000 0.0000
vn 0.0000 -0.7071 0.7071
vn 0.0000 0.0000 1.0000
vn 0.0000 0.7071 0.7071
s off
v 0.59375 0.65625 1
v 0.40625 0.65625 1
v 0.40625 0.34375 1
v 0.59375 0.34375 1
v 0.34375 0.59375 1
v 0.34375 0.40625 1
v 0.65625 0.40625 1
v 0.65625 0.59375 1
v 0.34375 0.59375 0.65625
v 0.34375 0.40625 0.65625
v 0.65625 0.59375 0.65625
v 0.65625 0.40625 0.65625
v 0.40625 0.34375 0.65625
v 0.59375 0.34375 0.65625
v 0.59375 0.65625 0.65625
v 0.40625 0.65625 0.65625
vt 0.312500 0.000000
vt 0.562500 0.062500
vt 0.500000 0.312500
vt 0.062500 1.000000
vt 0.250000 0.656250
vt 0.250000 1.000000
vt 0.000000 0.656250
vt 0.000000 1.000000
vt 0.062500 1.000000
vt 0.250000 0.656250
vt 0.250000 1.000000
vt -0.000000 1.000000
vt 0.062500 0.656250
vt 0.062500 0.656250
vt 0.250000 1.000000
vt 0.062500 1.000000
vt 0.000000 0.656250
vt -0.000000 1.000000
vt 0.062500 1.000000
vt 0.250000 0.656250
vt 0.250000 1.000000
vt 0.000000 1.000000
vt 0.062500 0.656250
vt 0.500000 0.000000
vt 0.562500 0.250000
vt 0.312500 0.312500
vt 0.250000 0.250000
vt 0.250000 0.062500
vt 0.062500 0.656250
vt 0.000000 0.656250
vt 0.250000 0.656250
vt 0.000000 0.656250
vn 0.0000 0.0000 1.0000
vn -1.0000 0.0000 0.0000
vn -0.7071 0.7071 0.0000
vn 0.0000 1.0000 -0.0000
vn 0.7071 0.7071 0.0000
vn 1.0000 0.0000 0.0000
vn 0.7071 -0.7071 0.0000
vn 0.0000 -1.0000 0.0000
vn -0.7071 -0.7071 0.0000
s off
v 1 0.40625 0.34375
v 1 0.59375 0.34375
v 1 0.59375 0.65625
v 1 0.40625 0.65625
v 1 0.65625 0.40625
v 1 0.65625 0.59375
v 1 0.34375 0.59375
v 1 0.34375 0.40625
v 0.65625 0.65625 0.40625
v 0.65625 0.65625 0.59375
v 0.65625 0.34375 0.40625
v 0.65625 0.34375 0.59375
v 0.65625 0.59375 0.65625
v 0.65625 0.40625 0.65625
v 0.65625 0.40625 0.34375
v 0.65625 0.59375 0.34375
vt 0.250000 0.062500
vt 0.312500 0.000000
vt 0.500000 0.312500
vt 0.062500 1.000000
vt 0.250000 0.656250
vt 0.250000 1.000000
vt 0.000000 1.000000
vt 0.062500 0.656250
vt 0.062500 1.000000
vt 0.250000 0.656250
vt 0.250000 1.000000
vt -0.000000 1.000000
vt 0.062500 0.656250
vt 0.062500 0.656250
vt 0.250000 1.000000
vt 0.062500 1.000000
vt 0.000000 0.656250
vt -0.000000 1.000000
vt 0.062500 1.000000
vt 0.250000 0.656250
vt 0.250000 1.000000
vt 0.000000 0.656250
vt 0.062500 0.656250
vt 0.500000 0.000000
vt 0.562500 0.062500
vt 0.562500 0.250000
vt 0.312500 0.312500
vt 0.250000 0.250000
vt 0.000000 0.656250
vt 0.000000 0.656250
vt 0.250000 0.656250
vt 0.000000 1.000000
vn 1.0000 0.0000 0.0000
vn 0.0000 1.0000 0.0000
vn 0.0000 0.7071 -0.7071
vn -0.0000 0.0000 -1.0000
vn 0.0000 -0.7071 -0.7071
vn 0.0000 -1.0000 0.0000
vn 0.0000 -0.7071 0.7071
vn 0.0000 0.0000 1.0000
vn 0.0000 0.7071 0.7071
s off
v 0.59375 1 0.34375
v 0.40625 1 0.34375
v 0.40625 1 0.65625
v 0.59375 1 0.65625
v 0.34375 1 0.40625
v 0.34375 1 0.59375
v 0.65625 1 0.59375
v 0.65625 1 0.40625
v 0.34375 0.65625 0.40625
v 0.34375 0.65625 0.59375
v 0.65625 0.65625 0.40625
v 0.65625 0.65625 0.59375
v 0.40625 0.65625 0.65625
v 0.59375 0.65625 0.65625
v 0.59375 0.65625 0.34375
v 0.40625 0.65625 0.34375
vt 0.500000 0.312500
vt 0.250000 0.250000
vt 0.312500 0.000000
vt 0.062500 1.000000
vt 0.250000 0.656250
vt 0.250000 1.000000
vt 0.000000 0.656250
vt 0.000000 1.000000
vt 0.062500 1.000000
vt 0.250000 0.656250
vt 0.250000 1.000000
vt -0.000000 1.000000
vt 0.062500 0.656250
vt 0.062500 0.656250
vt 0.250000 1.000000
vt 0.062500 1.000000
vt 0.000000 0.656250
vt -0.000000 1.000000
vt 0.062500 1.000000
vt 0.250000 0.656250
vt 0.250000 1.000000
vt 0.000000 1.000000
vt 0.062500 0.656250
vt 0.500000 0.000000
vt 0.562500 0.062500
vt 0.562500 0.250000
vt 0.312500 0.312500
vt 0.250000 0.062500
vt 0.062500 0.656250
vt 0.000000 0.656250
vt 0.250000 0.656250
vt 0.000000 0.656250
vn 0.0000 1.0000 0.0000
vn -1.0000 0.0000 0.0000
vn -0.7071 0.0000 -0.7071
vn 0.0000 0.0000 -1.0000
vn 0.7071 0.0000 -0.7071
vn 1.0000 0.0000 0.0000
vn 0.7071 0.0000 0.7071
vn 0.0000 0.0000 1.0000
vn -0.7071 0.0000 0.7071
s off
v 0.34375 0.34375 0.40625
v 0.34375 0.34375 0.59375
v 0.40625 0.34375 0.65625
v 0.59375 0.34375 0.65625
v 0.65625 0.34375 0.59375
v 0.65625 0.34375 0.40625
v 0.59375 0.34375 0.34375
v 0.40625 0.34375 0.34375
v 0.34375 0.65625 0.40625
v 0.34375 0.65625 0.59375
v 0.40625 0.65625 0.65625
v 0.59375 0.65625 0.65625
v 0.65625 0.65625 0.59375
v 0.65625 0.65625 0.40625
v 0.59375 0.65625 0.34375
v 0.40625 0.65625 0.34375
v 0.65625 0.40625 0.34375
v 0.65625 0.59375 0.34375
v 0.65625 0.59375 0.65625
v 0.65625 0.40625 0.65625
v 0.34375 0.40625 0.65625
v 0.34375 0.59375 0.65625
v 0.34375 0.59375 0.34375
v 0.34375 0.40625 0.34375
vt 0.250000 0.062500
vt 0.250000 -0.000000
vt 0.312500 0.000000
vt 0.312500 0.312500
vt 0.250000 0.312500
vt 0.250000 0.250000
vt 0.312500 0.000000
vt 0.250000 0.062500
vt 0.250000 -0.000000
vt 0.562500 0.062500
vt 0.500000 0.000000
vt 0.562500 -0.000000
vt 0.562500 0.062500
vt 0.500000 0.000000
vt 0.562500 -0.000000
vt 0.562500 0.250000
vt 0.562500 0.312500
vt 0.500000 0.312500
vt 0.500000 0.312500
vt 0.562500 0.250000
vt 0.562500 0.312500
vt 0.312500 0.312500
vt 0.250000 0.312500
vt 0.250000 0.250000
vt 0.562500 0.250000
vt 0.312500 0.312500
vt 0.250000 0.062500
vt 0.312500 0.312500
vt 0.250000 0.062500
vt 0.500000 0.000000
vt 0.250000 0.250000
vt 0.312500 0.000000
vt 0.562500 0.062500
vt 0.250000 0.250000
vt 0.312500 0.000000
vt 0.562500 0.062500
vt 0.312500 0.000000
vt 0.500000 0.000000
vt 0.562500 0.062500
vt 0.500000 0.312500
vt 0.250000 0.250000
vt 0.562500 0.062500
vt 0.562500 0.250000
vt 0.500000 0.312500
vt 0.250000 0.250000
vt 0.312500 0.000000
vt 0.562500 0.250000
vt 0.500000 0.312500
vt 0.312500 0.312500
vt 0.250000 0.062500
vt 0.500000 0.000000
vt 0.562500 0.250000
vt 0.500000 0.312500
vt 0.312500 0.312500
vt 0.250000 0.062500
vt 0.500000 0.000000
vn -0.5774 -0.5774 0.5774
vn 0.5774 -0.5774 0.5774
vn -0.5774 0.5774 0.5774
vn 0.5774 0.5774 0.5774
vn -0.5774 -0.5774 -0.5774
vn 0.5774 -0.5774 -0.5774
vn 0.5774 0.5774 -0.5774
vn -0.5774 0.5774 -0.5774
vn 0.0000 -1.0000 0.0000
vn 0.0000 0.0000 -1.0000
vn -1.0000 0.0000 0.0000
vn 1.0000 0.0000 0.0000
vn 0.0000 1.0000 0.0000
vn 0.0000 0.0000 1.0000
s off
v 0.65625 0.59375 0
v 0.65625 0.40625 0
v 0.34375 0.40625 0
v 0.34375 0.59375 0
v 0.59375 0.34375 0
v 0.40625 0.34375 0
v 0.40625 0.65625 0
v 0.59375 0.65625 0
v 0.34375 0.40625 0.34375
v 0.34375 0.59375 0.34375
v 0.65625 0.40625 0.34375
v 0.65625 0.59375 0.34375
v 0.40625 0.65625 0.34375
v 0.59375 0.65625 0.34375
v 0.59375 0.34375 0.34375
v 0.40625 0.34375 0.34375
vt 0.562500 0.250000
vt 0.312500 0.312500
vt 0.250000 0.062500
vt 0.250000 -0.000000
vt 0.062500 0.343750
vt 0.062500 -0.000000
vt 0.000000 0.343750
vt -0.000000 -0.000000
vt 0.250000 0.000000
vt 0.062500 0.343750
vt 0.062500 0.000000
vt -0.000000 0.000000
vt 0.250000 0.343750
vt 0.062500 0.000000
vt 0.250000 0.000000
vt 0.062500 0.343750
vt -0.000000 0.000000
vt 0.250000 0.000000
vt 0.062500 0.343750
vt 0.062500 0.000000
vt 0.000000 0.343750
vt -0.000000 0.000000
vt 0.312500 0.000000
vt 0.500000 0.000000
vt 0.562500 0.062500
vt 0.500000 0.312500
vt 0.250000 0.250000
vt 0.250000 0.343750
vt 0.250000 0.343750
vt 0.000000 0.343750
vt 0.000000 0.343750
vt 0.250000 0.343750
vn 0.0000 0.0000 -1.0000
vn -1.0000 0.0000 0.0000
vn -0.7071 0.7071 0.0000
vn 0.0000 1.0000 0.0000
vn 0.7071 0.7071 -0.0000
vn 1.0000 0.0000 0.0000
vn 0.7071 -0.7071 -0.0000
vn 0.0000 -1.0000 0.0000
vn -0.7071 -0.7071 -0.0000
s off
v 0.34375 0.59375 1
v 0.40625 0.65625 0
v 0.59375 0.65625 0
v 0.34375 0.40625 1
v 0.65625 0.40625 1
v 0.59375 0.34375 0
v 0.40625 0.34375 0
v 0.65625 0.59375 1
v 0.40625 0.34375 1
v 0.65625 0.59375 0
v 0.65625 0.40625 0
v 0.59375 0.34375 1
v 0.59375 0.65625 1
v 0.34375 0.40625 0
v 0.34375 0.59375 0
v 0.40625 0.65625 1
vt 0.250000 1.000000
vt 0.062500 0.000000
vt 0.250000 0.000000
vt -0.000000 1.000000
vt 0.062500 1.000000
vt 0.062500 1.000000
vt 0.250000 0.000000
vt 0.250000 1.000000
vt -0.000000 0.000000
vt -0.000000 1.000000
vt 0.250000 1.000000
vt 0.062500 0.000000
vt 0.250000 0.000000
vt 0.062500 1.000000
vt -0.000000 0.000000
vt 0.062500 1.000000
vt 0.250000 0.000000
vt 0.250000 1.000000
vt 0.062500 0.000000
vt -0.000000 1.000000
vt -0.000000 0.000000
vt 0.562500 0.250000
vt 0.312500 0.312500
vt 0.250000 0.062500
vt 0.562500 0.062500
vt 0.500000 0.312500
vt 0.250000 0.250000
vt -0.000000 0.000000
vt 0.062500 0.000000
vt -0.000000 1.000000
vt 0.312500 0.000000
vt 0.500000 0.000000
vt 0.562500 0.062500
vt 0.500000 0.312500
vt 0.250000 0.250000
vt 0.250000 0.062500
vt 0.312500 0.000000
vt 0.500000 0.000000
vt 0.562500 0.250000
vt 0.312500 0.312500
vn 0.0000 1.0000 0.0000
vn 0.7071 0.7071 0.0000
vn 1.0000 0.0000 0.0000
vn 0.7071 -0.7071 -0.0000
vn 0.0000 -1.0000 -0.0000
vn -0.7071 -0.7071 -0.0000
vn -1.0000 0.0000 0.0000
vn -0.7071 0.7071 0.0000
vn -0.0000 0.0000 1.0000
vn 0.0000 0.0000 -1.0000
s off
v 1 0.65625 0.40625
v 0 0.59375 0.34375
v 0 0.40625 0.34375
v 1 0.65625 0.59375
v 1 0.34375 0.59375
v 0 0.40625 0.65625
v 0 0.59375 0.65625
v 1 0.34375 0.40625
v 1 0.59375 0.65625
v 0 0.34375 0.40625
v 0 0.34375 0.59375
v 1 0.40625 0.65625
v 1 0.40625 0.34375
v 0 0.65625 0.59375
v 0 0.65625 0.40625
v 1 0.59375 0.34375
vt 0.250000 1.000000
vt 0.062500 0.000000
vt 0.250000 0.000000
vt -0.000000 1.000000
vt 0.062500 1.000000
vt 0.062500 1.000000
vt 0.250000 0.000000
vt 0.250000 1.000000
vt -0.000000 0.000000
vt -0.000000 1.000000
vt 0.250000 1.000000
vt 0.062500 0.000000
vt 0.250000 0.000000
vt 0.062500 1.000000
vt -0.000000 0.000000
vt 0.062500 1.000000
vt 0.250000 0.000000
vt 0.250000 1.000000
vt 0.062500 0.000000
vt -0.000000 1.000000
vt -0.000000 0.000000
vt 0.562500 0.250000
vt 0.312500 0.312500
vt 0.250000 0.062500
vt 0.562500 0.062500
vt 0.500000 0.312500
vt 0.250000 0.250000
vt -0.000000 0.000000
vt 0.062500 0.000000
vt -0.000000 1.000000
vt 0.312500 0.000000
vt 0.500000 0.000000
vt 0.562500 0.062500
vt 0.500000 0.312500
vt 0.250000 0.250000
vt 0.250000 0.062500
vt 0.312500 0.000000
vt 0.500000 0.000000
vt 0.562500 0.250000
vt 0.312500 0.312500
vn 0.0000 0.0000 -1.0000
vn 0.0000 -0.7071 -0.7071
vn 0.0000 -1.0000 0.0000
vn 0.0000 -0.7071 0.7071
vn 0.0000 0.0000 1.0000
vn -0.0000 0.7071 0.7071
vn -0.0000 1.0000 0.0000
vn -0.0000 0.7071 -0.7071
vn 1.0000 0.0000 0.0000
vn -1.0000 0.0000 0.0000
s off
o CY
usemtl hbm
v 0.34375 1 0.40625
v 0.40625 0 0.34375
v 0.59375 0 0.34375
v 0.34375 1 0.59375
v 0.65625 1 0.59375
v 0.59375 0 0.65625
v 0.40625 0 0.65625
v 0.65625 1 0.40625
v 0.40625 1 0.65625
v 0.65625 0 0.40625
v 0.65625 0 0.59375
v 0.59375 1 0.65625
v 0.59375 1 0.34375
v 0.34375 0 0.59375
v 0.34375 0 0.40625
v 0.40625 1 0.34375
vt 0.250000 1.000000
vt 0.062500 0.000000
vt 0.250000 0.000000
vt -0.000000 1.000000
vt 0.062500 1.000000
vt 0.062500 1.000000
vt 0.250000 0.000000
vt 0.250000 1.000000
vt -0.000000 0.000000
vt -0.000000 1.000000
vt 0.250000 1.000000
vt 0.062500 0.000000
vt 0.250000 0.000000
vt 0.062500 1.000000
vt -0.000000 0.000000
vt 0.062500 1.000000
vt 0.250000 0.000000
vt 0.250000 1.000000
vt 0.062500 0.000000
vt -0.000000 1.000000
vt -0.000000 0.000000
vt 0.562500 0.250000
vt 0.312500 0.312500
vt 0.250000 0.062500
vt 0.562500 0.062500
vt 0.500000 0.312500
vt 0.250000 0.250000
vt -0.000000 0.000000
vt 0.062500 0.000000
vt -0.000000 1.000000
vt 0.312500 0.000000
vt 0.500000 0.000000
vt 0.562500 0.062500
vt 0.500000 0.312500
vt 0.250000 0.250000
vt 0.250000 0.062500
vt 0.312500 0.000000
vt 0.500000 0.000000
vt 0.562500 0.250000
vt 0.312500 0.312500
vn 0.0000 0.0000 -1.0000
vn 0.7071 0.0000 -0.7071
vn 1.0000 0.0000 0.0000
vn 0.7071 0.0000 0.7071
vn 0.0000 0.0000 1.0000
vn -0.7071 0.0000 0.7071
vn -1.0000 0.0000 0.0000
vn -0.7071 0.0000 -0.7071
vn 0.0000 1.0000 0.0000
vn 0.0000 -1.0000 0.0000
s off
f 168/329/89 155/330/89 154/331/89
f 160/332/90 155/330/90 165/333/90
f 157/334/91 162/335/91 160/336/91
f 158/337/92 157/334/92 164/338/92
f 164/339/93 159/340/93 158/341/93
f 161/342/94 166/343/94 159/340/94
f 153/344/95 166/345/95 156/346/95
f 167/347/96 168/348/96 154/349/96
f 168/350/97 156/351/97 164/352/97
f 158/353/98 166/354/98 154/355/98
f 168/329/89 165/333/89 155/330/89
f 160/332/90 162/356/90 155/330/90
f 157/334/91 163/357/91 162/335/91
f 158/337/92 163/357/92 157/334/92
f 164/339/93 161/342/93 159/340/93
f 161/342/94 156/358/94 166/343/94
f 153/344/95 167/347/95 166/345/95
f 167/347/96 153/344/96 168/348/96
f 164/352/97 157/359/97 160/360/97
f 160/360/97 165/361/97 168/350/97
f 168/350/97 153/362/97 156/351/97
f 156/351/97 161/363/97 164/352/97
f 164/352/97 160/360/97 168/350/97
f 154/355/98 155/364/98 162/365/98
f 162/365/98 163/366/98 158/353/98
f 158/353/98 159/367/98 166/354/98
f 166/354/98 167/368/98 154/355/98
f 154/355/98 162/365/98 158/353/98
