# Filtered from breeder.obj to match HBM 1.7.10 RenderFusionBreeder.renderPart("Breeder")
# Keeps original global vertex/uv/normal indices; only Breeder faces are emitted.
v -2.500000 2.500000 11.500001
v -2.500000 3.250000 11.299039
v -2.500000 3.799038 10.750001
v -2.500000 4.000000 10.000001
v -2.500000 3.799038 9.250001
v -2.500000 3.250000 8.700963
v -2.500000 2.500000 8.500001
v -2.500000 1.750000 8.700962
v -2.500000 1.200962 9.250000
v -2.500000 1.000000 10.000000
v -2.500000 1.200961 10.750000
v -2.500000 1.749999 11.299038
v -2.250000 3.250000 11.299039
v -2.250000 2.500000 11.500001
v -2.250000 3.799038 10.750001
v -2.250000 4.000000 10.000001
v -2.250000 3.799038 9.250001
v -2.250000 3.250000 8.700963
v -2.250000 2.500000 8.500001
v -2.250000 1.750000 8.700963
v -2.250000 1.200962 9.250000
v -2.250000 1.000000 10.000000
v -2.250000 1.200961 10.750000
v -2.250000 1.749999 11.299038
v -2.250000 1.999999 10.866026
v -2.250000 1.633974 10.500000
v -2.250000 1.500000 10.000000
v -2.250000 1.633975 9.500000
v -2.250000 2.000000 9.133975
v -2.250000 2.500000 9.000001
v -2.250000 3.000000 9.133975
v -2.250000 3.366025 9.500001
v -2.250000 3.500000 10.000001
v -2.250000 3.366026 10.500001
v -2.250000 3.000000 10.866026
v -2.250000 2.500000 11.000000
v -1.500000 1.999999 10.866026
v -1.500000 1.633974 10.500000
v -1.500000 1.500000 10.000000
v -1.500000 1.633975 9.500000
v -1.500000 2.000000 9.133975
v -1.500000 2.500000 9.000001
v -1.500000 3.000000 9.133975
v -1.500000 3.366025 9.500001
v -1.500000 3.500000 10.000001
v -1.500000 3.366026 10.500001
v -1.500000 3.000000 10.866026
v -1.500000 2.500000 11.000000
v -2.500000 2.500000 11.000000
v -2.500000 3.000000 10.866026
v -2.500000 3.366025 10.500000
v -2.500000 3.500000 10.000000
v -2.500000 3.366025 9.500000
v -2.500000 3.000000 9.133975
v -2.500000 2.500000 9.000000
v -2.500000 2.000000 9.133975
v -2.500000 1.633975 9.500000
v -2.500000 1.500000 10.000000
v -2.500000 1.633974 10.500000
v -2.500000 1.999999 10.866025
v -2.500000 2.500000 10.750000
v -2.500000 2.875000 10.649519
v -2.500000 3.149519 10.375000
v -2.500000 3.250000 10.000000
v -2.500000 3.149519 9.625000
v -2.500000 2.875000 9.350481
v -2.500000 2.500000 9.250000
v -2.500000 2.125000 9.350481
v -2.500000 1.850481 9.625000
v -2.500000 1.750000 10.000000
v -2.500000 1.850481 10.375000
v -2.500000 2.125000 10.649519
v -2.375000 3.000000 10.866026
v -2.375000 2.500000 11.000000
v -2.375000 3.366025 10.500000
v -2.375000 3.500000 10.000000
v -2.375000 3.366025 9.500000
v -2.375000 3.000000 9.133975
v -2.375000 2.500000 9.000000
v -2.375000 2.000000 9.133975
v -2.375000 1.633975 9.500000
v -2.375000 1.500000 10.000000
v -2.375000 1.633974 10.500000
v -2.375000 1.999999 10.866025
v -2.375000 2.875000 10.649519
v -2.375000 2.500000 10.750000
v -2.375000 3.149519 10.375000
v -2.375000 3.250000 10.000000
v -2.375000 3.149519 9.625000
v -2.375000 2.875000 9.350481
v -2.375000 2.500000 9.250000
v -2.375000 2.125000 9.350481
v -2.375000 1.850481 9.625000
v -2.375000 1.750000 10.000000
v -2.375000 1.850481 10.375000
v -2.375000 2.125000 10.649519
v -2.500000 2.500000 10.000000
v 2.078729 2.500000 9.138962
v 1.590990 2.500000 8.409010
v 0.861038 2.500000 7.921271
v -0.000000 2.500000 7.750000
v -2.078729 2.500000 9.138962
v 2.250000 2.500000 10.000000
v 2.078729 2.069481 9.254319
v 1.590990 1.704505 8.622162
v 0.861038 1.460636 8.199768
v -0.000000 1.375000 8.051443
v -0.861038 1.460636 8.199768
v -1.590990 1.704505 8.622162
v -2.078729 2.069481 9.254319
v 2.078729 1.754320 9.569481
v 1.590990 1.122162 9.204505
v 0.861038 0.699768 8.960635
v -0.000000 0.551443 8.875000
v -0.861038 0.699768 8.960635
v -1.590990 1.122163 9.204505
v -2.078729 1.754320 9.569481
v 2.078729 1.638963 10.000000
v 1.590990 0.909010 10.000000
v 0.861038 0.421272 10.000000
v -0.000000 0.250000 10.000000
v -0.861038 0.421272 10.000000
v -1.590990 0.909010 10.000000
v -2.078729 1.638963 10.000000
v -2.250000 2.500000 10.000000
v 2.078729 1.754320 10.430518
v 1.590990 1.122162 10.795494
v 0.861038 0.699768 11.039364
v -0.000000 0.551443 11.125000
v -0.861038 0.699768 11.039364
v -1.590990 1.122163 10.795494
v -2.078729 1.754320 10.430518
v 2.078729 2.069481 10.745680
v 1.590990 1.704505 11.377837
v 0.861038 1.460636 11.800232
v -0.000000 1.375000 11.948557
v -0.861038 1.460636 11.800232
v -1.590990 1.704505 11.377837
v -2.078729 2.069481 10.745680
v 2.078729 2.500000 10.861037
v 1.590990 2.500000 11.590989
v 0.861038 2.500000 12.078728
v -0.000000 2.500000 12.249999
v -0.861038 2.500000 12.078728
v -1.590990 2.500000 11.590989
v -2.078729 2.500000 10.861037
v 2.078729 2.930519 10.745680
v 1.590990 3.295495 11.377837
v 0.861038 3.539364 11.800231
v -0.000000 3.625000 11.948557
v -0.861038 3.539364 11.800231
v -1.590990 3.295495 11.377837
v -2.078729 2.930519 10.745680
v 2.078729 3.245680 10.430518
v 1.590990 3.877837 10.795494
v 0.861038 4.300232 11.039364
v -0.000000 4.448557 11.124999
v -0.861038 4.300232 11.039364
v -1.590990 3.877838 10.795494
v -2.078729 3.245680 10.430518
v 2.078729 3.361037 10.000000
v 1.590990 4.090990 10.000000
v 0.861038 4.578729 9.999999
v -0.000000 4.750000 9.999999
v -0.861038 4.578729 9.999999
v -1.590990 4.090990 10.000000
v -2.078729 3.361037 10.000000
v 2.078729 3.245680 9.569481
v 1.590990 3.877837 9.204505
v 0.861038 4.300231 8.960635
v -0.000000 4.448557 8.875000
v -0.861038 4.300231 8.960635
v -1.590990 3.877838 9.204505
v -2.078729 3.245680 9.569481
v 2.078729 2.930519 9.254319
v 1.590990 3.295495 8.622162
v 0.861038 3.539364 8.199768
v -0.000000 3.625000 8.051443
v -0.861038 3.539364 8.199768
v -1.590990 3.295495 8.622162
v -2.078729 2.930519 9.254319
v -0.861038 2.500000 7.921271
v -1.590990 2.500000 8.409010
v -1.500000 0.000000 12.500000
v 1.500000 0.000000 12.500000
v -1.500000 0.000000 7.500000
v 1.500000 0.000000 7.500000
v 2.500000 0.000000 11.500000
v 2.500000 0.000000 8.500000
v -2.500000 0.000000 11.500000
v -2.500000 0.000000 8.500000
v -2.500000 0.250000 8.500000
v -2.500000 0.250000 11.500000
v -1.500000 0.250000 12.500000
v 1.500000 0.250000 12.500000
v 2.500000 0.250000 11.500000
v 2.500000 0.250000 8.500000
v 1.500000 0.250000 7.500000
v -1.500000 0.250000 7.500000
v -0.125000 5.000000 10.124999
v 0.125000 5.000000 10.124999
v -0.125000 5.000000 9.874999
v 0.125000 5.000000 9.874999
v -0.125000 4.625000 10.124999
v 0.125000 4.625000 10.124999
v -0.125000 4.625000 9.874999
v 0.125000 4.625000 9.874999
v -0.125000 4.179379 11.856154
v 0.125000 4.179379 11.856154
v -0.125000 4.356155 11.679379
v 0.125000 4.356155 11.679379
v -0.125000 3.914214 11.590990
v 0.125000 3.914214 11.590990
v -0.125000 4.090991 11.414213
v 0.125000 4.090991 11.414213
v -0.125000 2.375000 12.500000
v 0.125000 2.375000 12.500000
v -0.125000 2.625000 12.500000
v 0.125000 2.625000 12.500000
v -0.125000 2.375000 12.125000
v 0.125000 2.375000 12.125000
v -0.125000 2.625000 12.125000
v 0.125000 2.625000 12.125000
v -0.125000 2.625000 7.500000
v 0.125000 2.625000 7.500000
v -0.125000 2.375000 7.500000
v 0.125000 2.375000 7.500000
v -0.125000 2.625000 7.875000
v 0.125000 2.625000 7.875000
v -0.125000 2.374999 7.875000
v 0.125000 2.374999 7.875000
v -0.125000 4.356155 8.320621
v 0.125000 4.356155 8.320621
v -0.125000 4.179379 8.143845
v 0.125000 4.179379 8.143845
v -0.125000 4.090990 8.585786
v 0.125000 4.090990 8.585786
v -0.125000 3.914213 8.409009
v 0.125000 3.914213 8.409009
v 2.500000 2.625000 9.875000
v 2.500000 2.625000 10.125000
v 2.500000 2.375000 9.875000
v 2.500000 2.375000 10.125000
v 2.125000 2.625000 9.875000
v 2.125000 2.625000 10.125000
v 2.125000 2.374999 9.875000
v 2.125000 2.374999 10.125000
v 1.679379 4.356155 9.875000
v 1.679379 4.356155 10.125000
v 1.856155 4.179379 9.875000
v 1.856155 4.179379 10.125000
v 1.414214 4.090990 9.875000
v 1.414214 4.090990 10.125000
v 1.590991 3.914213 9.875000
v 1.590991 3.914213 10.125000
v -0.093750 2.375000 7.718750
v 0.093750 2.375000 7.718750
v -0.093750 2.375000 7.531250
v 0.093750 2.375000 7.531250
v -0.093750 0.250000 7.718750
v 0.093750 0.250000 7.718750
v -0.093750 0.250000 7.531250
v 0.093750 0.250000 7.531250
v -0.093750 2.625000 7.718750
v 0.093750 2.625000 7.718750
v -0.093750 2.625000 7.531250
v 0.093750 2.625000 7.531250
v -0.093750 4.024699 8.298524
v 0.093750 4.024699 8.298524
v -0.093750 4.157281 8.165941
v 0.093750 4.157281 8.165941
v -0.093750 4.201476 8.475301
v 0.093750 4.201476 8.475301
v -0.093750 4.334058 8.342718
v 0.093750 4.334058 8.342718
v -0.093750 4.781250 9.874999
v 0.093750 4.781250 9.874999
v -0.093750 4.968750 9.874999
v 0.093750 4.968750 9.874999
v 2.281250 2.375000 9.906250
v 2.281250 2.375000 10.093750
v 2.468750 2.375000 9.906250
v 2.468750 2.375000 10.093750
v 2.281250 0.250000 9.906250
v 2.281250 0.250000 10.093750
v 2.468750 0.250000 9.906250
v 2.468750 0.250000 10.093750
v 2.281250 2.625000 9.906250
v 2.281250 2.625000 10.093750
v 2.468750 2.625000 9.906250
v 2.468750 2.625000 10.093750
v 1.701476 4.024699 9.906250
v 1.701476 4.024699 10.093750
v 1.834058 4.157281 9.906250
v 1.834058 4.157281 10.093750
v 1.524699 4.201476 9.906250
v 1.524699 4.201476 10.093750
v 1.657282 4.334058 9.906250
v 1.657282 4.334058 10.093750
v 0.125000 4.781250 9.906250
v 0.125000 4.781250 10.093750
v 0.125000 4.968750 9.906250
v 0.125000 4.968750 10.093750
v 0.093750 2.375000 12.281250
v -0.093750 2.375000 12.281250
v 0.093750 2.375000 12.468750
v -0.093750 2.375000 12.468750
v 0.093750 0.250000 12.281250
v -0.093750 0.250000 12.281250
v 0.093750 0.250000 12.468750
v -0.093750 0.250000 12.468750
v 0.093750 2.625000 12.281250
v -0.093750 2.625000 12.281250
v 0.093750 2.625000 12.468750
v -0.093750 2.625000 12.468750
v 0.093750 4.024699 11.701475
v -0.093750 4.024699 11.701475
v 0.093750 4.157281 11.834058
v -0.093750 4.157281 11.834058
v 0.093750 4.201476 11.524698
v -0.093750 4.201476 11.524698
v 0.093750 4.334058 11.657281
v -0.093750 4.334058 11.657281
v 0.093750 4.781250 10.125000
v -0.093750 4.781250 10.125000
v 0.093750 4.968750 10.125000
v -0.093750 4.968750 10.125000
v 1.679379 2.625000 11.856155
v 1.679379 2.375000 11.856155
v 1.856155 2.625000 11.679379
v 1.856155 2.375000 11.679379
v 1.414214 2.625000 11.590990
v 1.414214 2.375000 11.590990
v 1.590991 2.625000 11.414213
v 1.590991 2.375000 11.414213
v 0.125000 2.406250 12.281250
v 0.125000 2.593750 12.281250
v 0.125000 2.406250 12.468750
v 0.125000 2.593750 12.468750
v 1.524699 2.406250 11.701475
v 1.524699 2.593750 11.701475
v 1.657281 2.406250 11.834058
v 1.657281 2.593750 11.834058
v 1.701476 2.406250 11.524698
v 1.701476 2.593750 11.524698
v 1.834058 2.406250 11.657282
v 1.834058 2.593750 11.657282
v 2.281250 2.406250 10.125000
v 2.281250 2.593750 10.125000
v 2.468750 2.406250 10.125000
v 2.468750 2.593750 10.125000
v 1.856156 2.625000 8.320621
v 1.856156 2.375000 8.320621
v 1.679379 2.625000 8.143845
v 1.679379 2.375000 8.143845
v 1.590990 2.625000 8.585786
v 1.590990 2.375000 8.585786
v 1.414213 2.625000 8.409009
v 1.414213 2.375000 8.409009
v 0.125000 2.593750 7.718750
v 0.125000 2.406250 7.718750
v 0.125000 2.593750 7.531250
v 0.125000 2.406250 7.531250
v 1.524699 2.593750 8.298524
v 1.524699 2.406250 8.298524
v 1.657282 2.593750 8.165941
v 1.657282 2.406250 8.165941
v 1.701476 2.593750 8.475301
v 1.701476 2.406250 8.475301
v 1.834058 2.593750 8.342718
v 1.834058 2.406250 8.342718
v 2.281250 2.593750 9.874999
v 2.281250 2.406250 9.874999
v 2.468750 2.593750 9.874999
v 2.468750 2.406250 9.874999
v -1.679379 4.356155 10.125000
v -1.679379 4.356155 9.875000
v -1.856155 4.179379 10.125000
v -1.856155 4.179379 9.875000
v -1.414214 4.090990 10.125000
v -1.414214 4.090990 9.875000
v -1.590991 3.914213 10.125000
v -1.590991 3.914213 9.875000
v -2.281250 2.625000 10.093750
v -2.281250 2.625000 9.906250
v -2.468750 2.625000 10.093750
v -2.468750 2.625000 9.906250
v -1.701476 4.024699 10.093750
v -1.701476 4.024699 9.906250
v -1.834058 4.157281 10.093750
v -1.834058 4.157281 9.906250
v -1.524699 4.201476 10.093750
v -1.524699 4.201476 9.906250
v -1.657282 4.334058 10.093750
v -1.657282 4.334058 9.906250
v -0.125000 4.781250 10.093750
v -0.125000 4.781250 9.906250
v -0.125000 4.968750 10.093750
v -0.125000 4.968750 9.906250
v -1.679379 2.625000 8.143845
v -1.679379 2.375000 8.143845
v -1.856155 2.625000 8.320621
v -1.856155 2.375000 8.320621
v -1.414214 2.625000 8.409010
v -1.414214 2.375000 8.409010
v -1.590991 2.625000 8.585786
v -1.590991 2.375000 8.585786
v -0.125000 2.406250 7.718750
v -0.125000 2.593750 7.718750
v -0.125000 2.406250 7.531250
v -0.125000 2.593750 7.531250
v -1.524699 2.406250 8.298524
v -1.524699 2.593750 8.298524
v -1.657281 2.406250 8.165941
v -1.657281 2.593750 8.165941
v -1.701476 2.406250 8.475301
v -1.701476 2.593750 8.475301
v -1.834058 2.406250 8.342718
v -1.834058 2.593750 8.342718
v -2.281250 2.406250 9.874999
v -2.281250 2.593750 9.874999
v -2.468750 2.406250 9.874999
v -2.468750 2.593750 9.874999
v -1.856156 2.625000 11.679379
v -1.856156 2.375000 11.679379
v -1.679379 2.625000 11.856155
v -1.679379 2.375000 11.856155
v -1.590990 2.625000 11.414213
v -1.590990 2.375000 11.414213
v -1.414213 2.625000 11.590990
v -1.414213 2.375000 11.590990
v -0.125000 2.593750 12.281250
v -0.125000 2.406250 12.281250
v -0.125000 2.593750 12.468750
v -0.125000 2.406250 12.468750
v -1.524699 2.593750 11.701476
v -1.524699 2.406250 11.701476
v -1.657282 2.593750 11.834059
v -1.657282 2.406250 11.834059
v -1.701476 2.593750 11.524699
v -1.701476 2.406250 11.524699
v -1.834058 2.593750 11.657282
v -1.834058 2.406250 11.657282
v -2.281250 2.593750 10.125000
v -2.281250 2.406250 10.125000
v -2.468750 2.593750 10.125000
v -2.468750 2.406250 10.125000
v -0.625000 0.250000 11.500000
v -1.500000 0.250000 10.625000
v 1.500000 0.250000 10.625000
v 0.625000 0.250000 11.500000
v -1.500000 0.250000 9.375000
v -0.625000 0.250000 8.500000
v 0.625000 0.250000 8.500000
v 1.500000 0.250000 9.375000
v -0.625000 1.250000 8.500000
v -1.500000 1.250000 9.375000
v -1.500000 1.250000 10.625000
v -0.625000 1.250000 11.500000
v 0.625000 1.250000 11.500000
v 1.500000 1.250000 10.625000
v 1.500000 1.250000 9.375000
v 0.625000 1.250000 8.500000
vt 0.521401 0.704918
vt 0.505837 0.684426
vt 0.521401 0.680328
vt 0.505837 0.659836
vt 0.521401 0.655738
vt 0.505837 0.651639
vt 0.521401 0.631148
vt 0.505837 0.627049
vt 0.521401 0.606557
vt 0.505837 0.602459
vt 0.521401 0.581967
vt 0.505837 0.577869
vt 0.521401 0.557377
vt 0.505837 0.536885
vt 0.521401 0.532787
vt 0.505837 0.512295
vt 0.521401 0.508197
vt 0.505837 0.487705
vt 0.521401 0.483607
vt 0.521401 0.778689
vt 0.505837 0.758197
vt 0.521401 0.754098
vt 0.505837 0.733607
vt 0.521401 0.729508
vt 0.505837 0.725410
vt 0.529183 0.557377
vt 0.544747 0.577869
vt 0.529183 0.581967
vt 0.544747 0.602459
vt 0.529183 0.606557
vt 0.544747 0.627049
vt 0.529183 0.631148
vt 0.544747 0.651639
vt 0.529183 0.655738
vt 0.544747 0.676230
vt 0.529183 0.680328
vt 0.529183 0.704918
vt 0.544747 0.684426
vt 0.544747 0.700820
vt 0.529183 0.729508
vt 0.544747 0.709016
vt 0.544747 0.725410
vt 0.529183 0.754098
vt 0.544747 0.733607
vt 0.544747 0.750000
vt 0.529183 0.778689
vt 0.544747 0.758197
vt 0.544747 0.774590
vt 0.529183 0.508197
vt 0.544747 0.487705
vt 0.544747 0.504098
vt 0.544747 0.528689
vt 0.529183 0.532787
vt 0.544747 0.553279
vt 0.548638 0.561475
vt 0.556420 0.575820
vt 0.548638 0.577869
vt 0.548638 0.586066
vt 0.556420 0.600410
vt 0.548638 0.602459
vt 0.548638 0.610656
vt 0.556420 0.625000
vt 0.548638 0.627049
vt 0.548638 0.635246
vt 0.556420 0.649590
vt 0.548638 0.651639
vt 0.548638 0.659836
vt 0.556420 0.674180
vt 0.548638 0.676230
vt 0.548638 0.684426
vt 0.556420 0.698770
vt 0.548638 0.700820
vt 0.548638 0.709016
vt 0.556420 0.723361
vt 0.548638 0.725410
vt 0.548638 0.733607
vt 0.556420 0.747951
vt 0.548638 0.750000
vt 0.548638 0.758197
vt 0.556420 0.772541
vt 0.548638 0.774590
vt 0.548638 0.487705
vt 0.556420 0.502049
vt 0.548638 0.504098
vt 0.548638 0.528689
vt 0.556420 0.514344
vt 0.556420 0.526639
vt 0.548638 0.536885
vt 0.556420 0.551230
vt 0.548638 0.553279
vt 0.560311 0.674180
vt 0.560311 0.661885
vt 0.583658 0.668033
vt 0.560311 0.649590
vt 0.560311 0.637295
vt 0.583658 0.643443
vt 0.560311 0.625000
vt 0.560311 0.612705
vt 0.583658 0.618852
vt 0.560311 0.600410
vt 0.560311 0.588115
vt 0.583658 0.594262
vt 0.560311 0.575820
vt 0.560311 0.563525
vt 0.583658 0.569672
vt 0.560311 0.551230
vt 0.560311 0.538934
vt 0.583658 0.545082
vt 0.560311 0.526639
vt 0.560311 0.514344
vt 0.583658 0.520492
vt 0.560311 0.502049
vt 0.560311 0.489754
vt 0.583658 0.495902
vt 0.560311 0.772541
vt 0.560311 0.760246
vt 0.583658 0.766393
vt 0.560311 0.747951
vt 0.560311 0.735656
vt 0.583658 0.741803
vt 0.560311 0.723361
vt 0.560311 0.711066
vt 0.583658 0.717213
vt 0.560311 0.698770
vt 0.560311 0.686475
vt 0.583658 0.692623
vt 0.000000 0.000000
vt 0.000000 0.000000
vt 0.000000 0.000000
vt 0.000000 0.000000
vt 0.000000 0.000000
vt 0.000000 0.000000
vt 0.000000 0.000000
vt 0.000000 0.000000
vt 0.000000 0.000000
vt 0.000000 0.000000
vt 0.000000 0.000000
vt 0.000000 0.000000
vt 0.000000 0.000000
vt 0.000000 0.000000
vt 0.000000 0.000000
vt 0.000000 0.000000
vt 0.000000 0.000000
vt 0.000000 0.000000
vt 0.000000 0.000000
vt 0.000000 0.000000
vt 0.000000 0.000000
vt 0.000000 0.000000
vt 0.000000 0.000000
vt 0.000000 0.000000
vt 0.000000 0.000000
vt 0.000000 0.000000
vt 0.000000 0.000000
vt 0.000000 0.000000
vt 0.000000 0.000000
vt 0.000000 0.000000
vt 0.000000 0.000000
vt 0.000000 0.000000
vt 0.000000 0.000000
vt 0.000000 0.000000
vt 0.000000 0.000000
vt 0.000000 0.000000
vt 0.000000 0.000000
vt 0.000000 0.000000
vt 0.000000 0.000000
vt 0.000000 0.000000
vt 0.000000 0.000000
vt 0.000000 0.000000
vt 0.000000 0.000000
vt 0.000000 0.000000
vt 0.000000 0.000000
vt 0.000000 0.000000
vt 0.000000 0.000000
vt 0.000000 0.000000
vt 0.000000 0.000000
vt 0.000000 0.000000
vt 0.000000 0.000000
vt 0.000000 0.000000
vt 0.000000 0.000000
vt 0.000000 0.000000
vt 0.000000 0.000000
vt 0.000000 0.000000
vt 0.000000 0.000000
vt 0.000000 0.000000
vt 0.000000 0.000000
vt 0.000000 0.000000
vt 0.000000 0.000000
vt 0.000000 0.000000
vt 0.000000 0.000000
vt 0.000000 0.000000
vt 0.000000 0.000000
vt 0.000000 0.000000
vt 0.000000 0.000000
vt 0.000000 0.000000
vt 0.000000 0.000000
vt 0.000000 0.000000
vt 0.000000 0.000000
vt 0.000000 0.000000
vt 0.000000 0.000000
vt 0.000000 0.000000
vt 0.000000 0.000000
vt 0.000000 0.000000
vt 0.000000 0.000000
vt 0.000000 0.000000
vt 0.000000 0.000000
vt 0.000000 0.000000
vt 0.000000 0.000000
vt 0.000000 0.000000
vt 0.000000 0.000000
vt 0.000000 0.000000
vt 0.000000 0.000000
vt 0.000000 0.000000
vt 0.000000 0.000000
vt 0.000000 0.000000
vt 0.000000 0.000000
vt 0.000000 0.000000
vt 0.000000 0.000000
vt 0.000000 0.000000
vt 0.000000 0.000000
vt 0.000000 0.000000
vt 0.000000 0.000000
vt 0.000000 0.000000
vt 0.000000 0.000000
vt 0.000000 0.000000
vt 0.000000 0.000000
vt 0.000000 0.000000
vt 0.000000 0.000000
vt 0.000000 0.000000
vt 0.000000 0.000000
vt 0.000000 0.000000
vt 0.000000 0.000000
vt 0.000000 0.000000
vt 0.000000 0.000000
vt 0.000000 0.000000
vt 0.000000 0.000000
vt 0.000000 0.000000
vt 0.000000 0.000000
vt 0.000000 0.000000
vt 0.000000 0.000000
vt 0.000000 0.000000
vt 0.000000 0.000000
vt 0.000000 0.000000
vt 0.000000 0.000000
vt 0.000000 0.000000
vt 0.000000 0.000000
vt 0.000000 0.000000
vt 0.000000 0.000000
vt 0.000000 0.000000
vt 0.000000 0.000000
vt 0.000000 0.000000
vt 0.000000 0.000000
vt 0.000000 0.000000
vt 0.000000 0.000000
vt 0.000000 0.000000
vt 0.000000 0.000000
vt 0.000000 0.000000
vt 0.000000 0.000000
vt 0.000000 0.000000
vt 0.000000 0.000000
vt 0.000000 0.000000
vt 0.000000 0.000000
vt 0.000000 0.000000
vt 0.000000 0.000000
vt 0.000000 0.000000
vt 0.000000 0.000000
vt 0.000000 0.000000
vt 0.000000 0.000000
vt 0.000000 0.000000
vt 0.000000 0.000000
vt 0.000000 0.000000
vt 0.000000 0.000000
vt 0.000000 0.000000
vt 0.000000 0.000000
vt 0.000000 0.000000
vt 0.000000 0.000000
vt 0.000000 0.000000
vt 0.000000 0.000000
vt 0.000000 0.000000
vt 0.000000 0.000000
vt 0.000000 0.000000
vt 0.000000 0.000000
vt 0.000000 0.000000
vt 0.000000 0.000000
vt 0.000000 0.000000
vt 0.000000 0.000000
vt 0.000000 0.000000
vt 0.000000 0.000000
vt 0.000000 0.000000
vt 0.000000 0.000000
vt 0.000000 0.000000
vt 0.000000 0.000000
vt 0.000000 0.000000
vt 0.000000 0.000000
vt 0.000000 0.000000
vt 0.000000 0.000000
vt 0.000000 0.000000
vt 0.000000 0.000000
vt 0.000000 0.000000
vt 0.000000 0.000000
vt 0.000000 0.000000
vt 0.000000 0.000000
vt 0.000000 0.000000
vt 0.000000 0.000000
vt 0.000000 0.000000
vt 0.000000 0.000000
vt 0.000000 0.000000
vt 0.000000 0.000000
vt 0.000000 0.000000
vt 0.000000 0.000000
vt 0.000000 0.000000
vt 0.000000 0.000000
vt 0.000000 0.000000
vt 0.000000 0.000000
vt 0.000000 0.000000
vt 0.000000 0.000000
vt 0.000000 0.000000
vt 0.000000 0.000000
vt 0.000000 0.000000
vt 0.000000 0.000000
vt 0.000000 0.000000
vt 0.000000 0.000000
vt 0.000000 0.000000
vt 0.000000 0.000000
vt 0.000000 0.000000
vt 0.000000 0.000000
vt 0.000000 0.000000
vt 0.000000 0.000000
vt 0.000000 0.000000
vt 0.000000 0.000000
vt 0.000000 0.000000
vt 0.000000 0.000000
vt 0.000000 0.000000
vt 0.000000 0.000000
vt 0.000000 0.000000
vt 0.000000 0.000000
vt 0.000000 0.000000
vt 0.000000 0.000000
vt 0.000000 0.000000
vt 0.000000 0.000000
vt 0.000000 0.000000
vt 0.000000 0.000000
vt 0.000000 0.000000
vt 0.000000 0.000000
vt 0.000000 0.000000
vt 0.000000 0.000000
vt 0.000000 0.000000
vt 0.000000 0.000000
vt 0.000000 0.000000
vt 0.000000 0.000000
vt 0.000000 0.000000
vt 0.000000 0.000000
vt 0.000000 0.000000
vt 0.000000 0.000000
vt 0.000000 0.000000
vt 0.000000 0.000000
vt 0.000000 0.000000
vt 0.000000 0.000000
vt 0.000000 0.000000
vt 0.000000 0.000000
vt 0.000000 0.000000
vt 0.000000 0.000000
vt 0.000000 0.000000
vt 0.000000 0.000000
vt 0.000000 0.000000
vt 0.000000 0.000000
vt 0.000000 0.000000
vt 0.000000 0.000000
vt 0.000000 0.000000
vt 0.000000 0.000000
vt 0.000000 0.000000
vt 0.000000 0.000000
vt 0.000000 0.000000
vt 0.000000 0.000000
vt 0.000000 0.000000
vt 0.000000 0.000000
vt 0.000000 0.000000
vt 0.000000 0.000000
vt 0.000000 0.000000
vt 0.000000 0.000000
vt 0.000000 0.000000
vt 0.000000 0.000000
vt 0.000000 0.000000
vt 0.000000 0.000000
vt 0.000000 0.000000
vt 0.000000 0.000000
vt 0.000000 0.000000
vt 0.000000 0.000000
vt 0.000000 0.000000
vt 0.000000 0.000000
vt 0.000000 0.000000
vt 0.000000 0.000000
vt 0.000000 0.000000
vt 0.000000 0.000000
vt 0.000000 0.000000
vt 0.000000 0.000000
vt 0.000000 0.000000
vt 0.000000 0.000000
vt 0.000000 0.000000
vt 0.505837 0.700820
vt 0.505837 0.676230
vt 0.505837 0.635246
vt 0.505837 0.610656
vt 0.505837 0.586066
vt 0.505837 0.561475
vt 0.505837 0.553279
vt 0.505837 0.528689
vt 0.505837 0.504098
vt 0.505837 0.774590
vt 0.505837 0.750000
vt 0.505837 0.709016
vt 0.544747 0.561475
vt 0.544747 0.586066
vt 0.544747 0.610656
vt 0.544747 0.635246
vt 0.544747 0.659836
vt 0.529183 0.483607
vt 0.544747 0.512295
vt 0.544747 0.536885
vt 0.556420 0.563525
vt 0.556420 0.588115
vt 0.556420 0.612705
vt 0.556420 0.637295
vt 0.556420 0.661885
vt 0.556420 0.686475
vt 0.556420 0.711066
vt 0.556420 0.735656
vt 0.556420 0.760246
vt 0.556420 0.489754
vt 0.548638 0.512295
vt 0.556420 0.538934
vt 0.000000 0.000000
vt 0.000000 0.000000
vt 0.000000 0.000000
vt 0.000000 0.000000
vt 0.000000 0.000000
vt 0.000000 0.000000
vt 0.000000 0.000000
vt 0.000000 0.000000
vt 0.482490 0.733607
vt 0.482490 0.610656
vt 0.482490 0.536885
vt 0.482490 0.758197
vt 0.482490 0.635246
vt 0.482490 0.561475
vt 0.482490 0.487705
vt 0.482490 0.659836
vt 0.482490 0.709016
vt 0.482490 0.586066
vt 0.482490 0.512295
vt 0.482490 0.684426
vt 0.000000 0.000000
vt 0.000000 0.000000
vt 0.000000 0.000000
vt 0.000000 0.000000
vt 0.000000 0.000000
vt 0.000000 0.000000
vt 0.000000 0.000000
vt 0.000000 0.000000
vt 0.000000 0.000000
vt 0.000000 0.000000
vt 0.000000 0.000000
vt 0.000000 0.000000
vt 0.000000 0.000000
vt 0.000000 0.000000
vt 0.000000 0.000000
vt 0.000000 0.000000
vt 0.000000 0.000000
vt 0.000000 0.000000
vt 0.000000 0.000000
vt 0.000000 0.000000
vt 0.000000 0.000000
vt 0.000000 0.000000
vt 0.000000 0.000000
vt 0.000000 0.000000
vt 0.000000 0.000000
vt 0.000000 0.000000
vt 0.000000 0.000000
vt 0.000000 0.000000
vt 0.000000 0.000000
vt 0.000000 0.000000
vt 0.000000 0.000000
vt 0.000000 0.000000
vt 0.000000 0.000000
vt 0.000000 0.000000
vt 0.000000 0.000000
vt 0.000000 0.000000
vt 0.000000 0.000000
vt 0.000000 0.000000
vt 0.000000 0.000000
vt 0.000000 0.000000
vt 0.000000 0.000000
vt 0.000000 0.000000
vt 0.000000 0.000000
vt 0.000000 0.000000
vt 0.000000 0.000000
vt 0.000000 0.000000
vt 0.000000 0.000000
vt 0.000000 0.000000
vt 0.000000 0.000000
vt 0.000000 0.000000
vt 0.000000 0.000000
vt 0.000000 0.000000
vt 0.000000 0.000000
vt 0.000000 0.000000
vt 0.000000 0.000000
vt 0.000000 0.000000
vt 0.000000 0.000000
vt 0.000000 0.000000
vt 0.000000 0.000000
vt 0.000000 0.000000
vt 0.000000 0.000000
vt 0.000000 0.000000
vt 0.000000 0.000000
vt 0.000000 0.000000
vt 0.000000 0.000000
vt 0.000000 0.000000
vt 0.000000 0.000000
vt 0.000000 0.000000
vt 0.000000 0.000000
vt 0.000000 0.000000
vt 0.000000 0.000000
vt 0.000000 0.000000
vt 0.000000 0.000000
vt 0.000000 0.000000
vt 0.000000 0.000000
vt 0.000000 0.000000
vt 0.000000 0.000000
vt 0.000000 0.000000
vt 0.000000 0.000000
vt 0.000000 0.000000
vt 0.000000 0.000000
vt 0.000000 0.000000
vt 0.000000 0.000000
vt 0.000000 0.000000
vt 0.000000 0.000000
vt 0.000000 0.000000
vt 0.482490 0.750000
vt 0.482490 0.627049
vt 0.482490 0.553279
vt 0.482490 0.774590
vt 0.482490 0.651639
vt 0.482490 0.577869
vt 0.482490 0.504098
vt 0.482490 0.676230
vt 0.482490 0.725410
vt 0.482490 0.602459
vt 0.482490 0.528689
vt 0.482490 0.700820
vn 1.0000 0.0000 0.0000
vn -1.0000 0.0000 0.0000
vn 0.0000 -1.0000 0.0000
vn 0.0000 1.0000 0.0000
vn 0.0000 0.0000 1.0000
vn 0.7071 0.0000 0.7071
vn 0.7071 0.0000 -0.7071
vn -0.7071 0.0000 0.7071
vn -0.7071 0.0000 -0.7071
vn 0.0000 0.0000 -1.0000
vn 0.0000 0.7071 0.7071
vn 0.0000 0.7071 -0.7071
vn 0.0000 -0.7071 0.7071
vn 0.0000 -0.7071 -0.7071
vn 0.7071 0.7071 0.0000
vn 0.7071 -0.7071 0.0000
vn -0.7071 0.7071 0.0000
vn 0.0000 -0.3827 0.9239
vn 0.0000 0.3827 -0.9239
vn 0.0000 -0.9239 0.3827
vn 0.0000 0.9239 -0.3827
vn -0.9239 -0.3827 0.0000
vn 0.9239 0.3827 0.0000
vn -0.3827 -0.9239 0.0000
vn 0.3827 0.9239 0.0000
vn 0.0000 -0.3827 -0.9239
vn 0.0000 0.3827 0.9239
vn 0.0000 -0.9239 -0.3827
vn 0.0000 0.9239 0.3827
vn -0.3827 0.0000 -0.9239
vn 0.3827 0.0000 0.9239
vn -0.9239 0.0000 -0.3827
vn 0.9239 0.0000 0.3827
vn -0.3827 0.0000 0.9239
vn 0.3827 0.0000 -0.9239
vn -0.9239 0.0000 0.3827
vn 0.9239 0.0000 -0.3827
vn -0.7071 -0.7071 0.0000
vn 0.9239 -0.3827 0.0000
vn -0.9239 0.3827 0.0000
vn 0.3827 -0.9239 0.0000
vn -0.3827 0.9239 0.0000
vn 0.0000 0.8660 -0.5000
vn 0.0000 0.5000 -0.8660
vn 0.0000 -0.5000 0.8660
vn 0.0000 0.5000 0.8660
vn 0.0000 0.8660 0.5000
vn 0.0000 -0.8660 -0.5000
vn 0.0000 -0.8660 0.5000
vn 0.0000 -0.5000 -0.8660
vn -0.3718 -0.0000 -0.9283
vn -0.6913 -0.3613 -0.6258
vn -0.6913 0.0000 -0.7226
vn 0.3718 -0.0000 -0.9283
vn 0.9122 0.0000 -0.4097
vn 0.6913 -0.3613 -0.6258
vn 0.6913 -0.0000 -0.7226
vn -0.9122 -0.0000 -0.4097
vn -0.9122 -0.2049 -0.3548
vn -0.3718 -0.4642 -0.8040
vn 0.3718 -0.4642 -0.8040
vn 0.9122 -0.2049 -0.3548
vn -0.6913 -0.6258 -0.3613
vn -0.9122 -0.3548 -0.2048
vn -0.3718 -0.8040 -0.4642
vn 0.3718 -0.8040 -0.4642
vn 0.9122 -0.3548 -0.2048
vn 0.6913 -0.6258 -0.3613
vn 0.3718 -0.9283 0.0000
vn 0.9122 -0.4097 -0.0000
vn -0.9122 -0.4097 0.0000
vn -0.3718 -0.9283 0.0000
vn -0.6913 -0.7226 0.0000
vn 0.6913 -0.7226 -0.0000
vn -0.9122 -0.3548 0.2049
vn -0.3718 -0.8040 0.4642
vn -0.6913 -0.6258 0.3613
vn 0.3718 -0.8040 0.4642
vn 0.6913 -0.6258 0.3613
vn 0.9122 -0.3548 0.2049
vn 0.9122 -0.2049 0.3548
vn 0.6913 -0.3613 0.6258
vn -0.9122 -0.2049 0.3548
vn -0.3718 -0.4642 0.8040
vn 0.3718 -0.4642 0.8040
vn -0.6913 -0.3613 0.6258
vn -0.6913 0.0000 0.7226
vn -0.9122 -0.0000 0.4097
vn -0.3718 0.0000 0.9283
vn 0.3718 0.0000 0.9283
vn 0.9122 0.0000 0.4097
vn 0.6913 -0.0000 0.7226
vn 0.9122 0.2049 0.3548
vn -0.9122 0.2049 0.3548
vn -0.6913 0.3613 0.6258
vn 0.6913 0.3613 0.6258
vn -0.3718 0.4642 0.8040
vn 0.3718 0.4642 0.8040
vn -0.6913 0.6258 0.3613
vn 0.3718 0.8040 0.4642
vn 0.6913 0.6258 0.3613
vn -0.9122 0.3548 0.2049
vn -0.3718 0.8040 0.4642
vn 0.9122 0.3548 0.2049
vn -0.9122 0.4097 0.0000
vn -0.3718 0.9283 -0.0000
vn 0.3718 0.9283 -0.0000
vn 0.9122 0.4097 0.0000
vn -0.6913 0.7226 0.0000
vn 0.6913 0.7226 -0.0000
vn -0.3718 0.8040 -0.4642
vn 0.3718 0.8040 -0.4642
vn 0.9122 0.3548 -0.2049
vn -0.9122 0.3548 -0.2049
vn -0.6913 0.6258 -0.3613
vn 0.6913 0.6258 -0.3613
vn -0.9122 0.2049 -0.3548
vn -0.3718 0.4642 -0.8040
vn -0.6913 0.3613 -0.6258
vn 0.9122 0.2049 -0.3548
vn 0.6913 0.3613 -0.6258
vn 0.3718 0.4642 -0.8040
v -2.500000 2.500000 1.500001
v -2.500000 3.250000 1.299039
v -2.500000 3.799038 0.750001
v -2.500000 4.000000 0.000001
v -2.500000 3.799038 -0.749999
v -2.500000 3.250000 -1.299037
v -2.500000 2.500000 -1.499999
v -2.500000 1.750000 -1.299038
v -2.500000 1.200962 -0.750000
v -2.500000 1.000000 0.000000
v -2.500000 1.200961 0.750000
v -2.500000 1.749999 1.299038
v -2.250000 3.250000 1.299039
v -2.250000 2.500000 1.500001
v -2.250000 3.799038 0.750001
v -2.250000 4.000000 0.000001
v -2.250000 3.799038 -0.749999
v -2.250000 3.250000 -1.299037
v -2.250000 2.500000 -1.499999
v -2.250000 1.750000 -1.299037
v -2.250000 1.200962 -0.750000
v -2.250000 1.000000 0.000000
v -2.250000 1.200961 0.750000
v -2.250000 1.749999 1.299038
v -2.250000 1.999999 0.866026
v -2.250000 1.633974 0.500000
v -2.250000 1.500000 0.000000
v -2.250000 1.633975 -0.500000
v -2.250000 2.000000 -0.866025
v -2.250000 2.500000 -0.999999
v -2.250000 3.000000 -0.866025
v -2.250000 3.366025 -0.499999
v -2.250000 3.500000 0.000001
v -2.250000 3.366026 0.500001
v -2.250000 3.000000 0.866026
v -2.250000 2.500000 1.000000
v -1.500000 1.999999 0.866026
v -1.500000 1.633974 0.500000
v -1.500000 1.500000 0.000000
v -1.500000 1.633975 -0.500000
v -1.500000 2.000000 -0.866025
v -1.500000 2.500000 -0.999999
v -1.500000 3.000000 -0.866025
v -1.500000 3.366025 -0.499999
v -1.500000 3.500000 0.000001
v -1.500000 3.366026 0.500001
v -1.500000 3.000000 0.866026
v -1.500000 2.500000 1.000000
v -2.500000 2.500000 1.000000
v -2.500000 3.000000 0.866026
v -2.500000 3.366025 0.500000
v -2.500000 3.500000 0.000000
v -2.500000 3.366025 -0.500000
v -2.500000 3.000000 -0.866025
v -2.500000 2.500000 -1.000000
v -2.500000 2.000000 -0.866025
v -2.500000 1.633975 -0.500000
v -2.500000 1.500000 0.000000
v -2.500000 1.633974 0.500000
v -2.500000 1.999999 0.866025
v -2.500000 2.500000 0.750000
v -2.500000 2.875000 0.649519
v -2.500000 3.149519 0.375000
v -2.500000 3.250000 0.000000
v -2.500000 3.149519 -0.375000
v -2.500000 2.875000 -0.649519
v -2.500000 2.500000 -0.750000
v -2.500000 2.125000 -0.649519
v -2.500000 1.850481 -0.375000
v -2.500000 1.750000 0.000000
v -2.500000 1.850481 0.375000
v -2.500000 2.125000 0.649519
v -2.375000 3.000000 0.866026
v -2.375000 2.500000 1.000000
v -2.375000 3.366025 0.500000
v -2.375000 3.500000 0.000000
v -2.375000 3.366025 -0.500000
v -2.375000 3.000000 -0.866025
v -2.375000 2.500000 -1.000000
v -2.375000 2.000000 -0.866025
v -2.375000 1.633975 -0.500000
v -2.375000 1.500000 0.000000
v -2.375000 1.633974 0.500000
v -2.375000 1.999999 0.866025
v -2.375000 2.875000 0.649519
v -2.375000 2.500000 0.750000
v -2.375000 3.149519 0.375000
v -2.375000 3.250000 0.000000
v -2.375000 3.149519 -0.375000
v -2.375000 2.875000 -0.649519
v -2.375000 2.500000 -0.750000
v -2.375000 2.125000 -0.649519
v -2.375000 1.850481 -0.375000
v -2.375000 1.750000 0.000000
v -2.375000 1.850481 0.375000
v -2.375000 2.125000 0.649519
v -2.500000 2.500000 0.000000
v -0.500000 1.000000 1.500000
v 1.500000 1.000000 1.500000
v -0.500000 1.000000 -1.500000
v 1.500000 1.000000 -1.500000
v 2.500000 0.000000 1.500000
v 2.500000 0.000000 -1.500000
v -1.500000 0.000000 1.500000
v -1.500000 0.000000 -1.500000
v -1.500000 0.250000 -1.500000
v -1.500000 0.250000 1.500000
v 1.500000 0.250000 -1.500000
v -0.500000 0.250000 -1.500000
v 2.500000 0.250000 1.500000
v 2.500000 0.250000 -1.500000
v 1.500000 0.250000 -0.500000
v -0.500000 0.250000 -0.500000
v 2.500000 2.500000 -1.000000
v 2.500000 3.000000 -0.866025
v 2.500000 3.366025 -0.500000
v 2.500000 3.500000 0.000000
v 2.500000 3.366025 0.500000
v 2.500000 3.000000 0.866026
v 2.500000 2.500000 1.000000
v 2.500000 2.000000 0.866026
v 2.500000 1.633975 0.500001
v 2.500000 1.500000 0.000001
v 2.500000 1.633974 -0.499999
v 2.500000 1.999999 -0.866024
v 2.000000 2.500000 -1.499999
v 2.000000 3.250000 -1.299037
v 2.000000 3.799038 -0.749999
v 2.000000 4.000000 0.000001
v 2.000000 3.799038 0.750001
v 2.000000 3.250000 1.299038
v 2.000000 2.500000 1.500000
v 2.000000 1.750000 1.299039
v 2.000000 1.200962 0.750001
v 2.000000 1.000000 0.000001
v 2.000000 1.200962 -0.749999
v 2.000000 1.749999 -1.299037
v -1.000000 2.500000 -1.499999
v -1.000000 3.250000 -1.299037
v -1.000000 3.799038 -0.749999
v -1.000000 4.000000 0.000001
v -1.000000 3.799038 0.750001
v -1.000000 3.250000 1.299038
v -1.000000 2.500000 1.500000
v -1.000000 1.750000 1.299039
v -1.000000 1.200962 0.750001
v -1.000000 1.000000 0.000001
v -1.000000 1.200962 -0.749999
v -1.000000 1.749999 -1.299037
v 1.500000 1.000000 -1.000000
v 1.500000 0.500000 -0.500000
v -0.500000 0.500000 -0.500000
v -0.500000 1.000000 -1.000000
v -0.500000 0.250000 1.500000
v 1.500000 0.250000 1.500000
v -0.500000 0.250000 0.500000
v 1.500000 0.250000 0.500000
v -0.500000 1.000000 1.000000
v -0.500000 0.500000 0.500000
v 1.500000 0.500000 0.500000
v 1.500000 1.000000 1.000000
v 2.000000 0.250000 -1.500000
v 2.000000 0.250000 -1.000000
v 1.750000 0.250000 -1.500000
v 1.750000 0.250000 -1.000000
v 2.000000 2.500000 -1.500000
v 2.000000 2.500000 -1.000000
v 1.750000 2.500000 -1.500000
v 1.750000 2.500000 -1.000000
v 2.000000 0.250000 1.000000
v 2.000000 0.250000 1.500000
v 1.750000 0.250000 1.000000
v 1.750000 0.250000 1.500000
v 2.000000 2.500000 1.000000
v 2.000000 2.500000 1.500000
v 1.750000 2.500000 1.000000
v 1.750000 2.500000 1.500000
v -0.750000 0.250000 -1.500000
v -0.750000 0.250000 -1.000000
v -1.000000 0.250000 -1.500000
v -1.000000 0.250000 -1.000000
v -0.750000 2.500000 -1.500000
v -0.750000 2.500000 -1.000000
v -1.000000 2.500000 -1.500000
v -1.000000 2.500000 -1.000000
v -0.750000 0.250000 1.000000
v -0.750000 0.250000 1.500000
v -1.000000 0.250000 1.000000
v -1.000000 0.250000 1.500000
v -0.750000 2.500000 1.000000
v -0.750000 2.500000 1.500000
v -1.000000 2.500000 1.000000
v -1.000000 2.500000 1.500000
v 1.250000 0.875000 0.875000
v 1.250000 0.875000 -0.875000
v 1.338388 0.838388 -0.875000
v 1.338388 0.838388 0.875000
v 1.375000 0.750000 -0.875000
v 1.375000 0.750000 0.875000
v 1.338388 0.661612 -0.875000
v 1.338388 0.661612 0.875000
v 1.250000 0.625000 -0.875000
v 1.250000 0.625000 0.875000
v 1.161612 0.661612 -0.875000
v 1.161612 0.661612 0.875000
v 1.125000 0.750000 -0.875000
v 1.125000 0.750000 0.875000
v 1.161612 0.838388 -0.875000
v 1.161612 0.838388 0.875000
v 1.250000 0.750000 0.125000
v 1.250000 1.125000 0.125000
v 1.338388 1.125000 0.088388
v 1.338388 0.750000 0.088388
v 1.375000 1.125000 0.000000
v 1.375000 0.750000 0.000000
v 1.338388 1.125000 -0.088388
v 1.338388 0.750000 -0.088388
v 1.250000 1.125000 -0.125000
v 1.250000 0.750000 -0.125000
v 1.161612 1.125000 -0.088388
v 1.161612 0.750000 -0.088388
v 1.125000 1.125000 0.000000
v 1.125000 0.750000 0.000000
v 1.161612 1.125000 0.088388
v 1.161612 0.750000 0.088388
v -0.250000 1.174175 -0.972271
v 1.250000 1.174175 -0.972271
v -0.250000 1.527728 -1.325824
v 1.250000 1.527728 -1.325824
v -0.250000 1.704505 -1.149048
v -0.250000 1.350951 -0.795494
v 1.250000 1.350951 -0.795494
v 1.250000 1.704505 -1.149048
v -0.250000 3.472272 -1.325824
v 1.250000 3.472272 -1.325824
v -0.250000 3.825825 -0.972271
v 1.250000 3.825825 -0.972271
v -0.250000 3.649049 -0.795494
v -0.250000 3.295495 -1.149048
v 1.250000 3.295495 -1.149048
v 1.250000 3.649049 -0.795494
v -0.250000 3.825825 0.972273
v 1.250000 3.825825 0.972273
v -0.250000 3.472272 1.325826
v 1.250000 3.472272 1.325826
v -0.250000 3.295495 1.149049
v -0.250000 3.649048 0.795496
v 1.250000 3.649048 0.795496
v 1.250000 3.295495 1.149049
v -0.250000 1.527728 1.325826
v 1.250000 1.527728 1.325826
v -0.250000 1.174175 0.972273
v 1.250000 1.174175 0.972273
v -0.250000 1.350951 0.795496
v -0.250000 1.704505 1.149049
v 1.250000 1.704505 1.149049
v 1.250000 1.350951 0.795496
v -0.250000 2.250000 -1.624999
v 1.250000 2.250000 -1.624999
v -0.250000 2.750000 -1.624999
v 1.250000 2.750000 -1.624999
v -0.250000 2.750000 -1.374999
v -0.250000 2.250000 -1.374999
v 1.250000 2.250000 -1.374999
v 1.250000 2.750000 -1.374999
v -0.250000 2.750000 1.625001
v 1.250000 2.750000 1.625001
v -0.250000 2.250000 1.625001
v 1.250000 2.250000 1.625001
v -0.250000 2.250000 1.375001
v -0.250000 2.750000 1.375001
v 1.250000 2.750000 1.375001
v 1.250000 2.250000 1.375001
v 0.750000 0.875000 0.875000
v 0.750000 0.875000 -0.875000
v 0.838388 0.838388 -0.875000
v 0.838388 0.838388 0.875000
v 0.875000 0.750000 -0.875000
v 0.875000 0.750000 0.875000
v 0.838388 0.661612 -0.875000
v 0.838388 0.661612 0.875000
v 0.750000 0.625000 -0.875000
v 0.750000 0.625000 0.875000
v 0.661612 0.661612 -0.875000
v 0.661612 0.661612 0.875000
v 0.625000 0.750000 -0.875000
v 0.625000 0.750000 0.875000
v 0.661612 0.838388 -0.875000
v 0.661612 0.838388 0.875000
v 0.750000 0.750000 0.125000
v 0.750000 1.125000 0.125000
v 0.838388 1.125000 0.088388
v 0.838388 0.750000 0.088388
v 0.875000 1.125000 0.000000
v 0.875000 0.750000 0.000000
v 0.838388 1.125000 -0.088388
v 0.838388 0.750000 -0.088388
v 0.750000 1.125000 -0.125000
v 0.750000 0.750000 -0.125000
v 0.661612 1.125000 -0.088388
v 0.661612 0.750000 -0.088388
v 0.625000 1.125000 0.000000
v 0.625000 0.750000 0.000000
v 0.661612 1.125000 0.088388
v 0.661612 0.750000 0.088388
v 0.250000 0.875000 0.875000
v 0.250000 0.875000 -0.875000
v 0.338388 0.838388 -0.875000
v 0.338388 0.838388 0.875000
v 0.375000 0.750000 -0.875000
v 0.375000 0.750000 0.875000
v 0.338388 0.661612 -0.875000
v 0.338388 0.661612 0.875000
v 0.250000 0.625000 -0.875000
v 0.250000 0.625000 0.875000
v 0.161612 0.661612 -0.875000
v 0.161612 0.661612 0.875000
v 0.125000 0.750000 -0.875000
v 0.125000 0.750000 0.875000
v 0.161612 0.838388 -0.875000
v 0.161612 0.838388 0.875000
v 0.250000 0.750000 0.125000
v 0.250000 1.125000 0.125000
v 0.338388 1.125000 0.088388
v 0.338388 0.750000 0.088388
v 0.375000 1.125000 0.000000
v 0.375000 0.750000 0.000000
v 0.338388 1.125000 -0.088388
v 0.338388 0.750000 -0.088388
v 0.250000 1.125000 -0.125000
v 0.250000 0.750000 -0.125000
v 0.161612 1.125000 -0.088388
v 0.161612 0.750000 -0.088388
v 0.125000 1.125000 0.000000
v 0.125000 0.750000 0.000000
v 0.161612 1.125000 0.088388
v 0.161612 0.750000 0.088388
v -0.250000 0.875000 0.875000
v -0.250000 0.875000 -0.875000
v -0.161612 0.838388 -0.875000
v -0.161612 0.838388 0.875000
v -0.125000 0.750000 -0.875000
v -0.125000 0.750000 0.875000
v -0.161612 0.661612 -0.875000
v -0.161612 0.661612 0.875000
v -0.250000 0.625000 -0.875000
v -0.250000 0.625000 0.875000
v -0.338388 0.661612 -0.875000
v -0.338388 0.661612 0.875000
v -0.375000 0.750000 -0.875000
v -0.375000 0.750000 0.875000
v -0.338388 0.838388 -0.875000
v -0.338388 0.838388 0.875000
v -0.250000 0.750000 0.125000
v -0.250000 1.125000 0.125000
v -0.161612 1.125000 0.088388
v -0.161612 0.750000 0.088388
v -0.125000 1.125000 0.000000
v -0.125000 0.750000 0.000000
v -0.161612 1.125000 -0.088388
v -0.161612 0.750000 -0.088388
v -0.250000 1.125000 -0.125000
v -0.250000 0.750000 -0.125000
v -0.338388 1.125000 -0.088388
v -0.338388 0.750000 -0.088388
v -0.375000 1.125000 0.000000
v -0.375000 0.750000 0.000000
v -0.338388 1.125000 0.088388
v -0.338388 0.750000 0.088388
vt 0.650794 0.750000
vt 0.619048 0.680556
vt 0.650794 0.666667
vt 0.619048 0.597222
vt 0.650794 0.583333
vt 0.619048 0.569444
vt 0.650794 0.500000
vt 0.619048 0.486111
vt 0.650794 0.416667
vt 0.619048 0.402778
vt 0.650794 0.333333
vt 0.619048 0.319444
vt 0.650794 0.250000
vt 0.619048 0.180556
vt 0.650794 0.166667
vt 0.619048 0.097222
vt 0.650794 0.083333
vt 0.619048 0.013889
vt 0.650794 -0.000000
vt 0.650794 1.000000
vt 0.619048 0.930556
vt 0.650794 0.916667
vt 0.619048 0.847222
vt 0.650794 0.833333
vt 0.619048 0.819444
vt 0.666667 0.250000
vt 0.698413 0.319444
vt 0.666667 0.333333
vt 0.698413 0.402778
vt 0.666667 0.416667
vt 0.698413 0.486111
vt 0.666667 0.500000
vt 0.698413 0.569444
vt 0.666667 0.583333
vt 0.698413 0.652778
vt 0.666667 0.666667
vt 0.666667 0.750000
vt 0.698413 0.680556
vt 0.698413 0.736111
vt 0.666667 0.833333
vt 0.698413 0.763889
vt 0.698413 0.819444
vt 0.666667 0.916667
vt 0.698413 0.847222
vt 0.698413 0.902778
vt 0.666667 1.000000
vt 0.698413 0.930556
vt 0.698413 0.986111
vt 0.666667 0.083333
vt 0.698413 0.013889
vt 0.698413 0.069444
vt 0.698413 0.152778
vt 0.666667 0.166667
vt 0.698413 0.236111
vt 0.706349 0.263889
vt 0.722222 0.312500
vt 0.706349 0.319444
vt 0.706349 0.347222
vt 0.722222 0.395833
vt 0.706349 0.402778
vt 0.706349 0.430556
vt 0.722222 0.479167
vt 0.706349 0.486111
vt 0.706349 0.513889
vt 0.722222 0.562500
vt 0.706349 0.569444
vt 0.706349 0.597222
vt 0.722222 0.645833
vt 0.706349 0.652778
vt 0.706349 0.680556
vt 0.722222 0.729167
vt 0.706349 0.736111
vt 0.706349 0.763889
vt 0.722222 0.812500
vt 0.706349 0.819444
vt 0.706349 0.847222
vt 0.722222 0.895833
vt 0.706349 0.902778
vt 0.706349 0.930556
vt 0.722222 0.979167
vt 0.706349 0.986111
vt 0.706349 0.013889
vt 0.722222 0.062500
vt 0.706349 0.069444
vt 0.706349 0.152778
vt 0.722222 0.104167
vt 0.722222 0.145833
vt 0.706349 0.180556
vt 0.722222 0.229167
vt 0.706349 0.236111
vt 0.730159 0.645833
vt 0.730159 0.604167
vt 0.777778 0.625000
vt 0.730159 0.562500
vt 0.730159 0.520833
vt 0.777778 0.541667
vt 0.730159 0.479167
vt 0.730159 0.437500
vt 0.777778 0.458333
vt 0.730159 0.395833
vt 0.730159 0.354167
vt 0.777778 0.375000
vt 0.730159 0.312500
vt 0.730159 0.270833
vt 0.777778 0.291667
vt 0.730159 0.229167
vt 0.730159 0.187500
vt 0.777778 0.208333
vt 0.730159 0.145833
vt 0.730159 0.104167
vt 0.777778 0.125000
vt 0.730159 0.062500
vt 0.730159 0.020833
vt 0.777778 0.041667
vt 0.730159 0.979167
vt 0.730159 0.937500
vt 0.777778 0.958333
vt 0.730159 0.895833
vt 0.730159 0.854167
vt 0.777778 0.875000
vt 0.730159 0.812500
vt 0.730159 0.770833
vt 0.777778 0.791667
vt 0.730159 0.729167
vt 0.730159 0.687500
vt 0.777778 0.708333
vt 0.984127 0.444444
vt 0.793651 -0.000000
vt 0.984127 -0.000000
vt 0.793651 0.916667
vt 0.984127 0.472222
vt 0.984127 0.916667
vt 0.793651 0.472222
vt 0.777778 0.916667
vt 0.777778 0.472222
vt 0.396825 0.729167
vt 0.523810 0.701389
vt 0.523810 0.729167
vt 1.000000 0.916667
vt 1.000000 0.472222
vt 0.793651 0.444444
vt 0.793651 0.944444
vt 0.984127 0.944444
vt 0.000014 0.611111
vt 0.031753 0.514908
vt 0.126970 0.611111
vt 0.396825 0.729167
vt 0.523810 0.701389
vt 0.523810 0.729167
vt 0.396825 0.645833
vt 0.523810 0.590278
vt 0.523810 0.645833
vt 0.571429 0.590278
vt 0.555556 0.701389
vt 0.523810 0.506944
vt 0.396825 0.590278
vt 0.396825 0.506944
vt 0.396825 0.701389
vt 0.349206 0.590278
vt 0.365079 0.701389
vt 0.396825 0.645833
vt 0.523810 0.590278
vt 0.523810 0.645833
vt 0.571429 0.590278
vt 0.555556 0.701389
vt 0.523810 0.506944
vt 0.396825 0.590278
vt 0.396825 0.506944
vt 0.396825 0.701389
vt 0.349206 0.590278
vt 0.365079 0.701389
vt 0.174603 0.750000
vt 0.158730 0.500000
vt 0.174603 0.500000
vt 0.206349 0.500000
vt 0.222222 0.750000
vt 0.222222 0.500000
vt 0.158730 0.750000
vt 0.126984 0.500000
vt 0.174603 0.750000
vt 0.158730 0.500000
vt 0.174603 0.500000
vt 0.206349 0.500000
vt 0.222222 0.750000
vt 0.222222 0.500000
vt 0.158730 0.750000
vt 0.126984 0.500000
vt 0.174603 0.750000
vt 0.158730 0.500000
vt 0.174603 0.500000
vt 0.206349 0.500000
vt 0.222222 0.750000
vt 0.222222 0.500000
vt 0.158730 0.750000
vt 0.126984 0.500000
vt 0.174603 0.750000
vt 0.158730 0.500000
vt 0.174603 0.500000
vt 0.206349 0.500000
vt 0.222222 0.750000
vt 0.222222 0.500000
vt 0.158730 0.750000
vt 0.126984 0.500000
vt 0.333333 0.583333
vt 0.238095 0.527778
vt 0.333333 0.527778
vt 0.333333 0.583333
vt 0.238095 0.527778
vt 0.333333 0.527778
vt 0.238095 0.583333
vt 0.222222 0.527778
vt 0.349206 0.527778
vt 0.349206 0.583333
vt 0.238095 0.611111
vt 0.333333 0.500000
vt 0.222222 0.583333
vt 0.222222 0.527778
vt 0.349206 0.583333
vt 0.238095 0.611111
vt 0.238095 0.583333
vt 0.333333 0.500000
vt 0.238095 0.527778
vt 0.333333 0.583333
vt 0.238095 0.583333
vt 0.238095 0.527778
vt 0.333333 0.583333
vt 0.238095 0.583333
vt 0.333333 0.527778
vt 0.349206 0.583333
vt 0.222222 0.583333
vt 0.222222 0.527778
vt 0.333333 0.500000
vt 0.238095 0.611111
vt 0.333333 0.527778
vt 0.349206 0.583333
vt 0.222222 0.583333
vt 0.222222 0.527778
vt 0.333333 0.500000
vt 0.238095 0.611111
vt 0.333333 0.583333
vt 0.238095 0.527778
vt 0.333333 0.527778
vt 0.238095 0.583333
vt 0.222222 0.527778
vt 0.349206 0.583333
vt 0.238095 0.611111
vt 0.333333 0.500000
vt 0.238095 0.527778
vt 0.333333 0.583333
vt 0.238095 0.583333
vt 0.333333 0.527778
vt 0.349206 0.583333
vt 0.222222 0.583333
vt 0.222222 0.527778
vt 0.333333 0.500000
vt 0.238095 0.611111
vt 0.619048 0.736111
vt 0.619048 0.652778
vt 0.619048 0.513889
vt 0.619048 0.430556
vt 0.619048 0.347222
vt 0.619048 0.263889
vt 0.619048 0.236111
vt 0.619048 0.152778
vt 0.619048 0.069444
vt 0.619048 0.986111
vt 0.619048 0.902778
vt 0.619048 0.763889
vt 0.698413 0.263889
vt 0.698413 0.347222
vt 0.698413 0.430556
vt 0.698413 0.513889
vt 0.698413 0.597222
vt 0.666667 -0.000000
vt 0.698413 0.097222
vt 0.698413 0.180556
vt 0.722222 0.270833
vt 0.722222 0.354167
vt 0.722222 0.437500
vt 0.722222 0.520833
vt 0.722222 0.604167
vt 0.722222 0.687500
vt 0.722222 0.770833
vt 0.722222 0.854167
vt 0.722222 0.937500
vt 0.722222 0.020833
vt 0.706349 0.097222
vt 0.722222 0.187500
vt 0.118465 0.666654
vt 0.095231 0.707315
vt 0.063492 0.722197
vt 0.031753 0.707315
vt 0.008519 0.666654
vt 0.008519 0.555568
vt 0.063492 0.500025
vt 0.095231 0.514908
vt 0.118465 0.555568
vt 0.571429 0.701389
vt 0.349206 0.701389
vt 0.571429 0.701389
vt 0.349206 0.701389
vt 0.206349 0.750000
vt 0.126984 0.750000
vt 0.206349 0.750000
vt 0.126984 0.750000
vt 0.206349 0.750000
vt 0.126984 0.750000
vt 0.206349 0.750000
vt 0.126984 0.750000
vt 0.222222 0.583333
vt 0.333333 0.611111
vt 0.238095 0.500000
vt 0.349206 0.527778
vt 0.333333 0.611111
vt 0.238095 0.500000
vt 0.349206 0.527778
vt 0.238095 0.500000
vt 0.333333 0.611111
vt 0.349206 0.527778
vt 0.238095 0.500000
vt 0.333333 0.611111
vt 0.222222 0.583333
vt 0.349206 0.527778
vt 0.333333 0.611111
vt 0.238095 0.500000
vt 0.349206 0.527778
vt 0.238095 0.500000
vt 0.333333 0.611111
vt 0.571429 0.847222
vt 0.571429 0.430556
vt 0.571429 0.180556
vt 0.571429 0.930556
vt 0.571429 0.513889
vt 0.571429 0.263889
vt 0.571429 0.013889
vt 0.571429 0.597222
vt 0.571429 0.763889
vt 0.571429 0.347222
vt 0.571429 0.097222
vt 0.571429 0.680556
vt 0.380952 0.083333
vt 0.341270 -0.000000
vt 0.373016 -0.000000
vt 0.333333 0.083333
vt 0.293651 -0.000000
vt 0.325397 -0.000000
vt 0.285714 0.083333
vt 0.246032 -0.000000
vt 0.277778 -0.000000
vt 0.230159 -0.000000
vt 0.190476 0.083333
vt 0.198413 -0.000000
vt 0.182540 -0.000000
vt 0.142857 0.083333
vt 0.150794 -0.000000
vt 0.103175 -0.000000
vt 0.134921 -0.000000
vt 0.087302 -0.000000
vt 0.047619 0.083333
vt 0.055556 -0.000000
vt 0.039683 -0.000000
vt -0.000000 0.083333
vt 0.007937 -0.000000
vt 0.563492 -0.000000
vt 0.523810 0.083333
vt 0.531746 -0.000000
vt 0.484127 -0.000000
vt 0.515873 -0.000000
vt 0.476190 0.083333
vt 0.436508 -0.000000
vt 0.468254 -0.000000
vt 0.428571 0.083333
vt 0.388889 -0.000000
vt 0.420635 -0.000000
vt 0.238095 0.416667
vt 0.238095 0.083333
vt 0.476190 0.416667
vt 0.380952 0.416667
vt 0.095238 0.083333
vt 0.047619 0.416667
vt 0.190476 0.416667
vt 0.428571 0.416667
vt 0.333333 0.416667
vt -0.000000 0.416667
vt 0.142857 0.416667
vt 0.285714 0.416667
vt 0.571429 0.083333
vt 0.523810 0.416667
vt 0.095238 0.416667
vt 0.341270 0.500000
vt 0.373016 0.500000
vt 0.293651 0.500000
vt 0.325397 0.500000
vt 0.277778 0.500000
vt 0.230159 0.500000
vt 0.182540 0.500000
vt 0.134921 0.500000
vt 0.087302 0.500000
vt 0.039683 0.500000
vt 0.563492 0.500000
vt 0.571429 0.416667
vt 0.515873 0.500000
vt 0.468254 0.500000
vt 0.388889 0.500000
vt 0.420635 0.500000
vt 0.000000 0.791667
vt 0.111111 0.777778
vt 0.111111 0.791667
vt 0.000000 0.805556
vt 0.111111 0.805556
vt 0.000000 0.819444
vt 0.111111 0.819444
vt 0.000000 0.833333
vt 0.111111 0.833333
vt 0.000000 0.736111
vt 0.111111 0.722222
vt 0.111111 0.736111
vt 0.000000 0.763889
vt 0.111111 0.750000
vt 0.111111 0.763889
vt 0.000000 0.750000
vt 0.000000 0.777778
vt 0.119048 0.750000
vt 0.126984 0.791667
vt 0.119048 0.791667
vt 0.111111 0.750000
vt 0.111111 0.791667
vt 0.166667 0.750000
vt 0.174603 0.791667
vt 0.166667 0.791667
vt 0.158730 0.750000
vt 0.158730 0.791667
vt 0.150794 0.750000
vt 0.150794 0.791667
vt 0.134921 0.750000
vt 0.142857 0.791667
vt 0.134921 0.791667
vt 0.142857 0.750000
vt 0.126984 0.750000
vt 0.000000 0.791667
vt 0.111111 0.777778
vt 0.111111 0.791667
vt 0.000000 0.805556
vt 0.111111 0.805556
vt 0.000000 0.819444
vt 0.111111 0.819444
vt 0.000000 0.833333
vt 0.111111 0.833333
vt 0.000000 0.736111
vt 0.111111 0.722222
vt 0.111111 0.736111
vt 0.000000 0.763889
vt 0.111111 0.750000
vt 0.111111 0.763889
vt 0.000000 0.750000
vt 0.000000 0.777778
vt 0.119048 0.750000
vt 0.126984 0.791667
vt 0.119048 0.791667
vt 0.111111 0.750000
vt 0.111111 0.791667
vt 0.166667 0.791667
vt 0.174603 0.750000
vt 0.174603 0.791667
vt 0.158730 0.750000
vt 0.158730 0.791667
vt 0.150794 0.750000
vt 0.150794 0.791667
vt 0.134921 0.750000
vt 0.142857 0.791667
vt 0.134921 0.791667
vt 0.142857 0.750000
vt 0.126984 0.750000
vt 0.000000 0.791667
vt 0.111111 0.777778
vt 0.111111 0.791667
vt 0.000000 0.805556
vt 0.111111 0.805556
vt 0.000000 0.819444
vt 0.111111 0.819444
vt 0.000000 0.833333
vt 0.111111 0.833333
vt 0.000000 0.736111
vt 0.111111 0.722222
vt 0.111111 0.736111
vt 0.000000 0.763889
vt 0.111111 0.750000
vt 0.111111 0.763889
vt 0.000000 0.750000
vt 0.000000 0.777778
vt 0.119048 0.750000
vt 0.126984 0.791667
vt 0.119048 0.791667
vt 0.111111 0.750000
vt 0.111111 0.791667
vt 0.166667 0.750000
vt 0.174603 0.791667
vt 0.166667 0.791667
vt 0.158730 0.750000
vt 0.158730 0.791667
vt 0.150794 0.750000
vt 0.150794 0.791667
vt 0.134921 0.750000
vt 0.142857 0.791667
vt 0.134921 0.791667
vt 0.142857 0.750000
vt 0.126984 0.750000
vt 0.000000 0.791667
vt 0.111111 0.777778
vt 0.111111 0.791667
vt 0.000000 0.805556
vt 0.111111 0.805556
vt 0.000000 0.819444
vt 0.111111 0.819444
vt 0.000000 0.833333
vt 0.111111 0.833333
vt 0.000000 0.736111
vt 0.111111 0.722222
vt 0.111111 0.736111
vt 0.000000 0.763889
vt 0.111111 0.750000
vt 0.111111 0.763889
vt 0.000000 0.750000
vt 0.000000 0.777778
vt 0.119048 0.750000
vt 0.126984 0.791667
vt 0.119048 0.791667
vt 0.111111 0.791667
vt 0.166667 0.791667
vt 0.174603 0.750000
vt 0.174603 0.791667
vt 0.158730 0.750000
vt 0.158730 0.791667
vt 0.150794 0.750000
vt 0.150794 0.791667
vt 0.134921 0.750000
vt 0.142857 0.791667
vt 0.134921 0.791667
vt 0.142857 0.750000
vt 0.126984 0.750000
vt 0.571429 0.902778
vt 0.571429 0.486111
vt 0.571429 0.236111
vt 0.571429 0.986111
vt 0.571429 0.569444
vt 0.571429 0.319444
vt 0.571429 0.069444
vt 0.571429 0.652778
vt 0.571429 0.819444
vt 0.571429 0.402778
vt 0.571429 0.152778
vt 0.571429 0.736111
vt 0.246032 0.500000
vt 0.198413 0.500000
vt 0.150794 0.500000
vt 0.103175 0.500000
vt 0.055556 0.500000
vt 0.007937 0.500000
vt 0.531746 0.500000
vt 0.484127 0.500000
vt 0.436508 0.500000
vt 0.000000 0.722222
vt 0.174603 0.750000
vt 0.000000 0.722222
vt 0.166667 0.750000
vt 0.000000 0.722222
vt 0.174603 0.750000
vt 0.000000 0.722222
vt 0.111111 0.750000
vt 0.166667 0.750000
vn 1.0000 0.0000 0.0000
vn -1.0000 0.0000 0.0000
vn 0.0000 -1.0000 0.0000
vn 0.0000 1.0000 0.0000
vn 0.0000 0.0000 1.0000
vn 0.0000 0.0000 -1.0000
vn 0.0000 0.7071 0.7071
vn 0.0000 0.7071 -0.7071
vn 0.0000 -0.7071 -0.7071
vn 0.0000 -0.7071 0.7071
vn 0.0000 0.8660 -0.5000
vn 0.0000 0.5000 -0.8660
vn 0.0000 -0.5000 0.8660
vn 0.0000 0.5000 0.8660
vn 0.0000 0.8660 0.5000
vn 0.0000 -0.8660 -0.5000
vn 0.0000 -0.8660 0.5000
vn 0.0000 -0.5000 -0.8660
vn 0.7071 0.3536 -0.6124
vn 0.7071 0.6124 -0.3536
vn 0.7071 0.7071 0.0000
vn 0.7071 0.6124 0.3536
vn 0.7071 0.3536 0.6124
vn 0.7071 0.0000 0.7071
vn 0.7071 -0.3536 0.6124
vn 0.7071 -0.6124 0.3536
vn 0.7071 -0.7071 0.0000
vn 0.7071 -0.6124 -0.3536
vn 0.7071 -0.3536 -0.6124
vn 0.7071 0.0000 -0.7071
vn -0.7071 0.6124 -0.3536
vn -0.7071 0.3536 -0.6124
vn -0.7071 0.7071 -0.0000
vn -0.7071 0.6124 0.3536
vn -0.7071 0.3536 0.6124
vn -0.7071 0.0000 0.7071
vn -0.7071 -0.3536 0.6124
vn -0.7071 -0.6124 0.3536
vn -0.7071 -0.7071 0.0000
vn -0.7071 -0.6124 -0.3536
vn -0.7071 -0.3536 -0.6124
vn -0.7071 -0.0000 -0.7071

o Breeder
usemtl none
s off
f 477/549/123 498/550/123 476/551/123
f 476/551/123 497/552/123 478/553/123
f 497/554/123 479/555/123 478/553/123
f 496/556/123 480/557/123 479/555/123
f 495/558/123 481/559/123 480/557/123
f 494/560/123 482/561/123 481/559/123
f 482/561/123 492/562/123 483/563/123
f 483/563/123 491/564/123 484/565/123
f 484/565/123 490/566/123 485/567/123
f 485/568/123 489/569/123 486/570/123
f 486/570/123 488/571/123 487/572/123
f 488/573/123 477/549/123 487/572/123
f 470/574/124 517/575/124 469/576/124
f 469/576/124 516/577/124 468/578/124
f 468/578/124 515/579/124 467/580/124
f 467/580/124 514/581/124 466/582/124
f 466/582/124 513/583/124 465/584/124
f 464/585/124 513/586/124 512/587/124
f 475/588/124 512/589/124 523/590/124
f 474/591/124 523/592/124 522/593/124
f 473/594/124 522/595/124 521/596/124
f 472/597/124 521/598/124 520/599/124
f 472/597/124 519/600/124 471/601/124
f 471/601/124 518/602/124 470/574/124
f 542/603/124 553/604/124 541/605/124
f 541/606/124 552/607/124 540/608/124
f 540/609/124 551/610/124 539/611/124
f 539/612/124 550/613/124 538/614/124
f 538/615/124 548/616/124 536/617/124
f 536/618/124 549/619/124 537/620/124
f 537/621/124 559/622/124 547/623/124
f 547/624/124 558/625/124 546/626/124
f 546/627/124 557/628/124 545/629/124
f 545/630/124 556/631/124 544/632/124
f 543/633/124 556/634/124 555/635/124
f 543/636/124 554/637/124 542/638/124
f 525/639/124 526/640/124 560/641/124
f 526/642/124 527/643/124 560/644/124
f 527/645/124 528/646/124 560/647/124
f 528/648/124 529/649/124 560/650/124
f 529/651/124 530/652/124 560/653/124
f 530/654/124 531/655/124 560/656/124
f 531/657/124 532/658/124 560/659/124
f 532/660/124 533/661/124 560/662/124
f 533/663/124 534/664/124 560/665/124
f 534/666/124 535/667/124 560/668/124
f 535/669/124 524/670/124 560/671/124
f 524/672/124 525/673/124 560/674/124
f 566/675/125 567/676/125 568/677/125
f 570/678/126 574/679/126 569/680/126
f 573/681/127 567/682/127 565/683/127
f 619/684/128 623/685/128 620/686/128
f 568/687/128 574/679/128 566/688/128
f 566/675/123 573/681/123 565/689/123
f 567/690/124 569/680/124 568/691/124
f 583/692/123 585/693/123 577/694/123
f 575/695/127 615/696/127 576/697/127
f 613/698/126 563/699/126 616/700/126
f 616/700/124 572/701/124 615/702/124
f 572/703/128 564/704/128 571/705/128
f 614/706/129 616/700/129 615/696/129
f 571/707/123 613/698/123 614/708/123
f 621/709/126 562/710/126 624/711/126
f 624/711/123 618/712/123 623/713/123
f 618/714/127 561/715/127 617/716/127
f 622/717/130 624/711/130 623/685/130
f 617/718/124 621/709/124 622/719/124
f 630/720/127 628/721/127 626/722/127
f 625/723/123 630/720/123 626/722/123
f 631/724/128 625/723/128 627/725/128
f 632/726/124 627/727/124 628/721/124
f 638/728/127 636/729/127 634/730/127
f 633/731/123 638/728/123 634/730/123
f 639/732/128 633/731/128 635/733/128
f 640/734/124 635/735/124 636/729/124
f 646/736/127 644/737/127 642/738/127
f 641/739/123 646/736/123 642/738/123
f 647/740/128 641/739/128 643/741/128
f 648/742/124 643/743/124 644/737/124
f 654/744/127 652/745/127 650/746/127
f 649/747/123 654/744/123 650/746/123
f 655/748/128 649/747/128 651/749/128
f 656/750/124 651/751/124 652/745/124
f 691/752/131 690/753/131 689/754/131
f 699/755/130 698/756/130 697/757/130
f 692/758/123 695/759/123 690/753/123
f 691/752/124 694/760/124 693/761/124
f 691/752/130 696/762/130 692/758/130
f 690/753/132 694/763/132 689/754/132
f 698/756/123 704/764/123 703/765/123
f 697/757/124 701/766/124 699/755/124
f 699/755/129 704/767/129 700/768/129
f 698/756/131 702/769/131 697/757/131
f 707/770/129 706/771/129 705/772/129
f 715/773/132 714/774/132 713/775/132
f 708/776/123 711/777/123 706/771/123
f 707/770/124 710/778/124 709/779/124
f 707/770/132 712/780/132 708/776/132
f 706/771/130 710/781/130 705/772/130
f 716/782/123 719/783/123 714/774/123
f 715/773/124 718/784/124 717/785/124
f 715/773/131 720/786/131 716/782/131
f 714/774/129 718/787/129 713/775/129
f 723/788/128 722/789/128 721/790/128
f 724/791/123 727/792/123 722/789/123
f 721/790/124 725/793/124 723/788/124
f 723/788/126 728/794/126 724/791/126
f 722/789/125 726/795/125 721/790/125
f 731/796/127 730/797/127 729/798/127
f 732/799/123 735/800/123 730/797/123
f 731/796/124 734/801/124 733/802/124
f 731/796/125 736/803/125 732/799/125
f 730/797/126 734/804/126 729/798/126
f 477/549/123 499/805/123 498/550/123
f 476/551/123 498/806/123 497/552/123
f 497/554/123 496/807/123 479/555/123
f 496/556/123 495/808/123 480/557/123
f 495/558/123 494/809/123 481/559/123
f 494/560/123 493/810/123 482/561/123
f 482/561/123 493/811/123 492/562/123
f 483/563/123 492/812/123 491/564/123
f 484/565/123 491/813/123 490/566/123
f 485/568/123 490/814/123 489/569/123
f 486/570/123 489/815/123 488/571/123
f 488/573/123 499/816/123 477/549/123
f 470/574/124 518/817/124 517/575/124
f 469/576/124 517/818/124 516/577/124
f 468/578/124 516/819/124 515/579/124
f 467/580/124 515/820/124 514/581/124
f 466/582/124 514/821/124 513/583/124
f 464/585/124 465/584/124 513/586/124
f 475/588/124 464/585/124 512/589/124
f 474/591/124 475/588/124 523/592/124
f 473/594/124 474/591/124 522/595/124
f 472/597/124 473/822/124 521/598/124
f 472/597/124 520/823/124 519/600/124
f 471/601/124 519/824/124 518/602/124
f 542/603/124 554/825/124 553/604/124
f 541/606/124 553/826/124 552/607/124
f 540/609/124 552/827/124 551/610/124
f 539/612/124 551/828/124 550/613/124
f 538/615/124 550/829/124 548/616/124
f 536/618/124 548/830/124 549/619/124
f 537/621/124 549/831/124 559/622/124
f 547/624/124 559/832/124 558/625/124
f 546/627/124 558/833/124 557/628/124
f 545/630/124 557/834/124 556/631/124
f 543/633/124 544/835/124 556/634/124
f 543/636/124 555/836/124 554/637/124
f 566/675/125 565/689/125 567/676/125
f 570/678/126 573/681/126 574/679/126
f 573/681/127 570/678/127 567/682/127
f 619/684/128 622/717/128 623/685/128
f 568/687/128 569/680/128 574/679/128
f 566/675/123 574/679/123 573/681/123
f 567/690/124 570/678/124 569/680/124
f 577/694/123 578/837/123 579/838/123
f 579/838/123 580/839/123 577/694/123
f 580/839/123 581/840/123 577/694/123
f 581/840/123 582/841/123 583/692/123
f 583/692/123 584/842/123 585/693/123
f 585/693/123 586/843/123 587/844/123
f 587/844/123 588/845/123 585/693/123
f 588/845/123 577/694/123 585/693/123
f 581/840/123 583/692/123 577/694/123
f 575/695/127 614/706/127 615/696/127
f 613/698/126 564/704/126 563/699/126
f 563/699/124 572/701/124 616/700/124
f 572/701/124 576/846/124 615/702/124
f 572/703/128 563/699/128 564/704/128
f 614/706/129 613/698/129 616/700/129
f 614/708/123 575/847/123 571/707/123
f 571/707/123 564/704/123 613/698/123
f 621/709/126 561/715/126 562/710/126
f 562/710/123 618/712/123 624/711/123
f 618/712/123 620/848/123 623/713/123
f 618/714/127 562/710/127 561/715/127
f 622/717/130 621/709/130 624/711/130
f 622/719/124 619/849/124 617/718/124
f 617/718/124 561/715/124 621/709/124
f 630/720/127 632/726/127 628/721/127
f 625/723/123 629/850/123 630/720/123
f 631/724/128 629/850/128 625/723/128
f 632/726/124 631/851/124 627/727/124
f 638/728/127 640/734/127 636/729/127
f 633/731/123 637/852/123 638/728/123
f 639/732/128 637/852/128 633/731/128
f 640/734/124 639/853/124 635/735/124
f 646/736/127 648/742/127 644/737/127
f 641/739/123 645/854/123 646/736/123
f 647/740/128 645/854/128 641/739/128
f 648/742/124 647/855/124 643/743/124
f 654/744/127 656/750/127 652/745/127
f 649/747/123 653/856/123 654/744/123
f 655/748/128 653/856/128 649/747/128
f 656/750/124 655/857/124 651/751/124
f 691/752/131 692/758/131 690/753/131
f 699/755/130 700/768/130 698/756/130
f 692/758/123 696/858/123 695/759/123
f 691/752/124 689/754/124 694/760/124
f 691/752/130 693/859/130 696/762/130
f 690/753/132 695/860/132 694/763/132
f 698/756/123 700/768/123 704/764/123
f 697/757/124 702/861/124 701/766/124
f 699/755/129 701/862/129 704/767/129
f 698/756/131 703/863/131 702/769/131
f 707/770/129 708/776/129 706/771/129
f 715/773/132 716/782/132 714/774/132
f 708/776/123 712/864/123 711/777/123
f 707/770/124 705/772/124 710/778/124
f 707/770/132 709/865/132 712/780/132
f 706/771/130 711/866/130 710/781/130
f 716/782/123 720/867/123 719/783/123
f 715/773/124 713/775/124 718/784/124
f 715/773/131 717/868/131 720/786/131
f 714/774/129 719/869/129 718/787/129
f 723/788/128 724/791/128 722/789/128
f 724/791/123 728/870/123 727/792/123
f 721/790/124 726/871/124 725/793/124
f 723/788/126 725/872/126 728/794/126
f 722/789/125 727/873/125 726/795/125
f 731/796/127 732/799/127 730/797/127
f 732/799/123 736/874/123 735/800/123
f 731/796/124 729/798/124 734/801/124
f 731/796/125 733/875/125 736/803/125
f 730/797/126 735/876/126 734/804/126
s 1
f 468/578/133 481/559/134 469/576/134
f 475/588/135 477/549/127 464/585/127
f 465/584/136 478/553/137 466/582/137
f 472/597/138 485/567/125 473/822/125
f 469/576/134 482/561/128 470/574/128
f 466/582/137 479/555/126 467/580/126
f 473/594/125 486/570/139 474/591/139
f 471/601/140 482/561/128 483/563/140
f 467/580/126 480/557/133 468/578/133
f 474/591/139 487/572/135 475/588/135
f 464/585/127 476/551/136 465/584/136
f 472/597/138 483/563/140 484/565/138
f 489/815/139 500/877/135 488/571/135
f 496/556/126 507/878/133 495/808/133
f 493/811/128 504/879/140 492/562/140
f 490/814/125 501/880/139 489/569/139
f 497/554/137 508/881/126 496/807/126
f 494/560/134 505/882/128 493/810/128
f 491/813/138 502/883/125 490/566/125
f 498/806/136 509/884/137 497/552/137
f 488/573/135 511/885/127 499/816/127
f 495/558/133 506/886/134 494/809/134
f 492/812/140 503/887/138 491/564/138
f 499/805/127 510/888/136 498/550/136
f 531/657/140 556/634/138 532/658/138
f 517/818/135 540/608/139 516/577/139
f 512/589/128 547/623/134 523/590/134
f 530/654/128 555/836/140 531/655/140
f 516/819/139 539/611/125 515/579/125
f 523/592/134 546/626/133 522/593/133
f 529/651/134 554/825/128 530/652/128
f 515/820/125 538/614/138 514/581/138
f 522/595/133 545/629/126 521/596/126
f 528/648/133 553/826/134 529/649/134
f 514/821/138 536/617/140 513/583/140
f 535/669/135 549/831/127 524/670/127
f 524/672/127 548/830/136 525/673/136
f 518/817/127 541/605/135 517/575/135
f 532/660/138 557/834/125 533/661/125
f 525/639/136 550/829/137 526/640/137
f 519/824/136 542/638/127 518/602/127
f 533/663/125 558/833/139 534/664/139
f 526/642/137 551/828/126 527/643/126
f 520/823/137 543/633/136 519/600/136
f 534/666/139 559/832/135 535/667/135
f 513/586/140 537/620/128 512/587/128
f 527/645/126 552/827/133 528/646/133
f 521/598/126 544/632/137 520/599/137
f 590/889/141 579/890/142 578/891/141
f 591/892/142 580/893/143 579/894/142
f 592/895/143 581/896/144 580/897/143
f 581/898/144 594/899/145 582/900/145
f 582/901/145 595/902/146 583/903/146
f 595/902/146 584/904/147 583/905/146
f 584/906/147 597/907/148 585/908/148
f 585/909/148 598/910/149 586/911/149
f 586/912/149 599/913/150 587/914/150
f 599/913/150 588/915/151 587/916/150
f 600/917/151 577/918/152 588/919/151
f 589/920/152 578/921/141 577/922/152
f 592/895/126 605/923/137 593/924/137
f 599/913/138 612/925/140 600/917/140
f 589/920/128 602/926/134 590/889/134
f 596/927/135 609/928/139 597/907/139
f 593/924/137 606/929/136 594/899/136
f 600/917/140 601/930/128 589/920/128
f 590/889/134 603/931/133 591/892/133
f 597/907/139 610/932/125 598/910/125
f 594/899/136 607/933/127 595/902/127
f 591/892/133 604/934/126 592/895/126
f 598/935/125 611/936/138 599/913/138
f 595/902/127 608/937/135 596/927/135
f 507/938/153 602/926/154 506/939/154
f 508/940/155 603/931/153 507/941/153
f 508/942/155 605/923/156 604/934/155
f 509/943/156 606/929/157 605/923/156
f 510/944/157 607/933/158 606/929/157
f 511/945/158 608/937/159 607/933/158
f 500/946/159 609/928/160 608/937/159
f 501/947/160 610/932/161 609/928/160
f 502/948/161 611/936/162 610/949/161
f 503/950/162 612/925/163 611/936/162
f 504/951/163 601/930/164 612/925/163
f 506/952/154 601/930/164 505/953/164
f 672/954/155 658/955/126 671/956/155
f 670/957/124 671/956/155 669/958/124
f 668/959/161 669/958/124 667/960/161
f 666/961/125 667/960/161 665/962/125
f 664/963/149 665/964/125 663/965/149
f 660/966/143 661/967/123 659/968/143
f 662/969/123 663/965/149 661/967/123
f 657/970/126 659/968/143 658/955/126
f 688/971/158 674/972/127 687/973/158
f 686/974/124 687/973/158 685/975/124
f 684/976/164 685/977/124 683/978/164
f 682/979/128 683/978/164 681/980/128
f 680/981/152 681/980/128 679/982/152
f 676/983/146 677/984/123 675/985/146
f 678/986/123 679/982/152 677/984/123
f 673/987/127 675/985/146 674/972/127
f 752/988/155 738/989/126 751/990/155
f 750/991/124 751/990/155 749/992/124
f 748/993/161 749/992/124 747/994/161
f 746/995/125 747/994/161 745/996/125
f 744/997/149 745/998/125 743/999/149
f 740/1000/143 741/1001/123 739/1002/143
f 742/1003/123 743/999/149 741/1001/123
f 737/1004/126 739/1002/143 738/989/126
f 768/1005/158 754/1006/127 767/1007/158
f 766/1008/124 767/1007/158 765/1009/124
f 763/1010/164 766/1011/124 765/1012/124
f 762/1013/128 763/1010/164 761/1014/128
f 760/1015/152 761/1014/128 759/1016/152
f 756/1017/146 757/1018/123 755/1019/146
f 758/1020/123 759/1016/152 757/1018/123
f 753/1021/127 755/1019/146 754/1006/127
f 784/1022/155 770/1023/126 783/1024/155
f 782/1025/124 783/1024/155 781/1026/124
f 780/1027/161 781/1026/124 779/1028/161
f 778/1029/125 779/1028/161 777/1030/125
f 776/1031/149 777/1032/125 775/1033/149
f 772/1034/143 773/1035/123 771/1036/143
f 774/1037/123 775/1033/149 773/1035/123
f 769/1038/126 771/1036/143 770/1023/126
f 800/1039/158 786/1040/127 799/1041/158
f 798/1042/124 799/1041/158 797/1043/124
f 796/1044/164 797/1045/124 795/1046/164
f 794/1047/128 795/1046/164 793/1048/128
f 792/1049/152 793/1048/128 791/1050/152
f 788/1051/146 789/1052/123 787/1053/146
f 790/1054/123 791/1050/152 789/1052/123
f 785/1055/127 787/1053/146 786/1040/127
f 816/1056/155 802/1057/126 815/1058/155
f 814/1059/124 815/1058/155 813/1060/124
f 812/1061/161 813/1060/124 811/1062/161
f 810/1063/125 811/1062/161 809/1064/125
f 808/1065/149 809/1066/125 807/1067/149
f 804/1068/143 805/1069/123 803/1070/143
f 806/1071/123 807/1067/149 805/1069/123
f 801/1072/126 803/1070/143 802/1057/126
f 832/1073/158 818/1074/127 831/1075/158
f 829/1076/124 832/1073/158 831/1075/158
f 827/1077/164 830/1078/124 829/1079/124
f 826/1080/128 827/1077/164 825/1081/128
f 824/1082/152 825/1081/128 823/1083/152
f 820/1084/146 821/1085/123 819/1086/146
f 822/1087/123 823/1083/152 821/1085/123
f 817/1088/127 819/1086/146 818/1074/127
f 468/578/133 480/557/133 481/559/134
f 475/588/135 487/572/135 477/549/127
f 465/584/136 476/551/136 478/553/137
f 472/597/138 484/565/138 485/567/125
f 469/576/134 481/559/134 482/561/128
f 466/582/137 478/553/137 479/555/126
f 473/594/125 485/568/125 486/570/139
f 471/601/140 470/574/128 482/561/128
f 467/580/126 479/555/126 480/557/133
f 474/591/139 486/570/139 487/572/135
f 464/585/127 477/549/127 476/551/136
f 472/597/138 471/601/140 483/563/140
f 489/815/139 501/1089/139 500/877/135
f 496/556/126 508/1090/126 507/878/133
f 493/811/128 505/1091/128 504/879/140
f 490/814/125 502/1092/125 501/880/139
f 497/554/137 509/1093/137 508/881/126
f 494/560/134 506/1094/134 505/882/128
f 491/813/138 503/1095/138 502/883/125
f 498/806/136 510/1096/136 509/884/137
f 488/573/135 500/1097/135 511/885/127
f 495/558/133 507/1098/133 506/886/134
f 492/812/140 504/1099/140 503/887/138
f 499/805/127 511/1100/127 510/888/136
f 531/657/140 555/635/140 556/634/138
f 517/818/135 541/606/135 540/608/139
f 512/589/128 537/621/128 547/623/134
f 530/654/128 554/637/128 555/836/140
f 516/819/139 540/609/139 539/611/125
f 523/592/134 547/624/134 546/626/133
f 529/651/134 553/604/134 554/825/128
f 515/820/125 539/612/125 538/614/138
f 522/595/133 546/627/133 545/629/126
f 528/648/133 552/607/133 553/826/134
f 514/821/138 538/615/138 536/617/140
f 535/669/135 559/622/135 549/831/127
f 524/672/127 549/619/127 548/830/136
f 518/817/127 542/603/127 541/605/135
f 532/660/138 556/631/138 557/834/125
f 525/639/136 548/616/136 550/829/137
f 519/824/136 543/636/136 542/638/127
f 533/663/125 557/628/125 558/833/139
f 526/642/137 550/613/137 551/828/126
f 520/823/137 544/835/137 543/633/136
f 534/666/139 558/625/139 559/832/135
f 513/586/140 536/618/140 537/620/128
f 527/645/126 551/610/126 552/827/133
f 521/598/126 545/630/126 544/632/137
f 590/889/141 591/892/142 579/890/142
f 591/892/142 592/895/143 580/893/143
f 592/895/143 593/924/144 581/896/144
f 581/898/144 593/924/144 594/899/145
f 582/901/145 594/899/145 595/902/146
f 595/902/146 596/927/147 584/904/147
f 584/906/147 596/927/147 597/907/148
f 585/909/148 597/907/148 598/910/149
f 586/912/149 598/935/149 599/913/150
f 599/913/150 600/917/151 588/915/151
f 600/917/151 589/920/152 577/918/152
f 589/920/152 590/889/141 578/921/141
f 592/895/126 604/934/126 605/923/137
f 599/913/138 611/936/138 612/925/140
f 589/920/128 601/930/128 602/926/134
f 596/927/135 608/937/135 609/928/139
f 593/924/137 605/923/137 606/929/136
f 600/917/140 612/925/140 601/930/128
f 590/889/134 602/926/134 603/931/133
f 597/907/139 609/928/139 610/932/125
f 594/899/136 606/929/136 607/933/127
f 591/892/133 603/931/133 604/934/126
f 598/935/125 610/949/125 611/936/138
f 595/902/127 607/933/127 608/937/135
f 507/938/153 603/931/153 602/926/154
f 508/940/155 604/934/155 603/931/153
f 508/942/155 509/1101/156 605/923/156
f 509/943/156 510/1102/157 606/929/157
f 510/944/157 511/1103/158 607/933/158
f 511/945/158 500/1104/159 608/937/159
f 500/946/159 501/1105/160 609/928/160
f 501/947/160 502/1106/161 610/932/161
f 502/948/161 503/1107/162 611/936/162
f 503/950/162 504/1108/163 612/925/163
f 504/951/163 505/1109/164 601/930/164
f 506/952/154 602/926/154 601/930/164
f 672/954/155 657/970/126 658/955/126
f 670/957/124 672/954/155 671/956/155
f 668/959/161 670/957/124 669/958/124
f 666/961/125 668/959/161 667/960/161
f 664/963/149 666/1110/125 665/964/125
f 660/966/143 662/969/123 661/967/123
f 662/969/123 664/963/149 663/965/149
f 657/970/126 660/966/143 659/968/143
f 688/971/158 673/987/127 674/972/127
f 686/974/124 688/971/158 687/973/158
f 684/976/164 686/1111/124 685/977/124
f 682/979/128 684/976/164 683/978/164
f 680/981/152 682/979/128 681/980/128
f 676/983/146 678/986/123 677/984/123
f 678/986/123 680/981/152 679/982/152
f 673/987/127 676/983/146 675/985/146
f 752/988/155 737/1004/126 738/989/126
f 750/991/124 752/988/155 751/990/155
f 748/993/161 750/991/124 749/992/124
f 746/995/125 748/993/161 747/994/161
f 744/997/149 746/1112/125 745/998/125
f 740/1000/143 742/1003/123 741/1001/123
f 742/1003/123 744/997/149 743/999/149
f 737/1004/126 740/1000/143 739/1002/143
f 768/1005/158 753/1021/127 754/1006/127
f 766/1008/124 768/1005/158 767/1007/158
f 763/1010/164 764/1113/164 766/1011/124
f 762/1013/128 764/1113/164 763/1010/164
f 760/1015/152 762/1013/128 761/1014/128
f 756/1017/146 758/1020/123 757/1018/123
f 758/1020/123 760/1015/152 759/1016/152
f 753/1021/127 756/1017/146 755/1019/146
f 784/1022/155 769/1038/126 770/1023/126
f 782/1025/124 784/1022/155 783/1024/155
f 780/1027/161 782/1025/124 781/1026/124
f 778/1029/125 780/1027/161 779/1028/161
f 776/1031/149 778/1114/125 777/1032/125
f 772/1034/143 774/1037/123 773/1035/123
f 774/1037/123 776/1031/149 775/1033/149
f 769/1038/126 772/1034/143 771/1036/143
f 800/1039/158 785/1055/127 786/1040/127
f 798/1042/124 800/1039/158 799/1041/158
f 796/1044/164 798/1115/124 797/1045/124
f 794/1047/128 796/1044/164 795/1046/164
f 792/1049/152 794/1047/128 793/1048/128
f 788/1051/146 790/1054/123 789/1052/123
f 790/1054/123 792/1049/152 791/1050/152
f 785/1055/127 788/1051/146 787/1053/146
f 816/1056/155 801/1072/126 802/1057/126
f 814/1059/124 816/1056/155 815/1058/155
f 812/1061/161 814/1059/124 813/1060/124
f 810/1063/125 812/1061/161 811/1062/161
f 808/1065/149 810/1116/125 809/1066/125
f 804/1068/143 806/1071/123 805/1069/123
f 806/1071/123 808/1065/149 807/1067/149
f 801/1072/126 804/1068/143 803/1070/143
f 832/1073/158 817/1088/127 818/1074/127
f 829/1076/124 830/1117/124 832/1073/158
f 827/1077/164 828/1118/164 830/1078/124
f 826/1080/128 828/1118/164 827/1077/164
f 824/1082/152 826/1080/128 825/1081/128
f 820/1084/146 822/1087/123 821/1085/123
f 822/1087/123 824/1082/152 823/1083/152
f 817/1088/127 820/1084/146 819/1086/146
