# Split from HBM 1.7.10 mixer.obj
mtllib ../mixer.mtl
usemtl mixer
o Fluid
v 0.000000 2.500000 -0.301419
v 0.212905 1.000000 -0.213135
v 0.000000 1.000000 -0.301419
v 0.212905 2.500000 -0.213135
v 0.301094 1.000000 0.000000
v 0.301094 2.500000 0.000000
v 0.212905 1.000000 0.213135
v 0.212905 2.500000 0.213135
v 0.000000 1.000000 0.301419
v 0.000000 2.500000 0.301419
v -0.212906 1.000000 0.213135
v -0.212906 2.500000 0.213135
v -0.301094 1.000000 0.000000
v -0.301094 2.500000 0.000000
v -0.212906 1.000000 -0.213135
v -0.212906 2.500000 -0.213135
v 0.000000 2.500000 -0.301419
v 0.212905 2.500000 -0.213135
v 0.301094 2.500000 0.000000
v 0.212905 2.500000 0.213135
v 0.000000 2.500000 0.301419
v -0.212906 2.500000 0.213135
v -0.301094 2.500000 0.000000
v -0.212906 2.500000 -0.213135
vt 0.000000 0.000000
vt 1.000000 0.000000
vt 1.000000 1.000000
vt 0.000000 0.000000
vt 1.000000 0.000000
vt 0.000000 0.000000
vt 1.000000 0.000000
vt 1.000000 1.000000
vt 1.000000 0.000000
vt 1.000000 1.000000
vt 0.000000 0.000000
vt 1.000000 0.000000
vt 1.000000 1.000000
vt 1.000000 0.000000
vt 0.000000 0.000000
vt 1.000000 0.000000
vt 1.000000 1.000000
vt 0.000000 0.000000
vt 1.000000 0.000000
vt 1.000000 1.000000
vt 0.000000 0.000000
vt 1.000000 0.000000
vt 1.000000 1.000000
vt 0.000000 0.000000
vt 1.000000 0.000000
vt 1.000000 1.000000
vt 0.000000 0.000000
vt 1.000000 0.000000
vt 1.000000 1.000000
vt 0.000000 0.000000
vt 1.000000 0.000000
vt 1.000000 1.000000
vt 0.000000 0.000000
vt 1.000000 0.000000
vt 1.000000 1.000000
vt 0.000000 0.000000
vt 1.000000 0.000000
vt 1.000000 1.000000
vt 1.000000 0.000000
vt 1.000000 0.000000
vt 1.000000 0.000000
vt 1.000000 0.000000
vt 1.000000 0.000000
vt 1.000000 0.000000
vt 1.000000 0.000000
vt 1.000000 0.000000
vn 0.0000 1.0000 0.0000
vn 0.0000 0.0000 -1.0000
vn 0.7074 0.0000 -0.7068
vn 1.0000 0.0000 0.0000
vn 0.7074 -0.0000 0.7068
vn 0.0000 -0.0000 1.0000
vn -0.7074 -0.0000 0.7068
vn -1.0000 -0.0000 0.0000
vn -0.7074 0.0000 -0.7068
s off
f 23/1/1 21/2/1 17/3/1
f 19/4/1 18/5/1 17/3/1
f 17/6/1 24/7/1 23/8/1
f 23/1/1 22/9/1 21/10/1
f 21/11/1 20/12/1 19/13/1
f 19/4/1 17/14/1 21/10/1
s 1
f 1/15/2 2/16/3 3/15/2
f 4/17/3 5/18/4 2/19/3
f 6/20/4 7/21/5 5/22/4
f 8/23/5 9/24/6 7/25/5
f 10/26/6 11/27/7 9/28/6
f 12/29/7 13/30/8 11/31/7
f 14/32/8 15/33/9 13/34/8
f 16/35/9 3/36/2 15/37/9
f 1/15/2 4/38/3 2/19/3
f 4/17/3 6/39/4 5/22/4
f 6/20/4 8/40/5 7/25/5
f 8/23/5 10/41/6 9/28/6
f 10/26/6 12/42/7 11/31/7
f 12/29/7 14/43/8 13/34/8
f 14/32/8 16/44/9 15/37/9
f 16/35/9 1/45/2 3/15/2
