# Split from HBM 1.7.10 mixer.obj
mtllib ../mixer.mtl
usemtl mixer
o Mixer
v 0.281250 1.001012 0.000000
v -0.281250 2.499874 0.000000
v -0.281250 1.001012 0.000000
v 0.000000 1.001012 0.281250
v 0.000000 2.499874 -0.281250
v 0.000000 1.001012 -0.281250
v 0.281250 2.499874 0.000000
v 0.000000 2.499874 0.281250
vt 0.824074 0.309091
vt 0.740741 0.745455
vt 0.740741 0.309091
vt 0.824074 0.309091
vt 0.740741 0.745455
vt 0.740741 0.309091
vt 0.824074 0.745455
vt 0.824074 0.745455
vn 0.0000 -0.0000 1.0000
vn -1.0000 0.0000 0.0000
s off
f 1/1/1 2/2/1 3/3/1
f 4/4/2 5/5/2 6/6/2
f 1/1/1 7/7/1 2/2/1
f 4/4/2 8/8/2 5/5/2
