mtllib ../ore_slopper.mtl
# generated from ore_slopper.obj object Hydraulics
v 1.125000 3.562500 1.437500
v 1.375000 3.562500 1.437500
v 1.125000 3.562500 1.187500
v 1.375000 3.562500 1.187500
v 1.375000 5.562500 1.187500
v 1.125000 5.562500 1.187500
v 1.375000 5.562500 1.437500
v 1.125000 5.562500 1.437500
v 1.125000 5.562500 2.937500
v 1.375000 5.562500 2.937500
v 1.125000 5.562500 2.687500
v 1.375000 5.562500 2.687500
v 1.375000 3.562500 2.687500
v 1.125000 3.562500 2.687500
v 1.375000 3.562500 2.937500
v 1.125000 3.562500 2.937500
v -1.437500 3.312500 1.500000
v -1.062500 3.312500 1.500000
v -1.437500 3.312500 1.125000
v -1.062500 3.312500 1.125000
v -1.062500 3.562500 1.125000
v -1.437500 3.562500 1.125000
v -1.062500 3.562500 1.500000
v -1.437500 3.562500 1.500000
v -1.437500 3.562500 3.000000
v -1.062500 3.562500 3.000000
v -1.437500 3.562500 2.625000
v -1.062500 3.562500 2.625000
v -1.062500 3.312500 2.625000
v -1.437500 3.312500 2.625000
v -1.062500 3.312500 3.000000
v -1.437500 3.312500 3.000000
v 1.062500 3.312500 3.000000
v 1.437500 3.312500 3.000000
v 1.062500 3.312500 2.625000
v 1.437500 3.312500 2.625000
v 1.437500 3.562500 2.625000
v 1.062500 3.562500 2.625000
v 1.437500 3.562500 3.000000
v 1.062500 3.562500 3.000000
v 1.062500 3.562500 1.500000
v 1.437500 3.562500 1.500000
v 1.062500 3.562500 1.125000
v 1.437500 3.562500 1.125000
v 1.437500 3.312500 1.125000
v 1.062500 3.312500 1.125000
v 1.437500 3.312500 1.500000
v 1.062500 3.312500 1.500000
v -1.375000 3.562500 1.437500
v -1.125000 3.562500 1.437500
v -1.375000 3.562500 1.187500
v -1.125000 3.562500 1.187500
v -1.125000 5.562500 1.187500
v -1.375000 5.562500 1.187500
v -1.125000 5.562500 1.437500
v -1.375000 5.562500 1.437500
v -1.375000 5.562500 2.937500
v -1.125000 5.562500 2.937500
v -1.375000 5.562500 2.687500
v -1.125000 5.562500 2.687500
v -1.125000 3.562500 2.687500
v -1.375000 3.562500 2.687500
v -1.125000 3.562500 2.937500
v -1.375000 3.562500 2.937500
v 1.375000 5.562500 1.187500
v 1.375000 5.562500 1.437500
v -1.375000 5.562500 1.187500
v -1.375000 5.562500 1.437500
v 1.125000 5.812500 1.437500
v 1.125000 5.812500 1.187500
v -1.125000 5.812500 1.187500
v -1.125000 5.812500 1.437500
v 1.375000 5.562500 2.937500
v 1.375000 5.562500 2.687500
v -1.375000 5.562500 2.937500
v -1.375000 5.562500 2.687500
v 1.125000 5.812500 2.937500
v 1.125000 5.812500 2.687500
v -1.125000 5.812500 2.687500
v -1.125000 5.812500 2.937500
v -1.000000 5.562500 3.062500
v 1.000000 5.562500 3.062500
v -1.000000 5.562500 1.062500
v 1.000000 5.562500 1.062500
v -1.000000 4.562500 1.062500
v -1.000000 4.562500 3.062500
v 1.000000 4.562500 3.062500
v 1.000000 4.562500 1.062500
v 0.500000 4.312500 1.562500
v -0.500000 4.312500 1.562500
v -0.500000 4.312500 2.562500
v 0.500000 4.312500 2.562500
v -0.750000 4.312500 1.312500
v -0.750000 4.312500 2.812500
v 0.750000 4.312500 2.812500
v 0.750000 4.312500 1.312500
v -0.500000 4.812500 1.562500
v -0.500000 4.812500 2.562500
v 0.500000 4.812500 2.562500
v 0.500000 4.812500 1.562500
v 1.187500 4.000000 2.687500
v 1.187500 4.125000 2.687500
v 1.187500 4.000000 1.437500
v 1.187500 4.125000 1.437500
v 1.312500 4.000000 2.687500
v 1.312500 4.125000 2.687500
v 1.312500 4.000000 1.437500
v 1.312500 4.125000 1.437500
v -1.312500 4.000000 2.687500
v -1.312500 4.125000 2.687500
v -1.312500 4.000000 1.437500
v -1.312500 4.125000 1.437500
v -1.187500 4.000000 2.687500
v -1.187500 4.125000 2.687500
v -1.187500 4.000000 1.437500
v -1.187500 4.125000 1.437500
vt 0.512195 0.461538
vt 0.500000 0.256410
vt 0.512195 0.256410
vt 0.536585 0.461538
vt 0.524390 0.256410
vt 0.536585 0.256410
vt 0.524390 0.461538
vt 0.500000 0.461538
vt 0.487805 0.256410
vt 0.658537 0.256410
vt 0.676829 0.294872
vt 0.658537 0.294872
vt 0.676829 0.320513
vt 0.658537 0.358974
vt 0.658537 0.320513
vt 0.713415 0.294872
vt 0.695122 0.320513
vt 0.695122 0.294872
vt 0.731707 0.294872
vt 0.713415 0.320513
vt 0.695122 0.294872
vt 0.676829 0.320513
vt 0.676829 0.294872
vt 0.731707 0.294872
vt 0.713415 0.320513
vt 0.713415 0.294872
vt 0.695122 0.320513
vt 0.658537 0.320513
vt 0.658537 0.294872
vt 0.658537 0.358974
vt 0.658537 0.256410
vt 0.658537 0.256410
vt 0.676829 0.294872
vt 0.658537 0.294872
vt 0.676829 0.320513
vt 0.658537 0.358974
vt 0.658537 0.320513
vt 0.713415 0.294872
vt 0.695122 0.320513
vt 0.695122 0.294872
vt 0.731707 0.294872
vt 0.713415 0.320513
vt 0.695122 0.294872
vt 0.676829 0.320513
vt 0.676829 0.294872
vt 0.731707 0.294872
vt 0.713415 0.320513
vt 0.713415 0.294872
vt 0.695122 0.320513
vt 0.658537 0.320513
vt 0.658537 0.294872
vt 0.658537 0.358974
vt 0.658537 0.256410
vt 0.512195 0.461538
vt 0.500000 0.256410
vt 0.512195 0.256410
vt 0.536585 0.461538
vt 0.524390 0.256410
vt 0.536585 0.256410
vt 0.524390 0.461538
vt 0.500000 0.461538
vt 0.487805 0.256410
vt 0.512195 0.461538
vt 0.500000 0.256410
vt 0.512195 0.256410
vt 0.536585 0.461538
vt 0.524390 0.256410
vt 0.536585 0.256410
vt 0.524390 0.461538
vt 0.500000 0.461538
vt 0.487805 0.256410
vt 0.512195 0.461538
vt 0.500000 0.256410
vt 0.512195 0.256410
vt 0.536585 0.461538
vt 0.524390 0.256410
vt 0.536585 0.256410
vt 0.524390 0.461538
vt 0.500000 0.461538
vt 0.487805 0.256410
vt 0.274390 0.692308
vt 0.408537 0.717949
vt 0.274390 0.717949
vt 0.396341 0.743590
vt 0.286585 0.769231
vt 0.286585 0.743590
vt 0.408537 0.769231
vt 0.408537 0.743590
vt 0.274390 0.794872
vt 0.396341 0.769231
vt 0.408537 0.794872
vt 0.274390 0.743590
vt 0.274390 0.769231
vt 0.274390 0.692308
vt 0.408537 0.717949
vt 0.274390 0.717949
vt 0.396341 0.743590
vt 0.286585 0.769231
vt 0.286585 0.743590
vt 0.274390 0.794872
vt 0.396341 0.769231
vt 0.408537 0.794872
vt 0.274390 0.743590
vt 0.274390 0.769231
vt 0.408537 0.769231
vt 0.408537 0.743590
vt 0.512195 0.794872
vt 0.414634 1.000000
vt 0.414634 0.794872
vt 0.609756 0.692308
vt 0.707317 0.794872
vt 0.609756 0.794872
vt 0.414634 0.692308
vt 0.512195 0.692308
vt 0.707317 0.692308
vt 0.804878 0.794872
vt 0.439024 0.641026
vt 0.487805 0.589744
vt 0.487805 0.641026
vt 0.792683 0.666667
vt 0.804878 0.692308
vt 0.597561 0.666667
vt 0.500000 0.666667
vt 0.695122 0.666667
vt 0.780488 0.641026
vt 0.719512 0.666667
vt 0.731707 0.641026
vt 0.585366 0.641026
vt 0.524390 0.666667
vt 0.536585 0.641026
vt 0.426829 0.666667
vt 0.682927 0.641026
vt 0.621951 0.666667
vt 0.634146 0.641026
vt 0.487805 0.487179
vt 0.439024 0.589744
vt 0.439024 0.487179
vt 0.780488 0.589744
vt 0.682927 0.589744
vt 0.585366 0.589744
vt 0.725610 0.448718
vt 0.731707 0.320513
vt 0.731707 0.448718
vt 0.719512 0.320513
vt 0.713415 0.448718
vt 0.713415 0.320513
vt 0.719512 0.320513
vt 0.713415 0.448718
vt 0.713415 0.320513
vt 0.725610 0.448718
vt 0.731707 0.320513
vt 0.731707 0.448718
vt 0.707317 0.448718
vt 0.707317 0.320513
vt 0.725610 0.320513
vt 0.719512 0.448718
vt 0.707317 0.448718
vt 0.707317 0.320513
vt 0.725610 0.320513
vt 0.719512 0.448718
vt 0.487805 0.461538
vt 0.676829 0.256410
vt 0.676829 0.358974
vt 0.731707 0.320513
vt 0.731707 0.320513
vt 0.676829 0.358974
vt 0.676829 0.256410
vt 0.676829 0.256410
vt 0.676829 0.358974
vt 0.731707 0.320513
vt 0.731707 0.320513
vt 0.676829 0.358974
vt 0.676829 0.256410
vt 0.487805 0.461538
vt 0.487805 0.461538
vt 0.487805 0.461538
vt 0.408537 0.692308
vt 0.408537 0.692308
vt 0.512195 1.000000
vt 0.731707 0.589744
vt 0.634146 0.589744
vt 0.536585 0.589744
vn 1.0000 0.0000 0.0000
vn -1.0000 0.0000 0.0000
vn 0.0000 0.0000 -1.0000
vn 0.0000 0.0000 1.0000
vn 0.0000 -1.0000 0.0000
vn 0.0000 1.0000 0.0000
vn -0.7071 0.7071 0.0000
vn 0.7071 0.7071 0.0000
vn -0.7071 -0.7071 0.0000
vn 0.7071 -0.7071 0.0000
vn 0.0000 -0.7071 0.7071
vn 0.0000 -0.7071 -0.7071
v -0.750000 4.312500 2.812500
v -0.500000 4.312500 2.812500
v -0.750000 4.312500 2.562500
v -0.500000 4.312500 2.562500
v -0.750000 5.562500 2.562500
v -0.750000 5.562500 2.812500
v -0.500000 5.562500 2.812500
v -0.500000 5.562500 2.562500
v -0.750000 4.312500 1.562500
v -0.500000 4.312500 1.562500
v -0.750000 4.312500 1.312500
v -0.500000 4.312500 1.312500
v -0.750000 5.562500 1.312500
v -0.750000 5.562500 1.562500
v -0.500000 5.562500 1.562500
v -0.500000 5.562500 1.312500
v 0.500000 4.312500 2.812500
v 0.750000 4.312500 2.812500
v 0.500000 4.312500 2.562500
v 0.750000 4.312500 2.562500
v 0.500000 5.562500 2.562500
v 0.500000 5.562500 2.812500
v 0.750000 5.562500 2.812500
v 0.750000 5.562500 2.562500
v 0.500000 4.312500 1.562500
v 0.750000 4.312500 1.562500
v 0.500000 4.312500 1.312500
v 0.750000 4.312500 1.312500
v 0.500000 5.562500 1.312500
v 0.500000 5.562500 1.562500
v 0.750000 5.562500 1.562500
v 0.750000 5.562500 1.312500
vt 0.768293 0.230769
vt 0.780488 0.256410
vt 0.768293 0.256410
vt 0.768293 0.230769
vt 0.780488 0.256410
vt 0.768293 0.256410
vt 0.817073 0.256410
vt 0.804878 0.384615
vt 0.804878 0.256410
vt 0.792683 0.384615
vt 0.792683 0.256410
vt 0.768293 0.384615
vt 0.780488 0.384615
vt 0.817073 0.256410
vt 0.804878 0.384615
vt 0.804878 0.256410
vt 0.792683 0.384615
vt 0.792683 0.256410
vt 0.768293 0.384615
vt 0.780488 0.384615
vt 0.768293 0.230769
vt 0.780488 0.256410
vt 0.768293 0.256410
vt 0.768293 0.230769
vt 0.780488 0.256410
vt 0.768293 0.256410
vt 0.817073 0.256410
vt 0.804878 0.384615
vt 0.804878 0.256410
vt 0.792683 0.384615
vt 0.792683 0.256410
vt 0.768293 0.384615
vt 0.780488 0.384615
vt 0.817073 0.256410
vt 0.804878 0.384615
vt 0.804878 0.256410
vt 0.792683 0.384615
vt 0.792683 0.256410
vt 0.768293 0.384615
vt 0.780488 0.384615
vt 0.780488 0.230769
vt 0.780488 0.230769
vt 0.817073 0.384615
vt 0.817073 0.384615
vt 0.780488 0.230769
vt 0.780488 0.230769
vt 0.817073 0.384615
vt 0.817073 0.384615
vn 0.0000 -1.0000 0.0000
vn -1.0000 0.0000 0.0000
vn 0.0000 0.0000 -1.0000
vn 0.0000 0.0000 1.0000
vn 1.0000 0.0000 0.0000
v -0.500000 4.062500 1.562500
v -0.500000 4.062500 2.562500
v 0.500000 4.062500 2.562500
v 0.500000 4.062500 1.562500
v 0.750000 4.312500 1.312500
v -0.750000 4.312500 1.312500
v -0.750000 4.312500 2.812500
v 0.750000 4.312500 2.812500
v 0.250000 4.187500 1.812500
v -0.250000 4.187500 1.812500
v -0.250000 4.187500 2.312500
v 0.250000 4.187500 2.312500
v -0.750000 4.562500 1.312500
v -0.750000 4.562500 2.812500
v 0.750000 4.562500 2.812500
v 0.750000 4.562500 1.312500
v -0.687500 4.312500 2.750000
v -0.562500 4.312500 2.750000
v -0.687500 4.312500 2.625000
v -0.562500 4.312500 2.625000
v -0.687500 5.562500 2.750000
v -0.562500 5.562500 2.750000
v -0.687500 5.562500 2.625000
v -0.562500 5.562500 2.625000
v 0.562500 4.312500 2.750000
v 0.687500 4.312500 2.750000
v 0.562500 4.312500 2.625000
v 0.687500 4.312500 2.625000
v 0.562500 5.562500 2.750000
v 0.687500 5.562500 2.750000
v 0.562500 5.562500 2.625000
v 0.687500 5.562500 2.625000
v -0.687500 4.312500 1.500000
v -0.562500 4.312500 1.500000
v -0.687500 4.312500 1.375000
v -0.562500 4.312500 1.375000
v -0.687500 5.562500 1.500000
v -0.562500 5.562500 1.500000
v -0.687500 5.562500 1.375000
v -0.562500 5.562500 1.375000
v 0.562500 4.312500 1.500000
v 0.687500 4.312500 1.500000
v 0.562500 4.312500 1.375000
v 0.687500 4.312500 1.375000
v 0.562500 5.562500 1.500000
v 0.687500 5.562500 1.500000
v 0.562500 5.562500 1.375000
v 0.687500 5.562500 1.375000
vt 0.829268 0.410256
vt 0.890244 0.384615
vt 0.902439 0.410256
vt 0.841463 0.282051
vt 0.890244 0.282051
vt 0.902439 0.256410
vt 0.829268 0.256410
vt 0.841463 0.384615
vt 0.902439 0.230769
vt 0.914634 0.410256
vt 0.829268 0.435897
vt 0.817073 0.256410
vt 0.878049 0.538462
vt 0.853659 0.487179
vt 0.878049 0.487179
vt 0.902439 0.589744
vt 0.853659 0.538462
vt 0.829268 0.589744
vt 0.902439 0.435897
vt 0.762195 0.230769
vt 0.756098 0.358974
vt 0.756098 0.230769
vt 0.750000 0.230769
vt 0.743902 0.358974
vt 0.743902 0.230769
vt 0.762195 0.230769
vt 0.756098 0.358974
vt 0.756098 0.230769
vt 0.750000 0.230769
vt 0.743902 0.358974
vt 0.743902 0.230769
vt 0.750000 0.358974
vt 0.768293 0.230769
vt 0.762195 0.358974
vt 0.750000 0.358974
vt 0.768293 0.230769
vt 0.762195 0.358974
vt 0.762195 0.230769
vt 0.756098 0.358974
vt 0.756098 0.230769
vt 0.750000 0.230769
vt 0.743902 0.358974
vt 0.743902 0.230769
vt 0.762195 0.230769
vt 0.756098 0.358974
vt 0.756098 0.230769
vt 0.750000 0.230769
vt 0.743902 0.358974
vt 0.743902 0.230769
vt 0.750000 0.358974
vt 0.768293 0.230769
vt 0.762195 0.358974
vt 0.750000 0.358974
vt 0.768293 0.230769
vt 0.762195 0.358974
vt 0.829268 0.230769
vt 0.914634 0.256410
vt 0.817073 0.410256
vt 0.768293 0.358974
vt 0.768293 0.358974
vt 0.768293 0.358974
vt 0.768293 0.358974
vn 0.0000 -0.7071 -0.7071
vn 0.0000 -1.0000 0.0000
vn 0.0000 -0.7071 0.7071
vn 0.7071 -0.7071 0.0000
vn -0.7071 -0.7071 0.0000
vn 0.0000 0.0000 1.0000
vn -1.0000 0.0000 0.0000
vn 0.0000 0.0000 -1.0000
vn 1.0000 0.0000 0.0000
vn 0.0000 1.0000 0.0000
vn 0.6000 0.8000 0.0000
vn -0.6000 0.8000 0.0000
vn 0.0000 0.8000 -0.6000
vn 0.0000 0.8000 0.6000
v -0.375000 3.187500 0.000000
v -0.156250 3.128886 0.000000
v 0.003886 2.968750 0.000000
v 0.062500 2.750000 0.000000
v 0.003886 2.531250 0.000000
v -0.156250 2.371114 0.000000
v -0.375000 2.312500 0.000000
v -0.593750 2.371114 0.000000
v -0.753886 2.531250 0.000000
v -0.812500 2.750000 0.000000
v -0.753886 2.968750 0.000000
v -0.593750 3.128886 0.000000
v -0.375000 3.062500 -0.250000
v -0.218750 3.020633 -0.250000
v -0.104367 2.906250 -0.250000
v -0.062500 2.750000 -0.250000
v -0.104367 2.593750 -0.250000
v -0.218750 2.479367 -0.250000
v -0.375000 2.437500 -0.250000
v -0.531250 2.479367 -0.250000
v -0.645633 2.593750 -0.250000
v -0.687500 2.750000 -0.250000
v -0.645633 2.906250 -0.250000
v -0.531250 3.020633 -0.250000
v -0.375000 3.187500 -0.250000
v -0.156250 3.128886 -0.250000
v 0.003886 2.968750 -0.250000
v 0.062500 2.750000 -0.250000
v 0.003886 2.531250 -0.250000
v -0.156250 2.371114 -0.250000
v -0.375000 2.312500 -0.250000
v -0.593750 2.371114 -0.250000
v -0.753886 2.531250 -0.250000
v -0.812500 2.750000 -0.250000
v -0.753886 2.968750 -0.250000
v -0.593750 3.128886 -0.250000
v -0.375000 3.062500 -0.500000
v -0.218750 3.020633 -0.500000
v -0.104367 2.906250 -0.500000
v -0.062500 2.750000 -0.500000
v -0.104367 2.593750 -0.500000
v -0.218750 2.479367 -0.500000
v -0.375000 2.437500 -0.500000
v -0.531250 2.479367 -0.500000
v -0.645633 2.593750 -0.500000
v -0.687500 2.750000 -0.500000
v -0.645633 2.906250 -0.500000
v -0.531250 3.020633 -0.500000
v -0.375000 3.187500 -1.500000
v -0.156250 3.128886 -1.500000
v 0.003886 2.968750 -1.500000
v 0.062500 2.750000 -1.500000
v 0.003886 2.531250 -1.500000
v -0.156250 2.371114 -1.500000
v -0.375000 2.312500 -1.500000
v -0.593750 2.371114 -1.500000
v -0.753886 2.531250 -1.500000
v -0.812500 2.750000 -1.500000
v -0.753886 2.968750 -1.500000
v -0.593750 3.128886 -1.500000
v -0.375000 3.062500 -1.750000
v -0.218750 3.020633 -1.750000
v -0.104367 2.906250 -1.750000
v -0.062500 2.750000 -1.750000
v -0.104367 2.593750 -1.750000
v -0.218750 2.479367 -1.750000
v -0.375000 2.437500 -1.750000
v -0.531250 2.479367 -1.750000
v -0.645633 2.593750 -1.750000
v -0.687500 2.750000 -1.750000
v -0.645633 2.906250 -1.750000
v -0.531250 3.020633 -1.750000
v -0.375000 3.187500 -1.750000
v -0.156250 3.128886 -1.750000
v 0.003886 2.968750 -1.750000
v 0.062500 2.750000 -1.750000
v 0.003886 2.531250 -1.750000
v -0.156250 2.371114 -1.750000
v -0.375000 2.312500 -1.750000
v -0.593750 2.371114 -1.750000
v -0.753886 2.531250 -1.750000
v -0.812500 2.750000 -1.750000
v -0.753886 2.968750 -1.750000
v -0.593750 3.128886 -1.750000
v -0.375000 3.062500 -2.000000
v -0.218750 3.020633 -2.000000
v -0.104367 2.906250 -2.000000
v -0.062500 2.750000 -2.000000
v -0.104367 2.593750 -2.000000
v -0.218750 2.479367 -2.000000
v -0.375000 2.437500 -2.000000
v -0.531250 2.479367 -2.000000
v -0.645633 2.593750 -2.000000
v -0.687500 2.750000 -2.000000
v -0.645633 2.906250 -2.000000
v -0.531250 3.020633 -2.000000
v -0.531250 3.020633 -1.500000
v -0.645633 2.906250 -1.500000
v -0.687500 2.750000 -1.500000
v -0.645633 2.593750 -1.500000
v -0.531250 2.479367 -1.500000
v -0.375000 2.437500 -1.500000
v -0.218750 2.479367 -1.500000
v -0.104367 2.593750 -1.500000
v -0.062500 2.750000 -1.500000
v -0.104367 2.906250 -1.500000
v -0.218750 3.020633 -1.500000
v -0.375000 3.062500 -1.500000
v -0.593750 3.128886 -1.250000
v -0.753886 2.968750 -1.250000
v -0.812500 2.750000 -1.250000
v -0.753886 2.531250 -1.250000
v -0.593750 2.371114 -1.250000
v -0.375000 2.312500 -1.250000
v -0.156250 2.371114 -1.250000
v 0.003886 2.531250 -1.250000
v 0.062500 2.750000 -1.250000
v 0.003886 2.968750 -1.250000
v -0.156250 3.128886 -1.250000
v -0.375000 3.187500 -1.250000
v -0.531250 3.020633 -1.250000
v -0.645633 2.906250 -1.250000
v -0.687500 2.750000 -1.250000
v -0.645633 2.593750 -1.250000
v -0.531250 2.479367 -1.250000
v -0.375000 2.437500 -1.250000
v -0.218750 2.479367 -1.250000
v -0.104367 2.593750 -1.250000
v -0.062500 2.750000 -1.250000
v -0.104367 2.906250 -1.250000
v -0.218750 3.020633 -1.250000
v -0.375000 3.062500 -1.250000
v -0.593750 3.128886 -1.000000
v -0.753886 2.968750 -1.000000
v -0.812500 2.750000 -1.000000
v -0.753886 2.531250 -1.000000
v -0.593750 2.371114 -1.000000
v -0.375000 2.312500 -1.000000
v -0.156250 2.371114 -1.000000
v 0.003886 2.531250 -1.000000
v 0.062500 2.750000 -1.000000
v 0.003886 2.968750 -1.000000
v -0.156250 3.128886 -1.000000
v -0.375000 3.187500 -1.000000
v -0.531250 3.020633 -1.000000
v -0.645633 2.906250 -1.000000
v -0.687500 2.750000 -1.000000
v -0.645633 2.593750 -1.000000
v -0.531250 2.479367 -1.000000
v -0.375000 2.437500 -1.000000
v -0.218750 2.479367 -1.000000
v -0.104367 2.593750 -1.000000
v -0.062500 2.750000 -1.000000
v -0.104367 2.906250 -1.000000
v -0.218750 3.020633 -1.000000
v -0.375000 3.062500 -1.000000
v -0.593750 3.128886 -0.750000
v -0.753886 2.968750 -0.750000
v -0.812500 2.750000 -0.750000
v -0.753886 2.531250 -0.750000
v -0.593750 2.371114 -0.750000
v -0.375000 2.312500 -0.750000
v -0.156250 2.371114 -0.750000
v 0.003886 2.531250 -0.750000
v 0.062500 2.750000 -0.750000
v 0.003886 2.968750 -0.750000
v -0.156250 3.128886 -0.750000
v -0.375000 3.187500 -0.750000
v -0.531250 3.020633 -0.750000
v -0.645633 2.906250 -0.750000
v -0.687500 2.750000 -0.750000
v -0.645633 2.593750 -0.750000
v -0.531250 2.479367 -0.750000
v -0.375000 2.437500 -0.750000
v -0.218750 2.479367 -0.750000
v -0.104367 2.593750 -0.750000
v -0.062500 2.750000 -0.750000
v -0.104367 2.906250 -0.750000
v -0.218750 3.020633 -0.750000
v -0.375000 3.062500 -0.750000
v -0.593750 3.128886 -0.500000
v -0.753886 2.968750 -0.500000
v -0.812500 2.750000 -0.500000
v -0.753886 2.531250 -0.500000
v -0.593750 2.371114 -0.500000
v -0.375000 2.312500 -0.500000
v -0.156250 2.371114 -0.500000
v 0.003886 2.531250 -0.500000
v 0.062500 2.750000 -0.500000
v 0.003886 2.968750 -0.500000
v -0.156250 3.128886 -0.500000
v -0.375000 3.187500 -0.500000
vt 0.051829 0.846154
vt 0.060976 0.833333
vt 0.057927 0.846154
vt 0.070122 0.846154
vt 0.064024 0.846154
vt 0.076220 0.846154
vt 0.085366 0.833333
vt 0.082317 0.846154
vt 0.088415 0.846154
vt 0.097561 0.833333
vt 0.094512 0.846154
vt 0.106707 0.846154
vt 0.100610 0.846154
vt 0.112805 0.846154
vt 0.121951 0.833333
vt 0.118902 0.846154
vt 0.125000 0.846154
vt 0.134146 0.833333
vt 0.131098 0.846154
vt 0.143293 0.846154
vt 0.137195 0.846154
vt 0.003049 0.846154
vt 0.012195 0.833333
vt 0.009146 0.846154
vt 0.015244 0.846154
vt 0.024390 0.833333
vt 0.021341 0.846154
vt 0.033537 0.846154
vt 0.027439 0.846154
vt 0.036585 0.833333
vt 0.045732 0.846154
vt 0.039634 0.846154
vt 0.051829 0.846154
vt 0.060976 0.833333
vt 0.057927 0.846154
vt 0.070122 0.846154
vt 0.064024 0.846154
vt 0.076220 0.846154
vt 0.085366 0.833333
vt 0.082317 0.846154
vt 0.088415 0.846154
vt 0.097561 0.833333
vt 0.094512 0.846154
vt 0.106707 0.846154
vt 0.100610 0.846154
vt 0.112805 0.846154
vt 0.121951 0.833333
vt 0.118902 0.846154
vt 0.125000 0.846154
vt 0.134146 0.833333
vt 0.131098 0.846154
vt 0.143293 0.846154
vt 0.137195 0.846154
vt 0.003049 0.846154
vt 0.012195 0.833333
vt 0.009146 0.846154
vt 0.015244 0.846154
vt 0.024390 0.833333
vt 0.021341 0.846154
vt 0.033537 0.846154
vt 0.027439 0.846154
vt 0.036585 0.833333
vt 0.045732 0.846154
vt 0.039634 0.846154
vt 0.057927 0.794872
vt 0.048780 0.807692
vt 0.051829 0.794872
vt 0.070122 0.794872
vt 0.060976 0.807692
vt 0.064024 0.794872
vt 0.076220 0.794872
vt 0.085366 0.807692
vt 0.073171 0.807692
vt 0.094512 0.794872
vt 0.088415 0.794872
vt 0.106707 0.794872
vt 0.097561 0.807692
vt 0.100610 0.794872
vt 0.112805 0.794872
vt 0.121951 0.807692
vt 0.109756 0.807692
vt 0.125000 0.794872
vt 0.134146 0.807692
vt 0.143293 0.794872
vt 0.137195 0.794872
vt 0.003049 0.794872
vt 0.012195 0.807692
vt 0.000000 0.807692
vt 0.015244 0.794872
vt 0.024390 0.807692
vt 0.033537 0.794872
vt 0.027439 0.794872
vt 0.045732 0.794872
vt 0.036585 0.807692
vt 0.039634 0.794872
vt 0.036585 0.833333
vt 0.045732 0.846154
vt 0.039634 0.846154
vt 0.024390 0.833333
vt 0.033537 0.846154
vt 0.027439 0.846154
vt 0.015244 0.846154
vt 0.021341 0.846154
vt 0.003049 0.846154
vt 0.012195 0.833333
vt 0.009146 0.846154
vt 0.134146 0.833333
vt 0.143293 0.846154
vt 0.137195 0.846154
vt 0.125000 0.846154
vt 0.131098 0.846154
vt 0.112805 0.846154
vt 0.121951 0.833333
vt 0.118902 0.846154
vt 0.097561 0.833333
vt 0.106707 0.846154
vt 0.100610 0.846154
vt 0.088415 0.846154
vt 0.094512 0.846154
vt 0.076220 0.846154
vt 0.085366 0.833333
vt 0.082317 0.846154
vt 0.060976 0.833333
vt 0.070122 0.846154
vt 0.064024 0.846154
vt 0.051829 0.846154
vt 0.057927 0.846154
vt 0.045732 0.794872
vt 0.036585 0.807692
vt 0.039634 0.794872
vt 0.033537 0.794872
vt 0.024390 0.807692
vt 0.027439 0.794872
vt 0.021341 0.794872
vt 0.012195 0.807692
vt 0.015244 0.794872
vt 0.003049 0.794872
vt 0.000000 0.807692
vt 0.143293 0.794872
vt 0.134146 0.807692
vt 0.137195 0.794872
vt 0.131098 0.794872
vt 0.121951 0.807692
vt 0.125000 0.794872
vt 0.112805 0.794872
vt 0.109756 0.807692
vt 0.106707 0.794872
vt 0.097561 0.807692
vt 0.100610 0.794872
vt 0.088415 0.794872
vt 0.085366 0.807692
vt 0.076220 0.794872
vt 0.073171 0.807692
vt 0.070122 0.794872
vt 0.060976 0.807692
vt 0.064024 0.794872
vt 0.051829 0.794872
vt 0.048780 0.807692
vt 0.036585 0.833333
vt 0.045732 0.846154
vt 0.039634 0.846154
vt 0.024390 0.833333
vt 0.033537 0.846154
vt 0.027439 0.846154
vt 0.015244 0.846154
vt 0.021341 0.846154
vt 0.003049 0.846154
vt 0.012195 0.833333
vt 0.009146 0.846154
vt 0.134146 0.833333
vt 0.143293 0.846154
vt 0.137195 0.846154
vt 0.125000 0.846154
vt 0.131098 0.846154
vt 0.112805 0.846154
vt 0.121951 0.833333
vt 0.118902 0.846154
vt 0.097561 0.833333
vt 0.106707 0.846154
vt 0.100610 0.846154
vt 0.088415 0.846154
vt 0.094512 0.846154
vt 0.076220 0.846154
vt 0.085366 0.833333
vt 0.082317 0.846154
vt 0.060976 0.833333
vt 0.070122 0.846154
vt 0.064024 0.846154
vt 0.051829 0.846154
vt 0.057927 0.846154
vt 0.036585 0.807692
vt 0.045732 0.794872
vt 0.048780 0.807692
vt 0.024390 0.807692
vt 0.033537 0.794872
vt 0.015244 0.794872
vt 0.012195 0.807692
vt 0.003049 0.794872
vt 0.000000 0.807692
vt 0.134146 0.807692
vt 0.143293 0.794872
vt 0.146341 0.807692
vt 0.125000 0.794872
vt 0.121951 0.807692
vt 0.112805 0.794872
vt 0.109756 0.807692
vt 0.097561 0.807692
vt 0.106707 0.794872
vt 0.088415 0.794872
vt 0.085366 0.807692
vt 0.076220 0.794872
vt 0.073171 0.807692
vt 0.060976 0.807692
vt 0.070122 0.794872
vt 0.051829 0.794872
vt 0.048780 0.833333
vt 0.073171 0.833333
vt 0.109756 0.833333
vt 0.146341 0.833333
vt -0.000000 0.833333
vt 0.048780 0.833333
vt 0.073171 0.833333
vt 0.109756 0.833333
vt 0.146341 0.833333
vt 0.000000 0.833333
vt 0.082317 0.794872
vt 0.118902 0.794872
vt 0.131098 0.794872
vt 0.146341 0.807692
vt 0.009146 0.794872
vt 0.021341 0.794872
vt 0.048780 0.833333
vt 0.000000 0.833333
vt 0.146341 0.833333
vt 0.109756 0.833333
vt 0.073171 0.833333
vt 0.009146 0.794872
vt 0.146341 0.807692
vt 0.118902 0.794872
vt 0.094512 0.794872
vt 0.082317 0.794872
vt 0.057927 0.794872
vt 0.048780 0.833333
vt 0.000000 0.833333
vt 0.146341 0.833333
vt 0.109756 0.833333
vt 0.073171 0.833333
vt 0.039634 0.794872
vt 0.027439 0.794872
vt 0.021341 0.794872
vt 0.009146 0.794872
vt 0.137195 0.794872
vt 0.131098 0.794872
vt 0.118902 0.794872
vt 0.100610 0.794872
vt 0.094512 0.794872
vt 0.082317 0.794872
vt 0.064024 0.794872
vt 0.057927 0.794872
vt 0.134146 0.807692
vt 0.121951 0.807692
vt 0.060976 0.807692
vt 0.085366 0.807692
vt 0.036585 0.807692
vt 0.024390 0.807692
vt 0.097561 0.807692
vt 0.048780 0.807692
vt 0.012195 0.807692
vt -0.000000 0.807692
vt 0.109756 0.807692
vt 0.073171 0.807692
vt 0.106707 0.871795
vt 0.100610 0.871795
vt 0.039634 0.871795
vt 0.003049 0.871795
vt 0.112805 0.871795
vt 0.057927 0.871795
vt 0.051829 0.871795
vt 0.076220 0.871795
vt 0.015244 0.871795
vt 0.125000 0.871795
vt 0.070122 0.871795
vt 0.064024 0.871795
vt 0.088415 0.871795
vt 0.027439 0.871795
vt 0.137195 0.871795
vt 0.100610 0.871795
vt 0.039634 0.871795
vt 0.003049 0.871795
vt 0.112805 0.871795
vt 0.051829 0.871795
vt 0.082317 0.871795
vt 0.076220 0.871795
vt 0.015244 0.871795
vt 0.125000 0.871795
vt 0.064024 0.871795
vt 0.088415 0.871795
vt 0.027439 0.871795
vt 0.137195 0.871795
vt 0.137195 0.871795
vt 0.027439 0.871795
vt 0.088415 0.871795
vt 0.070122 0.871795
vt 0.064024 0.871795
vt 0.125000 0.871795
vt 0.015244 0.871795
vt 0.076220 0.871795
vt 0.051829 0.871795
vt 0.112805 0.871795
vt 0.003049 0.871795
vt 0.039634 0.871795
vt 0.100610 0.871795
vt 0.137195 0.871795
vt 0.027439 0.871795
vt 0.088415 0.871795
vt 0.070122 0.871795
vt 0.064024 0.871795
vt 0.125000 0.871795
vt 0.015244 0.871795
vt 0.076220 0.871795
vt 0.051829 0.871795
vt 0.112805 0.871795
vt 0.003049 0.871795
vt 0.039634 0.871795
vt 0.100610 0.871795
vt 0.146341 0.807692
vt 0.045732 0.871795
vt 0.009146 0.871795
vt 0.118902 0.871795
vt 0.082317 0.871795
vt 0.021341 0.871795
vt 0.131098 0.871795
vt 0.094512 0.871795
vt 0.033537 0.871795
vt 0.143293 0.871795
vt 0.106707 0.871795
vt 0.045732 0.871795
vt 0.009146 0.871795
vt 0.118902 0.871795
vt 0.057927 0.871795
vt 0.021341 0.871795
vt 0.131098 0.871795
vt 0.070122 0.871795
vt 0.094512 0.871795
vt 0.033537 0.871795
vt 0.143293 0.871795
vt 0.143293 0.871795
vt 0.033537 0.871795
vt 0.094512 0.871795
vt 0.131098 0.871795
vt 0.021341 0.871795
vt 0.082317 0.871795
vt 0.057927 0.871795
vt 0.118902 0.871795
vt 0.009146 0.871795
vt 0.045732 0.871795
vt 0.106707 0.871795
vt 0.143293 0.871795
vt 0.033537 0.871795
vt 0.094512 0.871795
vt 0.131098 0.871795
vt 0.021341 0.871795
vt 0.082317 0.871795
vt 0.057927 0.871795
vt 0.118902 0.871795
vt 0.009146 0.871795
vt 0.045732 0.871795
vt 0.106707 0.871795
vn 0.0000 0.0000 -1.0000
vn 0.0000 0.0000 1.0000
vn 0.5000 -0.8660 0.0000
vn 0.8660 -0.5000 -0.0000
vn -0.5000 0.8660 -0.0000
vn -0.0000 1.0000 -0.0000
vn 0.5000 0.8660 -0.0000
vn 0.8660 0.5000 -0.0000
vn -1.0000 -0.0000 0.0000
vn -0.8660 -0.5000 0.0000
vn -0.0000 -1.0000 -0.0000
vn 1.0000 0.0000 -0.0000
vn -0.8660 0.5000 0.0000
vn -0.5000 -0.8660 0.0000
v 0.375000 3.187500 -2.000000
v 0.156250 3.128886 -2.000000
v -0.003886 2.968750 -2.000000
v -0.062500 2.750000 -2.000000
v -0.003886 2.531250 -2.000000
v 0.156250 2.371114 -2.000000
v 0.375000 2.312500 -2.000000
v 0.593750 2.371114 -2.000000
v 0.753886 2.531250 -2.000000
v 0.812500 2.750000 -2.000000
v 0.753886 2.968750 -2.000000
v 0.593750 3.128886 -2.000000
v 0.375000 3.062500 -1.750000
v 0.218750 3.020633 -1.750000
v 0.104367 2.906250 -1.750000
v 0.062500 2.750000 -1.750000
v 0.104367 2.593750 -1.750000
v 0.218750 2.479367 -1.750000
v 0.375000 2.437500 -1.750000
v 0.531250 2.479367 -1.750000
v 0.645633 2.593750 -1.750000
v 0.687500 2.750000 -1.750000
v 0.645633 2.906250 -1.750000
v 0.531250 3.020633 -1.750000
v 0.375000 3.187500 -1.750000
v 0.156250 3.128886 -1.750000
v -0.003886 2.968750 -1.750000
v -0.062500 2.750000 -1.750000
v -0.003886 2.531250 -1.750000
v 0.156250 2.371114 -1.750000
v 0.375000 2.312500 -1.750000
v 0.593750 2.371114 -1.750000
v 0.753886 2.531250 -1.750000
v 0.812500 2.750000 -1.750000
v 0.753886 2.968750 -1.750000
v 0.593750 3.128886 -1.750000
v 0.375000 3.062500 -1.500000
v 0.218750 3.020633 -1.500000
v 0.104367 2.906250 -1.500000
v 0.062500 2.750000 -1.500000
v 0.104367 2.593750 -1.500000
v 0.218750 2.479367 -1.500000
v 0.375000 2.437500 -1.500000
v 0.531250 2.479367 -1.500000
v 0.645633 2.593750 -1.500000
v 0.687500 2.750000 -1.500000
v 0.645633 2.906250 -1.500000
v 0.531250 3.020633 -1.500000
v 0.375000 3.187500 -0.500000
v 0.156250 3.128886 -0.500000
v -0.003886 2.968750 -0.500000
v -0.062500 2.750000 -0.500000
v -0.003886 2.531250 -0.500000
v 0.156250 2.371114 -0.500000
v 0.375000 2.312500 -0.500000
v 0.593750 2.371114 -0.500000
v 0.753886 2.531250 -0.500000
v 0.812500 2.750000 -0.500000
v 0.753886 2.968750 -0.500000
v 0.593750 3.128886 -0.500000
v 0.375000 3.062500 -0.250000
v 0.218750 3.020633 -0.250000
v 0.104367 2.906250 -0.250000
v 0.062500 2.750000 -0.250000
v 0.104367 2.593750 -0.250000
v 0.218750 2.479367 -0.250000
v 0.375000 2.437500 -0.250000
v 0.531250 2.479367 -0.250000
v 0.645633 2.593750 -0.250000
v 0.687500 2.750000 -0.250000
v 0.645633 2.906250 -0.250000
v 0.531250 3.020633 -0.250000
v 0.375000 3.187500 -0.250000
v 0.156250 3.128886 -0.250000
v -0.003886 2.968750 -0.250000
v -0.062500 2.750000 -0.250000
v -0.003886 2.531250 -0.250000
v 0.156250 2.371114 -0.250000
v 0.375000 2.312500 -0.250000
v 0.593750 2.371114 -0.250000
v 0.753886 2.531250 -0.250000
v 0.812500 2.750000 -0.250000
v 0.753886 2.968750 -0.250000
v 0.593750 3.128886 -0.250000
v 0.375000 3.062500 0.000000
v 0.218750 3.020633 0.000000
v 0.104367 2.906250 0.000000
v 0.062500 2.750000 0.000000
v 0.104367 2.593750 0.000000
v 0.218750 2.479367 0.000000
v 0.375000 2.437500 0.000000
v 0.531250 2.479367 0.000000
v 0.645633 2.593750 0.000000
v 0.687500 2.750000 0.000000
v 0.645633 2.906250 0.000000
v 0.531250 3.020633 0.000000
v 0.531250 3.020633 -0.500000
v 0.645633 2.906250 -0.500000
v 0.687500 2.750000 -0.500000
v 0.645633 2.593750 -0.500000
v 0.531250 2.479367 -0.500000
v 0.375000 2.437500 -0.500000
v 0.218750 2.479367 -0.500000
v 0.104367 2.593750 -0.500000
v 0.062500 2.750000 -0.500000
v 0.104367 2.906250 -0.500000
v 0.218750 3.020633 -0.500000
v 0.375000 3.062500 -0.500000
v 0.593750 3.128886 -0.750000
v 0.753886 2.968750 -0.750000
v 0.812500 2.750000 -0.750000
v 0.753886 2.531250 -0.750000
v 0.593750 2.371114 -0.750000
v 0.375000 2.312500 -0.750000
v 0.156250 2.371114 -0.750000
v -0.003886 2.531250 -0.750000
v -0.062500 2.750000 -0.750000
v -0.003886 2.968750 -0.750000
v 0.156250 3.128886 -0.750000
v 0.375000 3.187500 -0.750000
v 0.531250 3.020633 -0.750000
v 0.645633 2.906250 -0.750000
v 0.687500 2.750000 -0.750000
v 0.645633 2.593750 -0.750000
v 0.531250 2.479367 -0.750000
v 0.375000 2.437500 -0.750000
v 0.218750 2.479367 -0.750000
v 0.104367 2.593750 -0.750000
v 0.062500 2.750000 -0.750000
v 0.104367 2.906250 -0.750000
v 0.218750 3.020633 -0.750000
v 0.375000 3.062500 -0.750000
v 0.593750 3.128886 -1.000000
v 0.753886 2.968750 -1.000000
v 0.812500 2.750000 -1.000000
v 0.753886 2.531250 -1.000000
v 0.593750 2.371114 -1.000000
v 0.375000 2.312500 -1.000000
v 0.156250 2.371114 -1.000000
v -0.003886 2.531250 -1.000000
v -0.062500 2.750000 -1.000000
v -0.003886 2.968750 -1.000000
v 0.156250 3.128886 -1.000000
v 0.375000 3.187500 -1.000000
v 0.531250 3.020633 -1.000000
v 0.645633 2.906250 -1.000000
v 0.687500 2.750000 -1.000000
v 0.645633 2.593750 -1.000000
v 0.531250 2.479367 -1.000000
v 0.375000 2.437500 -1.000000
v 0.218750 2.479367 -1.000000
v 0.104367 2.593750 -1.000000
v 0.062500 2.750000 -1.000000
v 0.104367 2.906250 -1.000000
v 0.218750 3.020633 -1.000000
v 0.375000 3.062500 -1.000000
v 0.593750 3.128886 -1.250000
v 0.753886 2.968750 -1.250000
v 0.812500 2.750000 -1.250000
v 0.753886 2.531250 -1.250000
v 0.593750 2.371114 -1.250000
v 0.375000 2.312500 -1.250000
v 0.156250 2.371114 -1.250000
v -0.003886 2.531250 -1.250000
v -0.062500 2.750000 -1.250000
v -0.003886 2.968750 -1.250000
v 0.156250 3.128886 -1.250000
v 0.375000 3.187500 -1.250000
v 0.531250 3.020633 -1.250000
v 0.645633 2.906250 -1.250000
v 0.687500 2.750000 -1.250000
v 0.645633 2.593750 -1.250000
v 0.531250 2.479367 -1.250000
v 0.375000 2.437500 -1.250000
v 0.218750 2.479367 -1.250000
v 0.104367 2.593750 -1.250000
v 0.062500 2.750000 -1.250000
v 0.104367 2.906250 -1.250000
v 0.218750 3.020633 -1.250000
v 0.375000 3.062500 -1.250000
v 0.593750 3.128886 -1.500000
v 0.753886 2.968750 -1.500000
v 0.812500 2.750000 -1.500000
v 0.753886 2.531250 -1.500000
v 0.593750 2.371114 -1.500000
v 0.375000 2.312500 -1.500000
v 0.156250 2.371114 -1.500000
v -0.003886 2.531250 -1.500000
v -0.062500 2.750000 -1.500000
v -0.003886 2.968750 -1.500000
v 0.156250 3.128886 -1.500000
v 0.375000 3.187500 -1.500000
vt 0.051829 0.846154
vt 0.060976 0.833333
vt 0.057927 0.846154
vt 0.070122 0.846154
vt 0.064024 0.846154
vt 0.076220 0.846154
vt 0.085366 0.833333
vt 0.082317 0.846154
vt 0.088415 0.846154
vt 0.097561 0.833333
vt 0.094512 0.846154
vt 0.106707 0.846154
vt 0.100610 0.846154
vt 0.112805 0.846154
vt 0.121951 0.833333
vt 0.118902 0.846154
vt 0.125000 0.846154
vt 0.134146 0.833333
vt 0.131098 0.846154
vt 0.143293 0.846154
vt 0.137195 0.846154
vt 0.003049 0.846154
vt 0.012195 0.833333
vt 0.009146 0.846154
vt 0.015244 0.846154
vt 0.024390 0.833333
vt 0.021341 0.846154
vt 0.033537 0.846154
vt 0.027439 0.846154
vt 0.036585 0.833333
vt 0.045732 0.846154
vt 0.039634 0.846154
vt 0.051829 0.846154
vt 0.060976 0.833333
vt 0.057927 0.846154
vt 0.070122 0.846154
vt 0.064024 0.846154
vt 0.076220 0.846154
vt 0.085366 0.833333
vt 0.082317 0.846154
vt 0.088415 0.846154
vt 0.097561 0.833333
vt 0.094512 0.846154
vt 0.106707 0.846154
vt 0.100610 0.846154
vt 0.112805 0.846154
vt 0.121951 0.833333
vt 0.118902 0.846154
vt 0.125000 0.846154
vt 0.134146 0.833333
vt 0.131098 0.846154
vt 0.143293 0.846154
vt 0.137195 0.846154
vt 0.003049 0.846154
vt 0.012195 0.833333
vt 0.009146 0.846154
vt 0.015244 0.846154
vt 0.024390 0.833333
vt 0.021341 0.846154
vt 0.033537 0.846154
vt 0.027439 0.846154
vt 0.036585 0.833333
vt 0.045732 0.846154
vt 0.039634 0.846154
vt 0.057927 0.794872
vt 0.048780 0.807692
vt 0.051829 0.794872
vt 0.070122 0.794872
vt 0.060976 0.807692
vt 0.064024 0.794872
vt 0.076220 0.794872
vt 0.085366 0.807692
vt 0.073171 0.807692
vt 0.094512 0.794872
vt 0.088415 0.794872
vt 0.106707 0.794872
vt 0.097561 0.807692
vt 0.100610 0.794872
vt 0.112805 0.794872
vt 0.121951 0.807692
vt 0.109756 0.807692
vt 0.131098 0.794872
vt 0.125000 0.794872
vt 0.143293 0.794872
vt 0.134146 0.807692
vt 0.137195 0.794872
vt 0.003049 0.794872
vt 0.012195 0.807692
vt 0.000000 0.807692
vt 0.021341 0.794872
vt 0.015244 0.794872
vt 0.033537 0.794872
vt 0.024390 0.807692
vt 0.027439 0.794872
vt 0.045732 0.794872
vt 0.036585 0.807692
vt 0.039634 0.794872
vt 0.036585 0.833333
vt 0.045732 0.846154
vt 0.039634 0.846154
vt 0.024390 0.833333
vt 0.033537 0.846154
vt 0.027439 0.846154
vt 0.015244 0.846154
vt 0.021341 0.846154
vt 0.003049 0.846154
vt 0.012195 0.833333
vt 0.009146 0.846154
vt 0.134146 0.833333
vt 0.143293 0.846154
vt 0.137195 0.846154
vt 0.125000 0.846154
vt 0.131098 0.846154
vt 0.112805 0.846154
vt 0.121951 0.833333
vt 0.118902 0.846154
vt 0.097561 0.833333
vt 0.106707 0.846154
vt 0.100610 0.846154
vt 0.088415 0.846154
vt 0.094512 0.846154
vt 0.076220 0.846154
vt 0.085366 0.833333
vt 0.082317 0.846154
vt 0.060976 0.833333
vt 0.070122 0.846154
vt 0.064024 0.846154
vt 0.051829 0.846154
vt 0.057927 0.846154
vt 0.045732 0.794872
vt 0.036585 0.807692
vt 0.039634 0.794872
vt 0.033537 0.794872
vt 0.024390 0.807692
vt 0.027439 0.794872
vt 0.021341 0.794872
vt 0.012195 0.807692
vt 0.015244 0.794872
vt 0.003049 0.794872
vt 0.000000 0.807692
vt 0.143293 0.794872
vt 0.134146 0.807692
vt 0.137195 0.794872
vt 0.131098 0.794872
vt 0.121951 0.807692
vt 0.125000 0.794872
vt 0.112805 0.794872
vt 0.109756 0.807692
vt 0.106707 0.794872
vt 0.097561 0.807692
vt 0.100610 0.794872
vt 0.094512 0.794872
vt 0.085366 0.807692
vt 0.088415 0.794872
vt 0.076220 0.794872
vt 0.073171 0.807692
vt 0.070122 0.794872
vt 0.060976 0.807692
vt 0.064024 0.794872
vt 0.057927 0.794872
vt 0.048780 0.807692
vt 0.051829 0.794872
vt 0.036585 0.833333
vt 0.045732 0.846154
vt 0.039634 0.846154
vt 0.024390 0.833333
vt 0.033537 0.846154
vt 0.027439 0.846154
vt 0.015244 0.846154
vt 0.021341 0.846154
vt 0.003049 0.846154
vt 0.012195 0.833333
vt 0.009146 0.846154
vt 0.134146 0.833333
vt 0.143293 0.846154
vt 0.137195 0.846154
vt 0.125000 0.846154
vt 0.131098 0.846154
vt 0.112805 0.846154
vt 0.121951 0.833333
vt 0.118902 0.846154
vt 0.097561 0.833333
vt 0.106707 0.846154
vt 0.100610 0.846154
vt 0.088415 0.846154
vt 0.094512 0.846154
vt 0.076220 0.846154
vt 0.085366 0.833333
vt 0.082317 0.846154
vt 0.060976 0.833333
vt 0.070122 0.846154
vt 0.064024 0.846154
vt 0.051829 0.846154
vt 0.057927 0.846154
vt 0.036585 0.807692
vt 0.045732 0.794872
vt 0.048780 0.807692
vt 0.024390 0.807692
vt 0.033537 0.794872
vt 0.015244 0.794872
vt 0.012195 0.807692
vt 0.003049 0.794872
vt 0.000000 0.807692
vt 0.134146 0.807692
vt 0.143293 0.794872
vt 0.146341 0.807692
vt 0.125000 0.794872
vt 0.121951 0.807692
vt 0.112805 0.794872
vt 0.109756 0.807692
vt 0.097561 0.807692
vt 0.106707 0.794872
vt 0.088415 0.794872
vt 0.085366 0.807692
vt 0.076220 0.794872
vt 0.073171 0.807692
vt 0.060976 0.807692
vt 0.070122 0.794872
vt 0.051829 0.794872
vt 0.048780 0.833333
vt 0.073171 0.833333
vt 0.109756 0.833333
vt 0.146341 0.833333
vt -0.000000 0.833333
vt 0.048780 0.833333
vt 0.073171 0.833333
vt 0.109756 0.833333
vt 0.146341 0.833333
vt 0.000000 0.833333
vt 0.082317 0.794872
vt 0.118902 0.794872
vt 0.146341 0.807692
vt 0.009146 0.794872
vt 0.048780 0.833333
vt 0.000000 0.833333
vt 0.146341 0.833333
vt 0.109756 0.833333
vt 0.073171 0.833333
vt 0.009146 0.794872
vt 0.146341 0.807692
vt 0.118902 0.794872
vt 0.082317 0.794872
vt 0.048780 0.833333
vt 0.000000 0.833333
vt 0.146341 0.833333
vt 0.109756 0.833333
vt 0.073171 0.833333
vt 0.039634 0.794872
vt 0.027439 0.794872
vt 0.021341 0.794872
vt 0.009146 0.794872
vt 0.137195 0.794872
vt 0.131098 0.794872
vt 0.118902 0.794872
vt 0.100610 0.794872
vt 0.094512 0.794872
vt 0.082317 0.794872
vt 0.064024 0.794872
vt 0.057927 0.794872
vt 0.134146 0.807692
vt 0.121951 0.807692
vt 0.073171 0.807692
vt 0.060976 0.807692
vt 0.097561 0.807692
vt 0.085366 0.807692
vt 0.036585 0.807692
vt 0.024390 0.807692
vt 0.146341 0.807692
vt 0.109756 0.807692
vt 0.048780 0.807692
vt 0.012195 0.807692
vt -0.000000 0.807692
vt 0.100610 0.871795
vt 0.039634 0.871795
vt 0.003049 0.871795
vt 0.112805 0.871795
vt 0.051829 0.871795
vt 0.076220 0.871795
vt 0.015244 0.871795
vt 0.125000 0.871795
vt 0.064024 0.871795
vt 0.088415 0.871795
vt 0.027439 0.871795
vt 0.137195 0.871795
vt 0.100610 0.871795
vt 0.039634 0.871795
vt 0.003049 0.871795
vt 0.112805 0.871795
vt 0.051829 0.871795
vt 0.076220 0.871795
vt 0.015244 0.871795
vt 0.125000 0.871795
vt 0.064024 0.871795
vt 0.088415 0.871795
vt 0.027439 0.871795
vt 0.137195 0.871795
vt 0.137195 0.871795
vt 0.027439 0.871795
vt 0.088415 0.871795
vt 0.064024 0.871795
vt 0.125000 0.871795
vt 0.015244 0.871795
vt 0.076220 0.871795
vt 0.051829 0.871795
vt 0.112805 0.871795
vt 0.003049 0.871795
vt 0.039634 0.871795
vt 0.100610 0.871795
vt 0.137195 0.871795
vt 0.027439 0.871795
vt 0.088415 0.871795
vt 0.064024 0.871795
vt 0.125000 0.871795
vt 0.015244 0.871795
vt 0.076220 0.871795
vt 0.051829 0.871795
vt 0.112805 0.871795
vt 0.003049 0.871795
vt 0.039634 0.871795
vt 0.100610 0.871795
vt 0.106707 0.871795
vt 0.045732 0.871795
vt 0.009146 0.871795
vt 0.118902 0.871795
vt 0.057927 0.871795
vt 0.082317 0.871795
vt 0.021341 0.871795
vt 0.131098 0.871795
vt 0.070122 0.871795
vt 0.094512 0.871795
vt 0.033537 0.871795
vt 0.143293 0.871795
vt 0.106707 0.871795
vt 0.045732 0.871795
vt 0.009146 0.871795
vt 0.118902 0.871795
vt 0.057927 0.871795
vt 0.082317 0.871795
vt 0.021341 0.871795
vt 0.131098 0.871795
vt 0.070122 0.871795
vt 0.094512 0.871795
vt 0.033537 0.871795
vt 0.143293 0.871795
vt 0.143293 0.871795
vt 0.033537 0.871795
vt 0.094512 0.871795
vt 0.070122 0.871795
vt 0.131098 0.871795
vt 0.021341 0.871795
vt 0.082317 0.871795
vt 0.057927 0.871795
vt 0.118902 0.871795
vt 0.009146 0.871795
vt 0.045732 0.871795
vt 0.106707 0.871795
vt 0.143293 0.871795
vt 0.033537 0.871795
vt 0.094512 0.871795
vt 0.070122 0.871795
vt 0.131098 0.871795
vt 0.021341 0.871795
vt 0.082317 0.871795
vt 0.057927 0.871795
vt 0.118902 0.871795
vt 0.009146 0.871795
vt 0.045732 0.871795
vt 0.106707 0.871795
vn 0.0000 0.0000 1.0000
vn 0.0000 0.0000 -1.0000
vn -0.5000 -0.8660 0.0000
vn -0.8660 -0.5000 0.0000
vn 0.0000 1.0000 0.0000
vn 0.5000 0.8660 0.0000
vn -0.8660 0.5000 0.0000
vn -0.5000 0.8660 0.0000
vn 1.0000 -0.0000 0.0000
vn 0.8660 -0.5000 0.0000
vn -0.0000 -1.0000 0.0000
vn -1.0000 0.0000 0.0000
vn 0.8660 0.5000 0.0000
vn 0.5000 -0.8660 0.0000
v 1.375000 1.875000 -1.062500
v 1.468750 1.875000 -1.062500
v 1.375000 1.820873 -1.031250
v 1.468750 1.820873 -1.031250
v 1.375000 1.820873 -0.968750
v 1.468750 1.820873 -0.968750
v 1.375000 1.875000 -0.937500
v 1.468750 1.875000 -0.937500
v 1.375000 1.929127 -0.968750
v 1.468750 1.929127 -0.968750
v 1.375000 1.929127 -1.031250
v 1.468750 1.929127 -1.031250
v 1.388971 2.199760 -1.181111
v 1.437500 2.250000 -1.000000
v 1.486029 2.199760 -0.818889
v 1.431434 1.915595 -1.022639
v 1.437500 1.921875 -1.000000
v 1.443566 1.915595 -0.977361
v 1.388971 1.555773 -1.190695
v 1.437500 1.687500 -1.324759
v 1.486029 1.869467 -1.371806
v 1.431434 1.835097 -1.023837
v 1.437500 1.851562 -1.040595
v 1.443566 1.874308 -1.046476
v 1.443566 1.835097 -0.976163
v 1.437500 1.851562 -0.959405
v 1.431434 1.874308 -0.953524
v 1.486029 1.555773 -0.809305
v 1.437500 1.687500 -0.675241
v 1.388971 1.869467 -0.628194
vt 0.225610 0.935897
vt 0.228659 0.948718
vt 0.225610 0.948718
vt 0.228659 0.935897
vt 0.231707 0.948718
vt 0.213415 0.935897
vt 0.216463 0.948718
vt 0.213415 0.948718
vt 0.216463 0.935897
vt 0.219512 0.948718
vt 0.213554 0.955128
vt 0.215009 0.949830
vt 0.219373 0.955128
vt 0.219512 0.935897
vt 0.222561 0.948718
vt 0.222561 0.935897
vt 0.155488 0.967949
vt 0.158537 0.935897
vt 0.164634 0.967949
vt 0.152439 0.935897
vt 0.155488 0.935897
vt 0.155488 0.967949
vt 0.158537 0.935897
vt 0.164634 0.967949
vt 0.146341 0.967949
vt 0.155488 0.935897
vt 0.155488 0.967949
vt 0.152439 0.935897
vt 0.155488 0.935897
vt 0.158537 0.935897
vt 0.164634 0.967949
vt 0.231707 0.935897
vt 0.217918 0.949830
vt 0.217918 0.960426
vt 0.215009 0.960426
vt 0.146341 0.967949
vt 0.152439 0.935897
vt 0.146341 0.967949
vn 0.0000 -0.5000 -0.8660
vn 0.0000 -1.0000 0.0000
vn 0.0000 -0.5000 0.8660
vn 0.0000 0.5000 0.8660
vn 1.0000 0.0000 0.0000
vn 0.0000 1.0000 0.0000
vn 0.0000 0.5000 -0.8660
vn 0.9659 -0.0000 -0.2588
vn 0.9659 -0.2241 0.1294
vn 0.9659 0.2242 0.1294
vn 0.9659 0.2241 0.1294
vn 0.9659 -0.2242 0.1294
v -1.500000 0.000000 3.500000
v 1.500000 0.000000 3.500000
v -1.500000 0.000000 -3.500000
v 1.500000 0.000000 -3.500000
v -1.500000 1.000000 3.500000
v 1.500000 1.000000 3.500000
v -1.500000 1.000000 -3.500000
v 1.500000 1.000000 -3.500000
v 0.000000 1.250000 0.625000
v -0.526190 1.250000 0.729666
v -0.972272 1.250000 1.027728
v -1.270334 1.250000 1.473810
v -1.375000 1.250000 2.000000
v -1.270334 1.250000 2.526190
v -0.972272 1.250000 2.972272
v -0.526190 1.250000 3.270334
v 0.000000 1.250000 3.375000
v 0.526189 1.250000 3.270334
v 0.972271 1.250000 2.972272
v 1.270334 1.250000 2.526190
v 1.375000 1.250000 2.000000
v 1.270334 1.250000 1.473810
v 0.972271 1.250000 1.027728
v 0.526189 1.250000 0.729665
v 0.000000 3.000000 0.625000
v -0.526190 3.000000 0.729666
v -0.972272 3.000000 1.027728
v -1.270334 3.000000 1.473810
v -1.375000 3.000000 2.000000
v -1.270334 3.000000 2.526190
v -0.972272 3.000000 2.972272
v -0.526190 3.000000 3.270334
v 0.000000 3.000000 3.375000
v 0.526189 3.000000 3.270334
v 0.972271 3.000000 2.972272
v 1.270334 3.000000 2.526190
v 1.375000 3.000000 2.000000
v 1.270334 3.000000 1.473810
v 0.972271 3.000000 1.027728
v 0.526189 3.000000 0.729665
v 0.000000 3.000000 0.500000
v -0.574025 3.000000 0.614181
v -1.060660 3.000000 0.939340
v -1.385819 3.000000 1.425975
v -1.500000 3.000000 2.000000
v -1.385819 3.000000 2.574025
v -1.060660 3.000000 3.060660
v -0.574025 3.000000 3.385819
v -0.000000 3.000000 3.500000
v 0.574025 3.000000 3.385819
v 1.060660 3.000000 3.060660
v 1.385819 3.000000 2.574025
v 1.500000 3.000000 2.000000
v 1.385819 3.000000 1.425975
v 1.060659 3.000000 0.939340
v 0.574024 3.000000 0.614180
v 0.000000 3.250000 0.500000
v -0.574025 3.250000 0.614181
v -1.060660 3.250000 0.939340
v -1.385819 3.250000 1.425975
v -1.500000 3.250000 2.000000
v -1.385819 3.250000 2.574025
v -1.060660 3.250000 3.060660
v -0.574025 3.250000 3.385819
v -0.000000 3.250000 3.500000
v 0.574025 3.250000 3.385819
v 1.060660 3.250000 3.060660
v 1.385819 3.250000 2.574025
v 1.500000 3.250000 2.000000
v 1.385819 3.250000 1.425975
v 1.060659 3.250000 0.939340
v 0.574024 3.250000 0.614180
v 0.000000 3.250000 0.750000
v -0.478354 3.250000 0.845150
v -0.883883 3.250000 1.116116
v -1.154850 3.250000 1.521646
v -1.250000 3.250000 2.000000
v -1.154850 3.250000 2.478354
v -0.883883 3.250000 2.883883
v -0.478354 3.250000 3.154849
v -0.000000 3.250000 3.250000
v 0.478354 3.250000 3.154850
v 0.883883 3.250000 2.883884
v 1.154849 3.250000 2.478354
v 1.250000 3.250000 2.000000
v 1.154849 3.250000 1.521645
v 0.883883 3.250000 1.116116
v 0.478354 3.250000 0.845150
v 0.000000 2.250000 0.750000
v -0.478354 2.250000 0.845150
v -0.883883 2.250000 1.116116
v -1.154850 2.250000 1.521646
v -1.250000 2.250000 2.000000
v -1.154850 2.250000 2.478354
v -0.883883 2.250000 2.883883
v -0.478354 2.250000 3.154849
v -0.000000 2.250000 3.250000
v 0.478354 2.250000 3.154850
v 0.883883 2.250000 2.883884
v 1.154849 2.250000 2.478354
v 1.250000 2.250000 2.000000
v 1.154849 2.250000 1.521645
v 0.883883 2.250000 1.116116
v 0.478354 2.250000 0.845150
v -1.250000 1.000000 0.250000
v 1.250000 1.000000 0.250000
v -1.250000 1.000000 -2.250000
v 1.250000 1.000000 -2.250000
v -1.250000 2.750000 -2.250000
v -1.250000 2.750000 0.250000
v 1.250000 2.750000 0.250000
v 1.250000 2.750000 -2.250000
v -1.000000 3.250000 -2.250000
v -1.000000 3.250000 0.250000
v 1.000000 3.250000 0.250000
v 1.000000 3.250000 -2.250000
v -1.000000 1.000000 -2.250000
v 1.000000 1.000000 -2.250000
v -1.000000 1.000000 -3.250000
v 1.000000 1.000000 -3.250000
v -1.000000 1.500000 -3.250000
v -1.000000 1.500000 -2.250000
v 1.000000 1.500000 -2.250000
v 1.000000 1.500000 -3.250000
v -0.875000 1.500000 -3.125000
v -0.875000 1.500000 -2.250000
v 0.875000 1.500000 -2.250000
v 0.875000 1.500000 -3.125000
v -0.875000 1.250000 -3.125000
v -0.875000 1.250000 -2.250000
v 0.875000 1.250000 -2.250000
v 0.875000 1.250000 -3.125000
v 0.437500 1.500000 -2.250000
v -0.437500 1.500000 -2.250000
v 0.437500 1.500000 -2.687500
v -0.437500 1.500000 -2.687500
v -0.500000 2.000000 -2.250000
v 0.500000 2.000000 -2.250000
v -0.500000 2.000000 -2.750000
v 0.500000 2.000000 -2.750000
v -0.500000 2.250000 -2.750000
v -0.500000 2.750000 -2.250000
v 0.500000 2.750000 -2.250000
v 0.500000 2.250000 -2.750000
v -0.437500 2.000000 -2.687500
v -0.437500 2.000000 -2.312500
v 0.437500 2.000000 -2.312500
v 0.437500 2.000000 -2.687500
v -0.437500 2.125000 -2.687500
v -0.437500 2.125000 -2.312500
v 0.437500 2.125000 -2.312500
v 0.437500 2.125000 -2.687500
v -0.750000 3.250000 0.000000
v 0.750000 3.250000 0.000000
v -0.750000 3.250000 -2.000000
v 0.750000 3.250000 -2.000000
v -0.500000 2.750000 -2.000000
v -0.500000 2.750000 0.000000
v 0.500000 2.750000 0.000000
v 0.500000 2.750000 -2.000000
v 1.125000 1.000000 -0.125000
v 1.375000 1.000000 -0.125000
v 1.125000 1.000000 -0.375000
v 1.375000 1.000000 -0.375000
v 1.125000 3.250000 -0.375000
v 1.125000 3.250000 -0.125000
v 1.375000 3.250000 -0.125000
v 1.375000 3.250000 -0.375000
v 1.125000 1.000000 -1.625000
v 1.375000 1.000000 -1.625000
v 1.125000 1.000000 -1.875000
v 1.375000 1.000000 -1.875000
v 1.125000 3.250000 -1.875000
v 1.125000 3.250000 -1.625000
v 1.375000 3.250000 -1.625000
v 1.375000 3.250000 -1.875000
v -1.375000 1.000000 -0.125000
v -1.125000 1.000000 -0.125000
v -1.375000 1.000000 -0.375000
v -1.125000 1.000000 -0.375000
v -1.375000 3.250000 -0.375000
v -1.375000 3.250000 -0.125000
v -1.125000 3.250000 -0.125000
v -1.125000 3.250000 -0.375000
v -1.375000 1.000000 -1.625000
v -1.125000 1.000000 -1.625000
v -1.375000 1.000000 -1.875000
v -1.125000 1.000000 -1.875000
v -1.375000 3.250000 -1.875000
v -1.375000 3.250000 -1.625000
v -1.125000 3.250000 -1.625000
v -1.125000 3.250000 -1.875000
v 0.000000 1.000000 0.500000
v -0.574025 1.000000 0.614181
v -1.060660 1.000000 0.939340
v -1.385819 1.000000 1.425975
v -1.500000 1.000000 2.000000
v -1.385819 1.000000 2.574025
v -1.060660 1.000000 3.060660
v -0.574025 1.000000 3.385819
v -0.000000 1.000000 3.500000
v 0.574025 1.000000 3.385819
v 1.060660 1.000000 3.060660
v 1.385819 1.000000 2.574025
v 1.500000 1.000000 2.000000
v 1.385819 1.000000 1.425975
v 1.060659 1.000000 0.939340
v 0.574024 1.000000 0.614180
v 0.000000 1.250000 0.500000
v -0.574025 1.250000 0.614181
v -1.060660 1.250000 0.939340
v -1.385819 1.250000 1.425975
v -1.500000 1.250000 2.000000
v -1.385819 1.250000 2.574025
v -1.060660 1.250000 3.060660
v -0.574025 1.250000 3.385819
v -0.000000 1.250000 3.500000
v 0.574025 1.250000 3.385819
v 1.060660 1.250000 3.060660
v 1.385819 1.250000 2.574025
v 1.500000 1.250000 2.000000
v 1.385819 1.250000 1.425975
v 1.060659 1.250000 0.939340
v 0.574024 1.250000 0.614180
v 1.125000 3.250000 3.125000
v 1.375000 3.250000 3.125000
v 1.125000 3.250000 -2.000000
v 1.375000 3.250000 -2.000000
v 1.125000 3.500000 -2.000000
v 1.125000 3.500000 3.125000
v 1.375000 3.500000 3.125000
v 1.375000 3.500000 -2.000000
v -1.375000 3.250000 3.125000
v -1.125000 3.250000 3.125000
v -1.375000 3.250000 -2.000000
v -1.125000 3.250000 -2.000000
v -1.375000 3.500000 -2.000000
v -1.375000 3.500000 3.125000
v -1.125000 3.500000 3.125000
v -1.125000 3.500000 -2.000000
v 1.125000 1.000000 3.000000
v 1.375000 1.000000 3.000000
v 1.125000 1.000000 2.750000
v 1.375000 1.000000 2.750000
v 1.125000 3.250000 2.750000
v 1.125000 3.250000 3.000000
v 1.375000 3.250000 3.000000
v 1.375000 3.250000 2.750000
v -1.375000 1.000000 3.000000
v -1.125000 1.000000 3.000000
v -1.375000 1.000000 2.750000
v -1.125000 1.000000 2.750000
v -1.375000 3.250000 2.750000
v -1.375000 3.250000 3.000000
v -1.125000 3.250000 3.000000
v -1.125000 3.250000 2.750000
v 0.250000 2.000000 0.250000
v 0.073223 1.926777 0.250000
v 0.000000 1.750000 0.250000
v 0.073223 1.573223 0.250000
v 0.250000 1.500000 0.250000
v 0.426777 1.573223 0.250000
v 0.500000 1.750000 0.250000
v 0.426777 1.926777 0.250000
v 0.250000 2.000000 0.750000
v 0.073223 1.926777 0.750000
v 0.000000 1.750000 0.750000
v 0.073223 1.573223 0.750000
v 0.250000 1.500000 0.750000
v 0.426777 1.573223 0.750000
v 0.500000 1.750000 0.750000
v 0.426777 1.926777 0.750000
v -0.250000 2.000000 0.250000
v -0.426777 1.926777 0.250000
v -0.500000 1.750000 0.250000
v -0.426777 1.573223 0.250000
v -0.250000 1.500000 0.250000
v -0.073223 1.573223 0.250000
v 0.000000 1.750000 0.250000
v -0.073223 1.926777 0.250000
v -0.250000 2.000000 0.750000
v -0.426777 1.926777 0.750000
v -0.500000 1.750000 0.750000
v -0.426777 1.573223 0.750000
v -0.250000 1.500000 0.750000
v -0.073223 1.573223 0.750000
v 0.000000 1.750000 0.750000
v -0.073223 1.926777 0.750000
v 1.125000 1.000000 1.250000
v 1.375000 1.000000 1.250000
v 1.125000 1.000000 1.000000
v 1.375000 1.000000 1.000000
v 1.125000 3.250000 1.000000
v 1.125000 3.250000 1.250000
v 1.375000 3.250000 1.250000
v 1.375000 3.250000 1.000000
v -1.375000 1.000000 1.250000
v -1.125000 1.000000 1.250000
v -1.375000 1.000000 1.000000
v -1.125000 1.000000 1.000000
v -1.375000 3.250000 1.000000
v -1.375000 3.250000 1.250000
v -1.125000 3.250000 1.250000
v -1.125000 3.250000 1.000000
v 1.250000 2.375000 -0.500000
v 1.250000 1.375000 -0.500000
v 1.250000 2.375000 -1.500000
v 1.250000 1.375000 -1.500000
v 1.500000 2.375000 -1.500000
v 1.500000 2.375000 -0.500000
v 1.500000 1.375000 -0.500000
v 1.500000 1.375000 -1.500000
v 1.500000 2.312500 -1.437500
v 1.500000 2.312500 -0.562500
v 1.500000 1.437500 -0.562500
v 1.500000 1.437500 -1.437500
v 1.375000 2.312500 -1.437500
v 1.375000 2.312500 -0.562500
v 1.375000 1.437500 -0.562500
v 1.375000 1.437500 -1.437500
v 1.500000 2.093750 -0.562500
v 1.500000 2.031250 -0.562500
v 1.500000 2.093750 -1.437500
v 1.500000 2.031250 -1.437500
v 1.500000 2.281250 -0.562500
v 1.500000 2.218750 -0.562500
v 1.500000 2.281250 -1.437500
v 1.500000 2.218750 -1.437500
v 1.500000 1.718750 -0.562500
v 1.500000 1.656250 -0.562500
v 1.500000 1.718750 -1.437500
v 1.500000 1.656250 -1.437500
v 1.500000 1.906250 -0.562500
v 1.500000 1.843750 -0.562500
v 1.500000 1.906250 -1.437500
v 1.500000 1.843750 -1.437500
v 1.500000 1.531250 -0.562500
v 1.500000 1.468750 -0.562500
v 1.500000 1.531250 -1.437500
v 1.500000 1.468750 -1.437500
v -1.250000 2.375000 -0.500000
v -1.250000 1.375000 -0.500000
v -1.250000 2.375000 -1.500000
v -1.250000 1.375000 -1.500000
v -1.500000 2.375000 -1.500000
v -1.500000 2.375000 -0.500000
v -1.500000 1.375000 -0.500000
v -1.500000 1.375000 -1.500000
v -1.500000 2.250000 -1.375000
v -1.500000 2.250000 -0.625000
v -1.500000 1.500000 -0.625000
v -1.500000 1.500000 -1.375000
v -1.375000 2.250000 -1.375000
v -1.375000 2.250000 -0.625000
v -1.375000 1.500000 -0.625000
v -1.375000 1.500000 -1.375000
v -1.500000 2.250000 -1.375000
v -1.982091 2.250000 -0.800467
v -1.982091 1.500000 -0.800467
v -1.500000 1.500000 -1.375000
v 0.875000 1.500000 -3.125000
v 1.000000 1.500000 -3.125000
v 0.875000 1.500000 -3.250000
v 1.000000 1.500000 -3.250000
v 0.875000 2.875000 -3.125000
v 1.000000 2.875000 -3.125000
v 0.875000 2.875000 -3.250000
v 1.000000 2.875000 -3.250000
v -1.000000 1.500000 -3.125000
v -0.875000 1.500000 -3.125000
v -1.000000 1.500000 -3.250000
v -0.875000 1.500000 -3.250000
v -1.000000 2.875000 -3.125000
v -0.875000 2.875000 -3.125000
v -1.000000 2.875000 -3.250000
v -0.875000 2.875000 -3.250000
v 1.000000 2.875000 -3.250000
v -1.000000 2.875000 -3.250000
v 1.000000 2.875000 -2.250000
v -1.000000 2.875000 -2.250000
v 1.000000 3.000000 -3.250000
v -1.000000 3.000000 -3.250000
v 1.000000 3.000000 -2.250000
v -1.000000 3.000000 -2.250000
vt 0.341463 0.102564
vt -0.000000 0.410256
vt -0.000000 0.102564
vt -0.000000 0.102564
vt 0.341463 0.410256
vt -0.000000 0.410256
vt 0.341463 -0.000000
vt -0.000000 0.000000
vt 0.341463 -0.000000
vt 0.000000 0.102564
vt 0.000000 0.000000
vt 0.390244 0.410256
vt 0.341463 0.102564
vt 0.390244 0.102564
vt 0.390244 0.410256
vt 0.341463 0.102564
vt 0.390244 0.102564
vt 0.326219 0.448718
vt 0.301829 0.461538
vt 0.301829 0.448718
vt 0.329268 0.448718
vt 0.356707 0.461538
vt 0.329268 0.461538
vt 0.381098 0.448718
vt 0.356707 0.448718
vt 0.408537 0.448718
vt 0.384146 0.461538
vt 0.384146 0.448718
vt 0.435976 0.448718
vt 0.411585 0.461538
vt 0.411585 0.448718
vt 0.024390 0.448718
vt 0.000000 0.461538
vt 0.000000 0.448718
vt 0.051829 0.448718
vt 0.027439 0.461538
vt 0.027439 0.448718
vt 0.079268 0.448718
vt 0.054878 0.461538
vt 0.054878 0.448718
vt 0.106707 0.448718
vt 0.082317 0.461538
vt 0.082317 0.448718
vt 0.109756 0.448718
vt 0.137195 0.461538
vt 0.109756 0.461538
vt 0.137195 0.448718
vt 0.164634 0.461538
vt 0.164634 0.448718
vt 0.192073 0.461538
vt 0.192073 0.448718
vt 0.219512 0.461538
vt 0.219512 0.448718
vt 0.246951 0.461538
vt 0.271341 0.448718
vt 0.246951 0.448718
vt 0.274390 0.448718
vt 0.274390 0.461538
vt 0.329268 0.487179
vt 0.301829 0.512821
vt 0.301829 0.487179
vt 0.356707 0.487179
vt 0.329268 0.512821
vt 0.384146 0.487179
vt 0.356707 0.512821
vt 0.408537 0.512821
vt 0.384146 0.512821
vt 0.411585 0.487179
vt 0.435976 0.512821
vt 0.411585 0.512821
vt 0.027439 0.487179
vt 0.000000 0.512821
vt 0.000000 0.487179
vt 0.051829 0.512821
vt 0.027439 0.512821
vt 0.054878 0.487179
vt 0.079268 0.512821
vt 0.054878 0.512821
vt 0.082317 0.487179
vt 0.106707 0.512821
vt 0.082317 0.512821
vt 0.109756 0.487179
vt 0.134146 0.512821
vt 0.109756 0.512821
vt 0.164634 0.487179
vt 0.137195 0.512821
vt 0.137195 0.487179
vt 0.192073 0.487179
vt 0.164634 0.512821
vt 0.216463 0.512821
vt 0.192073 0.512821
vt 0.246951 0.487179
vt 0.219512 0.512821
vt 0.219512 0.487179
vt 0.274390 0.487179
vt 0.246951 0.512821
vt 0.298781 0.512821
vt 0.274390 0.512821
vt 0.451219 0.000216
vt 0.512092 0.128205
vt 0.451219 0.256194
vt 0.414634 0.961538
vt 0.408537 0.929487
vt 0.414634 0.929487
vt 0.756098 0.179487
vt 0.646341 0.230769
vt 0.634146 0.179487
vt 0.756098 -0.000000
vt 0.634146 0.000000
vt 1.000000 0.000000
vt 0.878049 0.179487
vt 0.878049 0.000000
vt 0.512195 0.179487
vt 0.512195 0.000000
vt 0.658537 0.256410
vt 0.646341 0.487179
vt 1.000000 0.179487
vt 0.890244 0.230769
vt 0.512195 0.230769
vt 0.756098 0.230769
vt 0.512195 0.846154
vt 0.554878 0.858974
vt 0.512195 0.858974
vt 0.707317 0.846154
vt 0.664634 0.858974
vt 0.658537 0.846154
vt 0.707317 0.794872
vt 0.658537 0.794872
vt 0.560976 0.846154
vt 0.560976 0.794872
vt 0.567073 0.858974
vt 0.512195 0.794872
vt 0.652439 0.858974
vt 0.567073 0.884615
vt 0.707317 0.858974
vt 0.664634 0.884615
vt 0.512195 0.884615
vt 0.533537 0.929487
vt 0.512195 0.974359
vt 0.512195 0.884615
vt 0.576219 0.974359
vt 0.533537 0.974359
vt 0.576219 0.929487
vt 0.597561 0.974359
vt 0.597561 0.884615
vt 0.390244 0.794872
vt 0.344512 0.801282
vt 0.341463 0.794872
vt 0.341463 0.916667
vt 0.390244 0.865385
vt 0.390244 0.916667
vt 0.344512 0.833333
vt 0.341463 0.839744
vt 0.317073 0.839744
vt 0.341463 0.865385
vt 0.317073 0.916667
vt 0.414634 0.839744
vt 0.390244 0.839744
vt 0.387195 0.801282
vt 0.387195 0.833333
vt 0.408537 0.961538
vt 0.365854 0.929487
vt 0.365854 0.974359
vt 0.408537 0.974359
vt 0.408537 0.916667
vt 0.365854 0.916667
vt 0.359756 0.929487
vt 0.365854 0.961538
vt 0.359756 0.961538
vt 0.548781 0.282051
vt 0.573171 0.487179
vt 0.548781 0.487179
vt 0.731707 0.256410
vt 0.743902 0.230769
vt 0.731707 0.461538
vt 0.743902 0.487179
vt 0.658537 0.461538
vt 0.621951 0.282051
vt 0.621951 0.487179
vt 0.646341 0.487179
vt 0.646341 0.282051
vt 0.634146 0.230769
vt 0.573171 0.282051
vt 0.560976 0.230769
vt 0.560976 0.538462
vt 0.634146 0.538462
vt 0.451219 0.256410
vt 0.439024 0.487179
vt 0.439024 0.256410
vt 0.463415 0.256410
vt 0.451219 0.487179
vt 0.487805 0.256410
vt 0.475610 0.487179
vt 0.475610 0.256410
vt 0.463415 0.487179
vt 0.451219 0.256410
vt 0.439024 0.487179
vt 0.439024 0.256410
vt 0.463415 0.256410
vt 0.451219 0.487179
vt 0.487805 0.256410
vt 0.475610 0.487179
vt 0.475610 0.256410
vt 0.463415 0.487179
vt 0.451219 0.256410
vt 0.439024 0.487179
vt 0.439024 0.256410
vt 0.463415 0.256410
vt 0.451219 0.487179
vt 0.487805 0.256410
vt 0.475610 0.487179
vt 0.475610 0.256410
vt 0.463415 0.487179
vt 0.451219 0.256410
vt 0.439024 0.487179
vt 0.439024 0.256410
vt 0.463415 0.256410
vt 0.451219 0.487179
vt 0.487805 0.256410
vt 0.475610 0.487179
vt 0.475610 0.256410
vt 0.463415 0.487179
vt 0.301829 0.435897
vt 0.326219 0.448718
vt 0.301829 0.448718
vt 0.329268 0.448718
vt 0.356707 0.435897
vt 0.353659 0.448718
vt 0.381098 0.448718
vt 0.356707 0.448718
vt 0.384146 0.435897
vt 0.408537 0.448718
vt 0.384146 0.448718
vt 0.411585 0.435897
vt 0.435976 0.448718
vt 0.411585 0.448718
vt 0.000000 0.435897
vt 0.024390 0.448718
vt 0.000000 0.448718
vt 0.027439 0.435897
vt 0.051829 0.448718
vt 0.027439 0.448718
vt 0.054878 0.435897
vt 0.079268 0.448718
vt 0.054878 0.448718
vt 0.082317 0.435897
vt 0.106707 0.448718
vt 0.082317 0.448718
vt 0.109756 0.448718
vt 0.137195 0.435897
vt 0.134146 0.448718
vt 0.137195 0.448718
vt 0.164634 0.435897
vt 0.161585 0.448718
vt 0.164634 0.448718
vt 0.192073 0.435897
vt 0.189024 0.448718
vt 0.192073 0.448718
vt 0.219512 0.435897
vt 0.216463 0.448718
vt 0.219512 0.448718
vt 0.246951 0.435897
vt 0.243902 0.448718
vt 0.271341 0.448718
vt 0.246951 0.448718
vt 0.274390 0.448718
vt 0.298781 0.448718
vt 0.262195 0.692308
vt 0.012195 0.717949
vt 0.012195 0.692308
vt 0.012195 0.743590
vt 0.262195 0.769231
vt 0.012195 0.769231
vt 0.262195 0.717949
vt 0.012195 0.794872
vt 0.262195 0.794872
vt 0.274390 0.769231
vt 0.262195 0.743590
vt 0.274390 0.743590
vt 0.000000 0.743590
vt 0.000000 0.769231
vt 0.262195 0.692308
vt 0.012195 0.717949
vt 0.012195 0.692308
vt 0.012195 0.743590
vt 0.262195 0.769231
vt 0.012195 0.769231
vt 0.262195 0.717949
vt 0.012195 0.794872
vt 0.262195 0.794872
vt 0.274390 0.769231
vt 0.262195 0.743590
vt 0.274390 0.743590
vt 0.000000 0.743590
vt 0.000000 0.769231
vt 0.451219 0.256410
vt 0.439024 0.487179
vt 0.439024 0.256410
vt 0.463415 0.256410
vt 0.451219 0.487179
vt 0.487805 0.256410
vt 0.475610 0.487179
vt 0.475610 0.256410
vt 0.463415 0.487179
vt 0.451219 0.256410
vt 0.439024 0.487179
vt 0.439024 0.256410
vt 0.463415 0.256410
vt 0.451219 0.487179
vt 0.487805 0.256410
vt 0.475610 0.487179
vt 0.475610 0.256410
vt 0.463415 0.487179
vt 0.451219 0.256410
vt 0.439024 0.487179
vt 0.439024 0.256410
vt 0.463415 0.256410
vt 0.451219 0.487179
vt 0.487805 0.256410
vt 0.475610 0.487179
vt 0.475610 0.256410
vt 0.463415 0.487179
vt 0.451219 0.256410
vt 0.439024 0.487179
vt 0.439024 0.256410
vt 0.463415 0.256410
vt 0.451219 0.487179
vt 0.487805 0.256410
vt 0.475610 0.487179
vt 0.475610 0.256410
vt 0.463415 0.487179
vt 0.161585 0.839744
vt 0.167683 0.929487
vt 0.161585 0.929487
vt 0.219512 0.935897
vt 0.216463 0.839744
vt 0.219512 0.833333
vt 0.213415 0.794872
vt 0.164634 0.820513
vt 0.164634 0.794872
vt 0.164634 0.974359
vt 0.213415 0.948718
vt 0.213415 0.974359
vt 0.231707 0.935897
vt 0.231707 0.833333
vt 0.146341 0.833333
vt 0.158537 0.935897
vt 0.146341 0.935897
vt 0.158537 0.833333
vt 0.213415 0.820513
vt 0.167683 0.826923
vt 0.164634 0.948718
vt 0.210366 0.942308
vt 0.167683 0.839744
vt 0.210366 0.929487
vt 0.210366 0.826923
vt 0.167683 0.942308
vt 0.216463 0.929487
vt 0.210366 0.839744
vt 0.167683 0.974359
vt 0.210366 0.980769
vt 0.167683 0.980769
vt 0.167683 0.974359
vt 0.210366 0.980769
vt 0.167683 0.980769
vt 0.167683 0.974359
vt 0.210366 0.980769
vt 0.167683 0.980769
vt 0.167683 0.974359
vt 0.210366 0.980769
vt 0.167683 0.980769
vt 0.167683 0.974359
vt 0.210366 0.980769
vt 0.167683 0.980769
vt 0.243902 0.833333
vt 0.250000 0.923077
vt 0.243902 0.935897
vt 0.298781 0.794872
vt 0.250000 0.820513
vt 0.250000 0.794872
vt 0.250000 0.974359
vt 0.298781 0.948718
vt 0.298781 0.974359
vt 0.231707 0.833333
vt 0.231707 0.935897
vt 0.317073 0.935897
vt 0.304878 0.833333
vt 0.317073 0.833333
vt 0.298781 0.923077
vt 0.292683 0.846154
vt 0.298781 0.846154
vt 0.304878 0.935897
vt 0.298781 0.820513
vt 0.256098 0.833333
vt 0.250000 0.948718
vt 0.292683 0.935897
vt 0.256098 0.846154
vt 0.292683 0.923077
vt 0.256098 0.923077
vt 0.292683 0.833333
vt 0.256098 0.935897
vt 0.250000 0.846154
vt 0.323171 0.916667
vt 0.359756 0.993590
vt 0.323171 0.993590
vt 0.725610 0.935897
vt 0.719512 0.794872
vt 0.725610 0.794872
vt 0.713415 0.935897
vt 0.707317 0.794872
vt 0.713415 0.794872
vt 0.719512 0.935897
vt 0.731707 0.935897
vt 0.731707 0.794872
vt 0.725610 0.935897
vt 0.719512 0.794872
vt 0.725610 0.794872
vt 0.713415 0.935897
vt 0.707317 0.794872
vt 0.713415 0.794872
vt 0.719512 0.935897
vt 0.731707 0.935897
vt 0.731707 0.794872
vt 0.810976 0.589744
vt 0.908537 0.692308
vt 0.810976 0.692308
vt 0.908537 0.705128
vt 0.810976 0.807692
vt 0.810976 0.705128
vt 0.914634 0.807692
vt 0.914634 0.705128
vt 0.804878 0.705128
vt 0.804878 0.807692
vt 0.341463 0.410256
vt 0.341463 0.410256
vt 0.353659 0.448718
vt 0.439024 0.461538
vt 0.134146 0.448718
vt 0.161585 0.448718
vt 0.189024 0.448718
vt 0.216463 0.448718
vt 0.243902 0.448718
vt 0.298781 0.448718
vt 0.326219 0.512821
vt 0.353659 0.512821
vt 0.381098 0.512821
vt 0.439024 0.487179
vt 0.024390 0.512821
vt 0.161585 0.512821
vt 0.189024 0.512821
vt 0.243902 0.512821
vt 0.271341 0.512821
vt 0.474515 0.009959
vt 0.494263 0.037704
vt 0.507459 0.079226
vt 0.507459 0.177184
vt 0.494263 0.218707
vt 0.474514 0.246451
vt 0.427924 0.246452
vt 0.408176 0.218707
vt 0.394980 0.177185
vt 0.390347 0.128205
vt 0.394980 0.079226
vt 0.408176 0.037703
vt 0.427925 0.009959
vt 0.987805 0.230769
vt 0.634146 0.230769
vt 0.878049 0.230769
vt 0.652439 0.884615
vt 0.707317 0.884615
vt 0.554878 0.884615
vt 0.414634 0.916667
vt 0.487805 0.487179
vt 0.487805 0.487179
vt 0.487805 0.487179
vt 0.487805 0.487179
vt 0.329268 0.435897
vt 0.439024 0.435897
vt 0.109756 0.435897
vt 0.274390 0.435897
vt 0.487805 0.487179
vt 0.487805 0.487179
vt 0.487805 0.487179
vt 0.487805 0.487179
vt 0.210366 0.974359
vt 0.210366 0.974359
vt 0.210366 0.974359
vt 0.210366 0.974359
vt 0.210366 0.974359
vt 0.359756 0.916667
vt 0.707317 0.935897
vt 0.707317 0.935897
vt 0.908537 0.589744
vt 0.908537 0.807692
vt 0.341463 0.512821
vt 0.317073 0.692308
vt 0.317073 0.512821
vt 0.170732 0.512821
vt 0.146341 0.692308
vt 0.146341 0.512821
vt 0.365854 0.512821
vt 0.341463 0.692308
vt 0.195122 0.512821
vt 0.170732 0.692308
vt 0.024390 0.512821
vt -0.000000 0.692308
vt 0.000000 0.512821
vt 0.390244 0.512821
vt 0.365854 0.692308
vt 0.219512 0.512821
vt 0.195122 0.692308
vt 0.048780 0.512821
vt 0.024390 0.692308
vt 0.243902 0.512821
vt 0.219512 0.692308
vt 0.073171 0.512821
vt 0.048780 0.692308
vt 0.268293 0.512821
vt 0.243902 0.692308
vt 0.097561 0.512821
vt 0.073171 0.692308
vt 0.292683 0.512821
vt 0.268293 0.692308
vt 0.121951 0.512821
vt 0.097561 0.692308
vt 0.292683 0.692308
vt 0.121951 0.692308
vt 0.878049 1.000000
vt 0.902439 0.897436
vt 0.902439 1.000000
vt 0.853659 1.000000
vt 0.878049 0.897436
vt 0.878049 1.000000
vt 0.853659 1.000000
vt 0.878049 0.897436
vt 0.829268 1.000000
vt 0.853659 0.897436
vt 0.829268 1.000000
vt 0.853659 0.897436
vt 0.804878 1.000000
vt 0.829268 0.897436
vt 0.975610 1.000000
vt 1.000000 0.897436
vt 1.000000 1.000000
vt 0.804878 1.000000
vt 0.829268 0.897436
vt 0.975610 1.000000
vt 1.000000 0.897436
vt 1.000000 1.000000
vt 0.951219 1.000000
vt 0.975610 0.897436
vt 0.951219 1.000000
vt 0.975610 0.897436
vt 0.926829 1.000000
vt 0.951219 0.897436
vt 0.926829 1.000000
vt 0.951219 0.897436
vt 0.902439 1.000000
vt 0.926829 0.897436
vt 0.926829 0.897436
vt 0.902439 0.897436
vt 0.274390 0.410256
vt 0.246951 0.410256
vt 0.082317 0.410256
vt 0.054878 0.410256
vt 0.301829 0.410256
vt 0.109756 0.410256
vt 0.329268 0.410256
vt 0.137195 0.410256
vt 0.356707 0.410256
vt 0.164634 0.410256
vt 0.384146 0.410256
vt 0.192073 0.410256
vt 0.411585 0.410256
vt 0.219512 0.410256
vt 0.027439 0.410256
vt 0.000000 0.410256
vt 0.439024 0.410256
vt 0.692073 0.538462
vt 0.701219 0.487179
vt 0.701219 0.538462
vt 0.710366 0.538462
vt 0.719512 0.487179
vt 0.719512 0.538462
vt 0.655488 0.538462
vt 0.664634 0.487179
vt 0.664634 0.538462
vt 0.673781 0.538462
vt 0.682927 0.487179
vt 0.682927 0.538462
vt 0.692073 0.487179
vt 0.710366 0.487179
vt 0.646341 0.538462
vt 0.655488 0.487179
vt 0.673781 0.487179
vt 0.692073 0.538462
vt 0.701219 0.487179
vt 0.701219 0.538462
vt 0.710366 0.538462
vt 0.719512 0.487179
vt 0.719512 0.538462
vt 0.655488 0.538462
vt 0.664634 0.487179
vt 0.664634 0.538462
vt 0.673781 0.538462
vt 0.682927 0.487179
vt 0.682927 0.538462
vt 0.692073 0.487179
vt 0.710366 0.487179
vt 0.646341 0.538462
vt 0.655488 0.487179
vt 0.673781 0.487179
vt 0.390244 0.692308
vt 0.804878 0.897436
vt 0.804878 0.897436
vt 0.646341 0.487179
vt 0.646341 0.487179
vn 0.0000 -1.0000 0.0000
vn 0.0000 1.0000 0.0000
vn 1.0000 0.0000 0.0000
vn -1.0000 0.0000 0.0000
vn 0.0000 0.0000 -1.0000
vn 0.0000 0.0000 1.0000
vn 0.8944 0.4472 0.0000
vn -0.8944 0.4472 0.0000
vn 0.4961 0.8682 0.0000
vn 0.0000 0.8682 -0.4961
vn -0.4961 0.8682 0.0000
vn 0.0000 0.7071 -0.7071
vn -0.7660 0.0000 -0.6428
vn 0.7071 0.0000 -0.7071
vn 0.9239 0.0000 -0.3827
vn -0.3827 0.0000 0.9239
vn -0.7071 0.0000 0.7071
vn 0.3827 0.0000 -0.9239
vn -0.3827 0.0000 -0.9239
vn 0.3827 0.0000 0.9239
vn -0.7071 0.0000 -0.7071
vn 0.7071 0.0000 0.7071
vn -0.9239 0.0000 -0.3827
vn 0.9239 0.0000 0.3827
vn -0.9239 0.0000 0.3827
vn 0.7071 0.7071 0.0000
vn 0.7071 -0.7071 0.0000
vn -0.7071 -0.7071 0.0000
vn -0.7071 0.7071 0.0000
usemtl ore_slopper
s off
f 119/183/13 118/184/13 117/185/13
f 127/186/13 126/187/13 125/188/13
f 117/189/14 121/190/14 119/191/14
f 119/191/15 124/192/15 120/193/15
f 118/184/16 122/194/16 117/185/16
f 120/193/17 123/195/17 118/184/17
f 125/196/14 129/197/14 127/198/14
f 127/198/15 132/199/15 128/200/15
f 126/187/16 130/201/16 125/188/16
f 128/200/17 131/202/17 126/187/17
f 135/203/13 134/204/13 133/205/13
f 143/206/13 142/207/13 141/208/13
f 133/209/14 137/210/14 135/211/14
f 135/211/15 140/212/15 136/213/15
f 134/204/16 138/214/16 133/205/16
f 136/213/17 139/215/17 134/204/17
f 141/216/14 145/217/14 143/218/14
f 143/218/15 148/219/15 144/220/15
f 142/207/16 146/221/16 141/208/16
f 144/220/17 147/222/17 142/207/17
f 119/183/13 120/223/13 118/184/13
f 127/186/13 128/224/13 126/187/13
f 117/189/14 122/225/14 121/190/14
f 119/191/15 121/190/15 124/192/15
f 118/184/16 123/195/16 122/194/16
f 120/193/17 124/192/17 123/195/17
f 125/196/14 130/226/14 129/197/14
f 127/198/15 129/197/15 132/199/15
f 126/187/16 131/202/16 130/201/16
f 128/200/17 132/199/17 131/202/17
f 135/203/13 136/227/13 134/204/13
f 143/206/13 144/228/13 142/207/13
f 133/209/14 138/229/14 137/210/14
f 135/211/15 137/210/15 140/212/15
f 134/204/16 139/215/16 138/214/16
f 136/213/17 140/212/17 139/215/17
f 141/216/14 146/230/14 145/217/14
f 143/218/15 145/217/15 148/219/15
f 142/207/16 147/222/16 146/221/16
f 144/220/17 148/219/17 147/222/17
