# Split from HBM 1.7.10 condenser.obj
usemtl condenser
v -1.375000 1.500000 0.125000
v -1.375000 1.608253 0.062500
v -1.375000 1.608253 -0.062500
v -1.375000 1.500000 -0.125000
v -1.375000 1.391747 -0.062500
v -1.375000 1.391747 0.062500
v -1.500000 1.608253 0.062500
v -1.500000 1.500000 0.125000
v -1.500000 1.608253 -0.062500
v -1.500000 1.500000 -0.125000
v -1.500000 1.391747 -0.062500
v -1.500000 1.391747 0.062500
v -1.501628 1.937500 -0.176192
v -1.458876 1.500000 -0.058731
v -1.373371 1.937500 0.176192
v -1.416123 1.500000 0.058731
v -1.501628 1.128663 -0.290790
v -1.458876 1.449138 0.029366
v -1.373371 1.433837 -0.466982
v -1.416123 1.550862 -0.029365
v -1.501628 1.433837 0.466982
v -1.458876 1.550862 0.029365
v -1.373371 1.128663 0.290790
v -1.416123 1.449138 -0.029365
vt 0.908031 0.056886
vt 0.915969 0.056886
vt 0.919938 0.070312
vt 0.912000 0.039062
vt 0.904000 0.054688
vt 0.904000 0.039062
vt 0.944000 0.039062
vt 0.936000 0.054688
vt 0.936000 0.039062
vt 0.928000 0.039062
vt 0.920000 0.054688
vt 0.920000 0.039062
vt 0.912000 0.054688
vt 0.952000 0.039062
vt 0.944000 0.054688
vt 0.928000 0.054688
vt 0.928000 0.054688
vt 0.944000 0.109375
vt 0.920000 0.109375
vt 0.920000 0.109375
vt 0.936000 0.054688
vt 0.944000 0.109375
vt 0.928000 0.054688
vt 0.944000 0.109375
vt 0.920000 0.109375
vt 0.915969 0.083739
vt 0.908031 0.083739
vt 0.904062 0.070313
vt 0.952000 0.054688
vt 0.936000 0.054688
vt 0.928000 0.054688
vt 0.936000 0.054688
vn -1.0000 -0.0000 0.0000
vn 0.0000 -1.0000 0.0000
vn -0.0000 0.5000 -0.8660
vn 0.0000 0.5000 0.8660
vn 0.0000 -0.5000 0.8660
vn 0.0000 -0.5000 -0.8660
vn 0.0000 1.0000 0.0000
vn -0.9397 0.0000 0.3420
vn -0.9397 0.2962 -0.1710
vn -0.9397 -0.2962 -0.1710
v 1.375000 1.500000 -0.125000
v 1.375000 1.608253 -0.062500
v 1.375000 1.608253 0.062500
v 1.375000 1.500000 0.125000
v 1.375000 1.391747 0.062500
v 1.375000 1.391747 -0.062500
v 1.500000 1.608253 -0.062500
v 1.500000 1.500000 -0.125000
v 1.500000 1.608253 0.062500
v 1.500000 1.500000 0.125000
v 1.500000 1.391747 0.062500
v 1.500000 1.391747 -0.062500
v 1.501628 1.937500 0.176192
v 1.458876 1.500000 0.058731
v 1.373371 1.937500 -0.176192
v 1.416123 1.500000 -0.058731
v 1.501628 1.128663 0.290790
v 1.458876 1.449138 -0.029366
v 1.373371 1.433837 0.466982
v 1.416123 1.550862 0.029365
v 1.501628 1.433837 -0.466982
v 1.458876 1.550862 -0.029365
v 1.373371 1.128663 -0.290790
v 1.416123 1.449138 0.029366
vt 0.915969 0.056886
vt 0.919938 0.070312
vt 0.908031 0.083739
vt 0.912000 0.039063
vt 0.904000 0.054688
vt 0.904000 0.039063
vt 0.944000 0.039062
vt 0.936000 0.054688
vt 0.936000 0.039062
vt 0.928000 0.039062
vt 0.920000 0.054688
vt 0.920000 0.039062
vt 0.912000 0.054688
vt 0.952000 0.039062
vt 0.944000 0.054687
vt 0.928000 0.054688
vt 0.928000 0.054688
vt 0.944000 0.109375
vt 0.920000 0.109375
vt 0.920000 0.109375
vt 0.936000 0.054688
vt 0.944000 0.109375
vt 0.928000 0.054688
vt 0.944000 0.109375
vt 0.920000 0.109375
vt 0.915969 0.083739
vt 0.904062 0.070312
vt 0.908031 0.056886
vt 0.952000 0.054687
vt 0.936000 0.054688
vt 0.928000 0.054688
vt 0.936000 0.054688
vn 1.0000 0.0000 0.0000
vn 0.0000 -1.0000 0.0000
vn 0.0000 0.5000 0.8660
vn 0.0000 0.5000 -0.8660
vn 0.0000 -0.5000 -0.8660
vn 0.0000 -0.5000 0.8660
vn 0.0000 1.0000 0.0000
vn 0.9397 0.0000 -0.3420
vn 0.9397 0.2962 0.1710
vn 0.9397 -0.2962 0.1710
v 1.500000 0.250000 -3.125000
v 1.500000 0.250000 3.125000
v 1.250000 0.250000 3.125000
v 1.250000 0.250000 -3.125000
v 1.250000 0.000000 -3.125000
v 1.250000 0.000000 3.125000
v 1.500000 0.000000 3.125000
v 1.500000 0.000000 -3.125000
v 1.500000 0.000000 -3.500000
v 1.500000 0.000000 -3.125000
v 1.125000 0.000000 -3.500000
v 1.125000 0.000000 -3.125000
v 1.500000 0.375000 -3.500000
v 1.500000 0.375000 -3.125000
v 1.125000 0.375000 -3.500000
v 1.125000 0.375000 -3.125000
v -1.125000 0.000000 -3.500000
v -1.125000 0.000000 -3.125000
v -1.500000 0.000000 -3.500000
v -1.500000 0.000000 -3.125000
v -1.125000 0.375000 -3.500000
v -1.125000 0.375000 -3.125000
v -1.500000 0.375000 -3.500000
v -1.500000 0.375000 -3.125000
v 1.500000 0.000000 3.125000
v 1.500000 0.000000 3.500000
v 1.125000 0.000000 3.125000
v 1.125000 0.000000 3.500000
v 1.500000 0.375000 3.125000
v 1.500000 0.375000 3.500000
v 1.125000 0.375000 3.125000
v 1.125000 0.375000 3.500000
v -1.125000 0.000000 3.125000
v -1.125000 0.000000 3.500000
v -1.500000 0.000000 3.125000
v -1.500000 0.000000 3.500000
v -1.125000 0.375000 3.125000
v -1.125000 0.375000 3.500000
v -1.500000 0.375000 3.125000
v -1.500000 0.375000 3.500000
v 1.500000 2.625000 -3.500000
v 1.500000 2.625000 -3.125000
v 1.125000 2.625000 -3.500000
v 1.125000 2.625000 -3.125000
v 1.500000 3.000000 -3.500000
v 1.500000 3.000000 -3.125000
v 1.125000 3.000000 -3.500000
v 1.125000 3.000000 -3.125000
v -1.125000 2.625000 -3.500000
v -1.125000 2.625000 -3.125000
v -1.500000 2.625000 -3.500000
v -1.500000 2.625000 -3.125000
v -1.125000 3.000000 -3.500000
v -1.125000 3.000000 -3.125000
v -1.500000 3.000000 -3.500000
v -1.500000 3.000000 -3.125000
v 1.500000 2.625000 3.125000
v 1.500000 2.625000 3.500000
v 1.125000 2.625000 3.125000
v 1.125000 2.625000 3.500000
v 1.500000 3.000000 3.125000
v 1.500000 3.000000 3.500000
v 1.125000 3.000000 3.125000
v 1.125000 3.000000 3.500000
v -1.125000 2.625000 3.125000
v -1.125000 2.625000 3.500000
v -1.500000 2.625000 3.125000
v -1.500000 2.625000 3.500000
v -1.125000 3.000000 3.125000
v -1.125000 3.000000 3.500000
v -1.500000 3.000000 3.125000
v -1.500000 3.000000 3.500000
v 1.500000 3.000000 -3.125000
v 1.500000 3.000000 3.125000
v 1.250000 3.000000 3.125000
v 1.250000 3.000000 -3.125000
v 1.250000 2.750000 -3.125000
v 1.250000 2.750000 3.125000
v 1.500000 2.750000 3.125000
v 1.500000 2.750000 -3.125000
v -1.250000 0.250000 -3.125000
v -1.250000 0.250000 3.125000
v -1.500000 0.250000 3.125000
v -1.500000 0.250000 -3.125000
v -1.500000 0.000000 -3.125000
v -1.500000 0.000000 3.125000
v -1.250000 0.000000 3.125000
v -1.250000 0.000000 -3.125000
v -1.250000 3.000000 -3.125000
v -1.250000 3.000000 3.125000
v -1.500000 3.000000 3.125000
v -1.500000 3.000000 -3.125000
v -1.500000 2.750000 -3.125000
v -1.500000 2.750000 3.125000
v -1.250000 2.750000 3.125000
v -1.250000 2.750000 -3.125000
v 1.125000 0.000000 3.500000
v -1.125000 0.000000 3.500000
v 1.125000 0.000000 3.250000
v -1.125000 0.000000 3.250000
v 1.125000 0.250000 3.500000
v -1.125000 0.250000 3.500000
v 1.125000 0.250000 3.250000
v -1.125000 0.250000 3.250000
v 1.125000 0.000000 -3.250000
v -1.125000 0.000000 -3.250000
v 1.125000 0.000000 -3.500000
v -1.125000 0.000000 -3.500000
v 1.125000 0.250000 -3.250000
v -1.125000 0.250000 -3.250000
v 1.125000 0.250000 -3.500000
v -1.125000 0.250000 -3.500000
v 1.125000 2.750000 3.500000
v -1.125000 2.750000 3.500000
v 1.125000 2.750000 3.250000
v -1.125000 2.750000 3.250000
v 1.125000 3.000000 3.500000
v -1.125000 3.000000 3.500000
v 1.125000 3.000000 3.250000
v -1.125000 3.000000 3.250000
v 1.125000 2.750000 -3.250000
v -1.125000 2.750000 -3.250000
v 1.125000 2.750000 -3.500000
v -1.125000 2.750000 -3.500000
v 1.125000 3.000000 -3.250000
v -1.125000 3.000000 -3.250000
v 1.125000 3.000000 -3.500000
v -1.125000 3.000000 -3.500000
v -1.500000 0.375000 3.500000
v -1.500000 2.625000 3.500000
v -1.500000 0.375000 3.250000
v -1.500000 2.625000 3.250000
v -1.250000 0.375000 3.500000
v -1.250000 2.625000 3.500000
v -1.250000 0.375000 3.250000
v -1.250000 2.625000 3.250000
v 1.250000 0.375000 3.500000
v 1.250000 2.625000 3.500000
v 1.250000 0.375000 3.250000
v 1.250000 2.625000 3.250000
v 1.500000 0.375000 3.500000
v 1.500000 2.625000 3.500000
v 1.500000 0.375000 3.250000
v 1.500000 2.625000 3.250000
v -1.500000 0.375000 -3.250000
v -1.500000 2.625000 -3.250000
v -1.500000 0.375000 -3.500000
v -1.500000 2.625000 -3.500000
v -1.250000 0.375000 -3.250000
v -1.250000 2.625000 -3.250000
v -1.250000 0.375000 -3.500000
v -1.250000 2.625000 -3.500000
v 1.250000 0.375000 -3.250000
v 1.250000 2.625000 -3.250000
v 1.250000 0.375000 -3.500000
v 1.250000 2.625000 -3.500000
v 1.500000 0.375000 -3.250000
v 1.500000 2.625000 -3.250000
v 1.500000 0.375000 -3.500000
v 1.500000 2.625000 -3.500000
v 0.000000 3.000000 2.500000
v 0.000000 3.000000 2.750000
v 0.574025 2.885819 2.500000
v 0.574025 2.885819 2.750000
v 1.060660 2.560660 2.500000
v 1.060660 2.560660 2.750000
v 1.385819 2.074025 2.500000
v 1.385819 2.074025 2.750000
v 1.500000 1.500000 2.500000
v 1.500000 1.500000 2.750000
v 1.385819 0.925975 2.500000
v 1.385819 0.925975 2.750000
v 1.060660 0.439340 2.500000
v 1.060660 0.439340 2.750000
v 0.574025 0.114181 2.500000
v 0.574025 0.114181 2.750000
v 0.000000 0.000000 2.500000
v 0.000000 0.000000 2.750000
v -0.574025 0.114181 2.500000
v -0.574025 0.114181 2.750000
v -1.060660 0.439340 2.500000
v -1.060660 0.439340 2.750000
v -1.385819 0.925975 2.500000
v -1.385819 0.925975 2.750000
v -1.500000 1.500000 2.500000
v -1.500000 1.500000 2.750000
v -1.385819 2.074025 2.500000
v -1.385819 2.074025 2.750000
v -1.060660 2.560660 2.500000
v -1.060660 2.560660 2.750000
v -0.574024 2.885820 2.500000
v -0.574024 2.885820 2.750000
v 1.374999 1.500001 -2.750000
v 1.190784 1.500001 -3.093750
v 0.000000 2.690785 3.093750
v 0.000000 2.875000 2.750000
v 0.687499 1.500000 -3.345392
v -0.000000 2.690785 -3.093750
v 1.270334 0.973811 -2.750000
v 1.100142 1.044307 -3.093750
v 0.263095 2.135167 3.345392
v 0.455694 2.600142 3.093750
v 0.526190 2.770334 2.750000
v 0.574024 2.885820 -2.750000
v 0.574024 2.885820 -2.500000
v 0.635167 1.236906 -3.345392
v 0.972271 0.527729 -2.750000
v 0.486136 1.986136 3.345392
v 0.842012 2.342012 3.093750
v 0.972272 2.472272 2.750000
v 1.060659 2.560660 -2.750000
v 1.060659 2.560660 -2.500000
v 0.842011 0.657989 -3.093750
v 0.486135 1.013865 -3.345392
v 0.635167 1.763095 3.345392
v 1.100142 1.955694 3.093750
v 1.270334 2.026190 2.750000
v 1.385819 2.074025 -2.750000
v 1.385819 2.074025 -2.500000
v 0.526190 0.229666 -2.750000
v 0.455694 0.399859 -3.093750
v 0.687500 1.500000 3.345392
v 1.190784 1.500000 3.093750
v 1.375000 1.500000 2.750000
v 1.500000 1.500000 -2.750000
v 1.500000 1.500000 -2.500000
v 0.263094 0.864833 -3.345392
v 0.000000 0.125001 -2.750000
v 0.635167 1.236905 3.345392
v 1.100142 1.044307 3.093750
v 1.270334 0.973810 2.750000
v 1.385819 0.925975 -2.750000
v 1.385819 0.925975 -2.500000
v 0.000000 0.309216 -3.093750
v -0.000000 0.812500 -3.345392
v 0.486136 1.013864 3.345392
v 0.842011 0.657988 3.093750
v 0.972271 0.527729 2.750000
v 1.060659 0.439340 -2.750000
v 1.060659 0.439340 -2.500000
v -0.526189 0.229666 -2.750000
v -0.455693 0.399859 -3.093750
v 0.263095 0.864833 3.345392
v 0.455693 0.399859 3.093750
v 0.526189 0.229666 2.750000
v 0.574025 0.114181 -2.750000
v 0.574025 0.114181 -2.500000
v -0.263095 0.864833 -3.345392
v -0.972271 0.527729 -2.750000
v 0.000000 0.812500 3.345392
v -0.000000 0.309216 3.093750
v -0.000000 0.125001 2.750000
v -0.000000 0.000000 -2.750000
v -0.000000 0.000000 -2.500000
v -0.842012 0.657988 -3.093750
v -0.486136 1.013864 -3.345392
v -0.263095 0.864833 3.345392
v -0.455694 0.399859 3.093750
v -0.526190 0.229666 2.750000
v -0.574026 0.114181 -2.750000
v -0.574026 0.114181 -2.500000
v -1.270334 0.973810 -2.750000
v -1.100142 1.044307 -3.093750
v -0.486136 1.013865 3.345392
v -0.842012 0.657989 3.093750
v -0.972272 0.527729 2.750000
v -1.060660 0.439340 -2.750000
v -1.060660 0.439340 -2.500000
v -0.635167 1.236905 -3.345392
v -1.375000 1.500000 -2.750000
v -0.635167 1.236906 3.345392
v -1.100142 1.044307 3.093750
v -1.270334 0.973811 2.750000
v -1.385819 0.925975 -2.750000
v -1.385819 0.925975 -2.500000
v -1.190785 1.500000 -3.093750
v -0.687500 1.500000 -3.345392
v -0.687500 1.500000 3.345392
v -1.190784 1.500001 3.093750
v -1.375000 1.500001 2.750000
v -1.500000 1.500000 -2.750000
v -1.500000 1.500000 -2.500000
v -1.270334 2.026190 -2.750000
v -1.100142 1.955694 -3.093750
v -0.635167 1.763095 3.345392
v -1.100141 1.955694 3.093750
v -1.270334 2.026190 2.750000
v -1.385819 2.074025 -2.750000
v -1.385819 2.074025 -2.500000
v -0.635167 1.763095 -3.345392
v -0.972272 2.472272 -2.750000
v -0.486135 1.986136 3.345392
v -0.842011 2.342012 3.093750
v -0.972271 2.472272 2.750000
v -1.060660 2.560660 -2.750000
v -1.060660 2.560660 -2.500000
v -0.842012 2.342012 -3.093750
v -0.486136 1.986136 -3.345392
v -0.263094 2.135167 3.345392
v -0.455693 2.600142 3.093750
v -0.526189 2.770334 2.750000
v -0.574025 2.885819 -2.750000
v -0.574025 2.885819 -2.500000
v -0.526190 2.770334 -2.750000
v 0.000000 1.500000 3.437500
v 0.000000 2.187500 3.345392
v -0.455694 2.600142 -3.093750
v -0.263095 2.135167 -3.345392
v -0.000000 3.000000 -2.750000
v -0.000000 2.875000 -2.750000
v 0.000000 3.000000 -2.500000
v 0.635166 1.763095 -3.345392
v 1.100141 1.955694 -3.093750
v 1.270333 2.026190 -2.750000
v 0.486135 1.986136 -3.345392
v 0.842011 2.342012 -3.093750
v 0.972271 2.472272 -2.750000
v 0.263094 2.135167 -3.345392
v 0.455692 2.600142 -3.093750
v 0.526189 2.770334 -2.750000
v -0.000000 1.500000 -3.437500
v -0.000000 2.187500 -3.345392
v 0.000000 2.875000 2.500000
v 0.526190 2.770334 2.500000
v 0.972272 2.472272 2.500000
v 1.270334 2.026190 2.500000
v 1.375000 1.500000 2.500000
v 1.270334 0.973810 2.500000
v 0.972271 0.527729 2.500000
v 0.526189 0.229666 2.500000
v -0.000000 0.125001 2.500000
v -0.526190 0.229666 2.500000
v -0.972272 0.527729 2.500000
v -1.270334 0.973811 2.500000
v -1.375000 1.500001 2.500000
v -1.270334 2.026190 2.500000
v -0.972271 2.472272 2.500000
v -0.526189 2.770334 2.500000
v 0.000000 2.875000 -2.500000
v 0.526190 2.770334 -2.500000
v 0.972272 2.472272 -2.500000
v 1.270334 2.026190 -2.500000
v 1.375000 1.500000 -2.500000
v 1.270334 0.973810 -2.500000
v 0.972271 0.527729 -2.500000
v 0.526189 0.229666 -2.500000
v -0.000000 0.125001 -2.500000
v -0.526190 0.229666 -2.500000
v -0.972272 0.527729 -2.500000
v -1.270334 0.973811 -2.500000
v -1.375000 1.500001 -2.500000
v -1.270334 2.026190 -2.500000
v -0.972271 2.472272 -2.500000
v -0.526189 2.770334 -2.500000
v 1.375000 2.250000 1.500000
v 1.375000 0.750000 1.500000
v 1.375000 2.250000 -1.500000
v 1.375000 0.750000 -1.500000
v 1.000000 2.250000 -1.500000
v 1.000000 2.250000 1.500000
v 1.000000 0.750000 1.500000
v 1.000000 0.750000 -1.500000
v 1.375000 1.500000 -0.625000
v 1.375000 1.812500 -0.541266
v 1.375000 2.041266 -0.312500
v 1.375000 2.125000 0.000000
v 1.375000 2.041266 0.312500
v 1.375000 1.812500 0.541266
v 1.375000 1.500000 0.625000
v 1.375000 1.187500 0.541266
v 1.375000 0.958734 0.312500
v 1.375000 0.875000 0.000000
v 1.375000 0.958734 -0.312500
v 1.375000 1.187500 -0.541266
v 1.375000 1.500000 -0.500000
v 1.375000 1.750000 -0.433013
v 1.375000 1.933013 -0.250000
v 1.375000 2.000000 0.000000
v 1.375000 1.933013 0.250000
v 1.375000 1.750000 0.433013
v 1.375000 1.500000 0.500000
v 1.375000 1.250000 0.433013
v 1.375000 1.066987 0.250000
v 1.375000 1.000000 0.000000
v 1.375000 1.066987 -0.250000
v 1.375000 1.250000 -0.433013
v 1.625000 1.812500 -0.541266
v 1.625000 1.500000 -0.625000
v 1.625000 2.041266 -0.312500
v 1.625000 2.125000 0.000000
v 1.625000 2.041266 0.312500
v 1.625000 1.812500 0.541266
v 1.625000 1.500000 0.625000
v 1.625000 1.187500 0.541266
v 1.625000 0.958734 0.312500
v 1.625000 0.875000 0.000000
v 1.625000 0.958734 -0.312500
v 1.625000 1.187500 -0.541266
v 1.625000 1.750000 -0.433013
v 1.625000 1.500000 -0.500000
v 1.625000 1.933013 -0.250000
v 1.625000 2.000000 0.000000
v 1.625000 1.933013 0.250000
v 1.625000 1.750000 0.433013
v 1.625000 1.500000 0.500000
v 1.625000 1.250000 0.433013
v 1.625000 1.066987 0.250000
v 1.625000 1.000000 0.000000
v 1.625000 1.066987 -0.250000
v 1.625000 1.250000 -0.433013
v 1.562500 1.406250 0.500000
v 1.562500 1.343750 0.500000
v 1.562500 1.406250 -0.500000
v 1.562500 1.343750 -0.500000
v 1.562500 1.656250 0.500000
v 1.562500 1.593750 0.500000
v 1.562500 1.656250 -0.500000
v 1.562500 1.593750 -0.500000
v 1.562500 1.906250 0.375000
v 1.562500 1.843750 0.375000
v 1.562500 1.906250 -0.375000
v 1.562500 1.843750 -0.375000
v 1.562500 1.166250 0.375000
v 1.562500 1.103750 0.375000
v 1.562500 1.166250 -0.375000
v 1.562500 1.103750 -0.375000
v 1.375000 2.000000 -0.750000
v 1.375000 1.000000 -0.750000
v 1.375000 2.000000 -1.250000
v 1.375000 1.000000 -1.250000
v 1.500000 2.000000 -1.250000
v 1.500000 2.000000 -0.750000
v 1.500000 1.000000 -0.750000
v 1.500000 1.000000 -1.250000
v 1.375000 2.000000 1.250000
v 1.375000 1.000000 1.250000
v 1.375000 2.000000 0.750000
v 1.375000 1.000000 0.750000
v 1.500000 2.000000 0.750000
v 1.500000 2.000000 1.250000
v 1.500000 1.000000 1.250000
v 1.500000 1.000000 0.750000
v 1.250000 0.000000 -2.375000
v -1.250000 0.000000 -2.375000
v 1.250000 0.125000 -2.375000
v -1.250000 0.125000 -2.375000
v 1.250000 0.000000 -2.125000
v -1.250000 0.000000 -2.125000
v 1.250000 0.125000 -2.125000
v -1.250000 0.125000 -2.125000
v 1.250000 0.000000 2.125000
v -1.250000 0.000000 2.125000
v 1.250000 0.125000 2.125000
v -1.250000 0.125000 2.125000
v 1.250000 0.000000 2.375000
v -1.250000 0.000000 2.375000
v 1.250000 0.125000 2.375000
v -1.250000 0.125000 2.375000
v 1.250000 2.875000 -2.375000
v -1.250000 2.875000 -2.375000
v 1.250000 3.000000 -2.375000
v -1.250000 3.000000 -2.375000
v 1.250000 2.875000 -2.125000
v -1.250000 2.875000 -2.125000
v 1.250000 3.000000 -2.125000
v -1.250000 3.000000 -2.125000
v 1.250000 2.875000 2.125000
v -1.250000 2.875000 2.125000
v 1.250000 3.000000 2.125000
v -1.250000 3.000000 2.125000
v 1.250000 2.875000 2.375000
v -1.250000 2.875000 2.375000
v 1.250000 3.000000 2.375000
v -1.250000 3.000000 2.375000
v -1.500000 0.250000 -2.375000
v -1.500000 2.750000 -2.375000
v -1.375000 0.250000 -2.375000
v -1.375000 2.750000 -2.375000
v -1.500000 0.250000 -2.125000
v -1.500000 2.750000 -2.125000
v -1.375000 0.250000 -2.125000
v -1.375000 2.750000 -2.125000
v -1.500000 0.250000 2.125000
v -1.500000 2.750000 2.125000
v -1.375000 0.250000 2.125000
v -1.375000 2.750000 2.125000
v -1.500000 0.250000 2.375000
v -1.500000 2.750000 2.375000
v -1.375000 0.250000 2.375000
v -1.375000 2.750000 2.375000
v 1.375000 0.250000 -2.375000
v 1.375000 2.750000 -2.375000
v 1.500000 0.250000 -2.375000
v 1.500000 2.750000 -2.375000
v 1.375000 0.250000 -2.125000
v 1.375000 2.750000 -2.125000
v 1.500000 0.250000 -2.125000
v 1.500000 2.750000 -2.125000
v 1.375000 0.250000 2.125000
v 1.375000 2.750000 2.125000
v 1.500000 0.250000 2.125000
v 1.500000 2.750000 2.125000
v 1.375000 0.250000 2.375000
v 1.375000 2.750000 2.375000
v 1.500000 0.250000 2.375000
v 1.500000 2.750000 2.375000
v -1.375000 2.250000 -1.500000
v -1.375000 0.750000 -1.500000
v -1.375000 2.250000 1.500000
v -1.375000 0.750000 1.500000
v -1.000000 2.250000 1.500000
v -1.000000 2.250000 -1.500000
v -1.000000 0.750000 -1.500000
v -1.000000 0.750000 1.500000
v -1.375000 1.500000 0.625000
v -1.375000 1.812500 0.541266
v -1.375000 2.041266 0.312500
v -1.375000 2.125000 0.000000
v -1.375000 2.041266 -0.312500
v -1.375000 1.812500 -0.541266
v -1.375000 1.500000 -0.625000
v -1.375000 1.187500 -0.541266
v -1.375000 0.958734 -0.312500
v -1.375000 0.875000 -0.000000
v -1.375000 0.958734 0.312500
v -1.375000 1.187500 0.541266
v -1.375000 1.500000 0.500000
v -1.375000 1.750000 0.433013
v -1.375000 1.933013 0.250000
v -1.375000 2.000000 0.000000
v -1.375000 1.933013 -0.250000
v -1.375000 1.750000 -0.433013
v -1.375000 1.500000 -0.500000
v -1.375000 1.250000 -0.433013
v -1.375000 1.066987 -0.250000
v -1.375000 1.000000 -0.000000
v -1.375000 1.066987 0.250000
v -1.375000 1.250000 0.433013
v -1.625000 1.812500 0.541266
v -1.625000 1.500000 0.625000
v -1.625000 2.041266 0.312500
v -1.625000 2.125000 0.000000
v -1.625000 2.041266 -0.312500
v -1.625000 1.812500 -0.541266
v -1.625000 1.500000 -0.625000
v -1.625000 1.187500 -0.541266
v -1.625000 0.958734 -0.312500
v -1.625000 0.875000 -0.000000
v -1.625000 0.958734 0.312500
v -1.625000 1.187500 0.541266
v -1.625000 1.750000 0.433013
v -1.625000 1.500000 0.500000
v -1.625000 1.933013 0.250000
v -1.625000 2.000000 0.000000
v -1.625000 1.933013 -0.250000
v -1.625000 1.750000 -0.433013
v -1.625000 1.500000 -0.500000
v -1.625000 1.250000 -0.433013
v -1.625000 1.066987 -0.250000
v -1.625000 1.000000 -0.000000
v -1.625000 1.066987 0.250000
v -1.625000 1.250000 0.433013
v -1.562500 1.406250 -0.500000
v -1.562500 1.343750 -0.500000
v -1.562500 1.406250 0.500000
v -1.562500 1.343750 0.500000
v -1.562500 1.656250 -0.500000
v -1.562500 1.593750 -0.500000
v -1.562500 1.656250 0.500000
v -1.562500 1.593750 0.500000
v -1.562500 1.906250 -0.375000
v -1.562500 1.843750 -0.375000
v -1.562500 1.906250 0.375000
v -1.562500 1.843750 0.375000
v -1.562500 1.166250 -0.375000
v -1.562500 1.103750 -0.375000
v -1.562500 1.166250 0.375000
v -1.562500 1.103750 0.375000
v -1.375000 2.000000 0.750000
v -1.375000 1.000000 0.750000
v -1.375000 2.000000 1.250000
v -1.375000 1.000000 1.250000
v -1.500000 2.000000 1.250000
v -1.500000 2.000000 0.750000
v -1.500000 1.000000 0.750000
v -1.500000 1.000000 1.250000
v -1.375000 2.000000 -1.250000
v -1.375000 1.000000 -1.250000
v -1.375000 2.000000 -0.750000
v -1.375000 1.000000 -0.750000
v -1.500000 2.000000 -0.750000
v -1.500000 2.000000 -1.250000
v -1.500000 1.000000 -1.250000
v -1.500000 1.000000 -0.750000
v 1.125000 2.250000 -0.125000
v 1.036612 2.250000 -0.088388
v 1.000000 2.250000 0.000000
v 1.036612 2.250000 0.088388
v 1.125000 2.250000 0.125000
v 1.213388 2.250000 0.088388
v 1.250000 2.250000 -0.000000
v 1.213388 2.250000 -0.088388
v 1.125000 2.750000 -0.125000
v 1.036612 2.750000 -0.088388
v 1.000000 2.750000 0.000000
v 1.036612 2.750000 0.088388
v 1.125000 2.750000 0.125000
v 1.213388 2.750000 0.088388
v 1.250000 2.750000 -0.000000
v 1.213388 2.750000 -0.088388
v 1.088388 2.838388 -0.125000
v 1.025888 2.775888 -0.088388
v 1.025888 2.775888 0.088388
v 1.088388 2.838388 0.125000
v 1.150888 2.900888 0.088388
v 1.176777 2.926777 -0.000000
v 1.150888 2.900888 -0.088388
v 1.000000 2.875000 -0.125000
v 1.000000 2.786612 -0.088388
v 1.000000 2.786612 0.088388
v 1.000000 2.875000 0.125000
v 1.000000 2.963388 0.088388
v 1.000000 3.000000 -0.000000
v 1.000000 2.963388 -0.088388
v -1.125000 2.250000 0.125000
v -1.036612 2.250000 0.088388
v -1.000000 2.250000 0.000000
v -1.036612 2.250000 -0.088388
v -1.125000 2.250000 -0.125000
v -1.213388 2.250000 -0.088388
v -1.250000 2.250000 0.000000
v -1.213388 2.250000 0.088388
v -1.125000 2.750000 0.125000
v -1.036612 2.750000 0.088388
v -1.000000 2.750000 0.000000
v -1.036612 2.750000 -0.088388
v -1.125000 2.750000 -0.125000
v -1.213388 2.750000 -0.088388
v -1.250000 2.750000 0.000000
v -1.213388 2.750000 0.088388
v -1.088388 2.838388 0.125000
v -1.025888 2.775888 0.088388
v -1.025888 2.775888 -0.088388
v -1.088388 2.838388 -0.125000
v -1.150888 2.900888 -0.088388
v -1.176777 2.926777 0.000000
v -1.150888 2.900888 0.088388
v -1.000000 2.875000 0.125000
v -1.000000 2.786612 0.088388
v -1.000000 2.786612 -0.088388
v -1.000000 2.875000 -0.125000
v -1.000000 2.963388 -0.088388
v -1.000000 3.000000 0.000000
v -1.000000 2.963388 0.088388
v -0.500000 3.125000 1.000000
v 0.500000 3.125000 1.000000
v -0.500000 3.125000 -1.000000
v 0.500000 3.125000 -1.000000
v -0.500000 2.750000 -1.000000
v -0.500000 2.750000 1.000000
v 0.500000 2.750000 1.000000
v 0.500000 2.750000 -1.000000
v 0.000000 1.750000 -3.500000
v -0.176777 1.676777 -3.500000
v -0.250000 1.500000 -3.500000
v -0.176777 1.323223 -3.500000
v 0.000000 1.250000 -3.500000
v 0.176777 1.323223 -3.500000
v 0.250000 1.500000 -3.500000
v 0.176777 1.676777 -3.500000
v -0.176777 1.676777 -3.375000
v 0.000000 1.750000 -3.375000
v -0.250000 1.500000 -3.375000
v -0.176777 1.323223 -3.375000
v 0.000000 1.250000 -3.375000
v 0.176777 1.323223 -3.375000
v 0.250000 1.500000 -3.375000
v 0.176777 1.676777 -3.375000
v 0.000000 1.750000 3.500000
v 0.176777 1.676777 3.500000
v 0.250000 1.500000 3.500000
v 0.176777 1.323223 3.500000
v 0.000000 1.250000 3.500000
v -0.176776 1.323223 3.500000
v -0.250000 1.500000 3.500000
v -0.176776 1.676777 3.500000
v 0.176777 1.676777 3.375000
v 0.000000 1.750000 3.375000
v 0.250000 1.500000 3.375000
v 0.176777 1.323223 3.375000
v 0.000000 1.250000 3.375000
v -0.176776 1.323223 3.375000
v -0.250000 1.500000 3.375000
v -0.176776 1.676777 3.375000
v -0.500000 -0.125000 -1.000000
v 0.500000 -0.125000 -1.000000
v -0.500000 -0.125000 1.000000
v 0.500000 -0.125000 1.000000
v -0.500000 0.250000 1.000000
v -0.500000 0.250000 -1.000000
v 0.500000 0.250000 -1.000000
v 0.500000 0.250000 1.000000
v 1.125000 2.250000 -0.375000
v 1.036612 2.250000 -0.338388
v 1.000000 2.250000 -0.250000
v 1.036612 2.250000 -0.161612
v 1.125000 2.250000 -0.125000
v 1.213388 2.250000 -0.161612
v 1.250000 2.250000 -0.250000
v 1.213388 2.250000 -0.338388
v 1.125000 2.750000 -0.375000
v 1.036612 2.750000 -0.338388
v 1.000000 2.750000 -0.250000
v 1.036612 2.750000 -0.161612
v 1.125000 2.750000 -0.125000
v 1.213388 2.750000 -0.161612
v 1.250000 2.750000 -0.250000
v 1.213388 2.750000 -0.338388
v 1.088388 2.838388 -0.375000
v 1.025888 2.775888 -0.338388
v 1.025888 2.775888 -0.161612
v 1.088388 2.838388 -0.125000
v 1.150888 2.900888 -0.161612
v 1.176777 2.926777 -0.250000
v 1.150888 2.900888 -0.338388
v 1.000000 2.875000 -0.375000
v 1.000000 2.786612 -0.338388
v 1.000000 2.786612 -0.161612
v 1.000000 2.875000 -0.125000
v 1.000000 2.963388 -0.161612
v 1.000000 3.000000 -0.250000
v 1.000000 2.963388 -0.338388
v -1.125000 2.250000 -0.125000
v -1.036612 2.250000 -0.161612
v -1.000000 2.250000 -0.250000
v -1.036612 2.250000 -0.338388
v -1.125000 2.250000 -0.375000
v -1.213388 2.250000 -0.338388
v -1.250000 2.250000 -0.250000
v -1.213388 2.250000 -0.161612
v -1.125000 2.750000 -0.125000
v -1.036612 2.750000 -0.161612
v -1.000000 2.750000 -0.250000
v -1.036612 2.750000 -0.338388
v -1.125000 2.750000 -0.375000
v -1.213388 2.750000 -0.338388
v -1.250000 2.750000 -0.250000
v -1.213388 2.750000 -0.161612
v -1.088388 2.838388 -0.125000
v -1.025888 2.775888 -0.161612
v -1.025888 2.775888 -0.338388
v -1.088388 2.838388 -0.375000
v -1.150888 2.900888 -0.338388
v -1.176777 2.926777 -0.250000
v -1.150888 2.900888 -0.161612
v -1.000000 2.875000 -0.125000
v -1.000000 2.786612 -0.161612
v -1.000000 2.786612 -0.338388
v -1.000000 2.875000 -0.375000
v -1.000000 2.963388 -0.338388
v -1.000000 3.000000 -0.250000
v -1.000000 2.963388 -0.161612
v 1.125000 2.250000 -0.625000
v 1.036612 2.250000 -0.588388
v 1.000000 2.250000 -0.500000
v 1.036612 2.250000 -0.411612
v 1.125000 2.250000 -0.375000
v 1.213388 2.250000 -0.411612
v 1.250000 2.250000 -0.500000
v 1.213388 2.250000 -0.588388
v 1.125000 2.750000 -0.625000
v 1.036612 2.750000 -0.588388
v 1.000000 2.750000 -0.500000
v 1.036612 2.750000 -0.411612
v 1.125000 2.750000 -0.375000
v 1.213388 2.750000 -0.411612
v 1.250000 2.750000 -0.500000
v 1.213388 2.750000 -0.588388
v 1.088388 2.838388 -0.625000
v 1.025888 2.775888 -0.588388
v 1.025888 2.775888 -0.411612
v 1.088388 2.838388 -0.375000
v 1.150888 2.900888 -0.411612
v 1.176777 2.926777 -0.500000
v 1.150888 2.900888 -0.588388
v 1.000000 2.875000 -0.625000
v 1.000000 2.786612 -0.588388
v 1.000000 2.786612 -0.411612
v 1.000000 2.875000 -0.375000
v 1.000000 2.963388 -0.411612
v 1.000000 3.000000 -0.500000
v 1.000000 2.963388 -0.588388
v -1.125000 2.250000 -0.375000
v -1.036612 2.250000 -0.411612
v -1.000000 2.250000 -0.500000
v -1.036612 2.250000 -0.588388
v -1.125000 2.250000 -0.625000
v -1.213388 2.250000 -0.588388
v -1.250000 2.250000 -0.500000
v -1.213388 2.250000 -0.411612
v -1.125000 2.750000 -0.375000
v -1.036612 2.750000 -0.411612
v -1.000000 2.750000 -0.500000
v -1.036612 2.750000 -0.588388
v -1.125000 2.750000 -0.625000
v -1.213388 2.750000 -0.588388
v -1.250000 2.750000 -0.500000
v -1.213388 2.750000 -0.411612
v -1.088388 2.838388 -0.375000
v -1.025888 2.775888 -0.411612
v -1.025888 2.775888 -0.588388
v -1.088388 2.838388 -0.625000
v -1.150888 2.900888 -0.588388
v -1.176777 2.926777 -0.500000
v -1.150888 2.900888 -0.411612
v -1.000000 2.875000 -0.375000
v -1.000000 2.786612 -0.411612
v -1.000000 2.786612 -0.588388
v -1.000000 2.875000 -0.625000
v -1.000000 2.963388 -0.588388
v -1.000000 3.000000 -0.500000
v -1.000000 2.963388 -0.411612
v 1.125000 2.250000 0.375000
v 1.036612 2.250000 0.411612
v 1.000000 2.250000 0.500000
v 1.036612 2.250000 0.588388
v 1.125000 2.250000 0.625000
v 1.213388 2.250000 0.588388
v 1.250000 2.250000 0.500000
v 1.213388 2.250000 0.411612
v 1.125000 2.750000 0.375000
v 1.036612 2.750000 0.411612
v 1.000000 2.750000 0.500000
v 1.036612 2.750000 0.588388
v 1.125000 2.750000 0.625000
v 1.213388 2.750000 0.588388
v 1.250000 2.750000 0.500000
v 1.213388 2.750000 0.411612
v 1.088388 2.838388 0.375000
v 1.025888 2.775888 0.411612
v 1.025888 2.775888 0.588388
v 1.088388 2.838388 0.625000
v 1.150888 2.900888 0.588388
v 1.176777 2.926777 0.500000
v 1.150888 2.900888 0.411612
v 1.000000 2.875000 0.375000
v 1.000000 2.786612 0.411612
v 1.000000 2.786612 0.588388
v 1.000000 2.875000 0.625000
v 1.000000 2.963388 0.588388
v 1.000000 3.000000 0.500000
v 1.000000 2.963388 0.411612
v -1.125000 2.250000 0.625000
v -1.036612 2.250000 0.588388
v -1.000000 2.250000 0.500000
v -1.036612 2.250000 0.411612
v -1.125000 2.250000 0.375000
v -1.213388 2.250000 0.411612
v -1.250000 2.250000 0.500000
v -1.213388 2.250000 0.588388
v -1.125000 2.750000 0.625000
v -1.036612 2.750000 0.588388
v -1.000000 2.750000 0.500000
v -1.036612 2.750000 0.411612
v -1.125000 2.750000 0.375000
v -1.213388 2.750000 0.411612
v -1.250000 2.750000 0.500000
v -1.213388 2.750000 0.588388
v -1.088388 2.838388 0.625000
v -1.025888 2.775888 0.588388
v -1.025888 2.775888 0.411612
v -1.088388 2.838388 0.375000
v -1.150888 2.900888 0.411612
v -1.176777 2.926777 0.500000
v -1.150888 2.900888 0.588388
v -1.000000 2.875000 0.625000
v -1.000000 2.786612 0.588388
v -1.000000 2.786612 0.411612
v -1.000000 2.875000 0.375000
v -1.000000 2.963388 0.411612
v -1.000000 3.000000 0.500000
v -1.000000 2.963388 0.588388
v 1.125000 2.250000 0.125000
v 1.036612 2.250000 0.161612
v 1.000000 2.250000 0.250000
v 1.036612 2.250000 0.338388
v 1.125000 2.250000 0.375000
v 1.213388 2.250000 0.338388
v 1.250000 2.250000 0.250000
v 1.213388 2.250000 0.161612
v 1.125000 2.750000 0.125000
v 1.036612 2.750000 0.161612
v 1.000000 2.750000 0.250000
v 1.036612 2.750000 0.338388
v 1.125000 2.750000 0.375000
v 1.213388 2.750000 0.338388
v 1.250000 2.750000 0.250000
v 1.213388 2.750000 0.161612
v 1.088388 2.838388 0.125000
v 1.025888 2.775888 0.161612
v 1.025888 2.775888 0.338388
v 1.088388 2.838388 0.375000
v 1.150888 2.900888 0.338388
v 1.176777 2.926777 0.250000
v 1.150888 2.900888 0.161612
v 1.000000 2.875000 0.125000
v 1.000000 2.786612 0.161612
v 1.000000 2.786612 0.338388
v 1.000000 2.875000 0.375000
v 1.000000 2.963388 0.338388
v 1.000000 3.000000 0.250000
v 1.000000 2.963388 0.161612
v -1.125000 2.250000 0.375000
v -1.036612 2.250000 0.338388
v -1.000000 2.250000 0.250000
v -1.036612 2.250000 0.161612
v -1.125000 2.250000 0.125000
v -1.213388 2.250000 0.161612
v -1.250000 2.250000 0.250000
v -1.213388 2.250000 0.338388
v -1.125000 2.750000 0.375000
v -1.036612 2.750000 0.338388
v -1.000000 2.750000 0.250000
v -1.036612 2.750000 0.161612
v -1.125000 2.750000 0.125000
v -1.213388 2.750000 0.161612
v -1.250000 2.750000 0.250000
v -1.213388 2.750000 0.338388
v -1.088388 2.838388 0.375000
v -1.025888 2.775888 0.338388
v -1.025888 2.775888 0.161612
v -1.088388 2.838388 0.125000
v -1.150888 2.900888 0.161612
v -1.176777 2.926777 0.250000
v -1.150888 2.900888 0.338388
v -1.000000 2.875000 0.375000
v -1.000000 2.786612 0.338388
v -1.000000 2.786612 0.161612
v -1.000000 2.875000 0.125000
v -1.000000 2.963388 0.161612
v -1.000000 3.000000 0.250000
v -1.000000 2.963388 0.338388
v 1.125000 0.750000 0.125000
v 1.036612 0.750000 0.088388
v 1.000000 0.750000 -0.000000
v 1.036612 0.750000 -0.088388
v 1.125000 0.750000 -0.125000
v 1.213388 0.750000 -0.088388
v 1.250000 0.750000 -0.000000
v 1.213388 0.750000 0.088388
v 1.125000 0.250000 0.125000
v 1.036612 0.250000 0.088388
v 1.000000 0.250000 -0.000000
v 1.036612 0.250000 -0.088389
v 1.125000 0.250000 -0.125000
v 1.213388 0.250000 -0.088389
v 1.250000 0.250000 -0.000000
v 1.213388 0.250000 0.088388
v 1.088388 0.161612 0.125000
v 1.025888 0.224112 0.088388
v 1.025888 0.224112 -0.088389
v 1.088388 0.161612 -0.125000
v 1.150888 0.099112 -0.088389
v 1.176777 0.073223 -0.000000
v 1.150888 0.099112 0.088388
v 1.000000 0.125000 0.125000
v 1.000000 0.213388 0.088388
v 1.000000 0.213388 -0.088389
v 1.000000 0.125000 -0.125000
v 1.000000 0.036612 -0.088389
v 1.000000 0.000000 -0.000000
v 1.000000 0.036612 0.088388
v -1.125000 0.750000 -0.125000
v -1.036612 0.750000 -0.088388
v -1.000000 0.750000 -0.000000
v -1.036612 0.750000 0.088388
v -1.125000 0.750000 0.125000
v -1.213388 0.750000 0.088388
v -1.250000 0.750000 -0.000000
v -1.213388 0.750000 -0.088388
v -1.125000 0.250000 -0.125000
v -1.036612 0.250000 -0.088389
v -1.000000 0.250000 -0.000000
v -1.036612 0.250000 0.088388
v -1.125000 0.250000 0.125000
v -1.213388 0.250000 0.088388
v -1.250000 0.250000 -0.000000
v -1.213388 0.250000 -0.088389
v -1.088388 0.161612 -0.125000
v -1.025888 0.224112 -0.088389
v -1.025888 0.224112 0.088388
v -1.088388 0.161612 0.125000
v -1.150888 0.099112 0.088388
v -1.176777 0.073223 -0.000000
v -1.150888 0.099112 -0.088389
v -1.000000 0.125000 -0.125000
v -1.000000 0.213388 -0.088389
v -1.000000 0.213388 0.088388
v -1.000000 0.125000 0.125000
v -1.000000 0.036612 0.088388
v -1.000000 0.000000 -0.000000
v -1.000000 0.036612 -0.088389
v 1.125000 0.750000 0.375000
v 1.036612 0.750000 0.338388
v 1.000000 0.750000 0.250000
v 1.036612 0.750000 0.161611
v 1.125000 0.750000 0.125000
v 1.213388 0.750000 0.161612
v 1.250000 0.750000 0.250000
v 1.213388 0.750000 0.338388
v 1.125000 0.250000 0.375000
v 1.036612 0.250000 0.338388
v 1.000000 0.250000 0.250000
v 1.036612 0.250000 0.161611
v 1.125000 0.250000 0.125000
v 1.213388 0.250000 0.161611
v 1.250000 0.250000 0.250000
v 1.213388 0.250000 0.338388
v 1.088388 0.161612 0.375000
v 1.025888 0.224112 0.338388
v 1.025888 0.224112 0.161611
v 1.088388 0.161612 0.125000
v 1.150888 0.099112 0.161611
v 1.176777 0.073223 0.250000
v 1.150888 0.099112 0.338388
v 1.000000 0.125000 0.375000
v 1.000000 0.213388 0.338388
v 1.000000 0.213388 0.161611
v 1.000000 0.125000 0.125000
v 1.000000 0.036612 0.161611
v 1.000000 0.000000 0.250000
v 1.000000 0.036612 0.338388
v -1.125000 0.750000 0.125000
v -1.036612 0.750000 0.161611
v -1.000000 0.750000 0.250000
v -1.036612 0.750000 0.338388
v -1.125000 0.750000 0.375000
v -1.213388 0.750000 0.338388
v -1.250000 0.750000 0.250000
v -1.213388 0.750000 0.161611
v -1.125000 0.250000 0.125000
v -1.036612 0.250000 0.161611
v -1.000000 0.250000 0.250000
v -1.036612 0.250000 0.338388
v -1.125000 0.250000 0.375000
v -1.213388 0.250000 0.338388
v -1.250000 0.250000 0.250000
v -1.213388 0.250000 0.161611
v -1.088388 0.161612 0.125000
v -1.025888 0.224112 0.161611
v -1.025888 0.224112 0.338388
v -1.088388 0.161612 0.375000
v -1.150888 0.099112 0.338388
v -1.176777 0.073223 0.250000
v -1.150888 0.099112 0.161611
v -1.000000 0.125000 0.125000
v -1.000000 0.213388 0.161611
v -1.000000 0.213388 0.338388
v -1.000000 0.125000 0.375000
v -1.000000 0.036612 0.338388
v -1.000000 0.000000 0.250000
v -1.000000 0.036612 0.161611
v 1.125000 0.750000 0.625000
v 1.036612 0.750000 0.588388
v 1.000000 0.750000 0.500000
v 1.036612 0.750000 0.411612
v 1.125000 0.750000 0.375000
v 1.213388 0.750000 0.411612
v 1.250000 0.750000 0.500000
v 1.213388 0.750000 0.588388
v 1.125000 0.250000 0.625000
v 1.036612 0.250000 0.588388
v 1.000000 0.250000 0.500000
v 1.036612 0.250000 0.411611
v 1.125000 0.250000 0.375000
v 1.213388 0.250000 0.411611
v 1.250000 0.250000 0.500000
v 1.213388 0.250000 0.588388
v 1.088388 0.161612 0.625000
v 1.025888 0.224112 0.588388
v 1.025888 0.224112 0.411611
v 1.088388 0.161612 0.375000
v 1.150888 0.099112 0.411611
v 1.176777 0.073223 0.500000
v 1.150888 0.099112 0.588388
v 1.000000 0.125000 0.625000
v 1.000000 0.213388 0.588388
v 1.000000 0.213388 0.411611
v 1.000000 0.125000 0.375000
v 1.000000 0.036612 0.411611
v 1.000000 0.000000 0.500000
v 1.000000 0.036612 0.588388
v -1.125000 0.750000 0.375000
v -1.036612 0.750000 0.411612
v -1.000000 0.750000 0.500000
v -1.036612 0.750000 0.588388
v -1.125000 0.750000 0.625000
v -1.213388 0.750000 0.588388
v -1.250000 0.750000 0.500000
v -1.213388 0.750000 0.411612
v -1.125000 0.250000 0.375000
v -1.036612 0.250000 0.411611
v -1.000000 0.250000 0.500000
v -1.036612 0.250000 0.588388
v -1.125000 0.250000 0.625000
v -1.213388 0.250000 0.588388
v -1.250000 0.250000 0.500000
v -1.213388 0.250000 0.411611
v -1.088388 0.161612 0.375000
v -1.025888 0.224112 0.411611
v -1.025888 0.224112 0.588388
v -1.088388 0.161612 0.625000
v -1.150888 0.099112 0.588388
v -1.176777 0.073223 0.500000
v -1.150888 0.099112 0.411611
v -1.000000 0.125000 0.375000
v -1.000000 0.213388 0.411611
v -1.000000 0.213388 0.588388
v -1.000000 0.125000 0.625000
v -1.000000 0.036612 0.588388
v -1.000000 0.000000 0.500000
v -1.000000 0.036612 0.411611
v 1.125000 0.750000 -0.375000
v 1.036612 0.750000 -0.411612
v 1.000000 0.750000 -0.500000
v 1.036612 0.750000 -0.588389
v 1.125000 0.750000 -0.625000
v 1.213388 0.750000 -0.588389
v 1.250000 0.750000 -0.500000
v 1.213388 0.750000 -0.411612
v 1.125000 0.250000 -0.375000
v 1.036612 0.250000 -0.411612
v 1.000000 0.250000 -0.500000
v 1.036612 0.250000 -0.588389
v 1.125000 0.250000 -0.625000
v 1.213388 0.250000 -0.588389
v 1.250000 0.250000 -0.500000
v 1.213388 0.250000 -0.411612
v 1.088388 0.161612 -0.375000
v 1.025888 0.224112 -0.411612
v 1.025888 0.224112 -0.588389
v 1.088388 0.161612 -0.625000
v 1.150888 0.099112 -0.588389
v 1.176777 0.073223 -0.500000
v 1.150888 0.099112 -0.411612
v 1.000000 0.125000 -0.375000
v 1.000000 0.213388 -0.411612
v 1.000000 0.213388 -0.588389
v 1.000000 0.125000 -0.625000
v 1.000000 0.036612 -0.588389
v 1.000000 0.000000 -0.500000
v 1.000000 0.036612 -0.411612
v -1.125000 0.750000 -0.625000
v -1.036612 0.750000 -0.588389
v -1.000000 0.750000 -0.500000
v -1.036612 0.750000 -0.411612
v -1.125000 0.750000 -0.375000
v -1.213388 0.750000 -0.411612
v -1.250000 0.750000 -0.500000
v -1.213388 0.750000 -0.588389
v -1.125000 0.250000 -0.625000
v -1.036612 0.250000 -0.588389
v -1.000000 0.250000 -0.500000
v -1.036612 0.250000 -0.411612
v -1.125000 0.250000 -0.375000
v -1.213388 0.250000 -0.411612
v -1.250000 0.250000 -0.500000
v -1.213388 0.250000 -0.588389
v -1.088388 0.161612 -0.625000
v -1.025888 0.224112 -0.588389
v -1.025888 0.224112 -0.411612
v -1.088388 0.161612 -0.375000
v -1.150888 0.099112 -0.411612
v -1.176777 0.073223 -0.500000
v -1.150888 0.099112 -0.588389
v -1.000000 0.125000 -0.625000
v -1.000000 0.213388 -0.588389
v -1.000000 0.213388 -0.411612
v -1.000000 0.125000 -0.375000
v -1.000000 0.036612 -0.411612
v -1.000000 0.000000 -0.500000
v -1.000000 0.036612 -0.588389
v 1.125000 0.750000 -0.125000
v 1.036612 0.750000 -0.161612
v 1.000000 0.750000 -0.250000
v 1.036612 0.750000 -0.338388
v 1.125000 0.750000 -0.375000
v 1.213388 0.750000 -0.338388
v 1.250000 0.750000 -0.250000
v 1.213388 0.750000 -0.161612
v 1.125000 0.250000 -0.125000
v 1.036612 0.250000 -0.161612
v 1.000000 0.250000 -0.250000
v 1.036612 0.250000 -0.338389
v 1.125000 0.250000 -0.375000
v 1.213388 0.250000 -0.338389
v 1.250000 0.250000 -0.250000
v 1.213388 0.250000 -0.161612
v 1.088388 0.161612 -0.125000
v 1.025888 0.224112 -0.161612
v 1.025888 0.224112 -0.338389
v 1.088388 0.161612 -0.375000
v 1.150888 0.099112 -0.338389
v 1.176777 0.073223 -0.250000
v 1.150888 0.099112 -0.161612
v 1.000000 0.125000 -0.125000
v 1.000000 0.213388 -0.161612
v 1.000000 0.213388 -0.338389
v 1.000000 0.125000 -0.375000
v 1.000000 0.036612 -0.338389
v 1.000000 0.000000 -0.250000
v 1.000000 0.036612 -0.161612
v -1.125000 0.750000 -0.375000
v -1.036612 0.750000 -0.338388
v -1.000000 0.750000 -0.250000
v -1.036612 0.750000 -0.161612
v -1.125000 0.750000 -0.125000
v -1.213388 0.750000 -0.161612
v -1.250000 0.750000 -0.250000
v -1.213388 0.750000 -0.338388
v -1.125000 0.250000 -0.375000
v -1.036612 0.250000 -0.338389
v -1.000000 0.250000 -0.250000
v -1.036612 0.250000 -0.161612
v -1.125000 0.250000 -0.125000
v -1.213388 0.250000 -0.161612
v -1.250000 0.250000 -0.250000
v -1.213388 0.250000 -0.338389
v -1.088388 0.161612 -0.375000
v -1.025888 0.224112 -0.338389
v -1.025888 0.224112 -0.161612
v -1.088388 0.161612 -0.125000
v -1.150888 0.099112 -0.161612
v -1.176777 0.073223 -0.250000
v -1.150888 0.099112 -0.338389
v -1.000000 0.125000 -0.375000
v -1.000000 0.213388 -0.338389
v -1.000000 0.213388 -0.161612
v -1.000000 0.125000 -0.125000
v -1.000000 0.036612 -0.161612
v -1.000000 0.000000 -0.250000
v -1.000000 0.036612 -0.338389
vt 0.600000 0.046875
vt 0.576000 -0.000000
vt 0.600000 -0.000000
vt 0.600000 0.046875
vt 0.576000 -0.000000
vt 0.600000 -0.000000
vt 0.600000 0.046875
vt 0.576000 0.000000
vt 0.600000 0.000000
vt 0.600000 0.046875
vt 0.576000 0.000000
vt 0.600000 0.000000
vt 0.576000 0.000000
vt 0.600000 0.000000
vt 0.576000 0.046875
vt 0.600000 0.046875
vt 0.600000 0.046875
vt 0.576000 -0.000000
vt 0.600000 -0.000000
vt 0.600000 0.046875
vt 0.576000 -0.000000
vt 0.600000 -0.000000
vt 0.600000 0.046875
vt 0.576000 0.000000
vt 0.600000 0.000000
vt 0.600000 0.046875
vt 0.576000 0.000000
vt 0.600000 0.000000
vt 0.576000 0.000000
vt 0.600000 0.000000
vt 0.576000 0.046875
vt 0.600000 0.046875
vt 0.600000 0.046875
vt 0.576000 -0.000000
vt 0.600000 -0.000000
vt 0.600000 0.046875
vt 0.576000 -0.000000
vt 0.600000 -0.000000
vt 0.600000 0.046875
vt 0.576000 0.000000
vt 0.600000 0.000000
vt 0.600000 0.046875
vt 0.576000 0.000000
vt 0.600000 0.000000
vt 0.576000 0.000000
vt 0.600000 0.000000
vt 0.576000 0.046875
vt 0.600000 0.046875
vt 0.600000 0.046875
vt 0.576000 -0.000000
vt 0.600000 -0.000000
vt 0.600000 0.046875
vt 0.576000 -0.000000
vt 0.600000 -0.000000
vt 0.600000 0.046875
vt 0.576000 0.000000
vt 0.600000 0.000000
vt 0.600000 0.046875
vt 0.576000 0.000000
vt 0.600000 0.000000
vt 0.576000 0.000000
vt 0.600000 0.000000
vt 0.576000 0.046875
vt 0.600000 0.046875
vt 0.600000 0.046875
vt 0.576000 -0.000000
vt 0.600000 -0.000000
vt 0.600000 0.046875
vt 0.576000 -0.000000
vt 0.600000 -0.000000
vt 0.600000 0.046875
vt 0.576000 0.000000
vt 0.600000 0.000000
vt 0.600000 0.046875
vt 0.576000 0.000000
vt 0.600000 0.000000
vt 0.576000 0.000000
vt 0.600000 0.000000
vt 0.576000 0.046875
vt 0.600000 0.046875
vt 0.600000 0.046875
vt 0.576000 -0.000000
vt 0.600000 -0.000000
vt 0.600000 0.046875
vt 0.576000 -0.000000
vt 0.600000 -0.000000
vt 0.600000 0.046875
vt 0.576000 0.000000
vt 0.600000 0.000000
vt 0.600000 0.046875
vt 0.576000 0.000000
vt 0.600000 0.000000
vt 0.576000 0.000000
vt 0.600000 0.000000
vt 0.576000 0.046875
vt 0.600000 0.046875
vt 0.600000 0.046875
vt 0.576000 -0.000000
vt 0.600000 -0.000000
vt 0.600000 0.046875
vt 0.576000 -0.000000
vt 0.600000 -0.000000
vt 0.600000 0.046875
vt 0.576000 0.000000
vt 0.600000 0.000000
vt 0.600000 0.046875
vt 0.576000 0.000000
vt 0.600000 0.000000
vt 0.576000 0.000000
vt 0.600000 0.000000
vt 0.576000 0.046875
vt 0.600000 0.046875
vt 0.600000 0.046875
vt 0.576000 -0.000000
vt 0.600000 -0.000000
vt 0.600000 0.046875
vt 0.576000 -0.000000
vt 0.600000 -0.000000
vt 0.600000 0.046875
vt 0.576000 0.000000
vt 0.600000 0.000000
vt 0.600000 0.046875
vt 0.576000 0.000000
vt 0.600000 0.000000
vt 0.576000 0.000000
vt 0.600000 0.000000
vt 0.576000 0.046875
vt 0.600000 0.046875
vt 0.600000 -0.000000
vt 1.000000 0.031250
vt 0.600000 0.031250
vt 1.000000 0.031250
vt 0.600000 -0.000000
vt 1.000000 -0.000000
vt 0.600000 -0.000000
vt 1.000000 0.031250
vt 0.600000 0.031250
vt 0.600000 0.031250
vt 1.000000 -0.000000
vt 1.000000 0.031250
vt 0.600000 -0.000000
vt 1.000000 0.031250
vt 0.600000 0.031250
vt 1.000000 0.031250
vt 0.600000 -0.000000
vt 1.000000 -0.000000
vt 0.600000 -0.000000
vt 1.000000 0.031250
vt 0.600000 0.031250
vt 0.600000 0.031250
vt 1.000000 -0.000000
vt 1.000000 0.031250
vt 0.600000 -0.000000
vt 1.000000 0.031250
vt 0.600000 0.031250
vt 1.000000 0.031250
vt 0.600000 -0.000000
vt 1.000000 -0.000000
vt 0.600000 -0.000000
vt 1.000000 0.031250
vt 0.600000 0.031250
vt 0.600000 0.031250
vt 1.000000 -0.000000
vt 1.000000 0.031250
vt 0.600000 -0.000000
vt 1.000000 0.031250
vt 0.600000 0.031250
vt 1.000000 0.031250
vt 0.600000 -0.000000
vt 1.000000 -0.000000
vt 0.600000 -0.000000
vt 1.000000 0.031250
vt 0.600000 0.031250
vt 0.600000 0.031250
vt 1.000000 -0.000000
vt 1.000000 0.031250
vt 0.600000 0.062500
vt 0.744000 0.031250
vt 0.744000 0.062500
vt 0.600000 0.062500
vt 0.744000 0.031250
vt 0.744000 0.062500
vt 0.744000 0.031250
vt 0.600000 0.062500
vt 0.600000 0.031250
vt 0.744000 0.031250
vt 0.600000 0.062500
vt 0.600000 0.031250
vt 0.600000 0.062500
vt 0.744000 0.031250
vt 0.744000 0.062500
vt 0.600000 0.062500
vt 0.744000 0.031250
vt 0.744000 0.062500
vt 0.744000 0.031250
vt 0.600000 0.062500
vt 0.600000 0.031250
vt 0.744000 0.031250
vt 0.600000 0.062500
vt 0.600000 0.031250
vt 0.600000 0.062500
vt 0.744000 0.031250
vt 0.744000 0.062500
vt 0.600000 0.062500
vt 0.744000 0.031250
vt 0.744000 0.062500
vt 0.744000 0.031250
vt 0.600000 0.062500
vt 0.600000 0.031250
vt 0.744000 0.031250
vt 0.600000 0.062500
vt 0.600000 0.031250
vt 0.600000 0.062500
vt 0.744000 0.031250
vt 0.744000 0.062500
vt 0.600000 0.062500
vt 0.744000 0.031250
vt 0.744000 0.062500
vt 0.744000 0.031250
vt 0.600000 0.062500
vt 0.600000 0.031250
vt 0.744000 0.031250
vt 0.600000 0.062500
vt 0.600000 0.031250
vt 0.600000 0.062500
vt 0.744000 0.031250
vt 0.744000 0.062500
vt 0.600000 0.062500
vt 0.744000 0.031250
vt 0.744000 0.062500
vt 0.744000 0.031250
vt 0.600000 0.062500
vt 0.600000 0.031250
vt 0.744000 0.031250
vt 0.600000 0.062500
vt 0.600000 0.031250
vt 0.600000 0.062500
vt 0.744000 0.031250
vt 0.744000 0.062500
vt 0.600000 0.062500
vt 0.744000 0.031250
vt 0.744000 0.062500
vt 0.744000 0.031250
vt 0.600000 0.062500
vt 0.600000 0.031250
vt 0.744000 0.031250
vt 0.600000 0.062500
vt 0.600000 0.031250
vt 0.600000 0.062500
vt 0.744000 0.031250
vt 0.744000 0.062500
vt 0.600000 0.062500
vt 0.744000 0.031250
vt 0.744000 0.062500
vt 0.744000 0.031250
vt 0.600000 0.062500
vt 0.600000 0.031250
vt 0.744000 0.031250
vt 0.600000 0.062500
vt 0.600000 0.031250
vt 0.600000 0.062500
vt 0.744000 0.031250
vt 0.744000 0.062500
vt 0.600000 0.062500
vt 0.744000 0.031250
vt 0.744000 0.062500
vt 0.744000 0.031250
vt 0.600000 0.062500
vt 0.600000 0.031250
vt 0.744000 0.031250
vt 0.600000 0.062500
vt 0.600000 0.031250
vt 0.096000 0.500000
vt 0.104000 0.437500
vt 0.104000 0.500000
vt 0.104000 0.562500
vt 0.096000 0.625000
vt 0.096000 0.562500
vt 0.104000 0.625000
vt 0.096000 0.687500
vt 0.104000 0.687500
vt 0.096000 0.750000
vt 0.104000 0.750000
vt 0.096000 0.812500
vt 0.104000 0.812500
vt 0.096000 0.875000
vt 0.096000 0.937500
vt 0.104000 0.875000
vt 0.104000 0.937500
vt 0.096000 1.000000
vt 0.104000 1.000000
vt 0.096000 0.062500
vt 0.104000 0.000000
vt 0.104000 0.062500
vt 0.096000 0.125000
vt 0.104000 0.125000
vt 0.096000 0.187500
vt 0.104000 0.187500
vt 0.104000 0.250000
vt 0.104000 0.312500
vt 0.096000 0.250000
vt 0.104000 0.375000
vt 0.096000 0.312500
vt 0.096000 0.375000
vt 0.472000 0.500000
vt 0.480000 0.562500
vt 0.472000 0.562500
vt 0.480000 0.437500
vt 0.472000 0.437500
vt 0.480000 0.375000
vt 0.472000 0.375000
vt 0.480000 0.312500
vt 0.472000 0.312500
vt 0.480000 0.250000
vt 0.472000 0.250000
vt 0.480000 0.187500
vt 0.472000 0.187500
vt 0.480000 0.125000
vt 0.480000 0.062500
vt 0.472000 0.125000
vt 0.472000 0.062500
vt 0.480000 0.000000
vt 0.472000 0.000000
vt 0.480000 0.937500
vt 0.472000 1.000000
vt 0.472000 0.937500
vt 0.480000 0.875000
vt 0.472000 0.875000
vt 0.480000 0.812500
vt 0.472000 0.812500
vt 0.472000 0.750000
vt 0.472000 0.687500
vt 0.480000 0.750000
vt 0.472000 0.625000
vt 0.480000 0.687500
vt 0.480000 0.625000
vt 0.120000 0.750000
vt 0.128000 0.812500
vt 0.120000 0.812500
vt 0.128000 0.875000
vt 0.120000 0.875000
vt 0.128000 0.937500
vt 0.120000 0.937500
vt 0.128000 1.000000
vt 0.120000 1.000000
vt 0.120000 -0.000000
vt 0.128000 0.062500
vt 0.120000 0.062500
vt 0.128000 0.125000
vt 0.120000 0.125000
vt 0.128000 0.187500
vt 0.120000 0.187500
vt 0.120000 0.250000
vt 0.128000 0.250000
vt 0.120000 0.312500
vt 0.128000 0.312500
vt 0.120000 0.375000
vt 0.128000 0.375000
vt 0.120000 0.437500
vt 0.128000 0.500000
vt 0.120000 0.500000
vt 0.120000 0.562500
vt 0.128000 0.562500
vt 0.128000 0.625000
vt 0.120000 0.625000
vt 0.128000 0.687500
vt 0.120000 0.687500
vt 0.128000 0.750000
vt 0.456000 0.250000
vt 0.448000 0.312500
vt 0.448000 0.250000
vt 0.456000 0.312500
vt 0.448000 0.375000
vt 0.456000 0.375000
vt 0.448000 0.437500
vt 0.448000 0.500000
vt 0.456000 0.437500
vt 0.456000 0.500000
vt 0.448000 0.562500
vt 0.456000 0.562500
vt 0.448000 0.625000
vt 0.456000 0.625000
vt 0.448000 0.687500
vt 0.456000 0.687500
vt 0.448000 0.750000
vt 0.456000 0.750000
vt 0.448000 0.812500
vt 0.456000 0.812500
vt 0.448000 0.875000
vt 0.448000 0.937500
vt 0.456000 0.875000
vt 0.456000 0.937500
vt 0.456000 1.000000
vt 0.456000 0.062500
vt 0.448000 0.000000
vt 0.456000 -0.000000
vt 0.456000 0.125000
vt 0.448000 0.062500
vt 0.456000 0.187500
vt 0.448000 0.125000
vt 0.448000 0.187500
vt 0.600000 0.156250
vt 0.792000 0.343750
vt 0.600000 0.343750
vt 0.792000 0.109375
vt 0.792000 0.156250
vt 0.600000 0.390625
vt 0.816000 0.343750
vt 0.576000 0.156250
vt 0.904000 0.062500
vt 0.884000 0.078125
vt 0.884000 0.062500
vt 0.868000 0.078125
vt 0.864000 0.062500
vt 0.884000 0.062500
vt 0.900000 0.078125
vt 0.884000 0.078125
vt 0.868000 0.078125
vt 0.864000 0.062500
vt 0.884000 0.062500
vt 0.900000 0.078125
vt 0.884000 0.078125
vt 0.868000 0.078125
vt 0.864000 0.062500
vt 0.884000 0.062500
vt 0.900000 0.078125
vt 0.884000 0.078125
vt 0.868000 0.078125
vt 0.864000 0.062500
vt 0.884000 0.062500
vt 0.900000 0.078125
vt 0.884000 0.078125
vt 0.868000 0.078125
vt 0.864000 0.062500
vt 0.904000 0.062500
vt 0.884000 0.078125
vt 0.884000 0.062500
vt 0.868000 0.078125
vt 0.864000 0.062500
vt 0.904000 0.031250
vt 0.968000 0.039062
vt 0.904000 0.039062
vt 0.904000 0.031250
vt 0.968000 0.039062
vt 0.904000 0.039062
vt 0.912000 0.031250
vt 0.960000 0.039062
vt 0.912000 0.039062
vt 0.912000 0.031250
vt 0.960000 0.039062
vt 0.912000 0.039062
vt 0.824000 0.062500
vt 0.856000 0.187500
vt 0.824000 0.187500
vt 0.824000 0.062500
vt 0.856000 0.187500
vt 0.824000 0.187500
vt 0.864000 0.187500
vt 0.856000 0.062500
vt 0.864000 0.062500
vt 0.816000 0.062500
vt 0.816000 0.187500
vt 0.856000 0.046875
vt 0.824000 0.046875
vt 0.824000 0.203125
vt 0.856000 0.203125
vt 0.864000 0.187500
vt 0.856000 0.062500
vt 0.864000 0.062500
vt 0.816000 0.062500
vt 0.816000 0.187500
vt 0.856000 0.046875
vt 0.824000 0.046875
vt 0.824000 0.203125
vt 0.856000 0.203125
vt 0.576000 0.109375
vt 0.736000 0.093750
vt 0.736000 0.109375
vt 0.576000 0.093750
vt 0.736000 0.062500
vt 0.736000 0.062500
vt 0.576000 0.093750
vt 0.576000 0.062500
vt 0.736000 0.093750
vt 0.576000 0.109375
vt 0.576000 0.109375
vt 0.736000 0.093750
vt 0.736000 0.109375
vt 0.576000 0.093750
vt 0.736000 0.062500
vt 0.736000 0.062500
vt 0.576000 0.093750
vt 0.576000 0.062500
vt 0.736000 0.093750
vt 0.576000 0.109375
vt 0.576000 0.109375
vt 0.736000 0.093750
vt 0.736000 0.109375
vt 0.576000 0.093750
vt 0.736000 0.062500
vt 0.736000 0.062500
vt 0.576000 0.093750
vt 0.576000 0.062500
vt 0.736000 0.093750
vt 0.576000 0.109375
vt 0.576000 0.109375
vt 0.736000 0.093750
vt 0.736000 0.109375
vt 0.576000 0.093750
vt 0.736000 0.062500
vt 0.736000 0.062500
vt 0.576000 0.093750
vt 0.576000 0.062500
vt 0.736000 0.093750
vt 0.576000 0.109375
vt 0.576000 0.109375
vt 0.736000 0.093750
vt 0.736000 0.109375
vt 0.576000 0.093750
vt 0.736000 0.062500
vt 0.736000 0.062500
vt 0.576000 0.093750
vt 0.576000 0.062500
vt 0.736000 0.093750
vt 0.576000 0.109375
vt 0.576000 0.109375
vt 0.736000 0.093750
vt 0.736000 0.109375
vt 0.576000 0.093750
vt 0.736000 0.062500
vt 0.736000 0.062500
vt 0.576000 0.093750
vt 0.576000 0.062500
vt 0.736000 0.093750
vt 0.576000 0.109375
vt 0.576000 0.109375
vt 0.736000 0.093750
vt 0.736000 0.109375
vt 0.576000 0.093750
vt 0.736000 0.062500
vt 0.736000 0.062500
vt 0.576000 0.093750
vt 0.576000 0.062500
vt 0.736000 0.093750
vt 0.576000 0.109375
vt 0.576000 0.109375
vt 0.736000 0.093750
vt 0.736000 0.109375
vt 0.576000 0.093750
vt 0.736000 0.062500
vt 0.736000 0.062500
vt 0.576000 0.093750
vt 0.576000 0.062500
vt 0.736000 0.093750
vt 0.576000 0.109375
vt 0.600000 0.156250
vt 0.792000 0.343750
vt 0.600000 0.343750
vt 0.792000 0.109375
vt 0.792000 0.156250
vt 0.600000 0.390625
vt 0.816000 0.343750
vt 0.576000 0.156250
vt 0.904000 0.062500
vt 0.884000 0.078125
vt 0.884000 0.062500
vt 0.868000 0.078125
vt 0.864000 0.062500
vt 0.884000 0.062500
vt 0.900000 0.078125
vt 0.884000 0.078125
vt 0.864000 0.062500
vt 0.868000 0.078125
vt 0.884000 0.062500
vt 0.900000 0.078125
vt 0.884000 0.078125
vt 0.864000 0.062500
vt 0.868000 0.078125
vt 0.884000 0.062500
vt 0.900000 0.078125
vt 0.884000 0.078125
vt 0.864000 0.062500
vt 0.868000 0.078125
vt 0.904000 0.062500
vt 0.884000 0.078125
vt 0.884000 0.062500
vt 0.868000 0.078125
vt 0.864000 0.062500
vt 0.884000 0.062500
vt 0.900000 0.078125
vt 0.884000 0.078125
vt 0.868000 0.078125
vt 0.864000 0.062500
vt 0.904000 0.031250
vt 0.968000 0.039062
vt 0.904000 0.039063
vt 0.904000 0.031250
vt 0.968000 0.039062
vt 0.904000 0.039063
vt 0.912000 0.031250
vt 0.960000 0.039062
vt 0.912000 0.039063
vt 0.912000 0.031250
vt 0.960000 0.039062
vt 0.912000 0.039063
vt 0.824000 0.062500
vt 0.856000 0.187500
vt 0.824000 0.187500
vt 0.824000 0.062500
vt 0.856000 0.187500
vt 0.824000 0.187500
vt 0.864000 0.187500
vt 0.856000 0.062500
vt 0.864000 0.062500
vt 0.816000 0.062500
vt 0.816000 0.187500
vt 0.856000 0.046875
vt 0.824000 0.046875
vt 0.824000 0.203125
vt 0.856000 0.203125
vt 0.864000 0.187500
vt 0.856000 0.062500
vt 0.864000 0.062500
vt 0.816000 0.062500
vt 0.816000 0.187500
vt 0.856000 0.046875
vt 0.824000 0.046875
vt 0.824000 0.203125
vt 0.856000 0.203125
vt 0.600000 0.437500
vt 0.728000 0.562500
vt 0.600000 0.562500
vt 0.576000 0.562500
vt 0.600000 0.390625
vt 0.728000 0.437500
vt 0.728000 0.609375
vt 0.752000 0.437500
vt 0.744002 0.078125
vt 0.760000 0.046879
vt 0.775998 0.078125
vt 0.760000 0.046879
vt 0.771312 0.056031
vt 0.775998 0.078125
vt 0.728000 0.562500
vt 0.600000 0.437500
vt 0.728000 0.437500
vt 0.752000 0.437500
vt 0.728000 0.609375
vt 0.600000 0.562500
vt 0.600000 0.390625
vt 0.576000 0.562500
vt 0.576000 0.046875
vt 0.576000 0.046875
vt 0.576000 0.046875
vt 0.576000 0.046875
vt 0.576000 0.046875
vt 0.576000 0.046875
vt 0.576000 0.046875
vt 0.576000 0.046875
vt 0.576000 0.046875
vt 0.576000 0.046875
vt 0.576000 0.046875
vt 0.576000 0.046875
vt 0.576000 0.046875
vt 0.576000 0.046875
vt 0.576000 0.046875
vt 0.576000 0.046875
vt 0.576000 0.046875
vt 0.576000 0.046875
vt 0.576000 0.046875
vt 0.576000 0.046875
vt 0.576000 0.046875
vt 0.576000 0.046875
vt 0.576000 0.046875
vt 0.576000 0.046875
vt 0.576000 0.046875
vt 0.576000 0.046875
vt 0.576000 0.046875
vt 0.576000 0.046875
vt 0.576000 0.046875
vt 0.576000 0.046875
vt 0.576000 0.046875
vt 0.576000 0.046875
vt 1.000000 -0.000000
vt 0.600000 0.031250
vt 1.000000 -0.000000
vt 0.600000 -0.000000
vt 1.000000 -0.000000
vt 0.600000 0.031250
vt 1.000000 -0.000000
vt 0.600000 -0.000000
vt 1.000000 -0.000000
vt 0.600000 0.031250
vt 1.000000 -0.000000
vt 0.600000 -0.000000
vt 1.000000 -0.000000
vt 0.600000 0.031250
vt 1.000000 -0.000000
vt 0.600000 -0.000000
vt 0.600000 0.031250
vt 0.600000 0.031250
vt 0.744000 0.062500
vt 0.744000 0.062500
vt 0.600000 0.031250
vt 0.600000 0.031250
vt 0.744000 0.062500
vt 0.744000 0.062500
vt 0.600000 0.031250
vt 0.600000 0.031250
vt 0.744000 0.062500
vt 0.744000 0.062500
vt 0.600000 0.031250
vt 0.600000 0.031250
vt 0.744000 0.062500
vt 0.744000 0.062500
vt 0.600000 0.031250
vt 0.600000 0.031250
vt 0.744000 0.062500
vt 0.744000 0.062500
vt 0.600000 0.031250
vt 0.600000 0.031250
vt 0.744000 0.062500
vt 0.744000 0.062500
vt 0.600000 0.031250
vt 0.600000 0.031250
vt 0.744000 0.062500
vt 0.744000 0.062500
vt 0.600000 0.031250
vt 0.600000 0.031250
vt 0.744000 0.062500
vt 0.744000 0.062500
vt 0.096000 0.437500
vt 0.096000 -0.000000
vt 0.480000 0.500000
vt 0.480000 1.000000
vt 0.128000 0.000000
vt 0.128000 0.437500
vt 0.448000 1.000000
vt 0.600000 0.109375
vt 0.792000 0.390625
vt 0.816000 0.156250
vt 0.576000 0.343750
vt 0.900000 0.078125
vt 0.904000 0.062500
vt 0.904000 0.062500
vt 0.904000 0.062500
vt 0.904000 0.062500
vt 0.900000 0.078125
vt 0.968000 0.031250
vt 0.968000 0.031250
vt 0.960000 0.031250
vt 0.960000 0.031250
vt 0.576000 0.062500
vt 0.736000 0.109375
vt 0.576000 0.062500
vt 0.736000 0.109375
vt 0.576000 0.062500
vt 0.736000 0.109375
vt 0.576000 0.062500
vt 0.736000 0.109375
vt 0.576000 0.062500
vt 0.736000 0.109375
vt 0.576000 0.062500
vt 0.736000 0.109375
vt 0.576000 0.062500
vt 0.736000 0.109375
vt 0.576000 0.062500
vt 0.736000 0.109375
vt 0.600000 0.109375
vt 0.792000 0.390625
vt 0.816000 0.156250
vt 0.576000 0.343750
vt 0.900000 0.078125
vt 0.904000 0.062500
vt 0.904000 0.062500
vt 0.904000 0.062500
vt 0.900000 0.078125
vt 0.904000 0.062500
vt 0.968000 0.031250
vt 0.968000 0.031250
vt 0.960000 0.031250
vt 0.960000 0.031250
vt 0.576000 0.437500
vt 0.728000 0.390625
vt 0.600000 0.609375
vt 0.752000 0.562500
vt 0.771312 0.100219
vt 0.760000 0.109371
vt 0.748688 0.100219
vt 0.748688 0.056031
vt 0.771312 0.056031
vt 0.771312 0.100219
vt 0.760000 0.109371
vt 0.748688 0.100219
vt 0.744002 0.078125
vt 0.748688 0.056031
vt 0.752000 0.562500
vt 0.600000 0.609375
vt 0.728000 0.390625
vt 0.576000 0.437500
vt 0.072000 0.437500
vt 0.040000 0.484375
vt 0.000000 0.468750
vt 0.040000 0.453125
vt 0.504000 0.875000
vt 0.536000 0.765625
vt 0.576000 0.781250
vt 0.536000 0.796875
vt 0.072000 0.500000
vt 0.504000 0.750000
vt 0.504000 0.812500
vt 0.536000 0.703125
vt 0.576000 0.718750
vt 0.536000 0.734375
vt 0.040000 0.421875
vt 0.072000 0.375000
vt 0.504000 0.687500
vt -0.000000 0.406250
vt 0.040000 0.390625
vt 0.536000 0.640625
vt 0.576000 0.656250
vt 0.536000 0.671875
vt 0.040000 0.359375
vt 0.072000 0.312500
vt 0.504000 0.625000
vt 0.000000 0.343750
vt 0.040000 0.328125
vt 0.040000 0.296875
vt 0.072000 0.250000
vt 0.536000 0.578125
vt 0.576000 0.593750
vt 0.536000 0.609375
vt 0.000000 0.281250
vt 0.040000 0.265625
vt 0.504000 0.562500
vt 0.040000 0.203125
vt 0.072000 0.187500
vt 0.040000 0.234375
vt -0.000000 0.218750
vt 0.536000 0.515625
vt 0.504000 0.500000
vt 0.576000 0.531250
vt 0.536000 0.546875
vt 0.072000 0.125000
vt 0.040000 0.171875
vt -0.000000 0.156250
vt 0.040000 0.140625
vt 0.040000 0.109375
vt -0.000000 0.093750
vt 0.040000 0.078125
vt 0.072000 0.062500
vt 0.072000 -0.000000
vt 0.040000 0.046875
vt 0.000000 0.031250
vt 0.040000 0.015625
vt 0.072000 1.000000
vt 0.040000 0.984375
vt 0.000000 0.968750
vt 0.040000 0.953125
vt 0.072000 0.937500
vt 0.040000 0.921875
vt -0.000000 0.906250
vt 0.040000 0.890625
vt 0.072000 0.875000
vt 0.040000 0.859375
vt 0.000000 0.843750
vt 0.040000 0.828125
vt 0.072000 0.812500
vt 0.040000 0.796875
vt 0.072000 0.750000
vt -0.000000 0.781250
vt 0.040000 0.765625
vt 0.040000 0.703125
vt 0.072000 0.687500
vt 0.040000 0.734375
vt 0.000000 0.718750
vt 0.040000 0.671875
vt 0.072000 0.625000
vt -0.000000 0.656250
vt 0.040000 0.640625
vt 0.040000 0.578125
vt 0.072000 0.562500
vt 0.040000 0.609375
vt -0.000000 0.593750
vt 0.040000 0.546875
vt 0.000000 0.531250
vt 0.040000 0.515625
vt 0.536000 0.828125
vt 0.576000 0.843750
vt 0.536000 0.859375
vt 0.504000 0.937500
vt 0.536000 0.890625
vt 0.576000 0.906250
vt 0.536000 0.921875
vt 0.504000 1.000000
vt 0.536000 0.953125
vt 0.576000 0.968750
vt 0.536000 0.984375
vt 0.504000 -0.000000
vt 0.536000 0.015625
vt 0.576000 0.031250
vt 0.536000 0.046875
vt 0.504000 0.062500
vt 0.536000 0.078125
vt 0.576000 0.093750
vt 0.536000 0.109375
vt 0.504000 0.125000
vt 0.536000 0.140625
vt 0.576000 0.156250
vt 0.536000 0.171875
vt 0.504000 0.187500
vt 0.536000 0.203125
vt 0.504000 0.250000
vt 0.576000 0.218750
vt 0.536000 0.234375
vt 0.536000 0.265625
vt 0.504000 0.312500
vt 0.576000 0.281250
vt 0.536000 0.296875
vt 0.536000 0.359375
vt 0.504000 0.375000
vt 0.536000 0.328125
vt 0.576000 0.343750
vt 0.536000 0.390625
vt 0.504000 0.437500
vt 0.576000 0.406250
vt 0.536000 0.421875
vt 0.536000 0.484375
vt 0.536000 0.453125
vt 0.576000 0.468750
vt 0.884000 0.031250
vt 0.864000 0.031250
vt 0.884000 0.109375
vt 0.900000 0.109375
vt 0.904000 0.031250
vt 0.884000 0.031250
vt 0.868000 0.109375
vt 0.884000 0.109375
vt 0.904000 0.031250
vt 0.884000 0.031250
vt 0.864000 0.031250
vt 0.900000 0.109375
vt 0.884000 0.031250
vt 0.864000 0.031250
vt 0.904000 0.031250
vt 0.868000 0.109375
vt 0.884000 0.109375
vt 0.904000 0.031250
vt 0.884000 0.031250
vt 0.864000 0.031250
vt 0.900000 0.109375
vt 0.868000 0.109375
vt 0.884000 0.109375
vt 0.904000 0.031250
vt 0.868000 0.109375
vt 0.884000 0.109375
vt 0.900000 0.109375
vt 0.884000 0.031250
vt 0.864000 0.031250
vt 0.900000 0.109375
vt 0.868000 0.109375
vt 0.884000 0.109375
vt 0.904000 0.031250
vt 0.868000 0.109375
vt 0.864000 0.031250
vt 0.900000 0.109375
vt 0.884000 0.031250
vt 0.864000 0.031250
vt 0.884000 0.109375
vt 0.900000 0.109375
vt 0.904000 0.031250
vt 0.884000 0.031250
vt 0.868000 0.109375
vt 0.884000 0.109375
vt 0.904000 0.031250
vt 0.884000 0.031250
vt 0.864000 0.031250
vt 0.900000 0.109375
vt 0.884000 0.031250
vt 0.864000 0.031250
vt 0.904000 0.031250
vt 0.868000 0.109375
vt 0.884000 0.109375
vt 0.904000 0.031250
vt 0.884000 0.031250
vt 0.864000 0.031250
vt 0.900000 0.109375
vt 0.868000 0.109375
vt 0.884000 0.109375
vt 0.904000 0.031250
vt 0.868000 0.109375
vt 0.884000 0.109375
vt 0.900000 0.109375
vt 0.884000 0.031250
vt 0.864000 0.031250
vt 0.900000 0.109375
vt 0.868000 0.109375
vt 0.884000 0.109375
vt 0.904000 0.031250
vt 0.868000 0.109375
vt 0.864000 0.031250
vt 0.900000 0.109375
vt 0.904000 0.109375
vt 0.896000 0.171875
vt 0.896000 0.109375
vt 0.888000 0.109375
vt 0.880000 0.171875
vt 0.880000 0.109375
vt 0.872000 0.109375
vt 0.864000 0.171875
vt 0.864000 0.109375
vt 0.920000 0.109375
vt 0.912000 0.171875
vt 0.912000 0.109375
vt 0.904000 0.171875
vt 0.888000 0.171875
vt 0.872000 0.171875
vt 0.928000 0.109375
vt 0.920000 0.171875
vt 0.912000 0.179688
vt 0.920000 0.195312
vt 0.912000 0.195312
vt 0.904000 0.195312
vt 0.896000 0.195312
vt 0.888000 0.195312
vt 0.880000 0.179688
vt 0.872000 0.195312
vt 0.872000 0.187500
vt 0.880000 0.195312
vt 0.896000 0.218750
vt 0.888000 0.218750
vt 0.880000 0.210938
vt 0.920000 0.203125
vt 0.912000 0.210938
vt 0.904000 0.218750
vt 0.872000 0.203125
vt 0.864000 0.195312
vt 0.920000 0.187500
vt 0.928000 0.195312
vt 0.888000 0.578125
vt 0.896000 0.515625
vt 0.896000 0.578125
vt 0.904000 0.578125
vt 0.912000 0.515625
vt 0.912000 0.578125
vt 0.920000 0.578125
vt 0.928000 0.515625
vt 0.928000 0.578125
vt 0.872000 0.578125
vt 0.880000 0.515625
vt 0.880000 0.578125
vt 0.888000 0.515625
vt 0.904000 0.515625
vt 0.920000 0.515625
vt 0.864000 0.578125
vt 0.872000 0.515625
vt 0.872000 0.500000
vt 0.880000 0.492188
vt 0.880000 0.507812
vt 0.888000 0.492188
vt 0.896000 0.492188
vt 0.904000 0.492188
vt 0.920000 0.500000
vt 0.912000 0.492188
vt 0.920000 0.492188
vt 0.912000 0.507812
vt 0.896000 0.468750
vt 0.904000 0.468750
vt 0.912000 0.476562
vt 0.872000 0.484375
vt 0.880000 0.476562
vt 0.888000 0.468750
vt 0.920000 0.484375
vt 0.928000 0.492188
vt 0.864000 0.492188
vt 0.872000 0.492188
vt 0.880000 0.218750
vt 0.912000 0.468750
vt 0.912000 0.218750
vt 0.920000 0.468750
vt 0.920000 0.218750
vt 0.928000 0.218750
vt 0.864000 0.218750
vt 0.872000 0.468750
vt 0.864000 0.468750
vt 0.880000 0.468750
vt 0.872000 0.218750
vt 0.780000 0.046875
vt 0.792000 0.031250
vt 0.792000 0.046875
vt 0.804000 0.046875
vt 0.804000 0.031250
vt 0.828000 0.046875
vt 0.816000 0.031250
vt 0.828000 0.031250
vt 0.744000 0.046875
vt 0.756000 0.031250
vt 0.756000 0.046875
vt 0.768000 0.046875
vt 0.780000 0.031250
vt 0.816000 0.046875
vt 0.840000 0.031250
vt 0.840000 0.046875
vt 0.768000 0.031250
vt 0.780000 0.046875
vt 0.792000 0.031250
vt 0.792000 0.046875
vt 0.804000 0.031250
vt 0.804000 0.046875
vt 0.828000 0.046875
vt 0.816000 0.031250
vt 0.828000 0.031250
vt 0.744000 0.046875
vt 0.756000 0.031250
vt 0.756000 0.046875
vt 0.768000 0.046875
vt 0.780000 0.031250
vt 0.816000 0.046875
vt 0.840000 0.031250
vt 0.840000 0.046875
vt 0.768000 0.031250
vt 0.904000 0.109375
vt 0.896000 0.171875
vt 0.896000 0.109375
vt 0.888000 0.109375
vt 0.880000 0.171875
vt 0.880000 0.109375
vt 0.872000 0.109375
vt 0.864000 0.171875
vt 0.864000 0.109375
vt 0.920000 0.109375
vt 0.912000 0.171875
vt 0.912000 0.109375
vt 0.904000 0.171875
vt 0.888000 0.171875
vt 0.872000 0.171875
vt 0.928000 0.109375
vt 0.920000 0.171875
vt 0.912000 0.179688
vt 0.920000 0.195312
vt 0.912000 0.195312
vt 0.904000 0.195312
vt 0.896000 0.195312
vt 0.888000 0.195312
vt 0.880000 0.179688
vt 0.872000 0.195312
vt 0.872000 0.187500
vt 0.880000 0.195312
vt 0.896000 0.218750
vt 0.888000 0.218750
vt 0.880000 0.210938
vt 0.920000 0.203125
vt 0.912000 0.210938
vt 0.904000 0.218750
vt 0.872000 0.203125
vt 0.864000 0.195312
vt 0.920000 0.187500
vt 0.928000 0.195312
vt 0.888000 0.578125
vt 0.896000 0.515625
vt 0.896000 0.578125
vt 0.904000 0.578125
vt 0.912000 0.515625
vt 0.912000 0.578125
vt 0.920000 0.578125
vt 0.928000 0.515625
vt 0.928000 0.578125
vt 0.872000 0.578125
vt 0.880000 0.515625
vt 0.880000 0.578125
vt 0.888000 0.515625
vt 0.904000 0.515625
vt 0.920000 0.515625
vt 0.864000 0.578125
vt 0.872000 0.515625
vt 0.872000 0.500000
vt 0.880000 0.492188
vt 0.880000 0.507812
vt 0.888000 0.492188
vt 0.896000 0.492188
vt 0.904000 0.492188
vt 0.920000 0.500000
vt 0.912000 0.492188
vt 0.920000 0.492188
vt 0.912000 0.507812
vt 0.896000 0.468750
vt 0.904000 0.468750
vt 0.912000 0.476562
vt 0.872000 0.484375
vt 0.880000 0.476562
vt 0.888000 0.468750
vt 0.920000 0.484375
vt 0.928000 0.492188
vt 0.864000 0.492188
vt 0.872000 0.492188
vt 0.880000 0.218750
vt 0.912000 0.468750
vt 0.912000 0.218750
vt 0.920000 0.468750
vt 0.920000 0.218750
vt 0.928000 0.218750
vt 0.864000 0.218750
vt 0.872000 0.468750
vt 0.864000 0.468750
vt 0.880000 0.468750
vt 0.872000 0.218750
vt 0.904000 0.109375
vt 0.896000 0.171875
vt 0.896000 0.109375
vt 0.888000 0.109375
vt 0.880000 0.171875
vt 0.880000 0.109375
vt 0.872000 0.109375
vt 0.864000 0.171875
vt 0.864000 0.109375
vt 0.920000 0.109375
vt 0.912000 0.171875
vt 0.912000 0.109375
vt 0.904000 0.171875
vt 0.888000 0.171875
vt 0.872000 0.171875
vt 0.928000 0.109375
vt 0.920000 0.171875
vt 0.912000 0.179688
vt 0.920000 0.195312
vt 0.912000 0.195312
vt 0.904000 0.195312
vt 0.896000 0.195312
vt 0.888000 0.195312
vt 0.880000 0.179688
vt 0.872000 0.195312
vt 0.872000 0.187500
vt 0.880000 0.195312
vt 0.896000 0.218750
vt 0.888000 0.218750
vt 0.880000 0.210938
vt 0.912000 0.210938
vt 0.904000 0.218750
vt 0.872000 0.203125
vt 0.864000 0.195312
vt 0.920000 0.187500
vt 0.928000 0.195312
vt 0.920000 0.203125
vt 0.888000 0.578125
vt 0.896000 0.515625
vt 0.896000 0.578125
vt 0.904000 0.578125
vt 0.912000 0.515625
vt 0.912000 0.578125
vt 0.920000 0.578125
vt 0.928000 0.515625
vt 0.928000 0.578125
vt 0.872000 0.578125
vt 0.880000 0.515625
vt 0.880000 0.578125
vt 0.888000 0.515625
vt 0.904000 0.515625
vt 0.920000 0.515625
vt 0.864000 0.578125
vt 0.872000 0.515625
vt 0.872000 0.500000
vt 0.880000 0.492188
vt 0.880000 0.507812
vt 0.888000 0.492188
vt 0.896000 0.492188
vt 0.904000 0.492188
vt 0.920000 0.500000
vt 0.912000 0.492188
vt 0.920000 0.492188
vt 0.912000 0.507812
vt 0.896000 0.468750
vt 0.904000 0.468750
vt 0.912000 0.476562
vt 0.872000 0.492188
vt 0.880000 0.476562
vt 0.888000 0.468750
vt 0.920000 0.484375
vt 0.928000 0.492188
vt 0.864000 0.492188
vt 0.872000 0.484375
vt 0.880000 0.218750
vt 0.912000 0.468750
vt 0.912000 0.218750
vt 0.920000 0.468750
vt 0.920000 0.218750
vt 0.928000 0.468750
vt 0.928000 0.218750
vt 0.864000 0.218750
vt 0.872000 0.468750
vt 0.864000 0.468750
vt 0.880000 0.468750
vt 0.872000 0.218750
vt 0.904000 0.109375
vt 0.896000 0.171875
vt 0.896000 0.109375
vt 0.888000 0.109375
vt 0.880000 0.171875
vt 0.880000 0.109375
vt 0.872000 0.109375
vt 0.864000 0.171875
vt 0.864000 0.109375
vt 0.920000 0.109375
vt 0.912000 0.171875
vt 0.912000 0.109375
vt 0.904000 0.171875
vt 0.888000 0.171875
vt 0.872000 0.171875
vt 0.928000 0.109375
vt 0.920000 0.171875
vt 0.912000 0.179688
vt 0.920000 0.195312
vt 0.912000 0.195312
vt 0.904000 0.195312
vt 0.888000 0.195312
vt 0.880000 0.179688
vt 0.872000 0.195312
vt 0.872000 0.187500
vt 0.896000 0.195312
vt 0.880000 0.195312
vt 0.896000 0.218750
vt 0.888000 0.218750
vt 0.880000 0.210938
vt 0.912000 0.210938
vt 0.904000 0.218750
vt 0.872000 0.203125
vt 0.864000 0.195312
vt 0.920000 0.187500
vt 0.928000 0.195312
vt 0.920000 0.203125
vt 0.888000 0.578125
vt 0.896000 0.515625
vt 0.896000 0.578125
vt 0.904000 0.578125
vt 0.912000 0.515625
vt 0.912000 0.578125
vt 0.920000 0.578125
vt 0.928000 0.515625
vt 0.928000 0.578125
vt 0.872000 0.578125
vt 0.880000 0.515625
vt 0.880000 0.578125
vt 0.888000 0.515625
vt 0.904000 0.515625
vt 0.920000 0.515625
vt 0.864000 0.578125
vt 0.872000 0.515625
vt 0.872000 0.500000
vt 0.880000 0.492188
vt 0.880000 0.507812
vt 0.888000 0.492188
vt 0.896000 0.492188
vt 0.904000 0.492188
vt 0.920000 0.500000
vt 0.912000 0.492188
vt 0.920000 0.492188
vt 0.912000 0.507812
vt 0.896000 0.468750
vt 0.904000 0.468750
vt 0.912000 0.476562
vt 0.872000 0.492188
vt 0.880000 0.476562
vt 0.888000 0.468750
vt 0.920000 0.484375
vt 0.928000 0.492188
vt 0.864000 0.492188
vt 0.872000 0.484375
vt 0.880000 0.218750
vt 0.912000 0.468750
vt 0.912000 0.218750
vt 0.920000 0.468750
vt 0.920000 0.218750
vt 0.928000 0.218750
vt 0.872000 0.218750
vt 0.864000 0.468750
vt 0.864000 0.218750
vt 0.880000 0.468750
vt 0.904000 0.109375
vt 0.896000 0.171875
vt 0.896000 0.109375
vt 0.888000 0.109375
vt 0.880000 0.171875
vt 0.880000 0.109375
vt 0.872000 0.109375
vt 0.864000 0.171875
vt 0.864000 0.109375
vt 0.920000 0.109375
vt 0.912000 0.171875
vt 0.912000 0.109375
vt 0.904000 0.171875
vt 0.888000 0.171875
vt 0.872000 0.171875
vt 0.928000 0.109375
vt 0.920000 0.171875
vt 0.912000 0.179688
vt 0.920000 0.195312
vt 0.912000 0.195312
vt 0.904000 0.195312
vt 0.896000 0.195312
vt 0.888000 0.195312
vt 0.880000 0.179688
vt 0.872000 0.195312
vt 0.872000 0.187500
vt 0.880000 0.195312
vt 0.896000 0.218750
vt 0.888000 0.218750
vt 0.880000 0.210938
vt 0.920000 0.203125
vt 0.912000 0.210938
vt 0.904000 0.218750
vt 0.872000 0.203125
vt 0.864000 0.195312
vt 0.920000 0.187500
vt 0.928000 0.195312
vt 0.888000 0.578125
vt 0.896000 0.515625
vt 0.896000 0.578125
vt 0.904000 0.578125
vt 0.912000 0.515625
vt 0.912000 0.578125
vt 0.920000 0.578125
vt 0.928000 0.515625
vt 0.928000 0.578125
vt 0.872000 0.578125
vt 0.880000 0.515625
vt 0.880000 0.578125
vt 0.888000 0.515625
vt 0.904000 0.515625
vt 0.920000 0.515625
vt 0.864000 0.578125
vt 0.872000 0.515625
vt 0.872000 0.500000
vt 0.880000 0.492188
vt 0.880000 0.507812
vt 0.888000 0.492188
vt 0.896000 0.492188
vt 0.904000 0.492188
vt 0.920000 0.500000
vt 0.912000 0.492188
vt 0.920000 0.492188
vt 0.912000 0.507812
vt 0.896000 0.468750
vt 0.904000 0.468750
vt 0.912000 0.476562
vt 0.872000 0.484375
vt 0.880000 0.476562
vt 0.888000 0.468750
vt 0.920000 0.484375
vt 0.928000 0.492188
vt 0.864000 0.492188
vt 0.872000 0.492188
vt 0.880000 0.218750
vt 0.912000 0.468750
vt 0.912000 0.218750
vt 0.920000 0.468750
vt 0.920000 0.218750
vt 0.928000 0.468750
vt 0.928000 0.218750
vt 0.864000 0.218750
vt 0.872000 0.468750
vt 0.864000 0.468750
vt 0.880000 0.468750
vt 0.872000 0.218750
vt 0.904000 0.109375
vt 0.896000 0.171875
vt 0.896000 0.109375
vt 0.888000 0.109375
vt 0.880000 0.171875
vt 0.880000 0.109375
vt 0.872000 0.109375
vt 0.864000 0.171875
vt 0.864000 0.109375
vt 0.920000 0.109375
vt 0.912000 0.171875
vt 0.912000 0.109375
vt 0.904000 0.171875
vt 0.888000 0.171875
vt 0.872000 0.171875
vt 0.928000 0.109375
vt 0.920000 0.171875
vt 0.912000 0.179688
vt 0.920000 0.195312
vt 0.912000 0.195312
vt 0.904000 0.195312
vt 0.896000 0.195312
vt 0.888000 0.195312
vt 0.880000 0.179688
vt 0.872000 0.195312
vt 0.872000 0.187500
vt 0.880000 0.195312
vt 0.896000 0.218750
vt 0.888000 0.218750
vt 0.880000 0.210938
vt 0.912000 0.210938
vt 0.904000 0.218750
vt 0.872000 0.203125
vt 0.864000 0.195312
vt 0.920000 0.187500
vt 0.928000 0.195312
vt 0.920000 0.203125
vt 0.888000 0.578125
vt 0.896000 0.515625
vt 0.896000 0.578125
vt 0.904000 0.578125
vt 0.912000 0.515625
vt 0.912000 0.578125
vt 0.928000 0.578125
vt 0.920000 0.515625
vt 0.928000 0.515625
vt 0.872000 0.578125
vt 0.880000 0.515625
vt 0.880000 0.578125
vt 0.888000 0.515625
vt 0.904000 0.515625
vt 0.920000 0.578125
vt 0.864000 0.578125
vt 0.872000 0.515625
vt 0.872000 0.500000
vt 0.880000 0.492188
vt 0.880000 0.507812
vt 0.888000 0.492188
vt 0.896000 0.492188
vt 0.904000 0.492188
vt 0.920000 0.500000
vt 0.912000 0.492188
vt 0.920000 0.492188
vt 0.912000 0.507812
vt 0.896000 0.468750
vt 0.904000 0.468750
vt 0.912000 0.476562
vt 0.872000 0.492188
vt 0.880000 0.476562
vt 0.888000 0.468750
vt 0.920000 0.484375
vt 0.928000 0.492188
vt 0.864000 0.492188
vt 0.872000 0.484375
vt 0.880000 0.218750
vt 0.912000 0.468750
vt 0.912000 0.218750
vt 0.920000 0.468750
vt 0.920000 0.218750
vt 0.928000 0.218750
vt 0.872000 0.218750
vt 0.864000 0.468750
vt 0.864000 0.218750
vt 0.880000 0.468750
vt 0.904000 0.109375
vt 0.896000 0.171875
vt 0.896000 0.109375
vt 0.888000 0.109375
vt 0.880000 0.171875
vt 0.880000 0.109375
vt 0.872000 0.109375
vt 0.864000 0.171875
vt 0.864000 0.109375
vt 0.920000 0.109375
vt 0.912000 0.171875
vt 0.912000 0.109375
vt 0.904000 0.171875
vt 0.888000 0.171875
vt 0.872000 0.171875
vt 0.928000 0.109375
vt 0.920000 0.171875
vt 0.912000 0.179688
vt 0.920000 0.195312
vt 0.912000 0.195312
vt 0.904000 0.195312
vt 0.896000 0.195312
vt 0.888000 0.195312
vt 0.880000 0.179688
vt 0.872000 0.195312
vt 0.872000 0.187500
vt 0.880000 0.195312
vt 0.896000 0.218750
vt 0.880000 0.210938
vt 0.912000 0.210938
vt 0.904000 0.218750
vt 0.888000 0.218750
vt 0.872000 0.203125
vt 0.864000 0.195312
vt 0.920000 0.187500
vt 0.928000 0.195312
vt 0.920000 0.203125
vt 0.888000 0.578125
vt 0.896000 0.515625
vt 0.896000 0.578125
vt 0.904000 0.578125
vt 0.912000 0.515625
vt 0.912000 0.578125
vt 0.920000 0.578125
vt 0.928000 0.515625
vt 0.928000 0.578125
vt 0.872000 0.578125
vt 0.880000 0.515625
vt 0.880000 0.578125
vt 0.888000 0.515625
vt 0.904000 0.515625
vt 0.920000 0.515625
vt 0.864000 0.578125
vt 0.872000 0.515625
vt 0.872000 0.500000
vt 0.880000 0.492188
vt 0.880000 0.507812
vt 0.888000 0.492188
vt 0.896000 0.492188
vt 0.904000 0.492188
vt 0.920000 0.500000
vt 0.912000 0.492188
vt 0.920000 0.492188
vt 0.912000 0.507812
vt 0.896000 0.468750
vt 0.904000 0.468750
vt 0.912000 0.476562
vt 0.872000 0.492188
vt 0.880000 0.476562
vt 0.888000 0.468750
vt 0.920000 0.484375
vt 0.928000 0.492188
vt 0.864000 0.492188
vt 0.872000 0.484375
vt 0.880000 0.218750
vt 0.912000 0.468750
vt 0.912000 0.218750
vt 0.920000 0.468750
vt 0.920000 0.218750
vt 0.928000 0.218750
vt 0.864000 0.218750
vt 0.872000 0.468750
vt 0.864000 0.468750
vt 0.880000 0.468750
vt 0.872000 0.218750
vt 0.904000 0.109375
vt 0.896000 0.171875
vt 0.896000 0.109375
vt 0.888000 0.109375
vt 0.880000 0.171875
vt 0.880000 0.109375
vt 0.872000 0.109375
vt 0.864000 0.171875
vt 0.864000 0.109375
vt 0.920000 0.109375
vt 0.912000 0.171875
vt 0.912000 0.109375
vt 0.904000 0.171875
vt 0.888000 0.171875
vt 0.872000 0.171875
vt 0.928000 0.109375
vt 0.920000 0.171875
vt 0.912000 0.179688
vt 0.920000 0.195312
vt 0.912000 0.195312
vt 0.904000 0.195312
vt 0.896000 0.195312
vt 0.888000 0.195312
vt 0.880000 0.179688
vt 0.872000 0.195312
vt 0.872000 0.187500
vt 0.880000 0.195312
vt 0.896000 0.218750
vt 0.880000 0.210938
vt 0.912000 0.210938
vt 0.904000 0.218750
vt 0.888000 0.218750
vt 0.872000 0.203125
vt 0.864000 0.195312
vt 0.920000 0.187500
vt 0.928000 0.195312
vt 0.920000 0.203125
vt 0.888000 0.578125
vt 0.896000 0.515625
vt 0.896000 0.578125
vt 0.904000 0.578125
vt 0.912000 0.515625
vt 0.912000 0.578125
vt 0.920000 0.578125
vt 0.928000 0.515625
vt 0.928000 0.578125
vt 0.872000 0.578125
vt 0.880000 0.515625
vt 0.880000 0.578125
vt 0.888000 0.515625
vt 0.904000 0.515625
vt 0.920000 0.515625
vt 0.864000 0.578125
vt 0.872000 0.515625
vt 0.872000 0.500000
vt 0.880000 0.492188
vt 0.880000 0.507812
vt 0.888000 0.492188
vt 0.896000 0.492188
vt 0.904000 0.492188
vt 0.920000 0.500000
vt 0.912000 0.492188
vt 0.920000 0.492188
vt 0.912000 0.507812
vt 0.896000 0.468750
vt 0.904000 0.468750
vt 0.912000 0.476562
vt 0.872000 0.492188
vt 0.880000 0.476562
vt 0.888000 0.468750
vt 0.920000 0.484375
vt 0.928000 0.492188
vt 0.864000 0.492188
vt 0.872000 0.484375
vt 0.880000 0.218750
vt 0.912000 0.468750
vt 0.912000 0.218750
vt 0.920000 0.468750
vt 0.920000 0.218750
vt 0.928000 0.468750
vt 0.928000 0.218750
vt 0.864000 0.218750
vt 0.872000 0.468750
vt 0.864000 0.468750
vt 0.880000 0.468750
vt 0.872000 0.218750
vt 0.904000 0.109375
vt 0.896000 0.171875
vt 0.896000 0.109375
vt 0.888000 0.109375
vt 0.880000 0.171875
vt 0.880000 0.109375
vt 0.872000 0.109375
vt 0.864000 0.171875
vt 0.864000 0.109375
vt 0.920000 0.109375
vt 0.912000 0.171875
vt 0.912000 0.109375
vt 0.904000 0.171875
vt 0.888000 0.171875
vt 0.872000 0.171875
vt 0.928000 0.109375
vt 0.920000 0.171875
vt 0.912000 0.179688
vt 0.920000 0.195312
vt 0.912000 0.195312
vt 0.904000 0.195312
vt 0.896000 0.195312
vt 0.888000 0.195312
vt 0.880000 0.179688
vt 0.872000 0.195312
vt 0.872000 0.187500
vt 0.880000 0.195312
vt 0.896000 0.218750
vt 0.888000 0.218750
vt 0.880000 0.210938
vt 0.912000 0.210938
vt 0.904000 0.218750
vt 0.872000 0.203125
vt 0.864000 0.195312
vt 0.920000 0.187500
vt 0.928000 0.195312
vt 0.920000 0.203125
vt 0.888000 0.578125
vt 0.896000 0.515625
vt 0.896000 0.578125
vt 0.904000 0.578125
vt 0.912000 0.515625
vt 0.912000 0.578125
vt 0.928000 0.578125
vt 0.920000 0.515625
vt 0.928000 0.515625
vt 0.872000 0.578125
vt 0.880000 0.515625
vt 0.880000 0.578125
vt 0.888000 0.515625
vt 0.904000 0.515625
vt 0.920000 0.578125
vt 0.864000 0.578125
vt 0.872000 0.515625
vt 0.872000 0.500000
vt 0.880000 0.492188
vt 0.880000 0.507812
vt 0.888000 0.492188
vt 0.896000 0.492188
vt 0.904000 0.492188
vt 0.920000 0.500000
vt 0.912000 0.492188
vt 0.920000 0.492188
vt 0.912000 0.507812
vt 0.896000 0.468750
vt 0.904000 0.468750
vt 0.912000 0.476562
vt 0.872000 0.484375
vt 0.880000 0.476562
vt 0.888000 0.468750
vt 0.920000 0.484375
vt 0.928000 0.492188
vt 0.864000 0.492188
vt 0.872000 0.492188
vt 0.880000 0.218750
vt 0.912000 0.468750
vt 0.912000 0.218750
vt 0.920000 0.468750
vt 0.920000 0.218750
vt 0.928000 0.218750
vt 0.872000 0.218750
vt 0.864000 0.468750
vt 0.864000 0.218750
vt 0.880000 0.468750
vt 0.904000 0.109375
vt 0.896000 0.171875
vt 0.896000 0.109375
vt 0.888000 0.109375
vt 0.880000 0.171875
vt 0.880000 0.109375
vt 0.872000 0.109375
vt 0.864000 0.171875
vt 0.864000 0.109375
vt 0.920000 0.109375
vt 0.912000 0.171875
vt 0.912000 0.109375
vt 0.904000 0.171875
vt 0.888000 0.171875
vt 0.872000 0.171875
vt 0.928000 0.109375
vt 0.920000 0.171875
vt 0.912000 0.179688
vt 0.920000 0.195312
vt 0.912000 0.195312
vt 0.904000 0.195312
vt 0.896000 0.195312
vt 0.888000 0.195312
vt 0.880000 0.179688
vt 0.872000 0.195312
vt 0.872000 0.187500
vt 0.880000 0.195312
vt 0.896000 0.218750
vt 0.888000 0.218750
vt 0.880000 0.210938
vt 0.912000 0.210938
vt 0.904000 0.218750
vt 0.872000 0.203125
vt 0.864000 0.195312
vt 0.920000 0.187500
vt 0.928000 0.195312
vt 0.920000 0.203125
vt 0.888000 0.578125
vt 0.896000 0.515625
vt 0.896000 0.578125
vt 0.904000 0.578125
vt 0.912000 0.515625
vt 0.912000 0.578125
vt 0.920000 0.578125
vt 0.928000 0.515625
vt 0.928000 0.578125
vt 0.872000 0.578125
vt 0.880000 0.515625
vt 0.880000 0.578125
vt 0.888000 0.515625
vt 0.904000 0.515625
vt 0.920000 0.515625
vt 0.864000 0.578125
vt 0.872000 0.515625
vt 0.872000 0.500000
vt 0.880000 0.492188
vt 0.880000 0.507812
vt 0.888000 0.492188
vt 0.896000 0.492188
vt 0.904000 0.492188
vt 0.920000 0.500000
vt 0.912000 0.492188
vt 0.920000 0.492188
vt 0.912000 0.507812
vt 0.896000 0.468750
vt 0.904000 0.468750
vt 0.912000 0.476562
vt 0.872000 0.492188
vt 0.880000 0.476562
vt 0.888000 0.468750
vt 0.920000 0.484375
vt 0.928000 0.492188
vt 0.864000 0.492188
vt 0.872000 0.484375
vt 0.880000 0.218750
vt 0.912000 0.468750
vt 0.912000 0.218750
vt 0.920000 0.468750
vt 0.920000 0.218750
vt 0.928000 0.218750
vt 0.864000 0.218750
vt 0.872000 0.468750
vt 0.864000 0.468750
vt 0.880000 0.468750
vt 0.872000 0.218750
vt 0.928000 0.171875
vt 0.864000 0.515625
vt 0.928000 0.468750
vt 0.744000 0.031250
vt 0.744000 0.031250
vt 0.928000 0.171875
vt 0.864000 0.515625
vt 0.928000 0.468750
vt 0.928000 0.171875
vt 0.864000 0.515625
vt 0.928000 0.171875
vt 0.864000 0.515625
vt 0.928000 0.468750
vt 0.872000 0.468750
vt 0.928000 0.171875
vt 0.864000 0.515625
vt 0.928000 0.171875
vt 0.864000 0.515625
vt 0.928000 0.468750
vt 0.872000 0.468750
vt 0.928000 0.171875
vt 0.864000 0.515625
vt 0.928000 0.468750
vt 0.928000 0.171875
vt 0.864000 0.515625
vt 0.928000 0.171875
vt 0.864000 0.515625
vt 0.928000 0.468750
vt 0.872000 0.468750
vt 0.928000 0.171875
vt 0.864000 0.515625
vt 0.928000 0.468750
vn 1.0000 0.0000 0.0000
vn 0.0000 0.0000 1.0000
vn -1.0000 0.0000 0.0000
vn 0.0000 0.0000 -1.0000
vn 0.0000 1.0000 0.0000
vn 0.0000 -1.0000 0.0000
vn 0.3827 0.9239 0.0000
vn 0.7071 0.7071 0.0000
vn 0.9239 0.3827 0.0000
vn 0.9239 -0.3827 0.0000
vn 0.7071 -0.7071 0.0000
vn 0.3827 -0.9239 0.0000
vn -0.3827 -0.9239 0.0000
vn -0.7071 -0.7071 0.0000
vn -0.9239 -0.3827 0.0000
vn -0.9239 0.3827 0.0000
vn -0.7071 0.7071 0.0000
vn -0.3827 0.9239 0.0000
vn -0.0000 0.8814 0.4723
vn 0.2738 0.6610 0.6987
vn 0.3373 0.8143 0.4723
vn -0.0000 0.3125 0.9499
vn 0.1196 0.2888 0.9499
vn -0.8143 -0.3373 -0.4723
vn -0.5059 -0.5059 -0.6987
vn -0.6233 -0.6233 -0.4723
vn -0.3125 -0.0000 -0.9499
vn -0.2888 -0.1196 -0.9499
vn -0.0000 0.7155 0.6987
vn -0.7155 -0.0000 -0.6987
vn -0.8814 -0.0000 -0.4723
vn -0.6610 -0.2738 -0.6987
vn -0.2888 0.1196 -0.9499
vn 0.5059 0.5059 0.6987
vn -0.6610 0.2738 -0.6987
vn -0.8143 0.3373 -0.4723
vn 0.6233 0.6233 0.4723
vn 0.2210 0.2210 0.9499
vn -0.2210 0.2210 -0.9499
vn 0.6610 0.2738 0.6987
vn -0.5059 0.5059 -0.6987
vn -0.6233 0.6233 -0.4723
vn 0.8143 0.3373 0.4723
vn 0.2888 0.1196 0.9499
vn 0.7155 -0.0000 0.6987
vn -0.1196 0.2888 -0.9499
vn 0.8814 -0.0000 0.4723
vn 0.3126 0.0000 0.9499
vn -0.2738 0.6610 -0.6987
vn -0.3373 0.8143 -0.4723
vn 0.2888 -0.1196 0.9499
vn 0.6610 -0.2738 0.6987
vn 0.8143 -0.3373 0.4723
vn 0.0000 0.3125 -0.9499
vn 0.0000 0.7155 -0.6987
vn -0.0000 0.8814 -0.4723
vn 0.5059 -0.5059 0.6987
vn 0.6233 -0.6233 0.4723
vn 0.2210 -0.2210 0.9499
vn 0.3373 -0.8143 0.4723
vn 0.1196 -0.2888 0.9499
vn 0.2738 -0.6610 0.6987
vn -0.0000 -0.7155 0.6987
vn -0.0000 -0.8814 0.4723
vn -0.0000 -0.3125 0.9499
vn -0.3373 -0.8143 0.4723
vn -0.1196 -0.2888 0.9499
vn -0.2738 -0.6610 0.6987
vn -0.6233 -0.6233 0.4723
vn -0.2210 -0.2210 0.9499
vn -0.5059 -0.5059 0.6987
vn -0.2888 -0.1196 0.9499
vn -0.6610 -0.2738 0.6987
vn -0.8143 -0.3373 0.4723
vn -0.7155 0.0000 0.6987
vn -0.8814 0.0000 0.4723
vn -0.3125 0.0000 0.9499
vn -0.2888 0.1196 0.9499
vn -0.6610 0.2738 0.6987
vn -0.8143 0.3373 0.4723
vn -0.5059 0.5059 0.6987
vn -0.6233 0.6233 0.4723
vn -0.2210 0.2210 0.9499
vn -0.1196 0.2888 0.9499
vn -0.2738 0.6610 0.6987
vn -0.3373 0.8143 0.4723
vn -0.2210 -0.2210 -0.9499
vn -0.2738 -0.6610 -0.6987
vn -0.3373 -0.8143 -0.4723
vn -0.1196 -0.2888 -0.9499
vn -0.0000 -0.7155 -0.6987
vn 0.0000 -0.8814 -0.4723
vn -0.0000 -0.3125 -0.9499
vn 0.3373 -0.8143 -0.4723
vn 0.1196 -0.2888 -0.9499
vn 0.2738 -0.6610 -0.6987
vn 0.6233 -0.6233 -0.4723
vn 0.2210 -0.2210 -0.9499
vn 0.5059 -0.5059 -0.6987
vn 0.2888 -0.1196 -0.9499
vn 0.6610 -0.2738 -0.6987
vn 0.8143 -0.3373 -0.4723
vn 0.7155 0.0000 -0.6987
vn 0.8814 0.0000 -0.4723
vn 0.3125 0.0000 -0.9499
vn 0.6610 0.2738 -0.6987
vn 0.8143 0.3373 -0.4723
vn 0.2888 0.1196 -0.9499
vn 0.2210 0.2210 -0.9499
vn 0.5059 0.5059 -0.6987
vn 0.6233 0.6233 -0.4723
vn 0.2738 0.6610 -0.6987
vn 0.3373 0.8143 -0.4723
vn 0.1196 0.2888 -0.9499
vn 0.0000 -0.8660 0.5000
vn 0.0000 0.5000 0.8660
vn 0.0000 0.8660 -0.5000
vn 0.0000 0.5000 -0.8660
vn 0.0000 -0.8660 -0.5000
vn 0.0000 -0.5000 -0.8660
vn 0.0000 0.8660 0.5000
vn 0.0000 -0.5000 0.8660
vn 0.7071 0.0000 -0.7071
vn 0.9824 0.1866 -0.0000
vn 0.7071 0.0000 0.7071
vn 0.0473 0.0196 0.9987
vn -0.7071 0.0000 0.7071
vn -0.7071 0.0000 -0.7071
vn 0.0473 0.0196 -0.9987
vn 0.7194 0.1448 -0.6794
vn 0.7194 0.1448 0.6794
vn -0.6737 -0.1363 0.7263
vn -0.6737 -0.1363 -0.7263
vn -0.4617 -0.4617 -0.7574
vn 0.0671 0.0671 -0.9955
vn 0.5294 0.5294 -0.6630
vn 0.5294 0.5294 0.6630
vn -0.4617 -0.4617 0.7574
vn 0.0671 0.0671 0.9955
vn 0.1866 0.9824 0.0000
vn 0.1448 0.7194 0.6794
vn 0.0196 0.0473 0.9987
vn -0.1363 -0.6737 -0.7263
vn 0.0196 0.0473 -0.9987
vn 0.1448 0.7194 -0.6794
vn -0.1363 -0.6737 0.7263
vn -0.9824 0.1866 0.0000
vn -0.0473 0.0196 -0.9987
vn -0.0473 0.0196 0.9987
vn -0.7194 0.1448 0.6794
vn -0.7194 0.1448 -0.6794
vn 0.6737 -0.1363 -0.7263
vn 0.6737 -0.1363 0.7263
vn -0.0671 0.0671 0.9955
vn -0.5294 0.5294 0.6630
vn -0.5294 0.5294 -0.6630
vn -0.0671 0.0671 -0.9955
vn 0.4617 -0.4617 -0.7574
vn -0.1866 0.9824 -0.0000
vn -0.1448 0.7194 -0.6794
vn -0.0196 0.0473 -0.9987
vn 0.1363 -0.6737 0.7263
vn -0.0196 0.0473 0.9987
vn -0.1448 0.7194 0.6794
vn 0.1363 -0.6737 -0.7263
vn 0.4617 -0.4617 0.7574
vn 0.9824 -0.1866 0.0000
vn 0.0473 -0.0196 -0.9987
vn 0.0473 -0.0196 0.9987
vn 0.7194 -0.1448 0.6794
vn 0.7194 -0.1448 -0.6794
vn -0.6737 0.1363 -0.7263
vn -0.6737 0.1363 0.7263
vn -0.4617 0.4617 0.7574
vn 0.0671 -0.0671 0.9955
vn 0.5294 -0.5294 0.6630
vn 0.5294 -0.5294 -0.6630
vn -0.4617 0.4617 -0.7574
vn 0.0671 -0.0671 -0.9955
vn 0.1866 -0.9824 -0.0000
vn 0.1448 -0.7194 -0.6794
vn 0.0196 -0.0473 -0.9987
vn 0.0196 -0.0473 0.9987
vn 0.1448 -0.7194 0.6794
vn -0.1363 0.6737 -0.7263
vn -0.1363 0.6737 0.7263
vn -0.9824 -0.1866 0.0000
vn -0.0473 -0.0196 0.9987
vn 0.6737 0.1363 0.7263
vn -0.0473 -0.0196 -0.9987
vn -0.7194 -0.1448 -0.6794
vn -0.7194 -0.1448 0.6794
vn 0.6737 0.1363 -0.7263
vn -0.0671 -0.0671 -0.9955
vn -0.5294 -0.5294 -0.6630
vn -0.5294 -0.5294 0.6630
vn -0.0671 -0.0671 0.9955
vn 0.4617 0.4617 0.7574
vn -0.1866 -0.9824 0.0000
vn -0.1448 -0.7194 0.6794
vn -0.0196 -0.0473 0.9987
vn 0.4617 0.4617 -0.7574
vn -0.0196 -0.0473 -0.9987
vn -0.1448 -0.7194 -0.6794
vn 0.1363 0.6737 0.7263
vn 0.1363 0.6737 -0.7263
s off
f 36/33/11 32/34/11 33/35/11
f 30/36/12 35/37/12 29/38/12
f 28/39/13 33/40/13 27/41/13
f 26/42/14 32/43/14 25/44/14
f 25/44/15 36/45/15 30/36/15
f 29/46/16 34/47/16 28/39/16
f 27/41/17 31/48/17 26/42/17
f 38/49/18 39/50/18 37/51/18
f 41/52/19 44/53/19 43/54/19
f 46/55/20 47/56/20 45/57/20
f 32/34/11 31/58/11 33/35/11
f 33/35/11 34/59/11 35/60/11
f 35/60/11 36/33/11 33/35/11
f 30/36/12 36/45/12 35/37/12
f 28/39/13 34/47/13 33/40/13
f 26/42/14 31/48/14 32/43/14
f 25/44/15 32/43/15 36/45/15
f 29/46/16 35/61/16 34/47/16
f 27/41/17 33/40/17 31/48/17
f 38/49/18 40/62/18 39/50/18
f 41/52/19 42/63/19 44/53/19
f 46/55/20 48/64/20 47/56/20
