# HBM 1.7.10 ammo press part
mtllib ammo_press_item.mtl
o Shells
usemtl hbm
s off
v -0.250000 1.875000 -0.750000
v -0.250000 1.875000 0.750000
v 0.250000 1.875000 0.750000
v 0.250000 1.875000 -0.750000
v -0.250000 1.375000 -0.750000
v -0.250000 1.375000 0.750000
v 0.250000 1.375000 0.750000
v 0.250000 1.375000 -0.750000
vt 0.508772 0.857143
vt 0.719298 0.761905
vt 0.719298 0.857143
vt 0.719298 0.666667
vt 0.508772 0.761905
vt 0.508772 0.666667
vt 0.719298 0.571429
vt 0.508772 0.571429
vt 0.789474 0.761905
vt 0.789474 0.666667
vt 0.438596 0.666667
vt 0.438596 0.761905
vn 1.0000 0.0000 0.0000
vn 0.0000 -1.0000 0.0000
vn -1.0000 0.0000 0.0000
vn 0.0000 0.0000 -1.0000
vn 0.0000 0.0000 1.0000
v 0.250000 1.000000 -0.750000
v 0.250000 1.000000 0.750000
v -0.250000 1.000000 0.750000
v -0.250000 1.000000 -0.750000
v 0.125000 1.000000 0.406250
v 0.102903 1.000000 0.415403
v 0.093750 1.000000 0.437500
v 0.102903 1.000000 0.459597
v 0.125000 1.000000 0.468750
v 0.147097 1.000000 0.459597
v 0.156250 1.000000 0.437500
v 0.147097 1.000000 0.415403
v 0.125000 1.125000 0.406250
v 0.102903 1.125000 0.415403
v 0.093750 1.125000 0.437500
v 0.102903 1.125000 0.459597
v 0.125000 1.125000 0.468750
v 0.147097 1.125000 0.459597
v 0.156250 1.125000 0.437500
v 0.147097 1.125000 0.415403
v 0.156250 1.000000 -0.468750
v 0.156250 1.000000 0.468750
v 0.156250 1.062500 -0.468750
v 0.156250 1.062500 0.468750
v 0.187500 1.000000 -0.468750
v 0.187500 1.000000 0.468750
v 0.187500 1.062500 -0.468750
v 0.187500 1.062500 0.468750
v 0.062500 1.000000 -0.468750
v 0.062500 1.000000 0.468750
v 0.062500 1.062500 -0.468750
v 0.062500 1.062500 0.468750
v 0.093750 1.000000 -0.468750
v 0.093750 1.000000 0.468750
v 0.093750 1.062500 -0.468750
v 0.093750 1.062500 0.468750
v -0.093750 1.000000 -0.468750
v -0.093750 1.000000 0.468750
v -0.093750 1.062500 -0.468750
v -0.093750 1.062500 0.468750
v -0.062500 1.000000 -0.468750
v -0.062500 1.000000 0.468750
v -0.062500 1.062500 -0.468750
v -0.062500 1.062500 0.468750
v -0.187500 1.000000 -0.468750
v -0.187500 1.000000 0.468750
v -0.187500 1.062500 -0.468750
v -0.187500 1.062500 0.468750
v -0.156250 1.000000 -0.468750
v -0.156250 1.000000 0.468750
v -0.156250 1.062500 -0.468750
v -0.156250 1.062500 0.468750
v -0.125000 1.000000 0.406250
v -0.147097 1.000000 0.415403
v -0.156250 1.000000 0.437500
v -0.147097 1.000000 0.459597
v -0.125000 1.000000 0.468750
v -0.102903 1.000000 0.459597
v -0.093750 1.000000 0.437500
v -0.102903 1.000000 0.415403
v -0.125000 1.125000 0.406250
v -0.147097 1.125000 0.415403
v -0.156250 1.125000 0.437500
v -0.147097 1.125000 0.459597
v -0.125000 1.125000 0.468750
v -0.102903 1.125000 0.459597
v -0.093750 1.125000 0.437500
v -0.102903 1.125000 0.415403
v 0.125000 1.000000 0.281250
v 0.102903 1.000000 0.290403
v 0.093750 1.000000 0.312500
v 0.102903 1.000000 0.334597
v 0.125000 1.000000 0.343750
v 0.147097 1.000000 0.334597
v 0.156250 1.000000 0.312500
v 0.147097 1.000000 0.290403
v 0.125000 1.125000 0.281250
v 0.102903 1.125000 0.290403
v 0.093750 1.125000 0.312500
v 0.102903 1.125000 0.334597
v 0.125000 1.125000 0.343750
v 0.147097 1.125000 0.334597
v 0.156250 1.125000 0.312500
v 0.147097 1.125000 0.290403
v -0.125000 1.000000 0.281250
v -0.147097 1.000000 0.290403
v -0.156250 1.000000 0.312500
v -0.147097 1.000000 0.334597
v -0.125000 1.000000 0.343750
v -0.102903 1.000000 0.334597
v -0.093750 1.000000 0.312500
v -0.102903 1.000000 0.290403
v -0.125000 1.125000 0.281250
v -0.147097 1.125000 0.290403
v -0.156250 1.125000 0.312500
v -0.147097 1.125000 0.334597
v -0.125000 1.125000 0.343750
v -0.102903 1.125000 0.334597
v -0.093750 1.125000 0.312500
v -0.102903 1.125000 0.290403
v 0.125000 1.000000 0.156250
v 0.102903 1.000000 0.165403
v 0.093750 1.000000 0.187500
v 0.102903 1.000000 0.209597
v 0.125000 1.000000 0.218750
v 0.147097 1.000000 0.209597
v 0.156250 1.000000 0.187500
v 0.147097 1.000000 0.165403
v 0.125000 1.125000 0.156250
v 0.102903 1.125000 0.165403
v 0.093750 1.125000 0.187500
v 0.102903 1.125000 0.209597
v 0.125000 1.125000 0.218750
v 0.147097 1.125000 0.209597
v 0.156250 1.125000 0.187500
v 0.147097 1.125000 0.165403
v -0.125000 1.000000 0.156250
v -0.147097 1.000000 0.165403
v -0.156250 1.000000 0.187500
v -0.147097 1.000000 0.209597
v -0.125000 1.000000 0.218750
v -0.102903 1.000000 0.209597
v -0.093750 1.000000 0.187500
v -0.102903 1.000000 0.165403
v -0.125000 1.125000 0.156250
v -0.147097 1.125000 0.165403
v -0.156250 1.125000 0.187500
v -0.147097 1.125000 0.209597
v -0.125000 1.125000 0.218750
v -0.102903 1.125000 0.209597
v -0.093750 1.125000 0.187500
v -0.102903 1.125000 0.165403
v 0.125000 1.000000 0.031250
v 0.102903 1.000000 0.040403
v 0.093750 1.000000 0.062500
v 0.102903 1.000000 0.084597
v 0.125000 1.000000 0.093750
v 0.147097 1.000000 0.084597
v 0.156250 1.000000 0.062500
v 0.147097 1.000000 0.040403
v 0.125000 1.125000 0.031250
v 0.102903 1.125000 0.040403
v 0.093750 1.125000 0.062500
v 0.102903 1.125000 0.084597
v 0.125000 1.125000 0.093750
v 0.147097 1.125000 0.084597
v 0.156250 1.125000 0.062500
v 0.147097 1.125000 0.040403
v -0.125000 1.000000 0.031250
v -0.147097 1.000000 0.040403
v -0.156250 1.000000 0.062500
v -0.147097 1.000000 0.084597
v -0.125000 1.000000 0.093750
v -0.102903 1.000000 0.084597
v -0.093750 1.000000 0.062500
v -0.102903 1.000000 0.040403
v -0.125000 1.125000 0.031250
v -0.147097 1.125000 0.040403
v -0.156250 1.125000 0.062500
v -0.147097 1.125000 0.084597
v -0.125000 1.125000 0.093750
v -0.102903 1.125000 0.084597
v -0.093750 1.125000 0.062500
v -0.102903 1.125000 0.040403
v 0.125000 1.000000 -0.093750
v 0.102903 1.000000 -0.084597
v 0.093750 1.000000 -0.062500
v 0.102903 1.000000 -0.040403
v 0.125000 1.000000 -0.031250
v 0.147097 1.000000 -0.040403
v 0.156250 1.000000 -0.062500
v 0.147097 1.000000 -0.084597
v 0.125000 1.125000 -0.093750
v 0.102903 1.125000 -0.084597
v 0.093750 1.125000 -0.062500
v 0.102903 1.125000 -0.040403
v 0.125000 1.125000 -0.031250
v 0.147097 1.125000 -0.040403
v 0.156250 1.125000 -0.062500
v 0.147097 1.125000 -0.084597
v -0.125000 1.000000 -0.093750
v -0.147097 1.000000 -0.084597
v -0.156250 1.000000 -0.062500
v -0.147097 1.000000 -0.040403
v -0.125000 1.000000 -0.031250
v -0.102903 1.000000 -0.040403
v -0.093750 1.000000 -0.062500
v -0.102903 1.000000 -0.084597
v -0.125000 1.125000 -0.093750
v -0.147097 1.125000 -0.084597
v -0.156250 1.125000 -0.062500
v -0.147097 1.125000 -0.040403
v -0.125000 1.125000 -0.031250
v -0.102903 1.125000 -0.040403
v -0.093750 1.125000 -0.062500
v -0.102903 1.125000 -0.084597
v 0.125000 1.000000 -0.218750
v 0.102903 1.000000 -0.209597
v 0.093750 1.000000 -0.187500
v 0.102903 1.000000 -0.165403
v 0.125000 1.000000 -0.156250
v 0.147097 1.000000 -0.165403
v 0.156250 1.000000 -0.187500
v 0.147097 1.000000 -0.209597
v 0.125000 1.125000 -0.218750
v 0.102903 1.125000 -0.209597
v 0.093750 1.125000 -0.187500
v 0.102903 1.125000 -0.165403
v 0.125000 1.125000 -0.156250
v 0.147097 1.125000 -0.165403
v 0.156250 1.125000 -0.187500
v 0.147097 1.125000 -0.209597
v -0.125000 1.000000 -0.218750
v -0.147097 1.000000 -0.209597
v -0.156250 1.000000 -0.187500
v -0.147097 1.000000 -0.165403
v -0.125000 1.000000 -0.156250
v -0.102903 1.000000 -0.165403
v -0.093750 1.000000 -0.187500
v -0.102903 1.000000 -0.209597
v -0.125000 1.125000 -0.218750
v -0.147097 1.125000 -0.209597
v -0.156250 1.125000 -0.187500
v -0.147097 1.125000 -0.165403
v -0.125000 1.125000 -0.156250
v -0.102903 1.125000 -0.165403
v -0.093750 1.125000 -0.187500
v -0.102903 1.125000 -0.209597
v 0.125000 1.000000 -0.343750
v 0.102903 1.000000 -0.334597
v 0.093750 1.000000 -0.312500
v 0.102903 1.000000 -0.290403
v 0.125000 1.000000 -0.281250
v 0.147097 1.000000 -0.290403
v 0.156250 1.000000 -0.312500
v 0.147097 1.000000 -0.334597
v 0.125000 1.125000 -0.343750
v 0.102903 1.125000 -0.334597
v 0.093750 1.125000 -0.312500
v 0.102903 1.125000 -0.290403
v 0.125000 1.125000 -0.281250
v 0.147097 1.125000 -0.290403
v 0.156250 1.125000 -0.312500
v 0.147097 1.125000 -0.334597
v -0.125000 1.000000 -0.343750
v -0.147097 1.000000 -0.334597
v -0.156250 1.000000 -0.312500
v -0.147097 1.000000 -0.290403
v -0.125000 1.000000 -0.281250
v -0.102903 1.000000 -0.290403
v -0.093750 1.000000 -0.312500
v -0.102903 1.000000 -0.334597
v -0.125000 1.125000 -0.343750
v -0.147097 1.125000 -0.334597
v -0.156250 1.125000 -0.312500
v -0.147097 1.125000 -0.290403
v -0.125000 1.125000 -0.281250
v -0.102903 1.125000 -0.290403
v -0.093750 1.125000 -0.312500
v -0.102903 1.125000 -0.334597
v 0.125000 1.000000 -0.468750
v 0.102903 1.000000 -0.459597
v 0.093750 1.000000 -0.437500
v 0.102903 1.000000 -0.415403
v 0.125000 1.000000 -0.406250
v 0.147097 1.000000 -0.415403
v 0.156250 1.000000 -0.437500
v 0.147097 1.000000 -0.459597
v 0.125000 1.125000 -0.468750
v 0.102903 1.125000 -0.459597
v 0.093750 1.125000 -0.437500
v 0.102903 1.125000 -0.415403
v 0.125000 1.125000 -0.406250
v 0.147097 1.125000 -0.415403
v 0.156250 1.125000 -0.437500
v 0.147097 1.125000 -0.459597
v -0.125000 1.000000 -0.468750
v -0.147097 1.000000 -0.459597
v -0.156250 1.000000 -0.437500
v -0.147097 1.000000 -0.415403
v -0.125000 1.000000 -0.406250
v -0.102903 1.000000 -0.415403
v -0.093750 1.000000 -0.437500
v -0.102903 1.000000 -0.459597
v -0.125000 1.125000 -0.468750
v -0.147097 1.125000 -0.459597
v -0.156250 1.125000 -0.437500
v -0.147097 1.125000 -0.415403
v -0.125000 1.125000 -0.406250
v -0.102903 1.125000 -0.415403
v -0.093750 1.125000 -0.437500
v -0.102903 1.125000 -0.459597
vt 0.333333 0.833333
vt 0.122807 0.928571
vt 0.122807 0.833333
vt 0.868620 0.630952
vt 0.877193 0.619317
vt 0.885766 0.630952
vt 0.728070 0.607143
vt 0.859649 0.595238
vt 0.859649 0.607143
vt 0.868421 0.583333
vt 0.868421 0.595238
vt 0.719298 0.595238
vt 0.728070 0.583333
vt 0.728070 0.595238
vt 0.859649 0.583333
vt 0.859649 0.571429
vt 0.728070 0.607143
vt 0.859649 0.595238
vt 0.859649 0.607143
vt 0.868421 0.583333
vt 0.868421 0.595238
vt 0.719298 0.595238
vt 0.728070 0.583333
vt 0.728070 0.595238
vt 0.859649 0.583333
vt 0.859649 0.571429
vt 0.728070 0.607143
vt 0.859649 0.595238
vt 0.859649 0.607143
vt 0.868421 0.583333
vt 0.868421 0.595238
vt 0.719298 0.595238
vt 0.728070 0.583333
vt 0.728070 0.595238
vt 0.859649 0.583333
vt 0.859649 0.571429
vt 0.728070 0.607143
vt 0.859649 0.595238
vt 0.859649 0.607143
vt 0.868421 0.583333
vt 0.868421 0.595238
vt 0.719298 0.595238
vt 0.728070 0.583333
vt 0.728070 0.595238
vt 0.859649 0.583333
vt 0.859649 0.571429
vt 0.868620 0.630952
vt 0.877193 0.619317
vt 0.885766 0.630952
vt 0.868620 0.630952
vt 0.877193 0.619317
vt 0.885766 0.630952
vt 0.868620 0.630952
vt 0.877193 0.619317
vt 0.885766 0.630952
vt 0.868620 0.630952
vt 0.877193 0.619317
vt 0.885766 0.630952
vt 0.868620 0.630952
vt 0.877193 0.619317
vt 0.885766 0.630952
vt 0.868620 0.630952
vt 0.877193 0.619317
vt 0.885766 0.630952
vt 0.868620 0.630952
vt 0.877193 0.619317
vt 0.885766 0.630952
vt 0.868620 0.630952
vt 0.877193 0.619317
vt 0.885766 0.630952
vt 0.868620 0.630952
vt 0.877193 0.619317
vt 0.885766 0.630952
vt 0.868620 0.630952
vt 0.877193 0.619317
vt 0.885766 0.630952
vt 0.868620 0.630952
vt 0.877193 0.619317
vt 0.885766 0.630952
vt 0.868620 0.630952
vt 0.877193 0.619317
vt 0.885766 0.630952
vt 0.868620 0.630952
vt 0.877193 0.619317
vt 0.885766 0.630952
vt 0.868620 0.630952
vt 0.877193 0.619317
vt 0.885766 0.630952
vt 0.868620 0.630952
vt 0.877193 0.619317
vt 0.885766 0.630952
vt 0.333333 0.928571
vt 0.883255 0.639180
vt 0.877193 0.642588
vt 0.871131 0.639180
vt 0.871131 0.622725
vt 0.883255 0.622725
vt 0.719298 0.583333
vt 0.728070 0.571429
vt 0.719298 0.583333
vt 0.728070 0.571429
vt 0.719298 0.583333
vt 0.728070 0.571429
vt 0.719298 0.583333
vt 0.728070 0.571429
vt 0.883255 0.639180
vt 0.877193 0.642588
vt 0.871131 0.639180
vt 0.871131 0.622725
vt 0.883255 0.622725
vt 0.883255 0.639180
vt 0.877193 0.642588
vt 0.871131 0.639180
vt 0.871131 0.622725
vt 0.883255 0.622725
vt 0.883255 0.639180
vt 0.877193 0.642588
vt 0.871131 0.639180
vt 0.871131 0.622725
vt 0.883255 0.622725
vt 0.883255 0.639180
vt 0.877193 0.642588
vt 0.871131 0.639180
vt 0.871131 0.622725
vt 0.883255 0.622725
vt 0.883255 0.639180
vt 0.877193 0.642588
vt 0.871131 0.639180
vt 0.871131 0.622725
vt 0.883255 0.622725
vt 0.883255 0.639180
vt 0.877193 0.642588
vt 0.871131 0.639180
vt 0.871131 0.622725
vt 0.883255 0.622725
vt 0.883255 0.639180
vt 0.877193 0.642588
vt 0.871131 0.639180
vt 0.871131 0.622725
vt 0.883255 0.622725
vt 0.883255 0.639180
vt 0.877193 0.642588
vt 0.871131 0.639180
vt 0.871131 0.622725
vt 0.883255 0.622725
vt 0.883255 0.639180
vt 0.877193 0.642588
vt 0.871131 0.639180
vt 0.871131 0.622725
vt 0.883255 0.622725
vt 0.883255 0.639180
vt 0.877193 0.642588
vt 0.871131 0.639180
vt 0.871131 0.622725
vt 0.883255 0.622725
vt 0.883255 0.639180
vt 0.877193 0.642588
vt 0.871131 0.639180
vt 0.871131 0.622725
vt 0.883255 0.622725
vt 0.883255 0.639180
vt 0.877193 0.642588
vt 0.871131 0.639180
vt 0.871131 0.622725
vt 0.883255 0.622725
vt 0.883255 0.639180
vt 0.877193 0.642588
vt 0.871131 0.639180
vt 0.871131 0.622725
vt 0.883255 0.622725
vt 0.883255 0.639180
vt 0.877193 0.642588
vt 0.871131 0.639180
vt 0.871131 0.622725
vt 0.883255 0.622725
vt 0.883255 0.639180
vt 0.877193 0.642588
vt 0.871131 0.639180
vt 0.871131 0.622725
vt 0.883255 0.622725
vt 0.894737 0.571429
vt 0.885965 0.619048
vt 0.885965 0.571429
vt 0.877193 0.571429
vt 0.868421 0.619048
vt 0.868421 0.571429
vt 0.929825 0.571429
vt 0.921053 0.619048
vt 0.921053 0.571429
vt 0.912281 0.571429
vt 0.903509 0.619048
vt 0.903509 0.571429
vt 0.894737 0.619048
vt 0.877193 0.619048
vt 0.938596 0.571429
vt 0.929825 0.619048
vt 0.912281 0.619048
vt 0.894737 0.571429
vt 0.885965 0.619048
vt 0.885965 0.571429
vt 0.877193 0.571429
vt 0.868421 0.619048
vt 0.868421 0.571429
vt 0.929825 0.571429
vt 0.921053 0.619048
vt 0.921053 0.571429
vt 0.912281 0.571429
vt 0.903509 0.619048
vt 0.903509 0.571429
vt 0.894737 0.619048
vt 0.877193 0.619048
vt 0.938596 0.571429
vt 0.929825 0.619048
vt 0.912281 0.619048
vt 0.894737 0.571429
vt 0.885965 0.619048
vt 0.885965 0.571429
vt 0.877193 0.571429
vt 0.868421 0.619048
vt 0.868421 0.571429
vt 0.929825 0.571429
vt 0.921053 0.619048
vt 0.921053 0.571429
vt 0.912281 0.571429
vt 0.903509 0.619048
vt 0.903509 0.571429
vt 0.894737 0.619048
vt 0.877193 0.619048
vt 0.938596 0.571429
vt 0.929825 0.619048
vt 0.912281 0.619048
vt 0.894737 0.571429
vt 0.885965 0.619048
vt 0.885965 0.571429
vt 0.877193 0.571429
vt 0.868421 0.619048
vt 0.868421 0.571429
vt 0.929825 0.571429
vt 0.921053 0.619048
vt 0.921053 0.571429
vt 0.912281 0.571429
vt 0.903509 0.619048
vt 0.903509 0.571429
vt 0.894737 0.619048
vt 0.877193 0.619048
vt 0.938596 0.571429
vt 0.929825 0.619048
vt 0.912281 0.619048
vt 0.894737 0.571429
vt 0.885965 0.619048
vt 0.885965 0.571429
vt 0.877193 0.571429
vt 0.868421 0.619048
vt 0.868421 0.571429
vt 0.929825 0.571429
vt 0.921053 0.619048
vt 0.921053 0.571429
vt 0.912281 0.571429
vt 0.903509 0.619048
vt 0.903509 0.571429
vt 0.894737 0.619048
vt 0.877193 0.619048
vt 0.938596 0.571429
vt 0.929825 0.619048
vt 0.912281 0.619048
vt 0.894737 0.571429
vt 0.885965 0.619048
vt 0.885965 0.571429
vt 0.877193 0.571429
vt 0.868421 0.619048
vt 0.868421 0.571429
vt 0.929825 0.571429
vt 0.921053 0.619048
vt 0.921053 0.571429
vt 0.912281 0.571429
vt 0.903509 0.619048
vt 0.903509 0.571429
vt 0.894737 0.619048
vt 0.877193 0.619048
vt 0.938596 0.571429
vt 0.929825 0.619048
vt 0.912281 0.619048
vt 0.894737 0.571429
vt 0.885965 0.619048
vt 0.885965 0.571429
vt 0.877193 0.571429
vt 0.868421 0.619048
vt 0.868421 0.571429
vt 0.929825 0.571429
vt 0.921053 0.619048
vt 0.921053 0.571429
vt 0.912281 0.571429
vt 0.903509 0.619048
vt 0.903509 0.571429
vt 0.894737 0.619048
vt 0.877193 0.619048
vt 0.938596 0.571429
vt 0.929825 0.619048
vt 0.912281 0.619048
vt 0.894737 0.571429
vt 0.885965 0.619048
vt 0.885965 0.571429
vt 0.877193 0.571429
vt 0.868421 0.619048
vt 0.868421 0.571429
vt 0.929825 0.571429
vt 0.921053 0.619048
vt 0.921053 0.571429
vt 0.912281 0.571429
vt 0.903509 0.619048
vt 0.903509 0.571429
vt 0.894737 0.619048
vt 0.877193 0.619048
vt 0.938596 0.571429
vt 0.929825 0.619048
vt 0.912281 0.619048
vt 0.894737 0.571429
vt 0.885965 0.619048
vt 0.885965 0.571429
vt 0.877193 0.571429
vt 0.868421 0.619048
vt 0.868421 0.571429
vt 0.929825 0.571429
vt 0.921053 0.619048
vt 0.921053 0.571429
vt 0.912281 0.571429
vt 0.903509 0.619048
vt 0.903509 0.571429
vt 0.894737 0.619048
vt 0.877193 0.619048
vt 0.938596 0.571429
vt 0.929825 0.619048
vt 0.912281 0.619048
vt 0.894737 0.571429
vt 0.885965 0.619048
vt 0.885965 0.571429
vt 0.877193 0.571429
vt 0.868421 0.619048
vt 0.868421 0.571429
vt 0.929825 0.571429
vt 0.921053 0.619048
vt 0.921053 0.571429
vt 0.912281 0.571429
vt 0.903509 0.619048
vt 0.903509 0.571429
vt 0.894737 0.619048
vt 0.877193 0.619048
vt 0.938596 0.571429
vt 0.929825 0.619048
vt 0.912281 0.619048
vt 0.894737 0.571429
vt 0.885965 0.619048
vt 0.885965 0.571429
vt 0.877193 0.571429
vt 0.868421 0.619048
vt 0.868421 0.571429
vt 0.929825 0.571429
vt 0.921053 0.619048
vt 0.921053 0.571429
vt 0.912281 0.571429
vt 0.903509 0.619048
vt 0.903509 0.571429
vt 0.894737 0.619048
vt 0.877193 0.619048
vt 0.938596 0.571429
vt 0.929825 0.619048
vt 0.912281 0.619048
vt 0.894737 0.571429
vt 0.885965 0.619048
vt 0.885965 0.571429
vt 0.877193 0.571429
vt 0.868421 0.619048
vt 0.868421 0.571429
vt 0.929825 0.571429
vt 0.921053 0.619048
vt 0.921053 0.571429
vt 0.912281 0.571429
vt 0.903509 0.619048
vt 0.903509 0.571429
vt 0.894737 0.619048
vt 0.877193 0.619048
vt 0.938596 0.571429
vt 0.929825 0.619048
vt 0.912281 0.619048
vt 0.894737 0.571429
vt 0.885965 0.619048
vt 0.885965 0.571429
vt 0.877193 0.571429
vt 0.868421 0.619048
vt 0.868421 0.571429
vt 0.929825 0.571429
vt 0.921053 0.619048
vt 0.921053 0.571429
vt 0.912281 0.571429
vt 0.903509 0.619048
vt 0.903509 0.571429
vt 0.894737 0.619048
vt 0.877193 0.619048
vt 0.938596 0.571429
vt 0.929825 0.619048
vt 0.912281 0.619048
vt 0.894737 0.571429
vt 0.885965 0.619048
vt 0.885965 0.571429
vt 0.877193 0.571429
vt 0.868421 0.619048
vt 0.868421 0.571429
vt 0.929825 0.571429
vt 0.921053 0.619048
vt 0.921053 0.571429
vt 0.912281 0.571429
vt 0.903509 0.619048
vt 0.903509 0.571429
vt 0.894737 0.619048
vt 0.877193 0.619048
vt 0.938596 0.571429
vt 0.929825 0.619048
vt 0.912281 0.619048
vt 0.894737 0.571429
vt 0.885965 0.619048
vt 0.885965 0.571429
vt 0.877193 0.571429
vt 0.868421 0.619048
vt 0.868421 0.571429
vt 0.929825 0.571429
vt 0.921053 0.619048
vt 0.921053 0.571429
vt 0.912281 0.571429
vt 0.903509 0.619048
vt 0.903509 0.571429
vt 0.894737 0.619048
vt 0.877193 0.619048
vt 0.938596 0.571429
vt 0.929825 0.619048
vt 0.912281 0.619048
vt 0.894737 0.571429
vt 0.885965 0.619048
vt 0.885965 0.571429
vt 0.877193 0.571429
vt 0.868421 0.619048
vt 0.868421 0.571429
vt 0.929825 0.571429
vt 0.921053 0.619048
vt 0.921053 0.571429
vt 0.912281 0.571429
vt 0.903509 0.619048
vt 0.903509 0.571429
vt 0.894737 0.619048
vt 0.877193 0.619048
vt 0.938596 0.571429
vt 0.929825 0.619048
vt 0.912281 0.619048
vt 0.938596 0.619048
vt 0.938596 0.619048
vt 0.938596 0.619048
vt 0.938596 0.619048
vt 0.938596 0.619048
vt 0.938596 0.619048
vt 0.938596 0.619048
vt 0.938596 0.619048
vt 0.938596 0.619048
vt 0.938596 0.619048
vt 0.938596 0.619048
vt 0.938596 0.619048
vt 0.938596 0.619048
vt 0.938596 0.619048
vt 0.938596 0.619048
vt 0.938596 0.619048
vn 0.0000 1.0000 0.0000
vn -1.0000 0.0000 0.0000
vn 0.0000 0.0000 -1.0000
vn 0.0000 0.0000 1.0000
vn 1.0000 0.0000 0.0000
vn 0.7071 0.0000 -0.7071
vn 0.7071 0.0000 0.7071
vn -0.7071 0.0000 0.7071
vn -0.7071 0.0000 -0.7071
v 0.125000 1.125000 0.414062
v 0.108427 1.125000 0.420927
v 0.101562 1.125000 0.437500
v 0.108427 1.125000 0.454073
v 0.125000 1.125000 0.460938
v 0.141573 1.125000 0.454073
v 0.148438 1.125000 0.437500
v 0.141573 1.125000 0.420927
v 0.125000 1.187500 0.437500
v 0.141573 1.156250 0.454073
v 0.125000 1.156250 0.460938
v 0.108427 1.156250 0.454073
v 0.101562 1.156250 0.437500
v 0.108427 1.156250 0.420927
v 0.125000 1.156250 0.414062
v 0.141573 1.156250 0.420927
v 0.148438 1.156250 0.437500
v -0.125000 1.125000 0.414062
v -0.141573 1.125000 0.420927
v -0.148438 1.125000 0.437500
v -0.141573 1.125000 0.454073
v -0.125000 1.125000 0.460938
v -0.108427 1.125000 0.454073
v -0.101562 1.125000 0.437500
v -0.108427 1.125000 0.420927
v -0.125000 1.187500 0.437500
v -0.108427 1.156250 0.454073
v -0.125000 1.156250 0.460938
v -0.141573 1.156250 0.454073
v -0.148438 1.156250 0.437500
v -0.141573 1.156250 0.420927
v -0.125000 1.156250 0.414062
v -0.108427 1.156250 0.420927
v -0.101562 1.156250 0.437500
v 0.125000 1.125000 0.289062
v 0.108427 1.125000 0.295927
v 0.101562 1.125000 0.312500
v 0.108427 1.125000 0.329073
v 0.125000 1.125000 0.335938
v 0.141573 1.125000 0.329073
v 0.148438 1.125000 0.312500
v 0.141573 1.125000 0.295927
v 0.125000 1.187500 0.312500
v 0.141573 1.156250 0.329073
v 0.125000 1.156250 0.335938
v 0.108427 1.156250 0.329073
v 0.101562 1.156250 0.312500
v 0.108427 1.156250 0.295927
v 0.125000 1.156250 0.289062
v 0.141573 1.156250 0.295927
v 0.148438 1.156250 0.312500
v -0.125000 1.125000 0.289062
v -0.141573 1.125000 0.295927
v -0.148438 1.125000 0.312500
v -0.141573 1.125000 0.329073
v -0.125000 1.125000 0.335938
v -0.108427 1.125000 0.329073
v -0.101562 1.125000 0.312500
v -0.108427 1.125000 0.295927
v -0.125000 1.187500 0.312500
v -0.108427 1.156250 0.329073
v -0.125000 1.156250 0.335938
v -0.141573 1.156250 0.329073
v -0.148438 1.156250 0.312500
v -0.141573 1.156250 0.295927
v -0.125000 1.156250 0.289062
v -0.108427 1.156250 0.295927
v -0.101562 1.156250 0.312500
v 0.125000 1.125000 0.164062
v 0.108427 1.125000 0.170927
v 0.101562 1.125000 0.187500
v 0.108427 1.125000 0.204073
v 0.125000 1.125000 0.210938
v 0.141573 1.125000 0.204073
v 0.148438 1.125000 0.187500
v 0.141573 1.125000 0.170927
v 0.125000 1.187500 0.187500
v 0.141573 1.156250 0.204073
v 0.125000 1.156250 0.210938
v 0.108427 1.156250 0.204073
v 0.101562 1.156250 0.187500
v 0.108427 1.156250 0.170927
v 0.125000 1.156250 0.164062
v 0.141573 1.156250 0.170927
v 0.148438 1.156250 0.187500
v -0.125000 1.125000 0.164062
v -0.141573 1.125000 0.170927
v -0.148438 1.125000 0.187500
v -0.141573 1.125000 0.204073
v -0.125000 1.125000 0.210938
v -0.108427 1.125000 0.204073
v -0.101562 1.125000 0.187500
v -0.108427 1.125000 0.170927
v -0.125000 1.187500 0.187500
v -0.108427 1.156250 0.204073
v -0.125000 1.156250 0.210938
v -0.141573 1.156250 0.204073
v -0.148438 1.156250 0.187500
v -0.141573 1.156250 0.170927
v -0.125000 1.156250 0.164062
v -0.108427 1.156250 0.170927
v -0.101562 1.156250 0.187500
v 0.125000 1.125000 0.039062
v 0.108427 1.125000 0.045927
v 0.101562 1.125000 0.062500
v 0.108427 1.125000 0.079073
v 0.125000 1.125000 0.085938
v 0.141573 1.125000 0.079073
v 0.148438 1.125000 0.062500
v 0.141573 1.125000 0.045927
v 0.125000 1.187500 0.062500
v 0.141573 1.156250 0.079073
v 0.125000 1.156250 0.085938
v 0.108427 1.156250 0.079073
v 0.101562 1.156250 0.062500
v 0.108427 1.156250 0.045927
v 0.125000 1.156250 0.039062
v 0.141573 1.156250 0.045927
v 0.148438 1.156250 0.062500
v -0.125000 1.125000 0.039062
v -0.141573 1.125000 0.045927
v -0.148438 1.125000 0.062500
v -0.141573 1.125000 0.079073
v -0.125000 1.125000 0.085938
v -0.108427 1.125000 0.079073
v -0.101562 1.125000 0.062500
v -0.108427 1.125000 0.045927
v -0.125000 1.187500 0.062500
v -0.108427 1.156250 0.079073
v -0.125000 1.156250 0.085938
v -0.141573 1.156250 0.079073
v -0.148438 1.156250 0.062500
v -0.141573 1.156250 0.045927
v -0.125000 1.156250 0.039062
v -0.108427 1.156250 0.045927
v -0.101562 1.156250 0.062500
v 0.125000 1.125000 -0.085938
v 0.108427 1.125000 -0.079073
v 0.101562 1.125000 -0.062500
v 0.108427 1.125000 -0.045927
v 0.125000 1.125000 -0.039062
v 0.141573 1.125000 -0.045927
v 0.148438 1.125000 -0.062500
v 0.141573 1.125000 -0.079073
v 0.125000 1.187500 -0.062500
v 0.141573 1.156250 -0.045927
v 0.125000 1.156250 -0.039062
v 0.108427 1.156250 -0.045927
v 0.101562 1.156250 -0.062500
v 0.108427 1.156250 -0.079073
v 0.125000 1.156250 -0.085938
v 0.141573 1.156250 -0.079073
v 0.148438 1.156250 -0.062500
v -0.125000 1.125000 -0.085938
v -0.141573 1.125000 -0.079073
v -0.148438 1.125000 -0.062500
v -0.141573 1.125000 -0.045927
v -0.125000 1.125000 -0.039062
v -0.108427 1.125000 -0.045927
v -0.101562 1.125000 -0.062500
v -0.108427 1.125000 -0.079073
v -0.125000 1.187500 -0.062500
v -0.108427 1.156250 -0.045927
v -0.125000 1.156250 -0.039062
v -0.141573 1.156250 -0.045927
v -0.148438 1.156250 -0.062500
v -0.141573 1.156250 -0.079073
v -0.125000 1.156250 -0.085938
v -0.108427 1.156250 -0.079073
v -0.101562 1.156250 -0.062500
v 0.125000 1.125000 -0.210938
v 0.108427 1.125000 -0.204073
v 0.101562 1.125000 -0.187500
v 0.108427 1.125000 -0.170927
v 0.125000 1.125000 -0.164062
v 0.141573 1.125000 -0.170927
v 0.148438 1.125000 -0.187500
v 0.141573 1.125000 -0.204073
v 0.125000 1.187500 -0.187500
v 0.141573 1.156250 -0.170927
v 0.125000 1.156250 -0.164062
v 0.108427 1.156250 -0.170927
v 0.101562 1.156250 -0.187500
v 0.108427 1.156250 -0.204073
v 0.125000 1.156250 -0.210938
v 0.141573 1.156250 -0.204073
v 0.148438 1.156250 -0.187500
v -0.125000 1.125000 -0.210938
v -0.141573 1.125000 -0.204073
v -0.148438 1.125000 -0.187500
v -0.141573 1.125000 -0.170927
v -0.125000 1.125000 -0.164062
v -0.108427 1.125000 -0.170927
v -0.101562 1.125000 -0.187500
v -0.108427 1.125000 -0.204073
v -0.125000 1.187500 -0.187500
v -0.108427 1.156250 -0.170927
v -0.125000 1.156250 -0.164062
v -0.141573 1.156250 -0.170927
v -0.148438 1.156250 -0.187500
v -0.141573 1.156250 -0.204073
v -0.125000 1.156250 -0.210938
v -0.108427 1.156250 -0.204073
v -0.101562 1.156250 -0.187500
v 0.125000 1.125000 -0.335938
v 0.108427 1.125000 -0.329073
v 0.101562 1.125000 -0.312500
v 0.108427 1.125000 -0.295927
v 0.125000 1.125000 -0.289062
v 0.141573 1.125000 -0.295927
v 0.148438 1.125000 -0.312500
v 0.141573 1.125000 -0.329073
v 0.125000 1.187500 -0.312500
v 0.141573 1.156250 -0.295927
v 0.125000 1.156250 -0.289062
v 0.108427 1.156250 -0.295927
v 0.101562 1.156250 -0.312500
v 0.108427 1.156250 -0.329073
v 0.125000 1.156250 -0.335938
v 0.141573 1.156250 -0.329073
v 0.148438 1.156250 -0.312500
v -0.125000 1.125000 -0.335938
v -0.141573 1.125000 -0.329073
v -0.148438 1.125000 -0.312500
v -0.141573 1.125000 -0.295927
v -0.125000 1.125000 -0.289062
v -0.108427 1.125000 -0.295927
v -0.101562 1.125000 -0.312500
v -0.108427 1.125000 -0.329073
v -0.125000 1.187500 -0.312500
v -0.108427 1.156250 -0.295927
v -0.125000 1.156250 -0.289062
v -0.141573 1.156250 -0.295927
v -0.148438 1.156250 -0.312500
v -0.141573 1.156250 -0.329073
v -0.125000 1.156250 -0.335938
v -0.108427 1.156250 -0.329073
v -0.101562 1.156250 -0.312500
v 0.125000 1.125000 -0.460938
v 0.108427 1.125000 -0.454073
v 0.101562 1.125000 -0.437500
v 0.108427 1.125000 -0.420927
v 0.125000 1.125000 -0.414062
v 0.141573 1.125000 -0.420927
v 0.148438 1.125000 -0.437500
v 0.141573 1.125000 -0.454073
v 0.125000 1.187500 -0.437500
v 0.141573 1.156250 -0.420927
v 0.125000 1.156250 -0.414062
v 0.108427 1.156250 -0.420927
v 0.101562 1.156250 -0.437500
v 0.108427 1.156250 -0.454073
v 0.125000 1.156250 -0.460938
v 0.141573 1.156250 -0.454073
v 0.148438 1.156250 -0.437500
v -0.125000 1.125000 -0.460938
v -0.141573 1.125000 -0.454073
v -0.148438 1.125000 -0.437500
v -0.141573 1.125000 -0.420927
v -0.125000 1.125000 -0.414062
v -0.108427 1.125000 -0.420927
v -0.101562 1.125000 -0.437500
v -0.108427 1.125000 -0.454073
v -0.125000 1.187500 -0.437500
v -0.108427 1.156250 -0.420927
v -0.125000 1.156250 -0.414062
v -0.141573 1.156250 -0.420927
v -0.148438 1.156250 -0.437500
v -0.141573 1.156250 -0.454073
v -0.125000 1.156250 -0.460938
v -0.108427 1.156250 -0.454073
v -0.101562 1.156250 -0.437500
vt 0.894737 0.642857
vt 0.885965 0.654762
vt 0.885965 0.642857
vt 0.877193 0.666667
vt 0.877193 0.654762
vt 0.929825 0.666667
vt 0.929825 0.654762
vt 0.938596 0.654762
vt 0.912281 0.666667
vt 0.912281 0.654762
vt 0.921053 0.654762
vt 0.885965 0.666667
vt 0.894737 0.654762
vt 0.868421 0.666667
vt 0.868421 0.654762
vt 0.921053 0.666667
vt 0.894737 0.666667
vt 0.903509 0.654762
vt 0.921053 0.642857
vt 0.912281 0.642857
vt 0.938596 0.642857
vt 0.929825 0.642857
vt 0.877193 0.642857
vt 0.903509 0.642857
vt 0.868421 0.642857
vt 0.903509 0.666667
vt 0.894737 0.642857
vt 0.885965 0.654762
vt 0.885965 0.642857
vt 0.877193 0.666667
vt 0.877193 0.654762
vt 0.929825 0.666667
vt 0.929825 0.654762
vt 0.938596 0.654762
vt 0.912281 0.666667
vt 0.912281 0.654762
vt 0.921053 0.654762
vt 0.885965 0.666667
vt 0.894737 0.654762
vt 0.868421 0.666667
vt 0.868421 0.654762
vt 0.921053 0.666667
vt 0.894737 0.666667
vt 0.903509 0.654762
vt 0.921053 0.642857
vt 0.912281 0.642857
vt 0.938596 0.642857
vt 0.929825 0.642857
vt 0.877193 0.642857
vt 0.903509 0.642857
vt 0.868421 0.642857
vt 0.903509 0.666667
vt 0.894737 0.642857
vt 0.885965 0.654762
vt 0.885965 0.642857
vt 0.877193 0.666667
vt 0.877193 0.654762
vt 0.929825 0.666667
vt 0.929825 0.654762
vt 0.938596 0.654762
vt 0.912281 0.666667
vt 0.912281 0.654762
vt 0.921053 0.654762
vt 0.885965 0.666667
vt 0.894737 0.654762
vt 0.868421 0.666667
vt 0.868421 0.654762
vt 0.921053 0.666667
vt 0.894737 0.666667
vt 0.903509 0.654762
vt 0.921053 0.642857
vt 0.912281 0.642857
vt 0.938596 0.642857
vt 0.929825 0.642857
vt 0.877193 0.642857
vt 0.903509 0.642857
vt 0.868421 0.642857
vt 0.903509 0.666667
vt 0.894737 0.642857
vt 0.885965 0.654762
vt 0.885965 0.642857
vt 0.877193 0.666667
vt 0.877193 0.654762
vt 0.929825 0.666667
vt 0.929825 0.654762
vt 0.938596 0.654762
vt 0.912281 0.666667
vt 0.912281 0.654762
vt 0.921053 0.654762
vt 0.885965 0.666667
vt 0.894737 0.654762
vt 0.868421 0.666667
vt 0.868421 0.654762
vt 0.921053 0.666667
vt 0.894737 0.666667
vt 0.903509 0.654762
vt 0.921053 0.642857
vt 0.912281 0.642857
vt 0.938596 0.642857
vt 0.929825 0.642857
vt 0.877193 0.642857
vt 0.903509 0.642857
vt 0.868421 0.642857
vt 0.903509 0.666667
vt 0.894737 0.642857
vt 0.885965 0.654762
vt 0.885965 0.642857
vt 0.877193 0.666667
vt 0.877193 0.654762
vt 0.929825 0.666667
vt 0.929825 0.654762
vt 0.938596 0.654762
vt 0.912281 0.666667
vt 0.912281 0.654762
vt 0.921053 0.654762
vt 0.885965 0.666667
vt 0.894737 0.654762
vt 0.868421 0.666667
vt 0.868421 0.654762
vt 0.921053 0.666667
vt 0.894737 0.666667
vt 0.903509 0.654762
vt 0.921053 0.642857
vt 0.912281 0.642857
vt 0.938596 0.642857
vt 0.929825 0.642857
vt 0.877193 0.642857
vt 0.903509 0.642857
vt 0.868421 0.642857
vt 0.903509 0.666667
vt 0.894737 0.642857
vt 0.885965 0.654762
vt 0.885965 0.642857
vt 0.877193 0.666667
vt 0.877193 0.654762
vt 0.929825 0.666667
vt 0.929825 0.654762
vt 0.938596 0.654762
vt 0.912281 0.666667
vt 0.912281 0.654762
vt 0.921053 0.654762
vt 0.885965 0.666667
vt 0.894737 0.654762
vt 0.868421 0.666667
vt 0.868421 0.654762
vt 0.921053 0.666667
vt 0.894737 0.666667
vt 0.903509 0.654762
vt 0.921053 0.642857
vt 0.912281 0.642857
vt 0.938596 0.642857
vt 0.929825 0.642857
vt 0.877193 0.642857
vt 0.903509 0.642857
vt 0.868421 0.642857
vt 0.903509 0.666667
vt 0.894737 0.642857
vt 0.885965 0.654762
vt 0.885965 0.642857
vt 0.877193 0.666667
vt 0.877193 0.654762
vt 0.929825 0.666667
vt 0.929825 0.654762
vt 0.938596 0.654762
vt 0.912281 0.666667
vt 0.912281 0.654762
vt 0.921053 0.654762
vt 0.885965 0.666667
vt 0.894737 0.654762
vt 0.868421 0.666667
vt 0.868421 0.654762
vt 0.921053 0.666667
vt 0.894737 0.666667
vt 0.903509 0.654762
vt 0.921053 0.642857
vt 0.912281 0.642857
vt 0.938596 0.642857
vt 0.929825 0.642857
vt 0.877193 0.642857
vt 0.903509 0.642857
vt 0.868421 0.642857
vt 0.903509 0.666667
vt 0.894737 0.642857
vt 0.885965 0.654762
vt 0.885965 0.642857
vt 0.877193 0.666667
vt 0.877193 0.654762
vt 0.929825 0.666667
vt 0.929825 0.654762
vt 0.938596 0.654762
vt 0.912281 0.666667
vt 0.912281 0.654762
vt 0.921053 0.654762
vt 0.885965 0.666667
vt 0.894737 0.654762
vt 0.868421 0.666667
vt 0.868421 0.654762
vt 0.921053 0.666667
vt 0.894737 0.666667
vt 0.903509 0.654762
vt 0.921053 0.642857
vt 0.912281 0.642857
vt 0.938596 0.642857
vt 0.929825 0.642857
vt 0.877193 0.642857
vt 0.903509 0.642857
vt 0.868421 0.642857
vt 0.903509 0.666667
vt 0.894737 0.642857
vt 0.885965 0.654762
vt 0.885965 0.642857
vt 0.877193 0.666667
vt 0.877193 0.654762
vt 0.929825 0.666667
vt 0.929825 0.654762
vt 0.938596 0.654762
vt 0.912281 0.666667
vt 0.912281 0.654762
vt 0.921053 0.654762
vt 0.885965 0.666667
vt 0.894737 0.654762
vt 0.868421 0.666667
vt 0.868421 0.654762
vt 0.921053 0.666667
vt 0.894737 0.666667
vt 0.903509 0.654762
vt 0.921053 0.642857
vt 0.912281 0.642857
vt 0.938596 0.642857
vt 0.929825 0.642857
vt 0.877193 0.642857
vt 0.903509 0.642857
vt 0.868421 0.642857
vt 0.903509 0.666667
vt 0.894737 0.642857
vt 0.885965 0.654762
vt 0.885965 0.642857
vt 0.877193 0.666667
vt 0.877193 0.654762
vt 0.929825 0.666667
vt 0.929825 0.654762
vt 0.938596 0.654762
vt 0.912281 0.666667
vt 0.912281 0.654762
vt 0.921053 0.654762
vt 0.885965 0.666667
vt 0.894737 0.654762
vt 0.868421 0.666667
vt 0.868421 0.654762
vt 0.921053 0.666667
vt 0.894737 0.666667
vt 0.903509 0.654762
vt 0.921053 0.642857
vt 0.912281 0.642857
vt 0.938596 0.642857
vt 0.929825 0.642857
vt 0.877193 0.642857
vt 0.903509 0.642857
vt 0.868421 0.642857
vt 0.903509 0.666667
vt 0.894737 0.642857
vt 0.885965 0.654762
vt 0.885965 0.642857
vt 0.877193 0.666667
vt 0.877193 0.654762
vt 0.929825 0.666667
vt 0.929825 0.654762
vt 0.938596 0.654762
vt 0.912281 0.666667
vt 0.912281 0.654762
vt 0.921053 0.654762
vt 0.885965 0.666667
vt 0.894737 0.654762
vt 0.868421 0.666667
vt 0.868421 0.654762
vt 0.921053 0.666667
vt 0.894737 0.666667
vt 0.903509 0.654762
vt 0.921053 0.642857
vt 0.912281 0.642857
vt 0.938596 0.642857
vt 0.929825 0.642857
vt 0.877193 0.642857
vt 0.903509 0.642857
vt 0.868421 0.642857
vt 0.903509 0.666667
vt 0.894737 0.642857
vt 0.885965 0.654762
vt 0.885965 0.642857
vt 0.877193 0.666667
vt 0.877193 0.654762
vt 0.929825 0.666667
vt 0.929825 0.654762
vt 0.938596 0.654762
vt 0.912281 0.666667
vt 0.912281 0.654762
vt 0.921053 0.654762
vt 0.885965 0.666667
vt 0.894737 0.654762
vt 0.868421 0.666667
vt 0.868421 0.654762
vt 0.921053 0.666667
vt 0.894737 0.666667
vt 0.903509 0.654762
vt 0.921053 0.642857
vt 0.912281 0.642857
vt 0.938596 0.642857
vt 0.929825 0.642857
vt 0.877193 0.642857
vt 0.903509 0.642857
vt 0.868421 0.642857
vt 0.903509 0.666667
vt 0.894737 0.642857
vt 0.885965 0.654762
vt 0.885965 0.642857
vt 0.877193 0.666667
vt 0.877193 0.654762
vt 0.929825 0.666667
vt 0.929825 0.654762
vt 0.938596 0.654762
vt 0.912281 0.666667
vt 0.912281 0.654762
vt 0.921053 0.654762
vt 0.885965 0.666667
vt 0.894737 0.654762
vt 0.868421 0.666667
vt 0.868421 0.654762
vt 0.921053 0.666667
vt 0.894737 0.666667
vt 0.903509 0.654762
vt 0.921053 0.642857
vt 0.912281 0.642857
vt 0.938596 0.642857
vt 0.929825 0.642857
vt 0.877193 0.642857
vt 0.903509 0.642857
vt 0.868421 0.642857
vt 0.903509 0.666667
vt 0.894737 0.642857
vt 0.885965 0.654762
vt 0.885965 0.642857
vt 0.877193 0.666667
vt 0.877193 0.654762
vt 0.929825 0.666667
vt 0.929825 0.654762
vt 0.938596 0.654762
vt 0.912281 0.666667
vt 0.912281 0.654762
vt 0.921053 0.654762
vt 0.885965 0.666667
vt 0.894737 0.654762
vt 0.868421 0.666667
vt 0.868421 0.654762
vt 0.921053 0.666667
vt 0.894737 0.666667
vt 0.903509 0.654762
vt 0.921053 0.642857
vt 0.912281 0.642857
vt 0.938596 0.642857
vt 0.929825 0.642857
vt 0.877193 0.642857
vt 0.903509 0.642857
vt 0.868421 0.642857
vt 0.903509 0.666667
vt 0.894737 0.642857
vt 0.885965 0.654762
vt 0.885965 0.642857
vt 0.877193 0.666667
vt 0.877193 0.654762
vt 0.929825 0.666667
vt 0.929825 0.654762
vt 0.938596 0.654762
vt 0.912281 0.666667
vt 0.912281 0.654762
vt 0.921053 0.654762
vt 0.885965 0.666667
vt 0.894737 0.654762
vt 0.868421 0.666667
vt 0.868421 0.654762
vt 0.921053 0.666667
vt 0.894737 0.666667
vt 0.903509 0.654762
vt 0.921053 0.642857
vt 0.912281 0.642857
vt 0.938596 0.642857
vt 0.929825 0.642857
vt 0.877193 0.642857
vt 0.903509 0.642857
vt 0.868421 0.642857
vt 0.903509 0.666667
vt 0.894737 0.642857
vt 0.885965 0.654762
vt 0.885965 0.642857
vt 0.877193 0.666667
vt 0.877193 0.654762
vt 0.929825 0.666667
vt 0.929825 0.654762
vt 0.938596 0.654762
vt 0.912281 0.666667
vt 0.912281 0.654762
vt 0.921053 0.654762
vt 0.885965 0.666667
vt 0.894737 0.654762
vt 0.868421 0.666667
vt 0.868421 0.654762
vt 0.921053 0.666667
vt 0.894737 0.666667
vt 0.903509 0.654762
vt 0.921053 0.642857
vt 0.912281 0.642857
vt 0.938596 0.642857
vt 0.929825 0.642857
vt 0.877193 0.642857
vt 0.903509 0.642857
vt 0.868421 0.642857
vt 0.903509 0.666667
vn 0.7071 0.0000 -0.7071
vn 0.9554 0.2952 -0.0000
vn 1.0000 0.0000 0.0000
vn -0.0000 1.0000 -0.0000
vn 0.6756 0.2952 0.6756
vn -0.6756 0.2952 0.6756
vn 0.0000 0.2952 0.9554
vn -0.6756 0.2952 -0.6756
vn -0.9554 0.2952 -0.0000
vn 0.6756 0.2952 -0.6756
vn -0.0000 0.2952 -0.9554
vn -1.0000 0.0000 0.0000
vn -0.7071 0.0000 -0.7071
vn -0.0000 0.0000 1.0000
vn -0.7071 0.0000 0.7071
vn 0.7071 0.0000 0.7071
vn 0.0000 0.0000 -1.0000
v -0.500000 0.000000 1.500000
v 0.500000 0.000000 1.500000
v -0.500000 0.000000 -1.500000
v 0.500000 0.000000 -1.500000
v -0.437500 0.125000 1.437500
v 0.437500 0.125000 1.437500
v -0.437500 0.125000 -1.437500
v 0.437500 0.125000 -1.437500
v -0.437500 0.875000 1.437500
v 0.437500 0.875000 1.437500
v -0.437500 0.875000 -1.437500
v 0.437500 0.875000 -1.437500
v -0.500000 1.000000 1.500000
v 0.500000 1.000000 1.500000
v -0.500000 1.000000 -1.500000
v 0.500000 1.000000 -1.500000
v -0.500000 0.125000 -1.500000
v -0.500000 0.125000 1.500000
v 0.500000 0.125000 1.500000
v 0.500000 0.125000 -1.500000
v -0.500000 0.875000 -1.500000
v -0.500000 0.875000 1.500000
v 0.500000 0.875000 1.500000
v 0.500000 0.875000 -1.500000
v 0.250000 1.000000 -0.750000
v 0.250000 1.000000 0.750000
v -0.250000 1.000000 0.750000
v -0.250000 1.000000 -0.750000
v -0.500000 1.500000 -1.500000
v -0.500000 1.500000 1.500000
v 0.500000 1.500000 1.500000
v 0.500000 1.500000 -1.500000
v -0.250000 1.500000 -0.750000
v -0.250000 1.500000 0.750000
v 0.250000 1.500000 0.750000
v 0.250000 1.500000 -0.750000
v 0.437500 1.500000 -1.437500
v 0.437500 1.500000 -1.062500
v -0.437500 1.500000 -1.062500
v -0.437500 1.500000 -1.437500
v 0.437500 1.000000 -1.437500
v 0.437500 1.000000 -1.062500
v -0.437500 1.000000 -1.062500
v -0.437500 1.000000 -1.437500
v -0.437500 1.000000 1.062500
v -0.437500 1.000000 1.437500
v 0.437500 1.000000 1.437500
v 0.437500 1.000000 1.062500
v -0.437500 1.500000 1.062500
v -0.437500 1.500000 1.437500
v 0.437500 1.500000 1.437500
v 0.437500 1.500000 1.062500
v -0.500000 1.750000 1.500000
v -0.500000 2.000000 1.250000
v 0.500000 2.000000 1.250000
v 0.500000 1.750000 1.500000
v -0.500000 2.000000 -1.250000
v -0.500000 1.750000 -1.500000
v 0.500000 1.750000 -1.500000
v 0.500000 2.000000 -1.250000
v 0.250000 0.875000 0.750000
v 0.250000 0.875000 -0.750000
v -0.250000 0.875000 0.750000
v -0.250000 0.875000 -0.750000
vt 0.438596 0.166667
vt 0.017544 0.357143
vt 0.017544 0.166667
vt 0.421053 0.142857
vt 0.017544 0.000000
vt 0.421053 -0.000000
vt 0.438596 0.142857
vt 0.456140 0.357143
vt 0.438596 0.357143
vt 0.000000 0.166667
vt 0.017544 0.380952
vt 0.543860 0.142857
vt 0.421053 -0.000000
vt 0.543860 -0.000000
vt 0.333333 0.833333
vt 0.017544 0.785714
vt 0.438596 0.785714
vt 0.017544 1.000000
vt 0.438596 0.976190
vt 0.438596 1.000000
vt 0.456140 0.976190
vt 0.456140 0.785714
vt -0.000000 0.785714
vt 0.017544 0.976190
vt -0.000000 0.976190
vt 0.438596 0.761905
vt 0.017544 0.761905
vt 0.429825 0.559524
vt 0.017544 0.571429
vt 0.026316 0.559524
vt 0.026316 0.392857
vt 0.438596 0.380952
vt 0.429825 0.392857
vt 0.438596 0.571429
vt 0.026316 0.583333
vt 0.438596 0.571429
vt 0.429825 0.583333
vt 0.026316 0.750000
vt 0.017544 0.571429
vt 0.429825 0.750000
vt 0.543860 0.142857
vt 0.543860 -0.000000
vt 0.421053 0.142857
vt 0.017544 0.000000
vt 0.543860 0.476190
vt 0.508772 0.285714
vt 0.543860 0.285714
vt 0.964912 0.190476
vt 0.859649 0.047619
vt 0.964912 0.000000
vt 0.578947 0.285714
vt 0.929825 0.476190
vt 0.578947 0.476190
vt 0.096491 0.619048
vt 0.114035 0.714286
vt 0.096491 0.714286
vt 0.543860 0.190476
vt 0.929825 0.285714
vt 0.964912 0.285714
vt 1.000000 0.476190
vt 0.964912 0.476190
vt 0.543860 -0.000000
vt 0.649123 0.142857
vt 0.859649 0.142857
vt 0.649123 0.047619
vt 0.201754 0.392857
vt 0.149123 0.488095
vt 0.149123 0.392857
vt 0.026316 0.488095
vt 0.026316 0.392857
vt 0.324561 0.392857
vt 0.201754 0.488095
vt 0.377193 0.392857
vt 0.324561 0.488095
vt 0.377193 0.392857
vt 0.324561 0.488095
vt 0.324561 0.392857
vt 0.201754 0.488095
vt 0.201754 0.392857
vt 0.149123 0.392857
vt 0.026316 0.488095
vt 0.026316 0.392857
vt 0.149123 0.488095
vt 0.964912 0.571429
vt 0.543860 0.571429
vt 0.122807 0.833333
vt 0.122807 0.928571
vt 0.333333 0.928571
vt 0.324561 0.714286
vt 0.114035 0.619048
vt 0.324561 0.619048
vt 0.114035 0.738095
vt 0.324561 0.738095
vt 0.324561 0.595238
vt 0.114035 0.595238
vt 0.342105 0.714286
vt 0.342105 0.619048
vt 0.017544 0.142857
vt 0.017544 0.142857
vt 0.456140 0.166667
vt 0.000000 0.357143
vt 0.017544 0.142857
vt 0.508772 0.476190
vt 0.964912 0.238095
vt 0.543860 0.238095
vt 1.000000 0.285714
vt 0.377193 0.488095
vt 0.377193 0.488095
vt 0.543860 0.523810
vt 0.964912 0.523810
vn 0.0000 -1.0000 0.0000
vn 1.0000 0.0000 0.0000
vn -1.0000 0.0000 0.0000
vn 0.0000 0.0000 -1.0000
vn 0.0000 0.0000 1.0000
vn 0.0000 1.0000 0.0000
vn 0.0000 0.7071 0.7071
vn 0.0000 0.7071 -0.7071
f 9/13/6 11/14/6 10/15/6
f 25/16/6 27/17/6 21/18/6
f 30/19/7 31/20/7 29/21/7
f 31/20/8 33/22/8 29/23/8
f 30/24/9 36/25/9 32/26/9
f 32/26/6 35/27/6 31/20/6
f 36/25/10 33/28/10 35/27/10
f 38/29/7 39/30/7 37/31/7
f 39/30/8 41/32/8 37/33/8
f 38/34/9 44/35/9 40/36/9
f 40/36/6 43/37/6 39/30/6
f 44/35/10 41/38/10 43/37/10
f 46/39/7 47/40/7 45/41/7
f 47/40/8 49/42/8 45/43/8
f 46/44/9 52/45/9 48/46/9
f 48/46/6 51/47/6 47/40/6
f 52/45/10 49/48/10 51/47/10
f 54/49/7 55/50/7 53/51/7
f 55/50/8 57/52/8 53/53/8
f 54/54/9 60/55/9 56/56/9
f 56/56/6 59/57/6 55/50/6
f 60/55/10 57/58/10 59/57/10
f 73/59/6 75/60/6 69/61/6
f 89/62/6 91/63/6 85/64/6
f 105/65/6 107/66/6 101/67/6
f 121/68/6 123/69/6 117/70/6
f 137/71/6 139/72/6 133/73/6
f 153/74/6 155/75/6 149/76/6
f 169/77/6 171/78/6 165/79/6
f 185/80/6 187/81/6 181/82/6
f 201/83/6 203/84/6 197/85/6
f 217/86/6 219/87/6 213/88/6
f 233/89/6 235/90/6 229/91/6
f 249/92/6 251/93/6 245/94/6
f 265/95/6 267/96/6 261/97/6
f 281/98/6 283/99/6 277/100/6
f 297/101/6 299/102/6 293/103/6
f 9/13/6 12/104/6 11/14/6
f 21/18/6 22/105/6 23/106/6
f 23/106/6 24/107/6 25/16/6
f 25/16/6 26/108/6 27/17/6
f 27/17/6 28/109/6 21/18/6
f 21/18/6 23/106/6 25/16/6
f 30/19/7 32/26/7 31/20/7
f 31/20/8 35/27/8 33/22/8
f 30/24/9 34/110/9 36/25/9
f 32/26/6 36/25/6 35/27/6
f 36/25/10 34/111/10 33/28/10
f 38/29/7 40/36/7 39/30/7
f 39/30/8 43/37/8 41/32/8
f 38/34/9 42/112/9 44/35/9
f 40/36/6 44/35/6 43/37/6
f 44/35/10 42/113/10 41/38/10
f 46/39/7 48/46/7 47/40/7
f 47/40/8 51/47/8 49/42/8
f 46/44/9 50/114/9 52/45/9
f 48/46/6 52/45/6 51/47/6
f 52/45/10 50/115/10 49/48/10
f 54/49/7 56/56/7 55/50/7
f 55/50/8 59/57/8 57/52/8
f 54/54/9 58/116/9 60/55/9
f 56/56/6 60/55/6 59/57/6
f 60/55/10 58/117/10 57/58/10
f 69/61/6 70/118/6 71/119/6
f 71/119/6 72/120/6 73/59/6
f 73/59/6 74/121/6 75/60/6
f 75/60/6 76/122/6 69/61/6
f 69/61/6 71/119/6 73/59/6
f 85/64/6 86/123/6 87/124/6
f 87/124/6 88/125/6 89/62/6
f 89/62/6 90/126/6 91/63/6
f 91/63/6 92/127/6 85/64/6
f 85/64/6 87/124/6 89/62/6
f 101/67/6 102/128/6 103/129/6
f 103/129/6 104/130/6 105/65/6
f 105/65/6 106/131/6 107/66/6
f 107/66/6 108/132/6 101/67/6
f 101/67/6 103/129/6 105/65/6
f 117/70/6 118/133/6 119/134/6
f 119/134/6 120/135/6 121/68/6
f 121/68/6 122/136/6 123/69/6
f 123/69/6 124/137/6 117/70/6
f 117/70/6 119/134/6 121/68/6
f 133/73/6 134/138/6 135/139/6
f 135/139/6 136/140/6 137/71/6
f 137/71/6 138/141/6 139/72/6
f 139/72/6 140/142/6 133/73/6
f 133/73/6 135/139/6 137/71/6
f 149/76/6 150/143/6 151/144/6
f 151/144/6 152/145/6 153/74/6
f 153/74/6 154/146/6 155/75/6
f 155/75/6 156/147/6 149/76/6
f 149/76/6 151/144/6 153/74/6
f 165/79/6 166/148/6 167/149/6
f 167/149/6 168/150/6 169/77/6
f 169/77/6 170/151/6 171/78/6
f 171/78/6 172/152/6 165/79/6
f 165/79/6 167/149/6 169/77/6
f 181/82/6 182/153/6 183/154/6
f 183/154/6 184/155/6 185/80/6
f 185/80/6 186/156/6 187/81/6
f 187/81/6 188/157/6 181/82/6
f 181/82/6 183/154/6 185/80/6
f 197/85/6 198/158/6 199/159/6
f 199/159/6 200/160/6 201/83/6
f 201/83/6 202/161/6 203/84/6
f 203/84/6 204/162/6 197/85/6
f 197/85/6 199/159/6 201/83/6
f 213/88/6 214/163/6 215/164/6
f 215/164/6 216/165/6 217/86/6
f 217/86/6 218/166/6 219/87/6
f 219/87/6 220/167/6 213/88/6
f 213/88/6 215/164/6 217/86/6
f 229/91/6 230/168/6 231/169/6
f 231/169/6 232/170/6 233/89/6
f 233/89/6 234/171/6 235/90/6
f 235/90/6 236/172/6 229/91/6
f 229/91/6 231/169/6 233/89/6
f 245/94/6 246/173/6 247/174/6
f 247/174/6 248/175/6 249/92/6
f 249/92/6 250/176/6 251/93/6
f 251/93/6 252/177/6 245/94/6
f 245/94/6 247/174/6 249/92/6
f 261/97/6 262/178/6 263/179/6
f 263/179/6 264/180/6 265/95/6
f 265/95/6 266/181/6 267/96/6
f 267/96/6 268/182/6 261/97/6
f 261/97/6 263/179/6 265/95/6
f 277/100/6 278/183/6 279/184/6
f 279/184/6 280/185/6 281/98/6
f 281/98/6 282/186/6 283/99/6
f 283/99/6 284/187/6 277/100/6
f 277/100/6 279/184/6 281/98/6
f 293/103/6 294/188/6 295/189/6
f 295/189/6 296/190/6 297/101/6
f 297/101/6 298/191/6 299/102/6
f 299/102/6 300/192/6 293/103/6
f 293/103/6 295/189/6 297/101/6
f 20/193/11 27/194/10 19/195/10
f 18/196/12 25/197/9 17/198/9
f 16/199/13 23/200/7 15/201/7
f 14/202/14 21/203/8 13/204/8
f 13/204/8 28/205/11 20/193/11
f 19/195/10 26/206/12 18/196/12
f 17/207/9 24/208/13 16/199/13
f 15/201/7 22/209/14 14/202/14
f 68/210/11 75/211/10 67/212/10
f 66/213/12 73/214/9 65/215/9
f 64/216/13 71/217/7 63/218/7
f 62/219/14 69/220/8 61/221/8
f 61/221/8 76/222/11 68/210/11
f 67/212/10 74/223/12 66/213/12
f 65/224/9 72/225/13 64/216/13
f 63/218/7 70/226/14 62/219/14
f 84/227/11 91/228/10 83/229/10
f 82/230/12 89/231/9 81/232/9
f 80/233/13 87/234/7 79/235/7
f 78/236/14 85/237/8 77/238/8
f 77/238/8 92/239/11 84/227/11
f 83/229/10 90/240/12 82/230/12
f 81/241/9 88/242/13 80/233/13
f 79/235/7 86/243/14 78/236/14
f 100/244/11 107/245/10 99/246/10
f 98/247/12 105/248/9 97/249/9
f 96/250/13 103/251/7 95/252/7
f 94/253/14 101/254/8 93/255/8
f 93/255/8 108/256/11 100/244/11
f 99/246/10 106/257/12 98/247/12
f 97/258/9 104/259/13 96/250/13
f 95/252/7 102/260/14 94/253/14
f 116/261/11 123/262/10 115/263/10
f 114/264/12 121/265/9 113/266/9
f 112/267/13 119/268/7 111/269/7
f 110/270/14 117/271/8 109/272/8
f 109/272/8 124/273/11 116/261/11
f 115/263/10 122/274/12 114/264/12
f 113/275/9 120/276/13 112/267/13
f 111/269/7 118/277/14 110/270/14
f 132/278/11 139/279/10 131/280/10
f 130/281/12 137/282/9 129/283/9
f 128/284/13 135/285/7 127/286/7
f 126/287/14 133/288/8 125/289/8
f 125/289/8 140/290/11 132/278/11
f 131/280/10 138/291/12 130/281/12
f 129/292/9 136/293/13 128/284/13
f 127/286/7 134/294/14 126/287/14
f 148/295/11 155/296/10 147/297/10
f 146/298/12 153/299/9 145/300/9
f 144/301/13 151/302/7 143/303/7
f 142/304/14 149/305/8 141/306/8
f 141/306/8 156/307/11 148/295/11
f 147/297/10 154/308/12 146/298/12
f 145/309/9 152/310/13 144/301/13
f 143/303/7 150/311/14 142/304/14
f 164/312/11 171/313/10 163/314/10
f 162/315/12 169/316/9 161/317/9
f 160/318/13 167/319/7 159/320/7
f 158/321/14 165/322/8 157/323/8
f 157/323/8 172/324/11 164/312/11
f 163/314/10 170/325/12 162/315/12
f 161/326/9 168/327/13 160/318/13
f 159/320/7 166/328/14 158/321/14
f 180/329/11 187/330/10 179/331/10
f 178/332/12 185/333/9 177/334/9
f 176/335/13 183/336/7 175/337/7
f 174/338/14 181/339/8 173/340/8
f 173/340/8 188/341/11 180/329/11
f 179/331/10 186/342/12 178/332/12
f 177/343/9 184/344/13 176/335/13
f 175/337/7 182/345/14 174/338/14
f 196/346/11 203/347/10 195/348/10
f 194/349/12 201/350/9 193/351/9
f 192/352/13 199/353/7 191/354/7
f 190/355/14 197/356/8 189/357/8
f 189/357/8 204/358/11 196/346/11
f 195/348/10 202/359/12 194/349/12
f 193/360/9 200/361/13 192/352/13
f 191/354/7 198/362/14 190/355/14
f 212/363/11 219/364/10 211/365/10
f 210/366/12 217/367/9 209/368/9
f 208/369/13 215/370/7 207/371/7
f 206/372/14 213/373/8 205/374/8
f 205/374/8 220/375/11 212/363/11
f 211/365/10 218/376/12 210/366/12
f 209/377/9 216/378/13 208/369/13
f 207/371/7 214/379/14 206/372/14
f 228/380/11 235/381/10 227/382/10
f 226/383/12 233/384/9 225/385/9
f 224/386/13 231/387/7 223/388/7
f 222/389/14 229/390/8 221/391/8
f 221/391/8 236/392/11 228/380/11
f 227/382/10 234/393/12 226/383/12
f 225/394/9 232/395/13 224/386/13
f 223/388/7 230/396/14 222/389/14
f 244/397/11 251/398/10 243/399/10
f 242/400/12 249/401/9 241/402/9
f 240/403/13 247/404/7 239/405/7
f 238/406/14 245/407/8 237/408/8
f 237/408/8 252/409/11 244/397/11
f 243/399/10 250/410/12 242/400/12
f 241/411/9 248/412/13 240/403/13
f 239/405/7 246/413/14 238/406/14
f 260/414/11 267/415/10 259/416/10
f 258/417/12 265/418/9 257/419/9
f 256/420/13 263/421/7 255/422/7
f 254/423/14 261/424/8 253/425/8
f 253/425/8 268/426/11 260/414/11
f 259/416/10 266/427/12 258/417/12
f 257/428/9 264/429/13 256/420/13
f 255/422/7 262/430/14 254/423/14
f 276/431/11 283/432/10 275/433/10
f 274/434/12 281/435/9 273/436/9
f 272/437/13 279/438/7 271/439/7
f 270/440/14 277/441/8 269/442/8
f 269/442/8 284/443/11 276/431/11
f 275/433/10 282/444/12 274/434/12
f 273/445/9 280/446/13 272/437/13
f 271/439/7 278/447/14 270/440/14
f 292/448/11 299/449/10 291/450/10
f 290/451/12 297/452/9 289/453/9
f 288/454/13 295/455/7 287/456/7
f 286/457/14 293/458/8 285/459/8
f 285/459/8 300/460/11 292/448/11
f 291/450/10 298/461/12 290/451/12
f 289/462/9 296/463/13 288/454/13
f 287/456/7 294/464/14 286/457/14
f 20/193/11 28/205/11 27/194/10
f 18/196/12 26/206/12 25/197/9
f 16/199/13 24/208/13 23/200/7
f 14/202/14 22/209/14 21/203/8
f 13/204/8 21/203/8 28/205/11
f 19/195/10 27/194/10 26/206/12
f 17/207/9 25/465/9 24/208/13
f 15/201/7 23/200/7 22/209/14
f 68/210/11 76/222/11 75/211/10
f 66/213/12 74/223/12 73/214/9
f 64/216/13 72/225/13 71/217/7
f 62/219/14 70/226/14 69/220/8
f 61/221/8 69/220/8 76/222/11
f 67/212/10 75/211/10 74/223/12
f 65/224/9 73/466/9 72/225/13
f 63/218/7 71/217/7 70/226/14
f 84/227/11 92/239/11 91/228/10
f 82/230/12 90/240/12 89/231/9
f 80/233/13 88/242/13 87/234/7
f 78/236/14 86/243/14 85/237/8
f 77/238/8 85/237/8 92/239/11
f 83/229/10 91/228/10 90/240/12
f 81/241/9 89/467/9 88/242/13
f 79/235/7 87/234/7 86/243/14
f 100/244/11 108/256/11 107/245/10
f 98/247/12 106/257/12 105/248/9
f 96/250/13 104/259/13 103/251/7
f 94/253/14 102/260/14 101/254/8
f 93/255/8 101/254/8 108/256/11
f 99/246/10 107/245/10 106/257/12
f 97/258/9 105/468/9 104/259/13
f 95/252/7 103/251/7 102/260/14
f 116/261/11 124/273/11 123/262/10
f 114/264/12 122/274/12 121/265/9
f 112/267/13 120/276/13 119/268/7
f 110/270/14 118/277/14 117/271/8
f 109/272/8 117/271/8 124/273/11
f 115/263/10 123/262/10 122/274/12
f 113/275/9 121/469/9 120/276/13
f 111/269/7 119/268/7 118/277/14
f 132/278/11 140/290/11 139/279/10
f 130/281/12 138/291/12 137/282/9
f 128/284/13 136/293/13 135/285/7
f 126/287/14 134/294/14 133/288/8
f 125/289/8 133/288/8 140/290/11
f 131/280/10 139/279/10 138/291/12
f 129/292/9 137/470/9 136/293/13
f 127/286/7 135/285/7 134/294/14
f 148/295/11 156/307/11 155/296/10
f 146/298/12 154/308/12 153/299/9
f 144/301/13 152/310/13 151/302/7
f 142/304/14 150/311/14 149/305/8
f 141/306/8 149/305/8 156/307/11
f 147/297/10 155/296/10 154/308/12
f 145/309/9 153/471/9 152/310/13
f 143/303/7 151/302/7 150/311/14
f 164/312/11 172/324/11 171/313/10
f 162/315/12 170/325/12 169/316/9
f 160/318/13 168/327/13 167/319/7
f 158/321/14 166/328/14 165/322/8
f 157/323/8 165/322/8 172/324/11
f 163/314/10 171/313/10 170/325/12
f 161/326/9 169/472/9 168/327/13
f 159/320/7 167/319/7 166/328/14
f 180/329/11 188/341/11 187/330/10
f 178/332/12 186/342/12 185/333/9
f 176/335/13 184/344/13 183/336/7
f 174/338/14 182/345/14 181/339/8
f 173/340/8 181/339/8 188/341/11
f 179/331/10 187/330/10 186/342/12
f 177/343/9 185/473/9 184/344/13
f 175/337/7 183/336/7 182/345/14
f 196/346/11 204/358/11 203/347/10
f 194/349/12 202/359/12 201/350/9
f 192/352/13 200/361/13 199/353/7
f 190/355/14 198/362/14 197/356/8
f 189/357/8 197/356/8 204/358/11
f 195/348/10 203/347/10 202/359/12
f 193/360/9 201/474/9 200/361/13
f 191/354/7 199/353/7 198/362/14
f 212/363/11 220/375/11 219/364/10
f 210/366/12 218/376/12 217/367/9
f 208/369/13 216/378/13 215/370/7
f 206/372/14 214/379/14 213/373/8
f 205/374/8 213/373/8 220/375/11
f 211/365/10 219/364/10 218/376/12
f 209/377/9 217/475/9 216/378/13
f 207/371/7 215/370/7 214/379/14
f 228/380/11 236/392/11 235/381/10
f 226/383/12 234/393/12 233/384/9
f 224/386/13 232/395/13 231/387/7
f 222/389/14 230/396/14 229/390/8
f 221/391/8 229/390/8 236/392/11
f 227/382/10 235/381/10 234/393/12
f 225/394/9 233/476/9 232/395/13
f 223/388/7 231/387/7 230/396/14
f 244/397/11 252/409/11 251/398/10
f 242/400/12 250/410/12 249/401/9
f 240/403/13 248/412/13 247/404/7
f 238/406/14 246/413/14 245/407/8
f 237/408/8 245/407/8 252/409/11
f 243/399/10 251/398/10 250/410/12
f 241/411/9 249/477/9 248/412/13
f 239/405/7 247/404/7 246/413/14
f 260/414/11 268/426/11 267/415/10
f 258/417/12 266/427/12 265/418/9
f 256/420/13 264/429/13 263/421/7
f 254/423/14 262/430/14 261/424/8
f 253/425/8 261/424/8 268/426/11
f 259/416/10 267/415/10 266/427/12
f 257/428/9 265/478/9 264/429/13
f 255/422/7 263/421/7 262/430/14
f 276/431/11 284/443/11 283/432/10
f 274/434/12 282/444/12 281/435/9
f 272/437/13 280/446/13 279/438/7
f 270/440/14 278/447/14 277/441/8
f 269/442/8 277/441/8 284/443/11
f 275/433/10 283/432/10 282/444/12
f 273/445/9 281/479/9 280/446/13
f 271/439/7 279/438/7 278/447/14
f 292/448/11 300/460/11 299/449/10
f 290/451/12 298/461/12 297/452/9
f 288/454/13 296/463/13 295/455/7
f 286/457/14 294/464/14 293/458/8
f 285/459/8 293/458/8 300/460/11
f 291/450/10 299/449/10 298/461/12
f 289/462/9 297/480/9 296/463/13
f 287/456/7 295/455/7 294/464/14
