mtllib annihilator.mtl
# Extracted directly from the original annihilator OBJ object group.
v 0.000000 2.375000 -1.000000
v 0.000000 2.375000 1.000000
v 0.312500 2.291266 -1.000000
v 0.312500 2.291266 1.000000
v 0.541266 2.062500 -1.000000
v 0.541266 2.062500 1.000000
v 0.625000 1.750000 -1.000000
v 0.625000 1.750000 1.000000
v 0.541266 1.437500 -1.000000
v 0.541266 1.437500 1.000000
v 0.312500 1.208734 -1.000000
v 0.312500 1.208734 1.000000
v 0.000000 1.125000 -1.000000
v 0.000000 1.125000 1.000000
v -0.312500 1.208734 -1.000000
v -0.312500 1.208734 1.000000
v -0.541266 1.437500 -1.000000
v -0.541266 1.437500 1.000000
v -0.625000 1.750000 -1.000000
v -0.625000 1.750000 1.000000
v -0.541266 2.062500 -1.000000
v -0.541266 2.062500 1.000000
v -0.312500 2.291266 -1.000000
v -0.312500 2.291265 1.000000
v 0.750000 1.750000 0.676777
v 0.750000 1.573223 0.500000
v 0.750000 1.926777 0.500000
v 0.750000 1.750000 0.323223
v 0.562500 1.926777 0.500000
v 0.562500 1.750000 0.676777
v 0.562500 1.573223 0.500000
v 0.562500 1.750000 0.323223
v 0.750000 1.750000 -0.323223
v 0.750000 1.573223 -0.500000
v 0.750000 1.926777 -0.500000
v 0.750000 1.750000 -0.676777
v 0.562500 1.926777 -0.500000
v 0.562500 1.750000 -0.323223
v 0.562500 1.573223 -0.500000
v 0.562500 1.750000 -0.676777
v 0.649519 1.375000 0.176777
v 0.561131 1.221907 0.000000
v 0.737907 1.528093 0.000000
v 0.649519 1.375000 -0.176777
v 0.575528 1.621843 0.000000
v 0.487139 1.468750 0.176777
v 0.398751 1.315657 0.000000
v 0.487139 1.468750 -0.176777
v 0.375000 1.100481 0.676777
v 0.221907 1.012093 0.500000
v 0.528093 1.188869 0.500000
v 0.375000 1.100481 0.323223
v 0.434343 1.351249 0.500000
v 0.281250 1.262861 0.676777
v 0.128157 1.174472 0.500000
v 0.281250 1.262861 0.323223
v 0.375000 1.100481 -0.323223
v 0.221907 1.012093 -0.500000
v 0.528093 1.188869 -0.500000
v 0.375000 1.100481 -0.676777
v 0.434343 1.351249 -0.500000
v 0.281250 1.262861 -0.323223
v 0.128157 1.174472 -0.500000
v 0.281250 1.262861 -0.676777
v -0.000000 1.000000 0.176777
v -0.176777 1.000000 0.000000
v 0.176776 1.000000 0.000000
v -0.000000 1.000000 -0.176777
v 0.176777 1.187500 0.000000
v -0.000000 1.187500 0.176777
v -0.176777 1.187500 0.000000
v -0.000000 1.187500 -0.176777
v -0.375000 1.100481 0.676777
v -0.528093 1.188869 0.500000
v -0.221907 1.012093 0.500000
v -0.375000 1.100481 0.323223
v -0.128157 1.174472 0.500000
v -0.281250 1.262861 0.676777
v -0.434343 1.351249 0.500000
v -0.281250 1.262861 0.323223
v -0.375000 1.100481 -0.323223
v -0.528093 1.188869 -0.500000
v -0.221907 1.012093 -0.500000
v -0.375000 1.100481 -0.676777
v -0.128157 1.174472 -0.500000
v -0.281250 1.262861 -0.323223
v -0.434343 1.351249 -0.500000
v -0.281250 1.262861 -0.676777
v -0.649519 1.375000 0.176777
v -0.737907 1.528093 0.000000
v -0.561131 1.221907 0.000000
v -0.649519 1.375000 -0.176777
v -0.398751 1.315657 0.000000
v -0.487139 1.468750 0.176777
v -0.575528 1.621843 0.000000
v -0.487139 1.468750 -0.176777
v -0.750000 1.750000 0.676777
v -0.750000 1.926777 0.500000
v -0.750000 1.573223 0.500000
v -0.750000 1.750000 0.323223
v -0.562500 1.573223 0.500000
v -0.562500 1.750000 0.676777
v -0.562500 1.926777 0.500000
v -0.562500 1.750000 0.323223
v -0.750000 1.750000 -0.323223
v -0.750000 1.926777 -0.500000
v -0.750000 1.573223 -0.500000
v -0.750000 1.750000 -0.676777
v -0.562500 1.573223 -0.500000
v -0.562500 1.750000 -0.323223
v -0.562500 1.926777 -0.500000
v -0.562500 1.750000 -0.676777
v -0.649519 2.125000 0.176777
v -0.561131 2.278093 0.000000
v -0.737907 1.971907 0.000000
v -0.649519 2.125000 -0.176777
v -0.575528 1.878157 0.000000
v -0.487139 2.031250 0.176777
v -0.398751 2.184343 0.000000
v -0.487139 2.031250 -0.176777
v -0.375000 2.399519 0.676777
v -0.221907 2.487907 0.500000
v -0.528093 2.311131 0.500000
v -0.375000 2.399519 0.323223
v -0.434343 2.148751 0.500000
v -0.281250 2.237139 0.676777
v -0.128157 2.325528 0.500000
v -0.281250 2.237139 0.323223
v -0.375000 2.399519 -0.323223
v -0.221907 2.487907 -0.500000
v -0.528093 2.311131 -0.500000
v -0.375000 2.399519 -0.676777
v -0.434343 2.148751 -0.500000
v -0.281250 2.237139 -0.323223
v -0.128157 2.325528 -0.500000
v -0.281250 2.237139 -0.676777
v 0.000000 2.500000 0.176777
v 0.176777 2.500000 0.000000
v -0.176776 2.500000 0.000000
v 0.000000 2.500000 -0.176777
v -0.176776 2.312500 0.000000
v 0.000000 2.312500 0.176777
v 0.176777 2.312500 0.000000
v 0.000000 2.312500 -0.176777
v 0.375000 2.399519 0.676777
v 0.528093 2.311131 0.500000
v 0.221907 2.487907 0.500000
v 0.375000 2.399519 0.323223
v 0.128157 2.325528 0.500000
v 0.281250 2.237139 0.676777
v 0.434343 2.148751 0.500000
v 0.281250 2.237139 0.323223
v 0.375000 2.399519 -0.323223
v 0.528093 2.311131 -0.500000
v 0.221907 2.487907 -0.500000
v 0.375000 2.399519 -0.676777
v 0.128157 2.325528 -0.500000
v 0.281250 2.237139 -0.323223
v 0.434343 2.148751 -0.500000
v 0.281250 2.237139 -0.676777
v 0.649519 2.125000 0.176777
v 0.737908 1.971907 0.000000
v 0.561131 2.278093 0.000000
v 0.649519 2.125000 -0.176777
v 0.398751 2.184343 0.000000
v 0.487139 2.031250 0.176777
v 0.575528 1.878157 0.000000
v 0.487139 2.031250 -0.176777
vt 0.268229 0.831633
vt 0.278646 0.852041
vt 0.268229 0.852041
vt 0.268229 0.831633
vt 0.278646 0.852041
vt 0.268229 0.852041
vt 0.278646 0.816327
vt 0.278646 0.831633
vt 0.268229 0.867347
vt 0.286458 0.852041
vt 0.260417 0.831633
vt 0.278646 0.816327
vt 0.278646 0.831633
vt 0.268229 0.867347
vt 0.286458 0.852041
vt 0.260417 0.831633
vt 0.268229 0.831633
vt 0.278646 0.852041
vt 0.268229 0.852041
vt 0.278646 0.816327
vt 0.278646 0.831633
vt 0.268229 0.867347
vt 0.286458 0.831633
vt 0.286458 0.852041
vt 0.260417 0.852041
vt 0.260417 0.831633
vt 0.268229 0.831633
vt 0.278646 0.852041
vt 0.268229 0.852041
vt 0.268229 0.831633
vt 0.278646 0.852041
vt 0.268229 0.852041
vt 0.278646 0.816327
vt 0.278646 0.831633
vt 0.268229 0.867347
vt 0.286458 0.852041
vt 0.260417 0.831633
vt 0.278646 0.816327
vt 0.278646 0.831633
vt 0.268229 0.867347
vt 0.286458 0.852041
vt 0.260417 0.852041
vt 0.260417 0.831633
vt 0.268229 0.831633
vt 0.278646 0.852041
vt 0.268229 0.852041
vt 0.278646 0.816327
vt 0.278646 0.831633
vt 0.268229 0.867347
vt 0.286458 0.852041
vt 0.260417 0.831633
vt 0.268229 0.831633
vt 0.278646 0.852041
vt 0.268229 0.852041
vt 0.268229 0.831633
vt 0.278646 0.852041
vt 0.268229 0.852041
vt 0.278646 0.831633
vt 0.268229 0.816327
vt 0.278646 0.816327
vt 0.268229 0.867347
vt 0.286458 0.852041
vt 0.260417 0.831633
vt 0.278646 0.831633
vt 0.268229 0.816327
vt 0.278646 0.816327
vt 0.278646 0.867347
vt 0.268229 0.867347
vt 0.286458 0.852041
vt 0.260417 0.831633
vt 0.268229 0.831633
vt 0.278646 0.852041
vt 0.268229 0.852041
vt 0.278646 0.816327
vt 0.278646 0.831633
vt 0.268229 0.867347
vt 0.286458 0.831633
vt 0.286458 0.852041
vt 0.260417 0.852041
vt 0.260417 0.831633
vt 0.268229 0.831633
vt 0.278646 0.852041
vt 0.268229 0.852041
vt 0.268229 0.831633
vt 0.278646 0.852041
vt 0.268229 0.852041
vt 0.278646 0.831633
vt 0.268229 0.816327
vt 0.278646 0.816327
vt 0.278646 0.867347
vt 0.268229 0.867347
vt 0.286458 0.852041
vt 0.260417 0.831633
vt 0.278646 0.831633
vt 0.268229 0.816327
vt 0.278646 0.816327
vt 0.278646 0.867347
vt 0.268229 0.867347
vt 0.286458 0.852041
vt 0.260417 0.831633
vt 0.268229 0.831633
vt 0.278646 0.852041
vt 0.268229 0.852041
vt 0.278646 0.831633
vt 0.268229 0.816326
vt 0.278646 0.816326
vt 0.268229 0.867347
vt 0.286458 0.831633
vt 0.286458 0.852041
vt 0.260417 0.831633
vt 0.268229 0.831633
vt 0.278646 0.852041
vt 0.268229 0.852041
vt 0.268229 0.831633
vt 0.278646 0.852041
vt 0.268229 0.852041
vt 0.278646 0.816326
vt 0.278646 0.831633
vt 0.278646 0.867347
vt 0.268229 0.867347
vt 0.286458 0.852041
vt 0.260417 0.831633
vt 0.278646 0.831633
vt 0.268229 0.816326
vt 0.278646 0.816326
vt 0.278646 0.867347
vt 0.268229 0.867347
vt 0.286458 0.852041
vt 0.260417 0.831633
vt 0.268229 0.831633
vt 0.278646 0.852041
vt 0.268229 0.852041
vt 0.278646 0.816327
vt 0.278646 0.831633
vt 0.268229 0.867347
vt 0.286458 0.831633
vt 0.286458 0.852041
vt 0.260417 0.831633
vt 0.268229 0.831633
vt 0.278646 0.852041
vt 0.268229 0.852041
vt 0.268229 0.831633
vt 0.278646 0.852041
vt 0.268229 0.852041
vt 0.278646 0.831633
vt 0.268229 0.816326
vt 0.278646 0.816326
vt 0.268229 0.867347
vt 0.286458 0.852041
vt 0.260417 0.831633
vt 0.278646 0.831633
vt 0.268229 0.816326
vt 0.278646 0.816326
vt 0.278646 0.867347
vt 0.268229 0.867347
vt 0.286458 0.852041
vt 0.260417 0.831633
vt 0.268229 0.831633
vt 0.278646 0.852041
vt 0.268229 0.852041
vt 0.278646 0.816327
vt 0.278646 0.831633
vt 0.268229 0.867347
vt 0.286458 0.831633
vt 0.286458 0.852041
vt 0.260417 0.831633
vt 0.268229 0.816327
vt 0.278646 0.867347
vt 0.286458 0.831633
vt 0.260417 0.852041
vt 0.268229 0.816327
vt 0.278646 0.867347
vt 0.286458 0.831633
vt 0.260417 0.852041
vt 0.268229 0.816327
vt 0.278646 0.867347
vt 0.268229 0.816327
vt 0.278646 0.867347
vt 0.286458 0.831633
vt 0.260417 0.852041
vt 0.268229 0.816327
vt 0.278646 0.867347
vt 0.286458 0.831633
vt 0.268229 0.816327
vt 0.278646 0.867347
vt 0.286458 0.831633
vt 0.260417 0.852041
vt 0.278646 0.867347
vt 0.286458 0.831633
vt 0.260417 0.852041
vt 0.286458 0.831633
vt 0.260417 0.852041
vt 0.268229 0.816327
vt 0.278646 0.867347
vt 0.286458 0.831633
vt 0.260417 0.852041
vt 0.286458 0.831633
vt 0.260417 0.852041
vt 0.278646 0.867347
vt 0.260417 0.852041
vt 0.268229 0.816326
vt 0.286458 0.831633
vt 0.260417 0.852041
vt 0.286458 0.831633
vt 0.260417 0.852041
vt 0.268229 0.816327
vt 0.278646 0.867347
vt 0.260417 0.852041
vt 0.278646 0.867347
vt 0.286458 0.831633
vt 0.260417 0.852041
vt 0.286458 0.831633
vt 0.260417 0.852041
vt 0.268229 0.816327
vt 0.278646 0.867347
vt 0.260417 0.852041
vt 0.828125 0.612245
vt 0.815104 0.775510
vt 0.815104 0.612245
vt 0.802083 0.612245
vt 0.802083 0.775510
vt 0.789062 0.612245
vt 0.789062 0.775510
vt 0.776042 0.612245
vt 0.776042 0.775510
vt 0.763021 0.612245
vt 0.763021 0.775510
vt 0.750000 0.612245
vt 0.906250 0.775510
vt 0.893229 0.612245
vt 0.906250 0.612245
vt 0.893229 0.775510
vt 0.880208 0.612245
vt 0.880208 0.775510
vt 0.867188 0.612245
vt 0.867188 0.775510
vt 0.854167 0.612245
vt 0.854167 0.775510
vt 0.841146 0.612245
vt 0.841146 0.775510
vt 0.828125 0.775510
vt 0.750000 0.775510
vn 1.0000 0.0000 0.0000
vn 0.0000 -0.7071 -0.7071
vn 0.0000 0.7071 0.7071
vn 0.0000 0.7071 -0.7071
vn 0.0000 -0.7071 0.7071
vn 0.8660 -0.5000 -0.0000
vn -0.3536 -0.6124 -0.7071
vn 0.3536 0.6124 0.7071
vn 0.3536 0.6124 -0.7071
vn -0.3536 -0.6124 0.7071
vn 0.5000 -0.8660 0.0000
vn -0.6124 -0.3536 -0.7071
vn 0.6124 0.3536 0.7071
vn 0.6124 0.3536 -0.7071
vn -0.6124 -0.3536 0.7071
vn 0.0000 -1.0000 0.0000
vn -0.7071 0.0000 -0.7071
vn 0.7071 0.0000 0.7071
vn 0.7071 -0.0000 -0.7071
vn -0.7071 -0.0000 0.7071
vn -0.5000 -0.8660 0.0000
vn -0.6124 0.3536 -0.7071
vn 0.6124 -0.3536 0.7071
vn 0.6124 -0.3536 -0.7071
vn -0.6124 0.3536 0.7071
vn -0.8660 -0.5000 -0.0000
vn -0.3536 0.6124 -0.7071
vn 0.3536 -0.6124 0.7071
vn 0.3536 -0.6124 -0.7071
vn -0.3536 0.6124 0.7071
vn -1.0000 0.0000 -0.0000
vn -0.8660 0.5000 -0.0000
vn -0.5000 0.8660 -0.0000
vn 0.0000 1.0000 0.0000
vn 0.5000 0.8660 0.0000
vn 0.8660 0.5000 0.0000
v -1.750000 1.062500 0.750000
v 1.750000 1.062500 0.750000
v -1.750000 1.062500 -0.750000
v 1.750000 1.062500 -0.750000
vt 0.000000 1.000000
vt 1.000000 -0.000000
vt 1.000000 1.000000
vt 0.000000 0.000000
vn 0.0000 1.0000 0.0000
v -4.500000 0.000000 1.500000
v 4.500000 0.000000 1.500000
v -4.500000 0.000000 -1.500000
v 4.500000 0.000000 -1.500000
v -4.500000 1.000000 1.500000
v 4.500000 1.000000 1.500000
v -4.500000 1.000000 -1.500000
v 4.500000 1.000000 -1.500000
v 1.750000 1.000000 1.250000
v 4.250000 1.000000 1.250000
v 1.750000 1.000000 -1.250000
v 4.250000 1.000000 -1.250000
v 1.750000 2.500000 -1.250000
v 1.750000 2.500000 1.250000
v 4.250000 2.500000 1.250000
v 4.250000 2.500000 -1.250000
v 1.750000 3.000000 -0.500000
v 1.750000 3.000000 0.500000
v 4.250000 3.000000 0.500000
v 4.250000 3.000000 -0.500000
v 1.750000 1.000000 -1.250000
v -1.750000 1.000000 -1.250000
v 1.750000 1.250000 -1.250000
v -1.750000 1.250000 -1.250000
v 1.750000 1.250000 -1.000000
v -1.750000 1.250000 -1.000000
v 1.750000 1.000000 -1.000000
v -1.750000 1.000000 -1.000000
v 0.500000 2.750000 -1.000000
v -0.500000 2.750000 -1.000000
v -0.500000 2.750000 -1.250000
v 0.500000 2.750000 -1.250000
v 1.000000 1.250000 -1.250000
v -1.000000 1.250000 -1.250000
v 1.000000 1.250000 -1.000000
v -1.000000 1.250000 -1.000000
v 1.750000 1.000000 1.000000
v -1.750000 1.000000 1.000000
v 1.750000 1.250000 1.000000
v -1.750000 1.250000 1.000000
v 1.750000 1.250000 1.250000
v -1.750000 1.250000 1.250000
v 1.750000 1.000000 1.250000
v -1.750000 1.000000 1.250000
v 0.500000 2.750000 1.250000
v -0.500000 2.750000 1.250000
v -0.500000 2.750000 1.000000
v 0.500000 2.750000 1.000000
v 1.000000 1.250000 1.000000
v -1.000000 1.250000 1.000000
v 1.000000 1.250000 1.250000
v -1.000000 1.250000 1.250000
v 0.500000 2.750000 -1.000000
v -0.500000 2.750000 -1.000000
v -0.500000 2.750000 1.000000
v 0.500000 2.750000 1.000000
v -0.500000 2.500000 -1.000000
v 0.500000 2.500000 -1.000000
v 0.500000 2.500000 1.000000
v -0.500000 2.500000 1.000000
v -4.250000 1.000000 1.250000
v -1.750000 1.000000 1.250000
v -4.250000 1.000000 -1.250000
v -1.750000 1.000000 -1.250000
v -4.250000 2.500000 -1.250000
v -4.250000 2.500000 1.250000
v -1.750000 2.500000 1.250000
v -1.750000 2.500000 -1.250000
v -2.250000 5.000000 -0.750000
v -3.750000 5.000000 -0.750000
v -2.250000 5.000000 0.750000
v -3.750000 5.000000 0.750000
v -2.500000 8.500000 0.500000
v -2.500000 8.500000 -0.500000
v -3.500000 8.500000 -0.500000
v -3.500000 8.500000 0.500000
v -2.250000 8.500000 0.750000
v -2.250000 8.500000 -0.750000
v -3.750000 8.500000 -0.750000
v -3.750000 8.500000 0.750000
v -2.500000 8.000000 0.500000
v -2.500000 8.000000 -0.500000
v -3.500000 8.000000 -0.500000
v -3.500000 8.000000 0.500000
v -4.000000 8.000000 1.000000
v -2.000000 8.000000 1.000000
v -4.000000 8.000000 -1.000000
v -2.000000 8.000000 -1.000000
v -2.250000 8.000000 0.750000
v -2.250000 8.000000 -0.750000
v -3.750000 8.000000 -0.750000
v -3.750000 8.000000 0.750000
v -4.000000 7.500000 1.000000
v -2.000000 7.500000 1.000000
v -4.000000 7.500000 -1.000000
v -2.000000 7.500000 -1.000000
v -2.250000 7.500000 0.750000
v -2.250000 7.500000 -0.750000
v -3.750000 7.500000 -0.750000
v -3.750000 7.500000 0.750000
v -3.250000 2.500000 1.375000
v -2.750000 2.500000 1.375000
v -3.250000 1.000000 1.375000
v -2.750000 1.000000 1.375000
v -3.250000 5.000000 0.875000
v -2.750000 5.000000 0.875000
v -3.250000 7.500000 0.875000
v -2.750000 7.500000 0.875000
v 1.750000 2.125000 1.000000
v 1.750000 2.213388 1.036612
v 1.750000 2.250000 1.125000
v 1.750000 2.213388 1.213388
v 1.750000 2.125000 1.250000
v 1.750000 2.036612 1.213388
v 1.750000 2.000000 1.125000
v 1.750000 2.036612 1.036612
v 0.625000 2.125000 1.000000
v 0.625000 2.213388 1.036612
v 0.625000 2.250000 1.125000
v 0.625000 2.213388 1.213388
v 0.625000 2.125000 1.250000
v 0.625000 2.036612 1.213388
v 0.625000 2.000000 1.125000
v 0.625000 2.036612 1.036612
v 1.750000 1.625000 1.000000
v 1.750000 1.713388 1.036612
v 1.750000 1.750000 1.125000
v 1.750000 1.713388 1.213388
v 1.750000 1.625000 1.250000
v 1.750000 1.536612 1.213388
v 1.750000 1.500000 1.125000
v 1.750000 1.536612 1.036612
v 0.625000 1.625000 1.000000
v 0.625000 1.713388 1.036612
v 0.625000 1.750000 1.125000
v 0.625000 1.713388 1.213388
v 0.625000 1.625000 1.250000
v 0.625000 1.536612 1.213388
v 0.625000 1.500000 1.125000
v 0.625000 1.536612 1.036612
v -0.625000 2.125000 1.000000
v -0.625000 2.213388 1.036612
v -0.625000 2.250000 1.125000
v -0.625000 2.213388 1.213388
v -0.625000 2.125000 1.250000
v -0.625000 2.036612 1.213388
v -0.625000 2.000000 1.125000
v -0.625000 2.036612 1.036612
v -1.750000 2.125000 1.000000
v -1.750000 2.213388 1.036612
v -1.750000 2.250000 1.125000
v -1.750000 2.213388 1.213388
v -1.750000 2.125000 1.250000
v -1.750000 2.036612 1.213388
v -1.750000 2.000000 1.125000
v -1.750000 2.036612 1.036612
v -0.625000 1.625000 1.000000
v -0.625000 1.713388 1.036612
v -0.625000 1.750000 1.125000
v -0.625000 1.713388 1.213388
v -0.625000 1.625000 1.250000
v -0.625000 1.536612 1.213388
v -0.625000 1.500000 1.125000
v -0.625000 1.536612 1.036612
v -1.750000 1.625000 1.000000
v -1.750000 1.713388 1.036612
v -1.750000 1.750000 1.125000
v -1.750000 1.713388 1.213388
v -1.750000 1.625000 1.250000
v -1.750000 1.536612 1.213388
v -1.750000 1.500000 1.125000
v -1.750000 1.536612 1.036612
v -3.625000 1.250000 -1.250000
v -2.375000 1.250000 -1.250000
v -3.625000 2.000000 -1.250000
v -2.375000 2.000000 -1.250000
v -2.375000 1.250000 -1.375000
v -3.625000 1.250000 -1.375000
v -2.375000 2.000000 -1.375000
v -3.625000 2.000000 -1.375000
v 0.500000 2.687500 -0.312500
v 0.500000 2.562500 -0.312500
v 0.500000 2.687500 -0.437500
v 0.500000 2.562500 -0.437500
v 1.750000 2.687500 -0.312500
v 1.750000 2.562500 -0.312500
v 1.750000 2.687500 -0.437500
v 1.750000 2.562500 -0.437500
v 0.500000 2.687500 0.437500
v 0.500000 2.562500 0.437500
v 0.500000 2.687500 0.312500
v 0.500000 2.562500 0.312500
v 1.750000 2.687500 0.437500
v 1.750000 2.562500 0.437500
v 1.750000 2.687500 0.312500
v 1.750000 2.562500 0.312500
v -1.750000 2.687500 -0.312500
v -1.750000 2.562500 -0.312500
v -1.750000 2.687500 -0.437500
v -1.750000 2.562500 -0.437500
v -0.500000 2.687500 -0.312500
v -0.500000 2.562500 -0.312500
v -0.500000 2.687500 -0.437500
v -0.500000 2.562500 -0.437500
v -1.750000 2.687500 0.437500
v -1.750000 2.562500 0.437500
v -1.750000 2.687500 0.312500
v -1.750000 2.562500 0.312500
v -0.500000 2.687500 0.437500
v -0.500000 2.562500 0.437500
v -0.500000 2.687500 0.312500
v -0.500000 2.562500 0.312500
v -1.750000 2.750000 0.500000
v -1.750000 2.500000 0.500000
v -1.750000 2.750000 -0.500000
v -1.750000 2.500000 -0.500000
v -1.812500 2.750000 0.500000
v -1.812500 2.500000 0.500000
v -1.812500 2.750000 -0.500000
v -1.812500 2.500000 -0.500000
vt 0.208333 0.816327
vt 0.333333 0.081633
vt 0.333333 0.816327
vt 0.041667 0.081633
vt 0.166667 0.816327
vt 0.041667 0.816327
vt 0.166667 -0.000000
vt 0.041667 -0.000000
vt 0.041667 0.897959
vt 0.166667 0.897959
vt 0.166667 0.081633
vt 0.208333 0.081633
vt -0.000000 0.081633
vt -0.000000 0.816327
vt 0.500000 0.530612
vt 0.395833 0.530612
vt 0.427083 0.367347
vt 0.500000 0.367347
vt 0.468750 0.163265
vt 0.500000 0.163265
vt 0.562500 0.367347
vt 0.562500 0.163265
vt 0.333333 0.163265
vt 0.395833 0.367347
vt 0.333333 0.367347
vt 0.395833 0.000000
vt 0.500000 0.000000
vt 0.427083 0.163265
vt 0.468750 0.367347
vt 0.395833 0.163265
vt 0.895833 0.795918
vt 0.750000 0.775510
vt 0.895833 0.775510
vt 0.750000 0.816327
vt 0.750000 0.795918
vt 0.895833 0.816327
vt 0.750000 0.836735
vt 0.770833 0.000000
vt 0.666667 0.122449
vt 0.666667 0.000000
vt 0.562500 0.857143
vt 0.625000 0.734694
vt 0.604167 0.857143
vt 0.854167 0.326531
vt 0.770833 0.122449
vt 0.875000 0.122449
vt 0.562500 0.877551
vt 0.500000 0.857143
vt 0.875000 0.000000
vt 0.604167 0.877551
vt 0.541667 1.000000
vt 0.645833 0.326531
vt 0.583333 0.612245
vt 0.583333 0.326531
vt 0.895833 0.816327
vt 0.750000 0.836735
vt 0.750000 0.816327
vt 0.750000 0.326531
vt 0.895833 0.795918
vt 0.750000 0.795918
vt 0.604167 0.877551
vt 0.541667 1.000000
vt 0.562500 0.877551
vt 0.750000 0.918367
vt 0.666667 0.938776
vt 0.666667 0.918367
vt 0.500000 0.857143
vt 0.562500 0.857143
vt 0.625000 0.734694
vt 0.604167 0.857143
vt 0.666667 0.836735
vt 0.750000 0.816327
vt 0.750000 0.836735
vt 0.666667 0.877551
vt 0.750000 0.775510
vt 0.895833 0.775510
vt 0.666667 0.816327
vt 0.750000 0.734694
vt 0.562500 0.122449
vt 0.562500 0.000000
vt 0.666667 0.877551
vt 0.979167 0.122449
vt 0.979167 0.000000
vt 0.895833 0.326531
vt 0.958333 0.326531
vt 0.968750 0.612245
vt 0.927083 0.653061
vt 0.927083 0.612245
vt 0.687500 0.612245
vt 0.687500 0.326531
vt 0.791667 0.612245
vt 0.791667 0.326531
vt 0.895833 0.612245
vt 0.697917 0.632653
vt 0.750000 0.612245
vt 0.739583 0.632653
vt 0.739583 0.714286
vt 0.687500 0.734694
vt 0.697917 0.714286
vt 0.750000 0.734694
vt 0.968750 0.734694
vt 0.927083 0.734694
vt 0.906250 0.653061
vt 0.906250 0.734694
vt 0.927083 0.775510
vt 0.968750 0.775510
vt 0.989583 0.734694
vt 0.968750 0.653061
vt 0.989583 0.653061
vt 0.489583 0.755102
vt 0.416667 0.734694
vt 0.500000 0.734694
vt 0.489583 0.877551
vt 0.500000 0.897959
vt 0.427083 0.877551
vt 0.416667 0.897959
vt 0.427083 0.755102
vt 0.500000 0.693878
vt 0.583333 0.734694
vt 0.666667 0.693878
vt 0.666667 0.734694
vt 0.583333 0.693878
vt 0.333333 0.734694
vt 0.416667 0.693878
vt 0.489583 0.551020
vt 0.500000 0.530612
vt 0.427083 0.551020
vt 0.416667 0.530612
vt 0.427083 0.673469
vt 0.489583 0.673469
vt 0.979167 -0.000000
vt 1.000000 0.122449
vt 0.979167 0.122449
vt 1.000000 0.326531
vt 1.000000 0.525510
vt 0.979167 0.326531
vt 0.333333 0.780612
vt 0.385417 0.770408
vt 0.385417 0.780612
vt 0.557292 0.377551
vt 0.505208 0.438776
vt 0.505208 0.377551
vt 0.562500 0.438776
vt 0.562500 0.377551
vt 0.557292 0.367347
vt 0.505208 0.367347
vt 0.500000 0.377551
vt 0.500000 0.438776
vt 0.505208 0.448980
vt 0.557292 0.438776
vt 0.557292 0.448980
vt 0.333333 0.801020
vt 0.385417 0.790816
vt 0.385417 0.801020
vt 0.333333 0.770408
vt 0.385417 0.760204
vt 0.333333 0.790816
vt 0.333333 0.780612
vt 0.385417 0.770408
vt 0.385417 0.780612
vt 0.333333 0.801020
vt 0.385417 0.790816
vt 0.385417 0.801020
vt 0.333333 0.770408
vt 0.385417 0.760204
vt 0.333333 0.790816
vt 0.333333 0.780612
vt 0.385417 0.770408
vt 0.385417 0.780612
vt 0.333333 0.801020
vt 0.385417 0.790816
vt 0.385417 0.801020
vt 0.333333 0.770408
vt 0.385417 0.760204
vt 0.333333 0.790816
vt 0.333333 0.780612
vt 0.385417 0.770408
vt 0.385417 0.780612
vt 0.333333 0.801020
vt 0.385417 0.790816
vt 0.385417 0.801020
vt 0.333333 0.770408
vt 0.385417 0.760204
vt 0.333333 0.790816
vt 0.335938 0.734694
vt 0.377604 0.755102
vt 0.335938 0.755102
vt 0.377604 0.734694
vt 0.380208 0.755102
vt 0.333333 0.734694
vt 0.335938 0.760204
vt 0.395833 0.408163
vt 0.500000 0.408163
vt 0.500000 0.122449
vt 0.395833 0.122449
vt 0.895833 0.836735
vt 0.541667 0.734694
vt 0.500000 0.877551
vt 0.625000 1.000000
vt 0.645833 0.612245
vt 0.895833 0.836735
vt 0.625000 1.000000
vt 0.750000 0.938776
vt 0.500000 0.877551
vt 0.541667 0.734694
vt 0.666667 0.857143
vt 0.666667 0.734694
vt 0.666667 0.857143
vt 0.854167 0.612245
vt 0.958333 0.612245
vt 0.333333 0.693878
vt 1.000000 -0.000000
vt 0.979167 0.525510
vt 0.333333 0.760204
vt 0.333333 0.760204
vt 0.333333 0.760204
vt 0.333333 0.760204
vt 0.380208 0.734694
vt 0.333333 0.755102
vt 0.377604 0.760204
vt 0.213542 0.867347
vt 0.166667 0.857143
vt 0.213542 0.857143
vt 0.213542 0.897959
vt 0.166667 0.887755
vt 0.213542 0.887755
vt 0.213542 0.836735
vt 0.166667 0.826531
vt 0.213542 0.826531
vt 0.166667 0.846939
vt 0.213542 0.846939
vt 0.213542 0.877551
vt 0.166667 0.867347
vt 0.166667 0.877551
vt 0.166667 0.816327
vt 0.213542 0.816327
vt 0.166667 0.836735
vt 0.260417 0.867347
vt 0.213542 0.857143
vt 0.260417 0.857143
vt 0.260417 0.897959
vt 0.213542 0.887755
vt 0.260417 0.887755
vt 0.260417 0.836735
vt 0.213542 0.826531
vt 0.260417 0.826531
vt 0.213542 0.846939
vt 0.260417 0.846939
vt 0.260417 0.877551
vt 0.213542 0.867347
vt 0.213542 0.877551
vt 0.213542 0.816327
vt 0.260417 0.816327
vt 0.213542 0.836735
vt 0.213542 0.867347
vt 0.166667 0.857143
vt 0.213542 0.857143
vt 0.213542 0.897959
vt 0.166667 0.887755
vt 0.213542 0.887755
vt 0.213542 0.836735
vt 0.166667 0.826531
vt 0.213542 0.826531
vt 0.166667 0.846939
vt 0.213542 0.846939
vt 0.213542 0.877551
vt 0.166667 0.867347
vt 0.166667 0.877551
vt 0.166667 0.816327
vt 0.213542 0.816327
vt 0.166667 0.836735
vt 0.260417 0.867347
vt 0.213542 0.857143
vt 0.260417 0.857143
vt 0.260417 0.897959
vt 0.213542 0.887755
vt 0.260417 0.887755
vt 0.260417 0.836735
vt 0.213542 0.826531
vt 0.260417 0.826531
vt 0.213542 0.846939
vt 0.260417 0.846939
vt 0.260417 0.877551
vt 0.213542 0.867347
vt 0.213542 0.877551
vt 0.213542 0.816327
vt 0.260417 0.816327
vt 0.213542 0.836735
vt 0.166667 0.897959
vt 0.213542 0.897959
vt 0.166667 0.897959
vt 0.213542 0.897959
vn 0.0000 -1.0000 0.0000
vn 0.0000 1.0000 0.0000
vn 1.0000 0.0000 0.0000
vn -1.0000 0.0000 0.0000
vn 0.0000 0.0000 -1.0000
vn 0.0000 0.0000 1.0000
vn 0.0000 0.8321 -0.5547
vn 0.0000 0.8321 0.5547
vn 0.0000 0.1961 -0.9806
vn 0.9487 0.3162 0.0000
vn 0.9806 0.1961 0.0000
vn -0.9487 0.3162 0.0000
vn -0.9806 0.1961 0.0000
vn 0.0000 0.1961 0.9806
vn 0.0000 0.7071 -0.7071
vn 0.0000 -0.7071 -0.7071
vn 0.0000 -0.7071 0.7071
vn 0.0000 0.7071 0.7071
o Annihilator
usemtl hbm
s off
f 175/247/38 174/248/38 173/249/38
f 178/250/39 179/251/39 177/252/39
f 176/253/40 178/250/40 174/254/40
f 173/255/41 179/251/41 175/256/41
f 175/247/42 180/257/42 176/258/42
f 174/259/43 177/252/43 173/260/43
f 183/261/41 181/262/41 190/263/41
f 185/264/44 192/265/44 188/266/44
f 183/267/42 188/266/42 184/268/42
f 182/269/43 186/270/43 181/271/43
f 182/272/40 184/273/40 192/265/40
f 191/274/39 189/275/39 190/263/39
f 187/276/45 190/263/45 186/270/45
f 196/277/42 193/278/42 194/279/42
f 196/277/39 197/280/39 195/281/39
f 198/282/43 199/283/43 197/280/43
f 236/284/40 239/285/40 234/286/40
f 220/287/42 222/288/42 219/289/42
f 242/290/46 240/291/46 237/292/46
f 217/293/47 221/294/47 220/287/47
f 235/295/42 240/291/42 236/284/42
f 218/296/43 223/297/43 217/293/43
f 243/298/43 252/299/43 244/300/43
f 214/301/43 215/302/43 213/303/43
f 241/304/48 239/285/48 240/291/48
f 212/305/39 213/303/39 211/306/39
f 202/307/43 207/308/43 201/309/43
f 226/310/41 232/311/41 227/312/41
f 201/309/47 205/313/47 204/314/47
f 204/314/42 206/315/42 203/316/42
f 228/317/40 230/318/40 225/319/40
f 203/316/49 208/320/49 202/307/49
f 217/293/39 219/289/39 218/296/39
f 212/305/42 209/321/42 210/322/42
f 231/323/38 229/324/38 230/318/38
f 201/309/39 203/316/39 202/307/39
f 234/286/43 238/325/43 233/326/43
f 219/289/49 224/327/49 218/296/49
f 226/310/39 228/317/39 225/319/39
f 238/328/41 235/295/41 233/329/41
f 242/330/50 238/328/50 244/331/50
f 243/298/51 238/325/51 239/285/51
f 246/332/41 253/333/41 245/334/41
f 241/304/40 249/335/40 243/336/40
f 242/290/42 250/337/42 241/338/42
f 244/331/41 251/339/41 242/330/41
f 245/340/39 250/341/39 246/342/39
f 247/343/39 252/344/39 248/345/39
f 246/342/39 251/346/39 247/343/39
f 248/345/39 249/335/39 245/340/39
f 253/333/39 255/347/39 256/348/39
f 245/349/42 256/348/42 248/350/42
f 248/351/40 255/347/40 247/352/40
f 247/353/43 254/354/43 246/355/43
f 262/356/39 258/357/39 260/358/39
f 263/359/39 260/358/39 259/360/39
f 264/361/39 259/360/39 257/362/39
f 261/363/39 257/362/39 258/357/39
f 258/357/40 268/364/40 260/358/40
f 259/365/41 265/366/41 257/367/41
f 260/358/42 267/368/42 259/365/42
f 257/369/43 266/370/43 258/357/43
f 268/364/38 271/371/38 267/372/38
f 267/372/38 272/373/38 265/374/38
f 265/374/38 269/375/38 266/370/38
f 266/370/38 270/376/38 268/364/38
f 275/377/43 274/378/43 273/379/43
f 278/380/51 273/379/51 274/378/51
f 280/381/43 277/382/43 278/380/43
f 359/383/42 356/384/42 355/385/42
f 350/386/42 351/387/42 349/388/42
f 347/389/41 350/386/41 345/390/41
f 345/391/38 349/388/38 346/392/38
f 346/393/40 351/387/40 348/394/40
f 348/395/39 352/396/39 347/397/39
f 358/398/43 353/399/43 354/400/43
f 360/401/38 354/402/38 356/384/38
f 357/403/39 355/385/39 353/399/39
f 367/404/42 364/405/42 363/406/42
f 366/407/43 361/408/43 362/409/43
f 368/410/38 362/411/38 364/405/38
f 365/412/39 363/406/39 361/408/39
f 375/413/42 372/414/42 371/415/42
f 374/416/43 369/417/43 370/418/43
f 376/419/38 370/420/38 372/414/38
f 373/421/39 371/415/39 369/417/39
f 383/422/42 380/423/42 379/424/42
f 382/425/43 377/426/43 378/427/43
f 384/428/38 378/429/38 380/423/38
f 381/430/39 379/424/39 377/426/39
f 386/431/40 387/432/40 385/433/40
f 388/434/42 391/435/42 387/432/42
f 385/433/43 390/436/43 386/431/43
f 387/432/39 389/437/39 385/433/39
f 175/247/38 176/258/38 174/248/38
f 178/250/39 180/257/39 179/251/39
f 176/253/40 180/257/40 178/250/40
f 173/255/41 177/252/41 179/251/41
f 175/247/42 179/251/42 180/257/42
f 174/259/43 178/250/43 177/252/43
f 181/262/41 186/438/41 190/263/41
f 190/263/41 189/275/41 183/261/41
f 189/275/41 185/439/41 183/261/41
f 185/264/44 189/275/44 192/265/44
f 183/267/42 185/264/42 188/266/42
f 182/269/43 187/276/43 186/270/43
f 184/273/40 188/440/40 192/265/40
f 192/265/40 191/274/40 182/272/40
f 191/274/40 187/441/40 182/272/40
f 191/274/39 192/265/39 189/275/39
f 187/276/45 191/274/45 190/263/45
f 196/277/42 195/281/42 193/278/42
f 196/277/39 198/282/39 197/280/39
f 198/282/43 200/442/43 199/283/43
f 236/284/40 240/291/40 239/285/40
f 220/287/42 221/443/42 222/288/42
f 242/290/46 241/338/46 240/291/46
f 217/293/47 223/444/47 221/294/47
f 235/295/42 237/292/42 240/291/42
f 218/296/43 224/445/43 223/297/43
f 243/298/43 249/446/43 252/299/43
f 214/301/43 216/447/43 215/302/43
f 241/304/48 243/336/48 239/285/48
f 212/305/39 214/301/39 213/303/39
f 202/307/43 208/448/43 207/308/43
f 226/310/41 229/449/41 232/311/41
f 201/309/47 207/450/47 205/313/47
f 204/314/42 205/451/42 206/315/42
f 228/317/40 231/323/40 230/318/40
f 203/316/49 206/452/49 208/320/49
f 217/293/39 220/287/39 219/289/39
f 212/305/42 211/306/42 209/321/42
f 231/323/38 232/453/38 229/324/38
f 201/309/39 204/314/39 203/316/39
f 234/286/43 239/285/43 238/325/43
f 219/289/49 222/454/49 224/327/49
f 226/310/39 227/312/39 228/317/39
f 238/328/41 237/292/41 235/295/41
f 242/330/50 237/292/50 238/328/50
f 243/298/51 244/300/51 238/325/51
f 246/332/41 254/354/41 253/333/41
f 241/304/40 250/341/40 249/335/40
f 242/290/42 251/455/42 250/337/42
f 244/331/41 252/456/41 251/339/41
f 245/340/39 249/335/39 250/341/39
f 247/343/39 251/346/39 252/344/39
f 246/342/39 250/341/39 251/346/39
f 248/345/39 252/344/39 249/335/39
f 253/333/39 254/354/39 255/347/39
f 245/349/42 253/333/42 256/348/42
f 248/351/40 256/348/40 255/347/40
f 247/353/43 255/347/43 254/354/43
f 262/356/39 261/363/39 258/357/39
f 263/359/39 262/356/39 260/358/39
f 264/361/39 263/359/39 259/360/39
f 261/363/39 264/361/39 257/362/39
f 258/357/40 266/370/40 268/364/40
f 259/365/41 267/368/41 265/366/41
f 260/358/42 268/364/42 267/368/42
f 257/369/43 265/457/43 266/370/43
f 268/364/38 270/376/38 271/371/38
f 267/372/38 271/371/38 272/373/38
f 265/374/38 272/373/38 269/375/38
f 266/370/38 269/375/38 270/376/38
f 275/377/43 276/458/43 274/378/43
f 278/380/51 277/382/51 273/379/51
f 280/381/43 279/459/43 277/382/43
f 359/383/42 360/401/42 356/384/42
f 350/386/42 352/396/42 351/387/42
f 347/389/41 352/396/41 350/386/41
f 345/391/38 350/386/38 349/388/38
f 346/393/40 349/388/40 351/387/40
f 348/395/39 351/387/39 352/396/39
f 358/398/43 357/403/43 353/399/43
f 360/401/38 358/460/38 354/402/38
f 357/403/39 359/383/39 355/385/39
f 367/404/42 368/410/42 364/405/42
f 366/407/43 365/412/43 361/408/43
f 368/410/38 366/461/38 362/411/38
f 365/412/39 367/404/39 363/406/39
f 375/413/42 376/419/42 372/414/42
f 374/416/43 373/421/43 369/417/43
f 376/419/38 374/462/38 370/420/38
f 373/421/39 375/413/39 371/415/39
f 383/422/42 384/428/42 380/423/42
f 382/425/43 381/430/43 377/426/43
f 384/428/38 382/463/38 378/429/38
f 381/430/39 383/422/39 379/424/39
f 386/431/40 388/434/40 387/432/40
f 388/434/42 392/464/42 391/435/42
f 385/433/43 389/465/43 390/436/43
f 387/432/39 391/466/39 389/437/39
s 1
f 282/467/52 291/468/39 283/469/39
f 287/470/38 296/471/53 288/472/53
f 285/473/43 294/474/54 286/475/54
f 283/469/39 292/476/55 284/477/55
f 281/478/42 290/479/52 282/467/52
f 288/472/53 289/480/42 281/478/42
f 286/475/54 295/481/38 287/482/38
f 284/477/55 293/483/43 285/473/43
f 298/484/52 307/485/39 299/486/39
f 303/487/38 312/488/53 304/489/53
f 301/490/43 310/491/54 302/492/54
f 299/486/39 308/493/55 300/494/55
f 297/495/42 306/496/52 298/484/52
f 304/489/53 305/497/42 297/495/42
f 302/492/54 311/498/38 303/499/38
f 300/494/55 309/500/43 301/490/43
f 314/501/52 323/502/39 315/503/39
f 319/504/38 328/505/53 320/506/53
f 317/507/43 326/508/54 318/509/54
f 315/503/39 324/510/55 316/511/55
f 313/512/42 322/513/52 314/501/52
f 320/506/53 321/514/42 313/512/42
f 318/509/54 327/515/38 319/516/38
f 316/511/55 325/517/43 317/507/43
f 330/518/52 339/519/39 331/520/39
f 335/521/38 344/522/53 336/523/53
f 333/524/43 342/525/54 334/526/54
f 331/520/39 340/527/55 332/528/55
f 329/529/42 338/530/52 330/518/52
f 336/523/53 337/531/42 329/529/42
f 334/526/54 343/532/38 335/533/38
f 332/528/55 341/534/43 333/524/43
f 282/467/52 290/479/52 291/468/39
f 287/470/38 295/535/38 296/471/53
f 285/473/43 293/483/43 294/474/54
f 283/469/39 291/468/39 292/476/55
f 281/478/42 289/480/42 290/479/52
f 288/472/53 296/471/53 289/480/42
f 286/475/54 294/474/54 295/481/38
f 284/477/55 292/476/55 293/483/43
f 298/484/52 306/496/52 307/485/39
f 303/487/38 311/536/38 312/488/53
f 301/490/43 309/500/43 310/491/54
f 299/486/39 307/485/39 308/493/55
f 297/495/42 305/497/42 306/496/52
f 304/489/53 312/488/53 305/497/42
f 302/492/54 310/491/54 311/498/38
f 300/494/55 308/493/55 309/500/43
f 314/501/52 322/513/52 323/502/39
f 319/504/38 327/537/38 328/505/53
f 317/507/43 325/517/43 326/508/54
f 315/503/39 323/502/39 324/510/55
f 313/512/42 321/514/42 322/513/52
f 320/506/53 328/505/53 321/514/42
f 318/509/54 326/508/54 327/515/38
f 316/511/55 324/510/55 325/517/43
f 330/518/52 338/530/52 339/519/39
f 335/521/38 343/538/38 344/522/53
f 333/524/43 341/534/43 342/525/54
f 331/520/39 339/519/39 340/527/55
f 329/529/42 337/531/42 338/530/52
f 336/523/53 344/522/53 337/531/42
f 334/526/54 342/525/54 343/532/38
f 332/528/55 340/527/55 341/534/43
