# Blender v2.79 (sub 0) OBJ File: 'pyrooven.blend'
# www.blender.org
o Fan
usemtl hbm
usemtl hbm
v 1.500000 1.500000 1.375000
v 1.391747 1.500000 1.437500
v 1.391747 1.500000 1.562500
v 1.500000 1.500000 1.625000
v 1.608253 1.500000 1.562500
v 1.608253 1.500000 1.437500
v 1.500000 1.625000 1.375000
v 1.391747 1.625000 1.437500
v 1.391747 1.625000 1.562500
v 1.500000 1.625000 1.625000
v 1.608253 1.625000 1.562500
v 1.608253 1.625000 1.437500
v 1.608253 1.546324 1.560370
v 1.608253 1.578676 1.439630
v 2.041266 1.501839 1.726389
v 2.041266 1.623161 1.273611
v 1.498156 1.546324 1.376065
v 1.393591 1.578676 1.436435
v 1.425426 1.501839 0.918055
v 1.033309 1.623161 1.144444
v 1.393591 1.546324 1.563565
v 1.498156 1.578676 1.623935
v 1.033309 1.501839 1.855556
v 1.425426 1.623161 2.081945
vt 0.508475 0.829545
vt 0.514124 0.818182
vt 0.514124 0.829545
vt 0.485876 0.829545
vt 0.491525 0.818182
vt 0.491525 0.829545
vt 0.497175 0.829545
vt 0.502825 0.818182
vt 0.502825 0.829545
vt 0.519774 0.818182
vt 0.519774 0.829545
vt 0.497175 0.818182
vt 0.508475 0.818182
vt 0.511326 0.831160
vt 0.516923 0.831160
vt 0.519721 0.840909
vt 0.485876 0.829545
vt 0.500000 0.869318
vt 0.494350 0.869318
vt 0.485876 0.829545
vt 0.500000 0.869318
vt 0.494350 0.869318
vt 0.494350 0.869318
vt 0.508475 0.829545
vt 0.500000 0.869318
vt 0.485876 0.818182
vt 0.516923 0.850659
vt 0.511326 0.850659
vt 0.508527 0.840909
vt 0.508475 0.829545
vt 0.508475 0.829545
vt 0.485876 0.829545
vn 0.5000 0.0000 -0.8660
vn 0.5000 0.0000 0.8660
vn -1.0000 0.0000 0.0000
vn 1.0000 0.0000 0.0000
vn -0.5000 0.0000 0.8660
vn -0.5000 0.0000 -0.8660
vn 0.0000 1.0000 0.0000
vn -0.0000 0.9659 0.2588
vn 0.2241 0.9659 -0.1294
vn -0.2241 0.9659 -0.1294
s off
f 1/1/1 12/2/1 6/3/1
f 5/4/2 10/5/2 4/6/2
f 3/7/3 8/8/3 2/9/3
f 6/3/4 11/10/4 5/11/4
f 4/6/5 9/12/5 3/7/5
f 2/9/6 7/13/6 1/1/6
f 11/14/7 12/15/7 7/16/7
f 15/17/8 14/18/8 13/19/8
f 19/20/9 18/21/9 17/22/9
f 21/23/10 24/24/10 22/25/10
f 1/1/1 7/13/1 12/2/1
f 5/4/2 11/26/2 10/5/2
f 3/7/3 9/12/3 8/8/3
f 6/3/4 12/2/4 11/10/4
f 4/6/5 10/5/5 9/12/5
f 2/9/6 8/8/6 7/13/6
f 7/16/7 8/27/7 9/28/7
f 9/28/7 10/29/7 7/16/7
f 10/29/7 11/14/7 7/16/7
f 15/17/8 16/30/8 14/18/8
f 19/20/9 20/31/9 18/21/9
f 21/23/10 23/32/10 24/24/10
v 2.250000 1.250000 0.250000
v 2.250000 1.250000 -0.250000
v 1.750000 1.250000 0.250000
v 1.750000 1.250000 -0.250000
v 2.250000 1.625000 0.250000
v 2.250000 1.625000 -0.250000
v 1.750000 1.625000 0.250000
v 1.750000 1.625000 -0.250000
vt 0.361582 0.806818
vt 0.378531 0.852273
vt 0.361582 0.852273
vt 0.378531 0.886364
vt 0.401130 0.852273
vt 0.401130 0.886364
vt 0.418079 0.852273
vt 0.401130 0.806818
vt 0.418079 0.806818
vt 0.378531 0.772727
vt 0.401130 0.772727
vt 0.378531 0.806818
vn 0.0000 0.0000 1.0000
vn -1.0000 0.0000 0.0000
vn 0.0000 0.0000 -1.0000
vn 1.0000 0.0000 0.0000
vn 0.0000 1.0000 0.0000
v -2.500000 0.000000 3.500000
v 2.500000 0.000000 3.500000
v -2.500000 0.000000 -3.500000
v 2.500000 0.000000 -3.500000
v -2.500000 0.500000 3.500000
v 2.500000 0.500000 3.500000
v -2.500000 0.500000 -3.500000
v 2.500000 0.500000 -3.500000
v -2.375000 0.500000 3.375000
v 0.375000 0.500000 3.375000
v -2.375000 0.500000 2.875000
v 0.375000 0.500000 2.875000
v -2.375000 2.500000 2.875000
v -2.375000 2.500000 3.375000
v 0.375000 2.500000 3.375000
v 0.375000 2.500000 2.875000
v -1.625000 3.000000 2.875000
v -1.625000 3.000000 3.375000
v -0.375000 3.000000 3.375000
v -0.375000 3.000000 2.875000
v -2.375000 0.500000 -2.875000
v 0.375000 0.500000 -2.875000
v -2.375000 0.500000 -3.375000
v 0.375000 0.500000 -3.375000
v -2.375000 2.500000 -3.375000
v -2.375000 2.500000 -2.875000
v 0.375000 2.500000 -2.875000
v 0.375000 2.500000 -3.375000
v -1.625000 3.000000 -3.375000
v -1.625000 3.000000 -2.875000
v -0.375000 3.000000 -2.875000
v -0.375000 3.000000 -3.375000
v -2.375000 0.500000 -1.375000
v 0.375000 0.500000 -1.375000
v -2.375000 0.500000 -1.875000
v 0.375000 0.500000 -1.875000
v -2.375000 2.500000 -1.875000
v -2.375000 2.500000 -1.375000
v 0.375000 2.500000 -1.375000
v 0.375000 2.500000 -1.875000
v -1.625000 3.000000 -1.875000
v -1.625000 3.000000 -1.375000
v -0.375000 3.000000 -1.375000
v -0.375000 3.000000 -1.875000
v -2.375000 0.500000 1.875000
v 0.375000 0.500000 1.875000
v -2.375000 0.500000 1.375000
v 0.375000 0.500000 1.375000
v -2.375000 2.500000 1.375000
v -2.375000 2.500000 1.875000
v 0.375000 2.500000 1.875000
v 0.375000 2.500000 1.375000
v -1.625000 3.000000 1.375000
v -1.625000 3.000000 1.875000
v -0.375000 3.000000 1.875000
v -0.375000 3.000000 1.375000
v 0.250000 0.500000 -1.375000
v 0.250000 0.500000 1.375000
v 0.250000 2.375000 -1.375000
v 0.250000 2.375000 1.375000
v -0.500000 2.875000 -1.375000
v -0.500000 2.875000 1.375000
v -1.500000 2.875000 -1.375000
v -1.500000 2.875000 1.375000
v -2.250000 2.375000 -1.375000
v -2.250000 2.375000 1.375000
v -2.250000 0.500000 -1.375000
v -2.250000 0.500000 1.375000
v 0.250000 0.500000 1.875000
v 0.250000 2.375000 1.875000
v -0.500000 2.875000 1.875000
v -1.500000 2.875000 1.875000
v -2.250000 2.375000 1.875000
v -2.250000 0.500000 1.875000
v 0.250000 0.500000 2.875000
v 0.250000 2.375000 2.875000
v -0.500000 2.875000 2.875000
v -1.500000 2.875000 2.875000
v -2.250000 2.375000 2.875000
v -2.250000 0.500000 2.875000
v 0.250000 0.500000 -2.875000
v 0.250000 2.375000 -2.875000
v -0.500000 2.875000 -2.875000
v -1.500000 2.875000 -2.875000
v -2.250000 2.375000 -2.875000
v -2.250000 0.500000 -2.875000
v 0.250000 0.500000 -1.875000
v 0.250000 2.375000 -1.875000
v -0.500000 2.875000 -1.875000
v -1.500000 2.875000 -1.875000
v -2.250000 2.375000 -1.875000
v -2.250000 0.500000 -1.875000
v -1.000000 2.625000 3.375000
v -1.500000 2.491026 3.375000
v -1.866025 2.125000 3.375000
v -2.000000 1.625000 3.375000
v -1.866025 1.125000 3.375000
v -1.500000 0.758975 3.375000
v -1.000000 0.625000 3.375000
v -0.500000 0.758975 3.375000
v -0.133975 1.125000 3.375000
v 0.000000 1.625000 3.375000
v -0.133975 2.125000 3.375000
v -0.500000 2.491025 3.375000
v -1.000000 2.625000 3.500000
v -1.500000 2.491026 3.500000
v -1.866025 2.125000 3.500000
v -2.000000 1.625000 3.500000
v -1.866025 1.125000 3.500000
v -1.500000 0.758975 3.500000
v -1.000000 0.625000 3.500000
v -0.500000 0.758975 3.500000
v -0.133975 1.125000 3.500000
v 0.000000 1.625000 3.500000
v -0.133975 2.125000 3.500000
v -0.500000 2.491025 3.500000
v -1.500001 2.491025 -3.500000
v -1.866026 2.125000 -3.500000
v -2.000000 1.625000 -3.500000
v -1.866025 1.125000 -3.500000
v -1.500000 0.758975 -3.500000
v -1.000000 0.625000 -3.500000
v -0.500000 0.758975 -3.500000
v -0.133975 1.125000 -3.500000
v -0.000000 1.625000 -3.500000
v -0.133975 2.125000 -3.500000
v -0.500000 2.491026 -3.500000
v -1.000000 2.625000 -3.500000
v -1.500001 2.491025 -3.375000
v -1.866026 2.125000 -3.375000
v -2.000000 1.625000 -3.375000
v -1.866025 1.125000 -3.375000
v -1.500000 0.758975 -3.375000
v -1.000000 0.625000 -3.375000
v -0.500000 0.758975 -3.375000
v -0.133975 1.125000 -3.375000
v -0.000000 1.625000 -3.375000
v -0.133975 2.125000 -3.375000
v -0.500000 2.491026 -3.375000
v -1.000000 2.625000 -3.375000
v -0.625000 2.875000 2.000000
v -1.375000 2.875000 2.000000
v -0.625000 2.875000 2.750000
v -1.375000 2.875000 2.750000
v -1.312500 3.125000 2.062500
v -0.687500 3.125000 2.062500
v -1.312500 3.125000 2.687500
v -0.687500 3.125000 2.687500
v -1.375000 3.125000 2.000000
v -0.625000 3.125000 2.000000
v -1.375000 3.125000 2.750000
v -0.625000 3.125000 2.750000
v -1.312500 3.000000 2.062500
v -0.687500 3.000000 2.062500
v -1.312500 3.000000 2.687500
v -0.687500 3.000000 2.687500
v -1.312500 3.062500 2.062500
v -0.687500 3.062500 2.062500
v -1.312500 3.062500 2.687500
v -0.687500 3.062500 2.687500
v -0.625000 2.875000 -2.750000
v -1.375000 2.875000 -2.750000
v -0.625000 2.875000 -2.000000
v -1.375000 2.875000 -2.000000
v -1.312500 3.125000 -2.687500
v -0.687500 3.125000 -2.687500
v -1.312500 3.125000 -2.062500
v -0.687500 3.125000 -2.062500
v -1.375000 3.125000 -2.750000
v -0.625000 3.125000 -2.750000
v -1.375000 3.125000 -2.000000
v -0.625000 3.125000 -2.000000
v -1.312500 3.000000 -2.687500
v -0.687500 3.000000 -2.687500
v -1.312500 3.000000 -2.062500
v -0.687500 3.000000 -2.062500
v -1.312500 3.062500 -2.687500
v -0.687500 3.062500 -2.687500
v -1.312500 3.062500 -2.062500
v -0.687500 3.062500 -2.062500
v -0.625000 2.875000 -1.250000
v -1.375000 2.875000 -1.250000
v -0.625000 2.875000 -0.500000
v -1.375000 2.875000 -0.500000
v -1.312500 3.125000 -1.187500
v -0.687500 3.125000 -1.187500
v -1.312500 3.125000 -0.562500
v -0.687500 3.125000 -0.562500
v -1.375000 3.125000 -1.250000
v -0.625000 3.125000 -1.250000
v -1.375000 3.125000 -0.500000
v -0.625000 3.125000 -0.500000
v -1.312500 3.000000 -1.187500
v -0.687500 3.000000 -1.187500
v -1.312500 3.000000 -0.562500
v -0.687500 3.000000 -0.562500
v -1.312500 3.062500 -1.187500
v -0.687500 3.062500 -1.187500
v -1.312500 3.062500 -0.562500
v -0.687500 3.062500 -0.562500
v -0.625000 2.875000 0.500000
v -1.375000 2.875000 0.500000
v -0.625000 2.875000 1.250000
v -1.375000 2.875000 1.250000
v -1.312500 3.125000 0.562500
v -0.687500 3.125000 0.562500
v -1.312500 3.125000 1.187500
v -0.687500 3.125000 1.187500
v -1.375000 3.125000 0.500000
v -0.625000 3.125000 0.500000
v -1.375000 3.125000 1.250000
v -0.625000 3.125000 1.250000
v -1.312500 3.000000 0.562500
v -0.687500 3.000000 0.562500
v -1.312500 3.000000 1.187500
v -0.687500 3.000000 1.187500
v -1.312500 3.062500 0.562500
v -0.687500 3.062500 0.562500
v -1.312500 3.062500 1.187500
v -0.687500 3.062500 1.187500
v 0.875000 1.750000 2.125000
v 2.125000 1.750000 2.125000
v 0.875000 1.750000 0.875000
v 2.125000 1.750000 0.875000
v 2.250000 1.500000 0.750000
v 0.750000 1.500000 0.750000
v 2.250000 1.500000 2.250000
v 0.750000 1.500000 2.250000
v 0.500000 0.500000 -0.500000
v 2.500000 0.500000 -0.500000
v 0.500000 0.500000 -2.500000
v 2.500000 0.500000 -2.500000
v 2.500000 1.500000 -2.500000
v 0.500000 1.500000 -2.500000
v 2.500000 1.500000 -0.500000
v 0.500000 1.500000 -0.500000
v 0.500000 1.500000 2.500000
v 2.500000 1.500000 2.500000
v 0.500000 1.500000 0.500000
v 2.500000 1.500000 0.500000
v 2.500000 0.500000 0.500000
v 0.500000 0.500000 0.500000
v 2.500000 0.500000 2.500000
v 0.500000 0.500000 2.500000
v 0.750000 1.750000 0.750000
v 0.750000 1.750000 2.250000
v 2.250000 1.750000 2.250000
v 2.250000 1.750000 0.750000
v 0.875000 1.500000 0.875000
v 0.875000 1.500000 2.125000
v 2.125000 1.500000 2.125000
v 2.125000 1.500000 0.875000
v -1.375000 3.000000 0.125000
v -1.125000 3.000000 0.375000
v -0.875000 3.000000 0.375000
v -0.625000 3.000000 0.125000
v -1.125000 3.000000 -0.375000
v -1.375000 3.000000 -0.125000
v -0.625000 3.000000 -0.125000
v -0.875000 3.000000 -0.375000
v -1.375000 2.875000 -0.125000
v -1.125000 2.875000 -0.375000
v -1.125000 2.875000 0.375000
v -1.375000 2.875000 0.125000
v -0.625000 2.875000 0.125000
v -0.875000 2.875000 0.375000
v -0.875000 2.875000 -0.375000
v -0.625000 2.875000 -0.125000
v 0.875000 1.687500 2.125000
v 2.125000 1.687500 2.125000
v 0.875000 1.687500 0.875000
v 2.125000 1.687500 0.875000
v 1.176777 2.801777 -0.823223
v 0.875000 2.801777 -0.698223
v 0.875000 2.625000 -0.625000
v 0.875000 2.448223 -0.698223
v 0.875000 2.375000 -0.875000
v 0.875000 2.448223 -1.051777
v 0.875000 2.801777 -1.051777
v 0.875000 2.875000 -0.875000
v 0.875000 2.000000 -1.500000
v 0.948223 2.000000 -1.323223
v 1.125000 2.000000 -1.250000
v 1.301777 2.000000 -1.323223
v 1.375000 2.000000 -1.500000
v 1.301777 2.000000 -1.676777
v 1.125000 2.000000 -1.750000
v 0.948223 2.000000 -1.676777
v 0.948223 2.375000 -1.676777
v 1.125000 2.375000 -1.750000
v 1.301777 2.375000 -1.676777
v 1.375000 2.375000 -1.500000
v 1.301777 2.375000 -1.323223
v 1.125000 2.375000 -1.250000
v 0.948223 2.375000 -1.323223
v 0.875000 2.375000 -1.500000
v 0.875000 2.551777 -1.426777
v 0.948223 2.426777 -1.301777
v 1.301777 2.426777 -1.301777
v 1.375000 2.551777 -1.426777
v 1.301777 2.676777 -1.551777
v 1.125000 2.728553 -1.603553
v 2.250000 2.000000 -2.250000
v 0.750000 2.000000 -2.250000
v 2.250000 2.000000 -0.750000
v 0.750000 2.000000 -0.750000
v 0.750000 1.500000 -0.750000
v 2.250000 1.500000 -0.750000
v 0.750000 1.500000 -2.250000
v 2.250000 1.500000 -2.250000
v 0.500000 0.500000 0.250000
v 2.500000 0.500000 0.250000
v 0.500000 0.500000 -0.250000
v 2.500000 0.500000 -0.250000
v 0.500000 1.250000 -0.250000
v 0.500000 1.250000 0.250000
v 2.500000 1.250000 0.250000
v 2.500000 1.250000 -0.250000
v 0.625000 1.250000 -0.031250
v 0.625000 1.250000 0.031250
v 2.375000 1.250000 0.031250
v 2.375000 1.250000 -0.031250
v 0.625000 1.500000 -0.031250
v 0.625000 1.500000 0.031250
v 2.375000 1.500000 0.031250
v 2.375000 1.500000 -0.031250
v 0.625000 1.250000 -0.125000
v 0.625000 1.250000 -0.062500
v 2.375000 1.250000 -0.062500
v 2.375000 1.250000 -0.125000
v 0.625000 1.500000 -0.125000
v 0.625000 1.500000 -0.062500
v 2.375000 1.500000 -0.062500
v 2.375000 1.500000 -0.125000
v 0.625000 1.250000 0.062500
v 0.625000 1.250000 0.125000
v 2.375000 1.250000 0.125000
v 2.375000 1.250000 0.062500
v 0.625000 1.500000 0.062500
v 0.625000 1.500000 0.125000
v 2.375000 1.500000 0.125000
v 2.375000 1.500000 0.062500
v 0.625000 1.250000 -0.218750
v 0.625000 1.250000 -0.156250
v 2.375000 1.250000 -0.156250
v 2.375000 1.250000 -0.218750
v 0.625000 1.500000 -0.218750
v 0.625000 1.500000 -0.156250
v 2.375000 1.500000 -0.156250
v 2.375000 1.500000 -0.218750
v 0.625000 1.250000 0.156250
v 0.625000 1.250000 0.218750
v 2.375000 1.250000 0.218750
v 2.375000 1.250000 0.156250
v 0.625000 1.500000 0.156250
v 0.625000 1.500000 0.218750
v 2.375000 1.500000 0.218750
v 2.375000 1.500000 0.156250
v 1.500000 1.125000 0.500000
v 1.323223 1.051777 0.500000
v 1.250000 0.875000 0.500000
v 1.323223 0.698223 0.500000
v 1.500000 0.625000 0.500000
v 1.676777 0.698223 0.500000
v 1.750000 0.875000 0.500000
v 1.676777 1.051777 0.500000
v 1.500000 1.125000 -0.500000
v 1.323223 1.051777 -0.500000
v 1.250000 0.875000 -0.500000
v 1.323223 0.698223 -0.500000
v 1.500000 0.625000 -0.500000
v 1.676777 0.698223 -0.500000
v 1.750000 0.875000 -0.500000
v 1.676777 1.051777 -0.500000
v 2.125000 1.125000 0.500000
v 1.948223 1.051777 0.500000
v 1.875000 0.875000 0.500000
v 1.948223 0.698223 0.500000
v 2.125000 0.625000 0.500000
v 2.301777 0.698223 0.500000
v 2.375000 0.875000 0.500000
v 2.301777 1.051777 0.500000
v 2.125000 1.125000 -0.500000
v 1.948223 1.051777 -0.500000
v 1.875000 0.875000 -0.500000
v 1.948223 0.698223 -0.500000
v 2.125000 0.625000 -0.500000
v 2.301777 0.698223 -0.500000
v 2.375000 0.875000 -0.500000
v 2.301777 1.051777 -0.500000
v 0.875000 1.125000 0.500000
v 0.698223 1.051777 0.500000
v 0.625000 0.875000 0.500000
v 0.698223 0.698223 0.500000
v 0.875000 0.625000 0.500000
v 1.051777 0.698223 0.500000
v 1.125000 0.875000 0.500000
v 1.051777 1.051777 0.500000
v 0.875000 1.125000 -0.500000
v 0.698223 1.051777 -0.500000
v 0.625000 0.875000 -0.500000
v 0.698223 0.698223 -0.500000
v 0.875000 0.625000 -0.500000
v 1.051777 0.698223 -0.500000
v 1.125000 0.875000 -0.500000
v 1.051777 1.051777 -0.500000
v 1.429917 1.382583 2.500000
v 1.562500 1.437500 2.500000
v 1.695083 1.382583 2.500000
v 1.750000 1.250000 2.500000
v 1.695083 1.117417 2.500000
v 1.562500 1.062500 2.500000
v 1.429917 1.117417 2.500000
v 1.413833 1.117417 2.538833
v 1.507583 1.062500 2.632582
v 1.601333 1.117417 2.726332
v 1.640165 1.250000 2.765165
v 1.601333 1.382583 2.726332
v 1.507583 1.437500 2.632582
v 1.413833 1.382583 2.538833
v 1.375000 1.250000 2.500000
v 1.375000 1.382583 2.554918
v 1.375000 1.437500 2.687500
v 1.375000 1.382583 2.820082
v 1.375000 1.250000 2.875000
v 1.375000 1.117417 2.820082
v 1.375000 1.062500 2.687500
v 1.375000 1.117417 2.554918
v 0.250000 1.117417 2.554918
v 0.250000 1.062500 2.687500
v 0.250000 1.117417 2.820082
v 0.250000 1.250000 2.875000
v 0.250000 1.382583 2.820082
v 0.250000 1.437500 2.687500
v 0.250000 1.382583 2.554918
v 0.250000 1.250000 2.500000
v 0.375000 1.250000 2.937500
v 0.375000 1.382583 2.992418
v 0.375000 1.437500 3.125000
v 0.375000 1.382583 3.257582
v 0.375000 1.250000 3.312500
v 0.375000 1.117417 3.257582
v 0.375000 1.062500 3.125000
v 0.375000 1.117417 2.992418
v 1.875000 1.117417 2.992418
v 1.875000 1.062500 3.125000
v 1.875000 1.117417 3.257582
v 1.875000 1.250000 3.312500
v 1.875000 1.382583 3.257582
v 1.875000 1.437500 3.125000
v 1.875000 1.382583 2.992418
v 1.875000 1.250000 2.937500
v 1.913833 1.382583 2.976333
v 2.007583 1.437500 3.070082
v 2.101333 1.382583 3.163832
v 2.140165 1.250000 3.202665
v 2.101333 1.117417 3.163832
v 2.007583 1.062500 3.070082
v 1.913833 1.117417 2.976333
v 1.929917 1.117417 2.937500
v 2.062500 1.062500 2.937500
v 2.195083 1.117417 2.937500
v 2.250000 1.250000 2.937500
v 2.195083 1.382583 2.937500
v 2.062500 1.437500 2.937500
v 1.929917 1.382583 2.937500
v 1.929917 1.382583 2.500000
v 2.062500 1.437500 2.500000
v 2.195083 1.382583 2.500000
v 2.250000 1.250000 2.500000
v 2.195083 1.117417 2.500000
v 2.062500 1.062500 2.500000
v 1.929917 1.117417 2.500000
v 1.875000 1.250000 2.500000
v 0.948223 2.676777 -1.551777
v 0.948223 2.801777 -1.250000
v 1.125000 2.875000 -1.250000
v 1.301777 2.801777 -1.250000
v 1.375000 2.625000 -1.250000
v 1.301777 2.448223 -1.250000
v 0.948223 2.448223 -1.250000
v 0.875000 2.625000 -1.250000
v 1.625000 2.625000 -1.250000
v 1.698223 2.448223 -1.250000
v 2.051777 2.448223 -1.250000
v 2.125000 2.625000 -1.250000
v 2.051777 2.801777 -1.250000
v 1.875000 2.875000 -1.250000
v 1.698223 2.801777 -1.250000
v 1.698223 2.676777 -1.551777
v 1.875000 2.728553 -1.603553
v 2.051777 2.676777 -1.551777
v 2.125000 2.551777 -1.426777
v 2.051777 2.426777 -1.301777
v 1.698223 2.426777 -1.301777
v 1.625000 2.551777 -1.426777
v 1.625000 2.375000 -1.500000
v 1.698223 2.375000 -1.323223
v 1.875000 2.375000 -1.250000
v 2.051777 2.375000 -1.323223
v 2.125000 2.375000 -1.500000
v 2.051777 2.375000 -1.676777
v 1.875000 2.375000 -1.750000
v 1.698223 2.375000 -1.676777
v 1.698223 2.000000 -1.676777
v 1.875000 2.000000 -1.750000
v 2.051777 2.000000 -1.676777
v 2.125000 2.000000 -1.500000
v 2.051777 2.000000 -1.323223
v 1.875000 2.000000 -1.250000
v 1.698223 2.000000 -1.323223
v 1.625000 2.000000 -1.500000
v 1.625000 2.875000 0.875000
v 1.625000 2.801777 0.698223
v 1.625000 2.448223 0.698223
v 1.625000 2.375000 0.875000
v 1.625000 2.448223 1.051777
v 1.625000 2.625000 1.125000
v 1.625000 2.801777 1.051777
v 1.926777 2.801777 0.926777
v 1.978553 2.625000 0.978553
v 1.926777 2.448223 0.926777
v 1.801777 2.375000 0.801777
v 1.676777 2.448223 0.676777
v 1.676777 2.801777 0.676777
v 1.801777 2.875000 0.801777
v 1.875000 2.875000 0.625000
v 1.698223 2.801777 0.625000
v 1.625000 2.625000 0.625000
v 1.698223 2.448223 0.625000
v 1.875000 2.375000 0.625000
v 2.051777 2.448223 0.625000
v 2.125000 2.625000 0.625000
v 2.051777 2.801777 0.625000
v 0.948223 2.801777 -1.125000
v 1.125000 2.875000 -1.125000
v 1.051777 2.875000 -0.948223
v 0.926777 2.801777 -1.073223
v 0.926777 2.448223 -1.073223
v 1.051777 2.375000 -0.948223
v 1.176777 2.448223 -0.823223
v 1.228553 2.625000 -0.771447
v -0.500000 2.875000 0.875000
v -0.500000 2.801777 0.698223
v -0.500000 2.448223 0.698223
v -0.500000 2.375000 0.875000
v -0.500000 2.448223 1.051777
v -0.500000 2.625000 1.125000
v -0.500000 2.801777 1.051777
v -0.500000 2.625000 0.625000
v 0.875000 2.625000 -1.125000
v 0.948223 2.448223 -1.125000
v 1.125000 2.375000 -1.125000
v 1.301777 2.448223 -1.125000
v 1.375000 2.625000 -1.125000
v 1.301777 2.801777 -1.125000
v -0.500000 2.875000 -0.875000
v -0.500000 2.801777 -1.051777
v -0.500000 2.448223 -1.051777
v -0.500000 2.375000 -0.875000
v -0.500000 2.448223 -0.698223
v -0.500000 2.625000 -0.625000
v -0.500000 2.801777 -0.698223
v -0.500000 2.625000 -1.125000
v 2.000000 2.000000 -2.250000
v 2.000000 2.000000 -0.750000
v 2.000000 1.500000 -0.750000
v 2.000000 1.500000 -2.250000
v 2.000000 2.125000 -2.250000
v 2.000000 2.125000 -0.750000
v 2.000000 2.000000 -0.625000
v 2.000000 1.500000 -0.625000
v 2.000000 2.000000 -2.375000
v 2.000000 1.500000 -2.375000
v 1.750000 2.000000 -2.250000
v 1.750000 1.500000 -2.250000
v 1.750000 2.000000 -0.750000
v 1.750000 1.500000 -0.750000
v 1.750000 2.125000 -0.750000
v 1.750000 2.125000 -2.250000
v 1.750000 2.000000 -0.625000
v 1.750000 1.500000 -0.625000
v 1.750000 2.000000 -2.375000
v 1.750000 1.500000 -2.375000
v 1.250000 2.000000 -2.250000
v 1.250000 2.000000 -0.750000
v 1.250000 1.500000 -0.750000
v 1.250000 1.500000 -2.250000
v 1.250000 2.125000 -2.250000
v 1.250000 2.125000 -0.750000
v 1.250000 2.000000 -0.625000
v 1.250000 1.500000 -0.625000
v 1.250000 2.000000 -2.375000
v 1.250000 1.500000 -2.375000
v 1.000000 2.000000 -2.250000
v 1.000000 1.500000 -2.250000
v 1.000000 2.000000 -0.750000
v 1.000000 1.500000 -0.750000
v 1.000000 2.125000 -0.750000
v 1.000000 2.125000 -2.250000
v 1.000000 2.000000 -0.625000
v 1.000000 1.500000 -0.625000
v 1.000000 2.000000 -2.375000
v 1.000000 1.500000 -2.375000
v 1.429917 0.882583 2.500000
v 1.562500 0.937500 2.500000
v 1.695083 0.882583 2.500000
v 1.750000 0.750000 2.500000
v 1.695083 0.617417 2.500000
v 1.562500 0.562500 2.500000
v 1.429917 0.617417 2.500000
v 1.413833 0.617417 2.538833
v 1.507583 0.562500 2.632582
v 1.601333 0.617417 2.726332
v 1.640165 0.750000 2.765165
v 1.601333 0.882583 2.726332
v 1.507583 0.937500 2.632582
v 1.413833 0.882583 2.538833
v 1.375000 0.750000 2.500000
v 1.375000 0.882583 2.554918
v 1.375000 0.937500 2.687500
v 1.375000 0.882583 2.820082
v 1.375000 0.750000 2.875000
v 1.375000 0.617417 2.820082
v 1.375000 0.562500 2.687500
v 1.375000 0.617417 2.554918
v 0.250000 0.617417 2.554918
v 0.250000 0.562500 2.687500
v 0.250000 0.617417 2.820082
v 0.250000 0.750000 2.875000
v 0.250000 0.882583 2.820082
v 0.250000 0.937500 2.687500
v 0.250000 0.882583 2.554918
v 0.250000 0.750000 2.500000
v 0.375000 0.750000 2.937500
v 0.375000 0.882583 2.992418
v 0.375000 0.937500 3.125000
v 0.375000 0.882583 3.257582
v 0.375000 0.750000 3.312500
v 0.375000 0.617417 3.257582
v 0.375000 0.562500 3.125000
v 0.375000 0.617417 2.992418
v 1.875000 0.617417 2.992418
v 1.875000 0.562500 3.125000
v 1.875000 0.617417 3.257582
v 1.875000 0.750000 3.312500
v 1.875000 0.882583 3.257582
v 1.875000 0.937500 3.125000
v 1.875000 0.882583 2.992418
v 1.875000 0.750000 2.937500
v 1.913833 0.882583 2.976333
v 2.007583 0.937500 3.070082
v 2.101333 0.882583 3.163832
v 2.140165 0.750000 3.202665
v 2.101333 0.617417 3.163832
v 2.007583 0.562500 3.070082
v 1.913833 0.617417 2.976333
v 1.929917 0.617417 2.937500
v 2.062500 0.562500 2.937500
v 2.195083 0.617417 2.937500
v 2.250000 0.750000 2.937500
v 2.195083 0.882583 2.937500
v 2.062500 0.937500 2.937500
v 1.929917 0.882583 2.937500
v 1.929917 0.882583 2.500000
v 2.062500 0.937500 2.500000
v 2.195083 0.882583 2.500000
v 2.250000 0.750000 2.500000
v 2.195083 0.617417 2.500000
v 2.062500 0.562500 2.500000
v 1.929917 0.617417 2.500000
v 1.875000 0.750000 2.500000
v 1.429917 1.382583 -2.500000
v 1.562500 1.437500 -2.500000
v 1.695083 1.382583 -2.500000
v 1.750000 1.250000 -2.500000
v 1.695083 1.117417 -2.500000
v 1.562500 1.062500 -2.500000
v 1.429917 1.117417 -2.500000
v 1.413833 1.117417 -2.538833
v 1.507583 1.062500 -2.632582
v 1.601333 1.117417 -2.726332
v 1.640165 1.250000 -2.765165
v 1.601333 1.382583 -2.726332
v 1.507583 1.437500 -2.632582
v 1.413833 1.382583 -2.538833
v 1.375000 1.250000 -2.500000
v 1.375000 1.382583 -2.554918
v 1.375000 1.437500 -2.687500
v 1.375000 1.382583 -2.820082
v 1.375000 1.250000 -2.875000
v 1.375000 1.117417 -2.820082
v 1.375000 1.062500 -2.687500
v 1.375000 1.117417 -2.554918
v 0.250000 1.117417 -2.554918
v 0.250000 1.062500 -2.687500
v 0.250000 1.117417 -2.820082
v 0.250000 1.250000 -2.875000
v 0.250000 1.382583 -2.820082
v 0.250000 1.437500 -2.687500
v 0.250000 1.382583 -2.554918
v 0.250000 1.250000 -2.500000
v 0.375000 1.250000 -2.937500
v 0.375000 1.382583 -2.992418
v 0.375000 1.437500 -3.125000
v 0.375000 1.382583 -3.257582
v 0.375000 1.250000 -3.312500
v 0.375000 1.117417 -3.257582
v 0.375000 1.062500 -3.125000
v 0.375000 1.117417 -2.992418
v 1.875000 1.117417 -2.992418
v 1.875000 1.062500 -3.125000
v 1.875000 1.117417 -3.257582
v 1.875000 1.250000 -3.312500
v 1.875000 1.382583 -3.257582
v 1.875000 1.437500 -3.125000
v 1.875000 1.382583 -2.992418
v 1.875000 1.250000 -2.937500
v 1.913833 1.382583 -2.976333
v 2.007583 1.437500 -3.070082
v 2.101333 1.382583 -3.163832
v 2.140165 1.250000 -3.202665
v 2.101333 1.117417 -3.163832
v 2.007583 1.062500 -3.070082
v 1.913833 1.117417 -2.976333
v 1.929917 1.117417 -2.937500
v 2.062500 1.062500 -2.937500
v 2.195083 1.117417 -2.937500
v 2.250000 1.250000 -2.937500
v 2.195083 1.382583 -2.937500
v 2.062500 1.437500 -2.937500
v 1.929917 1.382583 -2.937500
v 1.929917 1.382583 -2.500000
v 2.062500 1.437500 -2.500000
v 2.195083 1.382583 -2.500000
v 2.250000 1.250000 -2.500000
v 2.195083 1.117417 -2.500000
v 2.062500 1.062500 -2.500000
v 1.929917 1.117417 -2.500000
v 1.875000 1.250000 -2.500000
v 1.429917 0.882583 -2.500000
v 1.562500 0.937500 -2.500000
v 1.695083 0.882583 -2.500000
v 1.750000 0.750000 -2.500000
v 1.695083 0.617417 -2.500000
v 1.562500 0.562500 -2.500000
v 1.429917 0.617417 -2.500000
v 1.413833 0.617417 -2.538833
v 1.507583 0.562500 -2.632582
v 1.601333 0.617417 -2.726332
v 1.640165 0.750000 -2.765165
v 1.601333 0.882583 -2.726332
v 1.507583 0.937500 -2.632582
v 1.413833 0.882583 -2.538833
v 1.375000 0.750000 -2.500000
v 1.375000 0.882583 -2.554918
v 1.375000 0.937500 -2.687500
v 1.375000 0.882583 -2.820082
v 1.375000 0.750000 -2.875000
v 1.375000 0.617417 -2.820082
v 1.375000 0.562500 -2.687500
v 1.375000 0.617417 -2.554918
v 0.250000 0.617417 -2.554918
v 0.250000 0.562500 -2.687500
v 0.250000 0.617417 -2.820082
v 0.250000 0.750000 -2.875000
v 0.250000 0.882583 -2.820082
v 0.250000 0.937500 -2.687500
v 0.250000 0.882583 -2.554918
v 0.250000 0.750000 -2.500000
v 0.375000 0.750000 -2.937500
v 0.375000 0.882583 -2.992418
v 0.375000 0.937500 -3.125000
v 0.375000 0.882583 -3.257582
v 0.375000 0.750000 -3.312500
v 0.375000 0.617417 -3.257582
v 0.375000 0.562500 -3.125000
v 0.375000 0.617417 -2.992418
v 1.875000 0.617417 -2.992418
v 1.875000 0.562500 -3.125000
v 1.875000 0.617417 -3.257582
v 1.875000 0.750000 -3.312500
v 1.875000 0.882583 -3.257582
v 1.875000 0.937500 -3.125000
v 1.875000 0.882583 -2.992418
v 1.875000 0.750000 -2.937500
v 1.913833 0.882583 -2.976333
v 2.007583 0.937500 -3.070082
v 2.101333 0.882583 -3.163832
v 2.140165 0.750000 -3.202665
v 2.101333 0.617417 -3.163832
v 2.007583 0.562500 -3.070082
v 1.913833 0.617417 -2.976333
v 1.929917 0.617417 -2.937500
v 2.062500 0.562500 -2.937500
v 2.195083 0.617417 -2.937500
v 2.250000 0.750000 -2.937500
v 2.195083 0.882583 -2.937500
v 2.062500 0.937500 -2.937500
v 1.929917 0.882583 -2.937500
v 1.929917 0.882583 -2.500000
v 2.062500 0.937500 -2.500000
v 2.195083 0.882583 -2.500000
v 2.250000 0.750000 -2.500000
v 2.195083 0.617417 -2.500000
v 2.062500 0.562500 -2.500000
v 1.929917 0.617417 -2.500000
v 1.875000 0.750000 -2.500000
vt 0.338983 0.000000
vt 0.022599 0.454545
vt 0.022599 0.000000
vt 0.022599 0.500000
vt 0.338983 0.954545
vt 0.022599 0.954545
vt 0.361582 0.954545
vt 0.338983 0.500000
vt 0.361582 0.500000
vt 0.000000 0.500000
vt 0.000000 0.954545
vt 0.338983 0.454545
vt 0.022599 1.000000
vt 0.338983 1.000000
vt 0.361582 0.227273
vt 0.395480 0.272727
vt 0.361582 0.272727
vt 0.361582 0.227273
vt 0.395480 0.272727
vt 0.361582 0.272727
vt 0.508475 -0.000000
vt 0.485876 0.181818
vt 0.485876 -0.000000
vt 0.361582 -0.000000
vt 0.338983 0.181818
vt 0.338983 -0.000000
vt 0.361582 0.500000
vt 0.485876 0.318182
vt 0.485876 0.500000
vt 0.361582 0.181818
vt 0.451977 0.227273
vt 0.395480 0.227273
vt 0.361582 0.318182
vt 0.451977 0.272727
vt 0.485876 0.272727
vt 0.485876 0.227273
vt 0.508475 -0.000000
vt 0.485876 0.181818
vt 0.485876 -0.000000
vt 0.361582 -0.000000
vt 0.338983 0.181818
vt 0.338983 -0.000000
vt 0.361582 0.500000
vt 0.485876 0.318182
vt 0.485876 0.500000
vt 0.361582 0.181818
vt 0.451977 0.227273
vt 0.395480 0.227273
vt 0.361582 0.318182
vt 0.451977 0.272727
vt 0.485876 0.272727
vt 0.485876 0.227273
vt 0.361582 0.227273
vt 0.395480 0.272727
vt 0.361582 0.272727
vt 0.508475 -0.000000
vt 0.485876 0.181818
vt 0.485876 -0.000000
vt 0.361582 -0.000000
vt 0.338983 0.181818
vt 0.338983 -0.000000
vt 0.361582 0.500000
vt 0.485876 0.318182
vt 0.485876 0.500000
vt 0.361582 0.181818
vt 0.451977 0.227273
vt 0.395480 0.227273
vt 0.361582 0.318182
vt 0.451977 0.272727
vt 0.485876 0.272727
vt 0.485876 0.227273
vt 0.361582 0.227273
vt 0.395480 0.272727
vt 0.361582 0.272727
vt 0.508475 -0.000000
vt 0.485876 0.181818
vt 0.485876 -0.000000
vt 0.361582 -0.000000
vt 0.338983 0.181818
vt 0.338983 -0.000000
vt 0.361582 0.500000
vt 0.485876 0.318182
vt 0.485876 0.500000
vt 0.361582 0.181818
vt 0.451977 0.227273
vt 0.395480 0.227273
vt 0.361582 0.318182
vt 0.451977 0.272727
vt 0.485876 0.272727
vt 0.485876 0.227273
vt 0.677966 0.170455
vt 0.553672 -0.000000
vt 0.677966 -0.000000
vt 0.553672 0.238636
vt 0.553672 0.170455
vt 0.677966 0.238636
vt 0.553672 0.329545
vt 0.677966 0.329545
vt 0.553672 0.397727
vt 0.677966 0.397727
vt 0.553672 0.568182
vt 0.553672 0.397727
vt 0.508475 0.329545
vt 0.553672 0.329545
vt 0.553672 0.238636
vt 0.508475 0.170455
vt 0.553672 0.170455
vt 0.553672 0.568182
vt 0.508475 0.397727
vt 0.508475 0.238636
vt 0.553672 -0.000000
vt 0.723164 0.397727
vt 0.677966 0.329545
vt 0.723164 0.329545
vt 0.723164 0.238636
vt 0.677966 0.170455
vt 0.723164 0.170455
vt 0.723164 0.568182
vt 0.677966 0.397727
vt 0.677966 0.238636
vt 0.723164 -0.000000
vt 0.988274 0.136340
vt 0.949153 0.181770
vt 0.910031 0.045479
vt 0.988274 0.045478
vt 0.988274 0.136340
vt 0.949153 0.181770
vt 0.497175 0.886364
vt 0.429379 0.909091
vt 0.429379 0.886364
vt 0.632768 0.886364
vt 0.564972 0.909091
vt 0.564972 0.886364
vt 0.497175 0.909091
vt 0.361582 0.909091
vt 0.361582 0.886364
vt 0.666667 0.676136
vt 0.694915 0.664773
vt 0.694915 0.676136
vt 0.697740 0.568182
vt 0.663842 0.590909
vt 0.663842 0.568182
vt 0.646893 0.602273
vt 0.658192 0.670455
vt 0.646893 0.670455
vt 0.663842 0.704545
vt 0.697740 0.681818
vt 0.697740 0.704545
vt 0.714689 0.670455
vt 0.703390 0.602273
vt 0.714689 0.602273
vt 0.700565 0.607955
vt 0.703390 0.670455
vt 0.700565 0.664773
vt 0.661017 0.664773
vt 0.658192 0.602273
vt 0.661017 0.607955
vt 0.663842 0.681818
vt 0.666667 0.596591
vt 0.697740 0.590909
vt 0.694915 0.596591
vt 0.666667 0.607955
vt 0.694915 0.607955
vt 0.666667 0.664773
vt 0.629943 0.761364
vt 0.601695 0.704545
vt 0.629943 0.704545
vt 0.666667 0.676136
vt 0.694915 0.664773
vt 0.694915 0.676136
vt 0.697740 0.568182
vt 0.663842 0.590909
vt 0.663842 0.568182
vt 0.646893 0.602273
vt 0.658192 0.670455
vt 0.646893 0.670455
vt 0.663842 0.704545
vt 0.697740 0.681818
vt 0.697740 0.704545
vt 0.714689 0.670455
vt 0.703390 0.602273
vt 0.714689 0.602273
vt 0.700565 0.607955
vt 0.703390 0.670455
vt 0.700565 0.664773
vt 0.661017 0.664773
vt 0.658192 0.602273
vt 0.661017 0.607955
vt 0.663842 0.681818
vt 0.666667 0.596591
vt 0.697740 0.590909
vt 0.694915 0.596591
vt 0.666667 0.607955
vt 0.694915 0.607955
vt 0.666667 0.664773
vt 0.629943 0.761364
vt 0.601695 0.704545
vt 0.629943 0.704545
vt 0.666667 0.676136
vt 0.694915 0.664773
vt 0.694915 0.676136
vt 0.697740 0.568182
vt 0.663842 0.590909
vt 0.663842 0.568182
vt 0.646893 0.602273
vt 0.658192 0.670455
vt 0.646893 0.670455
vt 0.663842 0.704545
vt 0.697740 0.681818
vt 0.697740 0.704545
vt 0.714689 0.670455
vt 0.703390 0.602273
vt 0.714689 0.602273
vt 0.700565 0.607955
vt 0.703390 0.670455
vt 0.700565 0.664773
vt 0.661017 0.664773
vt 0.658192 0.602273
vt 0.661017 0.607955
vt 0.663842 0.681818
vt 0.666667 0.596591
vt 0.697740 0.590909
vt 0.694915 0.596591
vt 0.666667 0.607955
vt 0.694915 0.607955
vt 0.666667 0.664773
vt 0.629943 0.761364
vt 0.601695 0.704545
vt 0.629943 0.704545
vt 0.666667 0.676136
vt 0.694915 0.664773
vt 0.694915 0.676136
vt 0.697740 0.568182
vt 0.663842 0.590909
vt 0.663842 0.568182
vt 0.646893 0.602273
vt 0.658192 0.670455
vt 0.646893 0.670455
vt 0.663842 0.704545
vt 0.697740 0.681818
vt 0.697740 0.704545
vt 0.714689 0.670455
vt 0.703390 0.602273
vt 0.714689 0.602273
vt 0.700565 0.607955
vt 0.703390 0.670455
vt 0.700565 0.664773
vt 0.661017 0.664773
vt 0.658192 0.602273
vt 0.661017 0.607955
vt 0.663842 0.681818
vt 0.666667 0.596591
vt 0.697740 0.590909
vt 0.694915 0.596591
vt 0.666667 0.607955
vt 0.694915 0.607955
vt 0.666667 0.664773
vt 0.629943 0.761364
vt 0.601695 0.704545
vt 0.629943 0.704545
vt 0.559322 0.920455
vt 0.502825 0.943182
vt 0.502825 0.920455
vt 0.587571 0.590909
vt 0.590395 0.750000
vt 0.587571 0.750000
vt 0.768362 0.454545
vt 0.858757 0.636364
vt 0.768362 0.636364
vt 0.723164 0.454545
vt 0.723164 0.636364
vt 0.903955 0.636364
vt 0.858757 0.454545
vt 0.903955 0.454545
vt 0.768362 0.727273
vt 0.858757 0.727273
vt 0.858757 0.363636
vt 0.768362 0.363636
vt 0.858757 -0.000000
vt 0.768362 0.090909
vt 0.768362 -0.000000
vt 0.768362 0.363636
vt 0.858757 0.272727
vt 0.858757 0.363636
vt 0.903955 0.272727
vt 0.858757 0.090909
vt 0.903955 0.090909
vt 0.723164 0.090909
vt 0.768362 0.272727
vt 0.723164 0.272727
vt 0.587571 0.590909
vt 0.590395 0.750000
vt 0.587571 0.750000
vt 0.570621 0.920455
vt 0.632768 0.909091
vt 0.627119 0.920455
vt 0.367232 0.920455
vt 0.423729 0.920455
vt 0.435028 0.920455
vt 0.491525 0.920455
vt 0.367232 0.943182
vt 0.435028 0.943182
vt 0.570621 0.943182
vt 0.728814 0.693182
vt 0.723164 0.670455
vt 0.728814 0.670455
vt 0.740113 0.647727
vt 0.751412 0.636364
vt 0.751412 0.647727
vt 0.762712 0.670455
vt 0.768362 0.693182
vt 0.762712 0.693182
vt 0.751412 0.715909
vt 0.762712 0.647727
vt 0.762712 0.727273
vt 0.751412 0.727273
vt 0.740113 0.727273
vt 0.728814 0.715909
vt 0.740113 0.715909
vt 0.728814 0.636364
vt 0.740113 0.636364
vt 0.418079 0.886364
vt 0.474576 0.772727
vt 0.474576 0.886364
vt 0.451977 0.681818
vt 0.384181 0.545455
vt 0.451977 0.545455
vt 0.474576 0.545455
vt 0.474576 0.681818
vt 0.384181 0.681818
vt 0.451977 0.727273
vt 0.384181 0.727273
vt 0.384181 0.500000
vt 0.451977 0.500000
vt 0.361582 0.681818
vt 0.361582 0.545455
vt 0.601695 0.750000
vt 0.590395 0.590909
vt 0.601695 0.590909
vt 0.519774 0.636364
vt 0.542373 0.818182
vt 0.519774 0.818182
vt 0.542373 0.568182
vt 0.519774 0.568182
vt 0.519774 0.886364
vt 0.542373 0.886364
vt 0.576271 0.818182
vt 0.542373 0.636364
vt 0.576271 0.636364
vt 0.485876 0.636364
vt 0.485876 0.818182
vt 0.576271 0.590909
vt 0.576271 0.750000
vt 0.590395 0.568182
vt 0.587571 0.568182
vt 0.587571 0.772727
vt 0.590395 0.772727
vt 0.601695 0.750000
vt 0.590395 0.590909
vt 0.601695 0.590909
vt 0.576271 0.590909
vt 0.576271 0.750000
vt 0.590395 0.568182
vt 0.587571 0.568182
vt 0.587571 0.772727
vt 0.590395 0.772727
vt 0.587571 0.590909
vt 0.590395 0.750000
vt 0.587571 0.750000
vt 0.601695 0.750000
vt 0.590395 0.590909
vt 0.601695 0.590909
vt 0.576271 0.590909
vt 0.576271 0.750000
vt 0.590395 0.568182
vt 0.587571 0.568182
vt 0.587571 0.772727
vt 0.590395 0.772727
vt 0.587571 0.590909
vt 0.590395 0.750000
vt 0.587571 0.750000
vt 0.601695 0.750000
vt 0.590395 0.590909
vt 0.601695 0.590909
vt 0.576271 0.590909
vt 0.576271 0.750000
vt 0.590395 0.568182
vt 0.587571 0.568182
vt 0.587571 0.772727
vt 0.590395 0.772727
vt 0.587571 0.590909
vt 0.590395 0.750000
vt 0.587571 0.750000
vt 0.601695 0.750000
vt 0.590395 0.590909
vt 0.601695 0.590909
vt 0.576271 0.590909
vt 0.576271 0.750000
vt 0.590395 0.568182
vt 0.587571 0.568182
vt 0.587571 0.772727
vt 0.590395 0.772727
vt 0.457627 0.738636
vt 0.389830 0.727273
vt 0.457627 0.727273
vt 0.384181 0.727273
vt 0.361582 0.738636
vt 0.361582 0.727273
vt 0.485876 0.738636
vt 0.463277 0.727273
vt 0.485876 0.727273
vt 0.463277 0.738636
vt 0.457627 0.727273
vt 0.389830 0.727273
vt 0.384181 0.738636
vt 0.389830 0.772727
vt 0.457627 0.761364
vt 0.457627 0.772727
vt 0.361582 0.761364
vt 0.384181 0.772727
vt 0.361582 0.772727
vt 0.463277 0.772727
vt 0.485876 0.761364
vt 0.485876 0.772727
vt 0.457627 0.772727
vt 0.463277 0.761364
vt 0.389830 0.772727
vt 0.384181 0.761364
vt 0.389830 0.727273
vt 0.384181 0.738636
vt 0.384181 0.727273
vt 0.463277 0.727273
vt 0.463277 0.738636
vt 0.457627 0.727273
vt 0.389830 0.761364
vt 0.389830 0.738636
vt 0.485876 0.738636
vt 0.485876 0.727273
vt 0.361582 0.738636
vt 0.361582 0.727273
vt 0.457627 0.738636
vt 0.389830 0.727273
vt 0.457627 0.727273
vt 0.389830 0.772727
vt 0.457627 0.761364
vt 0.457627 0.772727
vt 0.361582 0.761364
vt 0.384181 0.772727
vt 0.361582 0.772727
vt 0.463277 0.772727
vt 0.485876 0.761364
vt 0.485876 0.772727
vt 0.457627 0.772727
vt 0.463277 0.761364
vt 0.389830 0.772727
vt 0.384181 0.761364
vt 0.389830 0.761364
vt 0.389830 0.738636
vt 0.508475 0.181818
vt 0.508475 0.181818
vt 0.508475 0.181818
vt 0.508475 0.181818
vt 0.677966 0.568182
vt 0.508475 0.568182
vt 0.508475 -0.000000
vt 0.677966 0.568182
vt 0.677966 -0.000000
vt 0.926566 0.169597
vt 0.910031 0.136340
vt 0.903979 0.090909
vt 0.926566 0.012221
vt 0.988274 0.045478
vt 0.949153 0.000048
vt 0.971740 0.012221
vt 0.994327 0.090909
vt 0.971740 0.169597
vt 0.926566 0.169597
vt 0.910031 0.136340
vt 0.903979 0.090909
vt 0.910031 0.045479
vt 0.926566 0.012221
vt 0.949153 0.000048
vt 0.971740 0.012221
vt 0.994327 0.090909
vt 0.971740 0.169597
vt 0.601695 0.761364
vt 0.601695 0.761364
vt 0.601695 0.761364
vt 0.601695 0.761364
vt 0.559322 0.943182
vt 0.423729 0.943182
vt 0.491525 0.943182
vt 0.627119 0.943182
vt 0.723164 0.693182
vt 0.768362 0.670455
vt 0.762712 0.636364
vt 0.762712 0.715909
vt 0.728814 0.727273
vt 0.728814 0.647727
vt 0.418079 0.772727
vt 1.000000 0.454545
vt 0.994350 0.409091
vt 1.000000 0.409091
vt 1.000000 0.227273
vt 0.994350 0.181818
vt 1.000000 0.181818
vt 1.000000 0.318182
vt 0.994350 0.272727
vt 1.000000 0.272727
vt 1.000000 0.090909
vt 0.994350 0.045455
vt 1.000000 0.045455
vt 1.000000 0.500000
vt 0.994350 0.454545
vt 0.994350 0.227273
vt 1.000000 0.363636
vt 0.994350 0.318182
vt 1.000000 0.136364
vt 0.994350 0.090909
vt 1.000000 0.545455
vt 0.994350 0.500000
vt 0.994350 0.363636
vt 0.994350 0.136364
vt 0.994350 0.000000
vt 1.000000 0.000000
vt 1.000000 0.045455
vt 0.994350 0.000000
vt 1.000000 0.000000
vt 1.000000 0.136364
vt 0.994350 0.181818
vt 0.994350 0.136364
vt 1.000000 0.409091
vt 0.994350 0.363636
vt 1.000000 0.363636
vt 1.000000 0.545455
vt 0.994350 0.500000
vt 1.000000 0.500000
vt 0.994350 0.090909
vt 1.000000 0.090909
vt 0.994350 0.318182
vt 1.000000 0.318182
vt 1.000000 0.272727
vt 0.994350 0.227273
vt 1.000000 0.227273
vt 0.994350 0.454545
vt 1.000000 0.454545
vt 0.994350 0.045455
vt 0.994350 0.272727
vt 1.000000 0.181818
vt 0.994350 0.409091
vt 0.884181 0.823864
vt 0.892655 0.795455
vt 0.892655 0.829545
vt 0.909605 0.812500
vt 0.901130 0.795455
vt 0.909605 0.795455
vt 0.875706 0.812500
vt 0.867232 0.795455
vt 0.875706 0.795455
vt 0.884181 0.795455
vt 0.901130 0.823864
vt 0.918079 0.795455
vt 0.909605 0.778409
vt 0.918079 0.789773
vt 0.901130 0.767045
vt 0.875706 0.778409
vt 0.884181 0.767045
vt 0.901130 0.875000
vt 0.901130 0.869318
vt 0.909605 0.875000
vt 0.901130 0.880682
vt 0.918079 0.869318
vt 0.918079 0.875000
vt 0.918079 0.880682
vt 0.875706 0.875000
vt 0.867232 0.846591
vt 0.875706 0.840909
vt 0.892655 0.875000
vt 0.884181 0.846591
vt 0.892655 0.857955
vt 0.926554 0.857955
vt 0.926554 0.875000
vt 0.909605 0.943182
vt 0.918079 0.909091
vt 0.918079 0.943182
vt 0.892655 0.943182
vt 0.901130 0.909091
vt 0.901130 0.943182
vt 0.875706 0.943182
vt 0.884181 0.909091
vt 0.884181 0.943182
vt 0.646893 0.568182
vt 0.601695 0.585227
vt 0.601695 0.568182
vt 0.646893 0.670455
vt 0.601695 0.687500
vt 0.601695 0.670455
vt 0.646893 0.636364
vt 0.601695 0.653409
vt 0.601695 0.636364
vt 0.646893 0.619318
vt 0.601695 0.619318
vt 0.646893 0.585227
vt 0.601695 0.602273
vt 0.646893 0.687500
vt 0.601695 0.704545
vt 0.646893 0.653409
vt 0.646893 0.602273
vt 0.646893 0.568182
vt 0.601695 0.585227
vt 0.601695 0.568182
vt 0.646893 0.670455
vt 0.601695 0.687500
vt 0.601695 0.670455
vt 0.646893 0.636364
vt 0.601695 0.653409
vt 0.601695 0.636364
vt 0.646893 0.619318
vt 0.601695 0.619318
vt 0.646893 0.585227
vt 0.601695 0.602273
vt 0.646893 0.687500
vt 0.601695 0.704545
vt 0.646893 0.653409
vt 0.646893 0.602273
vt 0.646893 0.568182
vt 0.601695 0.585227
vt 0.601695 0.568182
vt 0.646893 0.670455
vt 0.601695 0.687500
vt 0.601695 0.670455
vt 0.646893 0.636364
vt 0.601695 0.653409
vt 0.601695 0.636364
vt 0.646893 0.619318
vt 0.601695 0.619318
vt 0.646893 0.585227
vt 0.601695 0.602273
vt 0.646893 0.687500
vt 0.601695 0.704545
vt 0.646893 0.653409
vt 0.646893 0.602273
vt 0.694915 0.909091
vt 0.694915 0.897727
vt 0.697740 0.897727
vt 0.692090 0.897727
vt 0.694915 0.818182
vt 0.697740 0.829545
vt 0.694915 0.829545
vt 0.692090 0.829545
vt 0.694915 0.840909
vt 0.706215 0.852273
vt 0.694915 0.852273
vt 0.694915 0.875000
vt 0.706215 0.863636
vt 0.706215 0.875000
vt 0.694915 0.886364
vt 0.700565 0.840909
vt 0.694915 0.863636
vt 0.700565 0.886364
vt 0.689266 0.840909
vt 0.683616 0.852273
vt 0.689266 0.886364
vt 0.683616 0.863636
vt 0.683616 0.875000
vt 0.632768 0.829545
vt 0.683616 0.840909
vt 0.632768 0.840909
vt 0.632768 0.852273
vt 0.632768 0.863636
vt 0.632768 0.875000
vt 0.683616 0.886364
vt 0.632768 0.886364
vt 0.632768 0.897727
vt 0.683616 0.909091
vt 0.632768 0.909091
vt 0.632768 0.818182
vt 0.683616 0.829545
vt 0.683616 0.897727
vt 0.632768 0.795455
vt 0.700565 0.806818
vt 0.632768 0.806818
vt 0.632768 0.772727
vt 0.700565 0.784091
vt 0.632768 0.784091
vt 0.632768 0.750000
vt 0.700565 0.761364
vt 0.632768 0.761364
vt 0.632768 0.727273
vt 0.700565 0.738636
vt 0.632768 0.738636
vt 0.700565 0.818182
vt 0.632768 0.818182
vt 0.700565 0.795455
vt 0.700565 0.772727
vt 0.700565 0.750000
vt 0.711864 0.784091
vt 0.706215 0.795455
vt 0.711864 0.806818
vt 0.709040 0.806818
vt 0.706215 0.750000
vt 0.711864 0.738636
vt 0.711864 0.750000
vt 0.711864 0.772727
vt 0.711864 0.795455
vt 0.711864 0.761364
vt 0.717514 0.795455
vt 0.723164 0.772727
vt 0.714689 0.738636
vt 0.717514 0.750000
vt 0.714689 0.806818
vt 0.723164 0.784091
vt 0.723164 0.761364
vt 0.709040 0.738636
vt 0.711864 0.727273
vt 0.711864 0.818182
vt 0.723164 0.750000
vt 0.742938 0.761364
vt 0.742938 0.784091
vt 0.723164 0.727273
vt 0.742938 0.738636
vt 0.723164 0.738636
vt 0.723164 0.806818
vt 0.742938 0.818182
vt 0.723164 0.818182
vt 0.723164 0.795455
vt 0.742938 0.806818
vt 0.742938 0.750000
vt 0.742938 0.772727
vt 0.742938 0.795455
vt 0.858757 0.943182
vt 0.867232 0.909091
vt 0.867232 0.943182
vt 0.926554 0.909091
vt 0.926554 0.943182
vt 0.909605 0.909091
vt 0.892655 0.909091
vt 0.875706 0.909091
vt 0.892655 0.892045
vt 0.867232 0.903409
vt 0.884181 0.875000
vt 0.926554 0.892045
vt 0.858757 0.892045
vt 0.867232 0.875000
vt 0.884181 0.903409
vt 0.858757 0.875000
vt 0.926554 0.647727
vt 0.935028 0.619318
vt 0.935028 0.647727
vt 0.943503 0.647727
vt 0.951977 0.619318
vt 0.951977 0.647727
vt 0.968927 0.647727
vt 0.960452 0.630682
vt 0.968927 0.642045
vt 0.951977 0.676136
vt 0.926554 0.664773
vt 0.935028 0.676136
vt 0.985876 0.653409
vt 0.994350 0.647727
vt 0.994350 0.664773
vt 0.960452 0.664773
vt 0.960452 0.647727
vt 0.943503 0.681818
vt 0.968927 0.653409
vt 0.935028 0.715909
vt 0.943503 0.715909
vt 0.951977 0.715909
vt 0.960452 0.681818
vt 0.960452 0.715909
vt 0.968927 0.715909
vt 0.977401 0.681818
vt 0.977401 0.715909
vt 0.985876 0.715909
vt 0.994350 0.681818
vt 0.994350 0.715909
vt 0.926554 0.715909
vt 0.935028 0.681818
vt 0.951977 0.681818
vt 0.968927 0.681818
vt 0.985876 0.681818
vt 0.985876 0.647727
vt 0.994350 0.630682
vt 0.943503 0.613636
vt 0.977401 0.647727
vt 0.985876 0.642045
vt 0.943503 0.409091
vt 0.951977 0.380682
vt 0.951977 0.409091
vt 0.960452 0.409091
vt 0.968927 0.380682
vt 0.968927 0.409091
vt 0.985876 0.409091
vt 0.977401 0.392045
vt 0.985876 0.403409
vt 0.960452 0.443182
vt 0.968927 0.437500
vt 0.951977 0.437500
vt 0.943503 0.426136
vt 0.935028 0.409091
vt 0.977401 0.409091
vt 0.977401 0.426136
vt 0.985876 0.414773
vt 0.935028 0.613636
vt 0.943503 0.443182
vt 0.926554 0.613636
vt 0.935028 0.443182
vt 0.985876 0.613636
vt 0.994350 0.443182
vt 0.994350 0.613636
vt 0.977401 0.613636
vt 0.985876 0.443182
vt 0.968927 0.613636
vt 0.977401 0.443182
vt 0.960452 0.613636
vt 0.968927 0.443182
vt 0.951977 0.613636
vt 0.951977 0.443182
vt 0.943503 0.392045
vt 0.960452 0.375000
vt 0.935028 0.414773
vt 0.926554 0.409091
vt 0.935028 0.403409
vt 0.994350 0.409091
vt 0.951977 0.375000
vt 0.960452 0.181818
vt 0.968927 0.375000
vt 0.977401 0.181818
vt 0.977401 0.375000
vt 0.935028 0.375000
vt 0.943503 0.181818
vt 0.943503 0.375000
vt 0.985876 0.375000
vt 0.994350 0.181818
vt 0.994350 0.375000
vt 0.926554 0.375000
vt 0.935028 0.181818
vt 0.951977 0.181818
vt 0.968927 0.181818
vt 0.985876 0.181818
vt 0.918079 0.801136
vt 0.867232 0.840909
vt 0.875706 0.829545
vt 0.858757 0.840909
vt 0.867232 0.829545
vt 0.926554 0.840909
vt 0.918079 0.829545
vt 0.926554 0.829545
vt 0.909605 0.840909
vt 0.918079 0.840909
vt 0.901130 0.840909
vt 0.909605 0.829545
vt 0.892655 0.840909
vt 0.901130 0.829545
vt 0.884181 0.840909
vt 0.884181 0.829545
vt 0.892655 0.761364
vt 0.867232 0.801136
vt 0.858757 0.795455
vt 0.867232 0.789773
vt 0.926554 0.795455
vt 0.884181 0.761364
vt 0.892655 0.636364
vt 0.901130 0.761364
vt 0.909605 0.636364
vt 0.909605 0.761364
vt 0.867232 0.761364
vt 0.875706 0.636364
vt 0.875706 0.761364
vt 0.918079 0.761364
vt 0.926554 0.636364
vt 0.926554 0.761364
vt 0.858757 0.761364
vt 0.867232 0.636364
vt 0.884181 0.636364
vt 0.901130 0.636364
vt 0.918079 0.636364
vt 0.694915 0.909091
vt 0.694915 0.897727
vt 0.697740 0.897727
vt 0.692090 0.897727
vt 0.694915 0.818182
vt 0.697740 0.829545
vt 0.694915 0.829545
vt 0.692090 0.829545
vt 0.694915 0.840909
vt 0.706215 0.852273
vt 0.694915 0.852273
vt 0.694915 0.875000
vt 0.706215 0.863636
vt 0.706215 0.875000
vt 0.694915 0.886364
vt 0.700565 0.840909
vt 0.694915 0.863636
vt 0.700565 0.886364
vt 0.689266 0.840909
vt 0.683616 0.852273
vt 0.689266 0.886364
vt 0.683616 0.863636
vt 0.683616 0.875000
vt 0.632768 0.829545
vt 0.683616 0.840909
vt 0.632768 0.840909
vt 0.632768 0.852273
vt 0.632768 0.863636
vt 0.632768 0.875000
vt 0.683616 0.886364
vt 0.632768 0.886364
vt 0.632768 0.897727
vt 0.683616 0.909091
vt 0.632768 0.909091
vt 0.632768 0.818182
vt 0.683616 0.829545
vt 0.683616 0.897727
vt 0.632768 0.795455
vt 0.700565 0.806818
vt 0.632768 0.806818
vt 0.632768 0.772727
vt 0.700565 0.784091
vt 0.632768 0.784091
vt 0.632768 0.750000
vt 0.700565 0.761364
vt 0.632768 0.761364
vt 0.632768 0.727273
vt 0.700565 0.738636
vt 0.632768 0.738636
vt 0.700565 0.818182
vt 0.632768 0.818182
vt 0.700565 0.795455
vt 0.700565 0.772727
vt 0.700565 0.750000
vt 0.711864 0.784091
vt 0.706215 0.795455
vt 0.711864 0.806818
vt 0.709040 0.806818
vt 0.706215 0.750000
vt 0.711864 0.738636
vt 0.711864 0.750000
vt 0.711864 0.772727
vt 0.711864 0.795455
vt 0.711864 0.761364
vt 0.717514 0.795455
vt 0.723164 0.761364
vt 0.723164 0.772727
vt 0.717514 0.750000
vt 0.714689 0.806818
vt 0.723164 0.784091
vt 0.709040 0.738636
vt 0.711864 0.727273
vt 0.714689 0.738636
vt 0.711864 0.818182
vt 0.723164 0.750000
vt 0.742938 0.761364
vt 0.742938 0.784091
vt 0.723164 0.727273
vt 0.742938 0.738636
vt 0.723164 0.738636
vt 0.723164 0.806818
vt 0.742938 0.818182
vt 0.723164 0.818182
vt 0.723164 0.795455
vt 0.742938 0.806818
vt 0.742938 0.750000
vt 0.742938 0.772727
vt 0.742938 0.795455
vt 0.694915 0.909091
vt 0.697740 0.897727
vt 0.694915 0.897727
vt 0.692090 0.897727
vt 0.694915 0.818182
vt 0.694915 0.829545
vt 0.697740 0.829545
vt 0.692090 0.829545
vt 0.706215 0.852273
vt 0.694915 0.840909
vt 0.694915 0.852273
vt 0.694915 0.875000
vt 0.706215 0.863636
vt 0.694915 0.863636
vt 0.700565 0.886364
vt 0.694915 0.886364
vt 0.700565 0.840909
vt 0.706215 0.875000
vt 0.689266 0.840909
vt 0.683616 0.852273
vt 0.689266 0.886364
vt 0.683616 0.875000
vt 0.683616 0.863636
vt 0.683616 0.840909
vt 0.632768 0.829545
vt 0.632768 0.840909
vt 0.632768 0.852273
vt 0.632768 0.863636
vt 0.683616 0.886364
vt 0.632768 0.875000
vt 0.632768 0.886364
vt 0.683616 0.909091
vt 0.632768 0.897727
vt 0.632768 0.909091
vt 0.683616 0.829545
vt 0.632768 0.818182
vt 0.683616 0.897727
vt 0.700565 0.806818
vt 0.632768 0.795455
vt 0.632768 0.806818
vt 0.700565 0.784091
vt 0.632768 0.772727
vt 0.632768 0.784091
vt 0.700565 0.761364
vt 0.632768 0.750000
vt 0.632768 0.761364
vt 0.700565 0.738636
vt 0.632768 0.727273
vt 0.632768 0.738636
vt 0.700565 0.818182
vt 0.632768 0.818182
vt 0.700565 0.795455
vt 0.700565 0.772727
vt 0.700565 0.750000
vt 0.711864 0.784091
vt 0.711864 0.806818
vt 0.706215 0.795455
vt 0.709040 0.806818
vt 0.706215 0.750000
vt 0.711864 0.738636
vt 0.709040 0.738636
vt 0.711864 0.772727
vt 0.711864 0.795455
vt 0.711864 0.750000
vt 0.717514 0.795455
vt 0.723164 0.772727
vt 0.711864 0.761364
vt 0.717514 0.750000
vt 0.723164 0.761364
vt 0.711864 0.727273
vt 0.714689 0.738636
vt 0.711864 0.818182
vt 0.714689 0.806818
vt 0.742938 0.761364
vt 0.723164 0.750000
vt 0.742938 0.784091
vt 0.723164 0.784091
vt 0.742938 0.738636
vt 0.723164 0.727273
vt 0.723164 0.738636
vt 0.742938 0.818182
vt 0.723164 0.806818
vt 0.723164 0.818182
vt 0.742938 0.806818
vt 0.723164 0.795455
vt 0.742938 0.750000
vt 0.742938 0.772727
vt 0.742938 0.795455
vt 0.694915 0.909091
vt 0.697740 0.897727
vt 0.694915 0.897727
vt 0.692090 0.897727
vt 0.694915 0.818182
vt 0.694915 0.829545
vt 0.697740 0.829545
vt 0.692090 0.829545
vt 0.706215 0.852273
vt 0.694915 0.840909
vt 0.694915 0.852273
vt 0.694915 0.875000
vt 0.706215 0.863636
vt 0.694915 0.863636
vt 0.700565 0.886364
vt 0.694915 0.886364
vt 0.700565 0.840909
vt 0.706215 0.875000
vt 0.689266 0.840909
vt 0.683616 0.852273
vt 0.689266 0.886364
vt 0.683616 0.875000
vt 0.683616 0.863636
vt 0.683616 0.840909
vt 0.632768 0.829545
vt 0.632768 0.840909
vt 0.632768 0.852273
vt 0.632768 0.863636
vt 0.683616 0.886364
vt 0.632768 0.875000
vt 0.632768 0.886364
vt 0.683616 0.909091
vt 0.632768 0.897727
vt 0.632768 0.909091
vt 0.683616 0.829545
vt 0.632768 0.818182
vt 0.683616 0.897727
vt 0.700565 0.806818
vt 0.632768 0.795455
vt 0.632768 0.806818
vt 0.700565 0.784091
vt 0.632768 0.772727
vt 0.632768 0.784091
vt 0.700565 0.761364
vt 0.632768 0.750000
vt 0.632768 0.761364
vt 0.700565 0.738636
vt 0.632768 0.727273
vt 0.632768 0.738636
vt 0.700565 0.818182
vt 0.632768 0.818182
vt 0.700565 0.795455
vt 0.700565 0.772727
vt 0.700565 0.750000
vt 0.711864 0.784091
vt 0.711864 0.806818
vt 0.706215 0.795455
vt 0.709040 0.806818
vt 0.706215 0.750000
vt 0.711864 0.738636
vt 0.709040 0.738636
vt 0.711864 0.772727
vt 0.711864 0.795455
vt 0.711864 0.750000
vt 0.717514 0.795455
vt 0.723164 0.772727
vt 0.711864 0.761364
vt 0.717514 0.750000
vt 0.723164 0.761364
vt 0.711864 0.727273
vt 0.714689 0.738636
vt 0.711864 0.818182
vt 0.714689 0.806818
vt 0.742938 0.761364
vt 0.723164 0.750000
vt 0.742938 0.784091
vt 0.723164 0.784091
vt 0.742938 0.738636
vt 0.723164 0.727273
vt 0.723164 0.738636
vt 0.742938 0.818182
vt 0.723164 0.806818
vt 0.723164 0.818182
vt 0.742938 0.806818
vt 0.723164 0.795455
vt 0.742938 0.750000
vt 0.742938 0.772727
vt 0.742938 0.795455
vt 0.994350 0.545455
vt 0.994350 0.545455
vt 0.646893 0.704545
vt 0.646893 0.704545
vt 0.646893 0.704545
vt 0.683616 0.818182
vt 0.700565 0.727273
vt 0.742938 0.727273
vt 0.858757 0.909091
vt 0.858757 0.857955
vt 0.926554 0.630682
vt 0.926554 0.681818
vt 0.926554 0.443182
vt 0.926554 0.181818
vt 0.858757 0.829545
vt 0.858757 0.636364
vt 0.683616 0.818182
vt 0.700565 0.727273
vt 0.742938 0.727273
vt 0.683616 0.818182
vt 0.700565 0.727273
vt 0.742938 0.727273
vt 0.683616 0.818182
vt 0.700565 0.727273
vt 0.742938 0.727273
vn 0.0000 -1.0000 0.0000
vn 0.0000 1.0000 0.0000
vn 0.0000 0.0000 -1.0000
vn 0.0000 0.0000 1.0000
vn 1.0000 0.0000 0.0000
vn -1.0000 0.0000 0.0000
vn -0.5547 0.8321 0.0000
vn 0.5547 0.8321 0.0000
vn 0.7071 0.0000 -0.7071
vn -0.7071 0.0000 -0.7071
vn -0.7071 0.0000 0.7071
vn 0.7071 0.0000 0.7071
vn 0.0000 0.7071 -0.7071
vn 0.0000 0.7071 0.7071
vn -0.8660 -0.5000 0.0000
vn 0.5000 0.8660 0.0000
vn 0.8660 0.5000 0.0000
vn -0.5000 0.8660 0.0000
vn 0.8660 -0.5000 0.0000
vn 0.5000 -0.8660 0.0000
vn -0.5000 -0.8660 0.0000
vn -0.8660 0.5000 0.0000
vn 0.7194 0.6794 0.1448
vn 0.9824 -0.0000 0.1866
vn 0.0473 -0.9987 0.0196
vn 0.5294 -0.6630 0.5294
vn 0.0671 -0.9955 0.0671
vn 0.0473 0.9987 0.0196
vn -0.4617 0.7574 -0.4617
vn 0.0671 0.9955 0.0671
vn 0.5294 0.6630 0.5294
vn 0.7194 -0.6794 0.1448
vn -0.4617 -0.7574 -0.4617
vn 0.0196 -0.9987 0.0473
vn -0.1363 -0.7263 -0.6737
vn 0.1448 -0.6794 0.7194
vn 0.0196 0.9987 0.0473
vn 0.1448 0.6794 0.7194
vn 0.7574 -0.4617 0.4617
vn 0.7263 -0.6737 0.1363
vn -0.0000 -0.7071 0.7071
vn 0.7263 -0.1363 0.6737
vn -0.7263 -0.6737 0.1363
vn -0.7574 -0.4617 0.4617
vn -0.7263 -0.1363 0.6737
vn -0.6794 0.7194 -0.1448
vn 0.0000 0.9824 -0.1866
vn 0.9955 0.0671 -0.0671
vn 0.6794 0.7194 -0.1448
vn 0.9987 0.0473 -0.0196
vn -0.9987 0.0473 -0.0196
vn -0.9955 0.0671 -0.0671
vn 0.6794 0.1448 -0.7194
vn 0.7071 -0.7071 0.0000
vn -0.7071 -0.7071 0.0000
vn -0.7071 0.7071 0.0000
vn 0.7071 0.7071 0.0000
vn -0.1944 0.0000 -0.9809
vn -0.6303 0.7311 -0.2611
vn -0.1363 0.7263 -0.6737
vn -0.6303 -0.7311 -0.2611
vn 0.7150 -0.6333 0.2962
vn 0.9239 0.0000 0.3827
vn 0.7150 0.6333 0.2962
vn 0.0948 -0.9947 0.0393
vn 0.0948 0.9947 0.0393
vn 0.1866 -0.0000 0.9824
vn 0.0000 -0.7071 -0.7071
vn -0.6737 -0.7263 -0.1363
vn -0.6737 0.7263 -0.1363
vn -0.6794 0.1448 -0.7194
vn -0.9987 0.0196 -0.0473
vn 0.9987 0.0196 -0.0473
vn 0.0000 0.1866 -0.9824
vn 0.6630 0.5294 -0.5294
vn -0.6630 0.5294 -0.5294
vn -0.1944 0.0000 0.9809
vn -0.6303 0.7311 0.2611
vn -0.4617 0.7574 0.4617
vn -0.1363 0.7263 0.6737
vn -0.4617 -0.7574 0.4617
vn -0.6303 -0.7311 0.2611
vn -0.1363 -0.7263 0.6737
vn 0.7150 -0.6333 -0.2962
vn 0.0671 -0.9955 -0.0671
vn 0.5294 -0.6630 -0.5294
vn 0.5294 0.6630 -0.5294
vn 0.9239 0.0000 -0.3827
vn 0.0948 0.9947 -0.0393
vn 0.0671 0.9955 -0.0671
vn 0.0948 -0.9947 -0.0393
vn 0.7150 0.6333 -0.2962
vn 0.0196 -0.9987 -0.0473
vn 0.1448 -0.6794 -0.7194
vn 0.0196 0.9987 -0.0473
vn 0.1448 0.6794 -0.7194
vn 0.1866 -0.0000 -0.9824
vn 0.0473 0.9987 -0.0196
vn 0.9824 -0.0000 -0.1866
vn 0.0473 -0.9987 -0.0196
vn 0.7194 -0.6794 -0.1448
vn -0.6737 -0.7263 0.1363
vn -0.6737 0.7263 0.1363
vn 0.7194 0.6794 -0.1448
