mtllib radar_large.mtl
# Blender v2.79 (sub 0) OBJ File: 'radar_large.blend'
# www.blender.org
usemtl hbm
v -0.218750 5.500000 0.500000
v 0.218750 5.500000 0.500000
v -0.218750 5.500000 -0.500000
v 0.218750 5.500000 -0.500000
v 0.500000 5.500000 0.218750
v 0.500000 5.500000 -0.218750
v -0.500000 5.500000 0.218750
v -0.500000 5.500000 -0.218750
v -0.218750 7.000000 0.500000
v 0.218750 7.000000 0.500000
v -0.218750 7.000000 -0.500000
v 0.218750 7.000000 -0.500000
v 0.500000 7.000000 0.218750
v 0.500000 7.000000 -0.218750
v -0.500000 7.000000 0.218750
v -0.500000 7.000000 -0.218750
v -0.500000 7.000000 0.500000
v -0.500000 6.500000 0.500000
v -0.500000 7.000000 -0.500000
v -0.500000 6.500000 -0.500000
v -1.000000 7.000000 -0.500000
v -1.000000 7.000000 0.500000
v -1.000000 6.500000 0.500000
v -1.000000 6.500000 -0.500000
v -0.125000 7.375000 2.500000
v -0.125000 7.125000 2.500000
v -0.375000 7.375000 2.500000
v -0.375000 7.125000 2.500000
v 1.000000 7.000000 0.500000
v 1.000000 6.500000 0.500000
v 1.000000 7.000000 -0.500000
v 1.000000 6.500000 -0.500000
v 0.500000 7.000000 -0.500000
v 0.500000 7.000000 0.500000
v 0.500000 6.500000 0.500000
v 0.500000 6.500000 -0.500000
v 0.375000 7.375000 2.500000
v 0.375000 7.125000 2.500000
v 0.125000 7.375000 2.500000
v 0.125000 7.125000 2.500000
v -1.000000 7.250000 2.500000
v 1.000000 7.250000 2.500000
v -1.000000 7.000000 2.500000
v 1.000000 7.000000 2.500000
v -1.000000 7.000000 2.625000
v -1.000000 7.250000 2.625000
v 1.000000 7.250000 2.625000
v 1.000000 7.000000 2.625000
v -0.250000 7.125000 2.375000
v 0.250000 7.125000 2.375000
v -0.250000 7.375000 2.375000
v 0.250000 7.375000 2.375000
v -0.250000 7.375000 2.125000
v -0.250000 7.125000 2.125000
v 0.250000 7.125000 2.125000
v 0.250000 7.375000 2.125000
v -1.000000 7.500000 -1.500000
v 1.000000 7.500000 -1.500000
v -1.000000 9.500000 -1.500000
v 1.000000 9.500000 -1.500000
v -2.000000 7.500000 -1.250000
v 2.000000 7.500000 -1.250000
v -2.000000 9.500000 -1.250000
v 2.000000 9.500000 -1.250000
v -3.000000 7.500000 -0.500000
v 3.000000 7.500000 -0.500000
v -3.000000 9.500000 -0.500000
v 3.000000 9.500000 -0.500000
v -1.000000 7.000000 -1.250000
v 1.000000 7.000000 -1.250000
v -1.000000 10.000000 -1.250000
v 1.000000 10.000000 -1.250000
v -2.000000 7.000000 -1.000000
v 2.000000 7.000000 -1.000000
v -2.000000 10.000000 -1.000000
v 2.000000 10.000000 -1.000000
v -1.031250 7.500000 -1.468750
v -0.968750 7.500000 -1.468750
v -1.031250 7.500000 -1.531250
v -0.968750 7.500000 -1.531250
v -1.031250 9.500000 -1.468750
v -0.968750 9.500000 -1.468750
v -1.031250 9.500000 -1.531250
v -0.968750 9.500000 -1.531250
v -1.031250 10.000000 -1.281250
v -1.031250 10.000000 -1.218750
v -0.968750 10.000000 -1.218750
v -0.968750 10.000000 -1.281250
v -1.031250 7.000000 -1.281250
v -1.031250 7.000000 -1.218750
v -0.968750 7.000000 -1.218750
v -0.968750 7.000000 -1.281250
v -0.031250 7.500000 -1.468750
v 0.031250 7.500000 -1.468750
v -0.031250 7.500000 -1.531250
v 0.031250 7.500000 -1.531250
v -0.031250 9.500000 -1.468750
v 0.031250 9.500000 -1.468750
v -0.031250 9.500000 -1.531250
v 0.031250 9.500000 -1.531250
v -0.031250 10.000000 -1.281250
v -0.031250 10.000000 -1.218750
v 0.031250 10.000000 -1.218750
v 0.031250 10.000000 -1.281250
v -0.031250 7.000000 -1.281250
v -0.031250 7.000000 -1.218750
v 0.031250 7.000000 -1.218750
v 0.031250 7.000000 -1.281250
v 0.968750 7.500000 -1.468750
v 1.031250 7.500000 -1.468750
v 0.968750 7.500000 -1.531250
v 1.031250 7.500000 -1.531250
v 0.968750 9.500000 -1.468750
v 1.031250 9.500000 -1.468750
v 0.968750 9.500000 -1.531250
v 1.031250 9.500000 -1.531250
v 0.968750 10.000000 -1.281250
v 0.968750 10.000000 -1.218750
v 1.031250 10.000000 -1.218750
v 1.031250 10.000000 -1.281250
v 0.968750 7.000000 -1.281250
v 0.968750 7.000000 -1.218750
v 1.031250 7.000000 -1.218750
v 1.031250 7.000000 -1.281250
v -2.031250 7.500000 -1.218750
v -1.968750 7.500000 -1.218750
v -2.031250 7.500000 -1.281250
v -1.968750 7.500000 -1.281250
v -2.031250 9.500000 -1.218750
v -1.968750 9.500000 -1.218750
v -2.031250 9.500000 -1.281250
v -1.968750 9.500000 -1.281250
v -2.031250 10.000000 -1.031250
v -2.031250 10.000000 -0.968750
v -1.968750 10.000000 -0.968750
v -1.968750 10.000000 -1.031250
v -2.031250 7.000000 -1.031250
v -2.031250 7.000000 -0.968750
v -1.968750 7.000000 -0.968750
v -1.968750 7.000000 -1.031250
v 1.968750 7.500000 -1.218750
v 2.031250 7.500000 -1.218750
v 1.968750 7.500000 -1.281250
v 2.031250 7.500000 -1.281250
v 1.968750 9.500000 -1.218750
v 2.031250 9.500000 -1.218750
v 1.968750 9.500000 -1.281250
v 2.031250 9.500000 -1.281250
v 1.968750 10.000000 -1.031250
v 1.968750 10.000000 -0.968750
v 2.031250 10.000000 -0.968750
v 2.031250 10.000000 -1.031250
v 1.968750 7.000000 -1.031250
v 1.968750 7.000000 -0.968750
v 2.031250 7.000000 -0.968750
v 2.031250 7.000000 -1.031250
v -3.031250 7.500000 -0.468750
v -2.968750 7.500000 -0.468750
v -3.031250 7.500000 -0.531250
v -2.968750 7.500000 -0.531250
v -3.031250 9.500000 -0.468750
v -2.968750 9.500000 -0.468750
v -3.031250 9.500000 -0.531250
v -2.968750 9.500000 -0.531250
v 2.968750 7.500000 -0.468750
v 3.031250 7.500000 -0.468750
v 2.968750 7.500000 -0.531250
v 3.031250 7.500000 -0.531250
v 2.968750 9.500000 -0.468750
v 3.031250 9.500000 -0.468750
v 2.968750 9.500000 -0.531250
v 3.031250 9.500000 -0.531250
v -0.625000 6.750000 -1.750000
v -0.625000 7.000000 -1.750000
v -0.875000 6.750000 -1.750000
v -0.875000 7.000000 -1.750000
v 0.875000 6.750000 -1.750000
v 0.875000 7.000000 -1.750000
v 0.625000 6.750000 -1.750000
v 0.625000 7.000000 -1.750000
v -1.000000 8.531250 -2.218750
v -1.000000 8.468750 -2.218750
v -1.000000 8.531250 -2.281250
v -1.000000 8.468750 -2.281250
v 1.000000 8.531250 -2.218750
v 1.000000 8.468750 -2.218750
v 1.000000 8.531250 -2.281250
v 1.000000 8.468750 -2.281250
v -2.000000 8.531250 -2.031250
v -2.000000 8.531250 -1.968750
v -2.000000 8.468750 -1.968750
v -2.000000 8.468750 -2.031250
v 2.000000 8.531250 -2.031250
v 2.000000 8.531250 -1.968750
v 2.000000 8.468750 -1.968750
v 2.000000 8.468750 -2.031250
v 3.000000 8.531250 -1.281250
v 3.000000 8.531250 -1.218750
v 3.000000 8.468750 -1.218750
v 3.000000 8.468750 -1.281250
v -3.000000 8.531250 -1.281250
v -3.000000 8.531250 -1.218750
v -3.000000 8.468750 -1.218750
v -3.000000 8.468750 -1.281250
v -3.000000 8.531250 -1.218750
v -3.000000 8.468750 -1.218750
v -3.000000 9.500000 -0.531250
v -3.000000 9.437500 -0.531250
v -3.000000 8.531250 -1.218750
v -3.000000 8.468750 -1.218750
v -3.000000 7.562500 -0.531250
v -3.000000 7.500000 -0.531250
v -2.000000 8.531250 -1.968750
v -2.000000 8.468750 -1.968750
v -2.000000 9.500000 -1.281250
v -2.000000 9.437500 -1.281250
v -2.000000 8.531250 -1.968750
v -2.000000 8.468750 -1.968750
v -2.000000 7.562500 -1.281250
v -2.000000 7.500000 -1.281250
v -1.000000 8.531250 -2.218750
v -1.000000 8.468750 -2.218750
v -1.000000 9.500000 -1.531250
v -1.000000 9.437500 -1.531250
v -1.000000 8.531250 -2.218750
v -1.000000 8.468750 -2.218750
v -1.000000 7.562500 -1.531250
v -1.000000 7.500000 -1.531250
v 0.000000 8.531250 -2.218750
v 0.000000 8.468750 -2.218750
v 0.000000 9.500000 -1.531250
v 0.000000 9.437500 -1.531250
v 0.000000 8.531250 -2.218750
v 0.000000 8.468750 -2.218750
v 0.000000 7.562500 -1.531250
v 0.000000 7.500000 -1.531250
v 1.000000 8.531250 -2.218750
v 1.000000 8.468750 -2.218750
v 1.000000 9.500000 -1.531250
v 1.000000 9.437500 -1.531250
v 1.000000 8.531250 -2.218750
v 1.000000 8.468750 -2.218750
v 1.000000 7.562500 -1.531250
v 1.000000 7.500000 -1.531250
v 2.000000 8.531250 -1.968750
v 2.000000 8.468750 -1.968750
v 2.000000 9.500000 -1.281250
v 2.000000 9.437500 -1.281250
v 2.000000 8.531250 -1.968750
v 2.000000 8.468750 -1.968750
v 2.000000 7.562500 -1.281250
v 2.000000 7.500000 -1.281250
v 3.000000 8.531250 -1.218750
v 3.000000 8.468750 -1.218750
v 3.000000 9.500000 -0.531250
v 3.000000 9.437500 -0.531250
v 3.000000 8.531250 -1.218750
v 3.000000 8.468750 -1.218750
v 3.000000 7.562500 -0.531250
v 3.000000 7.500000 -0.531250
v 0.816250 7.000000 -1.687500
v 0.878750 7.000000 -1.687500
v 0.816250 7.000000 -1.750000
v 0.878750 7.000000 -1.750000
v 0.816250 8.500000 -2.218750
v 0.878750 8.500000 -2.218750
v 0.816250 8.500000 -2.281250
v 0.878750 8.500000 -2.281250
v -0.683750 7.000000 -1.687500
v -0.621250 7.000000 -1.687500
v -0.683750 7.000000 -1.750000
v -0.621250 7.000000 -1.750000
v -0.683750 8.500000 -2.218750
v -0.621250 8.500000 -2.218750
v -0.683750 8.500000 -2.281250
v -0.621250 8.500000 -2.281250
v 0.628750 7.000000 -1.687500
v 0.691250 7.000000 -1.687500
v 0.628750 7.000000 -1.750000
v 0.691250 7.000000 -1.750000
v 0.628750 8.500000 -2.218750
v 0.691250 8.500000 -2.218750
v 0.628750 8.500000 -2.281250
v 0.691250 8.500000 -2.281250
v -0.871250 7.000000 -1.687500
v -0.808750 7.000000 -1.687500
v -0.871250 7.000000 -1.750000
v -0.808750 7.000000 -1.750000
v -0.871250 8.500000 -2.218750
v -0.808750 8.500000 -2.218750
v -0.871250 8.500000 -2.281250
v -0.808750 8.500000 -2.281250
v -0.125000 7.249850 2.450611
v 0.125000 7.249850 2.450611
v -0.125000 7.491331 2.515315
v 0.125000 7.491331 2.515315
v -0.125000 7.991632 1.614094
v -0.125000 7.267187 1.419980
v 0.125000 7.267187 1.419980
v 0.125000 7.991632 1.614094
v -0.218750 7.375000 2.312500
v 0.218750 7.375000 2.312500
v -0.218750 7.375000 2.187500
v 0.218750 7.375000 2.187500
v 0.218750 7.562500 2.312500
v -0.218750 7.562500 2.312500
v 0.218750 7.562500 2.187500
v -0.218750 7.562500 2.187500
v -1.000000 7.500000 -1.500000
v 1.000000 7.500000 -1.500000
v -1.000000 9.500000 -1.500000
v 1.000000 9.500000 -1.500000
v -2.000000 7.500000 -1.250000
v 2.000000 7.500000 -1.250000
v -2.000000 9.500000 -1.250000
v 2.000000 9.500000 -1.250000
v -3.000000 7.500000 -0.500000
v 3.000000 7.500000 -0.500000
v -3.000000 9.500000 -0.500000
v 3.000000 9.500000 -0.500000
v -1.000000 7.000000 -1.250000
v 1.000000 7.000000 -1.250000
v -1.000000 10.000000 -1.250000
v 1.000000 10.000000 -1.250000
v -2.000000 7.000000 -1.000000
v 2.000000 7.000000 -1.000000
v -2.000000 10.000000 -1.000000
v 2.000000 10.000000 -1.000000
v -3.000000 8.531250 -1.218750
v -3.000000 8.468750 -1.218750
v -3.000000 9.500000 -0.531250
v -3.000000 9.437500 -0.531250
v -3.000000 8.531250 -1.218750
v -3.000000 8.468750 -1.218750
v -3.000000 7.562500 -0.531250
v -3.000000 7.500000 -0.531250
v -2.000000 8.531250 -1.968750
v -2.000000 8.468750 -1.968750
v -2.000000 9.500000 -1.281250
v -2.000000 9.437500 -1.281250
v -2.000000 8.531250 -1.968750
v -2.000000 8.468750 -1.968750
v -2.000000 7.562500 -1.281250
v -2.000000 7.500000 -1.281250
v -1.000000 8.531250 -2.218750
v -1.000000 8.468750 -2.218750
v -1.000000 9.500000 -1.531250
v -1.000000 9.437500 -1.531250
v -1.000000 8.531250 -2.218750
v -1.000000 8.468750 -2.218750
v -1.000000 7.562500 -1.531250
v -1.000000 7.500000 -1.531250
v 0.000000 8.531250 -2.218750
v 0.000000 8.468750 -2.218750
v 0.000000 9.500000 -1.531250
v 0.000000 9.437500 -1.531250
v 0.000000 8.531250 -2.218750
v 0.000000 8.468750 -2.218750
v 0.000000 7.562500 -1.531250
v 0.000000 7.500000 -1.531250
v 1.000000 8.531250 -2.218750
v 1.000000 8.468750 -2.218750
v 1.000000 9.500000 -1.531250
v 1.000000 9.437500 -1.531250
v 1.000000 8.531250 -2.218750
v 1.000000 8.468750 -2.218750
v 1.000000 7.562500 -1.531250
v 1.000000 7.500000 -1.531250
v 2.000000 8.531250 -1.968750
v 2.000000 8.468750 -1.968750
v 2.000000 9.500000 -1.281250
v 2.000000 9.437500 -1.281250
v 2.000000 8.531250 -1.968750
v 2.000000 8.468750 -1.968750
v 2.000000 7.562500 -1.281250
v 2.000000 7.500000 -1.281250
v 3.000000 8.531250 -1.218750
v 3.000000 8.468750 -1.218750
v 3.000000 9.500000 -0.531250
v 3.000000 9.437500 -0.531250
v 3.000000 8.531250 -1.218750
v 3.000000 8.468750 -1.218750
v 3.000000 7.562500 -0.531250
v 3.000000 7.500000 -0.531250
vt 0.708333 0.066667
vt 0.681818 0.266667
vt 0.681818 0.066667
vt 0.602273 0.066667
vt 0.575758 0.266667
vt 0.575758 0.066667
vt 0.734848 0.266667
vt 0.734848 0.066667
vt 0.628788 0.266667
vt 0.628788 0.066667
vt 0.761364 0.266667
vt 0.761364 0.066667
vt 0.655303 0.266667
vt 0.655303 0.066667
vt 0.787879 0.266667
vt 0.787879 0.066667
vt 0.592803 0.400000
vt 0.575758 0.304167
vt 0.619318 0.266667
vt 0.863636 0.333333
vt 0.893939 0.200000
vt 0.893939 0.333333
vt 0.924242 0.200000
vt 0.954545 0.333333
vt 0.924242 0.333333
vt 0.924242 0.200000
vt 0.946970 0.033333
vt 0.954545 0.200000
vt 0.984848 0.333333
vt 0.962121 0.600000
vt 0.954545 0.200000
vt 0.984848 0.200000
vt 0.901515 0.600000
vt 0.916667 0.633333
vt 0.901515 0.633333
vt 0.916667 0.600000
vt 0.946970 0.600000
vt 0.931818 0.600000
vt 0.871212 0.600000
vt 0.863636 0.333333
vt 0.893939 0.200000
vt 0.893939 0.333333
vt 0.954545 0.333333
vt 0.924242 0.333333
vt 0.946970 0.033333
vt 0.977273 0.600000
vt 0.962121 0.600000
vt 0.984848 0.333333
vt 0.984848 0.200000
vt 0.901515 0.600000
vt 0.916667 0.633333
vt 0.901515 0.633333
vt 0.946970 0.600000
vt 0.931818 0.600000
vt 0.871212 0.600000
vt 0.818182 0.016667
vt 0.833333 0.275000
vt 0.818182 0.275000
vt 0.795455 0.275000
vt 0.810606 0.016667
vt 0.810606 0.275000
vt 0.810606 -0.000000
vt 0.795455 0.016667
vt 0.795455 -0.000000
vt 0.795455 0.291667
vt 0.810606 0.291667
vt 0.787879 0.016667
vt 0.787879 0.275000
vt 0.772727 0.300000
vt 0.742424 0.333333
vt 0.742424 0.300000
vt 0.742424 0.366667
vt 0.772727 0.400000
vt 0.742424 0.400000
vt 0.772727 0.333333
vt 0.772727 0.266667
vt 0.787879 0.333333
vt 0.772727 0.366667
vt 0.727273 0.366667
vt 0.727273 0.333333
vt 0.727273 0.466667
vt 0.606061 0.733333
vt 0.606061 0.466667
vt 0.787879 0.733333
vt 0.727273 0.733333
vt 0.545455 0.466667
vt 0.787879 0.466667
vt 0.848485 0.733333
vt 0.545455 0.733333
vt 0.484848 0.466667
vt 0.606061 0.800000
vt 0.545455 0.800000
vt 0.727273 0.400000
vt 0.787879 0.400000
vt 0.606061 0.400000
vt 0.727273 0.800000
vt 0.484848 0.733333
vt 0.787879 0.800000
vt 0.545455 0.400000
vt 0.848485 0.466667
vt 0.859848 0.466667
vt 0.863636 0.400000
vt 0.863636 0.466667
vt 0.848485 0.733333
vt 0.852273 0.800000
vt 0.848485 0.800000
vt 0.859848 0.733333
vt 0.852273 0.466667
vt 0.848485 0.466667
vt 0.856061 0.733333
vt 0.856061 0.466667
vt 0.852273 0.733333
vt 0.852273 0.808333
vt 0.856061 0.800000
vt 0.856061 0.808333
vt 0.863636 0.733333
vt 0.859848 0.800000
vt 0.856061 0.400000
vt 0.852273 0.391667
vt 0.856061 0.391667
vt 0.852273 0.400000
vt 0.859848 0.400000
vt 0.859848 0.466667
vt 0.863636 0.400000
vt 0.863636 0.466667
vt 0.848485 0.733333
vt 0.852273 0.800000
vt 0.848485 0.800000
vt 0.859848 0.733333
vt 0.852273 0.466667
vt 0.848485 0.466667
vt 0.856061 0.733333
vt 0.856061 0.466667
vt 0.852273 0.733333
vt 0.852273 0.808333
vt 0.856061 0.800000
vt 0.856061 0.808333
vt 0.863636 0.733333
vt 0.859848 0.800000
vt 0.856061 0.400000
vt 0.852273 0.391667
vt 0.856061 0.391667
vt 0.852273 0.400000
vt 0.859848 0.400000
vt 0.859848 0.466667
vt 0.863636 0.400000
vt 0.863636 0.466667
vt 0.848485 0.733333
vt 0.852273 0.800000
vt 0.848485 0.800000
vt 0.859848 0.733333
vt 0.852273 0.466667
vt 0.848485 0.466667
vt 0.856061 0.733333
vt 0.856061 0.466667
vt 0.852273 0.733333
vt 0.852273 0.808333
vt 0.856061 0.800000
vt 0.856061 0.808333
vt 0.863636 0.733333
vt 0.859848 0.800000
vt 0.856061 0.400000
vt 0.852273 0.391667
vt 0.856061 0.391667
vt 0.852273 0.400000
vt 0.859848 0.400000
vt 0.859848 0.466667
vt 0.863636 0.400000
vt 0.863636 0.466667
vt 0.848485 0.733333
vt 0.852273 0.800000
vt 0.848485 0.800000
vt 0.859848 0.733333
vt 0.852273 0.466667
vt 0.848485 0.466667
vt 0.856061 0.733333
vt 0.856061 0.466667
vt 0.852273 0.733333
vt 0.852273 0.808333
vt 0.856061 0.800000
vt 0.856061 0.808333
vt 0.863636 0.733333
vt 0.859848 0.800000
vt 0.856061 0.400000
vt 0.852273 0.391667
vt 0.856061 0.391667
vt 0.852273 0.400000
vt 0.859848 0.400000
vt 0.859848 0.466667
vt 0.863636 0.400000
vt 0.863636 0.466667
vt 0.848485 0.733333
vt 0.852273 0.800000
vt 0.848485 0.800000
vt 0.859848 0.733333
vt 0.852273 0.466667
vt 0.848485 0.466667
vt 0.856061 0.733333
vt 0.856061 0.466667
vt 0.852273 0.733333
vt 0.852273 0.808333
vt 0.856061 0.800000
vt 0.856061 0.808333
vt 0.863636 0.733333
vt 0.859848 0.800000
vt 0.856061 0.400000
vt 0.852273 0.391667
vt 0.856061 0.391667
vt 0.852273 0.400000
vt 0.859848 0.400000
vt 0.863636 0.466667
vt 0.859848 0.733333
vt 0.859848 0.466667
vt 0.852273 0.466667
vt 0.848485 0.733333
vt 0.848485 0.466667
vt 0.856061 0.733333
vt 0.856061 0.466667
vt 0.852273 0.733333
vt 0.863636 0.466667
vt 0.859848 0.733333
vt 0.859848 0.466667
vt 0.852273 0.466667
vt 0.848485 0.733333
vt 0.848485 0.466667
vt 0.856061 0.733333
vt 0.856061 0.466667
vt 0.852273 0.733333
vt 0.856061 0.808333
vt 0.852273 0.800000
vt 0.856061 0.800000
vt 0.852273 0.400000
vt 0.856061 0.391667
vt 0.856061 0.400000
vt 0.852273 0.400000
vt 0.856061 0.391667
vt 0.856061 0.400000
vt 0.856061 0.808333
vt 0.852273 0.800000
vt 0.856061 0.800000
vt 0.901515 -0.000000
vt 0.916667 0.033333
vt 0.901515 0.033333
vt 0.901515 -0.000000
vt 0.916667 0.033333
vt 0.901515 0.033333
vt 0.871212 0.033333
vt 0.886364 0.033333
vt 0.871212 0.033333
vt 0.886364 0.033333
vt 0.977273 0.033333
vt 0.977273 0.033333
vt 0.606061 0.800000
vt 0.727273 0.808333
vt 0.606061 0.808333
vt 0.606061 0.825000
vt 0.727273 0.833333
vt 0.606061 0.833333
vt 0.727273 0.816667
vt 0.606061 0.816667
vt 0.727273 0.825000
vt 0.545455 0.825000
vt 0.787879 0.825000
vt 0.787879 0.833333
vt 0.484848 0.816667
vt 0.545455 0.816667
vt 0.545455 0.808333
vt 0.545455 0.800000
vt 0.848485 0.825000
vt 0.848485 0.833333
vt 0.787879 0.816667
vt 0.727273 0.800000
vt 0.787879 0.808333
vt 0.848485 0.808333
vt 0.852273 0.816667
vt 0.848485 0.816667
vt 0.787879 0.800000
vt 0.481061 0.816667
vt 0.484848 0.808333
vt 0.484848 0.800000
vt 0.545455 0.833333
vt 0.484848 0.825000
vt 0.803030 0.391667
vt 0.848485 0.400000
vt 0.803030 0.400000
vt 0.803030 0.400000
vt 0.848485 0.391667
vt 0.848485 0.400000
vt 0.803030 0.391667
vt 0.848485 0.400000
vt 0.803030 0.400000
vt 0.803030 0.400000
vt 0.848485 0.391667
vt 0.848485 0.400000
vt 0.803030 0.391667
vt 0.848485 0.400000
vt 0.803030 0.400000
vt 0.803030 0.400000
vt 0.848485 0.391667
vt 0.848485 0.400000
vt 0.803030 0.391667
vt 0.848485 0.400000
vt 0.803030 0.400000
vt 0.803030 0.400000
vt 0.848485 0.391667
vt 0.848485 0.400000
vt 0.803030 0.391667
vt 0.848485 0.400000
vt 0.803030 0.400000
vt 0.803030 0.400000
vt 0.848485 0.391667
vt 0.848485 0.400000
vt 0.803030 0.391667
vt 0.848485 0.400000
vt 0.803030 0.400000
vt 0.803030 0.400000
vt 0.848485 0.391667
vt 0.848485 0.400000
vt 0.803030 0.391667
vt 0.848485 0.400000
vt 0.803030 0.400000
vt 0.803030 0.400000
vt 0.848485 0.391667
vt 0.848485 0.400000
vt 0.484848 0.533333
vt 0.481061 0.733333
vt 0.481061 0.533333
vt 0.473485 0.533333
vt 0.469697 0.733333
vt 0.469697 0.533333
vt 0.477273 0.533333
vt 0.477273 0.733333
vt 0.473485 0.733333
vt 0.484848 0.533333
vt 0.481061 0.733333
vt 0.481061 0.533333
vt 0.473485 0.533333
vt 0.469697 0.733333
vt 0.469697 0.533333
vt 0.477273 0.533333
vt 0.477273 0.733333
vt 0.473485 0.733333
vt 0.484848 0.533333
vt 0.481061 0.733333
vt 0.481061 0.533333
vt 0.473485 0.533333
vt 0.469697 0.733333
vt 0.469697 0.533333
vt 0.477273 0.533333
vt 0.477273 0.733333
vt 0.473485 0.733333
vt 0.484848 0.533333
vt 0.481061 0.733333
vt 0.481061 0.533333
vt 0.473485 0.533333
vt 0.469697 0.733333
vt 0.469697 0.533333
vt 0.477273 0.533333
vt 0.477273 0.733333
vt 0.473485 0.733333
vt 0.924242 1.000000
vt 0.939394 0.966667
vt 0.939394 1.000000
vt 0.939394 0.833333
vt 0.924242 0.733333
vt 0.939394 0.733333
vt 0.924242 0.966667
vt 0.939394 0.600000
vt 0.924242 0.600000
vt 0.863636 0.766667
vt 0.924242 0.833333
vt 0.863636 0.800000
vt 1.000000 0.800000
vt 1.000000 0.766667
vt 0.731061 0.291667
vt 0.704545 0.308333
vt 0.704545 0.291667
vt 0.742424 0.308333
vt 0.742424 0.291667
vt 0.731061 0.266667
vt 0.704545 0.266667
vt 0.693182 0.291667
vt 0.693182 0.308333
vt 0.704545 0.333333
vt 0.731061 0.308333
vt 0.731061 0.333333
vt 0.606061 0.733333
vt 0.727273 0.466667
vt 0.606061 0.466667
vt 0.787879 0.733333
vt 0.727273 0.733333
vt 0.545455 0.466667
vt 0.848485 0.733333
vt 0.787879 0.466667
vt 0.484848 0.466667
vt 0.545455 0.733333
vt 0.606061 0.800000
vt 0.727273 0.400000
vt 0.606061 0.400000
vt 0.727273 0.800000
vt 0.484848 0.733333
vt 0.545455 0.800000
vt 0.787879 0.800000
vt 0.545455 0.400000
vt 0.848485 0.466667
vt 0.787879 0.400000
vt 0.848485 0.400000
vt 0.803030 0.391667
vt 0.803030 0.400000
vt 0.803030 0.400000
vt 0.848485 0.391667
vt 0.803030 0.391667
vt 0.848485 0.400000
vt 0.803030 0.391667
vt 0.803030 0.400000
vt 0.803030 0.400000
vt 0.848485 0.391667
vt 0.803030 0.391667
vt 0.848485 0.400000
vt 0.803030 0.391667
vt 0.803030 0.400000
vt 0.803030 0.400000
vt 0.848485 0.391667
vt 0.803030 0.391667
vt 0.848485 0.400000
vt 0.803030 0.391667
vt 0.803030 0.400000
vt 0.803030 0.400000
vt 0.848485 0.391667
vt 0.803030 0.391667
vt 0.848485 0.400000
vt 0.803030 0.391667
vt 0.803030 0.400000
vt 0.803030 0.400000
vt 0.848485 0.391667
vt 0.803030 0.391667
vt 0.848485 0.400000
vt 0.803030 0.391667
vt 0.803030 0.400000
vt 0.803030 0.400000
vt 0.848485 0.391667
vt 0.803030 0.391667
vt 0.848485 0.400000
vt 0.803030 0.391667
vt 0.803030 0.400000
vt 0.803030 0.400000
vt 0.848485 0.391667
vt 0.803030 0.391667
vt 0.708333 0.266667
vt 0.602273 0.266667
vt 0.636364 0.304167
vt 0.636364 0.362500
vt 0.619318 0.400000
vt 0.575758 0.362500
vt 0.592803 0.266667
vt 0.863636 0.200000
vt 0.931818 0.033333
vt 0.977273 0.600000
vt 0.886364 0.600000
vt 0.863636 0.200000
vt 0.931818 0.033333
vt 0.916667 0.600000
vt 0.886364 0.600000
vt 0.833333 0.016667
vt 0.742424 0.266667
vt 0.787879 0.366667
vt 0.863636 0.800000
vt 0.848485 0.400000
vt 0.863636 0.800000
vt 0.848485 0.400000
vt 0.863636 0.800000
vt 0.848485 0.400000
vt 0.863636 0.800000
vt 0.848485 0.400000
vt 0.863636 0.800000
vt 0.848485 0.400000
vt 0.863636 0.733333
vt 0.863636 0.733333
vt 0.852273 0.808333
vt 0.852273 0.391667
vt 0.852273 0.391667
vt 0.852273 0.808333
vt 0.916667 0.000000
vt 0.916667 -0.000000
vt 0.962121 0.033333
vt 0.962121 0.033333
vt 0.852273 0.808333
vt 0.848485 0.800000
vt 0.481061 0.808333
vt 0.484848 0.833333
vt 0.848485 0.391667
vt 0.803030 0.391667
vt 0.848485 0.391667
vt 0.803030 0.391667
vt 0.848485 0.391667
vt 0.803030 0.391667
vt 0.848485 0.391667
vt 0.803030 0.391667
vt 0.848485 0.391667
vt 0.803030 0.391667
vt 0.848485 0.391667
vt 0.803030 0.391667
vt 0.848485 0.391667
vt 0.803030 0.391667
vt 0.484848 0.733333
vt 0.484848 0.733333
vt 0.484848 0.733333
vt 0.484848 0.733333
vt 0.848485 0.391667
vt 0.848485 0.400000
vt 0.848485 0.391667
vt 0.848485 0.400000
vt 0.848485 0.391667
vt 0.848485 0.400000
vt 0.848485 0.391667
vt 0.848485 0.400000
vt 0.848485 0.391667
vt 0.848485 0.400000
vt 0.848485 0.391667
vt 0.848485 0.400000
vt 0.848485 0.391667
vt 0.848485 0.400000
vn 0.7071 0.0000 -0.7071
vn -0.7071 0.0000 0.7071
vn 0.0000 0.0000 -1.0000
vn 0.0000 0.0000 1.0000
vn -0.7071 0.0000 -0.7071
vn 0.7071 0.0000 0.7071
vn 1.0000 0.0000 0.0000
vn -1.0000 0.0000 0.0000
vn 0.0000 1.0000 0.0000
vn -0.9950 0.0000 -0.0995
vn 0.0000 -0.9545 0.2983
vn 0.0000 -1.0000 0.0000
vn 0.0000 0.9829 -0.1843
vn -0.9545 0.0000 0.2983
vn 0.9829 0.0000 -0.1843
vn -0.9829 0.0000 -0.1843
vn 0.9545 0.0000 0.2983
vn -0.2425 0.0000 0.9701
vn 0.2425 0.0000 0.9701
vn -0.6000 0.0000 0.8000
vn 0.6000 0.0000 0.8000
vn 0.2182 -0.4364 0.8729
vn -0.2182 0.4364 0.8729
vn 0.0000 -0.4472 0.8944
vn 0.0000 0.4472 0.8944
vn 0.2182 0.4364 0.8729
vn -0.2182 -0.4364 0.8729
vn 0.5571 -0.3714 0.7428
vn -0.5571 -0.3714 0.7428
vn 0.5571 0.3714 0.7428
vn -0.5571 0.3714 0.7428
vn 0.0000 0.4472 -0.8944
vn 0.0000 -0.4472 -0.8944
vn 0.9950 0.0000 -0.0995
vn 0.0000 -0.9806 -0.1961
vn -0.6000 0.0000 -0.8000
vn -0.2425 0.0000 -0.9701
vn 0.2425 0.0000 -0.9701
vn 0.6000 0.0000 -0.8000
vn 0.0000 0.3338 0.9426
vn 0.0000 -0.3338 -0.9426
vn 0.0000 -0.2588 0.9659
vn 0.0000 0.2588 -0.9659
vn 0.0000 0.8743 0.4854
vn 0.0000 -0.9999 -0.0168
vn -0.2182 0.4364 -0.8729
vn 0.2182 -0.4364 -0.8729
vn -0.2182 -0.4364 -0.8729
vn 0.2182 0.4364 -0.8729
vn -0.5571 0.3714 -0.7428
vn 0.5571 0.3714 -0.7428
vn -0.5571 -0.3714 -0.7428
vn 0.5571 -0.3714 -0.7428
v -1.500000 0.000000 1.500000
v 1.500000 0.000000 1.500000
v -1.500000 0.000000 -1.500000
v 1.500000 0.000000 -1.500000
v -1.500000 1.000000 1.500000
v 1.500000 1.000000 1.500000
v -1.500000 1.000000 -1.500000
v 1.500000 1.000000 -1.500000
v -1.500000 4.500000 1.500000
v 1.500000 4.500000 1.500000
v -1.500000 4.500000 -1.500000
v 1.500000 4.500000 -1.500000
v -1.500000 5.000000 1.500000
v 1.500000 5.000000 1.500000
v -1.500000 5.000000 -1.500000
v 1.500000 5.000000 -1.500000
v -0.312500 5.000000 0.750000
v 0.312500 5.000000 0.750000
v -0.312500 5.000000 -0.750000
v 0.312500 5.000000 -0.750000
v 0.750000 5.000000 0.312500
v 0.750000 5.000000 -0.312500
v -0.750000 5.000000 0.312500
v -0.750000 5.000000 -0.312500
v -0.312500 5.500000 0.750000
v 0.312500 5.500000 0.750000
v -0.312500 5.500000 -0.750000
v 0.312500 5.500000 -0.750000
v 0.750000 5.500000 0.312500
v 0.750000 5.500000 -0.312500
v -0.750000 5.500000 0.312500
v -0.750000 5.500000 -0.312500
v -1.250000 5.875000 0.750000
v 1.250000 5.875000 0.750000
v -1.250000 5.875000 -0.750000
v 1.250000 5.875000 -0.750000
v 1.187500 5.000000 -0.687500
v 1.312500 5.000000 -0.687500
v 1.187500 5.000000 -0.812500
v 1.312500 5.000000 -0.812500
v 1.187500 6.000000 -0.812500
v 1.187500 6.000000 -0.687500
v 1.312500 6.000000 -0.687500
v 1.312500 6.000000 -0.812500
v 1.187500 5.000000 0.812500
v 1.312500 5.000000 0.812500
v 1.187500 5.000000 0.687500
v 1.312500 5.000000 0.687500
v 1.187500 6.000000 0.687500
v 1.187500 6.000000 0.812500
v 1.312500 6.000000 0.812500
v 1.312500 6.000000 0.687500
v -1.312500 5.000000 -0.687500
v -1.187500 5.000000 -0.687500
v -1.312500 5.000000 -0.812500
v -1.187500 5.000000 -0.812500
v -1.312500 6.000000 -0.812500
v -1.312500 6.000000 -0.687500
v -1.187500 6.000000 -0.687500
v -1.187500 6.000000 -0.812500
v -1.312500 5.000000 0.812500
v -1.187500 5.000000 0.812500
v -1.312500 5.000000 0.687500
v -1.187500 5.000000 0.687500
v -1.312500 6.000000 0.687500
v -1.312500 6.000000 0.812500
v -1.187500 6.000000 0.812500
v -1.187500 6.000000 0.687500
v -0.687500 5.000000 -1.187500
v -0.687500 5.000000 -1.312500
v -0.812500 5.000000 -1.187500
v -0.812500 5.000000 -1.312500
v -0.812500 6.000000 -1.187500
v -0.687500 6.000000 -1.187500
v -0.687500 6.000000 -1.312500
v -0.812500 6.000000 -1.312500
v 0.812500 5.000000 -1.187500
v 0.812500 5.000000 -1.312500
v 0.687500 5.000000 -1.187500
v 0.687500 5.000000 -1.312500
v 0.687500 6.000000 -1.187500
v 0.812500 6.000000 -1.187500
v 0.812500 6.000000 -1.312500
v 0.687500 6.000000 -1.312500
v -0.687500 5.000000 1.312500
v -0.687500 5.000000 1.187500
v -0.812500 5.000000 1.312500
v -0.812500 5.000000 1.187500
v -0.812500 6.000000 1.312500
v -0.687500 6.000000 1.312500
v -0.687500 6.000000 1.187500
v -0.812500 6.000000 1.187500
v 0.812500 5.000000 1.312500
v 0.812500 5.000000 1.187500
v 0.687500 5.000000 1.312500
v 0.687500 5.000000 1.187500
v 0.687500 6.000000 1.312500
v 0.812500 6.000000 1.312500
v 0.812500 6.000000 1.187500
v 0.687500 6.000000 1.187500
v 0.750000 5.875000 1.250000
v 0.750000 5.875000 -1.250000
v -0.750000 5.875000 1.250000
v -0.750000 5.875000 -1.250000
v -1.250000 5.750000 0.750000
v 1.250000 5.750000 0.750000
v -1.250000 5.750000 -0.750000
v 1.250000 5.750000 -0.750000
v 0.750000 5.750000 1.250000
v 0.750000 5.750000 -1.250000
v -0.750000 5.750000 1.250000
v -0.750000 5.750000 -1.250000
v -1.250000 5.500000 0.750000
v 1.250000 5.500000 0.750000
v -1.250000 5.500000 -0.750000
v 1.250000 5.500000 -0.750000
v 0.750000 5.500000 1.250000
v 0.750000 5.500000 -1.250000
v -0.750000 5.500000 1.250000
v -0.750000 5.500000 -1.250000
v -1.250000 5.375000 0.750000
v 1.250000 5.375000 0.750000
v -1.250000 5.375000 -0.750000
v 1.250000 5.375000 -0.750000
v 0.750000 5.375000 1.250000
v 0.750000 5.375000 -1.250000
v -0.750000 5.375000 1.250000
v -0.750000 5.375000 -1.250000
v -1.250000 1.000000 1.250000
v -0.750000 1.000000 1.250000
v -1.250000 1.000000 0.750000
v -0.750000 1.000000 0.750000
v -1.250000 4.500000 1.250000
v -0.750000 4.500000 1.250000
v -1.250000 4.500000 0.750000
v -0.750000 4.500000 0.750000
v 0.750000 1.000000 1.250000
v 1.250000 1.000000 1.250000
v 0.750000 1.000000 0.750000
v 1.250000 1.000000 0.750000
v 0.750000 4.500000 1.250000
v 1.250000 4.500000 1.250000
v 0.750000 4.500000 0.750000
v 1.250000 4.500000 0.750000
v -1.250000 1.000000 -0.750000
v -0.750000 1.000000 -0.750000
v -1.250000 1.000000 -1.250000
v -0.750000 1.000000 -1.250000
v -1.250000 4.500000 -0.750000
v -0.750000 4.500000 -0.750000
v -1.250000 4.500000 -1.250000
v -0.750000 4.500000 -1.250000
v 0.750000 1.000000 -0.750000
v 1.250000 1.000000 -0.750000
v 0.750000 1.000000 -1.250000
v 1.250000 1.000000 -1.250000
v 0.750000 4.500000 -0.750000
v 1.250000 4.500000 -0.750000
v 0.750000 4.500000 -1.250000
v 1.250000 4.500000 -1.250000
v -1.062500 1.000000 -0.750000
v -0.937500 1.000000 0.750000
v -1.062500 1.250000 -0.750000
v -0.937500 1.250000 0.750000
v -1.062500 2.500000 0.750000
v -0.937500 2.500000 -0.750000
v -1.062500 2.750000 0.750000
v -0.937500 2.750000 -0.750000
v -1.062500 2.750000 -0.750000
v -0.937500 2.750000 0.750000
v -1.062500 3.000000 -0.750000
v -0.937500 3.000000 0.750000
v -1.062500 4.250000 0.750000
v -0.937500 4.250000 -0.750000
v -1.062500 4.500000 0.750000
v -0.937500 4.500000 -0.750000
v 0.937500 4.500000 0.750000
v 1.062500 4.500000 -0.750000
v 0.937500 4.250000 0.750000
v 1.062500 4.250000 -0.750000
v 0.937500 3.000000 -0.750000
v 1.062500 3.000000 0.750000
v 0.937500 2.750000 -0.750000
v 1.062500 2.750000 0.750000
v 0.937500 2.750000 0.750000
v 1.062500 2.750000 -0.750000
v 0.937500 2.500000 0.750000
v 1.062500 2.500000 -0.750000
v 0.937500 1.250000 -0.750000
v 1.062500 1.250000 0.750000
v 0.937500 1.000000 -0.750000
v 1.062500 1.000000 0.750000
v 0.750000 1.000000 -1.062500
v -0.750000 1.000000 -0.937500
v 0.750000 1.250000 -1.062500
v -0.750000 1.250000 -0.937500
v -0.750000 2.500000 -1.062500
v 0.750000 2.500000 -0.937500
v -0.750000 2.750000 -1.062500
v 0.750000 2.750000 -0.937500
v 0.750000 2.750000 -1.062500
v -0.750000 2.750000 -0.937500
v 0.750000 3.000000 -1.062500
v -0.750000 3.000000 -0.937500
v -0.750000 4.250000 -1.062500
v 0.750000 4.250000 -0.937500
v -0.750000 4.500000 -1.062500
v 0.750000 4.500000 -0.937500
v -0.750000 4.500000 0.937500
v 0.750000 4.500000 1.062500
v -0.750000 4.250000 0.937500
v 0.750000 4.250000 1.062500
v 0.750000 3.000000 0.937500
v -0.750000 3.000000 1.062500
v 0.750000 2.750000 0.937500
v -0.750000 2.750000 1.062500
v -0.750000 2.750000 0.937500
v 0.750000 2.750000 1.062500
v -0.750000 2.500000 0.937500
v 0.750000 2.500000 1.062500
v 0.750000 1.250000 0.937500
v -0.750000 1.250000 1.062500
v 0.750000 1.000000 0.937500
v -0.750000 1.000000 1.062500
v -0.750000 5.375000 -1.250000
v -0.750000 5.375000 1.250000
v 0.750000 5.375000 -1.250000
v 0.750000 5.375000 1.250000
v 1.250000 5.375000 -0.750000
v -1.250000 5.375000 -0.750000
v 1.250000 5.375000 0.750000
v -1.250000 5.375000 0.750000
v -0.750000 5.500000 -1.250000
v -0.750000 5.500000 1.250000
v 0.750000 5.500000 -1.250000
v 0.750000 5.500000 1.250000
v 1.250000 5.500000 -0.750000
v -1.250000 5.500000 -0.750000
v 1.250000 5.500000 0.750000
v -1.250000 5.500000 0.750000
v -0.750000 5.750000 -1.250000
v -0.750000 5.750000 1.250000
v 0.750000 5.750000 -1.250000
v 0.750000 5.750000 1.250000
v 1.250000 5.750000 -0.750000
v -1.250000 5.750000 -0.750000
v 1.250000 5.750000 0.750000
v -1.250000 5.750000 0.750000
v -0.750000 5.875000 -1.250000
v -0.750000 5.875000 1.250000
v 0.750000 5.875000 -1.250000
v 0.750000 5.875000 1.250000
v 1.250000 5.875000 -0.750000
v -1.250000 5.875000 -0.750000
v 1.250000 5.875000 0.750000
v -1.250000 5.875000 0.750000
v -0.750000 1.000000 1.062500
v 0.750000 1.000000 0.937500
v -0.750000 1.250000 1.062500
v 0.750000 1.250000 0.937500
v 0.750000 2.500000 1.062500
v -0.750000 2.500000 0.937500
v 0.750000 2.750000 1.062500
v -0.750000 2.750000 0.937500
v -0.750000 2.750000 1.062500
v 0.750000 2.750000 0.937500
v -0.750000 3.000000 1.062500
v 0.750000 3.000000 0.937500
v 0.750000 4.250000 1.062500
v -0.750000 4.250000 0.937500
v 0.750000 4.500000 1.062500
v -0.750000 4.500000 0.937500
v 0.750000 4.500000 -0.937500
v -0.750000 4.500000 -1.062500
v 0.750000 4.250000 -0.937500
v -0.750000 4.250000 -1.062500
v -0.750000 3.000000 -0.937500
v 0.750000 3.000000 -1.062500
v -0.750000 2.750000 -0.937500
v 0.750000 2.750000 -1.062500
v 0.750000 2.750000 -0.937500
v -0.750000 2.750000 -1.062500
v 0.750000 2.500000 -0.937500
v -0.750000 2.500000 -1.062500
v -0.750000 1.250000 -0.937500
v 0.750000 1.250000 -1.062500
v -0.750000 1.000000 -0.937500
v 0.750000 1.000000 -1.062500
v 1.062500 1.000000 0.750000
v 0.937500 1.000000 -0.750000
v 1.062500 1.250000 0.750000
v 0.937500 1.250000 -0.750000
v 1.062500 2.500000 -0.750000
v 0.937500 2.500000 0.750000
v 1.062500 2.750000 -0.750000
v 0.937500 2.750000 0.750000
v 1.062500 2.750000 0.750000
v 0.937500 2.750000 -0.750000
v 1.062500 3.000000 0.750000
v 0.937500 3.000000 -0.750000
v 1.062500 4.250000 -0.750000
v 0.937500 4.250000 0.750000
v 1.062500 4.500000 -0.750000
v 0.937500 4.500000 0.750000
v -0.937500 4.500000 -0.750000
v -1.062500 4.500000 0.750000
v -0.937500 4.250000 -0.750000
v -1.062500 4.250000 0.750000
v -0.937500 3.000000 0.750000
v -1.062500 3.000000 -0.750000
v -0.937500 2.750000 0.750000
v -1.062500 2.750000 -0.750000
v -0.937500 2.750000 -0.750000
v -1.062500 2.750000 0.750000
v -0.937500 2.500000 -0.750000
v -1.062500 2.500000 0.750000
v -0.937500 1.250000 0.750000
v -1.062500 1.250000 -0.750000
v -0.937500 1.000000 0.750000
v -1.062500 1.000000 -0.750000
vt 0.000000 0.000000
vt 0.181818 0.400000
vt 0.000000 0.400000
vt 0.181818 0.533333
vt 0.000000 0.933333
vt 0.000000 0.533333
vt 0.181818 0.400000
vt 0.000000 0.533333
vt 0.000000 0.400000
vt 0.181818 0.400000
vt 0.000000 0.533333
vt 0.000000 0.400000
vt 0.181818 0.400000
vt 0.000000 0.533333
vt 0.000000 0.400000
vt 0.181818 0.000000
vt 0.363636 0.400000
vt 0.181818 0.400000
vt 0.363636 0.466667
vt 0.181818 0.866667
vt 0.181818 0.466667
vt 0.363636 0.400000
vt 0.181818 0.466667
vt 0.181818 0.400000
vt 0.363636 0.400000
vt 0.181818 0.466667
vt 0.181818 0.400000
vt 0.363636 0.400000
vt 0.181818 0.466667
vt 0.181818 0.400000
vt 0.674242 0.066667
vt 0.636364 0.000000
vt 0.674242 0.000000
vt 0.522727 0.066667
vt 0.484848 0.000000
vt 0.522727 0.000000
vt 0.712121 0.000000
vt 0.560606 0.000000
vt 0.750000 0.000000
vt 0.712121 0.066667
vt 0.598485 0.000000
vt 0.560606 0.066667
vt 0.598485 0.066667
vt 0.787879 0.000000
vt 0.750000 0.066667
vt 0.511364 0.266667
vt 0.484848 0.125000
vt 0.549242 0.066667
vt 0.378788 0.666667
vt 0.371212 0.683333
vt 0.371212 0.666667
vt 0.378788 0.666667
vt 0.371212 0.683333
vt 0.371212 0.666667
vt 0.393939 0.533333
vt 0.386364 0.666667
vt 0.386364 0.533333
vt 0.378788 0.533333
vt 0.371212 0.533333
vt 0.363636 0.666667
vt 0.363636 0.533333
vt 0.393939 0.533333
vt 0.386364 0.666667
vt 0.386364 0.533333
vt 0.378788 0.533333
vt 0.371212 0.533333
vt 0.363636 0.666667
vt 0.363636 0.533333
vt 0.378788 0.666667
vt 0.371212 0.683333
vt 0.371212 0.666667
vt 0.378788 0.666667
vt 0.371212 0.683333
vt 0.371212 0.666667
vt 0.393939 0.533333
vt 0.386364 0.666667
vt 0.386364 0.533333
vt 0.378788 0.533333
vt 0.371212 0.533333
vt 0.363636 0.666667
vt 0.363636 0.533333
vt 0.393939 0.533333
vt 0.386364 0.666667
vt 0.386364 0.533333
vt 0.378788 0.533333
vt 0.371212 0.533333
vt 0.363636 0.666667
vt 0.363636 0.533333
vt 0.378788 0.683333
vt 0.371212 0.666667
vt 0.378788 0.666667
vt 0.378788 0.683333
vt 0.371212 0.666667
vt 0.378788 0.666667
vt 0.371212 0.533333
vt 0.363636 0.666667
vt 0.363636 0.533333
vt 0.386364 0.533333
vt 0.378788 0.533333
vt 0.393939 0.533333
vt 0.386364 0.666667
vt 0.371212 0.533333
vt 0.363636 0.666667
vt 0.363636 0.533333
vt 0.386364 0.533333
vt 0.378788 0.533333
vt 0.393939 0.533333
vt 0.386364 0.666667
vt 0.378788 0.683333
vt 0.371212 0.666667
vt 0.378788 0.666667
vt 0.378788 0.683333
vt 0.371212 0.666667
vt 0.378788 0.666667
vt 0.371212 0.533333
vt 0.363636 0.666667
vt 0.363636 0.533333
vt 0.386364 0.533333
vt 0.378788 0.533333
vt 0.393939 0.533333
vt 0.386364 0.666667
vt 0.371212 0.533333
vt 0.363636 0.666667
vt 0.363636 0.533333
vt 0.386364 0.533333
vt 0.378788 0.533333
vt 0.393939 0.533333
vt 0.386364 0.666667
vt 0.454545 0.516667
vt 0.484848 0.533333
vt 0.454545 0.533333
vt 0.454545 0.516667
vt 0.484848 0.533333
vt 0.454545 0.533333
vt 0.363636 0.516667
vt 0.363636 0.533333
vt 0.363636 0.516667
vt 0.454545 0.533333
vt 0.363636 0.533333
vt 0.484848 0.516667
vt 0.484848 0.533333
vt 0.454545 0.533333
vt 0.484848 0.516667
vt 0.484848 0.533333
vt 0.363636 0.516667
vt 0.363636 0.533333
vt 0.363636 0.516667
vt 0.363636 0.533333
vt 0.454545 0.500000
vt 0.484848 0.516667
vt 0.454545 0.516667
vt 0.454545 0.500000
vt 0.484848 0.516667
vt 0.454545 0.516667
vt 0.363636 0.500000
vt 0.363636 0.516667
vt 0.363636 0.500000
vt 0.454545 0.516667
vt 0.363636 0.516667
vt 0.484848 0.500000
vt 0.484848 0.516667
vt 0.454545 0.516667
vt 0.484848 0.500000
vt 0.484848 0.516667
vt 0.363636 0.500000
vt 0.363636 0.516667
vt 0.363636 0.500000
vt 0.363636 0.516667
vt 0.454545 -0.000000
vt 0.424242 0.466667
vt 0.424242 -0.000000
vt 0.393939 -0.000000
vt 0.363636 0.466667
vt 0.363636 -0.000000
vt 0.484848 -0.000000
vt 0.454545 0.466667
vt 0.454545 -0.000000
vt 0.424242 -0.000000
vt 0.393939 0.466667
vt 0.393939 -0.000000
vt 0.363636 0.466667
vt 0.363636 -0.000000
vt 0.424242 0.466667
vt 0.484848 -0.000000
vt 0.454545 0.466667
vt 0.393939 0.466667
vt 0.424242 -0.000000
vt 0.393939 0.466667
vt 0.393939 -0.000000
vt 0.484848 -0.000000
vt 0.454545 0.466667
vt 0.454545 -0.000000
vt 0.393939 -0.000000
vt 0.363636 0.466667
vt 0.363636 -0.000000
vt 0.454545 -0.000000
vt 0.424242 0.466667
vt 0.424242 -0.000000
vt 0.393939 0.466667
vt 0.484848 -0.000000
vt 0.454545 0.466667
vt 0.424242 0.466667
vt 0.363636 0.466667
vt 0.363636 -0.000000
vt 0.454545 0.500000
vt 0.363636 0.466667
vt 0.363636 0.500000
vt 0.363636 0.500000
vt 0.454545 0.466667
vt 0.363636 0.466667
vt 0.454545 0.500000
vt 0.363636 0.466667
vt 0.363636 0.500000
vt 0.363636 0.500000
vt 0.454545 0.466667
vt 0.363636 0.466667
vt 0.363636 0.500000
vt 0.454545 0.466667
vt 0.363636 0.466667
vt 0.454545 0.500000
vt 0.363636 0.466667
vt 0.363636 0.500000
vt 0.363636 0.500000
vt 0.454545 0.466667
vt 0.363636 0.466667
vt 0.454545 0.500000
vt 0.363636 0.466667
vt 0.363636 0.500000
vt 0.454545 0.500000
vt 0.363636 0.466667
vt 0.363636 0.500000
vt 0.363636 0.500000
vt 0.454545 0.466667
vt 0.363636 0.466667
vt 0.454545 0.500000
vt 0.363636 0.466667
vt 0.363636 0.500000
vt 0.363636 0.500000
vt 0.454545 0.466667
vt 0.363636 0.466667
vt 0.363636 0.500000
vt 0.454545 0.466667
vt 0.363636 0.466667
vt 0.454545 0.500000
vt 0.363636 0.466667
vt 0.363636 0.500000
vt 0.363636 0.500000
vt 0.454545 0.466667
vt 0.363636 0.466667
vt 0.454545 0.500000
vt 0.363636 0.466667
vt 0.363636 0.500000
vt 0.454545 0.516667
vt 0.363636 0.500000
vt 0.363636 0.516667
vt 0.454545 0.516667
vt 0.363636 0.500000
vt 0.363636 0.516667
vt 0.484848 0.500000
vt 0.484848 0.516667
vt 0.484848 0.500000
vt 0.454545 0.516667
vt 0.484848 0.516667
vt 0.363636 0.500000
vt 0.363636 0.516667
vt 0.454545 0.516667
vt 0.363636 0.500000
vt 0.363636 0.516667
vt 0.484848 0.516667
vt 0.454545 0.500000
vt 0.484848 0.516667
vt 0.454545 0.500000
vt 0.454545 0.533333
vt 0.363636 0.516667
vt 0.363636 0.533333
vt 0.454545 0.533333
vt 0.363636 0.516667
vt 0.363636 0.533333
vt 0.484848 0.516667
vt 0.484848 0.533333
vt 0.484848 0.516667
vt 0.454545 0.533333
vt 0.484848 0.533333
vt 0.363636 0.516667
vt 0.363636 0.533333
vt 0.454545 0.533333
vt 0.363636 0.516667
vt 0.363636 0.533333
vt 0.484848 0.533333
vt 0.454545 0.516667
vt 0.484848 0.533333
vt 0.454545 0.516667
vt 0.363636 0.466667
vt 0.454545 0.500000
vt 0.363636 0.500000
vt 0.454545 0.466667
vt 0.363636 0.500000
vt 0.363636 0.466667
vt 0.363636 0.466667
vt 0.454545 0.500000
vt 0.363636 0.500000
vt 0.454545 0.466667
vt 0.363636 0.500000
vt 0.363636 0.466667
vt 0.454545 0.466667
vt 0.363636 0.500000
vt 0.363636 0.466667
vt 0.363636 0.466667
vt 0.454545 0.500000
vt 0.363636 0.500000
vt 0.454545 0.466667
vt 0.363636 0.500000
vt 0.363636 0.466667
vt 0.363636 0.466667
vt 0.454545 0.500000
vt 0.363636 0.500000
vt 0.363636 0.466667
vt 0.454545 0.500000
vt 0.363636 0.500000
vt 0.454545 0.466667
vt 0.363636 0.500000
vt 0.363636 0.466667
vt 0.363636 0.466667
vt 0.454545 0.500000
vt 0.363636 0.500000
vt 0.454545 0.466667
vt 0.363636 0.500000
vt 0.363636 0.466667
vt 0.454545 0.466667
vt 0.363636 0.500000
vt 0.363636 0.466667
vt 0.363636 0.466667
vt 0.454545 0.500000
vt 0.363636 0.500000
vt 0.454545 0.466667
vt 0.363636 0.500000
vt 0.363636 0.466667
vt 0.363636 0.466667
vt 0.454545 0.500000
vt 0.363636 0.500000
vt 0.181818 0.000000
vt 0.181818 0.933333
vt 0.181818 0.533333
vt 0.181818 0.533333
vt 0.181818 0.533333
vt 0.363636 0.000000
vt 0.363636 0.866667
vt 0.363636 0.466667
vt 0.363636 0.466667
vt 0.363636 0.466667
vt 0.636364 0.066667
vt 0.484848 0.066667
vt 0.787879 0.066667
vt 0.575758 0.125000
vt 0.575758 0.208333
vt 0.549242 0.266667
vt 0.484848 0.208333
vt 0.511364 0.066667
vt 0.378788 0.683333
vt 0.378788 0.683333
vt 0.393939 0.666667
vt 0.393939 0.666667
vt 0.378788 0.683333
vt 0.378788 0.683333
vt 0.393939 0.666667
vt 0.393939 0.666667
vt 0.371212 0.683333
vt 0.371212 0.683333
vt 0.393939 0.666667
vt 0.393939 0.666667
vt 0.371212 0.683333
vt 0.371212 0.683333
vt 0.393939 0.666667
vt 0.393939 0.666667
vt 0.484848 0.516667
vt 0.484848 0.516667
vt 0.454545 0.516667
vt 0.454545 0.516667
vt 0.484848 0.500000
vt 0.484848 0.500000
vt 0.454545 0.500000
vt 0.454545 0.500000
vt 0.484848 0.466667
vt 0.484848 0.466667
vt 0.484848 0.466667
vt 0.484848 0.466667
vt 0.454545 0.466667
vt 0.454545 0.500000
vt 0.454545 0.466667
vt 0.454545 0.500000
vt 0.454545 0.500000
vt 0.454545 0.466667
vt 0.454545 0.500000
vt 0.454545 0.466667
vt 0.454545 0.466667
vt 0.454545 0.500000
vt 0.454545 0.466667
vt 0.454545 0.500000
vt 0.454545 0.500000
vt 0.454545 0.466667
vt 0.454545 0.500000
vt 0.454545 0.466667
vt 0.454545 0.500000
vt 0.454545 0.500000
vt 0.484848 0.500000
vt 0.484848 0.500000
vt 0.454545 0.516667
vt 0.454545 0.516667
vt 0.484848 0.516667
vt 0.484848 0.516667
vt 0.454545 0.466667
vt 0.454545 0.500000
vt 0.454545 0.466667
vt 0.454545 0.500000
vt 0.454545 0.500000
vt 0.454545 0.466667
vt 0.454545 0.500000
vt 0.454545 0.466667
vt 0.454545 0.466667
vt 0.454545 0.500000
vt 0.454545 0.466667
vt 0.454545 0.500000
vt 0.454545 0.500000
vt 0.454545 0.466667
vt 0.454545 0.500000
vt 0.454545 0.466667
vn 0.0000 -1.0000 0.0000
vn 0.0000 1.0000 0.0000
vn -1.0000 0.0000 0.0000
vn 0.0000 0.0000 -1.0000
vn 0.0000 0.0000 1.0000
vn 1.0000 0.0000 0.0000
vn 0.7071 0.0000 -0.7071
vn -0.7071 0.0000 0.7071
vn -0.7071 0.0000 -0.7071
vn 0.7071 0.0000 0.7071
o Radar
f 387/523/54 386/524/54 385/525/54
f 390/526/55 391/527/55 389/528/55
f 385/529/56 391/530/56 387/531/56
f 387/532/57 392/533/57 388/534/57
f 386/524/58 389/528/58 385/525/58
f 388/535/59 390/536/59 386/537/59
f 395/538/54 394/539/54 393/540/54
f 398/541/55 399/542/55 397/543/55
f 393/544/56 399/545/56 395/546/56
f 395/547/57 400/548/57 396/549/57
f 394/539/58 397/543/58 393/540/58
f 396/550/59 398/551/59 394/552/59
f 412/553/60 406/554/60 404/555/60
f 409/556/61 407/557/61 401/558/61
f 403/559/57 412/553/57 404/555/57
f 402/560/58 409/556/58 401/558/58
f 408/561/62 411/562/62 403/559/62
f 405/563/63 410/564/63 402/560/63
f 406/554/59 413/565/59 405/563/59
f 407/566/56 416/567/56 408/561/56
f 410/568/55 414/569/55 411/570/55
f 435/571/55 433/572/55 434/573/55
f 427/574/55 425/575/55 426/576/55
f 423/577/57 428/578/57 424/579/57
f 422/580/58 426/576/58 421/581/58
f 424/579/59 427/574/59 422/580/59
f 421/581/56 425/582/56 423/583/56
f 431/584/57 436/585/57 432/586/57
f 430/587/58 434/573/58 429/588/58
f 432/586/59 435/571/59 430/587/59
f 429/588/56 433/589/56 431/590/56
f 451/591/55 449/592/55 450/593/55
f 443/594/55 441/595/55 442/596/55
f 439/597/57 444/598/57 440/599/57
f 438/600/58 442/596/58 437/601/58
f 440/599/59 443/594/59 438/600/59
f 437/601/56 441/602/56 439/603/56
f 447/604/57 452/605/57 448/606/57
f 446/607/58 450/593/58 445/608/58
f 448/606/59 451/591/59 446/607/59
f 445/608/56 449/609/56 447/610/56
f 467/611/55 465/612/55 466/613/55
f 459/614/55 457/615/55 458/616/55
f 455/617/56 460/618/56 456/619/56
f 454/620/59 458/616/59 453/621/59
f 456/622/57 459/623/57 454/620/57
f 453/621/58 457/615/58 455/617/58
f 463/624/56 468/625/56 464/626/56
f 462/627/59 466/613/59 461/628/59
f 464/629/57 467/630/57 462/627/57
f 461/628/58 465/612/58 463/624/58
f 483/631/55 481/632/55 482/633/55
f 475/634/55 473/635/55 474/636/55
f 471/637/56 476/638/56 472/639/56
f 470/640/59 474/636/59 469/641/59
f 472/642/57 475/643/57 470/640/57
f 469/641/58 473/635/58 471/637/58
f 479/644/56 484/645/56 480/646/56
f 478/647/59 482/633/59 477/648/59
f 480/649/57 483/650/57 478/647/57
f 477/648/58 481/632/58 479/644/58
f 492/651/60 486/652/60 420/653/60
f 489/654/61 487/655/61 417/656/61
f 490/657/59 420/653/59 418/658/59
f 495/659/58 485/660/58 487/661/58
f 485/660/63 490/662/63 418/663/63
f 488/664/62 491/665/62 419/666/62
f 491/667/56 417/656/56 419/668/56
f 494/669/57 488/664/57 486/670/57
f 508/671/60 502/672/60 500/673/60
f 505/674/61 503/675/61 497/676/61
f 506/677/59 500/673/59 498/678/59
f 511/679/58 501/680/58 503/681/58
f 501/680/63 506/682/63 498/683/63
f 504/684/62 507/685/62 499/686/62
f 507/687/56 497/676/56 499/688/56
f 510/689/57 504/684/57 502/690/57
f 524/691/59 526/692/59 522/693/59
f 521/694/56 527/695/56 523/696/56
f 516/697/59 518/698/59 514/699/59
f 513/700/56 519/701/56 515/702/56
f 515/702/57 520/703/57 516/704/57
f 514/699/58 517/705/58 513/700/58
f 523/706/57 528/707/57 524/691/57
f 522/693/58 525/708/58 521/694/58
f 540/709/59 542/710/59 538/711/59
f 537/712/56 543/713/56 539/714/56
f 532/715/59 534/716/59 530/717/59
f 529/718/56 535/719/56 531/720/56
f 531/720/57 536/721/57 532/715/57
f 530/722/58 533/723/58 529/718/58
f 539/714/57 544/724/57 540/709/57
f 538/711/58 541/725/58 537/726/58
f 550/727/59 548/728/59 546/729/59
f 547/730/59 549/731/59 545/732/59
f 558/733/59 556/734/59 554/735/59
f 555/736/59 557/737/59 553/738/59
f 566/739/56 564/740/56 568/741/56
f 563/742/56 565/743/56 567/744/56
f 574/745/56 572/746/56 576/747/56
f 571/748/56 573/749/56 575/750/56
f 582/751/58 580/752/58 578/753/58
f 579/754/58 581/755/58 577/756/58
f 590/757/58 588/758/58 586/759/58
f 587/760/58 589/761/58 585/762/58
f 598/763/57 596/764/57 600/765/57
f 595/766/57 597/767/57 599/768/57
f 606/769/57 604/770/57 608/771/57
f 603/772/57 605/773/57 607/774/57
f 617/775/58 611/776/58 619/777/58
f 624/778/59 614/779/59 622/780/59
f 614/781/63 617/775/63 622/782/63
f 615/783/62 620/784/62 623/785/62
f 620/784/57 610/786/57 618/787/57
f 621/788/56 615/789/56 623/790/56
f 618/791/60 616/792/60 624/778/60
f 619/793/61 613/794/61 621/788/61
f 633/795/58 627/796/58 635/797/58
f 640/798/59 630/799/59 638/800/59
f 630/801/63 633/795/63 638/802/63
f 631/803/62 636/804/62 639/805/62
f 636/804/57 626/806/57 634/807/57
f 637/808/56 631/809/56 639/810/56
f 634/811/60 632/812/60 640/798/60
f 635/813/61 629/814/61 637/808/61
f 644/815/58 646/816/58 642/817/58
f 645/818/58 643/819/58 641/820/58
f 652/821/58 654/822/58 650/823/58
f 653/824/58 651/825/58 649/826/58
f 660/827/57 662/828/57 664/829/57
f 661/830/57 659/831/57 663/832/57
f 668/833/57 670/834/57 672/835/57
f 669/836/57 667/837/57 671/838/57
f 676/839/59 678/840/59 674/841/59
f 677/842/59 675/843/59 673/844/59
f 684/845/59 686/846/59 682/847/59
f 685/848/59 683/849/59 681/850/59
f 692/851/56 694/852/56 696/853/56
f 693/854/56 691/855/56 695/856/56
f 700/857/56 702/858/56 704/859/56
f 701/860/56 699/861/56 703/862/56
f 387/523/54 388/863/54 386/524/54
f 390/526/55 392/864/55 391/527/55
f 385/529/56 389/865/56 391/530/56
f 387/532/57 391/866/57 392/533/57
f 386/524/58 390/526/58 389/528/58
f 388/535/59 392/867/59 390/536/59
f 395/538/54 396/868/54 394/539/54
f 398/541/55 400/869/55 399/542/55
f 393/544/56 397/870/56 399/545/56
f 395/547/57 399/871/57 400/548/57
f 394/539/58 398/541/58 397/543/58
f 396/550/59 400/872/59 398/551/59
f 412/553/60 414/873/60 406/554/60
f 409/556/61 415/874/61 407/557/61
f 403/559/57 411/562/57 412/553/57
f 402/560/58 410/564/58 409/556/58
f 408/561/62 416/567/62 411/562/62
f 405/563/63 413/565/63 410/564/63
f 406/554/59 414/873/59 413/565/59
f 407/566/56 415/875/56 416/567/56
f 411/570/55 416/876/55 415/877/55
f 415/877/55 409/878/55 410/568/55
f 410/568/55 413/879/55 414/569/55
f 414/569/55 412/880/55 411/570/55
f 411/570/55 415/877/55 410/568/55
f 435/571/55 436/881/55 433/572/55
f 427/574/55 428/882/55 425/575/55
f 423/577/57 425/883/57 428/578/57
f 422/580/58 427/574/58 426/576/58
f 424/579/59 428/578/59 427/574/59
f 421/581/56 426/576/56 425/582/56
f 431/584/57 433/884/57 436/585/57
f 430/587/58 435/571/58 434/573/58
f 432/586/59 436/585/59 435/571/59
f 429/588/56 434/573/56 433/589/56
f 451/591/55 452/885/55 449/592/55
f 443/594/55 444/886/55 441/595/55
f 439/597/57 441/887/57 444/598/57
f 438/600/58 443/594/58 442/596/58
f 440/599/59 444/598/59 443/594/59
f 437/601/56 442/596/56 441/602/56
f 447/604/57 449/888/57 452/605/57
f 446/607/58 451/591/58 450/593/58
f 448/606/59 452/605/59 451/591/59
f 445/608/56 450/593/56 449/609/56
f 467/611/55 468/889/55 465/612/55
f 459/614/55 460/890/55 457/615/55
f 455/617/56 457/615/56 460/618/56
f 454/620/59 459/623/59 458/616/59
f 456/622/57 460/891/57 459/623/57
f 453/621/58 458/616/58 457/615/58
f 463/624/56 465/612/56 468/625/56
f 462/627/59 467/630/59 466/613/59
f 464/629/57 468/892/57 467/630/57
f 461/628/58 466/613/58 465/612/58
f 483/631/55 484/893/55 481/632/55
f 475/634/55 476/894/55 473/635/55
f 471/637/56 473/635/56 476/638/56
f 470/640/59 475/643/59 474/636/59
f 472/642/57 476/895/57 475/643/57
f 469/641/58 474/636/58 473/635/58
f 479/644/56 481/632/56 484/645/56
f 478/647/59 483/650/59 482/633/59
f 480/649/57 484/896/57 483/650/57
f 477/648/58 482/633/58 481/632/58
f 492/651/60 494/897/60 486/652/60
f 489/654/61 495/898/61 487/655/61
f 490/657/59 492/651/59 420/653/59
f 495/659/58 493/899/58 485/660/58
f 485/660/63 493/899/63 490/662/63
f 488/664/62 496/900/62 491/665/62
f 491/667/56 489/654/56 417/656/56
f 494/669/57 496/900/57 488/664/57
f 508/671/60 510/901/60 502/672/60
f 505/674/61 511/902/61 503/675/61
f 506/677/59 508/671/59 500/673/59
f 511/679/58 509/903/58 501/680/58
f 501/680/63 509/903/63 506/682/63
f 504/684/62 512/904/62 507/685/62
f 507/687/56 505/674/56 497/676/56
f 510/689/57 512/904/57 504/684/57
f 524/691/59 528/707/59 526/692/59
f 521/694/56 525/708/56 527/695/56
f 516/697/59 520/905/59 518/698/59
f 513/700/56 517/705/56 519/701/56
f 515/702/57 519/701/57 520/703/57
f 514/699/58 518/698/58 517/705/58
f 523/706/57 527/906/57 528/707/57
f 522/693/58 526/692/58 525/708/58
f 540/709/59 544/724/59 542/710/59
f 537/712/56 541/907/56 543/713/56
f 532/715/59 536/721/59 534/716/59
f 529/718/56 533/723/56 535/719/56
f 531/720/57 535/719/57 536/721/57
f 530/722/58 534/908/58 533/723/58
f 539/714/57 543/713/57 544/724/57
f 538/711/58 542/710/58 541/725/58
f 550/727/59 552/909/59 548/728/59
f 547/730/59 551/910/59 549/731/59
f 558/733/59 560/911/59 556/734/59
f 555/736/59 559/912/59 557/737/59
f 566/739/56 562/913/56 564/740/56
f 563/742/56 561/914/56 565/743/56
f 574/745/56 570/915/56 572/746/56
f 571/748/56 569/916/56 573/749/56
f 582/751/58 584/917/58 580/752/58
f 579/754/58 583/918/58 581/755/58
f 590/757/58 592/919/58 588/758/58
f 587/760/58 591/920/58 589/761/58
f 598/763/57 594/921/57 596/764/57
f 595/766/57 593/922/57 597/767/57
f 606/769/57 602/923/57 604/770/57
f 603/772/57 601/924/57 605/773/57
f 617/775/58 609/925/58 611/776/58
f 624/778/59 616/792/59 614/779/59
f 614/781/63 609/925/63 617/775/63
f 615/783/62 612/926/62 620/784/62
f 620/784/57 612/926/57 610/786/57
f 621/788/56 613/794/56 615/789/56
f 618/791/60 610/927/60 616/792/60
f 619/793/61 611/928/61 613/794/61
f 633/795/58 625/929/58 627/796/58
f 640/798/59 632/812/59 630/799/59
f 630/801/63 625/929/63 633/795/63
f 631/803/62 628/930/62 636/804/62
f 636/804/57 628/930/57 626/806/57
f 637/808/56 629/814/56 631/809/56
f 634/811/60 626/931/60 632/812/60
f 635/813/61 627/932/61 629/814/61
f 644/815/58 648/933/58 646/816/58
f 645/818/58 647/934/58 643/819/58
f 652/821/58 656/935/58 654/822/58
f 653/824/58 655/936/58 651/825/58
f 660/827/57 658/937/57 662/828/57
f 661/830/57 657/938/57 659/831/57
f 668/833/57 666/939/57 670/834/57
f 669/836/57 665/940/57 667/837/57
f 676/839/59 680/941/59 678/840/59
f 677/842/59 679/942/59 675/843/59
f 684/845/59 688/943/59 686/846/59
f 685/848/59 687/944/59 683/849/59
f 692/851/56 690/945/56 694/852/56
f 693/854/56 689/946/56 691/855/56
f 700/857/56 698/947/56 702/858/56
f 701/860/56 697/948/56 699/861/56
