mtllib radar.mtl
# Blender v2.79 (sub 0) OBJ File: 'radar.blend'
# www.blender.org
usemtl hbm
v -0.500000 1.250000 0.500000
v -0.500000 2.250000 0.500000
v -0.500000 1.250000 -0.500000
v -0.500000 2.250000 -0.500000
v -0.250000 1.500000 -1.500000
v -0.250000 2.000000 -1.500000
v -0.250000 1.500000 1.500000
v -0.250000 2.000000 1.500000
v -0.500000 1.750000 0.250000
v -0.500000 1.750000 -0.250000
v -0.500000 1.750000 -0.125000
v -0.500000 1.750000 0.125000
v -0.625000 1.625000 0.250000
v -0.625000 1.625000 -0.250000
v -0.625000 1.625000 -0.125000
v -0.625000 1.625000 0.125000
v -0.625000 1.250000 0.250000
v -0.625000 1.250000 -0.250000
v -0.625000 1.250000 -0.125000
v -0.625000 1.250000 0.125000
v -0.500000 1.125000 0.250000
v -0.500000 1.125000 -0.250000
v -0.500000 1.125000 -0.125000
v -0.500000 1.125000 0.125000
v -0.500000 1.251000 0.250000
v -0.500000 1.251000 -0.250000
v -0.500000 1.251000 -0.125000
v -0.500000 1.251000 0.125000
v -0.250000 1.251000 0.250000
v -0.250000 1.251000 -0.250000
v -0.250000 1.251000 -0.125000
v -0.250000 1.251000 0.125000
v 0.250000 1.251000 0.250000
v -0.125000 1.251000 0.000000
v 0.250000 1.251000 -0.250000
v 0.500000 1.251000 0.062500
v 0.500000 1.251000 -0.062500
v -0.250000 1.126000 0.250000
v -0.250000 1.126000 -0.250000
v 0.250000 1.126000 0.250000
v 0.250000 1.126000 -0.250000
v -0.250000 1.126000 -0.125000
v -0.250000 1.126000 0.125000
v -0.125000 1.126000 0.000000
v 0.500000 1.126000 0.062500
v 0.500000 1.126000 -0.062500
v 0.562500 1.251000 0.062500
v 0.562500 1.626000 0.062500
v 0.562500 1.251000 -0.062500
v 0.562500 1.626000 -0.062500
v 0.687500 1.251000 0.062500
v 0.687500 1.626000 0.062500
v 0.687500 1.626000 -0.062500
v 0.500000 1.251000 0.000000
v 0.500000 1.626000 0.000000
v 0.750000 1.251000 0.000000
v 0.750000 1.626000 0.000000
v 0.687500 1.251000 -0.062500
v 0.687500 1.219750 0.062500
v 0.687500 1.219750 -0.062500
vt 0.666667 0.333333
vt 0.333333 0.000000
vt 0.666667 0.000000
vt 1.000000 0.250000
vt 0.333333 0.333333
vt 0.000000 0.083333
vt 0.166667 0.916667
vt 0.208333 0.979167
vt 0.166667 0.979167
vt 0.041667 0.979167
vt 0.083333 0.916667
vt 0.083333 0.979167
vt 0.166667 0.812500
vt 0.208333 0.916667
vt 0.041667 0.916667
vt 0.083333 0.812500
vt 0.166667 0.750000
vt 0.208333 0.812500
vt 0.041667 0.812500
vt 0.083333 0.750000
vt 0.250000 0.666667
vt 0.291667 0.750000
vt 0.250000 0.750000
vt 0.375000 0.750000
vt 0.416667 0.666667
vt 0.416667 0.750000
vt 0.333333 0.625000
vt 0.291667 0.666667
vt 0.416667 0.500000
vt 0.333333 0.416667
vt 0.250000 0.500000
vt 0.458333 0.666667
vt 0.208333 0.500000
vt 0.333333 0.708333
vt 0.375000 0.666667
vt 0.375000 0.708333
vt 0.291667 0.708333
vt 0.333333 0.666667
vt 0.250000 0.770833
vt 0.250000 0.812500
vt 0.125000 0.770833
vt 0.125000 0.812500
vt 0.125000 0.812500
vt 0.000000 0.812500
vt 0.125000 0.750000
vt 0.083333 0.666667
vt 0.125000 0.666667
vt 0.166667 0.666667
vt 0.125000 0.750000
vt 0.125000 0.666667
vt 0.208333 0.666667
vt 0.041667 0.750000
vt 0.208333 0.750000
vt 0.125000 0.625000
vt 0.041667 0.666667
vt 0.041667 0.500000
vt 0.104167 0.416667
vt 0.208333 0.416667
vt 0.250000 0.416667
vt 0.458333 0.416667
vt 0.416667 0.416667
vt 0.416667 0.354167
vt 0.416667 0.333333
vt 0.437500 0.354167
vt 0.479167 0.437500
vt 0.520833 0.437500
vt 0.520833 0.479167
vt 0.416667 0.395833
vt 0.104167 0.354167
vt 0.125000 0.333333
vt 0.145833 0.354167
vt 0.145833 0.416667
vt 0.354167 0.416667
vt 0.354167 0.395833
vt 0.312500 0.416667
vt 0.312500 0.395833
vt 0.250000 0.333333
vt 0.250000 0.354167
vt 0.229167 0.354167
vt 0.250000 0.395833
vt 0.604167 0.333333
vt 0.625000 0.437500
vt 0.604167 0.437500
vt 0.458333 0.437500
vt 0.479167 0.333333
vt 0.520833 0.333333
vt 0.541667 0.333333
vt 0.562500 0.437500
vt 0.541667 0.437500
vt 0.562500 0.333333
vt 1.000000 0.083333
vt 0.000000 0.250000
vt 0.375000 0.666667
vt 0.458333 0.500000
vt 0.291667 0.666667
vt 0.250000 0.958333
vt 0.125000 0.958333
vt 0.125000 0.958333
vt 0.125000 0.770833
vt 0.000000 0.958333
vt 0.000000 0.770833
vt 0.458333 0.750000
vt 0.541667 0.458333
vt 0.479167 0.479167
vt 0.458333 0.458333
vt 0.625000 0.333333
vt 0.458333 0.333333
vn 1.0000 0.0000 0.0000
vn 0.9701 0.0000 0.2425
vn 0.9701 0.0000 -0.2425
vn -0.7071 0.7071 0.0000
vn -1.0000 0.0000 0.0000
vn -0.7071 -0.7071 0.0000
vn 0.0000 1.0000 0.0000
vn 0.0000 0.0000 -1.0000
vn 0.0000 0.0000 1.0000
vn -0.7071 0.0000 -0.7071
vn -0.7071 0.0000 0.7071
vn 0.0040 -1.0000 0.0000
vn 0.0000 -1.0000 0.0000
vn 0.6000 0.0000 0.8000
vn 0.6000 0.0000 -0.8000
vn 0.7071 0.0000 -0.7071
vn 0.4472 -0.8944 0.0000
vn 0.7071 0.0000 0.7071
v -0.500000 0.000000 0.500000
v -0.500000 0.125000 0.500000
v -0.500000 0.000000 -0.500000
v -0.500000 0.125000 -0.500000
v 0.500000 0.000000 0.500000
v 0.500000 0.125000 0.500000
v 0.500000 0.000000 -0.500000
v 0.500000 0.125000 -0.500000
v -0.500000 0.312500 0.187500
v -0.500000 0.687500 0.187500
v -0.500000 0.312500 -0.187500
v -0.500000 0.687500 -0.187500
v 0.500000 0.312500 0.187500
v 0.500000 0.687500 0.187500
v 0.500000 0.312500 -0.187500
v 0.500000 0.687500 -0.187500
v 0.187500 0.312500 0.500000
v 0.187500 0.687500 0.500000
v -0.187500 0.312500 0.500000
v -0.187500 0.687500 0.500000
v 0.187500 0.312500 -0.500000
v 0.187500 0.687500 -0.500000
v -0.187500 0.312500 -0.500000
v -0.187500 0.687500 -0.500000
v -0.375000 0.312500 0.187500
v -0.375000 0.312500 -0.187500
v -0.375000 0.687500 -0.187500
v -0.375000 0.687500 0.187500
v 0.375000 0.312500 -0.187500
v 0.375000 0.312500 0.187500
v 0.375000 0.687500 0.187500
v 0.375000 0.687500 -0.187500
v 0.187500 0.312500 0.375000
v -0.187500 0.312500 0.375000
v -0.187500 0.687500 0.375000
v 0.187500 0.687500 0.375000
v -0.187500 0.312500 -0.375000
v 0.187500 0.312500 -0.375000
v 0.187500 0.687500 -0.375000
v -0.187500 0.687500 -0.375000
v -0.312500 1.000000 0.312500
v -0.312500 1.000000 -0.312500
v 0.312500 1.000000 0.312500
v 0.312500 1.000000 -0.312500
v 0.437500 1.000000 -0.437500
v 0.437500 1.000000 0.437500
v -0.437500 1.000000 -0.437500
v -0.437500 1.000000 0.437500
v 0.437500 0.125000 0.437500
v 0.437500 0.125000 0.312500
v 0.312500 0.125000 0.437500
v 0.437500 0.875000 0.437500
v 0.437500 0.875000 0.312500
v 0.312500 0.875000 0.437500
v 0.437500 0.125000 -0.312500
v 0.437500 0.125000 -0.437500
v 0.312500 0.125000 -0.437500
v 0.437500 0.875000 -0.312500
v 0.437500 0.875000 -0.437500
v 0.312500 0.875000 -0.437500
v -0.312500 0.125000 0.437500
v -0.437500 0.125000 0.437500
v -0.437500 0.125000 0.312500
v -0.312500 0.875000 0.437500
v -0.437500 0.875000 0.437500
v -0.437500 0.875000 0.312500
v -0.312500 0.125000 -0.437500
v -0.437500 0.125000 -0.312500
v -0.437500 0.125000 -0.437500
v -0.312500 0.875000 -0.437500
v -0.437500 0.875000 -0.312500
v -0.437500 0.875000 -0.437500
v 0.312500 0.125000 0.375000
v -0.312500 0.125000 0.375000
v 0.312500 0.875000 0.375000
v -0.312500 0.875000 0.375000
v 0.312500 0.125000 -0.375000
v 0.312500 0.875000 -0.375000
v -0.312500 0.125000 -0.375000
v -0.312500 0.875000 -0.375000
v 0.375000 0.125000 0.312500
v 0.375000 0.875000 0.312500
v 0.375000 0.125000 -0.312500
v 0.375000 0.875000 -0.312500
v -0.375000 0.125000 0.312500
v -0.375000 0.875000 0.312500
v -0.375000 0.125000 -0.312500
v -0.375000 0.875000 -0.312500
v 0.312500 1.062500 0.312500
v -0.312500 1.062500 0.312500
v 0.312500 1.062500 -0.312500
v -0.312500 1.062500 -0.312500
v -0.156250 1.062500 0.156250
v -0.156250 1.062500 -0.156250
v 0.156250 1.062500 0.156250
v 0.156250 1.062500 -0.156250
v -0.156250 1.125000 0.156250
v -0.156250 1.125000 -0.156250
v 0.156250 1.125000 -0.156250
v 0.156250 1.125000 0.156250
vt -0.000000 0.380952
vt 0.400000 0.428571
vt -0.000000 0.428571
vt -0.000000 0.380952
vt 0.400000 0.428571
vt -0.000000 0.428571
vt 0.400000 0.428571
vt -0.000000 0.380952
vt 0.400000 0.380952
vt 0.400000 0.428571
vt -0.000000 0.380952
vt 0.400000 0.380952
vt 0.000000 0.000000
vt 0.400000 -0.000000
vt 0.700000 0.047619
vt 0.450000 0.023810
vt 0.700000 0.023810
vt 0.275000 0.690476
vt 0.125000 0.547619
vt 0.275000 0.547619
vt 0.275000 0.547619
vt 0.125000 0.690476
vt 0.125000 0.547619
vt 0.275000 0.547619
vt 0.125000 0.690476
vt 0.125000 0.547619
vt 0.275000 0.690476
vt 0.125000 0.547619
vt 0.275000 0.547619
vt 0.125000 0.500000
vt 0.075000 0.690476
vt 0.275000 0.738095
vt 0.275000 0.690476
vt 0.325000 0.547619
vt 0.125000 0.500000
vt 0.075000 0.690476
vt 0.125000 0.690476
vt 0.275000 0.738095
vt 0.325000 0.547619
vt 0.125000 0.500000
vt 0.075000 0.690476
vt 0.275000 0.738095
vt 0.275000 0.690476
vt 0.325000 0.547619
vt 0.125000 0.500000
vt 0.075000 0.690476
vt 0.125000 0.690476
vt 0.275000 0.738095
vt 0.325000 0.547619
vt 0.425000 0.690476
vt 0.400000 0.976190
vt 0.400000 0.690476
vt 0.425000 0.690476
vt 0.400000 0.976190
vt 0.400000 0.690476
vt 0.525000 0.976190
vt 0.550000 0.690476
vt 0.550000 0.976190
vt 0.550000 0.976190
vt 0.525000 0.690476
vt 0.550000 0.690476
vt 0.400000 0.690476
vt 0.425000 0.976190
vt 0.400000 0.976190
vt 0.750000 0.428571
vt 0.400000 0.095238
vt 0.750000 0.095238
vt 0.525000 0.976190
vt 0.550000 0.690476
vt 0.550000 0.976190
vt 0.475000 0.690476
vt 0.425000 0.690476
vt 0.375000 0.738095
vt 0.375000 0.500000
vt 0.425000 0.690476
vt 0.400000 0.976190
vt 0.400000 0.690476
vt 0.475000 0.976190
vt 0.700000 0.023810
vt 0.450000 0.047619
vt 0.450000 0.023810
vt 0.525000 0.690476
vt 0.475000 0.976190
vt 0.475000 0.690476
vt 0.425000 0.976190
vt 0.000000 0.809524
vt 0.075000 0.785714
vt 0.325000 0.785714
vt 0.525000 0.690476
vt 0.475000 0.976190
vt 0.475000 0.690476
vt 0.425000 0.976190
vt -0.000000 0.428571
vt 0.025000 0.500000
vt 0.025000 0.738095
vt 0.550000 0.976190
vt 0.525000 0.690476
vt 0.550000 0.690476
vt 0.475000 0.976190
vt 0.475000 0.690476
vt 0.425000 0.976190
vt 0.325000 0.452381
vt 0.075000 0.452381
vt 1.000000 0.285714
vt 0.750000 0.000000
vt 1.000000 0.000000
vt 1.000000 0.000000
vt 0.750000 0.285714
vt 0.750000 0.000000
vt 1.000000 0.000000
vt 0.750000 0.285714
vt 0.750000 0.000000
vt 1.000000 0.285714
vt 0.750000 0.000000
vt 1.000000 0.000000
vt 0.700000 0.047619
vt 0.450000 0.023810
vt 0.700000 0.023810
vt 0.700000 0.023810
vt 0.450000 0.047619
vt 0.450000 0.023810
vt 0.700000 0.047619
vt 0.400000 0.095238
vt 0.700000 0.047619
vt 0.750000 0.047619
vt 0.750000 0.095238
vt 0.750000 0.047619
vt 0.750000 0.095238
vt 0.400000 0.452381
vt 0.650000 0.690476
vt 0.400000 0.690476
vt 0.400000 0.428571
vt 0.650000 0.452381
vt 0.400000 0.452381
vt 0.400000 0.428571
vt 0.650000 0.452381
vt 0.400000 0.452381
vt 0.650000 0.452381
vt 0.400000 0.428571
vt 0.650000 0.428571
vt 0.650000 0.452381
vt 0.400000 0.428571
vt 0.650000 0.428571
vt 0.875000 0.285714
vt 0.750000 0.309524
vt 0.750000 0.285714
vt 0.750000 0.309524
vt 0.875000 0.285714
vt 0.875000 0.309524
vt 0.875000 0.285714
vt 0.750000 0.309524
vt 0.750000 0.285714
vt 0.750000 0.309524
vt 0.875000 0.285714
vt 0.875000 0.309524
vt 0.400000 0.380952
vt 0.400000 0.380952
vt -0.000000 0.428571
vt 0.450000 0.047619
vt 0.275000 0.500000
vt 0.075000 0.547619
vt 0.125000 0.738095
vt 0.325000 0.690476
vt 0.275000 0.500000
vt 0.075000 0.547619
vt 0.125000 0.738095
vt 0.325000 0.690476
vt 0.275000 0.500000
vt 0.075000 0.547619
vt 0.125000 0.738095
vt 0.325000 0.690476
vt 0.275000 0.500000
vt 0.075000 0.547619
vt 0.125000 0.738095
vt 0.325000 0.690476
vt 0.525000 0.976190
vt 0.400000 0.428571
vt 0.400000 0.809524
vt 0.375000 0.785714
vt 0.350000 0.738095
vt 0.350000 0.500000
vt 0.375000 0.452381
vt 0.025000 0.785714
vt 0.075000 0.761905
vt 0.325000 0.761905
vt 0.025000 0.452381
vt 0.050000 0.500000
vt 0.050000 0.738095
vt 0.525000 0.976190
vt 0.325000 0.476190
vt 0.075000 0.476190
vt 0.750000 0.285714
vt 1.000000 0.285714
vt 1.000000 0.285714
vt 0.750000 0.285714
vt 0.450000 0.047619
vt 0.750000 0.047619
vt 0.400000 0.047619
vt 0.750000 0.047619
vt 0.750000 0.095238
vt 0.400000 0.047619
vt 0.400000 0.095238
vt 0.400000 0.047619
vt 0.400000 0.095238
vt 0.400000 0.047619
vt 0.650000 0.428571
vt 0.650000 0.428571
vt 0.400000 0.452381
vt 0.875000 0.309524
vt 0.750000 0.285714
vt 0.875000 0.309524
vt 0.750000 0.285714
vn -1.0000 0.0000 0.0000
vn 0.0000 0.0000 -1.0000
vn 1.0000 0.0000 0.0000
vn 0.0000 0.0000 1.0000
vn 0.0000 -1.0000 0.0000
vn 0.0000 1.0000 0.0000
o Base
f 62/108/19 63/109/19 61/110/19
f 64/111/20 67/112/20 63/113/20
f 68/114/21 65/115/21 67/116/21
f 66/117/22 61/118/22 65/119/22
f 67/116/23 61/120/23 63/121/23
f 114/122/23 136/123/23 135/124/23
f 84/125/20 81/126/20 83/127/20
f 69/128/19 72/129/19 71/130/19
f 77/131/22 80/132/22 79/133/22
f 76/134/21 73/135/21 75/136/21
f 86/137/23 69/128/23 71/130/23
f 87/138/20 71/130/20 72/129/20
f 88/139/24 72/129/24 70/140/24
f 85/141/22 70/140/22 69/128/22
f 90/142/23 75/136/23 73/135/23
f 91/143/22 73/135/22 74/144/22
f 92/145/24 74/144/24 76/134/24
f 89/146/20 76/134/20 75/136/20
f 94/147/23 77/131/23 79/133/23
f 95/148/19 79/133/19 80/132/19
f 96/149/24 80/132/24 78/150/24
f 93/151/21 78/150/21 77/131/21
f 98/152/23 83/127/23 81/126/23
f 99/153/21 81/126/21 82/154/21
f 100/155/24 82/154/24 84/125/24
f 97/156/19 84/125/19 83/127/19
f 115/157/22 144/158/22 143/159/22
f 123/160/20 146/161/20 145/162/20
f 120/163/19 137/164/19 138/165/19
f 142/166/20 110/167/20 141/168/20
f 133/169/19 114/170/19 135/171/19
f 107/172/24 106/173/24 105/174/24
f 124/175/21 134/176/21 136/177/21
f 109/178/22 114/170/22 111/179/22
f 127/180/24 117/181/24 68/114/24
f 127/182/21 140/183/21 139/184/21
f 110/167/21 112/185/21 109/178/21
f 144/186/23 113/187/23 142/188/23
f 117/189/20 119/190/20 116/191/20
f 116/191/21 118/192/21 115/157/21
f 62/193/24 123/194/24 128/195/24
f 121/196/22 125/197/22 122/198/22
f 122/198/19 126/199/19 123/160/19
f 66/200/24 111/201/24 121/202/24
f 148/203/22 128/204/22 147/205/22
f 128/204/19 132/206/19 129/207/19
f 129/207/20 130/208/20 127/182/20
f 115/209/24 110/210/24 66/200/24
f 135/211/22 134/212/22 133/213/22
f 139/214/20 138/215/20 137/216/20
f 143/217/21 142/218/21 141/219/21
f 146/220/19 147/221/19 145/222/19
f 126/223/23 148/224/23 146/225/23
f 140/226/23 120/227/23 138/228/23
f 106/173/21 113/187/21 118/229/21
f 105/230/20 120/227/20 130/231/20
f 126/223/19 125/232/19 108/233/19
f 114/122/22 112/234/22 106/235/22
f 149/236/24 152/237/24 150/238/24
f 150/239/19 102/240/19 101/241/19
f 152/242/20 104/243/20 102/244/20
f 151/245/21 103/246/21 104/247/21
f 149/248/22 101/249/22 103/250/22
f 156/251/21 160/252/21 155/253/21
f 153/254/19 158/255/19 154/256/19
f 155/257/22 157/258/22 153/259/22
f 154/260/20 159/261/20 156/262/20
f 62/108/19 64/263/19 63/109/19
f 64/111/20 68/264/20 67/112/20
f 68/114/21 66/200/21 65/115/21
f 66/117/22 62/265/22 61/118/22
f 67/116/23 65/115/23 61/120/23
f 114/122/23 124/266/23 136/123/23
f 84/125/20 82/154/20 81/126/20
f 69/128/19 70/140/19 72/129/19
f 77/131/22 78/150/22 80/132/22
f 76/134/21 74/144/21 73/135/21
f 86/137/23 85/267/23 69/128/23
f 87/138/20 86/268/20 71/130/20
f 88/139/24 87/269/24 72/129/24
f 85/141/22 88/270/22 70/140/22
f 90/142/23 89/271/23 75/136/23
f 91/143/22 90/272/22 73/135/22
f 92/145/24 91/273/24 74/144/24
f 89/146/20 92/274/20 76/134/20
f 94/147/23 93/275/23 77/131/23
f 95/148/19 94/276/19 79/133/19
f 96/149/24 95/277/24 80/132/24
f 93/151/21 96/278/21 78/150/21
f 98/152/23 97/279/23 83/127/23
f 99/153/21 98/280/21 81/126/21
f 100/155/24 99/281/24 82/154/24
f 97/156/19 100/282/19 84/125/19
f 115/157/22 118/192/22 144/158/22
f 123/160/20 126/199/20 146/161/20
f 120/163/19 117/189/19 137/164/19
f 142/166/20 113/283/20 110/167/20
f 133/169/19 111/179/19 114/170/19
f 107/172/24 108/284/24 106/173/24
f 124/175/21 121/196/21 134/176/21
f 109/178/22 112/185/22 114/170/22
f 68/114/24 64/285/24 127/180/24
f 64/285/24 129/286/24 127/180/24
f 127/180/24 139/287/24 137/288/24
f 117/181/24 116/289/24 68/114/24
f 127/180/24 137/288/24 117/181/24
f 127/182/21 130/208/21 140/183/21
f 110/167/21 113/283/21 112/185/21
f 144/186/23 118/229/23 113/187/23
f 117/189/20 120/163/20 119/190/20
f 116/191/21 119/190/21 118/192/21
f 129/286/24 64/285/24 128/195/24
f 64/285/24 62/193/24 128/195/24
f 62/193/24 122/290/24 123/194/24
f 123/194/24 145/291/24 147/292/24
f 123/194/24 147/292/24 128/195/24
f 121/196/22 124/175/22 125/197/22
f 122/198/19 125/197/19 126/199/19
f 122/290/24 62/193/24 121/202/24
f 62/193/24 66/200/24 121/202/24
f 66/200/24 109/293/24 111/201/24
f 111/201/24 133/294/24 134/295/24
f 111/201/24 134/295/24 121/202/24
f 148/203/22 131/296/22 128/204/22
f 128/204/19 131/296/19 132/206/19
f 129/207/20 132/206/20 130/208/20
f 66/200/24 68/114/24 115/209/24
f 68/114/24 116/289/24 115/209/24
f 115/209/24 143/297/24 141/298/24
f 110/210/24 109/293/24 66/200/24
f 115/209/24 141/298/24 110/210/24
f 135/211/22 136/299/22 134/212/22
f 139/214/20 140/300/20 138/215/20
f 143/217/21 144/301/21 142/218/21
f 146/220/19 148/302/19 147/221/19
f 126/223/23 131/303/23 148/224/23
f 140/226/23 130/231/23 120/227/23
f 119/304/21 105/174/21 118/229/21
f 105/174/21 106/173/21 118/229/21
f 106/173/21 112/305/21 113/187/21
f 132/306/20 107/307/20 130/231/20
f 107/307/20 105/230/20 130/231/20
f 105/230/20 119/308/20 120/227/20
f 108/233/19 107/309/19 131/303/19
f 107/309/19 132/310/19 131/303/19
f 131/303/19 126/223/19 108/233/19
f 106/235/22 108/311/22 124/266/22
f 108/311/22 125/312/22 124/266/22
f 124/266/22 114/122/22 106/235/22
f 149/236/24 151/245/24 152/237/24
f 150/239/19 152/313/19 102/240/19
f 152/242/20 151/314/20 104/243/20
f 151/245/21 149/236/21 103/246/21
f 149/248/22 150/315/22 101/249/22
f 156/251/21 159/316/21 160/252/21
f 153/254/19 157/317/19 158/255/19
f 155/257/22 160/318/22 157/258/22
f 154/260/20 158/319/20 159/261/20
