# Blender v2.79 (sub 0) OBJ File: 'rotary_furnace.blend'
# www.blender.org
v -0.375000 2.000000 1.125000
v -0.375000 2.000000 1.875000
v 0.375000 2.000000 1.875000
v 0.375000 2.000000 1.125000
v -0.375000 3.000000 1.125000
v -0.375000 3.000000 1.875000
v 0.375000 3.000000 1.875000
v 0.375000 3.000000 1.125000
v -0.500000 3.000000 1.000000
v -0.500000 3.000000 2.000000
v 0.500000 3.000000 2.000000
v 0.500000 3.000000 1.000000
v -0.500000 3.250000 1.000000
v -0.500000 3.250000 2.000000
v 0.500000 3.250000 2.000000
v 0.500000 3.250000 1.000000
vt 0.681035 0.815217
vt 0.620690 0.826087
vt 0.629310 0.815217
vt 0.741379 0.847826
vt 0.689655 0.934783
vt 0.689655 0.847826
vt 0.844828 0.847826
vt 0.793103 0.934783
vt 0.793103 0.847826
vt 0.741379 0.934783
vt 0.896552 0.847826
vt 0.844828 0.934783
vt 0.758621 0.826087
vt 0.689655 0.847826
vt 0.689655 0.826087
vt 0.629310 0.750000
vt 0.689655 0.739130
vt 0.681035 0.750000
vt 0.620690 0.739130
vt 0.620690 0.847826
vt 0.689655 0.934783
vt 0.620690 0.934783
vt 0.896552 0.826087
vt 0.827586 0.847826
vt 0.827586 0.826087
vt 0.758621 0.847826
vt 0.896552 0.934783
vt 0.896552 0.847826
vn 0.0000 -1.0000 0.0000
vn 1.0000 0.0000 0.0000
vn -1.0000 0.0000 0.0000
vn 0.0000 0.0000 -1.0000
vn 0.0000 0.0000 1.0000
vn 0.0000 1.0000 0.0000
v -1.500000 0.000000 2.500000
v 1.500000 0.000000 2.500000
v -1.500000 0.000000 -2.500000
v 1.500000 0.000000 -2.500000
v 1.500000 0.750000 -0.500000
v -1.500000 0.500000 2.500000
v 1.500000 0.500000 2.500000
v 1.500000 0.250000 -0.500000
v -1.500000 0.500000 0.500000
v 1.500000 0.500000 0.500000
v 1.500000 1.000000 0.500000
v 1.500000 1.000000 -2.500000
v -1.500000 1.000000 -2.500000
v -1.500000 1.000000 0.500000
v -1.250000 1.000000 -0.500000
v 1.250000 1.000000 -0.500000
v -1.250000 1.000000 -1.500000
v 1.250000 1.000000 -1.500000
v 0.500000 1.000000 0.250000
v 0.500000 1.000000 -2.250000
v -0.500000 1.000000 0.250000
v -0.500000 1.000000 -2.250000
v -1.250000 4.000000 -0.500000
v 1.250000 4.000000 -0.500000
v -1.250000 4.000000 -1.500000
v 1.250000 4.000000 -1.500000
v 0.500000 4.000000 0.250000
v 0.500000 4.000000 -2.250000
v -0.500000 4.000000 0.250000
v -0.500000 4.000000 -2.250000
v -0.500000 4.500000 -1.500000
v -0.500000 4.500000 -0.500000
v 0.500000 4.500000 -1.500000
v 0.500000 4.500000 -0.500000
v 0.500000 1.000000 0.500000
v 1.250000 1.000000 0.500000
v 0.500000 1.000000 0.250000
v 1.250000 1.000000 -0.500000
v 0.500000 3.500000 0.500000
v 1.250000 3.500000 0.500000
v 0.500000 3.500000 0.250000
v 1.250000 3.500000 -0.500000
v -0.500000 5.000000 -1.500000
v -0.500000 5.000000 -0.500000
v 0.500000 5.000000 -1.500000
v 0.500000 5.000000 -0.500000
v 0.500000 4.750000 -1.500000
v 0.500000 4.926777 -1.426777
v 0.500000 5.000000 -1.250000
v 0.500000 4.926777 -1.073223
v 0.500000 4.750000 -1.000000
v 0.500000 4.573223 -1.073223
v 0.500000 4.500000 -1.250000
v 0.500000 4.573223 -1.426777
v 0.625000 4.750000 -1.500000
v 0.625000 4.926777 -1.426777
v 0.625000 5.000000 -1.250000
v 0.625000 4.926777 -1.073223
v 0.625000 4.750000 -1.000000
v 0.625000 4.573223 -1.073223
v 0.625000 4.500000 -1.250000
v 0.625000 4.573223 -1.426777
v 0.801777 4.676777 -1.500000
v 0.926777 4.801777 -1.426777
v 0.978553 4.853553 -1.250000
v 0.926777 4.801777 -1.073223
v 0.801777 4.676777 -1.000000
v 0.676776 4.551776 -1.073223
v 0.676776 4.551776 -1.426777
v 0.875000 4.500000 -1.500000
v 1.051777 4.500000 -1.426777
v 1.125000 4.500000 -1.250000
v 1.051777 4.500000 -1.073223
v 0.875000 4.500000 -1.000000
v 0.698223 4.500000 -1.073223
v 0.698223 4.500000 -1.426777
v 0.625000 4.000000 -1.250000
v 0.875000 4.000000 -1.500000
v 1.051777 4.000000 -1.426777
v 1.125000 4.000000 -1.250000
v 1.051777 4.000000 -1.073223
v 0.875000 4.000000 -1.000000
v 0.698223 4.000000 -1.073223
v 0.698223 4.000000 -1.426777
v 0.500000 4.750000 -1.000000
v 0.500000 4.926777 -0.926777
v 0.500000 5.000000 -0.750000
v 0.500000 4.926777 -0.573223
v 0.500000 4.750000 -0.500000
v 0.500000 4.573223 -0.573223
v 0.500000 4.500000 -0.750000
v 0.500000 4.573223 -0.926777
v 0.625000 4.750000 -1.000000
v 0.625000 4.926777 -0.926777
v 0.625000 5.000000 -0.750000
v 0.625000 4.926777 -0.573223
v 0.625000 4.750000 -0.500000
v 0.625000 4.573223 -0.573223
v 0.625000 4.500000 -0.750000
v 0.625000 4.573223 -0.926777
v 0.801777 4.676777 -1.000000
v 0.926777 4.801777 -0.926777
v 0.978553 4.853553 -0.750000
v 0.926777 4.801777 -0.573223
v 0.801777 4.676777 -0.500000
v 0.676776 4.551776 -0.573223
v 0.676776 4.551776 -0.926777
v 0.875000 4.500000 -1.000000
v 1.051777 4.500000 -0.926777
v 1.125000 4.500000 -0.750000
v 1.051777 4.500000 -0.573223
v 0.875000 4.500000 -0.500000
v 0.698223 4.500000 -0.573223
v 0.698223 4.500000 -0.926777
v 0.625000 4.000000 -0.750000
v 0.875000 4.000000 -1.000000
v 1.051777 4.000000 -0.926777
v 1.125000 4.000000 -0.750000
v 1.051777 4.000000 -0.573223
v 0.875000 4.000000 -0.500000
v 0.698223 4.000000 -0.573223
v 0.698223 4.000000 -0.926777
v 1.125000 3.000000 0.500000
v 1.051777 3.176777 0.500000
v 0.875000 3.250000 0.500000
v 0.698223 3.176777 0.500000
v 0.625000 3.000000 0.500000
v 0.698223 2.823223 0.500000
v 0.875000 2.750000 0.500000
v 1.051777 2.823223 0.500000
v 1.125000 3.000000 0.625000
v 1.051777 3.176777 0.625000
v 0.875000 3.250000 0.625000
v 0.698223 3.176777 0.625000
v 0.625000 3.000000 0.625000
v 0.698223 2.823223 0.625000
v 0.875000 2.750000 0.625000
v 1.051777 2.823223 0.625000
v 1.125000 2.926777 0.801777
v 1.051777 3.051777 0.926777
v 0.875000 3.103553 0.978554
v 0.698223 3.051777 0.926777
v 0.625000 2.926777 0.801777
v 0.698223 2.801776 0.676777
v 1.051777 2.801776 0.676777
v 1.125000 2.750000 0.875000
v 1.051777 2.750000 1.051777
v 0.875000 2.750000 1.125000
v 0.698223 2.750000 1.051777
v 0.625000 2.750000 0.875000
v 0.698223 2.750000 0.698223
v 1.051777 2.750000 0.698223
v 0.875000 1.000000 0.625000
v 1.125000 1.000000 0.875000
v 1.051777 1.000000 1.051777
v 0.875000 1.000000 1.125000
v 0.698223 1.000000 1.051777
v 0.625000 1.000000 0.875000
v 0.698223 1.000000 0.698223
v 1.051777 1.000000 0.698223
v 0.875000 0.646447 0.771447
v 1.125000 0.823223 0.948224
v 1.051777 0.948223 1.073224
v 0.698223 0.948223 1.073224
v 0.625000 0.823223 0.948224
v 0.698223 0.698223 0.823223
v 1.051777 0.698223 0.823223
v 0.875000 0.500000 1.125000
v 1.125000 0.750000 1.125000
v 1.051777 0.926777 1.125000
v 0.698223 0.926777 1.125000
v 0.625000 0.750000 1.125000
v 0.698223 0.573223 1.125000
v 1.051777 0.573223 1.125000
v 1.125000 2.250000 0.500000
v 1.051777 2.426777 0.500000
v 0.875000 2.500000 0.500000
v 0.698223 2.426777 0.500000
v 0.625000 2.250000 0.500000
v 0.698223 2.073223 0.500000
v 0.875000 2.000000 0.500000
v 1.051777 2.073223 0.500000
v 1.125000 2.250000 0.875000
v 1.051777 2.426777 0.875000
v 0.875000 2.500000 0.875000
v 0.698223 2.426777 0.875000
v 0.625000 2.250000 0.875000
v 0.698223 2.073223 0.875000
v 0.875000 2.000000 0.875000
v 1.051777 2.073223 0.875000
v 1.125000 1.500000 0.500000
v 1.051777 1.676777 0.500000
v 0.875000 1.750000 0.500000
v 0.698223 1.676777 0.500000
v 0.625000 1.500000 0.500000
v 0.698223 1.323223 0.500000
v 0.875000 1.250000 0.500000
v 1.051777 1.323223 0.500000
v 1.125000 1.500000 0.875000
v 1.051777 1.676777 0.875000
v 0.875000 1.750000 0.875000
v 0.698223 1.676777 0.875000
v 0.625000 1.500000 0.875000
v 0.698223 1.323223 0.875000
v 0.875000 1.250000 0.875000
v 1.051777 1.323223 0.875000
v -0.926777 4.801777 -0.926776
v -0.978554 4.853553 -0.750000
v -0.926777 4.801777 -0.573223
v -0.801777 4.676777 -0.500000
v -0.625000 4.573223 -0.573223
v -0.625000 4.500000 -0.750000
v -0.625000 4.573223 -0.926776
v -0.625000 4.750000 -1.000000
v -1.500000 0.500000 2.250000
v -1.250000 0.500000 2.250000
v -1.500000 0.500000 1.750000
v -1.250000 0.500000 1.750000
v -1.500000 0.750000 1.750000
v -1.500000 0.750000 2.250000
v -1.250000 0.750000 2.250000
v -1.250000 0.750000 1.750000
v -1.250000 0.500000 2.187500
v 0.187500 0.500000 2.187500
v -1.250000 0.500000 1.812500
v 0.187500 0.500000 1.812500
v -1.250000 0.687500 1.812500
v -1.250000 0.687500 2.187500
v -0.187500 0.687500 2.187500
v -0.187500 0.687500 1.812500
v -0.625000 4.926777 -0.926776
v -0.625000 5.000000 -0.750000
v -0.625000 4.926777 -0.573223
v -0.625000 4.750000 -0.500000
v -0.500000 4.573223 -0.573223
v -0.500000 4.500000 -0.750000
v -0.500000 4.573223 -0.926776
v -0.500000 4.750000 -1.000000
v -0.500000 0.500000 2.000000
v 0.500000 0.500000 2.000000
v -0.500000 0.500000 1.000000
v 0.500000 0.500000 1.000000
v -0.500000 2.000000 1.000000
v -0.500000 2.000000 2.000000
v 0.500000 2.000000 2.000000
v 0.500000 2.000000 1.000000
v 0.875000 1.000000 1.250000
v 0.875000 0.500000 1.250000
v 1.125000 0.750000 1.250000
v 1.051777 0.926777 1.250000
v 0.698223 0.926777 1.250000
v 0.625000 0.750000 1.250000
v 0.698223 0.573223 1.250000
v 1.051777 0.573223 1.250000
v 0.801777 1.000000 1.426777
v 0.801777 0.500000 1.426777
v 0.978553 0.750000 1.603553
v 0.926777 0.926777 1.551777
v 0.676777 0.926777 1.301777
v 0.676777 0.573223 1.301777
v 0.926777 0.573223 1.551777
v 0.625000 1.000000 1.500000
v 0.625000 0.500000 1.500000
v 0.625000 0.750000 1.750000
v 0.625000 0.926777 1.676777
v 0.625000 0.926777 1.323224
v 0.625000 0.573223 1.323224
v 0.625000 0.573223 1.676777
v 0.500000 0.750000 1.250000
v 0.500000 1.000000 1.500000
v 0.500000 0.500000 1.500000
v 0.500000 0.750000 1.750000
v 0.500000 0.926777 1.676777
v 0.500000 0.926777 1.323224
v 0.500000 0.573223 1.323224
v 0.500000 0.573223 1.676777
v -0.187500 1.625000 2.187500
v -0.187500 1.625000 1.812500
v 0.187500 1.625000 1.812500
v 0.187500 1.625000 2.187500
v -0.500000 4.926777 -0.926776
v -0.500000 5.000000 -0.750000
v -0.500000 4.926777 -0.573223
v -0.500000 4.750000 -0.500000
v 1.500000 0.750000 -1.500000
v 1.500000 0.250000 -1.500000
v 0.500000 0.250000 -0.500000
v 0.500000 0.250000 -1.500000
v 0.500000 0.750000 -0.500000
v 0.500000 0.750000 -1.500000
v 1.375000 0.750000 -0.500000
v 1.375000 0.250000 -0.500000
v 1.375000 0.750000 -1.500000
v 1.375000 0.250000 -1.500000
v 1.125000 1.000000 -1.625000
v 0.625000 1.000000 -2.125000
v 1.125000 1.000000 -2.125000
v 0.625000 3.500000 -2.125000
v 1.125000 3.500000 -1.625000
v 1.125000 3.500000 -2.125000
v -1.125000 1.000000 -1.625000
v -1.125000 1.000000 -2.125000
v -0.625000 1.000000 -2.125000
v -1.125000 3.500000 -2.125000
v -1.125000 3.500000 -1.625000
v -0.625000 3.500000 -2.125000
v -1.125000 1.000000 0.125000
v -0.625000 1.000000 0.125000
v -1.125000 1.000000 -0.375000
v -1.125000 3.500000 -0.375000
v -1.125000 3.500000 0.125000
v -0.625000 3.500000 0.125000
v -0.801777 4.676777 -1.000000
v -0.676777 4.551776 -0.926776
v -0.676777 4.551776 -0.573223
v -0.875000 4.500000 -0.500000
v -1.051777 4.500000 -0.573223
v -1.125000 4.500000 -0.750000
v -1.051777 4.500000 -0.926776
v -0.875000 4.500000 -1.000000
v -0.698224 4.500000 -0.926776
v -0.698224 4.500000 -0.573223
v -0.625000 4.000000 -0.750000
v -0.875000 4.000000 -0.500000
v -1.051777 4.000000 -0.573223
v -1.125000 4.000000 -0.750000
v -1.051777 4.000000 -0.926776
v -0.875000 4.000000 -1.000000
v -0.698224 4.000000 -0.926776
v -0.698224 4.000000 -0.573223
v -0.500000 4.750000 -1.000000
v -0.500000 4.926777 -1.073223
v -0.500000 5.000000 -1.250000
v -0.500000 4.926777 -1.426777
v -0.500000 4.750000 -1.500000
v -0.500000 4.573223 -1.426777
v -0.500000 4.500000 -1.250000
v -0.500000 4.573223 -1.073223
v -0.625000 4.750000 -1.000000
v -0.625000 4.926777 -1.073223
v -0.625000 5.000000 -1.250000
v -0.625000 4.926777 -1.426777
v -0.625000 4.750000 -1.500000
v -0.625000 4.573223 -1.426777
v -0.625000 4.500000 -1.250000
v -0.625000 4.573223 -1.073223
v -0.801777 4.676777 -1.000000
v -0.926777 4.801777 -1.073223
v -0.978554 4.853553 -1.250000
v -0.926777 4.801777 -1.426777
v -0.801777 4.676777 -1.500000
v -0.676777 4.551776 -1.426777
v -0.676777 4.551776 -1.073223
v -0.875000 4.500000 -1.000000
v -1.051777 4.500000 -1.073223
v -1.125000 4.500000 -1.250000
v -1.051777 4.500000 -1.426777
v -0.875000 4.500000 -1.500000
v -0.698224 4.500000 -1.426777
v -0.698224 4.500000 -1.073223
v -0.625000 4.000000 -1.250000
v -0.875000 4.000000 -1.000000
v -1.051777 4.000000 -1.073223
v -1.125000 4.000000 -1.250000
v -1.051777 4.000000 -1.426777
v -0.875000 4.000000 -1.500000
v -0.698224 4.000000 -1.426777
v -0.698224 4.000000 -1.073223
v -0.500000 4.750000 -1.500000
v -0.426777 4.926777 -1.500000
v -0.250000 5.000000 -1.500000
v -0.073224 4.926777 -1.500000
v -0.000000 4.750000 -1.500000
v -0.073224 4.573223 -1.500000
v -0.250000 4.500000 -1.500000
v -0.426777 4.573223 -1.500000
v -0.500000 4.750000 -1.625000
v -0.426777 4.926777 -1.625000
v -0.250000 5.000000 -1.625000
v -0.073224 4.926777 -1.625000
v -0.000000 4.750000 -1.625000
v -0.073224 4.573223 -1.625000
v -0.250000 4.500000 -1.625000
v -0.426777 4.573223 -1.625000
v -0.500000 4.676777 -1.801777
v -0.426777 4.801777 -1.926777
v -0.250000 4.853553 -1.978554
v -0.073224 4.801777 -1.926777
v -0.000000 4.676777 -1.801777
v -0.073224 4.551776 -1.676777
v -0.426777 4.551776 -1.676777
v -0.500000 4.500000 -1.875000
v -0.426777 4.500000 -2.051777
v -0.250000 4.500000 -2.125000
v -0.073224 4.500000 -2.051777
v -0.000000 4.500000 -1.875000
v -0.073224 4.500000 -1.698223
v -0.426777 4.500000 -1.698223
v -0.250000 4.000000 -1.625000
v -0.500000 4.000000 -1.875000
v -0.426777 4.000000 -2.051777
v -0.250000 4.000000 -2.125000
v -0.073224 4.000000 -2.051777
v -0.000000 4.000000 -1.875000
v -0.073224 4.000000 -1.698223
v -0.426777 4.000000 -1.698223
v -0.000000 4.750000 -1.500000
v 0.073223 4.926777 -1.500000
v 0.250000 5.000000 -1.500000
v 0.426777 4.926777 -1.500000
v 0.500000 4.750000 -1.500000
v 0.426777 4.573223 -1.500000
v 0.250000 4.500000 -1.500000
v 0.073223 4.573223 -1.500000
v -0.000000 4.750000 -1.625000
v 0.073223 4.926777 -1.625000
v 0.250000 5.000000 -1.625000
v 0.426777 4.926777 -1.625000
v 0.500000 4.750000 -1.625000
v 0.426777 4.573223 -1.625000
v 0.250000 4.500000 -1.625000
v 0.073223 4.573223 -1.625000
v -0.000000 4.676777 -1.801777
v 0.073223 4.801777 -1.926777
v 0.250000 4.853553 -1.978554
v 0.426777 4.801777 -1.926777
v 0.500000 4.676777 -1.801777
v 0.426777 4.551776 -1.676777
v 0.073223 4.551776 -1.676777
v -0.000000 4.500000 -1.875000
v 0.073223 4.500000 -2.051777
v 0.250000 4.500000 -2.125000
v 0.426777 4.500000 -2.051777
v 0.500000 4.500000 -1.875000
v 0.426777 4.500000 -1.698223
v 0.073223 4.500000 -1.698223
v 0.250000 4.000000 -1.625000
v -0.000000 4.000000 -1.875000
v 0.073223 4.000000 -2.051777
v 0.250000 4.000000 -2.125000
v 0.426777 4.000000 -2.051777
v 0.500000 4.000000 -1.875000
v 0.426777 4.000000 -1.698223
v 0.073223 4.000000 -1.698223
v 0.073223 4.801777 -0.073223
v 0.250000 4.853553 -0.021446
v 0.426777 4.801777 -0.073223
v 0.500000 4.676777 -0.198223
v 0.426777 4.573223 -0.375000
v 0.250000 4.500000 -0.375000
v 0.073223 4.573223 -0.375000
v -0.000000 4.750000 -0.375000
v 0.073223 4.926777 -0.375000
v 0.250000 5.000000 -0.375000
v 0.426777 4.926777 -0.375000
v 0.500000 4.750000 -0.375000
v 0.426777 4.573223 -0.500000
v 0.250000 4.500000 -0.500000
v 0.073223 4.573223 -0.500000
v -0.000000 4.750000 -0.500000
v 0.073223 4.926777 -0.500000
v 0.250000 5.000000 -0.500000
v 0.426777 4.926777 -0.500000
v 0.500000 4.750000 -0.500000
v -0.000000 4.676777 -0.198223
v 0.073223 4.551776 -0.323223
v 0.426777 4.551776 -0.323223
v 0.500000 4.500000 -0.125000
v 0.426777 4.500000 0.051777
v 0.250000 4.500000 0.125000
v 0.073223 4.500000 0.051777
v -0.000000 4.500000 -0.125000
v 0.073223 4.500000 -0.301777
v 0.426777 4.500000 -0.301777
v 0.250000 4.000000 -0.375000
v 0.500000 4.000000 -0.125000
v 0.426777 4.000000 0.051777
v 0.250000 4.000000 0.125000
v 0.073223 4.000000 0.051777
v -0.000000 4.000000 -0.125000
v 0.073223 4.000000 -0.301777
v 0.426777 4.000000 -0.301777
v -0.000000 4.750000 -0.500000
v -0.073223 4.926777 -0.500000
v -0.250000 5.000000 -0.500000
v -0.426777 4.926777 -0.500000
v -0.500000 4.750000 -0.500000
v -0.426777 4.573223 -0.500000
v -0.250000 4.500000 -0.500000
v -0.073223 4.573223 -0.500000
v -0.000000 4.750000 -0.375000
v -0.073223 4.926777 -0.375000
v -0.250000 5.000000 -0.375000
v -0.426777 4.926777 -0.375000
v -0.500000 4.750000 -0.375000
v -0.426777 4.573223 -0.375000
v -0.250000 4.500000 -0.375000
v -0.073223 4.573223 -0.375000
v -0.000000 4.676777 -0.198223
v -0.073223 4.801777 -0.073223
v -0.250000 4.853553 -0.021446
v -0.426777 4.801777 -0.073223
v -0.500000 4.676777 -0.198223
v -0.426777 4.551776 -0.323223
v -0.073223 4.551776 -0.323223
v -0.000000 4.500000 -0.125000
v -0.073223 4.500000 0.051777
v -0.250000 4.500000 0.125000
v -0.426777 4.500000 0.051777
v -0.500000 4.500000 -0.125000
v -0.426777 4.500000 -0.301777
v -0.073223 4.500000 -0.301777
v -0.250000 4.000000 -0.375000
v -0.000000 4.000000 -0.125000
v -0.073223 4.000000 0.051777
v -0.250000 4.000000 0.125000
v -0.426777 4.000000 0.051777
v -0.500000 4.000000 -0.125000
v -0.426777 4.000000 -0.301777
v -0.073223 4.000000 -0.301777
v -1.500000 0.500000 1.250000
v -1.250000 0.500000 1.250000
v -1.500000 0.500000 0.750000
v -1.250000 0.500000 0.750000
v -1.500000 0.750000 0.750000
v -1.500000 0.750000 1.250000
v -1.250000 0.750000 1.250000
v -1.250000 0.750000 0.750000
v -1.250000 0.500000 1.187500
v 0.187500 0.500000 1.187500
v -1.250000 0.500000 0.812500
v 0.187500 0.500000 0.812500
v -1.250000 0.687500 0.812500
v -1.250000 0.687500 1.187500
v -0.187500 0.687500 1.187500
v -0.187500 0.687500 0.812500
v -0.187500 1.625000 1.187500
v -0.187500 1.625000 0.812500
v 0.187500 1.625000 0.812500
v 0.187500 1.625000 1.187500
v 0.125000 1.375000 -2.250000
v -0.125000 1.375000 -2.250000
v 0.125000 1.125000 -2.500000
v -0.125000 1.125000 -2.500000
v 0.125000 1.625000 -2.250000
v -0.125000 1.625000 -2.250000
v 0.125000 1.375000 -2.500000
v -0.125000 1.375000 -2.500000
v 0.125000 1.062500 -2.500000
v -0.125000 1.062500 -2.500000
v 0.187500 1.125000 -2.500000
v 0.187500 1.375000 -2.500000
v -0.187500 1.125000 -2.500000
v -0.187500 1.375000 -2.500000
v 0.125000 1.312500 -2.250000
v -0.125000 1.312500 -2.250000
v 0.187500 1.375000 -2.250000
v 0.187500 1.625000 -2.250000
v -0.187500 1.375000 -2.250000
v -0.187500 1.625000 -2.250000
vt 0.413793 0.000000
vt 0.068966 0.260870
vt 0.068966 0.000000
vt 0.344828 0.282609
vt 0.413793 0.347826
vt 0.344828 0.326087
vt 0.000000 0.347826
vt 0.034483 0.608696
vt 0.000000 0.608696
vt 0.413793 0.608696
vt 0.482759 0.347826
vt 0.482759 0.608696
vt 0.068966 0.782609
vt 0.137931 0.826087
vt 0.068966 0.826087
vt 0.206897 0.652174
vt 0.413793 0.695652
vt 0.034483 0.347826
vt 0.172414 0.608696
vt 0.206897 0.347826
vt 0.206897 0.608696
vt -0.000000 0.782609
vt -0.000000 0.826087
vt 0.068966 0.913043
vt 0.137931 0.913043
vt 0.172414 0.347826
vt 0.965517 0.000000
vt 0.896552 0.260870
vt 0.896552 0.000000
vt 0.620690 0.260870
vt 0.551724 0.000000
vt 0.620690 0.000000
vt 0.827586 0.000000
vt 0.482759 0.260870
vt 0.482759 0.000000
vt 0.758621 0.260870
vt 0.758621 0.000000
vt 0.689655 0.260870
vt 0.689655 0.000000
vt 0.413793 0.260870
vt 0.413793 0.000000
vt 0.689655 0.478261
vt 0.689655 0.413043
vt 0.741379 0.413043
vt 0.620690 0.326087
vt 0.568965 0.326087
vt 0.620690 0.478261
vt 0.620690 0.413043
vt 0.689655 0.326087
vt 0.741379 0.326087
vt 0.568965 0.413043
vt 0.310345 0.695652
vt 0.241379 0.739130
vt 0.241379 0.695652
vt 0.310345 0.739130
vt 0.241379 0.826087
vt 0.551724 0.695652
vt 0.500000 0.717391
vt 0.500000 0.695652
vt 0.620690 0.478261
vt 0.551724 0.478261
vt 0.500000 0.478261
vt 0.482759 0.695652
vt 0.482759 0.478261
vt 0.344828 0.826087
vt 0.344828 0.739130
vt 0.206897 0.739130
vt 0.206897 0.826087
vt 0.241379 0.869565
vt 0.310345 0.826087
vt 0.310345 0.869565
vt 0.465517 0.652174
vt 0.431034 0.630435
vt 0.465517 0.630435
vt 0.413793 0.630435
vt 0.431034 0.652174
vt 0.413793 0.652174
vt 0.482759 0.652174
vt 0.482759 0.630435
vt 0.431034 0.673913
vt 0.465517 0.673913
vt 0.465517 0.608696
vt 0.431034 0.608696
vt 0.500000 0.788043
vt 0.474138 0.695652
vt 0.500000 0.695652
vt 0.396552 0.777174
vt 0.409483 0.869565
vt 0.396552 0.902174
vt 0.577586 0.777174
vt 0.564655 0.869565
vt 0.564655 0.777174
vt 0.620690 0.652174
vt 0.689655 0.739130
vt 0.620690 0.739130
vt 0.758621 0.521739
vt 0.689655 0.652174
vt 0.689655 0.521739
vt 0.896552 0.521739
vt 0.827586 0.652174
vt 0.827586 0.521739
vt 0.620690 0.521739
vt 0.758621 0.652174
vt 0.465517 0.652174
vt 0.431034 0.630435
vt 0.465517 0.630435
vt 0.500000 0.902174
vt 0.474138 0.869565
vt 0.500000 0.869565
vt 0.474138 0.788043
vt 0.474138 1.000000
vt 0.500000 1.000000
vt 0.474138 0.902174
vt 0.206897 0.826087
vt 0.137931 0.782609
vt 0.206897 0.782609
vt 0.137931 0.695652
vt 0.068966 0.695652
vt 0.275862 0.326087
vt 0.413793 0.260870
vt 0.275862 0.282609
vt 0.206897 0.304348
vt 0.068966 0.304348
vt 0.344828 0.326087
vt 0.275862 0.282609
vt 0.344828 0.282609
vt 0.810345 0.260870
vt 0.775862 0.478261
vt 0.775862 0.260870
vt 0.741379 0.478261
vt 0.741379 0.260870
vt 0.844828 0.260870
vt 0.810345 0.478261
vt 0.810345 0.260870
vt 0.879310 0.260870
vt 0.844828 0.478261
vt 0.913793 0.478261
vt 0.948276 0.478261
vt 0.913793 0.521739
vt 0.879310 0.478261
vt 0.844828 0.521739
vt 0.948276 0.260870
vt 0.913793 0.260870
vt 0.810345 0.478261
vt 0.775862 0.521739
vt 0.879310 0.478261
vt 0.879310 0.260870
vt 0.068966 0.695652
vt 0.068966 0.652174
vt 0.413793 0.630435
vt 0.431034 0.652174
vt 0.413793 0.652174
vt 0.482759 0.652174
vt 0.482759 0.630435
vt 0.431034 0.673913
vt 0.465517 0.673913
vt 0.465517 0.608696
vt 0.431034 0.608696
vt 0.500000 0.788043
vt 0.474138 0.695652
vt 0.500000 0.695652
vt 0.396552 0.777174
vt 0.409483 0.869565
vt 0.396552 0.902174
vt 0.577586 0.777174
vt 0.564655 0.869565
vt 0.564655 0.777174
vt 0.500000 0.902174
vt 0.474138 0.869565
vt 0.500000 0.869565
vt 0.474138 0.788043
vt 0.474138 1.000000
vt 0.500000 1.000000
vt 0.474138 0.902174
vt 0.181034 0.875000
vt 0.198276 0.853261
vt 0.198276 0.875000
vt 0.137931 0.826087
vt 0.155172 0.847826
vt 0.137931 0.847826
vt 0.241379 0.826087
vt 0.224138 0.847826
vt 0.224138 0.826087
vt 0.181034 0.853261
vt 0.198276 0.847826
vt 0.181034 0.875000
vt 0.176724 0.853261
vt 0.202586 0.875000
vt 0.198276 0.875000
vt 0.181034 0.847826
vt 0.202586 0.853261
vt 0.219828 0.847826
vt 0.202586 0.826087
vt 0.219828 0.826087
vt 0.198276 0.826087
vt 0.176724 0.847826
vt 0.181034 0.826087
vt 0.159483 0.847826
vt 0.176724 0.826087
vt 0.202586 0.847826
vt 0.159483 0.826087
vt 0.155172 0.826087
vt 0.965517 0.260870
vt 0.551724 0.260870
vt 0.827586 0.260870
vt 0.551724 0.782609
vt 0.620690 0.695652
vt 0.409483 0.777174
vt 0.577586 0.902174
vt 0.896552 0.652174
vt 0.275862 0.326087
vt 0.409483 0.777174
vt 0.577586 0.902174
vt 0.241379 0.847826
vt 0.176724 0.875000
vt 0.831897 0.771739
vt 0.844828 0.760870
vt 0.844828 0.771739
vt 0.857759 0.771739
vt 0.870690 0.760870
vt 0.870690 0.771739
vt 0.883621 0.760870
vt 0.883621 0.771739
vt 0.793103 0.771739
vt 0.806035 0.760870
vt 0.806035 0.771739
vt 0.818965 0.771739
vt 0.831897 0.760870
vt 0.857759 0.760870
vt 0.896552 0.760870
vt 0.896552 0.771739
vt 0.818965 0.760870
vt 0.831897 0.755435
vt 0.818965 0.728261
vt 0.831897 0.728261
vt 0.857759 0.728261
vt 0.857759 0.755435
vt 0.806035 0.733696
vt 0.818965 0.744565
vt 0.844828 0.728261
vt 0.870690 0.728261
vt 0.870690 0.744565
vt 0.883621 0.728261
vt 0.883621 0.733696
vt 0.870690 0.711957
vt 0.883621 0.722826
vt 0.831897 0.701087
vt 0.857759 0.701087
vt 0.806035 0.722826
vt 0.818965 0.711957
vt 0.844828 0.695652
vt 0.896552 0.728261
vt 0.793103 0.728261
vt 0.806035 0.728261
vt 0.793103 0.695652
vt 0.806035 0.652174
vt 0.806035 0.695652
vt 0.870690 0.695652
vt 0.883621 0.652174
vt 0.883621 0.695652
vt 0.896552 0.652174
vt 0.896552 0.695652
vt 0.818965 0.695652
vt 0.831897 0.652174
vt 0.831897 0.695652
vt 0.857759 0.652174
vt 0.857759 0.695652
vt 0.818965 0.652174
vt 0.844828 0.652174
vt 0.870690 0.652174
vt 0.728448 0.771739
vt 0.741379 0.760870
vt 0.741379 0.771739
vt 0.754310 0.771739
vt 0.767241 0.760870
vt 0.767241 0.771739
vt 0.780172 0.760870
vt 0.780172 0.771739
vt 0.689655 0.771739
vt 0.702586 0.760870
vt 0.702586 0.771739
vt 0.715517 0.771739
vt 0.728448 0.760870
vt 0.754310 0.760870
vt 0.793103 0.760870
vt 0.793103 0.771739
vt 0.715517 0.760870
vt 0.728448 0.755435
vt 0.715517 0.728261
vt 0.728448 0.728261
vt 0.754310 0.728261
vt 0.754310 0.755435
vt 0.715517 0.744565
vt 0.702586 0.728261
vt 0.741379 0.728261
vt 0.767241 0.728261
vt 0.767241 0.744565
vt 0.780172 0.728261
vt 0.780172 0.733696
vt 0.767241 0.711957
vt 0.780172 0.722826
vt 0.715517 0.711957
vt 0.728448 0.701087
vt 0.741379 0.695652
vt 0.754310 0.701087
vt 0.702586 0.722826
vt 0.793103 0.728261
vt 0.702586 0.733696
vt 0.689655 0.728261
vt 0.689655 0.695652
vt 0.702586 0.652174
vt 0.702586 0.695652
vt 0.767241 0.695652
vt 0.780172 0.652174
vt 0.780172 0.695652
vt 0.793103 0.652174
vt 0.793103 0.695652
vt 0.715517 0.695652
vt 0.728448 0.652174
vt 0.728448 0.695652
vt 0.754310 0.652174
vt 0.754310 0.695652
vt 0.715517 0.652174
vt 0.741379 0.652174
vt 0.767241 0.652174
vt 0.935345 0.902174
vt 0.948276 0.891304
vt 0.948276 0.902174
vt 0.961207 0.902174
vt 0.974138 0.891304
vt 0.974138 0.902174
vt 0.987069 0.891304
vt 0.987069 0.902174
vt 0.896552 0.902174
vt 0.909483 0.891304
vt 0.909483 0.902174
vt 0.922414 0.902174
vt 0.935345 0.891304
vt 0.961207 0.891304
vt 1.000000 0.891304
vt 1.000000 0.902174
vt 0.922414 0.891304
vt 0.935345 0.885870
vt 0.922414 0.858696
vt 0.935345 0.858696
vt 0.961207 0.858696
vt 0.961207 0.885870
vt 0.909483 0.864130
vt 0.922414 0.875000
vt 0.948276 0.858696
vt 0.974138 0.858696
vt 0.974138 0.875000
vt 0.987069 0.864130
vt 0.987069 0.858696
vt 0.961207 0.831522
vt 0.974138 0.842391
vt 0.987069 0.853261
vt 0.935345 0.831522
vt 0.948276 0.826087
vt 0.909483 0.858696
vt 0.922414 0.842391
vt 1.000000 0.858696
vt 0.896552 0.858696
vt 0.909483 0.853261
vt 0.896552 0.826087
vt 0.909483 0.673913
vt 0.909483 0.826087
vt 0.974138 0.826087
vt 0.987069 0.673913
vt 0.987069 0.826087
vt 1.000000 0.673913
vt 1.000000 0.826087
vt 0.922414 0.826087
vt 0.935345 0.673913
vt 0.935345 0.826087
vt 0.961207 0.673913
vt 0.961207 0.826087
vt 0.922414 0.673913
vt 0.948276 0.673913
vt 0.974138 0.673913
vt 0.922414 0.657609
vt 0.909483 0.641304
vt 0.922414 0.641304
vt 0.961207 0.646739
vt 0.974138 0.641304
vt 0.974138 0.657609
vt 0.896552 0.673913
vt 0.909483 0.668478
vt 0.987069 0.641304
vt 0.987069 0.668478
vt 0.935345 0.646739
vt 0.935345 0.641304
vt 1.000000 0.641304
vt 0.987069 0.614130
vt 1.000000 0.608696
vt 0.909483 0.614130
vt 0.922414 0.625000
vt 0.961207 0.635870
vt 0.974138 0.625000
vt 0.896552 0.641304
vt 0.935345 0.635870
vt 0.948276 0.641304
vt 0.961207 0.641304
vt 0.948276 0.440217
vt 0.974138 0.456522
vt 0.948276 0.456522
vt 0.948276 0.472826
vt 0.974138 0.489130
vt 0.948276 0.489130
vt 0.974138 0.505435
vt 0.948276 0.505435
vt 0.948276 0.391304
vt 0.974138 0.407609
vt 0.948276 0.407609
vt 0.948276 0.423913
vt 0.974138 0.440217
vt 0.974138 0.472826
vt 0.974138 0.521739
vt 0.948276 0.521739
vt 0.974138 0.423913
vt 0.948276 0.309783
vt 0.974138 0.326087
vt 0.948276 0.326087
vt 0.948276 0.342391
vt 0.974138 0.358696
vt 0.948276 0.358696
vt 0.974138 0.375000
vt 0.948276 0.375000
vt 0.948276 0.260870
vt 0.974138 0.277174
vt 0.948276 0.277174
vt 0.948276 0.293478
vt 0.974138 0.309783
vt 0.974138 0.342391
vt 0.974138 0.391304
vt 0.948276 0.391304
vt 0.974138 0.293478
vt 0.857759 0.755435
vt 0.870690 0.728261
vt 0.870690 0.744565
vt 0.831897 0.755435
vt 0.844828 0.728261
vt 0.844828 0.760870
vt 0.806035 0.733696
vt 0.818965 0.728261
vt 0.818965 0.744565
vt 0.857759 0.728261
vt 0.831897 0.728261
vt 0.806035 0.771739
vt 0.818965 0.760870
vt 0.818965 0.771739
vt 0.883621 0.771739
vt 0.896552 0.760870
vt 0.896552 0.771739
vt 0.844828 0.771739
vt 0.857759 0.760870
vt 0.857759 0.771739
vt 0.831897 0.760870
vt 0.831897 0.771739
vt 0.793103 0.771739
vt 0.806035 0.760870
vt 0.987069 0.608696
vt 1.000000 0.597826
vt 0.909483 0.608696
vt 0.922414 0.597826
vt 0.922414 0.608696
vt 0.961207 0.608696
vt 0.974138 0.597826
vt 0.974138 0.608696
vt 0.935345 0.608696
vt 0.948276 0.597826
vt 0.948276 0.608696
vt 0.896552 0.608696
vt 0.909483 0.597826
vt 0.961207 0.597826
vt 0.987069 0.597826
vt 0.935345 0.597826
vt 0.961207 0.592391
vt 0.948276 0.565217
vt 0.961207 0.565217
vt 0.987069 0.592391
vt 1.000000 0.565217
vt 1.000000 0.581522
vt 0.974138 0.565217
vt 0.935345 0.570652
vt 0.948276 0.581522
vt 0.909483 0.570652
vt 0.896552 0.565217
vt 0.909483 0.565217
vt 0.987069 0.565217
vt 0.974138 0.532609
vt 0.987069 0.538043
vt 0.961207 0.538043
vt 1.000000 0.548913
vt 0.935345 0.565217
vt 0.948276 0.548913
vt 0.909483 0.559783
vt 0.922414 0.565217
vt 0.935345 0.559783
vt 0.948276 0.532609
vt 0.961207 0.521739
vt 0.961207 0.532609
vt 0.987069 0.532609
vt 1.000000 0.521739
vt 1.000000 0.532609
vt 0.974138 0.521739
vt 0.922414 0.532609
vt 0.935345 0.521739
vt 0.935345 0.532609
vt 0.948276 0.521739
vt 0.909483 0.532609
vt 0.922414 0.521739
vt 0.896552 0.532609
vt 0.909483 0.521739
vt 0.987069 0.521739
vt 0.870690 0.771739
vt 0.883621 0.760870
vt 0.870690 0.760870
vt 0.883621 0.728261
vt 0.883621 0.733696
vt 0.870690 0.711957
vt 0.883621 0.722826
vt 0.831897 0.701087
vt 0.857759 0.701087
vt 0.806035 0.722826
vt 0.818965 0.711957
vt 0.844828 0.695652
vt 0.896552 0.728261
vt 0.793103 0.728261
vt 0.806035 0.728261
vt 0.793103 0.695652
vt 0.806035 0.652174
vt 0.806035 0.695652
vt 0.870690 0.695652
vt 0.883621 0.652174
vt 0.883621 0.695652
vt 0.896552 0.652174
vt 0.896552 0.695652
vt 0.818965 0.695652
vt 0.831897 0.652174
vt 0.831897 0.695652
vt 0.857759 0.652174
vt 0.857759 0.695652
vt 0.818965 0.652174
vt 0.844828 0.652174
vt 0.870690 0.652174
vt 0.728448 0.771739
vt 0.741379 0.760870
vt 0.741379 0.771739
vt 0.754310 0.771739
vt 0.767241 0.760870
vt 0.767241 0.771739
vt 0.780172 0.760870
vt 0.780172 0.771739
vt 0.689655 0.771739
vt 0.702586 0.760870
vt 0.702586 0.771739
vt 0.715517 0.771739
vt 0.728448 0.760870
vt 0.754310 0.760870
vt 0.793103 0.760870
vt 0.793103 0.771739
vt 0.715517 0.760870
vt 0.715517 0.744565
vt 0.728448 0.728261
vt 0.728448 0.755435
vt 0.754310 0.728261
vt 0.754310 0.755435
vt 0.702586 0.728261
vt 0.715517 0.728261
vt 0.741379 0.728261
vt 0.767241 0.728261
vt 0.767241 0.744565
vt 0.780172 0.728261
vt 0.780172 0.733696
vt 0.754310 0.701087
vt 0.767241 0.711957
vt 0.780172 0.722826
vt 0.728448 0.701087
vt 0.702586 0.722826
vt 0.715517 0.711957
vt 0.741379 0.695652
vt 0.793103 0.728261
vt 0.702586 0.733696
vt 0.689655 0.728261
vt 0.689655 0.695652
vt 0.702586 0.652174
vt 0.702586 0.695652
vt 0.767241 0.695652
vt 0.780172 0.652174
vt 0.780172 0.695652
vt 0.793103 0.652174
vt 0.793103 0.695652
vt 0.715517 0.695652
vt 0.728448 0.652174
vt 0.728448 0.695652
vt 0.754310 0.652174
vt 0.754310 0.695652
vt 0.715517 0.652174
vt 0.741379 0.652174
vt 0.767241 0.652174
vt 0.831897 0.771739
vt 0.844828 0.760870
vt 0.844828 0.771739
vt 0.857759 0.771739
vt 0.870690 0.760870
vt 0.870690 0.771739
vt 0.883621 0.760870
vt 0.883621 0.771739
vt 0.793103 0.771739
vt 0.806035 0.760870
vt 0.806035 0.771739
vt 0.818965 0.771739
vt 0.831897 0.760870
vt 0.857759 0.760870
vt 0.896552 0.760870
vt 0.896552 0.771739
vt 0.818965 0.760870
vt 0.831897 0.755435
vt 0.818965 0.728261
vt 0.831897 0.728261
vt 0.857759 0.728261
vt 0.857759 0.755435
vt 0.806035 0.733696
vt 0.818965 0.744565
vt 0.844828 0.728261
vt 0.870690 0.728261
vt 0.870690 0.744565
vt 0.883621 0.728261
vt 0.883621 0.733696
vt 0.870690 0.711957
vt 0.883621 0.722826
vt 0.831897 0.701087
vt 0.857759 0.701087
vt 0.806035 0.722826
vt 0.818965 0.711957
vt 0.844828 0.695652
vt 0.896552 0.728261
vt 0.793103 0.728261
vt 0.806035 0.728261
vt 0.793103 0.695652
vt 0.806035 0.652174
vt 0.806035 0.695652
vt 0.870690 0.695652
vt 0.883621 0.652174
vt 0.883621 0.695652
vt 0.896552 0.652174
vt 0.896552 0.695652
vt 0.818965 0.695652
vt 0.831897 0.652174
vt 0.831897 0.695652
vt 0.857759 0.652174
vt 0.857759 0.695652
vt 0.818965 0.652174
vt 0.844828 0.652174
vt 0.870690 0.652174
vt 0.728448 0.771739
vt 0.741379 0.760870
vt 0.741379 0.771739
vt 0.754310 0.771739
vt 0.767241 0.760870
vt 0.767241 0.771739
vt 0.780172 0.760870
vt 0.780172 0.771739
vt 0.689655 0.771739
vt 0.702586 0.760870
vt 0.702586 0.771739
vt 0.715517 0.771739
vt 0.728448 0.760870
vt 0.754310 0.760870
vt 0.793103 0.760870
vt 0.793103 0.771739
vt 0.715517 0.760870
vt 0.728448 0.755435
vt 0.715517 0.728261
vt 0.728448 0.728261
vt 0.754310 0.728261
vt 0.754310 0.755435
vt 0.715517 0.744565
vt 0.702586 0.728261
vt 0.741379 0.728261
vt 0.767241 0.744565
vt 0.767241 0.728261
vt 0.780172 0.728261
vt 0.780172 0.733696
vt 0.754310 0.701087
vt 0.767241 0.711957
vt 0.780172 0.722826
vt 0.728448 0.701087
vt 0.702586 0.722826
vt 0.715517 0.711957
vt 0.741379 0.695652
vt 0.793103 0.728261
vt 0.702586 0.733696
vt 0.689655 0.728261
vt 0.689655 0.695652
vt 0.702586 0.652174
vt 0.702586 0.695652
vt 0.767241 0.695652
vt 0.780172 0.652174
vt 0.780172 0.695652
vt 0.793103 0.652174
vt 0.793103 0.695652
vt 0.715517 0.695652
vt 0.728448 0.652174
vt 0.728448 0.695652
vt 0.754310 0.652174
vt 0.754310 0.695652
vt 0.715517 0.652174
vt 0.741379 0.652174
vt 0.767241 0.652174
vt 0.857759 0.755435
vt 0.870690 0.728261
vt 0.870690 0.744565
vt 0.844828 0.760870
vt 0.831897 0.728261
vt 0.844828 0.728261
vt 0.806035 0.733696
vt 0.818965 0.728261
vt 0.818965 0.744565
vt 0.857759 0.728261
vt 0.831897 0.755435
vt 0.806035 0.771739
vt 0.818965 0.760870
vt 0.818965 0.771739
vt 0.883621 0.771739
vt 0.896552 0.760870
vt 0.896552 0.771739
vt 0.844828 0.771739
vt 0.857759 0.760870
vt 0.857759 0.771739
vt 0.831897 0.760870
vt 0.831897 0.771739
vt 0.793103 0.771739
vt 0.806035 0.760870
vt 0.870690 0.771739
vt 0.883621 0.760870
vt 0.870690 0.760870
vt 0.883621 0.728261
vt 0.883621 0.733696
vt 0.857759 0.701087
vt 0.870690 0.711957
vt 0.883621 0.722826
vt 0.831897 0.701087
vt 0.844828 0.695652
vt 0.806035 0.728261
vt 0.818965 0.711957
vt 0.896552 0.728261
vt 0.793103 0.728261
vt 0.806035 0.722826
vt 0.793103 0.695652
vt 0.806035 0.652174
vt 0.806035 0.695652
vt 0.870690 0.695652
vt 0.883621 0.652174
vt 0.883621 0.695652
vt 0.896552 0.652174
vt 0.896552 0.695652
vt 0.818965 0.695652
vt 0.831897 0.652174
vt 0.831897 0.695652
vt 0.857759 0.652174
vt 0.857759 0.695652
vt 0.818965 0.652174
vt 0.844828 0.652174
vt 0.870690 0.652174
vt 0.728448 0.771739
vt 0.741379 0.760870
vt 0.741379 0.771739
vt 0.754310 0.771739
vt 0.767241 0.760870
vt 0.767241 0.771739
vt 0.780172 0.760870
vt 0.780172 0.771739
vt 0.689655 0.771739
vt 0.702586 0.760870
vt 0.702586 0.771739
vt 0.715517 0.771739
vt 0.728448 0.760870
vt 0.754310 0.760870
vt 0.793103 0.760870
vt 0.793103 0.771739
vt 0.715517 0.760870
vt 0.715517 0.744565
vt 0.728448 0.728261
vt 0.728448 0.755435
vt 0.754310 0.728261
vt 0.754310 0.755435
vt 0.702586 0.728261
vt 0.715517 0.728261
vt 0.741379 0.728261
vt 0.767241 0.728261
vt 0.767241 0.744565
vt 0.780172 0.728261
vt 0.780172 0.733696
vt 0.767241 0.711957
vt 0.780172 0.722826
vt 0.728448 0.701087
vt 0.741379 0.695652
vt 0.754310 0.701087
vt 0.715517 0.711957
vt 0.793103 0.728261
vt 0.702586 0.733696
vt 0.689655 0.728261
vt 0.702586 0.722826
vt 0.689655 0.695652
vt 0.702586 0.652174
vt 0.702586 0.695652
vt 0.767241 0.695652
vt 0.780172 0.652174
vt 0.780172 0.695652
vt 0.793103 0.652174
vt 0.793103 0.695652
vt 0.715517 0.695652
vt 0.728448 0.652174
vt 0.728448 0.695652
vt 0.754310 0.652174
vt 0.754310 0.695652
vt 0.715517 0.652174
vt 0.741379 0.652174
vt 0.767241 0.652174
vt 0.793103 0.760870
vt 0.793103 0.652174
vt 0.689655 0.760870
vt 0.689655 0.652174
vt 0.896552 0.891304
vt 0.974138 0.391304
vt 0.974138 0.260870
vt 0.793103 0.760870
vt 0.896552 0.597826
vt 0.896552 0.581522
vt 0.896552 0.548913
vt 0.896552 0.521739
vt 0.793103 0.652174
vt 0.689655 0.760870
vt 0.689655 0.652174
vt 0.793103 0.760870
vt 0.793103 0.652174
vt 0.689655 0.760870
vt 0.689655 0.652174
vt 0.793103 0.760870
vt 0.793103 0.652174
vt 0.689655 0.760870
vt 0.689655 0.652174
vn 0.0000 -1.0000 0.0000
vn 1.0000 0.0000 0.0000
vn 0.0000 0.0000 1.0000
vn 0.0000 0.0000 -1.0000
vn -1.0000 0.0000 0.0000
vn 0.0000 1.0000 0.0000
vn 0.7071 0.0000 0.7071
vn -0.7071 0.0000 -0.7071
vn 0.7071 0.0000 -0.7071
vn -0.7071 0.0000 0.7071
vn -0.4851 0.7276 -0.4851
vn 0.4851 0.7276 0.4851
vn 0.5547 0.8321 0.0000
vn -0.5547 0.8321 0.0000
vn 0.0000 0.8321 -0.5547
vn -0.4851 0.7276 0.4851
vn 0.4851 0.7276 -0.4851
vn 0.0000 0.8321 0.5547
vn 0.0000 0.7071 -0.7071
vn 0.0000 -0.7071 0.7071
vn 0.5774 -0.5774 0.5774
vn -0.5774 -0.5774 0.5774
vn 0.0000 0.7071 0.7071
vn 0.1866 0.9824 0.0000
vn 0.0196 0.0473 -0.9987
vn -0.1363 -0.6737 -0.7263
vn 0.0000 -0.7071 -0.7071
vn -0.1363 -0.6737 0.7263
vn 0.1447 0.7194 0.6794
vn 0.1447 0.7194 -0.6794
vn -0.7071 -0.7071 0.0000
vn 0.0196 0.0473 0.9987
vn 0.0670 0.0670 0.9955
vn 0.5293 0.5293 0.6630
vn 0.5293 0.5293 -0.6630
vn 0.7071 0.7071 0.0000
vn 0.0670 0.0670 -0.9955
vn -0.4617 -0.4617 -0.7573
vn 0.0473 0.0196 -0.9987
vn -0.6737 -0.1363 -0.7263
vn 0.7194 0.1447 0.6794
vn 0.7194 0.1447 -0.6794
vn -0.6737 -0.1363 0.7263
vn 0.0473 0.0196 0.9987
vn 0.9824 0.1866 0.0000
vn -0.4617 -0.4617 0.7573
vn -0.7071 0.7071 0.0000
vn 0.0000 0.9824 0.1866
vn 0.9987 0.0473 0.0196
vn 0.7263 -0.6737 -0.1363
vn 0.7071 -0.7071 0.0000
vn -0.7263 -0.6737 -0.1363
vn -0.6794 0.7194 0.1447
vn 0.6794 0.7194 0.1447
vn -0.9987 0.0473 0.0196
vn -0.9955 0.0670 0.0670
vn -0.6630 0.5293 0.5293
vn 0.6630 0.5293 0.5293
vn 0.9955 0.0670 0.0670
vn 0.7573 -0.4617 -0.4617
vn 0.6794 0.1447 0.7194
vn 0.9987 0.0196 0.0473
vn 0.7263 -0.1363 -0.6737
vn -0.6794 0.1447 0.7194
vn 0.0000 0.1866 0.9824
vn -0.7573 -0.4617 -0.4617
vn -0.9987 0.0196 0.0473
vn -0.7263 -0.1363 -0.6737
vn -0.6794 -0.1447 -0.7194
vn 0.6794 -0.1447 -0.7194
vn 0.0000 -0.1866 -0.9824
vn -0.7263 0.1363 0.6737
vn 0.7263 0.1363 0.6737
vn -0.9987 -0.0196 -0.0473
vn 0.9987 -0.0196 -0.0473
vn -0.6630 -0.5293 -0.5293
vn -0.9955 -0.0670 -0.0670
vn 0.9955 -0.0670 -0.0670
vn 0.6630 -0.5293 -0.5293
vn -0.7573 0.4617 0.4617
vn 0.6794 -0.7194 -0.1447
vn 0.0000 -0.9824 -0.1866
vn -0.6794 -0.7194 -0.1447
vn -0.9987 -0.0473 -0.0196
vn 0.7263 0.6737 0.1363
vn 0.9987 -0.0473 -0.0196
vn -0.7263 0.6737 0.1363
vn 0.7573 0.4617 0.4617
vn -0.1447 0.7194 0.6794
vn -0.0670 0.0670 0.9955
vn -0.0196 0.0473 0.9987
vn -0.1447 0.7194 -0.6794
vn -0.1866 0.9824 0.0000
vn 0.1363 -0.6737 -0.7263
vn -0.0670 0.0670 -0.9955
vn -0.0196 0.0473 -0.9987
vn -0.5293 0.5293 0.6630
vn -0.5293 0.5293 -0.6630
vn 0.0473 -0.9987 0.0196
vn 0.9824 0.0000 0.1866
vn 0.0473 0.9987 0.0196
vn -0.6737 -0.7263 -0.1363
vn 0.7194 0.6794 0.1447
vn 0.7194 -0.6794 0.1447
vn -0.6737 0.7263 -0.1363
vn 0.0670 0.9955 0.0670
vn 0.5293 0.6630 0.5293
vn 0.0670 -0.9955 0.0670
vn -0.4617 -0.7573 -0.4617
vn 0.5293 -0.6630 0.5293
vn 0.1866 0.0000 0.9824
vn 0.1447 -0.6794 0.7194
vn 0.1447 0.6794 0.7194
vn 0.0196 -0.9987 0.0473
vn -0.4617 0.7573 -0.4617
vn 0.0196 0.9987 0.0473
vn -0.1363 -0.7263 -0.6737
vn -0.1363 0.7263 -0.6737
vn 0.1363 -0.6737 0.7263
vn 0.4617 -0.4617 0.7573
vn -0.0473 0.0196 0.9987
vn 0.6737 -0.1363 0.7263
vn -0.7194 0.1447 -0.6794
vn -0.7194 0.1447 0.6794
vn 0.6737 -0.1363 -0.7263
vn -0.0473 0.0196 -0.9987
vn -0.9824 0.1866 0.0000
vn 0.4617 -0.4617 -0.7573
vn 0.0000 0.9824 -0.1866
vn -0.9987 0.0473 -0.0196
vn -0.7263 -0.6737 0.1363
vn 0.7263 -0.6737 0.1363
vn 0.6794 0.7194 -0.1447
vn -0.6794 0.7194 -0.1447
vn 0.9987 0.0473 -0.0196
vn 0.9955 0.0670 -0.0670
vn 0.6630 0.5293 -0.5293
vn -0.6630 0.5293 -0.5293
vn -0.9955 0.0670 -0.0670
vn -0.7573 -0.4617 0.4617
vn -0.9987 0.0196 -0.0473
vn -0.7263 -0.1363 0.6737
vn 0.6794 0.1447 -0.7194
vn -0.6794 0.1447 -0.7194
vn 0.7263 -0.1363 0.6737
vn 0.9987 0.0196 -0.0473
vn 0.0000 0.1866 -0.9824
vn 0.7573 -0.4617 0.4617
v 4.500000 0.500000 -3.500000
v 7.500000 0.500000 -3.500000
v 7.500000 0.000000 -3.500000
v 4.500000 0.000000 -3.500000
v 7.500000 0.000000 3.500000
v 4.500000 0.000000 3.500000
v 7.500000 0.500000 3.500000
v 4.500000 0.500000 3.500000
v 4.750000 1.250000 -3.000000
v 7.250000 1.250000 -3.000000
v 4.750000 2.250000 -3.000000
v 7.250000 2.250000 -3.000000
v 5.500000 3.000000 -3.000000
v 5.500000 0.500000 -3.000000
v 6.500000 3.000000 -3.000000
v 6.500000 0.500000 -3.000000
v 4.750000 1.250000 1.000000
v 7.250000 1.250000 1.000000
v 4.750000 2.250000 1.000000
v 7.250000 2.250000 1.000000
v 5.500000 3.000000 1.000000
v 5.500000 0.500000 1.000000
v 6.500000 3.000000 1.000000
v 6.500000 0.500000 1.000000
v 4.500000 0.500000 -3.000000
v 7.500000 0.500000 -3.000000
v 4.500000 0.500000 -3.500000
v 7.500000 0.500000 -3.500000
v 4.500000 2.500000 -3.500000
v 4.500000 2.500000 -3.000000
v 7.500000 2.500000 -3.000000
v 7.500000 2.500000 -3.500000
v 5.000000 3.000000 -3.500000
v 5.000000 3.000000 -3.000000
v 7.000000 3.000000 -3.000000
v 7.000000 3.000000 -3.500000
v 4.500000 0.500000 1.500000
v 7.500000 0.500000 1.500000
v 4.500000 0.500000 1.000000
v 7.500000 0.500000 1.000000
v 4.500000 2.500000 1.000000
v 4.500000 2.500000 1.500000
v 7.500000 2.500000 1.500000
v 7.500000 2.500000 1.000000
v 5.000000 3.000000 1.000000
v 5.000000 3.000000 1.500000
v 7.000000 3.000000 1.500000
v 7.000000 3.000000 1.000000
v 4.500000 0.500000 3.000000
v 7.500000 0.500000 3.000000
v 4.500000 0.500000 2.500000
v 7.500000 0.500000 2.500000
v 4.500000 2.500000 2.500000
v 4.500000 2.500000 3.000000
v 7.500000 2.500000 3.000000
v 7.500000 2.500000 2.500000
v 5.000000 3.000000 2.500000
v 5.000000 3.000000 3.000000
v 7.000000 3.000000 3.000000
v 7.000000 3.000000 2.500000
v 7.250000 0.750000 1.750000
v 7.250000 0.750000 2.250000
v 7.500000 0.750000 2.250000
v 7.500000 0.750000 1.750000
v 4.750000 0.750000 1.750000
v 4.750000 0.750000 2.250000
v 4.500000 0.750000 2.250000
v 4.500000 0.750000 1.750000
v 4.750000 0.500000 1.750000
v 4.500000 0.500000 1.750000
v 4.750000 0.500000 2.250000
v 4.500000 0.500000 2.250000
v 6.500000 2.616025 2.500000
v 6.866026 2.249999 2.500000
v 7.000000 1.749999 2.500000
v 6.866025 1.250000 2.500000
v 6.500000 0.883974 2.500000
v 6.000000 0.750000 2.500000
v 5.500000 0.883974 2.500000
v 5.133975 1.250000 2.500000
v 5.000000 1.750000 2.500000
v 5.133975 2.250000 2.500000
v 5.500000 2.616025 2.500000
v 6.000000 2.750000 2.500000
v 6.000000 2.750000 1.500000
v 5.500000 2.616025 1.500000
v 5.133975 2.250000 1.500000
v 5.000000 1.750000 1.500000
v 5.133975 1.250000 1.500000
v 5.500000 0.883974 1.500000
v 6.000000 0.750000 1.500000
v 6.500000 0.883974 1.500000
v 6.866025 1.250000 1.500000
v 7.000000 1.749999 1.500000
v 6.866026 2.249999 1.500000
v 6.500000 2.616025 1.500000
v 7.500000 0.500000 1.750000
v 7.250000 0.500000 1.750000
v 7.500000 0.500000 2.250000
v 7.250000 0.500000 2.250000
v 4.750000 0.500000 2.187500
v 4.750000 0.500000 1.812500
v 4.750000 0.687500 1.812500
v 4.750000 0.687500 2.187500
v 5.250000 0.500000 2.187500
v 5.250000 0.500000 1.812500
v 5.250000 0.687500 1.812500
v 5.250000 0.687500 2.187500
v 6.750000 0.750000 1.750000
v 6.750000 0.750000 2.250000
v 6.750000 0.500000 1.750000
v 6.750000 0.500000 2.250000
v 5.250000 0.750000 1.750000
v 5.250000 0.750000 2.250000
v 5.250000 0.500000 1.750000
v 5.250000 0.500000 2.250000
v 7.250000 0.500000 2.187500
v 7.250000 0.500000 1.812500
v 7.250000 0.687500 1.812500
v 7.250000 0.687500 2.187500
v 6.750000 0.500000 2.187500
v 6.750000 0.500000 1.812500
v 6.750000 0.687500 1.812500
v 6.750000 0.687500 2.187500
v 6.500000 0.500000 3.500000
v 7.000000 0.500000 3.500000
v 6.500000 0.500000 3.000000
v 7.000000 0.500000 3.000000
v 6.500000 2.500000 3.000000
v 6.500000 2.000000 3.500000
v 7.000000 2.000000 3.500000
v 7.000000 2.500000 3.000000
v 5.000000 0.500000 3.500000
v 5.500000 0.500000 3.500000
v 5.000000 0.500000 3.000000
v 5.500000 0.500000 3.000000
v 5.000000 2.500000 3.000000
v 5.000000 2.000000 3.500000
v 5.500000 2.000000 3.500000
v 5.500000 2.500000 3.000000
v 5.500000 3.000000 -1.500000
v 6.500000 3.000000 -1.500000
v 5.500000 3.000000 -2.500000
v 6.500000 3.000000 -2.500000
v 5.500000 4.000000 -2.500000
v 5.500000 4.000000 -1.500000
v 6.500000 4.000000 -1.500000
v 6.500000 4.000000 -2.500000
v 7.000000 3.000000 -1.500000
v 6.926776 3.176777 -1.500000
v 6.750000 3.250000 -1.500000
v 6.573223 3.176777 -1.500000
v 6.500000 3.000000 -1.500000
v 6.573223 2.823223 -1.500000
v 6.750000 2.750000 -1.500000
v 6.926776 2.823223 -1.500000
v 7.000000 3.000000 0.000000
v 6.926777 3.176777 0.000000
v 6.750000 3.250000 0.000000
v 6.573223 3.176777 0.000000
v 6.500000 3.000000 0.000000
v 6.573223 2.823223 0.000000
v 6.750000 2.750000 0.000000
v 6.926777 2.823223 0.000000
v 7.000000 2.926777 0.176777
v 6.926777 3.051777 0.301777
v 6.750000 3.103553 0.353554
v 6.573223 3.051777 0.301777
v 6.500000 2.926777 0.176777
v 6.573223 2.801776 0.051777
v 6.926777 2.801776 0.051777
v 7.000000 2.750000 0.250000
v 6.926777 2.750000 0.426777
v 6.750000 2.750000 0.500000
v 6.573223 2.750000 0.426777
v 6.500000 2.750000 0.250000
v 6.573223 2.750000 0.073223
v 6.926777 2.750000 0.073223
v 6.750000 2.500000 0.000000
v 7.000000 2.500000 0.250000
v 6.926777 2.500000 0.426777
v 6.750000 2.500000 0.500000
v 6.573223 2.500000 0.426777
v 6.500000 2.500000 0.250000
v 6.573223 2.500000 0.073223
v 6.926777 2.500000 0.073223
v 7.000000 3.073223 -1.676777
v 6.926776 3.198223 -1.551776
v 6.573223 3.198223 -1.551776
v 6.500000 3.073223 -1.676777
v 6.573223 2.948223 -1.801777
v 6.750000 2.896447 -1.853553
v 6.926776 2.948223 -1.801777
v 7.000000 3.250000 -1.750000
v 6.926776 3.250000 -1.573223
v 6.573223 3.250000 -1.573223
v 6.500000 3.250000 -1.750000
v 6.573223 3.250000 -1.926777
v 6.750000 3.250000 -2.000000
v 6.926776 3.250000 -1.926777
v 6.750000 3.500000 -1.500000
v 7.000000 3.500000 -1.750000
v 6.926776 3.500000 -1.573223
v 6.573223 3.500000 -1.573223
v 6.500000 3.500000 -1.750000
v 6.573223 3.500000 -1.926777
v 6.750000 3.500000 -2.000000
v 6.926776 3.500000 -1.926777
v 6.676777 3.676777 -1.500000
v 6.853553 3.853553 -1.750000
v 6.801776 3.801776 -1.573223
v 6.551777 3.551777 -1.573223
v 6.551777 3.551777 -1.926777
v 6.676777 3.676777 -2.000000
v 6.801776 3.801776 -1.926777
v 6.500000 3.750000 -1.500000
v 6.500000 4.000000 -1.750000
v 6.500000 3.926776 -1.573223
v 6.500000 3.573223 -1.573223
v 6.500000 3.573223 -1.926777
v 6.500000 3.750000 -2.000000
v 6.500000 3.926776 -1.926777
v 6.750000 2.500000 -2.000000
v 7.000000 2.500000 -2.250000
v 6.926776 2.500000 -2.073223
v 6.573223 2.500000 -2.073223
v 6.500000 2.500000 -2.250000
v 6.573223 2.500000 -2.426777
v 6.750000 2.500000 -2.500000
v 6.926776 2.500000 -2.426777
v 6.750000 3.500000 -2.000000
v 7.000000 3.500000 -2.250000
v 6.926776 3.500000 -2.073223
v 6.573223 3.500000 -2.073223
v 6.500000 3.500000 -2.250000
v 6.573223 3.500000 -2.426777
v 6.750000 3.500000 -2.500000
v 6.926776 3.500000 -2.426777
v 6.676777 3.676777 -2.000000
v 6.853553 3.853553 -2.250000
v 6.801776 3.801776 -2.073223
v 6.551777 3.551777 -2.073223
v 6.551777 3.551777 -2.426777
v 6.676777 3.676777 -2.500000
v 6.801776 3.801776 -2.426777
v 6.500000 3.750000 -2.000000
v 6.500000 4.000000 -2.250000
v 6.500000 3.926776 -2.073223
v 6.500000 3.573223 -2.073223
v 6.500000 3.573223 -2.426777
v 6.500000 3.750000 -2.500000
v 6.500000 3.926776 -2.426777
v 5.000000 3.000000 -1.500000
v 5.073224 3.176777 -1.500000
v 5.250000 3.250000 -1.500000
v 5.426777 3.176777 -1.500000
v 5.500000 3.000000 -1.500000
v 5.426777 2.823223 -1.500000
v 5.250000 2.750000 -1.500000
v 5.073224 2.823223 -1.500000
v 5.000000 3.000000 0.000000
v 5.073223 3.176777 0.000000
v 5.250000 3.250000 0.000000
v 5.426777 3.176777 0.000000
v 5.500000 3.000000 0.000000
v 5.426777 2.823223 0.000000
v 5.250000 2.750000 0.000000
v 5.073223 2.823223 0.000000
v 5.000000 2.926777 0.176777
v 5.073223 3.051777 0.301777
v 5.250000 3.103553 0.353554
v 5.426777 3.051777 0.301777
v 5.500000 2.926777 0.176777
v 5.426777 2.801776 0.051777
v 5.073223 2.801776 0.051777
v 5.000000 2.750000 0.250000
v 5.073223 2.750000 0.426777
v 5.250000 2.750000 0.500000
v 5.426777 2.750000 0.426777
v 5.500000 2.750000 0.250000
v 5.426777 2.750000 0.073223
v 5.073223 2.750000 0.073223
v 5.250000 2.500000 0.000000
v 5.000000 2.500000 0.250000
v 5.073223 2.500000 0.426777
v 5.250000 2.500000 0.500000
v 5.426777 2.500000 0.426777
v 5.500000 2.500000 0.250000
v 5.426777 2.500000 0.073223
v 5.073223 2.500000 0.073223
v 5.000000 3.073223 -1.676777
v 5.073224 3.198223 -1.551776
v 5.426777 3.198223 -1.551776
v 5.500000 3.073223 -1.676777
v 5.426777 2.948223 -1.801777
v 5.250000 2.896447 -1.853553
v 5.073224 2.948223 -1.801777
v 5.000000 3.250000 -1.750000
v 5.073224 3.250000 -1.573223
v 5.426777 3.250000 -1.573223
v 5.500000 3.250000 -1.750000
v 5.426777 3.250000 -1.926777
v 5.250000 3.250000 -2.000000
v 5.073224 3.250000 -1.926777
v 5.250000 3.500000 -1.500000
v 5.000000 3.500000 -1.750000
v 5.073224 3.500000 -1.573223
v 5.426777 3.500000 -1.573223
v 5.500000 3.500000 -1.750000
v 5.426777 3.500000 -1.926777
v 5.250000 3.500000 -2.000000
v 5.073224 3.500000 -1.926777
v 5.323223 3.676777 -1.500000
v 5.146447 3.853553 -1.750000
v 5.198224 3.801776 -1.573223
v 5.448223 3.551777 -1.573223
v 5.448223 3.551777 -1.926777
v 5.323223 3.676777 -2.000000
v 5.198224 3.801776 -1.926777
v 5.500000 3.750000 -1.500000
v 5.500000 4.000000 -1.750000
v 5.500000 3.926776 -1.573223
v 5.500000 3.573223 -1.573223
v 5.500000 3.573223 -1.926777
v 5.500000 3.750000 -2.000000
v 5.500000 3.926776 -1.926777
v 5.250000 2.500000 -2.000000
v 5.000000 2.500000 -2.250000
v 5.073224 2.500000 -2.073223
v 5.426777 2.500000 -2.073223
v 5.500000 2.500000 -2.250000
v 5.426777 2.500000 -2.426777
v 5.250000 2.500000 -2.500000
v 5.073224 2.500000 -2.426777
v 5.250000 3.500000 -2.000000
v 5.000000 3.500000 -2.250000
v 5.073224 3.500000 -2.073223
v 5.426777 3.500000 -2.073223
v 5.500000 3.500000 -2.250000
v 5.426777 3.500000 -2.426777
v 5.250000 3.500000 -2.500000
v 5.073224 3.500000 -2.426777
v 5.323223 3.676777 -2.000000
v 5.146447 3.853553 -2.250000
v 5.198224 3.801776 -2.073223
v 5.448223 3.551777 -2.073223
v 5.448223 3.551777 -2.426777
v 5.323223 3.676777 -2.500000
v 5.198224 3.801776 -2.426777
v 5.500000 3.750000 -2.000000
v 5.500000 4.000000 -2.250000
v 5.500000 3.926776 -2.073223
v 5.500000 3.573223 -2.073223
v 5.500000 3.573223 -2.426777
v 5.500000 3.750000 -2.500000
v 5.500000 3.926776 -2.426777
v 5.000000 0.500000 0.250000
v 7.000000 0.500000 0.250000
v 5.000000 0.500000 -0.250000
v 7.000000 0.500000 -0.250000
v 5.000000 1.000000 -0.250000
v 5.000000 1.000000 0.250000
v 7.000000 1.000000 0.250000
v 7.000000 1.000000 -0.250000
v 5.000000 0.500000 -1.750000
v 7.000000 0.500000 -1.750000
v 5.000000 0.500000 -2.250000
v 7.000000 0.500000 -2.250000
v 5.000000 1.000000 -2.250000
v 5.000000 1.000000 -1.750000
v 7.000000 1.000000 -1.750000
v 7.000000 1.000000 -2.250000
vt 0.000000 0.000000
vt 0.000000 0.000000
vt 0.000000 0.000000
vt 0.000000 0.000000
vt 0.000000 0.000000
vt 0.000000 0.000000
vt 0.000000 0.000000
vt 0.000000 0.000000
vt 0.000000 0.000000
vt 0.000000 0.000000
vt 0.000000 0.000000
vt 0.000000 0.000000
vt 0.000000 0.000000
vt 0.000000 0.000000
vt 0.000000 0.000000
vt 0.000000 0.000000
vt 0.000000 0.000000
vt 0.000000 0.000000
vt 0.000000 0.000000
vt 0.000000 0.000000
vt 0.000000 0.000000
vt 0.000000 0.000000
vt 0.000000 0.000000
vt 0.000000 0.000000
vt 0.000000 0.000000
vt 0.000000 0.000000
vt 0.000000 0.000000
vt 0.000000 0.000000
vt 0.000000 0.000000
vt 0.000000 0.000000
vt 0.000000 0.000000
vt 0.000000 0.000000
vt 0.000000 0.000000
vt 0.000000 0.000000
vt 0.000000 0.000000
vt 0.000000 0.000000
vt 0.000000 0.000000
vt 0.000000 0.000000
vt 0.000000 0.000000
vt 0.000000 0.000000
vt 0.000000 0.000000
vt 0.000000 0.000000
vt 0.000000 0.000000
vt 0.000000 0.000000
vt 0.000000 0.000000
vt 0.000000 0.000000
vt 0.000000 0.000000
vt 0.000000 0.000000
vt 0.000000 0.000000
vt 0.000000 0.000000
vt 0.000000 0.000000
vt 0.000000 0.000000
vt 0.000000 0.000000
vt 0.000000 0.000000
vt 0.000000 0.000000
vt 0.000000 0.000000
vt 0.000000 0.000000
vt 0.000000 0.000000
vt 0.000000 0.000000
vt 0.000000 0.000000
vt 0.000000 0.000000
vt 0.000000 0.000000
vt 0.000000 0.000000
vt 0.000000 0.000000
vt 0.000000 0.000000
vt 0.000000 0.000000
vt 0.000000 0.000000
vt 0.000000 0.000000
vt 0.000000 0.000000
vt 0.000000 0.000000
vt 0.000000 0.000000
vt 0.000000 0.000000
vt 0.000000 0.000000
vt 0.000000 0.000000
vt 0.000000 0.000000
vt 0.000000 0.000000
vt 0.000000 0.000000
vt 0.000000 0.000000
vt 0.000000 0.000000
vt 0.000000 0.000000
vt 0.000000 0.000000
vt 0.000000 0.000000
vt 0.000000 0.000000
vt 0.000000 0.000000
vt 0.000000 0.000000
vt 0.000000 0.000000
vt 0.000000 0.000000
vt 0.000000 0.000000
vt 0.000000 0.000000
vt 0.000000 0.000000
vt 0.000000 0.000000
vt 0.000000 0.000000
vt 0.000000 0.000000
vt 0.000000 0.000000
vt 0.000000 0.000000
vt 0.000000 0.000000
vt 0.000000 0.000000
vt 0.000000 0.000000
vt 0.000000 0.000000
vt 0.000000 0.000000
vt 0.000000 0.000000
vt 0.000000 0.000000
vt 0.000000 0.000000
vt 0.000000 0.000000
vt 0.000000 0.000000
vt 0.000000 0.000000
vt 0.000000 0.000000
vt 0.000000 0.000000
vt 0.000000 0.000000
vt 0.000000 0.000000
vt 0.000000 0.000000
vt 0.000000 0.000000
vt 0.000000 0.000000
vt 0.000000 0.000000
vt 0.000000 0.000000
vt 0.000000 0.000000
vt 0.000000 0.000000
vt 0.000000 0.000000
vt 0.000000 0.000000
vt 0.000000 0.000000
vt 0.000000 0.000000
vt 0.000000 0.000000
vt 0.000000 0.000000
vt 0.000000 0.000000
vt 0.000000 0.000000
vt 0.000000 0.000000
vt 0.000000 0.000000
vt 0.000000 0.000000
vt 0.000000 0.000000
vt 0.000000 0.000000
vt 0.000000 0.000000
vt 0.000000 0.000000
vt 0.000000 0.000000
vt 0.000000 0.000000
vt 0.000000 0.000000
vt 0.000000 0.000000
vt 0.000000 0.000000
vt 0.000000 0.000000
vt 0.000000 0.000000
vt 0.000000 0.000000
vt 0.000000 0.000000
vt 0.000000 0.000000
vt 0.000000 0.000000
vt 0.000000 0.000000
vt 0.000000 0.000000
vt 0.000000 0.000000
vt 0.000000 0.000000
vt 0.000000 0.000000
vt 0.000000 0.000000
vt 0.000000 0.000000
vt 0.000000 0.000000
vt 0.000000 0.000000
vt 0.000000 0.000000
vt 0.000000 0.000000
vt 0.000000 0.000000
vt 0.000000 0.000000
vt 0.000000 0.000000
vt 0.000000 0.000000
vt 0.000000 0.000000
vt 0.000000 0.000000
vt 0.000000 0.000000
vt 0.000000 0.000000
vt 0.000000 0.000000
vt 0.000000 0.000000
vt 0.000000 0.000000
vt 0.000000 0.000000
vt 0.000000 0.000000
vt 0.000000 0.000000
vt 0.000000 0.000000
vt 0.000000 0.000000
vt 0.000000 0.000000
vt 0.000000 0.000000
vt 0.000000 0.000000
vt 0.000000 0.000000
vt 0.000000 0.000000
vt 0.000000 0.000000
vt 0.000000 0.000000
vt 0.000000 0.000000
vt 0.000000 0.000000
vt 0.000000 0.000000
vt 0.000000 0.000000
vt 0.000000 0.000000
vt 0.000000 0.000000
vt 0.000000 0.000000
vt 0.000000 0.000000
vt 0.000000 0.000000
vt 0.000000 0.000000
vt 0.000000 0.000000
vt 0.000000 0.000000
vt 0.000000 0.000000
vt 0.000000 0.000000
vt 0.000000 0.000000
vt 0.000000 0.000000
vt 0.000000 0.000000
vt 0.000000 0.000000
vt 0.000000 0.000000
vt 0.000000 0.000000
vt 0.000000 0.000000
vt 0.000000 0.000000
vt 0.000000 0.000000
vt 0.000000 0.000000
vt 0.000000 0.000000
vt 0.000000 0.000000
vt 0.000000 0.000000
vt 0.000000 0.000000
vt 0.000000 0.000000
vt 0.000000 0.000000
vt 0.000000 0.000000
vt 0.000000 0.000000
vt 0.000000 0.000000
vt 0.000000 0.000000
vt 0.000000 0.000000
vt 0.000000 0.000000
vt 0.000000 0.000000
vt 0.000000 0.000000
vt 0.000000 0.000000
vt 0.000000 0.000000
vt 0.000000 0.000000
vt 0.000000 0.000000
vt 0.000000 0.000000
vt 0.000000 0.000000
vt 0.000000 0.000000
vt 0.000000 0.000000
vt 0.000000 0.000000
vt 0.000000 0.000000
vt 0.000000 0.000000
vt 0.000000 0.000000
vt 0.000000 0.000000
vt 0.000000 0.000000
vt 0.000000 0.000000
vt 0.000000 0.000000
vt 0.000000 0.000000
vt 0.000000 0.000000
vt 0.000000 0.000000
vt 0.000000 0.000000
vt 0.000000 0.000000
vt 0.000000 0.000000
vt 0.000000 0.000000
vt 0.000000 0.000000
vt 0.000000 0.000000
vt 0.000000 0.000000
vt 0.000000 0.000000
vt 0.000000 0.000000
vt 0.000000 0.000000
vt 0.000000 0.000000
vt 0.000000 0.000000
vt 0.000000 0.000000
vt 0.000000 0.000000
vt 0.000000 0.000000
vt 0.000000 0.000000
vt 0.000000 0.000000
vt 0.000000 0.000000
vt 0.000000 0.000000
vt 0.000000 0.000000
vt 0.000000 0.000000
vt 0.000000 0.000000
vt 0.000000 0.000000
vt 0.000000 0.000000
vt 0.000000 0.000000
vt 0.000000 0.000000
vt 0.000000 0.000000
vt 0.000000 0.000000
vt 0.000000 0.000000
vt 0.000000 0.000000
vt 0.000000 0.000000
vt 0.000000 0.000000
vt 0.000000 0.000000
vt 0.000000 0.000000
vt 0.000000 0.000000
vt 0.000000 0.000000
vt 0.000000 0.000000
vt 0.000000 0.000000
vt 0.000000 0.000000
vt 0.000000 0.000000
vt 0.000000 0.000000
vt 0.000000 0.000000
vt 0.000000 0.000000
vt 0.000000 0.000000
vt 0.000000 0.000000
vt 0.000000 0.000000
vt 0.000000 0.000000
vt 0.000000 0.000000
vt 0.000000 0.000000
vt 0.000000 0.000000
vt 0.000000 0.000000
vt 0.000000 0.000000
vt 0.000000 0.000000
vt 0.000000 0.000000
vt 0.000000 0.000000
vt 0.000000 0.000000
vt 0.000000 0.000000
vt 0.000000 0.000000
vt 0.000000 0.000000
vt 0.000000 0.000000
vt 0.000000 0.000000
vt 0.000000 0.000000
vt 0.000000 0.000000
vt 0.000000 0.000000
vt 0.000000 0.000000
vt 0.000000 0.000000
vt 0.000000 0.000000
vt 0.000000 0.000000
vt 0.000000 0.000000
vt 0.000000 0.000000
vt 0.000000 0.000000
vt 0.000000 0.000000
vt 0.000000 0.000000
vt 0.000000 0.000000
vt 0.000000 0.000000
vt 0.000000 0.000000
vt 0.000000 0.000000
vt 0.000000 0.000000
vt 0.000000 0.000000
vt 0.000000 0.000000
vt 0.000000 0.000000
vt 0.000000 0.000000
vt 0.000000 0.000000
vt 0.000000 0.000000
vt 0.000000 0.000000
vt 0.000000 0.000000
vt 0.000000 0.000000
vt 0.000000 0.000000
vt 0.000000 0.000000
vt 0.000000 0.000000
vt 0.000000 0.000000
vt 0.000000 0.000000
vt 0.000000 0.000000
vt 0.000000 0.000000
vt 0.000000 0.000000
vt 0.000000 0.000000
vt 0.000000 0.000000
vt 0.000000 0.000000
vt 0.000000 0.000000
vt 0.000000 0.000000
vt 0.000000 0.000000
vt 0.000000 0.000000
vt 0.000000 0.000000
vt 0.000000 0.000000
vt 0.000000 0.000000
vt 0.000000 0.000000
vt 0.000000 0.000000
vt 0.000000 0.000000
vt 0.000000 0.000000
vt 0.000000 0.000000
vt 0.000000 0.000000
vt 0.000000 0.000000
vt 0.000000 0.000000
vt 0.000000 0.000000
vt 0.000000 0.000000
vt 0.000000 0.000000
vt 0.000000 0.000000
vt 0.000000 0.000000
vt 0.000000 0.000000
vt 0.000000 0.000000
vt 0.000000 0.000000
vt 0.000000 0.000000
vt 0.000000 0.000000
vt 0.000000 0.000000
vt 0.000000 0.000000
vt 0.000000 0.000000
vt 0.000000 0.000000
vt 0.000000 0.000000
vt 0.000000 0.000000
vt 0.000000 0.000000
vt 0.000000 0.000000
vt 0.000000 0.000000
vt 0.000000 0.000000
vt 0.000000 0.000000
vt 0.000000 0.000000
vt 0.000000 0.000000
vt 0.000000 0.000000
vt 0.000000 0.000000
vn 0.0000 0.0000 -1.0000
vn 1.0000 0.0000 0.0000
vn 0.0000 0.0000 1.0000
vn -1.0000 0.0000 0.0000
vn 0.0000 1.0000 0.0000
vn 0.0000 -1.0000 0.0000
vn -0.7071 -0.7071 0.0000
vn -0.7071 0.7071 0.0000
vn 0.7071 0.7071 0.0000
vn 0.7071 -0.7071 0.0000
vn -0.9659 0.2588 0.0000
vn -0.2588 -0.9659 0.0000
vn 0.9659 -0.2588 0.0000
vn 0.2588 0.9659 0.0000
vn -0.2588 0.9659 0.0000
vn -0.9659 -0.2588 0.0000
vn 0.2588 -0.9659 0.0000
vn 0.9659 0.2588 0.0000
vn 0.0000 0.7071 0.7071
vn -0.7263 0.6737 0.1363
vn 0.0000 0.9824 0.1866
vn 0.7263 0.6737 0.1363
vn 0.9987 0.0473 0.0196
vn 0.9987 -0.0473 -0.0196
vn 0.7263 -0.6737 -0.1363
vn 0.6794 -0.7194 -0.1447
vn 0.0000 -0.9824 -0.1866
vn -0.7263 -0.6737 -0.1363
vn -0.6794 -0.7194 -0.1447
vn -0.9987 -0.0473 -0.0196
vn -0.6794 0.7194 0.1447
vn 0.6794 0.7194 0.1447
vn 0.0000 -0.7071 -0.7071
vn -0.9987 0.0473 0.0196
vn -0.9955 0.0670 0.0670
vn -0.6630 0.5293 0.5293
vn 0.6630 0.5293 0.5293
vn 0.9955 0.0670 0.0670
vn 0.7573 -0.4617 -0.4617
vn 0.9987 0.0196 0.0473
vn 0.7263 -0.1363 -0.6737
vn -0.9987 0.0196 0.0473
vn -0.6794 0.1447 0.7194
vn 0.6794 0.1447 0.7194
vn -0.7573 -0.4617 -0.4617
vn 0.0000 0.1866 0.9824
vn -0.7263 -0.1363 -0.6737
vn -0.7071 0.0000 -0.7071
vn 0.7071 0.0000 -0.7071
vn -0.7071 0.0000 0.7071
vn 0.7071 0.0000 0.7071
vn 0.6630 -0.5293 -0.5293
vn -0.6630 -0.5293 -0.5293
vn 0.9955 -0.0670 -0.0670
vn 0.7573 0.4617 0.4617
vn -0.7573 0.4617 0.4617
vn -0.9955 -0.0670 -0.0670
vn 0.6794 -0.1447 -0.7194
vn -0.6794 -0.1447 -0.7194
vn 0.9987 -0.0196 -0.0473
vn 0.7263 0.1363 0.6737
vn 0.0000 -0.1866 -0.9824
vn -0.7263 0.1363 0.6737
vn -0.9987 -0.0196 -0.0473
vn 0.7194 0.1447 -0.6794
vn -0.6737 -0.1363 -0.7263
vn 0.7194 0.1447 0.6794
vn 0.0473 0.0196 0.9987
vn 0.9824 0.1866 0.0000
vn -0.6737 -0.1363 0.7263
vn 0.0473 0.0196 -0.9987
vn -0.9809 -0.1944 0.0000
vn 0.5293 0.5293 0.6630
vn 0.0670 0.0670 0.9955
vn -0.4617 -0.4617 -0.7573
vn 0.0670 0.0670 -0.9955
vn -0.4617 -0.4617 0.7573
vn 0.5293 0.5293 -0.6630
vn -0.2611 -0.6303 0.7311
vn 0.0392 0.0948 -0.9947
vn 0.2962 0.7150 -0.6332
vn 0.3827 0.9239 0.0000
vn 0.2962 0.7150 0.6332
vn 0.0392 0.0948 0.9947
vn -0.2611 -0.6303 -0.7311
vn -0.7194 0.1447 -0.6794
vn 0.6737 -0.1363 -0.7263
vn -0.7194 0.1447 0.6794
vn -0.0473 0.0196 0.9987
vn -0.9824 0.1866 0.0000
vn 0.6737 -0.1363 0.7263
vn -0.0473 0.0196 -0.9987
vn 0.9809 -0.1944 0.0000
vn -0.0670 0.0670 0.9955
vn 0.4617 -0.4617 -0.7573
vn 0.4617 -0.4617 0.7573
vn -0.0670 0.0670 -0.9955
vn 0.2611 -0.6303 0.7311
vn -0.5293 0.5293 -0.6630
vn -0.0392 0.0948 -0.9947
vn -0.5293 0.5293 0.6630
vn -0.3827 0.9239 0.0000
vn -0.0392 0.0948 0.9947
vn 0.2611 -0.6303 -0.7311
vn -0.2962 0.7150 0.6332
vn -0.2962 0.7150 -0.6332
o Furnace
s off
f 19/29/7 18/30/7 17/31/7
f 302/32/8 28/33/8 301/34/8
f 18/35/9 22/36/9 17/37/9
f 29/38/10 20/39/10 19/40/10
f 303/41/8 306/42/8 305/43/8
f 25/44/11 29/38/11 19/45/11
f 23/46/12 25/47/12 22/36/12
f 27/48/12 29/38/12 30/49/12
f 24/50/10 305/43/10 21/51/10
f 21/52/7 306/42/7 301/53/7
f 26/54/9 30/49/9 25/47/9
f 31/55/11 41/56/11 33/57/11
f 40/58/13 35/59/13 32/60/13
f 41/56/14 38/61/14 33/57/14
f 35/59/9 45/62/9 37/63/9
f 38/61/10 44/64/10 36/65/10
f 36/65/15 42/66/15 34/67/15
f 37/63/16 39/68/16 31/69/16
f 34/67/8 40/58/8 32/60/8
f 41/70/17 47/71/17 46/72/17
f 40/58/18 50/73/18 43/74/18
f 42/66/19 50/73/19 40/58/19
f 47/71/20 39/75/20 48/76/20
f 46/72/21 49/77/21 44/78/21
f 45/79/22 48/76/22 39/75/22
f 49/80/8 62/81/8 50/82/8
f 44/78/23 49/77/23 42/66/23
f 50/73/24 45/79/24 43/74/24
f 61/83/12 60/84/12 62/81/12
f 56/85/12 57/86/12 55/87/12
f 54/88/8 56/85/8 52/89/8
f 51/90/11 57/91/11 53/92/11
f 47/93/10 61/83/10 49/94/10
f 52/89/9 55/87/9 51/90/9
f 50/95/9 60/84/9 48/96/9
f 48/97/11 59/98/11 47/99/11
f 237/100/12 235/101/12 236/102/12
f 233/103/10 238/104/10 234/105/10
f 232/106/9 236/102/9 231/107/9
f 234/108/8 237/100/8 232/109/8
f 231/110/11 235/101/11 233/111/11
f 245/112/12 243/113/12 244/114/12
f 241/115/10 246/116/10 242/117/10
f 239/118/9 245/119/9 244/120/9
f 261/121/12 259/122/12 260/123/12
f 257/124/10 262/125/10 258/126/10
f 256/127/9 260/128/9 255/129/9
f 258/126/8 261/121/8 256/130/8
f 255/129/11 259/131/11 257/124/11
f 543/132/12 541/133/12 542/134/12
f 296/135/12 294/136/12 293/137/12
f 245/119/9 296/135/9 293/137/9
f 245/112/11 294/136/11 246/138/11
f 242/139/8 296/135/8 240/140/8
f 246/116/10 295/141/10 242/117/10
f 301/142/9 304/143/9 302/144/9
f 302/145/12 303/41/12 24/146/12
f 28/33/8 21/147/8 301/34/8
f 20/148/8 24/149/8 18/30/8
f 21/147/8 26/150/8 24/149/8
f 18/30/8 26/150/8 23/151/8
f 309/152/8 308/153/8 310/154/8
f 312/155/10 316/156/10 313/157/10
f 313/157/8 315/158/8 311/159/8
f 318/160/10 322/161/10 319/162/10
f 317/163/11 320/164/11 318/160/11
f 327/165/12 328/166/12 326/167/12
f 320/164/12 321/168/12 322/169/12
f 324/170/9 327/165/9 323/171/9
f 316/156/12 314/172/12 315/173/12
f 323/171/11 326/174/11 325/175/11
f 25/44/11 17/176/11 22/177/11
f 539/178/10 544/179/10 540/180/10
f 538/181/9 542/134/9 537/182/9
f 540/183/8 543/132/8 538/184/8
f 537/185/11 541/133/11 539/186/11
f 551/187/12 549/188/12 550/189/12
f 547/190/10 552/191/10 548/192/10
f 545/193/9 551/194/9 550/195/9
f 556/196/12 554/197/12 553/198/12
f 551/194/9 556/196/9 553/198/9
f 551/187/11 554/197/11 552/199/11
f 548/200/8 556/196/8 546/201/8
f 552/191/10 555/202/10 548/192/10
f 557/203/25 560/204/25 558/205/25
f 557/206/11 563/207/11 559/208/11
f 558/209/8 564/210/8 562/211/8
f 559/212/10 566/213/10 560/204/10
f 563/214/10 567/215/10 559/212/10
f 560/204/10 570/216/10 564/217/10
f 559/212/10 567/215/10 565/218/10
f 560/204/10 566/213/10 569/219/10
f 570/220/11 575/221/11 576/222/11
f 565/218/26 572/223/26 566/213/26
f 567/224/27 571/225/27 565/218/27
f 568/226/8 573/227/8 567/224/8
f 569/228/28 572/223/28 575/221/28
f 574/229/25 563/207/25 561/230/25
f 570/220/25 562/211/25 564/210/25
f 19/29/7 20/148/7 18/30/7
f 302/32/8 20/148/8 28/33/8
f 18/35/9 23/46/9 22/36/9
f 29/38/10 28/33/10 20/39/10
f 303/41/8 304/143/8 306/42/8
f 25/44/11 30/49/11 29/38/11
f 23/46/12 26/54/12 25/47/12
f 27/48/12 28/33/12 29/38/12
f 24/50/10 303/41/10 305/43/10
f 21/52/7 305/43/7 306/42/7
f 26/54/9 27/48/9 30/49/9
f 31/55/11 39/231/11 41/56/11
f 40/58/13 43/232/13 35/59/13
f 41/56/14 46/233/14 38/61/14
f 35/59/9 43/232/9 45/62/9
f 38/61/10 46/233/10 44/64/10
f 36/65/15 44/64/15 42/66/15
f 37/63/16 45/62/16 39/68/16
f 34/67/8 42/66/8 40/58/8
f 42/66/19 49/77/19 50/73/19
f 47/71/20 41/70/20 39/75/20
f 46/72/21 47/71/21 49/77/21
f 49/80/8 61/83/8 62/81/8
f 50/73/24 48/76/24 45/79/24
f 61/83/12 59/98/12 60/84/12
f 56/85/12 58/234/12 57/86/12
f 54/88/8 58/235/8 56/85/8
f 51/90/11 55/87/11 57/91/11
f 47/93/10 59/98/10 61/83/10
f 52/89/9 56/85/9 55/87/9
f 50/95/9 62/81/9 60/84/9
f 48/97/11 60/84/11 59/98/11
f 237/100/12 238/104/12 235/101/12
f 233/103/10 235/101/10 238/104/10
f 232/106/9 237/100/9 236/102/9
f 234/108/8 238/104/8 237/100/8
f 231/110/11 236/102/11 235/101/11
f 245/112/12 246/138/12 243/113/12
f 241/115/10 243/236/10 246/116/10
f 239/118/9 240/237/9 245/119/9
f 261/121/12 262/125/12 259/122/12
f 257/124/10 259/131/10 262/125/10
f 256/127/9 261/238/9 260/128/9
f 258/126/8 262/125/8 261/121/8
f 255/129/11 260/128/11 259/131/11
f 543/132/12 544/179/12 541/133/12
f 296/135/12 295/141/12 294/136/12
f 245/119/9 240/237/9 296/135/9
f 245/112/11 293/137/11 294/136/11
f 242/139/8 295/141/8 296/135/8
f 246/116/10 294/136/10 295/141/10
f 301/142/9 306/42/9 304/143/9
f 302/145/12 304/143/12 303/41/12
f 28/33/8 27/48/8 21/147/8
f 20/148/8 302/32/8 24/149/8
f 21/147/8 27/48/8 26/150/8
f 18/30/8 24/149/8 26/150/8
f 309/152/8 307/239/8 308/153/8
f 312/155/10 314/172/10 316/156/10
f 313/157/8 316/156/8 315/158/8
f 318/160/10 320/164/10 322/161/10
f 317/163/11 321/168/11 320/164/11
f 324/170/9 328/166/9 327/165/9
f 323/171/11 327/165/11 326/174/11
f 25/44/11 19/45/11 17/176/11
f 539/178/10 541/133/10 544/179/10
f 538/181/9 543/132/9 542/134/9
f 540/183/8 544/179/8 543/132/8
f 537/185/11 542/134/11 541/133/11
f 551/187/12 552/199/12 549/188/12
f 547/190/10 549/240/10 552/191/10
f 545/193/9 546/241/9 551/194/9
f 556/196/12 555/202/12 554/197/12
f 551/194/9 546/241/9 556/196/9
f 551/187/11 553/198/11 554/197/11
f 548/200/8 555/202/8 556/196/8
f 552/191/10 554/197/10 555/202/10
f 557/203/25 559/212/25 560/204/25
f 557/206/11 561/230/11 563/207/11
f 558/209/8 560/242/8 564/210/8
f 559/212/10 565/218/10 566/213/10
f 563/214/10 568/243/10 567/215/10
f 560/204/10 569/219/10 570/216/10
f 570/220/11 569/228/11 575/221/11
f 565/218/26 571/225/26 572/223/26
f 567/224/27 573/227/27 571/225/27
f 568/226/8 574/229/8 573/227/8
f 569/228/28 566/213/28 572/223/28
f 574/229/25 568/226/25 563/207/25
f 570/220/25 576/222/25 562/211/25
s 1
f 66/244/29 73/245/30 65/246/12
f 64/247/25 71/248/31 63/249/10
f 63/249/10 78/250/32 70/251/33
f 69/252/7 76/253/34 68/254/26
f 67/255/9 74/256/35 66/244/29
f 65/246/12 72/257/36 64/247/25
f 70/251/33 77/258/37 69/259/7
f 68/254/26 75/260/38 67/255/9
f 74/261/35 83/262/39 82/263/40
f 73/245/30 80/264/41 72/265/36
f 76/266/34 83/262/39 75/267/38
f 74/261/35 81/268/42 73/245/30
f 72/265/36 79/269/43 71/270/31
f 71/270/31 85/271/44 78/272/32
f 80/264/41 86/273/45 79/269/43
f 79/269/43 92/274/46 85/271/44
f 83/262/39 89/275/47 82/263/40
f 81/268/42 87/276/48 80/264/41
f 83/262/39 91/277/49 90/278/50
f 81/268/42 89/275/47 88/279/51
f 78/272/32 85/271/44 77/280/37
f 85/271/44 92/274/46 77/280/37
f 76/266/34 77/281/37 84/282/52
f 84/282/52 77/281/37 91/277/49
f 77/283/37 99/284/16 91/285/49
f 86/286/45 100/287/14 92/288/46
f 92/288/46 93/289/11 77/290/37
f 90/291/50 97/292/13 89/293/47
f 88/279/51 95/294/15 87/295/48
f 91/285/49 98/296/9 90/291/50
f 89/293/47 96/297/8 88/279/51
f 87/295/48 94/298/10 86/286/45
f 104/299/29 111/300/30 103/301/12
f 102/302/25 109/303/31 101/304/10
f 101/304/10 116/305/32 108/306/33
f 107/307/7 114/308/34 106/309/26
f 105/310/9 112/311/35 104/299/29
f 103/301/12 110/312/36 102/302/25
f 108/306/33 115/313/37 107/314/7
f 106/309/26 113/315/38 105/310/9
f 112/316/35 121/317/39 120/318/40
f 111/300/30 118/319/41 110/320/36
f 113/321/38 122/322/52 121/317/39
f 111/300/30 120/318/40 119/323/42
f 110/320/36 117/324/43 109/325/31
f 109/325/31 123/326/44 116/327/32
f 118/319/41 124/328/45 117/324/43
f 117/324/43 130/329/46 123/326/44
f 120/318/40 128/330/50 127/331/47
f 118/319/41 126/332/51 125/333/48
f 121/317/39 129/334/49 128/330/50
f 120/318/40 126/332/51 119/323/42
f 116/327/32 123/326/44 115/335/37
f 123/326/44 130/329/46 115/335/37
f 114/336/34 115/337/37 122/322/52
f 122/322/52 115/337/37 129/334/49
f 115/338/37 137/339/16 129/340/49
f 124/341/45 138/342/14 130/343/46
f 130/343/46 131/344/11 115/345/37
f 128/346/50 135/347/13 127/348/47
f 126/332/51 133/349/15 125/350/48
f 129/340/49 136/351/9 128/346/50
f 127/348/47 134/352/8 126/332/51
f 125/350/48 132/353/10 124/341/45
f 142/354/53 149/355/54 141/356/12
f 140/357/42 147/358/55 139/359/8
f 139/359/8 154/360/56 146/361/57
f 145/362/7 152/363/58 144/364/37
f 143/365/11 150/366/59 142/354/53
f 140/357/42 149/355/54 148/367/60
f 146/361/57 153/368/33 145/369/7
f 144/364/37 151/370/61 143/365/11
f 150/371/59 159/372/62 158/373/63
f 149/355/54 156/374/64 148/375/60
f 152/376/58 159/372/62 151/377/61
f 149/355/54 158/373/63 157/378/29
f 148/375/60 155/379/65 147/380/55
f 154/381/56 155/379/65 161/382/66
f 155/379/65 163/383/67 162/384/68
f 161/382/66 162/384/68 168/385/69
f 159/372/62 165/386/70 158/373/63
f 156/374/64 164/387/71 163/383/67
f 160/388/72 166/389/73 159/372/62
f 157/378/29 165/386/70 164/387/71
f 154/381/56 161/382/66 153/390/33
f 161/382/66 168/385/69 153/390/33
f 152/376/58 153/391/33 160/388/72
f 160/388/72 153/391/33 167/392/74
f 153/393/33 175/394/75 167/395/74
f 162/396/68 176/397/76 168/398/69
f 168/398/69 169/399/77 153/400/33
f 166/401/73 173/402/78 165/403/70
f 164/387/71 171/404/79 163/405/67
f 167/395/74 174/406/80 166/401/73
f 165/403/70 172/407/29 164/387/71
f 163/405/67 170/408/81 162/396/68
f 174/409/80 182/410/82 181/411/83
f 171/412/79 178/413/84 170/414/81
f 169/415/77 182/410/82 175/416/75
f 170/414/81 183/417/85 176/418/76
f 173/419/78 181/411/83 180/420/86
f 176/418/76 177/421/33 169/399/77
f 177/421/33 190/422/87 184/423/88
f 181/411/83 189/424/89 188/425/90
f 178/413/84 186/426/91 185/427/92
f 177/428/33 189/424/89 182/410/82
f 178/413/84 190/422/87 183/417/85
f 181/411/83 187/429/93 180/420/86
f 171/412/79 172/430/29 179/431/94
f 179/431/94 172/430/29 186/426/91
f 173/419/78 180/420/86 172/430/29
f 180/420/86 187/429/93 172/430/29
f 194/432/53 201/433/12 193/434/12
f 192/435/42 199/436/8 191/437/8
f 191/437/8 206/438/57 198/439/57
f 197/440/7 204/441/37 196/442/37
f 195/443/11 202/444/53 194/432/53
f 192/435/42 201/433/12 200/445/42
f 198/439/57 205/446/7 197/447/7
f 196/442/37 203/448/11 195/443/11
f 210/449/53 217/450/12 209/451/12
f 208/452/42 215/453/8 207/454/8
f 207/454/8 222/455/57 214/456/57
f 213/457/7 220/458/37 212/459/37
f 211/460/11 218/461/53 210/449/53
f 208/452/42 217/450/12 216/462/42
f 214/456/57 221/463/7 213/464/7
f 212/459/37 219/465/11 211/460/11
f 249/466/95 226/467/96 250/468/97
f 247/469/98 224/470/53 248/471/99
f 229/472/100 329/473/101 230/474/102
f 248/471/99 225/475/103 249/466/95
f 247/469/98 329/473/101 223/476/104
f 253/477/33 230/478/102 254/479/10
f 251/480/26 228/481/57 252/482/7
f 298/483/12 249/484/95 299/485/29
f 254/479/10 247/486/98 297/487/25
f 252/488/7 229/489/100 253/477/33
f 190/490/87 264/491/105 184/423/88
f 189/492/89 268/493/14 188/494/90
f 186/495/91 265/496/106 185/497/92
f 187/498/93 263/499/107 172/500/29
f 184/501/88 269/502/108 189/492/89
f 172/500/29 266/503/109 186/495/91
f 185/497/92 270/504/110 190/490/87
f 188/494/90 267/505/111 187/498/93
f 266/506/109 271/507/112 274/508/113
f 270/509/110 272/510/114 264/511/105
f 266/506/109 273/512/13 265/496/106
f 267/513/111 271/507/112 263/514/107
f 269/515/108 272/516/114 276/517/115
f 270/509/110 273/512/13 277/518/116
f 277/518/116 280/519/117 284/520/118
f 271/507/112 281/521/119 274/508/113
f 272/510/114 284/520/118 279/522/120
f 274/508/113 280/519/117 273/512/13
f 275/523/121 278/524/122 271/507/112
f 272/516/114 283/525/123 276/517/115
f 269/515/108 276/517/115 268/526/14
f 276/517/115 283/525/123 268/526/14
f 267/513/111 268/526/14 275/523/121
f 275/523/121 268/526/14 282/527/124
f 278/528/122 289/529/29 281/530/119
f 284/531/118 287/532/7 279/533/120
f 281/530/119 288/534/9 280/519/117
f 268/535/14 290/536/25 282/537/124
f 282/537/124 286/538/12 278/528/122
f 283/539/123 285/540/10 268/535/14
f 279/541/120 291/542/33 283/539/123
f 280/519/117 292/543/26 284/531/118
f 300/544/9 227/545/125 251/480/26
f 299/485/29 250/546/97 300/544/9
f 297/487/25 248/471/99 298/483/12
f 250/468/97 331/547/126 227/548/125
f 225/475/103 332/549/127 226/467/96
f 226/467/96 338/550/128 331/547/126
f 329/473/101 335/551/129 223/476/104
f 224/470/53 333/552/130 225/475/103
f 329/473/101 337/553/131 336/554/132
f 224/470/53 335/551/129 334/555/133
f 227/548/125 331/547/126 228/556/57
f 331/547/126 338/550/128 228/556/57
f 229/472/100 228/557/57 330/558/134
f 330/558/134 228/557/57 337/553/131
f 228/559/57 345/560/15 337/561/131
f 332/562/127 346/563/13 338/564/128
f 338/564/128 339/565/8 228/566/57
f 336/567/132 343/568/14 335/569/129
f 334/555/133 341/570/16 333/571/130
f 337/561/131 344/572/10 336/567/132
f 335/569/129 342/573/11 334/555/133
f 333/571/130 340/574/9 332/562/127
f 350/575/25 357/576/99 349/577/12
f 348/578/29 355/579/97 347/580/9
f 347/580/9 362/581/125 354/582/26
f 353/583/7 360/584/100 352/585/33
f 351/586/10 358/587/98 350/575/25
f 349/577/12 356/588/95 348/578/29
f 354/582/26 361/589/57 353/590/7
f 352/585/33 359/591/102 351/586/10
f 359/592/102 366/593/104 358/594/98
f 357/576/99 364/595/103 356/596/95
f 359/592/102 368/597/134 367/598/101
f 357/576/99 366/593/104 365/599/53
f 356/596/95 363/600/96 355/601/97
f 355/601/97 369/602/126 362/603/125
f 363/600/96 371/604/130 370/605/127
f 363/600/96 376/606/128 369/602/126
f 367/598/101 373/607/129 366/593/104
f 365/599/53 371/604/130 364/595/103
f 367/598/101 375/608/131 374/609/132
f 365/599/53 373/607/129 372/610/133
f 362/603/125 369/602/126 361/611/57
f 369/602/126 376/606/128 361/611/57
f 360/612/100 361/613/57 368/597/134
f 368/597/134 361/613/57 375/608/131
f 361/614/57 383/615/15 375/616/131
f 370/617/127 384/618/13 376/619/128
f 376/619/128 377/620/8 361/621/57
f 374/622/132 381/623/14 373/624/129
f 372/610/133 379/625/16 371/626/130
f 375/616/131 382/627/10 374/622/132
f 373/624/129 380/628/11 372/610/133
f 371/626/130 378/629/9 370/617/127
f 388/630/42 395/631/135 387/632/12
f 386/633/53 393/634/136 385/635/11
f 385/635/11 400/636/137 392/637/37
f 391/638/7 398/639/138 390/640/57
f 389/641/8 396/642/139 388/630/42
f 387/632/12 394/643/140 386/633/53
f 392/637/37 399/644/26 391/645/7
f 390/640/57 397/646/141 389/641/8
f 396/647/139 405/648/142 404/649/143
f 395/631/135 402/650/144 394/651/140
f 398/652/138 405/648/142 397/653/141
f 396/647/139 403/654/25 395/631/135
f 394/651/140 401/655/145 393/656/136
f 393/656/136 407/657/146 400/658/137
f 402/650/144 408/659/147 401/655/145
f 401/655/145 414/660/148 407/657/146
f 405/648/142 411/661/149 404/649/143
f 403/654/25 409/662/150 402/650/144
f 405/648/142 413/663/151 412/664/152
f 404/649/143 410/665/153 403/654/25
f 400/658/137 407/657/146 399/666/26
f 407/657/146 414/660/148 399/666/26
f 398/652/138 399/667/26 406/668/154
f 406/668/154 399/667/26 413/663/151
f 399/669/26 421/670/13 413/671/151
f 408/672/147 422/673/16 414/674/148
f 414/674/148 415/675/9 399/676/26
f 412/677/152 419/678/15 411/679/149
f 410/665/153 417/680/14 409/681/150
f 413/671/151 420/682/8 412/677/152
f 411/679/149 418/683/10 410/665/153
f 409/681/150 416/684/11 408/672/147
f 426/685/42 433/686/135 425/687/12
f 424/688/53 431/689/136 423/690/11
f 423/690/11 438/691/137 430/692/37
f 429/693/7 436/694/138 428/695/57
f 427/696/8 434/697/139 426/685/42
f 425/687/12 432/698/140 424/688/53
f 430/692/37 437/699/26 429/700/7
f 428/695/57 435/701/141 427/696/8
f 434/702/139 443/703/142 442/704/143
f 433/686/135 440/705/144 432/706/140
f 435/707/141 444/708/154 443/703/142
f 433/686/135 442/704/143 441/709/25
f 431/710/136 440/705/144 439/711/145
f 431/710/136 445/712/146 438/713/137
f 439/711/145 447/714/150 446/715/147
f 439/711/145 452/716/148 445/712/146
f 443/703/142 449/717/149 442/704/143
f 441/709/25 447/714/150 440/705/144
f 443/703/142 451/718/151 450/719/152
f 441/709/25 449/717/149 448/720/153
f 438/713/137 445/712/146 437/721/26
f 445/712/146 452/716/148 437/721/26
f 436/722/138 437/723/26 444/708/154
f 444/708/154 437/723/26 451/718/151
f 437/724/26 459/725/13 451/726/151
f 446/727/147 460/728/16 452/729/148
f 452/729/148 453/730/9 437/731/26
f 450/732/152 457/733/15 449/734/149
f 448/720/153 455/735/14 447/736/150
f 451/726/151 458/737/8 450/732/152
f 449/734/149 456/738/10 448/720/153
f 447/736/150 454/739/11 446/727/147
f 471/740/60 464/741/65 472/742/55
f 470/743/54 461/744/63 462/745/29
f 467/746/58 481/747/62 468/748/61
f 470/743/54 463/749/64 471/740/60
f 469/750/59 481/747/62 461/744/63
f 475/751/37 468/752/61 476/753/11
f 473/754/57 466/755/33 474/756/7
f 478/757/12 471/758/60 479/759/42
f 476/753/11 469/760/59 477/761/53
f 474/762/7 467/763/58 475/751/37
f 480/764/8 465/765/56 473/754/57
f 479/759/42 472/766/55 480/764/8
f 477/761/53 470/743/54 478/757/12
f 472/742/55 483/767/66 465/768/56
f 464/741/65 485/769/67 484/770/68
f 483/767/66 484/770/68 490/771/69
f 481/747/62 487/772/70 461/744/63
f 463/749/64 486/773/71 485/769/67
f 482/774/72 488/775/73 481/747/62
f 462/745/29 487/772/70 486/773/71
f 465/768/56 483/767/66 466/776/33
f 483/767/66 490/771/69 466/776/33
f 467/746/58 466/777/33 482/774/72
f 482/774/72 466/777/33 489/778/74
f 466/779/33 497/780/14 489/781/74
f 484/782/68 498/783/15 490/784/69
f 490/784/69 491/785/10 466/786/33
f 488/787/73 495/788/16 487/789/70
f 486/773/71 493/790/13 485/791/67
f 489/781/74 496/792/11 488/787/73
f 487/789/70 494/793/9 486/773/71
f 485/791/67 492/794/8 484/782/68
f 502/795/53 509/796/54 501/797/12
f 500/798/42 507/799/55 499/800/8
f 499/800/8 514/801/56 506/802/57
f 505/803/7 512/804/58 504/805/37
f 503/806/11 510/807/59 502/795/53
f 501/797/12 508/808/60 500/798/42
f 506/802/57 513/809/33 505/810/7
f 504/805/37 511/811/61 503/806/11
f 511/812/61 518/813/63 510/814/59
f 509/796/54 516/815/64 508/816/60
f 511/812/61 520/817/72 519/818/62
f 509/796/54 518/813/63 517/819/29
f 508/816/60 515/820/65 507/821/55
f 507/821/55 521/822/66 514/823/56
f 516/815/64 522/824/68 515/820/65
f 521/822/66 522/824/68 528/825/69
f 519/818/62 525/826/70 518/813/63
f 516/815/64 524/827/71 523/828/67
f 520/817/72 526/829/73 519/818/62
f 517/819/29 525/826/70 524/827/71
f 514/823/56 521/822/66 513/830/33
f 521/822/66 528/825/69 513/830/33
f 512/831/58 513/832/33 520/817/72
f 520/817/72 513/832/33 527/833/74
f 513/834/33 535/835/14 527/836/74
f 522/837/68 536/838/15 528/839/69
f 528/839/69 529/840/10 513/841/33
f 526/842/73 533/843/16 525/844/70
f 524/827/71 531/845/13 523/846/67
f 527/836/74 534/847/11 526/842/73
f 525/844/70 532/848/9 524/827/71
f 523/846/67 530/849/8 522/837/68
f 66/244/29 74/256/35 73/245/30
f 64/247/25 72/257/36 71/248/31
f 63/249/10 71/248/31 78/250/32
f 69/252/7 77/850/37 76/253/34
f 67/255/9 75/260/38 74/256/35
f 65/246/12 73/245/30 72/257/36
f 70/251/33 78/250/32 77/258/37
f 68/254/26 76/253/34 75/260/38
f 74/261/35 75/267/38 83/262/39
f 73/245/30 81/268/42 80/264/41
f 76/266/34 84/282/52 83/262/39
f 74/261/35 82/263/40 81/268/42
f 72/265/36 80/264/41 79/269/43
f 71/270/31 79/269/43 85/271/44
f 80/264/41 87/276/48 86/273/45
f 79/269/43 86/273/45 92/274/46
f 83/262/39 90/278/50 89/275/47
f 81/268/42 88/279/51 87/276/48
f 83/262/39 84/282/52 91/277/49
f 81/268/42 82/263/40 89/275/47
f 77/283/37 93/851/11 99/284/16
f 86/286/45 94/298/10 100/287/14
f 92/288/46 100/287/14 93/289/11
f 90/291/50 98/296/9 97/292/13
f 88/279/51 96/297/8 95/294/15
f 91/285/49 99/284/16 98/296/9
f 89/293/47 97/292/13 96/297/8
f 87/295/48 95/294/15 94/298/10
f 104/299/29 112/311/35 111/300/30
f 102/302/25 110/312/36 109/303/31
f 101/304/10 109/303/31 116/305/32
f 107/307/7 115/852/37 114/308/34
f 105/310/9 113/315/38 112/311/35
f 103/301/12 111/300/30 110/312/36
f 108/306/33 116/305/32 115/313/37
f 106/309/26 114/308/34 113/315/38
f 112/316/35 113/321/38 121/317/39
f 111/300/30 119/323/42 118/319/41
f 113/321/38 114/336/34 122/322/52
f 111/300/30 112/316/35 120/318/40
f 110/320/36 118/319/41 117/324/43
f 109/325/31 117/324/43 123/326/44
f 118/319/41 125/333/48 124/328/45
f 117/324/43 124/328/45 130/329/46
f 120/318/40 121/317/39 128/330/50
f 118/319/41 119/323/42 126/332/51
f 121/317/39 122/322/52 129/334/49
f 120/318/40 127/331/47 126/332/51
f 115/338/37 131/853/11 137/339/16
f 124/341/45 132/353/10 138/342/14
f 130/343/46 138/342/14 131/344/11
f 128/346/50 136/351/9 135/347/13
f 126/332/51 134/352/8 133/349/15
f 129/340/49 137/339/16 136/351/9
f 127/348/47 135/347/13 134/352/8
f 125/350/48 133/349/15 132/353/10
f 142/354/53 150/366/59 149/355/54
f 140/357/42 148/367/60 147/358/55
f 139/359/8 147/358/55 154/360/56
f 145/362/7 153/854/33 152/363/58
f 143/365/11 151/370/61 150/366/59
f 140/357/42 141/356/12 149/355/54
f 146/361/57 154/360/56 153/368/33
f 144/364/37 152/363/58 151/370/61
f 150/371/59 151/377/61 159/372/62
f 149/355/54 157/378/29 156/374/64
f 152/376/58 160/388/72 159/372/62
f 149/355/54 150/371/59 158/373/63
f 148/375/60 156/374/64 155/379/65
f 154/381/56 147/380/55 155/379/65
f 155/379/65 156/374/64 163/383/67
f 161/382/66 155/379/65 162/384/68
f 159/372/62 166/389/73 165/386/70
f 156/374/64 157/378/29 164/387/71
f 160/388/72 167/392/74 166/389/73
f 157/378/29 158/373/63 165/386/70
f 153/393/33 169/415/77 175/394/75
f 162/396/68 170/408/81 176/397/76
f 168/398/69 176/397/76 169/399/77
f 166/401/73 174/406/80 173/402/78
f 164/387/71 172/407/29 171/404/79
f 167/395/74 175/394/75 174/406/80
f 165/403/70 173/402/78 172/407/29
f 163/405/67 171/404/79 170/408/81
f 174/409/80 175/416/75 182/410/82
f 171/412/79 179/431/94 178/413/84
f 169/415/77 177/428/33 182/410/82
f 170/414/81 178/413/84 183/417/85
f 173/419/78 174/409/80 181/411/83
f 176/418/76 183/417/85 177/421/33
f 177/421/33 183/417/85 190/422/87
f 181/411/83 182/410/82 189/424/89
f 178/413/84 179/431/94 186/426/91
f 177/428/33 184/501/88 189/424/89
f 178/413/84 185/427/92 190/422/87
f 181/411/83 188/425/90 187/429/93
f 194/432/53 202/444/53 201/433/12
f 192/435/42 200/445/42 199/436/8
f 191/437/8 199/436/8 206/438/57
f 197/440/7 205/855/7 204/441/37
f 195/443/11 203/448/11 202/444/53
f 192/435/42 193/434/12 201/433/12
f 198/439/57 206/438/57 205/446/7
f 196/442/37 204/441/37 203/448/11
f 210/449/53 218/461/53 217/450/12
f 208/452/42 216/462/42 215/453/8
f 207/454/8 215/453/8 222/455/57
f 213/457/7 221/856/7 220/458/37
f 211/460/11 219/465/11 218/461/53
f 208/452/42 209/451/12 217/450/12
f 214/456/57 222/455/57 221/463/7
f 212/459/37 220/458/37 219/465/11
f 249/466/95 225/475/103 226/467/96
f 247/469/98 223/476/104 224/470/53
f 229/472/100 330/558/134 329/473/101
f 248/471/99 224/470/53 225/475/103
f 247/469/98 230/474/102 329/473/101
f 253/477/33 229/489/100 230/478/102
f 251/480/26 227/545/125 228/481/57
f 298/483/12 248/471/99 249/484/95
f 254/479/10 230/478/102 247/486/98
f 252/488/7 228/857/57 229/489/100
f 190/490/87 270/504/110 264/491/105
f 189/492/89 269/502/108 268/493/14
f 186/495/91 266/503/109 265/496/106
f 187/498/93 267/505/111 263/499/107
f 184/501/88 264/858/105 269/502/108
f 172/500/29 263/499/107 266/503/109
f 185/497/92 265/496/106 270/504/110
f 188/494/90 268/493/14 267/505/111
f 266/506/109 263/514/107 271/507/112
f 270/509/110 277/518/116 272/510/114
f 266/506/109 274/508/113 273/512/13
f 267/513/111 275/523/121 271/507/112
f 269/515/108 264/859/105 272/516/114
f 270/509/110 265/496/106 273/512/13
f 277/518/116 273/512/13 280/519/117
f 271/507/112 278/524/122 281/521/119
f 272/510/114 277/518/116 284/520/118
f 274/508/113 281/521/119 280/519/117
f 275/523/121 282/527/124 278/524/122
f 272/516/114 279/860/120 283/525/123
f 278/528/122 286/538/12 289/529/29
f 284/531/118 292/543/26 287/532/7
f 281/530/119 289/529/29 288/534/9
f 268/535/14 285/540/10 290/536/25
f 282/537/124 290/536/25 286/538/12
f 283/539/123 291/542/33 285/540/10
f 279/541/120 287/861/7 291/542/33
f 280/519/117 288/534/9 292/543/26
f 300/544/9 250/546/97 227/545/125
f 299/485/29 249/484/95 250/546/97
f 297/487/25 247/486/98 248/471/99
f 250/468/97 226/467/96 331/547/126
f 225/475/103 333/552/130 332/549/127
f 226/467/96 332/549/127 338/550/128
f 329/473/101 336/554/132 335/551/129
f 224/470/53 334/555/133 333/552/130
f 329/473/101 330/558/134 337/553/131
f 224/470/53 223/476/104 335/551/129
f 228/559/57 339/862/8 345/560/15
f 332/562/127 340/574/9 346/563/13
f 338/564/128 346/563/13 339/565/8
f 336/567/132 344/572/10 343/568/14
f 334/555/133 342/573/11 341/570/16
f 337/561/131 345/560/15 344/572/10
f 335/569/129 343/568/14 342/573/11
f 333/571/130 341/570/16 340/574/9
f 350/575/25 358/587/98 357/576/99
f 348/578/29 356/588/95 355/579/97
f 347/580/9 355/579/97 362/581/125
f 353/583/7 361/863/57 360/584/100
f 351/586/10 359/591/102 358/587/98
f 349/577/12 357/576/99 356/588/95
f 354/582/26 362/581/125 361/589/57
f 352/585/33 360/584/100 359/591/102
f 359/592/102 367/598/101 366/593/104
f 357/576/99 365/599/53 364/595/103
f 359/592/102 360/612/100 368/597/134
f 357/576/99 358/594/98 366/593/104
f 356/596/95 364/595/103 363/600/96
f 355/601/97 363/600/96 369/602/126
f 363/600/96 364/595/103 371/604/130
f 363/600/96 370/605/127 376/606/128
f 367/598/101 374/609/132 373/607/129
f 365/599/53 372/610/133 371/604/130
f 367/598/101 368/597/134 375/608/131
f 365/599/53 366/593/104 373/607/129
f 361/614/57 377/864/8 383/615/15
f 370/617/127 378/629/9 384/618/13
f 376/619/128 384/618/13 377/620/8
f 374/622/132 382/627/10 381/623/14
f 372/610/133 380/628/11 379/625/16
f 375/616/131 383/615/15 382/627/10
f 373/624/129 381/623/14 380/628/11
f 371/626/130 379/625/16 378/629/9
f 388/630/42 396/642/139 395/631/135
f 386/633/53 394/643/140 393/634/136
f 385/635/11 393/634/136 400/636/137
f 391/638/7 399/865/26 398/639/138
f 389/641/8 397/646/141 396/642/139
f 387/632/12 395/631/135 394/643/140
f 392/637/37 400/636/137 399/644/26
f 390/640/57 398/639/138 397/646/141
f 396/647/139 397/653/141 405/648/142
f 395/631/135 403/654/25 402/650/144
f 398/652/138 406/668/154 405/648/142
f 396/647/139 404/649/143 403/654/25
f 394/651/140 402/650/144 401/655/145
f 393/656/136 401/655/145 407/657/146
f 402/650/144 409/662/150 408/659/147
f 401/655/145 408/659/147 414/660/148
f 405/648/142 412/664/152 411/661/149
f 403/654/25 410/665/153 409/662/150
f 405/648/142 406/668/154 413/663/151
f 404/649/143 411/661/149 410/665/153
f 399/669/26 415/866/9 421/670/13
f 408/672/147 416/684/11 422/673/16
f 414/674/148 422/673/16 415/675/9
f 412/677/152 420/682/8 419/678/15
f 410/665/153 418/683/10 417/680/14
f 413/671/151 421/670/13 420/682/8
f 411/679/149 419/678/15 418/683/10
f 409/681/150 417/680/14 416/684/11
f 426/685/42 434/697/139 433/686/135
f 424/688/53 432/698/140 431/689/136
f 423/690/11 431/689/136 438/691/137
f 429/693/7 437/867/26 436/694/138
f 427/696/8 435/701/141 434/697/139
f 425/687/12 433/686/135 432/698/140
f 430/692/37 438/691/137 437/699/26
f 428/695/57 436/694/138 435/701/141
f 434/702/139 435/707/141 443/703/142
f 433/686/135 441/709/25 440/705/144
f 435/707/141 436/722/138 444/708/154
f 433/686/135 434/702/139 442/704/143
f 431/710/136 432/706/140 440/705/144
f 431/710/136 439/711/145 445/712/146
f 439/711/145 440/705/144 447/714/150
f 439/711/145 446/715/147 452/716/148
f 443/703/142 450/719/152 449/717/149
f 441/709/25 448/720/153 447/714/150
f 443/703/142 444/708/154 451/718/151
f 441/709/25 442/704/143 449/717/149
f 437/724/26 453/868/9 459/725/13
f 446/727/147 454/739/11 460/728/16
f 452/729/148 460/728/16 453/730/9
f 450/732/152 458/737/8 457/733/15
f 448/720/153 456/738/10 455/735/14
f 451/726/151 459/725/13 458/737/8
f 449/734/149 457/733/15 456/738/10
f 447/736/150 455/735/14 454/739/11
f 471/740/60 463/749/64 464/741/65
f 470/743/54 469/750/59 461/744/63
f 467/746/58 482/774/72 481/747/62
f 470/743/54 462/745/29 463/749/64
f 469/750/59 468/748/61 481/747/62
f 475/751/37 467/763/58 468/752/61
f 473/754/57 465/765/56 466/755/33
f 478/757/12 470/743/54 471/758/60
f 476/753/11 468/752/61 469/760/59
f 474/762/7 466/869/33 467/763/58
f 480/764/8 472/766/55 465/765/56
f 479/759/42 471/758/60 472/766/55
f 477/761/53 469/760/59 470/743/54
f 472/742/55 464/741/65 483/767/66
f 464/741/65 463/749/64 485/769/67
f 483/767/66 464/741/65 484/770/68
f 481/747/62 488/775/73 487/772/70
f 463/749/64 462/745/29 486/773/71
f 482/774/72 489/778/74 488/775/73
f 462/745/29 461/744/63 487/772/70
f 466/779/33 491/870/10 497/780/14
f 484/782/68 492/794/8 498/783/15
f 490/784/69 498/783/15 491/785/10
f 488/787/73 496/792/11 495/788/16
f 486/773/71 494/793/9 493/790/13
f 489/781/74 497/780/14 496/792/11
f 487/789/70 495/788/16 494/793/9
f 485/791/67 493/790/13 492/794/8
f 502/795/53 510/807/59 509/796/54
f 500/798/42 508/808/60 507/799/55
f 499/800/8 507/799/55 514/801/56
f 505/803/7 513/871/33 512/804/58
f 503/806/11 511/811/61 510/807/59
f 501/797/12 509/796/54 508/808/60
f 506/802/57 514/801/56 513/809/33
f 504/805/37 512/804/58 511/811/61
f 511/812/61 519/818/62 518/813/63
f 509/796/54 517/819/29 516/815/64
f 511/812/61 512/831/58 520/817/72
f 509/796/54 510/814/59 518/813/63
f 508/816/60 516/815/64 515/820/65
f 507/821/55 515/820/65 521/822/66
f 516/815/64 523/828/67 522/824/68
f 521/822/66 515/820/65 522/824/68
f 519/818/62 526/829/73 525/826/70
f 516/815/64 517/819/29 524/827/71
f 520/817/72 527/833/74 526/829/73
f 517/819/29 518/813/63 525/826/70
f 513/834/33 529/872/10 535/835/14
f 522/837/68 530/849/8 536/838/15
f 528/839/69 536/838/15 529/840/10
f 526/842/73 534/847/11 533/843/16
f 524/827/71 532/848/9 531/845/13
f 527/836/74 535/835/14 534/847/11
f 525/844/70 533/843/16 532/848/9
f 523/846/67 531/845/13 530/849/8
