# Blender v2.79 (sub 0) OBJ File: 'rotary_furnace.blend'
# www.blender.org
v -0.375000 2.000000 1.125000
v -0.375000 2.000000 1.875000
v 0.375000 2.000000 1.875000
v 0.375000 2.000000 1.125000
v -0.375000 3.000000 1.125000
v -0.375000 3.000000 1.875000
v 0.375000 3.000000 1.875000
v 0.375000 3.000000 1.125000
v -0.500000 3.000000 1.000000
v -0.500000 3.000000 2.000000
v 0.500000 3.000000 2.000000
v 0.500000 3.000000 1.000000
v -0.500000 3.250000 1.000000
v -0.500000 3.250000 2.000000
v 0.500000 3.250000 2.000000
v 0.500000 3.250000 1.000000
vt 0.681035 0.815217
vt 0.620690 0.826087
vt 0.629310 0.815217
vt 0.741379 0.847826
vt 0.689655 0.934783
vt 0.689655 0.847826
vt 0.844828 0.847826
vt 0.793103 0.934783
vt 0.793103 0.847826
vt 0.741379 0.934783
vt 0.896552 0.847826
vt 0.844828 0.934783
vt 0.758621 0.826087
vt 0.689655 0.847826
vt 0.689655 0.826087
vt 0.629310 0.750000
vt 0.689655 0.739130
vt 0.681035 0.750000
vt 0.620690 0.739130
vt 0.620690 0.847826
vt 0.689655 0.934783
vt 0.620690 0.934783
vt 0.896552 0.826087
vt 0.827586 0.847826
vt 0.827586 0.826087
vt 0.758621 0.847826
vt 0.896552 0.934783
vt 0.896552 0.847826
vn 0.0000 -1.0000 0.0000
vn 1.0000 0.0000 0.0000
vn -1.0000 0.0000 0.0000
vn 0.0000 0.0000 -1.0000
vn 0.0000 0.0000 1.0000
vn 0.0000 1.0000 0.0000
v -1.500000 0.000000 2.500000
v 1.500000 0.000000 2.500000
v -1.500000 0.000000 -2.500000
v 1.500000 0.000000 -2.500000
v 1.500000 0.750000 -0.500000
v -1.500000 0.500000 2.500000
v 1.500000 0.500000 2.500000
v 1.500000 0.250000 -0.500000
v -1.500000 0.500000 0.500000
v 1.500000 0.500000 0.500000
v 1.500000 1.000000 0.500000
v 1.500000 1.000000 -2.500000
v -1.500000 1.000000 -2.500000
v -1.500000 1.000000 0.500000
v -1.250000 1.000000 -0.500000
v 1.250000 1.000000 -0.500000
v -1.250000 1.000000 -1.500000
v 1.250000 1.000000 -1.500000
v 0.500000 1.000000 0.250000
v 0.500000 1.000000 -2.250000
v -0.500000 1.000000 0.250000
v -0.500000 1.000000 -2.250000
v -1.250000 4.000000 -0.500000
v 1.250000 4.000000 -0.500000
v -1.250000 4.000000 -1.500000
v 1.250000 4.000000 -1.500000
v 0.500000 4.000000 0.250000
v 0.500000 4.000000 -2.250000
v -0.500000 4.000000 0.250000
v -0.500000 4.000000 -2.250000
v -0.500000 4.500000 -1.500000
v -0.500000 4.500000 -0.500000
v 0.500000 4.500000 -1.500000
v 0.500000 4.500000 -0.500000
v 0.500000 1.000000 0.500000
v 1.250000 1.000000 0.500000
v 0.500000 1.000000 0.250000
v 1.250000 1.000000 -0.500000
v 0.500000 3.500000 0.500000
v 1.250000 3.500000 0.500000
v 0.500000 3.500000 0.250000
v 1.250000 3.500000 -0.500000
v -0.500000 5.000000 -1.500000
v -0.500000 5.000000 -0.500000
v 0.500000 5.000000 -1.500000
v 0.500000 5.000000 -0.500000
v 0.500000 4.750000 -1.500000
v 0.500000 4.926777 -1.426777
v 0.500000 5.000000 -1.250000
v 0.500000 4.926777 -1.073223
v 0.500000 4.750000 -1.000000
v 0.500000 4.573223 -1.073223
v 0.500000 4.500000 -1.250000
v 0.500000 4.573223 -1.426777
v 0.625000 4.750000 -1.500000
v 0.625000 4.926777 -1.426777
v 0.625000 5.000000 -1.250000
v 0.625000 4.926777 -1.073223
v 0.625000 4.750000 -1.000000
v 0.625000 4.573223 -1.073223
v 0.625000 4.500000 -1.250000
v 0.625000 4.573223 -1.426777
v 0.801777 4.676777 -1.500000
v 0.926777 4.801777 -1.426777
v 0.978553 4.853553 -1.250000
v 0.926777 4.801777 -1.073223
v 0.801777 4.676777 -1.000000
v 0.676776 4.551776 -1.073223
v 0.676776 4.551776 -1.426777
v 0.875000 4.500000 -1.500000
v 1.051777 4.500000 -1.426777
v 1.125000 4.500000 -1.250000
v 1.051777 4.500000 -1.073223
v 0.875000 4.500000 -1.000000
v 0.698223 4.500000 -1.073223
v 0.698223 4.500000 -1.426777
v 0.625000 4.000000 -1.250000
v 0.875000 4.000000 -1.500000
v 1.051777 4.000000 -1.426777
v 1.125000 4.000000 -1.250000
v 1.051777 4.000000 -1.073223
v 0.875000 4.000000 -1.000000
v 0.698223 4.000000 -1.073223
v 0.698223 4.000000 -1.426777
v 0.500000 4.750000 -1.000000
v 0.500000 4.926777 -0.926777
v 0.500000 5.000000 -0.750000
v 0.500000 4.926777 -0.573223
v 0.500000 4.750000 -0.500000
v 0.500000 4.573223 -0.573223
v 0.500000 4.500000 -0.750000
v 0.500000 4.573223 -0.926777
v 0.625000 4.750000 -1.000000
v 0.625000 4.926777 -0.926777
v 0.625000 5.000000 -0.750000
v 0.625000 4.926777 -0.573223
v 0.625000 4.750000 -0.500000
v 0.625000 4.573223 -0.573223
v 0.625000 4.500000 -0.750000
v 0.625000 4.573223 -0.926777
v 0.801777 4.676777 -1.000000
v 0.926777 4.801777 -0.926777
v 0.978553 4.853553 -0.750000
v 0.926777 4.801777 -0.573223
v 0.801777 4.676777 -0.500000
v 0.676776 4.551776 -0.573223
v 0.676776 4.551776 -0.926777
v 0.875000 4.500000 -1.000000
v 1.051777 4.500000 -0.926777
v 1.125000 4.500000 -0.750000
v 1.051777 4.500000 -0.573223
v 0.875000 4.500000 -0.500000
v 0.698223 4.500000 -0.573223
v 0.698223 4.500000 -0.926777
v 0.625000 4.000000 -0.750000
v 0.875000 4.000000 -1.000000
v 1.051777 4.000000 -0.926777
v 1.125000 4.000000 -0.750000
v 1.051777 4.000000 -0.573223
v 0.875000 4.000000 -0.500000
v 0.698223 4.000000 -0.573223
v 0.698223 4.000000 -0.926777
v 1.125000 3.000000 0.500000
v 1.051777 3.176777 0.500000
v 0.875000 3.250000 0.500000
v 0.698223 3.176777 0.500000
v 0.625000 3.000000 0.500000
v 0.698223 2.823223 0.500000
v 0.875000 2.750000 0.500000
v 1.051777 2.823223 0.500000
v 1.125000 3.000000 0.625000
v 1.051777 3.176777 0.625000
v 0.875000 3.250000 0.625000
v 0.698223 3.176777 0.625000
v 0.625000 3.000000 0.625000
v 0.698223 2.823223 0.625000
v 0.875000 2.750000 0.625000
v 1.051777 2.823223 0.625000
v 1.125000 2.926777 0.801777
v 1.051777 3.051777 0.926777
v 0.875000 3.103553 0.978554
v 0.698223 3.051777 0.926777
v 0.625000 2.926777 0.801777
v 0.698223 2.801776 0.676777
v 1.051777 2.801776 0.676777
v 1.125000 2.750000 0.875000
v 1.051777 2.750000 1.051777
v 0.875000 2.750000 1.125000
v 0.698223 2.750000 1.051777
v 0.625000 2.750000 0.875000
v 0.698223 2.750000 0.698223
v 1.051777 2.750000 0.698223
v 0.875000 1.000000 0.625000
v 1.125000 1.000000 0.875000
v 1.051777 1.000000 1.051777
v 0.875000 1.000000 1.125000
v 0.698223 1.000000 1.051777
v 0.625000 1.000000 0.875000
v 0.698223 1.000000 0.698223
v 1.051777 1.000000 0.698223
v 0.875000 0.646447 0.771447
v 1.125000 0.823223 0.948224
v 1.051777 0.948223 1.073224
v 0.698223 0.948223 1.073224
v 0.625000 0.823223 0.948224
v 0.698223 0.698223 0.823223
v 1.051777 0.698223 0.823223
v 0.875000 0.500000 1.125000
v 1.125000 0.750000 1.125000
v 1.051777 0.926777 1.125000
v 0.698223 0.926777 1.125000
v 0.625000 0.750000 1.125000
v 0.698223 0.573223 1.125000
v 1.051777 0.573223 1.125000
v 1.125000 2.250000 0.500000
v 1.051777 2.426777 0.500000
v 0.875000 2.500000 0.500000
v 0.698223 2.426777 0.500000
v 0.625000 2.250000 0.500000
v 0.698223 2.073223 0.500000
v 0.875000 2.000000 0.500000
v 1.051777 2.073223 0.500000
v 1.125000 2.250000 0.875000
v 1.051777 2.426777 0.875000
v 0.875000 2.500000 0.875000
v 0.698223 2.426777 0.875000
v 0.625000 2.250000 0.875000
v 0.698223 2.073223 0.875000
v 0.875000 2.000000 0.875000
v 1.051777 2.073223 0.875000
v 1.125000 1.500000 0.500000
v 1.051777 1.676777 0.500000
v 0.875000 1.750000 0.500000
v 0.698223 1.676777 0.500000
v 0.625000 1.500000 0.500000
v 0.698223 1.323223 0.500000
v 0.875000 1.250000 0.500000
v 1.051777 1.323223 0.500000
v 1.125000 1.500000 0.875000
v 1.051777 1.676777 0.875000
v 0.875000 1.750000 0.875000
v 0.698223 1.676777 0.875000
v 0.625000 1.500000 0.875000
v 0.698223 1.323223 0.875000
v 0.875000 1.250000 0.875000
v 1.051777 1.323223 0.875000
v -0.926777 4.801777 -0.926776
v -0.978554 4.853553 -0.750000
v -0.926777 4.801777 -0.573223
v -0.801777 4.676777 -0.500000
v -0.625000 4.573223 -0.573223
v -0.625000 4.500000 -0.750000
v -0.625000 4.573223 -0.926776
v -0.625000 4.750000 -1.000000
v -1.500000 0.500000 2.250000
v -1.250000 0.500000 2.250000
v -1.500000 0.500000 1.750000
v -1.250000 0.500000 1.750000
v -1.500000 0.750000 1.750000
v -1.500000 0.750000 2.250000
v -1.250000 0.750000 2.250000
v -1.250000 0.750000 1.750000
v -1.250000 0.500000 2.187500
v 0.187500 0.500000 2.187500
v -1.250000 0.500000 1.812500
v 0.187500 0.500000 1.812500
v -1.250000 0.687500 1.812500
v -1.250000 0.687500 2.187500
v -0.187500 0.687500 2.187500
v -0.187500 0.687500 1.812500
v -0.625000 4.926777 -0.926776
v -0.625000 5.000000 -0.750000
v -0.625000 4.926777 -0.573223
v -0.625000 4.750000 -0.500000
v -0.500000 4.573223 -0.573223
v -0.500000 4.500000 -0.750000
v -0.500000 4.573223 -0.926776
v -0.500000 4.750000 -1.000000
v -0.500000 0.500000 2.000000
v 0.500000 0.500000 2.000000
v -0.500000 0.500000 1.000000
v 0.500000 0.500000 1.000000
v -0.500000 2.000000 1.000000
v -0.500000 2.000000 2.000000
v 0.500000 2.000000 2.000000
v 0.500000 2.000000 1.000000
v 0.875000 1.000000 1.250000
v 0.875000 0.500000 1.250000
v 1.125000 0.750000 1.250000
v 1.051777 0.926777 1.250000
v 0.698223 0.926777 1.250000
v 0.625000 0.750000 1.250000
v 0.698223 0.573223 1.250000
v 1.051777 0.573223 1.250000
v 0.801777 1.000000 1.426777
v 0.801777 0.500000 1.426777
v 0.978553 0.750000 1.603553
v 0.926777 0.926777 1.551777
v 0.676777 0.926777 1.301777
v 0.676777 0.573223 1.301777
v 0.926777 0.573223 1.551777
v 0.625000 1.000000 1.500000
v 0.625000 0.500000 1.500000
v 0.625000 0.750000 1.750000
v 0.625000 0.926777 1.676777
v 0.625000 0.926777 1.323224
v 0.625000 0.573223 1.323224
v 0.625000 0.573223 1.676777
v 0.500000 0.750000 1.250000
v 0.500000 1.000000 1.500000
v 0.500000 0.500000 1.500000
v 0.500000 0.750000 1.750000
v 0.500000 0.926777 1.676777
v 0.500000 0.926777 1.323224
v 0.500000 0.573223 1.323224
v 0.500000 0.573223 1.676777
v -0.187500 1.625000 2.187500
v -0.187500 1.625000 1.812500
v 0.187500 1.625000 1.812500
v 0.187500 1.625000 2.187500
v -0.500000 4.926777 -0.926776
v -0.500000 5.000000 -0.750000
v -0.500000 4.926777 -0.573223
v -0.500000 4.750000 -0.500000
v 1.500000 0.750000 -1.500000
v 1.500000 0.250000 -1.500000
v 0.500000 0.250000 -0.500000
v 0.500000 0.250000 -1.500000
v 0.500000 0.750000 -0.500000
v 0.500000 0.750000 -1.500000
v 1.375000 0.750000 -0.500000
v 1.375000 0.250000 -0.500000
v 1.375000 0.750000 -1.500000
v 1.375000 0.250000 -1.500000
v 1.125000 1.000000 -1.625000
v 0.625000 1.000000 -2.125000
v 1.125000 1.000000 -2.125000
v 0.625000 3.500000 -2.125000
v 1.125000 3.500000 -1.625000
v 1.125000 3.500000 -2.125000
v -1.125000 1.000000 -1.625000
v -1.125000 1.000000 -2.125000
v -0.625000 1.000000 -2.125000
v -1.125000 3.500000 -2.125000
v -1.125000 3.500000 -1.625000
v -0.625000 3.500000 -2.125000
v -1.125000 1.000000 0.125000
v -0.625000 1.000000 0.125000
v -1.125000 1.000000 -0.375000
v -1.125000 3.500000 -0.375000
v -1.125000 3.500000 0.125000
v -0.625000 3.500000 0.125000
v -0.801777 4.676777 -1.000000
v -0.676777 4.551776 -0.926776
v -0.676777 4.551776 -0.573223
v -0.875000 4.500000 -0.500000
v -1.051777 4.500000 -0.573223
v -1.125000 4.500000 -0.750000
v -1.051777 4.500000 -0.926776
v -0.875000 4.500000 -1.000000
v -0.698224 4.500000 -0.926776
v -0.698224 4.500000 -0.573223
v -0.625000 4.000000 -0.750000
v -0.875000 4.000000 -0.500000
v -1.051777 4.000000 -0.573223
v -1.125000 4.000000 -0.750000
v -1.051777 4.000000 -0.926776
v -0.875000 4.000000 -1.000000
v -0.698224 4.000000 -0.926776
v -0.698224 4.000000 -0.573223
v -0.500000 4.750000 -1.000000
v -0.500000 4.926777 -1.073223
v -0.500000 5.000000 -1.250000
v -0.500000 4.926777 -1.426777
v -0.500000 4.750000 -1.500000
v -0.500000 4.573223 -1.426777
v -0.500000 4.500000 -1.250000
v -0.500000 4.573223 -1.073223
v -0.625000 4.750000 -1.000000
v -0.625000 4.926777 -1.073223
v -0.625000 5.000000 -1.250000
v -0.625000 4.926777 -1.426777
v -0.625000 4.750000 -1.500000
v -0.625000 4.573223 -1.426777
v -0.625000 4.500000 -1.250000
v -0.625000 4.573223 -1.073223
v -0.801777 4.676777 -1.000000
v -0.926777 4.801777 -1.073223
v -0.978554 4.853553 -1.250000
v -0.926777 4.801777 -1.426777
v -0.801777 4.676777 -1.500000
v -0.676777 4.551776 -1.426777
v -0.676777 4.551776 -1.073223
v -0.875000 4.500000 -1.000000
v -1.051777 4.500000 -1.073223
v -1.125000 4.500000 -1.250000
v -1.051777 4.500000 -1.426777
v -0.875000 4.500000 -1.500000
v -0.698224 4.500000 -1.426777
v -0.698224 4.500000 -1.073223
v -0.625000 4.000000 -1.250000
v -0.875000 4.000000 -1.000000
v -1.051777 4.000000 -1.073223
v -1.125000 4.000000 -1.250000
v -1.051777 4.000000 -1.426777
v -0.875000 4.000000 -1.500000
v -0.698224 4.000000 -1.426777
v -0.698224 4.000000 -1.073223
v -0.500000 4.750000 -1.500000
v -0.426777 4.926777 -1.500000
v -0.250000 5.000000 -1.500000
v -0.073224 4.926777 -1.500000
v -0.000000 4.750000 -1.500000
v -0.073224 4.573223 -1.500000
v -0.250000 4.500000 -1.500000
v -0.426777 4.573223 -1.500000
v -0.500000 4.750000 -1.625000
v -0.426777 4.926777 -1.625000
v -0.250000 5.000000 -1.625000
v -0.073224 4.926777 -1.625000
v -0.000000 4.750000 -1.625000
v -0.073224 4.573223 -1.625000
v -0.250000 4.500000 -1.625000
v -0.426777 4.573223 -1.625000
v -0.500000 4.676777 -1.801777
v -0.426777 4.801777 -1.926777
v -0.250000 4.853553 -1.978554
v -0.073224 4.801777 -1.926777
v -0.000000 4.676777 -1.801777
v -0.073224 4.551776 -1.676777
v -0.426777 4.551776 -1.676777
v -0.500000 4.500000 -1.875000
v -0.426777 4.500000 -2.051777
v -0.250000 4.500000 -2.125000
v -0.073224 4.500000 -2.051777
v -0.000000 4.500000 -1.875000
v -0.073224 4.500000 -1.698223
v -0.426777 4.500000 -1.698223
v -0.250000 4.000000 -1.625000
v -0.500000 4.000000 -1.875000
v -0.426777 4.000000 -2.051777
v -0.250000 4.000000 -2.125000
v -0.073224 4.000000 -2.051777
v -0.000000 4.000000 -1.875000
v -0.073224 4.000000 -1.698223
v -0.426777 4.000000 -1.698223
v -0.000000 4.750000 -1.500000
v 0.073223 4.926777 -1.500000
v 0.250000 5.000000 -1.500000
v 0.426777 4.926777 -1.500000
v 0.500000 4.750000 -1.500000
v 0.426777 4.573223 -1.500000
v 0.250000 4.500000 -1.500000
v 0.073223 4.573223 -1.500000
v -0.000000 4.750000 -1.625000
v 0.073223 4.926777 -1.625000
v 0.250000 5.000000 -1.625000
v 0.426777 4.926777 -1.625000
v 0.500000 4.750000 -1.625000
v 0.426777 4.573223 -1.625000
v 0.250000 4.500000 -1.625000
v 0.073223 4.573223 -1.625000
v -0.000000 4.676777 -1.801777
v 0.073223 4.801777 -1.926777
v 0.250000 4.853553 -1.978554
v 0.426777 4.801777 -1.926777
v 0.500000 4.676777 -1.801777
v 0.426777 4.551776 -1.676777
v 0.073223 4.551776 -1.676777
v -0.000000 4.500000 -1.875000
v 0.073223 4.500000 -2.051777
v 0.250000 4.500000 -2.125000
v 0.426777 4.500000 -2.051777
v 0.500000 4.500000 -1.875000
v 0.426777 4.500000 -1.698223
v 0.073223 4.500000 -1.698223
v 0.250000 4.000000 -1.625000
v -0.000000 4.000000 -1.875000
v 0.073223 4.000000 -2.051777
v 0.250000 4.000000 -2.125000
v 0.426777 4.000000 -2.051777
v 0.500000 4.000000 -1.875000
v 0.426777 4.000000 -1.698223
v 0.073223 4.000000 -1.698223
v 0.073223 4.801777 -0.073223
v 0.250000 4.853553 -0.021446
v 0.426777 4.801777 -0.073223
v 0.500000 4.676777 -0.198223
v 0.426777 4.573223 -0.375000
v 0.250000 4.500000 -0.375000
v 0.073223 4.573223 -0.375000
v -0.000000 4.750000 -0.375000
v 0.073223 4.926777 -0.375000
v 0.250000 5.000000 -0.375000
v 0.426777 4.926777 -0.375000
v 0.500000 4.750000 -0.375000
v 0.426777 4.573223 -0.500000
v 0.250000 4.500000 -0.500000
v 0.073223 4.573223 -0.500000
v -0.000000 4.750000 -0.500000
v 0.073223 4.926777 -0.500000
v 0.250000 5.000000 -0.500000
v 0.426777 4.926777 -0.500000
v 0.500000 4.750000 -0.500000
v -0.000000 4.676777 -0.198223
v 0.073223 4.551776 -0.323223
v 0.426777 4.551776 -0.323223
v 0.500000 4.500000 -0.125000
v 0.426777 4.500000 0.051777
v 0.250000 4.500000 0.125000
v 0.073223 4.500000 0.051777
v -0.000000 4.500000 -0.125000
v 0.073223 4.500000 -0.301777
v 0.426777 4.500000 -0.301777
v 0.250000 4.000000 -0.375000
v 0.500000 4.000000 -0.125000
v 0.426777 4.000000 0.051777
v 0.250000 4.000000 0.125000
v 0.073223 4.000000 0.051777
v -0.000000 4.000000 -0.125000
v 0.073223 4.000000 -0.301777
v 0.426777 4.000000 -0.301777
v -0.000000 4.750000 -0.500000
v -0.073223 4.926777 -0.500000
v -0.250000 5.000000 -0.500000
v -0.426777 4.926777 -0.500000
v -0.500000 4.750000 -0.500000
v -0.426777 4.573223 -0.500000
v -0.250000 4.500000 -0.500000
v -0.073223 4.573223 -0.500000
v -0.000000 4.750000 -0.375000
v -0.073223 4.926777 -0.375000
v -0.250000 5.000000 -0.375000
v -0.426777 4.926777 -0.375000
v -0.500000 4.750000 -0.375000
v -0.426777 4.573223 -0.375000
v -0.250000 4.500000 -0.375000
v -0.073223 4.573223 -0.375000
v -0.000000 4.676777 -0.198223
v -0.073223 4.801777 -0.073223
v -0.250000 4.853553 -0.021446
v -0.426777 4.801777 -0.073223
v -0.500000 4.676777 -0.198223
v -0.426777 4.551776 -0.323223
v -0.073223 4.551776 -0.323223
v -0.000000 4.500000 -0.125000
v -0.073223 4.500000 0.051777
v -0.250000 4.500000 0.125000
v -0.426777 4.500000 0.051777
v -0.500000 4.500000 -0.125000
v -0.426777 4.500000 -0.301777
v -0.073223 4.500000 -0.301777
v -0.250000 4.000000 -0.375000
v -0.000000 4.000000 -0.125000
v -0.073223 4.000000 0.051777
v -0.250000 4.000000 0.125000
v -0.426777 4.000000 0.051777
v -0.500000 4.000000 -0.125000
v -0.426777 4.000000 -0.301777
v -0.073223 4.000000 -0.301777
v -1.500000 0.500000 1.250000
v -1.250000 0.500000 1.250000
v -1.500000 0.500000 0.750000
v -1.250000 0.500000 0.750000
v -1.500000 0.750000 0.750000
v -1.500000 0.750000 1.250000
v -1.250000 0.750000 1.250000
v -1.250000 0.750000 0.750000
v -1.250000 0.500000 1.187500
v 0.187500 0.500000 1.187500
v -1.250000 0.500000 0.812500
v 0.187500 0.500000 0.812500
v -1.250000 0.687500 0.812500
v -1.250000 0.687500 1.187500
v -0.187500 0.687500 1.187500
v -0.187500 0.687500 0.812500
v -0.187500 1.625000 1.187500
v -0.187500 1.625000 0.812500
v 0.187500 1.625000 0.812500
v 0.187500 1.625000 1.187500
v 0.125000 1.375000 -2.250000
v -0.125000 1.375000 -2.250000
v 0.125000 1.125000 -2.500000
v -0.125000 1.125000 -2.500000
v 0.125000 1.625000 -2.250000
v -0.125000 1.625000 -2.250000
v 0.125000 1.375000 -2.500000
v -0.125000 1.375000 -2.500000
v 0.125000 1.062500 -2.500000
v -0.125000 1.062500 -2.500000
v 0.187500 1.125000 -2.500000
v 0.187500 1.375000 -2.500000
v -0.187500 1.125000 -2.500000
v -0.187500 1.375000 -2.500000
v 0.125000 1.312500 -2.250000
v -0.125000 1.312500 -2.250000
v 0.187500 1.375000 -2.250000
v 0.187500 1.625000 -2.250000
v -0.187500 1.375000 -2.250000
v -0.187500 1.625000 -2.250000
vt 0.413793 0.000000
vt 0.068966 0.260870
vt 0.068966 0.000000
vt 0.344828 0.282609
vt 0.413793 0.347826
vt 0.344828 0.326087
vt 0.000000 0.347826
vt 0.034483 0.608696
vt 0.000000 0.608696
vt 0.413793 0.608696
vt 0.482759 0.347826
vt 0.482759 0.608696
vt 0.068966 0.782609
vt 0.137931 0.826087
vt 0.068966 0.826087
vt 0.206897 0.652174
vt 0.413793 0.695652
vt 0.034483 0.347826
vt 0.172414 0.608696
vt 0.206897 0.347826
vt 0.206897 0.608696
vt -0.000000 0.782609
vt -0.000000 0.826087
vt 0.068966 0.913043
vt 0.137931 0.913043
vt 0.172414 0.347826
vt 0.965517 0.000000
vt 0.896552 0.260870
vt 0.896552 0.000000
vt 0.620690 0.260870
vt 0.551724 0.000000
vt 0.620690 0.000000
vt 0.827586 0.000000
vt 0.482759 0.260870
vt 0.482759 0.000000
vt 0.758621 0.260870
vt 0.758621 0.000000
vt 0.689655 0.260870
vt 0.689655 0.000000
vt 0.413793 0.260870
vt 0.413793 0.000000
vt 0.689655 0.478261
vt 0.689655 0.413043
vt 0.741379 0.413043
vt 0.620690 0.326087
vt 0.568965 0.326087
vt 0.620690 0.478261
vt 0.620690 0.413043
vt 0.689655 0.326087
vt 0.741379 0.326087
vt 0.568965 0.413043
vt 0.310345 0.695652
vt 0.241379 0.739130
vt 0.241379 0.695652
vt 0.310345 0.739130
vt 0.241379 0.826087
vt 0.551724 0.695652
vt 0.500000 0.717391
vt 0.500000 0.695652
vt 0.620690 0.478261
vt 0.551724 0.478261
vt 0.500000 0.478261
vt 0.482759 0.695652
vt 0.482759 0.478261
vt 0.344828 0.826087
vt 0.344828 0.739130
vt 0.206897 0.739130
vt 0.206897 0.826087
vt 0.241379 0.869565
vt 0.310345 0.826087
vt 0.310345 0.869565
vt 0.465517 0.652174
vt 0.431034 0.630435
vt 0.465517 0.630435
vt 0.413793 0.630435
vt 0.431034 0.652174
vt 0.413793 0.652174
vt 0.482759 0.652174
vt 0.482759 0.630435
vt 0.431034 0.673913
vt 0.465517 0.673913
vt 0.465517 0.608696
vt 0.431034 0.608696
vt 0.500000 0.788043
vt 0.474138 0.695652
vt 0.500000 0.695652
vt 0.396552 0.777174
vt 0.409483 0.869565
vt 0.396552 0.902174
vt 0.577586 0.777174
vt 0.564655 0.869565
vt 0.564655 0.777174
vt 0.620690 0.652174
vt 0.689655 0.739130
vt 0.620690 0.739130
vt 0.758621 0.521739
vt 0.689655 0.652174
vt 0.689655 0.521739
vt 0.896552 0.521739
vt 0.827586 0.652174
vt 0.827586 0.521739
vt 0.620690 0.521739
vt 0.758621 0.652174
vt 0.465517 0.652174
vt 0.431034 0.630435
vt 0.465517 0.630435
vt 0.500000 0.902174
vt 0.474138 0.869565
vt 0.500000 0.869565
vt 0.474138 0.788043
vt 0.474138 1.000000
vt 0.500000 1.000000
vt 0.474138 0.902174
vt 0.206897 0.826087
vt 0.137931 0.782609
vt 0.206897 0.782609
vt 0.137931 0.695652
vt 0.068966 0.695652
vt 0.275862 0.326087
vt 0.413793 0.260870
vt 0.275862 0.282609
vt 0.206897 0.304348
vt 0.068966 0.304348
vt 0.344828 0.326087
vt 0.275862 0.282609
vt 0.344828 0.282609
vt 0.810345 0.260870
vt 0.775862 0.478261
vt 0.775862 0.260870
vt 0.741379 0.478261
vt 0.741379 0.260870
vt 0.844828 0.260870
vt 0.810345 0.478261
vt 0.810345 0.260870
vt 0.879310 0.260870
vt 0.844828 0.478261
vt 0.913793 0.478261
vt 0.948276 0.478261
vt 0.913793 0.521739
vt 0.879310 0.478261
vt 0.844828 0.521739
vt 0.948276 0.260870
vt 0.913793 0.260870
vt 0.810345 0.478261
vt 0.775862 0.521739
vt 0.879310 0.478261
vt 0.879310 0.260870
vt 0.068966 0.695652
vt 0.068966 0.652174
vt 0.413793 0.630435
vt 0.431034 0.652174
vt 0.413793 0.652174
vt 0.482759 0.652174
vt 0.482759 0.630435
vt 0.431034 0.673913
vt 0.465517 0.673913
vt 0.465517 0.608696
vt 0.431034 0.608696
vt 0.500000 0.788043
vt 0.474138 0.695652
vt 0.500000 0.695652
vt 0.396552 0.777174
vt 0.409483 0.869565
vt 0.396552 0.902174
vt 0.577586 0.777174
vt 0.564655 0.869565
vt 0.564655 0.777174
vt 0.500000 0.902174
vt 0.474138 0.869565
vt 0.500000 0.869565
vt 0.474138 0.788043
vt 0.474138 1.000000
vt 0.500000 1.000000
vt 0.474138 0.902174
vt 0.181034 0.875000
vt 0.198276 0.853261
vt 0.198276 0.875000
vt 0.137931 0.826087
vt 0.155172 0.847826
vt 0.137931 0.847826
vt 0.241379 0.826087
vt 0.224138 0.847826
vt 0.224138 0.826087
vt 0.181034 0.853261
vt 0.198276 0.847826
vt 0.181034 0.875000
vt 0.176724 0.853261
vt 0.202586 0.875000
vt 0.198276 0.875000
vt 0.181034 0.847826
vt 0.202586 0.853261
vt 0.219828 0.847826
vt 0.202586 0.826087
vt 0.219828 0.826087
vt 0.198276 0.826087
vt 0.176724 0.847826
vt 0.181034 0.826087
vt 0.159483 0.847826
vt 0.176724 0.826087
vt 0.202586 0.847826
vt 0.159483 0.826087
vt 0.155172 0.826087
vt 0.965517 0.260870
vt 0.551724 0.260870
vt 0.827586 0.260870
vt 0.551724 0.782609
vt 0.620690 0.695652
vt 0.409483 0.777174
vt 0.577586 0.902174
vt 0.896552 0.652174
vt 0.275862 0.326087
vt 0.409483 0.777174
vt 0.577586 0.902174
vt 0.241379 0.847826
vt 0.176724 0.875000
vt 0.831897 0.771739
vt 0.844828 0.760870
vt 0.844828 0.771739
vt 0.857759 0.771739
vt 0.870690 0.760870
vt 0.870690 0.771739
vt 0.883621 0.760870
vt 0.883621 0.771739
vt 0.793103 0.771739
vt 0.806035 0.760870
vt 0.806035 0.771739
vt 0.818965 0.771739
vt 0.831897 0.760870
vt 0.857759 0.760870
vt 0.896552 0.760870
vt 0.896552 0.771739
vt 0.818965 0.760870
vt 0.831897 0.755435
vt 0.818965 0.728261
vt 0.831897 0.728261
vt 0.857759 0.728261
vt 0.857759 0.755435
vt 0.806035 0.733696
vt 0.818965 0.744565
vt 0.844828 0.728261
vt 0.870690 0.728261
vt 0.870690 0.744565
vt 0.883621 0.728261
vt 0.883621 0.733696
vt 0.870690 0.711957
vt 0.883621 0.722826
vt 0.831897 0.701087
vt 0.857759 0.701087
vt 0.806035 0.722826
vt 0.818965 0.711957
vt 0.844828 0.695652
vt 0.896552 0.728261
vt 0.793103 0.728261
vt 0.806035 0.728261
vt 0.793103 0.695652
vt 0.806035 0.652174
vt 0.806035 0.695652
vt 0.870690 0.695652
vt 0.883621 0.652174
vt 0.883621 0.695652
vt 0.896552 0.652174
vt 0.896552 0.695652
vt 0.818965 0.695652
vt 0.831897 0.652174
vt 0.831897 0.695652
vt 0.857759 0.652174
vt 0.857759 0.695652
vt 0.818965 0.652174
vt 0.844828 0.652174
vt 0.870690 0.652174
vt 0.728448 0.771739
vt 0.741379 0.760870
vt 0.741379 0.771739
vt 0.754310 0.771739
vt 0.767241 0.760870
vt 0.767241 0.771739
vt 0.780172 0.760870
vt 0.780172 0.771739
vt 0.689655 0.771739
vt 0.702586 0.760870
vt 0.702586 0.771739
vt 0.715517 0.771739
vt 0.728448 0.760870
vt 0.754310 0.760870
vt 0.793103 0.760870
vt 0.793103 0.771739
vt 0.715517 0.760870
vt 0.728448 0.755435
vt 0.715517 0.728261
vt 0.728448 0.728261
vt 0.754310 0.728261
vt 0.754310 0.755435
vt 0.715517 0.744565
vt 0.702586 0.728261
vt 0.741379 0.728261
vt 0.767241 0.728261
vt 0.767241 0.744565
vt 0.780172 0.728261
vt 0.780172 0.733696
vt 0.767241 0.711957
vt 0.780172 0.722826
vt 0.715517 0.711957
vt 0.728448 0.701087
vt 0.741379 0.695652
vt 0.754310 0.701087
vt 0.702586 0.722826
vt 0.793103 0.728261
vt 0.702586 0.733696
vt 0.689655 0.728261
vt 0.689655 0.695652
vt 0.702586 0.652174
vt 0.702586 0.695652
vt 0.767241 0.695652
vt 0.780172 0.652174
vt 0.780172 0.695652
vt 0.793103 0.652174
vt 0.793103 0.695652
vt 0.715517 0.695652
vt 0.728448 0.652174
vt 0.728448 0.695652
vt 0.754310 0.652174
vt 0.754310 0.695652
vt 0.715517 0.652174
vt 0.741379 0.652174
vt 0.767241 0.652174
vt 0.935345 0.902174
vt 0.948276 0.891304
vt 0.948276 0.902174
vt 0.961207 0.902174
vt 0.974138 0.891304
vt 0.974138 0.902174
vt 0.987069 0.891304
vt 0.987069 0.902174
vt 0.896552 0.902174
vt 0.909483 0.891304
vt 0.909483 0.902174
vt 0.922414 0.902174
vt 0.935345 0.891304
vt 0.961207 0.891304
vt 1.000000 0.891304
vt 1.000000 0.902174
vt 0.922414 0.891304
vt 0.935345 0.885870
vt 0.922414 0.858696
vt 0.935345 0.858696
vt 0.961207 0.858696
vt 0.961207 0.885870
vt 0.909483 0.864130
vt 0.922414 0.875000
vt 0.948276 0.858696
vt 0.974138 0.858696
vt 0.974138 0.875000
vt 0.987069 0.864130
vt 0.987069 0.858696
vt 0.961207 0.831522
vt 0.974138 0.842391
vt 0.987069 0.853261
vt 0.935345 0.831522
vt 0.948276 0.826087
vt 0.909483 0.858696
vt 0.922414 0.842391
vt 1.000000 0.858696
vt 0.896552 0.858696
vt 0.909483 0.853261
vt 0.896552 0.826087
vt 0.909483 0.673913
vt 0.909483 0.826087
vt 0.974138 0.826087
vt 0.987069 0.673913
vt 0.987069 0.826087
vt 1.000000 0.673913
vt 1.000000 0.826087
vt 0.922414 0.826087
vt 0.935345 0.673913
vt 0.935345 0.826087
vt 0.961207 0.673913
vt 0.961207 0.826087
vt 0.922414 0.673913
vt 0.948276 0.673913
vt 0.974138 0.673913
vt 0.922414 0.657609
vt 0.909483 0.641304
vt 0.922414 0.641304
vt 0.961207 0.646739
vt 0.974138 0.641304
vt 0.974138 0.657609
vt 0.896552 0.673913
vt 0.909483 0.668478
vt 0.987069 0.641304
vt 0.987069 0.668478
vt 0.935345 0.646739
vt 0.935345 0.641304
vt 1.000000 0.641304
vt 0.987069 0.614130
vt 1.000000 0.608696
vt 0.909483 0.614130
vt 0.922414 0.625000
vt 0.961207 0.635870
vt 0.974138 0.625000
vt 0.896552 0.641304
vt 0.935345 0.635870
vt 0.948276 0.641304
vt 0.961207 0.641304
vt 0.948276 0.440217
vt 0.974138 0.456522
vt 0.948276 0.456522
vt 0.948276 0.472826
vt 0.974138 0.489130
vt 0.948276 0.489130
vt 0.974138 0.505435
vt 0.948276 0.505435
vt 0.948276 0.391304
vt 0.974138 0.407609
vt 0.948276 0.407609
vt 0.948276 0.423913
vt 0.974138 0.440217
vt 0.974138 0.472826
vt 0.974138 0.521739
vt 0.948276 0.521739
vt 0.974138 0.423913
vt 0.948276 0.309783
vt 0.974138 0.326087
vt 0.948276 0.326087
vt 0.948276 0.342391
vt 0.974138 0.358696
vt 0.948276 0.358696
vt 0.974138 0.375000
vt 0.948276 0.375000
vt 0.948276 0.260870
vt 0.974138 0.277174
vt 0.948276 0.277174
vt 0.948276 0.293478
vt 0.974138 0.309783
vt 0.974138 0.342391
vt 0.974138 0.391304
vt 0.948276 0.391304
vt 0.974138 0.293478
vt 0.857759 0.755435
vt 0.870690 0.728261
vt 0.870690 0.744565
vt 0.831897 0.755435
vt 0.844828 0.728261
vt 0.844828 0.760870
vt 0.806035 0.733696
vt 0.818965 0.728261
vt 0.818965 0.744565
vt 0.857759 0.728261
vt 0.831897 0.728261
vt 0.806035 0.771739
vt 0.818965 0.760870
vt 0.818965 0.771739
vt 0.883621 0.771739
vt 0.896552 0.760870
vt 0.896552 0.771739
vt 0.844828 0.771739
vt 0.857759 0.760870
vt 0.857759 0.771739
vt 0.831897 0.760870
vt 0.831897 0.771739
vt 0.793103 0.771739
vt 0.806035 0.760870
vt 0.987069 0.608696
vt 1.000000 0.597826
vt 0.909483 0.608696
vt 0.922414 0.597826
vt 0.922414 0.608696
vt 0.961207 0.608696
vt 0.974138 0.597826
vt 0.974138 0.608696
vt 0.935345 0.608696
vt 0.948276 0.597826
vt 0.948276 0.608696
vt 0.896552 0.608696
vt 0.909483 0.597826
vt 0.961207 0.597826
vt 0.987069 0.597826
vt 0.935345 0.597826
vt 0.961207 0.592391
vt 0.948276 0.565217
vt 0.961207 0.565217
vt 0.987069 0.592391
vt 1.000000 0.565217
vt 1.000000 0.581522
vt 0.974138 0.565217
vt 0.935345 0.570652
vt 0.948276 0.581522
vt 0.909483 0.570652
vt 0.896552 0.565217
vt 0.909483 0.565217
vt 0.987069 0.565217
vt 0.974138 0.532609
vt 0.987069 0.538043
vt 0.961207 0.538043
vt 1.000000 0.548913
vt 0.935345 0.565217
vt 0.948276 0.548913
vt 0.909483 0.559783
vt 0.922414 0.565217
vt 0.935345 0.559783
vt 0.948276 0.532609
vt 0.961207 0.521739
vt 0.961207 0.532609
vt 0.987069 0.532609
vt 1.000000 0.521739
vt 1.000000 0.532609
vt 0.974138 0.521739
vt 0.922414 0.532609
vt 0.935345 0.521739
vt 0.935345 0.532609
vt 0.948276 0.521739
vt 0.909483 0.532609
vt 0.922414 0.521739
vt 0.896552 0.532609
vt 0.909483 0.521739
vt 0.987069 0.521739
vt 0.870690 0.771739
vt 0.883621 0.760870
vt 0.870690 0.760870
vt 0.883621 0.728261
vt 0.883621 0.733696
vt 0.870690 0.711957
vt 0.883621 0.722826
vt 0.831897 0.701087
vt 0.857759 0.701087
vt 0.806035 0.722826
vt 0.818965 0.711957
vt 0.844828 0.695652
vt 0.896552 0.728261
vt 0.793103 0.728261
vt 0.806035 0.728261
vt 0.793103 0.695652
vt 0.806035 0.652174
vt 0.806035 0.695652
vt 0.870690 0.695652
vt 0.883621 0.652174
vt 0.883621 0.695652
vt 0.896552 0.652174
vt 0.896552 0.695652
vt 0.818965 0.695652
vt 0.831897 0.652174
vt 0.831897 0.695652
vt 0.857759 0.652174
vt 0.857759 0.695652
vt 0.818965 0.652174
vt 0.844828 0.652174
vt 0.870690 0.652174
vt 0.728448 0.771739
vt 0.741379 0.760870
vt 0.741379 0.771739
vt 0.754310 0.771739
vt 0.767241 0.760870
vt 0.767241 0.771739
vt 0.780172 0.760870
vt 0.780172 0.771739
vt 0.689655 0.771739
vt 0.702586 0.760870
vt 0.702586 0.771739
vt 0.715517 0.771739
vt 0.728448 0.760870
vt 0.754310 0.760870
vt 0.793103 0.760870
vt 0.793103 0.771739
vt 0.715517 0.760870
vt 0.715517 0.744565
vt 0.728448 0.728261
vt 0.728448 0.755435
vt 0.754310 0.728261
vt 0.754310 0.755435
vt 0.702586 0.728261
vt 0.715517 0.728261
vt 0.741379 0.728261
vt 0.767241 0.728261
vt 0.767241 0.744565
vt 0.780172 0.728261
vt 0.780172 0.733696
vt 0.754310 0.701087
vt 0.767241 0.711957
vt 0.780172 0.722826
vt 0.728448 0.701087
vt 0.702586 0.722826
vt 0.715517 0.711957
vt 0.741379 0.695652
vt 0.793103 0.728261
vt 0.702586 0.733696
vt 0.689655 0.728261
vt 0.689655 0.695652
vt 0.702586 0.652174
vt 0.702586 0.695652
vt 0.767241 0.695652
vt 0.780172 0.652174
vt 0.780172 0.695652
vt 0.793103 0.652174
vt 0.793103 0.695652
vt 0.715517 0.695652
vt 0.728448 0.652174
vt 0.728448 0.695652
vt 0.754310 0.652174
vt 0.754310 0.695652
vt 0.715517 0.652174
vt 0.741379 0.652174
vt 0.767241 0.652174
vt 0.831897 0.771739
vt 0.844828 0.760870
vt 0.844828 0.771739
vt 0.857759 0.771739
vt 0.870690 0.760870
vt 0.870690 0.771739
vt 0.883621 0.760870
vt 0.883621 0.771739
vt 0.793103 0.771739
vt 0.806035 0.760870
vt 0.806035 0.771739
vt 0.818965 0.771739
vt 0.831897 0.760870
vt 0.857759 0.760870
vt 0.896552 0.760870
vt 0.896552 0.771739
vt 0.818965 0.760870
vt 0.831897 0.755435
vt 0.818965 0.728261
vt 0.831897 0.728261
vt 0.857759 0.728261
vt 0.857759 0.755435
vt 0.806035 0.733696
vt 0.818965 0.744565
vt 0.844828 0.728261
vt 0.870690 0.728261
vt 0.870690 0.744565
vt 0.883621 0.728261
vt 0.883621 0.733696
vt 0.870690 0.711957
vt 0.883621 0.722826
vt 0.831897 0.701087
vt 0.857759 0.701087
vt 0.806035 0.722826
vt 0.818965 0.711957
vt 0.844828 0.695652
vt 0.896552 0.728261
vt 0.793103 0.728261
vt 0.806035 0.728261
vt 0.793103 0.695652
vt 0.806035 0.652174
vt 0.806035 0.695652
vt 0.870690 0.695652
vt 0.883621 0.652174
vt 0.883621 0.695652
vt 0.896552 0.652174
vt 0.896552 0.695652
vt 0.818965 0.695652
vt 0.831897 0.652174
vt 0.831897 0.695652
vt 0.857759 0.652174
vt 0.857759 0.695652
vt 0.818965 0.652174
vt 0.844828 0.652174
vt 0.870690 0.652174
vt 0.728448 0.771739
vt 0.741379 0.760870
vt 0.741379 0.771739
vt 0.754310 0.771739
vt 0.767241 0.760870
vt 0.767241 0.771739
vt 0.780172 0.760870
vt 0.780172 0.771739
vt 0.689655 0.771739
vt 0.702586 0.760870
vt 0.702586 0.771739
vt 0.715517 0.771739
vt 0.728448 0.760870
vt 0.754310 0.760870
vt 0.793103 0.760870
vt 0.793103 0.771739
vt 0.715517 0.760870
vt 0.728448 0.755435
vt 0.715517 0.728261
vt 0.728448 0.728261
vt 0.754310 0.728261
vt 0.754310 0.755435
vt 0.715517 0.744565
vt 0.702586 0.728261
vt 0.741379 0.728261
vt 0.767241 0.744565
vt 0.767241 0.728261
vt 0.780172 0.728261
vt 0.780172 0.733696
vt 0.754310 0.701087
vt 0.767241 0.711957
vt 0.780172 0.722826
vt 0.728448 0.701087
vt 0.702586 0.722826
vt 0.715517 0.711957
vt 0.741379 0.695652
vt 0.793103 0.728261
vt 0.702586 0.733696
vt 0.689655 0.728261
vt 0.689655 0.695652
vt 0.702586 0.652174
vt 0.702586 0.695652
vt 0.767241 0.695652
vt 0.780172 0.652174
vt 0.780172 0.695652
vt 0.793103 0.652174
vt 0.793103 0.695652
vt 0.715517 0.695652
vt 0.728448 0.652174
vt 0.728448 0.695652
vt 0.754310 0.652174
vt 0.754310 0.695652
vt 0.715517 0.652174
vt 0.741379 0.652174
vt 0.767241 0.652174
vt 0.857759 0.755435
vt 0.870690 0.728261
vt 0.870690 0.744565
vt 0.844828 0.760870
vt 0.831897 0.728261
vt 0.844828 0.728261
vt 0.806035 0.733696
vt 0.818965 0.728261
vt 0.818965 0.744565
vt 0.857759 0.728261
vt 0.831897 0.755435
vt 0.806035 0.771739
vt 0.818965 0.760870
vt 0.818965 0.771739
vt 0.883621 0.771739
vt 0.896552 0.760870
vt 0.896552 0.771739
vt 0.844828 0.771739
vt 0.857759 0.760870
vt 0.857759 0.771739
vt 0.831897 0.760870
vt 0.831897 0.771739
vt 0.793103 0.771739
vt 0.806035 0.760870
vt 0.870690 0.771739
vt 0.883621 0.760870
vt 0.870690 0.760870
vt 0.883621 0.728261
vt 0.883621 0.733696
vt 0.857759 0.701087
vt 0.870690 0.711957
vt 0.883621 0.722826
vt 0.831897 0.701087
vt 0.844828 0.695652
vt 0.806035 0.728261
vt 0.818965 0.711957
vt 0.896552 0.728261
vt 0.793103 0.728261
vt 0.806035 0.722826
vt 0.793103 0.695652
vt 0.806035 0.652174
vt 0.806035 0.695652
vt 0.870690 0.695652
vt 0.883621 0.652174
vt 0.883621 0.695652
vt 0.896552 0.652174
vt 0.896552 0.695652
vt 0.818965 0.695652
vt 0.831897 0.652174
vt 0.831897 0.695652
vt 0.857759 0.652174
vt 0.857759 0.695652
vt 0.818965 0.652174
vt 0.844828 0.652174
vt 0.870690 0.652174
vt 0.728448 0.771739
vt 0.741379 0.760870
vt 0.741379 0.771739
vt 0.754310 0.771739
vt 0.767241 0.760870
vt 0.767241 0.771739
vt 0.780172 0.760870
vt 0.780172 0.771739
vt 0.689655 0.771739
vt 0.702586 0.760870
vt 0.702586 0.771739
vt 0.715517 0.771739
vt 0.728448 0.760870
vt 0.754310 0.760870
vt 0.793103 0.760870
vt 0.793103 0.771739
vt 0.715517 0.760870
vt 0.715517 0.744565
vt 0.728448 0.728261
vt 0.728448 0.755435
vt 0.754310 0.728261
vt 0.754310 0.755435
vt 0.702586 0.728261
vt 0.715517 0.728261
vt 0.741379 0.728261
vt 0.767241 0.728261
vt 0.767241 0.744565
vt 0.780172 0.728261
vt 0.780172 0.733696
vt 0.767241 0.711957
vt 0.780172 0.722826
vt 0.728448 0.701087
vt 0.741379 0.695652
vt 0.754310 0.701087
vt 0.715517 0.711957
vt 0.793103 0.728261
vt 0.702586 0.733696
vt 0.689655 0.728261
vt 0.702586 0.722826
vt 0.689655 0.695652
vt 0.702586 0.652174
vt 0.702586 0.695652
vt 0.767241 0.695652
vt 0.780172 0.652174
vt 0.780172 0.695652
vt 0.793103 0.652174
vt 0.793103 0.695652
vt 0.715517 0.695652
vt 0.728448 0.652174
vt 0.728448 0.695652
vt 0.754310 0.652174
vt 0.754310 0.695652
vt 0.715517 0.652174
vt 0.741379 0.652174
vt 0.767241 0.652174
vt 0.793103 0.760870
vt 0.793103 0.652174
vt 0.689655 0.760870
vt 0.689655 0.652174
vt 0.896552 0.891304
vt 0.974138 0.391304
vt 0.974138 0.260870
vt 0.793103 0.760870
vt 0.896552 0.597826
vt 0.896552 0.581522
vt 0.896552 0.548913
vt 0.896552 0.521739
vt 0.793103 0.652174
vt 0.689655 0.760870
vt 0.689655 0.652174
vt 0.793103 0.760870
vt 0.793103 0.652174
vt 0.689655 0.760870
vt 0.689655 0.652174
vt 0.793103 0.760870
vt 0.793103 0.652174
vt 0.689655 0.760870
vt 0.689655 0.652174
vn 0.0000 -1.0000 0.0000
vn 1.0000 0.0000 0.0000
vn 0.0000 0.0000 1.0000
vn 0.0000 0.0000 -1.0000
vn -1.0000 0.0000 0.0000
vn 0.0000 1.0000 0.0000
vn 0.7071 0.0000 0.7071
vn -0.7071 0.0000 -0.7071
vn 0.7071 0.0000 -0.7071
vn -0.7071 0.0000 0.7071
vn -0.4851 0.7276 -0.4851
vn 0.4851 0.7276 0.4851
vn 0.5547 0.8321 0.0000
vn -0.5547 0.8321 0.0000
vn 0.0000 0.8321 -0.5547
vn -0.4851 0.7276 0.4851
vn 0.4851 0.7276 -0.4851
vn 0.0000 0.8321 0.5547
vn 0.0000 0.7071 -0.7071
vn 0.0000 -0.7071 0.7071
vn 0.5774 -0.5774 0.5774
vn -0.5774 -0.5774 0.5774
vn 0.0000 0.7071 0.7071
vn 0.1866 0.9824 0.0000
vn 0.0196 0.0473 -0.9987
vn -0.1363 -0.6737 -0.7263
vn 0.0000 -0.7071 -0.7071
vn -0.1363 -0.6737 0.7263
vn 0.1447 0.7194 0.6794
vn 0.1447 0.7194 -0.6794
vn -0.7071 -0.7071 0.0000
vn 0.0196 0.0473 0.9987
vn 0.0670 0.0670 0.9955
vn 0.5293 0.5293 0.6630
vn 0.5293 0.5293 -0.6630
vn 0.7071 0.7071 0.0000
vn 0.0670 0.0670 -0.9955
vn -0.4617 -0.4617 -0.7573
vn 0.0473 0.0196 -0.9987
vn -0.6737 -0.1363 -0.7263
vn 0.7194 0.1447 0.6794
vn 0.7194 0.1447 -0.6794
vn -0.6737 -0.1363 0.7263
vn 0.0473 0.0196 0.9987
vn 0.9824 0.1866 0.0000
vn -0.4617 -0.4617 0.7573
vn -0.7071 0.7071 0.0000
vn 0.0000 0.9824 0.1866
vn 0.9987 0.0473 0.0196
vn 0.7263 -0.6737 -0.1363
vn 0.7071 -0.7071 0.0000
vn -0.7263 -0.6737 -0.1363
vn -0.6794 0.7194 0.1447
vn 0.6794 0.7194 0.1447
vn -0.9987 0.0473 0.0196
vn -0.9955 0.0670 0.0670
vn -0.6630 0.5293 0.5293
vn 0.6630 0.5293 0.5293
vn 0.9955 0.0670 0.0670
vn 0.7573 -0.4617 -0.4617
vn 0.6794 0.1447 0.7194
vn 0.9987 0.0196 0.0473
vn 0.7263 -0.1363 -0.6737
vn -0.6794 0.1447 0.7194
vn 0.0000 0.1866 0.9824
vn -0.7573 -0.4617 -0.4617
vn -0.9987 0.0196 0.0473
vn -0.7263 -0.1363 -0.6737
vn -0.6794 -0.1447 -0.7194
vn 0.6794 -0.1447 -0.7194
vn 0.0000 -0.1866 -0.9824
vn -0.7263 0.1363 0.6737
vn 0.7263 0.1363 0.6737
vn -0.9987 -0.0196 -0.0473
vn 0.9987 -0.0196 -0.0473
vn -0.6630 -0.5293 -0.5293
vn -0.9955 -0.0670 -0.0670
vn 0.9955 -0.0670 -0.0670
vn 0.6630 -0.5293 -0.5293
vn -0.7573 0.4617 0.4617
vn 0.6794 -0.7194 -0.1447
vn 0.0000 -0.9824 -0.1866
vn -0.6794 -0.7194 -0.1447
vn -0.9987 -0.0473 -0.0196
vn 0.7263 0.6737 0.1363
vn 0.9987 -0.0473 -0.0196
vn -0.7263 0.6737 0.1363
vn 0.7573 0.4617 0.4617
vn -0.1447 0.7194 0.6794
vn -0.0670 0.0670 0.9955
vn -0.0196 0.0473 0.9987
vn -0.1447 0.7194 -0.6794
vn -0.1866 0.9824 0.0000
vn 0.1363 -0.6737 -0.7263
vn -0.0670 0.0670 -0.9955
vn -0.0196 0.0473 -0.9987
vn -0.5293 0.5293 0.6630
vn -0.5293 0.5293 -0.6630
vn 0.0473 -0.9987 0.0196
vn 0.9824 0.0000 0.1866
vn 0.0473 0.9987 0.0196
vn -0.6737 -0.7263 -0.1363
vn 0.7194 0.6794 0.1447
vn 0.7194 -0.6794 0.1447
vn -0.6737 0.7263 -0.1363
vn 0.0670 0.9955 0.0670
vn 0.5293 0.6630 0.5293
vn 0.0670 -0.9955 0.0670
vn -0.4617 -0.7573 -0.4617
vn 0.5293 -0.6630 0.5293
vn 0.1866 0.0000 0.9824
vn 0.1447 -0.6794 0.7194
vn 0.1447 0.6794 0.7194
vn 0.0196 -0.9987 0.0473
vn -0.4617 0.7573 -0.4617
vn 0.0196 0.9987 0.0473
vn -0.1363 -0.7263 -0.6737
vn -0.1363 0.7263 -0.6737
vn 0.1363 -0.6737 0.7263
vn 0.4617 -0.4617 0.7573
vn -0.0473 0.0196 0.9987
vn 0.6737 -0.1363 0.7263
vn -0.7194 0.1447 -0.6794
vn -0.7194 0.1447 0.6794
vn 0.6737 -0.1363 -0.7263
vn -0.0473 0.0196 -0.9987
vn -0.9824 0.1866 0.0000
vn 0.4617 -0.4617 -0.7573
vn 0.0000 0.9824 -0.1866
vn -0.9987 0.0473 -0.0196
vn -0.7263 -0.6737 0.1363
vn 0.7263 -0.6737 0.1363
vn 0.6794 0.7194 -0.1447
vn -0.6794 0.7194 -0.1447
vn 0.9987 0.0473 -0.0196
vn 0.9955 0.0670 -0.0670
vn 0.6630 0.5293 -0.5293
vn -0.6630 0.5293 -0.5293
vn -0.9955 0.0670 -0.0670
vn -0.7573 -0.4617 0.4617
vn -0.9987 0.0196 -0.0473
vn -0.7263 -0.1363 0.6737
vn 0.6794 0.1447 -0.7194
vn -0.6794 0.1447 -0.7194
vn 0.7263 -0.1363 0.6737
vn 0.9987 0.0196 -0.0473
vn 0.0000 0.1866 -0.9824
vn 0.7573 -0.4617 0.4617
v 4.500000 0.500000 -3.500000
v 7.500000 0.500000 -3.500000
v 7.500000 0.000000 -3.500000
v 4.500000 0.000000 -3.500000
v 7.500000 0.000000 3.500000
v 4.500000 0.000000 3.500000
v 7.500000 0.500000 3.500000
v 4.500000 0.500000 3.500000
v 4.750000 1.250000 -3.000000
v 7.250000 1.250000 -3.000000
v 4.750000 2.250000 -3.000000
v 7.250000 2.250000 -3.000000
v 5.500000 3.000000 -3.000000
v 5.500000 0.500000 -3.000000
v 6.500000 3.000000 -3.000000
v 6.500000 0.500000 -3.000000
v 4.750000 1.250000 1.000000
v 7.250000 1.250000 1.000000
v 4.750000 2.250000 1.000000
v 7.250000 2.250000 1.000000
v 5.500000 3.000000 1.000000
v 5.500000 0.500000 1.000000
v 6.500000 3.000000 1.000000
v 6.500000 0.500000 1.000000
v 4.500000 0.500000 -3.000000
v 7.500000 0.500000 -3.000000
v 4.500000 0.500000 -3.500000
v 7.500000 0.500000 -3.500000
v 4.500000 2.500000 -3.500000
v 4.500000 2.500000 -3.000000
v 7.500000 2.500000 -3.000000
v 7.500000 2.500000 -3.500000
v 5.000000 3.000000 -3.500000
v 5.000000 3.000000 -3.000000
v 7.000000 3.000000 -3.000000
v 7.000000 3.000000 -3.500000
v 4.500000 0.500000 1.500000
v 7.500000 0.500000 1.500000
v 4.500000 0.500000 1.000000
v 7.500000 0.500000 1.000000
v 4.500000 2.500000 1.000000
v 4.500000 2.500000 1.500000
v 7.500000 2.500000 1.500000
v 7.500000 2.500000 1.000000
v 5.000000 3.000000 1.000000
v 5.000000 3.000000 1.500000
v 7.000000 3.000000 1.500000
v 7.000000 3.000000 1.000000
v 4.500000 0.500000 3.000000
v 7.500000 0.500000 3.000000
v 4.500000 0.500000 2.500000
v 7.500000 0.500000 2.500000
v 4.500000 2.500000 2.500000
v 4.500000 2.500000 3.000000
v 7.500000 2.500000 3.000000
v 7.500000 2.500000 2.500000
v 5.000000 3.000000 2.500000
v 5.000000 3.000000 3.000000
v 7.000000 3.000000 3.000000
v 7.000000 3.000000 2.500000
v 7.250000 0.750000 1.750000
v 7.250000 0.750000 2.250000
v 7.500000 0.750000 2.250000
v 7.500000 0.750000 1.750000
v 4.750000 0.750000 1.750000
v 4.750000 0.750000 2.250000
v 4.500000 0.750000 2.250000
v 4.500000 0.750000 1.750000
v 4.750000 0.500000 1.750000
v 4.500000 0.500000 1.750000
v 4.750000 0.500000 2.250000
v 4.500000 0.500000 2.250000
v 6.500000 2.616025 2.500000
v 6.866026 2.249999 2.500000
v 7.000000 1.749999 2.500000
v 6.866025 1.250000 2.500000
v 6.500000 0.883974 2.500000
v 6.000000 0.750000 2.500000
v 5.500000 0.883974 2.500000
v 5.133975 1.250000 2.500000
v 5.000000 1.750000 2.500000
v 5.133975 2.250000 2.500000
v 5.500000 2.616025 2.500000
v 6.000000 2.750000 2.500000
v 6.000000 2.750000 1.500000
v 5.500000 2.616025 1.500000
v 5.133975 2.250000 1.500000
v 5.000000 1.750000 1.500000
v 5.133975 1.250000 1.500000
v 5.500000 0.883974 1.500000
v 6.000000 0.750000 1.500000
v 6.500000 0.883974 1.500000
v 6.866025 1.250000 1.500000
v 7.000000 1.749999 1.500000
v 6.866026 2.249999 1.500000
v 6.500000 2.616025 1.500000
v 7.500000 0.500000 1.750000
v 7.250000 0.500000 1.750000
v 7.500000 0.500000 2.250000
v 7.250000 0.500000 2.250000
v 4.750000 0.500000 2.187500
v 4.750000 0.500000 1.812500
v 4.750000 0.687500 1.812500
v 4.750000 0.687500 2.187500
v 5.250000 0.500000 2.187500
v 5.250000 0.500000 1.812500
v 5.250000 0.687500 1.812500
v 5.250000 0.687500 2.187500
v 6.750000 0.750000 1.750000
v 6.750000 0.750000 2.250000
v 6.750000 0.500000 1.750000
v 6.750000 0.500000 2.250000
v 5.250000 0.750000 1.750000
v 5.250000 0.750000 2.250000
v 5.250000 0.500000 1.750000
v 5.250000 0.500000 2.250000
v 7.250000 0.500000 2.187500
v 7.250000 0.500000 1.812500
v 7.250000 0.687500 1.812500
v 7.250000 0.687500 2.187500
v 6.750000 0.500000 2.187500
v 6.750000 0.500000 1.812500
v 6.750000 0.687500 1.812500
v 6.750000 0.687500 2.187500
v 6.500000 0.500000 3.500000
v 7.000000 0.500000 3.500000
v 6.500000 0.500000 3.000000
v 7.000000 0.500000 3.000000
v 6.500000 2.500000 3.000000
v 6.500000 2.000000 3.500000
v 7.000000 2.000000 3.500000
v 7.000000 2.500000 3.000000
v 5.000000 0.500000 3.500000
v 5.500000 0.500000 3.500000
v 5.000000 0.500000 3.000000
v 5.500000 0.500000 3.000000
v 5.000000 2.500000 3.000000
v 5.000000 2.000000 3.500000
v 5.500000 2.000000 3.500000
v 5.500000 2.500000 3.000000
v 5.500000 3.000000 -1.500000
v 6.500000 3.000000 -1.500000
v 5.500000 3.000000 -2.500000
v 6.500000 3.000000 -2.500000
v 5.500000 4.000000 -2.500000
v 5.500000 4.000000 -1.500000
v 6.500000 4.000000 -1.500000
v 6.500000 4.000000 -2.500000
v 7.000000 3.000000 -1.500000
v 6.926776 3.176777 -1.500000
v 6.750000 3.250000 -1.500000
v 6.573223 3.176777 -1.500000
v 6.500000 3.000000 -1.500000
v 6.573223 2.823223 -1.500000
v 6.750000 2.750000 -1.500000
v 6.926776 2.823223 -1.500000
v 7.000000 3.000000 0.000000
v 6.926777 3.176777 0.000000
v 6.750000 3.250000 0.000000
v 6.573223 3.176777 0.000000
v 6.500000 3.000000 0.000000
v 6.573223 2.823223 0.000000
v 6.750000 2.750000 0.000000
v 6.926777 2.823223 0.000000
v 7.000000 2.926777 0.176777
v 6.926777 3.051777 0.301777
v 6.750000 3.103553 0.353554
v 6.573223 3.051777 0.301777
v 6.500000 2.926777 0.176777
v 6.573223 2.801776 0.051777
v 6.926777 2.801776 0.051777
v 7.000000 2.750000 0.250000
v 6.926777 2.750000 0.426777
v 6.750000 2.750000 0.500000
v 6.573223 2.750000 0.426777
v 6.500000 2.750000 0.250000
v 6.573223 2.750000 0.073223
v 6.926777 2.750000 0.073223
v 6.750000 2.500000 0.000000
v 7.000000 2.500000 0.250000
v 6.926777 2.500000 0.426777
v 6.750000 2.500000 0.500000
v 6.573223 2.500000 0.426777
v 6.500000 2.500000 0.250000
v 6.573223 2.500000 0.073223
v 6.926777 2.500000 0.073223
v 7.000000 3.073223 -1.676777
v 6.926776 3.198223 -1.551776
v 6.573223 3.198223 -1.551776
v 6.500000 3.073223 -1.676777
v 6.573223 2.948223 -1.801777
v 6.750000 2.896447 -1.853553
v 6.926776 2.948223 -1.801777
v 7.000000 3.250000 -1.750000
v 6.926776 3.250000 -1.573223
v 6.573223 3.250000 -1.573223
v 6.500000 3.250000 -1.750000
v 6.573223 3.250000 -1.926777
v 6.750000 3.250000 -2.000000
v 6.926776 3.250000 -1.926777
v 6.750000 3.500000 -1.500000
v 7.000000 3.500000 -1.750000
v 6.926776 3.500000 -1.573223
v 6.573223 3.500000 -1.573223
v 6.500000 3.500000 -1.750000
v 6.573223 3.500000 -1.926777
v 6.750000 3.500000 -2.000000
v 6.926776 3.500000 -1.926777
v 6.676777 3.676777 -1.500000
v 6.853553 3.853553 -1.750000
v 6.801776 3.801776 -1.573223
v 6.551777 3.551777 -1.573223
v 6.551777 3.551777 -1.926777
v 6.676777 3.676777 -2.000000
v 6.801776 3.801776 -1.926777
v 6.500000 3.750000 -1.500000
v 6.500000 4.000000 -1.750000
v 6.500000 3.926776 -1.573223
v 6.500000 3.573223 -1.573223
v 6.500000 3.573223 -1.926777
v 6.500000 3.750000 -2.000000
v 6.500000 3.926776 -1.926777
v 6.750000 2.500000 -2.000000
v 7.000000 2.500000 -2.250000
v 6.926776 2.500000 -2.073223
v 6.573223 2.500000 -2.073223
v 6.500000 2.500000 -2.250000
v 6.573223 2.500000 -2.426777
v 6.750000 2.500000 -2.500000
v 6.926776 2.500000 -2.426777
v 6.750000 3.500000 -2.000000
v 7.000000 3.500000 -2.250000
v 6.926776 3.500000 -2.073223
v 6.573223 3.500000 -2.073223
v 6.500000 3.500000 -2.250000
v 6.573223 3.500000 -2.426777
v 6.750000 3.500000 -2.500000
v 6.926776 3.500000 -2.426777
v 6.676777 3.676777 -2.000000
v 6.853553 3.853553 -2.250000
v 6.801776 3.801776 -2.073223
v 6.551777 3.551777 -2.073223
v 6.551777 3.551777 -2.426777
v 6.676777 3.676777 -2.500000
v 6.801776 3.801776 -2.426777
v 6.500000 3.750000 -2.000000
v 6.500000 4.000000 -2.250000
v 6.500000 3.926776 -2.073223
v 6.500000 3.573223 -2.073223
v 6.500000 3.573223 -2.426777
v 6.500000 3.750000 -2.500000
v 6.500000 3.926776 -2.426777
v 5.000000 3.000000 -1.500000
v 5.073224 3.176777 -1.500000
v 5.250000 3.250000 -1.500000
v 5.426777 3.176777 -1.500000
v 5.500000 3.000000 -1.500000
v 5.426777 2.823223 -1.500000
v 5.250000 2.750000 -1.500000
v 5.073224 2.823223 -1.500000
v 5.000000 3.000000 0.000000
v 5.073223 3.176777 0.000000
v 5.250000 3.250000 0.000000
v 5.426777 3.176777 0.000000
v 5.500000 3.000000 0.000000
v 5.426777 2.823223 0.000000
v 5.250000 2.750000 0.000000
v 5.073223 2.823223 0.000000
v 5.000000 2.926777 0.176777
v 5.073223 3.051777 0.301777
v 5.250000 3.103553 0.353554
v 5.426777 3.051777 0.301777
v 5.500000 2.926777 0.176777
v 5.426777 2.801776 0.051777
v 5.073223 2.801776 0.051777
v 5.000000 2.750000 0.250000
v 5.073223 2.750000 0.426777
v 5.250000 2.750000 0.500000
v 5.426777 2.750000 0.426777
v 5.500000 2.750000 0.250000
v 5.426777 2.750000 0.073223
v 5.073223 2.750000 0.073223
v 5.250000 2.500000 0.000000
v 5.000000 2.500000 0.250000
v 5.073223 2.500000 0.426777
v 5.250000 2.500000 0.500000
v 5.426777 2.500000 0.426777
v 5.500000 2.500000 0.250000
v 5.426777 2.500000 0.073223
v 5.073223 2.500000 0.073223
v 5.000000 3.073223 -1.676777
v 5.073224 3.198223 -1.551776
v 5.426777 3.198223 -1.551776
v 5.500000 3.073223 -1.676777
v 5.426777 2.948223 -1.801777
v 5.250000 2.896447 -1.853553
v 5.073224 2.948223 -1.801777
v 5.000000 3.250000 -1.750000
v 5.073224 3.250000 -1.573223
v 5.426777 3.250000 -1.573223
v 5.500000 3.250000 -1.750000
v 5.426777 3.250000 -1.926777
v 5.250000 3.250000 -2.000000
v 5.073224 3.250000 -1.926777
v 5.250000 3.500000 -1.500000
v 5.000000 3.500000 -1.750000
v 5.073224 3.500000 -1.573223
v 5.426777 3.500000 -1.573223
v 5.500000 3.500000 -1.750000
v 5.426777 3.500000 -1.926777
v 5.250000 3.500000 -2.000000
v 5.073224 3.500000 -1.926777
v 5.323223 3.676777 -1.500000
v 5.146447 3.853553 -1.750000
v 5.198224 3.801776 -1.573223
v 5.448223 3.551777 -1.573223
v 5.448223 3.551777 -1.926777
v 5.323223 3.676777 -2.000000
v 5.198224 3.801776 -1.926777
v 5.500000 3.750000 -1.500000
v 5.500000 4.000000 -1.750000
v 5.500000 3.926776 -1.573223
v 5.500000 3.573223 -1.573223
v 5.500000 3.573223 -1.926777
v 5.500000 3.750000 -2.000000
v 5.500000 3.926776 -1.926777
v 5.250000 2.500000 -2.000000
v 5.000000 2.500000 -2.250000
v 5.073224 2.500000 -2.073223
v 5.426777 2.500000 -2.073223
v 5.500000 2.500000 -2.250000
v 5.426777 2.500000 -2.426777
v 5.250000 2.500000 -2.500000
v 5.073224 2.500000 -2.426777
v 5.250000 3.500000 -2.000000
v 5.000000 3.500000 -2.250000
v 5.073224 3.500000 -2.073223
v 5.426777 3.500000 -2.073223
v 5.500000 3.500000 -2.250000
v 5.426777 3.500000 -2.426777
v 5.250000 3.500000 -2.500000
v 5.073224 3.500000 -2.426777
v 5.323223 3.676777 -2.000000
v 5.146447 3.853553 -2.250000
v 5.198224 3.801776 -2.073223
v 5.448223 3.551777 -2.073223
v 5.448223 3.551777 -2.426777
v 5.323223 3.676777 -2.500000
v 5.198224 3.801776 -2.426777
v 5.500000 3.750000 -2.000000
v 5.500000 4.000000 -2.250000
v 5.500000 3.926776 -2.073223
v 5.500000 3.573223 -2.073223
v 5.500000 3.573223 -2.426777
v 5.500000 3.750000 -2.500000
v 5.500000 3.926776 -2.426777
v 5.000000 0.500000 0.250000
v 7.000000 0.500000 0.250000
v 5.000000 0.500000 -0.250000
v 7.000000 0.500000 -0.250000
v 5.000000 1.000000 -0.250000
v 5.000000 1.000000 0.250000
v 7.000000 1.000000 0.250000
v 7.000000 1.000000 -0.250000
v 5.000000 0.500000 -1.750000
v 7.000000 0.500000 -1.750000
v 5.000000 0.500000 -2.250000
v 7.000000 0.500000 -2.250000
v 5.000000 1.000000 -2.250000
v 5.000000 1.000000 -1.750000
v 7.000000 1.000000 -1.750000
v 7.000000 1.000000 -2.250000
vt 0.000000 0.000000
vt 0.000000 0.000000
vt 0.000000 0.000000
vt 0.000000 0.000000
vt 0.000000 0.000000
vt 0.000000 0.000000
vt 0.000000 0.000000
vt 0.000000 0.000000
vt 0.000000 0.000000
vt 0.000000 0.000000
vt 0.000000 0.000000
vt 0.000000 0.000000
vt 0.000000 0.000000
vt 0.000000 0.000000
vt 0.000000 0.000000
vt 0.000000 0.000000
vt 0.000000 0.000000
vt 0.000000 0.000000
vt 0.000000 0.000000
vt 0.000000 0.000000
vt 0.000000 0.000000
vt 0.000000 0.000000
vt 0.000000 0.000000
vt 0.000000 0.000000
vt 0.000000 0.000000
vt 0.000000 0.000000
vt 0.000000 0.000000
vt 0.000000 0.000000
vt 0.000000 0.000000
vt 0.000000 0.000000
vt 0.000000 0.000000
vt 0.000000 0.000000
vt 0.000000 0.000000
vt 0.000000 0.000000
vt 0.000000 0.000000
vt 0.000000 0.000000
vt 0.000000 0.000000
vt 0.000000 0.000000
vt 0.000000 0.000000
vt 0.000000 0.000000
vt 0.000000 0.000000
vt 0.000000 0.000000
vt 0.000000 0.000000
vt 0.000000 0.000000
vt 0.000000 0.000000
vt 0.000000 0.000000
vt 0.000000 0.000000
vt 0.000000 0.000000
vt 0.000000 0.000000
vt 0.000000 0.000000
vt 0.000000 0.000000
vt 0.000000 0.000000
vt 0.000000 0.000000
vt 0.000000 0.000000
vt 0.000000 0.000000
vt 0.000000 0.000000
vt 0.000000 0.000000
vt 0.000000 0.000000
vt 0.000000 0.000000
vt 0.000000 0.000000
vt 0.000000 0.000000
vt 0.000000 0.000000
vt 0.000000 0.000000
vt 0.000000 0.000000
vt 0.000000 0.000000
vt 0.000000 0.000000
vt 0.000000 0.000000
vt 0.000000 0.000000
vt 0.000000 0.000000
vt 0.000000 0.000000
vt 0.000000 0.000000
vt 0.000000 0.000000
vt 0.000000 0.000000
vt 0.000000 0.000000
vt 0.000000 0.000000
vt 0.000000 0.000000
vt 0.000000 0.000000
vt 0.000000 0.000000
vt 0.000000 0.000000
vt 0.000000 0.000000
vt 0.000000 0.000000
vt 0.000000 0.000000
vt 0.000000 0.000000
vt 0.000000 0.000000
vt 0.000000 0.000000
vt 0.000000 0.000000
vt 0.000000 0.000000
vt 0.000000 0.000000
vt 0.000000 0.000000
vt 0.000000 0.000000
vt 0.000000 0.000000
vt 0.000000 0.000000
vt 0.000000 0.000000
vt 0.000000 0.000000
vt 0.000000 0.000000
vt 0.000000 0.000000
vt 0.000000 0.000000
vt 0.000000 0.000000
vt 0.000000 0.000000
vt 0.000000 0.000000
vt 0.000000 0.000000
vt 0.000000 0.000000
vt 0.000000 0.000000
vt 0.000000 0.000000
vt 0.000000 0.000000
vt 0.000000 0.000000
vt 0.000000 0.000000
vt 0.000000 0.000000
vt 0.000000 0.000000
vt 0.000000 0.000000
vt 0.000000 0.000000
vt 0.000000 0.000000
vt 0.000000 0.000000
vt 0.000000 0.000000
vt 0.000000 0.000000
vt 0.000000 0.000000
vt 0.000000 0.000000
vt 0.000000 0.000000
vt 0.000000 0.000000
vt 0.000000 0.000000
vt 0.000000 0.000000
vt 0.000000 0.000000
vt 0.000000 0.000000
vt 0.000000 0.000000
vt 0.000000 0.000000
vt 0.000000 0.000000
vt 0.000000 0.000000
vt 0.000000 0.000000
vt 0.000000 0.000000
vt 0.000000 0.000000
vt 0.000000 0.000000
vt 0.000000 0.000000
vt 0.000000 0.000000
vt 0.000000 0.000000
vt 0.000000 0.000000
vt 0.000000 0.000000
vt 0.000000 0.000000
vt 0.000000 0.000000
vt 0.000000 0.000000
vt 0.000000 0.000000
vt 0.000000 0.000000
vt 0.000000 0.000000
vt 0.000000 0.000000
vt 0.000000 0.000000
vt 0.000000 0.000000
vt 0.000000 0.000000
vt 0.000000 0.000000
vt 0.000000 0.000000
vt 0.000000 0.000000
vt 0.000000 0.000000
vt 0.000000 0.000000
vt 0.000000 0.000000
vt 0.000000 0.000000
vt 0.000000 0.000000
vt 0.000000 0.000000
vt 0.000000 0.000000
vt 0.000000 0.000000
vt 0.000000 0.000000
vt 0.000000 0.000000
vt 0.000000 0.000000
vt 0.000000 0.000000
vt 0.000000 0.000000
vt 0.000000 0.000000
vt 0.000000 0.000000
vt 0.000000 0.000000
vt 0.000000 0.000000
vt 0.000000 0.000000
vt 0.000000 0.000000
vt 0.000000 0.000000
vt 0.000000 0.000000
vt 0.000000 0.000000
vt 0.000000 0.000000
vt 0.000000 0.000000
vt 0.000000 0.000000
vt 0.000000 0.000000
vt 0.000000 0.000000
vt 0.000000 0.000000
vt 0.000000 0.000000
vt 0.000000 0.000000
vt 0.000000 0.000000
vt 0.000000 0.000000
vt 0.000000 0.000000
vt 0.000000 0.000000
vt 0.000000 0.000000
vt 0.000000 0.000000
vt 0.000000 0.000000
vt 0.000000 0.000000
vt 0.000000 0.000000
vt 0.000000 0.000000
vt 0.000000 0.000000
vt 0.000000 0.000000
vt 0.000000 0.000000
vt 0.000000 0.000000
vt 0.000000 0.000000
vt 0.000000 0.000000
vt 0.000000 0.000000
vt 0.000000 0.000000
vt 0.000000 0.000000
vt 0.000000 0.000000
vt 0.000000 0.000000
vt 0.000000 0.000000
vt 0.000000 0.000000
vt 0.000000 0.000000
vt 0.000000 0.000000
vt 0.000000 0.000000
vt 0.000000 0.000000
vt 0.000000 0.000000
vt 0.000000 0.000000
vt 0.000000 0.000000
vt 0.000000 0.000000
vt 0.000000 0.000000
vt 0.000000 0.000000
vt 0.000000 0.000000
vt 0.000000 0.000000
vt 0.000000 0.000000
vt 0.000000 0.000000
vt 0.000000 0.000000
vt 0.000000 0.000000
vt 0.000000 0.000000
vt 0.000000 0.000000
vt 0.000000 0.000000
vt 0.000000 0.000000
vt 0.000000 0.000000
vt 0.000000 0.000000
vt 0.000000 0.000000
vt 0.000000 0.000000
vt 0.000000 0.000000
vt 0.000000 0.000000
vt 0.000000 0.000000
vt 0.000000 0.000000
vt 0.000000 0.000000
vt 0.000000 0.000000
vt 0.000000 0.000000
vt 0.000000 0.000000
vt 0.000000 0.000000
vt 0.000000 0.000000
vt 0.000000 0.000000
vt 0.000000 0.000000
vt 0.000000 0.000000
vt 0.000000 0.000000
vt 0.000000 0.000000
vt 0.000000 0.000000
vt 0.000000 0.000000
vt 0.000000 0.000000
vt 0.000000 0.000000
vt 0.000000 0.000000
vt 0.000000 0.000000
vt 0.000000 0.000000
vt 0.000000 0.000000
vt 0.000000 0.000000
vt 0.000000 0.000000
vt 0.000000 0.000000
vt 0.000000 0.000000
vt 0.000000 0.000000
vt 0.000000 0.000000
vt 0.000000 0.000000
vt 0.000000 0.000000
vt 0.000000 0.000000
vt 0.000000 0.000000
vt 0.000000 0.000000
vt 0.000000 0.000000
vt 0.000000 0.000000
vt 0.000000 0.000000
vt 0.000000 0.000000
vt 0.000000 0.000000
vt 0.000000 0.000000
vt 0.000000 0.000000
vt 0.000000 0.000000
vt 0.000000 0.000000
vt 0.000000 0.000000
vt 0.000000 0.000000
vt 0.000000 0.000000
vt 0.000000 0.000000
vt 0.000000 0.000000
vt 0.000000 0.000000
vt 0.000000 0.000000
vt 0.000000 0.000000
vt 0.000000 0.000000
vt 0.000000 0.000000
vt 0.000000 0.000000
vt 0.000000 0.000000
vt 0.000000 0.000000
vt 0.000000 0.000000
vt 0.000000 0.000000
vt 0.000000 0.000000
vt 0.000000 0.000000
vt 0.000000 0.000000
vt 0.000000 0.000000
vt 0.000000 0.000000
vt 0.000000 0.000000
vt 0.000000 0.000000
vt 0.000000 0.000000
vt 0.000000 0.000000
vt 0.000000 0.000000
vt 0.000000 0.000000
vt 0.000000 0.000000
vt 0.000000 0.000000
vt 0.000000 0.000000
vt 0.000000 0.000000
vt 0.000000 0.000000
vt 0.000000 0.000000
vt 0.000000 0.000000
vt 0.000000 0.000000
vt 0.000000 0.000000
vt 0.000000 0.000000
vt 0.000000 0.000000
vt 0.000000 0.000000
vt 0.000000 0.000000
vt 0.000000 0.000000
vt 0.000000 0.000000
vt 0.000000 0.000000
vt 0.000000 0.000000
vt 0.000000 0.000000
vt 0.000000 0.000000
vt 0.000000 0.000000
vt 0.000000 0.000000
vt 0.000000 0.000000
vt 0.000000 0.000000
vt 0.000000 0.000000
vt 0.000000 0.000000
vt 0.000000 0.000000
vt 0.000000 0.000000
vt 0.000000 0.000000
vt 0.000000 0.000000
vt 0.000000 0.000000
vt 0.000000 0.000000
vt 0.000000 0.000000
vt 0.000000 0.000000
vt 0.000000 0.000000
vt 0.000000 0.000000
vt 0.000000 0.000000
vt 0.000000 0.000000
vt 0.000000 0.000000
vt 0.000000 0.000000
vt 0.000000 0.000000
vt 0.000000 0.000000
vt 0.000000 0.000000
vt 0.000000 0.000000
vt 0.000000 0.000000
vt 0.000000 0.000000
vt 0.000000 0.000000
vt 0.000000 0.000000
vt 0.000000 0.000000
vt 0.000000 0.000000
vt 0.000000 0.000000
vt 0.000000 0.000000
vt 0.000000 0.000000
vt 0.000000 0.000000
vt 0.000000 0.000000
vt 0.000000 0.000000
vt 0.000000 0.000000
vt 0.000000 0.000000
vt 0.000000 0.000000
vt 0.000000 0.000000
vt 0.000000 0.000000
vt 0.000000 0.000000
vt 0.000000 0.000000
vt 0.000000 0.000000
vt 0.000000 0.000000
vt 0.000000 0.000000
vt 0.000000 0.000000
vt 0.000000 0.000000
vt 0.000000 0.000000
vt 0.000000 0.000000
vt 0.000000 0.000000
vt 0.000000 0.000000
vt 0.000000 0.000000
vt 0.000000 0.000000
vt 0.000000 0.000000
vt 0.000000 0.000000
vt 0.000000 0.000000
vt 0.000000 0.000000
vn 0.0000 0.0000 -1.0000
vn 1.0000 0.0000 0.0000
vn 0.0000 0.0000 1.0000
vn -1.0000 0.0000 0.0000
vn 0.0000 1.0000 0.0000
vn 0.0000 -1.0000 0.0000
vn -0.7071 -0.7071 0.0000
vn -0.7071 0.7071 0.0000
vn 0.7071 0.7071 0.0000
vn 0.7071 -0.7071 0.0000
vn -0.9659 0.2588 0.0000
vn -0.2588 -0.9659 0.0000
vn 0.9659 -0.2588 0.0000
vn 0.2588 0.9659 0.0000
vn -0.2588 0.9659 0.0000
vn -0.9659 -0.2588 0.0000
vn 0.2588 -0.9659 0.0000
vn 0.9659 0.2588 0.0000
vn 0.0000 0.7071 0.7071
vn -0.7263 0.6737 0.1363
vn 0.0000 0.9824 0.1866
vn 0.7263 0.6737 0.1363
vn 0.9987 0.0473 0.0196
vn 0.9987 -0.0473 -0.0196
vn 0.7263 -0.6737 -0.1363
vn 0.6794 -0.7194 -0.1447
vn 0.0000 -0.9824 -0.1866
vn -0.7263 -0.6737 -0.1363
vn -0.6794 -0.7194 -0.1447
vn -0.9987 -0.0473 -0.0196
vn -0.6794 0.7194 0.1447
vn 0.6794 0.7194 0.1447
vn 0.0000 -0.7071 -0.7071
vn -0.9987 0.0473 0.0196
vn -0.9955 0.0670 0.0670
vn -0.6630 0.5293 0.5293
vn 0.6630 0.5293 0.5293
vn 0.9955 0.0670 0.0670
vn 0.7573 -0.4617 -0.4617
vn 0.9987 0.0196 0.0473
vn 0.7263 -0.1363 -0.6737
vn -0.9987 0.0196 0.0473
vn -0.6794 0.1447 0.7194
vn 0.6794 0.1447 0.7194
vn -0.7573 -0.4617 -0.4617
vn 0.0000 0.1866 0.9824
vn -0.7263 -0.1363 -0.6737
vn -0.7071 0.0000 -0.7071
vn 0.7071 0.0000 -0.7071
vn -0.7071 0.0000 0.7071
vn 0.7071 0.0000 0.7071
vn 0.6630 -0.5293 -0.5293
vn -0.6630 -0.5293 -0.5293
vn 0.9955 -0.0670 -0.0670
vn 0.7573 0.4617 0.4617
vn -0.7573 0.4617 0.4617
vn -0.9955 -0.0670 -0.0670
vn 0.6794 -0.1447 -0.7194
vn -0.6794 -0.1447 -0.7194
vn 0.9987 -0.0196 -0.0473
vn 0.7263 0.1363 0.6737
vn 0.0000 -0.1866 -0.9824
vn -0.7263 0.1363 0.6737
vn -0.9987 -0.0196 -0.0473
vn 0.7194 0.1447 -0.6794
vn -0.6737 -0.1363 -0.7263
vn 0.7194 0.1447 0.6794
vn 0.0473 0.0196 0.9987
vn 0.9824 0.1866 0.0000
vn -0.6737 -0.1363 0.7263
vn 0.0473 0.0196 -0.9987
vn -0.9809 -0.1944 0.0000
vn 0.5293 0.5293 0.6630
vn 0.0670 0.0670 0.9955
vn -0.4617 -0.4617 -0.7573
vn 0.0670 0.0670 -0.9955
vn -0.4617 -0.4617 0.7573
vn 0.5293 0.5293 -0.6630
vn -0.2611 -0.6303 0.7311
vn 0.0392 0.0948 -0.9947
vn 0.2962 0.7150 -0.6332
vn 0.3827 0.9239 0.0000
vn 0.2962 0.7150 0.6332
vn 0.0392 0.0948 0.9947
vn -0.2611 -0.6303 -0.7311
vn -0.7194 0.1447 -0.6794
vn 0.6737 -0.1363 -0.7263
vn -0.7194 0.1447 0.6794
vn -0.0473 0.0196 0.9987
vn -0.9824 0.1866 0.0000
vn 0.6737 -0.1363 0.7263
vn -0.0473 0.0196 -0.9987
vn 0.9809 -0.1944 0.0000
vn -0.0670 0.0670 0.9955
vn 0.4617 -0.4617 -0.7573
vn 0.4617 -0.4617 0.7573
vn -0.0670 0.0670 -0.9955
vn 0.2611 -0.6303 0.7311
vn -0.5293 0.5293 -0.6630
vn -0.0392 0.0948 -0.9947
vn -0.5293 0.5293 0.6630
vn -0.3827 0.9239 0.0000
vn -0.0392 0.0948 0.9947
vn 0.2611 -0.6303 -0.7311
vn -0.2962 0.7150 0.6332
vn -0.2962 0.7150 -0.6332
o Piston
s off
f 8/1/1 11/2/1 7/3/1
f 4/4/2 7/5/2 3/6/2
f 2/7/3 5/8/3 1/9/3
f 1/9/4 8/10/4 4/4/4
f 3/11/5 6/12/5 2/7/5
f 9/13/4 16/14/4 12/15/4
f 6/16/1 9/17/1 5/18/1
f 5/18/1 12/15/1 8/1/1
f 7/3/1 10/19/1 6/16/1
f 15/20/6 13/21/6 14/22/6
f 11/23/5 14/24/5 10/25/5
f 12/15/2 15/20/2 11/2/2
f 10/25/3 13/26/3 9/13/3
f 8/1/1 12/15/1 11/2/1
f 4/4/2 8/10/2 7/5/2
f 2/7/3 6/12/3 5/8/3
f 1/9/4 5/8/4 8/10/4
f 3/11/5 7/27/5 6/12/5
f 9/13/4 13/26/4 16/14/4
f 6/16/1 10/19/1 9/17/1
f 5/18/1 9/17/1 12/15/1
f 7/3/1 11/2/1 10/19/1
f 15/20/6 16/14/6 13/21/6
f 11/23/5 15/28/5 14/24/5
f 12/15/2 16/14/2 15/20/2
f 10/25/3 14/24/3 13/26/3
