# Split from solar_mirror.obj
mtllib solar_mirror.mtl
v -0.500000 0.937500 0.500000
v -0.500000 1.062500 0.500000
v -0.500000 0.937500 -0.500000
v -0.500000 1.062500 -0.500000
v 0.500000 0.937500 0.500000
v 0.500000 1.062500 0.500000
v 0.500000 0.937500 -0.500000
v 0.500000 1.062500 -0.500000
vt 0.555556 0.444444
vt 1.000000 0.500000
vt 0.555556 0.500000
vt 0.555556 0.444444
vt 1.000000 0.500000
vt 0.555556 0.500000
vt 1.000000 0.500000
vt 0.555556 0.444444
vt 1.000000 0.444444
vt 1.000000 0.500000
vt 0.555556 0.444444
vt 1.000000 0.444444
vt 1.000000 0.000000
vt 0.555556 0.000000
vt 0.555556 0.944444
vt 1.000000 0.944444
vt 1.000000 0.444444
vt 1.000000 0.444444
vt 0.555556 0.500000
vt 0.555556 0.500000
vn -1.0000 0.0000 0.0000
vn 0.0000 0.0000 -1.0000
vn 1.0000 0.0000 0.0000
vn 0.0000 0.0000 1.0000
vn 0.0000 -1.0000 0.0000
vn 0.0000 1.0000 0.0000
v -0.500000 0.000000 0.375000
v -0.500000 0.125000 0.375000
v -0.500000 0.000000 -0.375000
v -0.500000 0.125000 -0.375000
v 0.500000 0.000000 0.375000
v 0.500000 0.125000 0.375000
v 0.500000 0.000000 -0.375000
v 0.500000 0.125000 -0.375000
v -0.062500 0.187500 0.062500
v -0.062500 0.187500 -0.062500
v 0.062500 0.187500 0.062500
v 0.062500 0.187500 -0.062500
v -0.062500 0.937500 0.062500
v -0.062500 0.937500 -0.062500
v 0.062500 0.937500 -0.062500
v 0.062500 0.937500 0.062500
v 0.000000 1.062500 0.000000
v -0.125000 0.125000 0.125000
v -0.125000 0.125000 -0.125000
v 0.125000 0.125000 0.125000
v 0.125000 0.125000 -0.125000
v -0.125000 0.187500 0.125000
v -0.125000 0.187500 -0.125000
v 0.125000 0.187500 -0.125000
v 0.125000 0.187500 0.125000
v 0.375000 0.000000 0.500000
v 0.375000 0.125000 0.500000
v -0.375000 0.000000 0.500000
v -0.375000 0.125000 0.500000
v 0.375000 0.000000 -0.500000
v 0.375000 0.125000 -0.500000
v -0.375000 0.000000 -0.500000
v -0.375000 0.125000 -0.500000
vt 0.388889 0.500000
vt 0.055556 0.444444
vt 0.388889 0.444444
vt 0.444444 0.500000
vt 0.388889 0.444444
vt 0.444444 0.444444
vt 0.388889 0.500000
vt 0.055556 0.444444
vt 0.388889 0.444444
vt 0.444444 0.444444
vt 0.388889 0.500000
vt 0.055556 0.444444
vt 0.388889 0.500000
vt 0.055556 0.444444
vt 0.388889 0.444444
vt 0.555556 0.000000
vt 0.444444 0.027778
vt 0.444444 0.000000
vt 0.500000 0.472222
vt 0.472222 0.527778
vt 0.444444 0.472222
vt 0.500000 0.138889
vt 0.444444 0.472222
vt 0.444444 0.138889
vt 0.500000 0.138889
vt 0.444444 0.472222
vt 0.444444 0.138889
vt 0.500000 0.138889
vt 0.444444 0.472222
vt 0.444444 0.138889
vt 0.500000 0.138889
vt 0.444444 0.138889
vt 0.500000 0.472222
vt 0.500000 0.472222
vt 0.500000 0.472222
vt 0.555556 0.027778
vt 0.444444 0.138889
vt 0.444444 0.027778
vt 0.444444 0.027778
vt 0.555556 0.000000
vt 0.555556 0.027778
vt 0.555556 0.000000
vt 0.444444 0.000000
vt 0.444444 0.027778
vt 0.555556 0.000000
vt 0.555556 0.027778
vt 0.444444 0.444444
vt 0.444444 0.500000
vt 0.444444 0.444444
vt 0.055556 -0.000000
vt 0.444444 0.055556
vt 0.444444 0.888889
vt 0.388889 0.944444
vt 0.055556 0.500000
vt 0.055556 0.500000
vt 0.444444 0.500000
vt 0.055556 0.500000
vt 0.055556 0.500000
vt 0.555556 0.027778
vt 0.555556 0.138889
vt 0.444444 0.000000
vt 0.444444 0.000000
vt 0.444444 0.500000
vt 0.000000 0.388889
vt 0.000000 0.055556
vt 0.388889 -0.000000
vt 0.444444 0.388889
vt 0.055556 0.944444
vt 0.000000 0.888889
vt 0.000000 0.555556
vt 0.444444 0.555556
vn -1.0000 0.0000 0.0000
vn -0.7071 0.0000 -0.7071
vn 1.0000 0.0000 0.0000
vn -0.7071 0.0000 0.7071
vn -0.0000 0.0000 -1.0000
vn 0.0000 0.0000 1.0000
vn -0.8944 0.4472 0.0000
vn 0.0000 0.4472 0.8944
vn 0.0000 0.4472 -0.8944
vn 0.8944 0.4472 0.0000
vn 0.0000 1.0000 0.0000
vn 0.7071 0.0000 0.7071
vn 0.7071 0.0000 -0.7071
vn 0.0000 -1.0000 0.0000
o Mirror
usemtl hbm
s off
f 2/1/1 3/2/1 1/3/1
f 4/4/2 7/5/2 3/6/2
f 8/7/3 5/8/3 7/9/3
f 6/10/4 1/11/4 5/12/4
f 7/13/5 1/11/5 3/14/5
f 4/15/6 6/10/6 8/16/6
f 2/1/1 4/17/1 3/2/1
f 4/4/2 8/18/2 7/5/2
f 8/7/3 6/19/3 5/8/3
f 6/10/4 2/20/4 1/11/4
f 7/13/5 5/12/5 1/11/5
f 4/15/6 2/20/6 6/10/6
