# Split from HBM 1.12.2 solidifier.obj
mtllib solidifier_white.mtl
v 0.625000 2.750000 -1.137259
v 0.487740 2.750000 -1.000000
v 0.437500 2.750000 -0.812500
v 0.487740 2.750000 -0.625000
v 0.625000 2.750000 -0.487741
v 0.812500 2.750000 -0.437500
v 1.000000 2.750000 -0.487741
v 1.137259 2.750000 -0.625000
v 1.187500 2.750000 -0.812500
v 1.137259 2.750000 -1.000000
v 1.000000 2.750000 -1.137259
v 0.812500 2.750000 -1.187500
v 1.000000 1.250000 -1.137259
v 1.137260 1.250000 -1.000000
v 1.187500 1.250000 -0.812500
v 1.137259 1.250000 -0.625000
v 1.000000 1.250000 -0.487741
v 0.812500 1.250000 -0.437500
v 0.625000 1.250000 -0.487741
v 0.487740 1.250000 -0.625000
v 0.437500 1.250000 -0.812500
v 0.487740 1.250000 -1.000000
v 0.625000 1.250000 -1.137259
v 0.812500 1.250000 -1.187500
vn 0.0000 0.0000 -1.0000
vn 0.3786 0.6532 -0.6557
vn 0.5000 0.0000 -0.8660
vn -0.5000 0.0000 0.8660
vn -0.6557 0.6532 0.3786
vn -0.8660 0.0000 0.5000
vn -0.8660 0.0000 -0.5000
vn -0.3786 0.6532 -0.6557
vn -0.5000 0.0000 -0.8660
vn 1.0000 0.0000 0.0000
vn 0.6557 0.6532 0.3786
vn 0.8660 0.0000 0.5000
vn 0.0000 0.0000 1.0000
vn -0.3786 0.6532 0.6557
vn -1.0000 0.0000 0.0000
vn -0.6557 0.6532 -0.3786
vn 0.8660 0.0000 -0.5000
vn 0.7571 0.6532 0.0000
vn 0.5000 0.0000 0.8660
vn 0.0000 0.6532 0.7571
vn -0.7571 0.6532 0.0000
vn 0.6557 0.6532 -0.3786
vn 0.0000 0.6532 -0.7571
vn 0.3786 0.6532 0.6557
v 0.812500 1.250000 -1.312500
v 0.562500 1.250000 -1.245513
v 0.379487 1.250000 -1.062500
v 0.312500 1.250000 -0.812500
v 0.379487 1.250000 -0.562500
v 0.562500 1.250000 -0.379487
v 0.812500 1.250000 -0.312500
v 1.062500 1.250000 -0.379487
v 1.245513 1.250000 -0.562500
v 1.312500 1.250000 -0.812500
v 1.245513 1.250000 -1.062500
v 1.062500 1.250000 -1.245512
v 0.562500 2.750000 -1.245513
v 0.812500 2.750000 -1.312500
v 0.379487 2.750000 -1.062500
v 0.312500 2.750000 -0.812500
v 0.379487 2.750000 -0.562500
v 0.562500 2.750000 -0.379487
v 0.812500 2.750000 -0.312500
v 1.062500 2.750000 -0.379487
v 1.245513 2.750000 -0.562500
v 1.312500 2.750000 -0.812500
v 1.245513 2.750000 -1.062500
v 1.062500 2.750000 -1.245512
vn 0.0000 0.0000 -1.0000
vn 0.5000 0.0000 -0.8660
vn -0.8660 0.0000 -0.5000
vn -0.5000 0.0000 -0.8660
vn 1.0000 0.0000 0.0000
vn 0.8660 0.0000 0.5000
vn 0.0000 0.0000 1.0000
vn -0.5000 0.0000 0.8660
vn -1.0000 0.0000 0.0000
vn 0.8660 0.0000 -0.5000
vn 0.5000 0.0000 0.8660
vn -0.8660 0.0000 0.5000
v -0.250000 1.250000 1.500000
v 0.250000 1.250000 1.500000
v -0.250000 1.750000 1.500000
v 0.250000 1.750000 1.500000
v -0.250000 0.000000 0.250000
v 0.250000 0.000000 0.250000
v -0.250000 0.000000 -0.250000
v 0.250000 0.000000 -0.250000
v 1.500000 1.250000 0.250000
v 1.500000 1.250000 -0.250000
v 1.500000 1.750000 0.250000
v 1.500000 1.750000 -0.250000
v 0.250000 1.250000 -1.500000
v -0.250000 1.250000 -1.500000
v 0.250000 1.750000 -1.500000
v -0.250000 1.750000 -1.500000
v -1.500000 1.250000 -0.250000
v -1.500000 1.250000 0.250000
v -1.500000 1.750000 -0.250000
v -1.500000 1.750000 0.250000
v -0.250000 4.000000 0.250000
v 0.250000 4.000000 0.250000
v -0.250000 4.000000 -0.250000
v 0.250000 4.000000 -0.250000
v 0.500000 0.000000 -0.500000
v 0.500000 1.000000 -0.500000
v 0.500000 0.000000 -1.500000
v 0.500000 1.000000 -1.500000
v 1.500000 0.000000 -0.500000
v 1.500000 1.000000 -0.500000
v 1.500000 0.000000 -1.500000
v 1.500000 1.000000 -1.500000
v -1.500000 0.000000 -0.500000
v -1.500000 1.000000 -0.500000
v -1.500000 0.000000 -1.500000
v -1.500000 1.000000 -1.500000
v -0.500000 0.000000 -0.500000
v -0.500000 1.000000 -0.500000
v -0.500000 0.000000 -1.500000
v -0.500000 1.000000 -1.500000
v 0.500000 0.000000 1.500000
v 0.500000 1.000000 1.500000
v 0.500000 0.000000 0.500000
v 0.500000 1.000000 0.500000
v 1.500000 0.000000 1.500000
v 1.500000 1.000000 1.500000
v 1.500000 0.000000 0.500000
v 1.500000 1.000000 0.500000
v -1.500000 0.000000 1.500000
v -1.500000 1.000000 1.500000
v -1.500000 0.000000 0.500000
v -1.500000 1.000000 0.500000
v -0.500000 0.000000 1.500000
v -0.500000 1.000000 1.500000
v -0.500000 0.000000 0.500000
v -0.500000 1.000000 0.500000
v 0.500000 0.500000 -1.500000
v -0.500000 0.500000 -1.500000
v 0.500000 0.500000 1.500000
v -0.500000 0.500000 1.500000
v 0.500000 0.500000 -0.500000
v -0.500000 0.500000 -0.500000
v 0.500000 0.500000 0.500000
v -0.500000 0.500000 0.500000
v 1.500000 0.500000 -0.500000
v -1.500000 0.500000 -0.500000
v 1.500000 0.500000 0.500000
v -1.500000 0.500000 0.500000
v 0.500000 0.750000 0.250000
v -0.500000 0.750000 0.250000
v 1.500000 0.750000 0.250000
v -1.500000 0.750000 0.250000
v 0.500000 0.750000 -0.250000
v -0.500000 0.750000 -0.250000
v 1.500000 0.750000 -0.250000
v -1.500000 0.750000 -0.250000
v -0.250000 0.750000 -1.500000
v -0.250000 0.750000 1.500000
v -0.250000 0.750000 -0.500000
v -0.250000 0.750000 0.500000
v 0.250000 0.750000 -1.500000
v 0.250000 0.750000 1.500000
v 0.250000 0.750000 -0.500000
v 0.250000 0.750000 0.500000
v -0.250000 1.000000 -0.250000
v -0.250000 1.000000 0.250000
v 0.250000 1.000000 0.250000
v 0.250000 1.000000 -0.250000
v 0.132683 1.000000 -0.673880
v 0.457107 1.000000 -0.457107
v 0.673879 1.000000 -0.132684
v 0.750000 1.000000 0.250000
v 0.673880 1.000000 0.632684
v 0.457107 1.000000 0.957107
v 0.132683 1.000000 1.173880
v -0.250000 1.000000 1.250000
v -0.632684 1.000000 1.173880
v -0.957107 1.000000 0.957107
v -1.173880 1.000000 0.632684
v -1.250000 1.000000 0.250000
v -1.173880 1.000000 -0.132683
v -0.957107 1.000000 -0.457107
v -0.632683 1.000000 -0.673880
v -0.250000 1.000000 -0.750000
v -0.250000 3.750000 -0.750000
v 0.132683 3.750000 -0.673880
v 0.457107 3.750000 -0.457107
v 0.673879 3.750000 -0.132684
v 0.750000 3.750000 0.250000
v 0.673880 3.750000 0.632684
v 0.457107 3.750000 0.957107
v 0.132683 3.750000 1.173880
v -0.250000 3.750000 1.250000
v -0.632684 3.750000 1.173880
v -0.957107 3.750000 0.957107
v -1.173880 3.750000 0.632684
v -1.250000 3.750000 0.250000
v -1.173880 3.750000 -0.132683
v -0.957107 3.750000 -0.457107
v -0.632683 3.750000 -0.673880
v -0.250000 3.750000 0.250000
v 0.250000 3.750000 0.250000
v -0.250000 3.750000 -0.250000
v 0.250000 3.750000 -0.250000
v -0.250000 1.750000 1.375000
v -0.250000 1.250000 1.375000
v 0.250000 1.250000 1.375000
v 0.250000 1.750000 1.375000
v -1.375000 1.750000 -0.250000
v -1.375000 1.250000 -0.250000
v -1.375000 1.250000 0.250000
v -1.375000 1.750000 0.250000
v -0.125000 1.625000 1.250000
v -0.125000 1.375000 1.250000
v 0.125000 1.375000 1.250000
v 0.125000 1.625000 1.250000
v -1.250000 1.625000 -0.125000
v -1.250000 1.375000 -0.125000
v -1.250000 1.375000 0.125000
v -1.250000 1.625000 0.125000
v -1.125000 1.625000 -0.125000
v -1.125000 1.375000 -0.125000
v -1.125000 1.375000 0.125000
v -1.125000 1.625000 0.125000
v -0.125000 1.625000 1.125000
v -0.125000 1.375000 1.125000
v 0.125000 1.375000 1.125000
v 0.125000 1.625000 1.125000
v -1.125000 0.750000 0.062500
v -1.125000 0.750000 -0.062500
v -1.250000 0.437500 -0.062500
v -1.250000 0.437500 0.062500
v -1.125000 0.562500 -0.062500
v -1.125000 0.562500 0.062500
v -1.250000 3.875000 0.062500
v -1.250000 3.875000 -0.062500
v -1.125000 3.750000 0.062500
v -1.125000 3.750000 -0.062500
v -0.250000 3.875000 0.062500
v -0.250000 3.875000 -0.062500
v -0.250000 3.750000 0.062500
v -0.250000 3.750000 -0.062500
v 0.250000 1.750000 -1.375000
v 0.250000 1.250000 -1.375000
v -0.250000 1.250000 -1.375000
v -0.250000 1.750000 -1.375000
v 0.125000 1.625000 -1.250000
v 0.125000 1.375000 -1.250000
v -0.125000 1.375000 -1.250000
v -0.125000 1.625000 -1.250000
v 1.375000 1.750000 0.250000
v 1.375000 1.250000 0.250000
v 1.375000 1.250000 -0.250000
v 1.375000 1.750000 -0.250000
v 1.250000 1.625000 0.125000
v 1.250000 1.375000 0.125000
v 1.250000 1.375000 -0.125000
v 1.250000 1.625000 -0.125000
v -0.250000 0.562500 -0.062500
v -0.250000 0.562500 0.062500
v -0.250000 0.437500 -0.062500
v -0.250000 0.437500 0.062500
v 0.062500 0.750000 1.125000
v -0.062500 0.750000 1.125000
v -0.062500 0.437500 1.250000
v 0.062500 0.437500 1.250000
v -0.062500 0.562500 1.125000
v 0.062500 0.562500 1.125000
v 0.062500 3.875000 1.250000
v -0.062500 3.875000 1.250000
v 0.062500 3.750000 1.125000
v -0.062500 3.750000 1.125000
v 0.062500 3.875000 0.250000
v -0.062500 3.875000 0.250000
v 0.062500 3.750000 0.250000
v -0.062500 3.750000 0.250000
v -0.062500 0.562500 0.250000
v 0.062500 0.562500 0.250000
v -0.062500 0.437500 0.250000
v 0.062500 0.437500 0.250000
v 0.375000 1.000000 1.125000
v 0.375000 1.000000 0.375000
v 1.125000 1.000000 1.125000
v 1.125000 1.000000 0.375000
v 0.375000 3.250000 1.125000
v 0.375000 3.250000 0.375000
v 1.125000 3.250000 0.375000
v 1.125000 3.250000 1.125000
v -1.125000 1.000000 -0.375000
v -1.125000 1.000000 -1.125000
v -0.375000 1.000000 -0.375000
v -0.375000 1.000000 -1.125000
v -1.125000 3.250000 -0.375000
v -1.125000 3.250000 -1.125000
v -0.375000 3.250000 -1.125000
v -0.375000 3.250000 -0.375000
v 1.250000 0.437500 0.062500
v 1.250000 0.437500 -0.062500
v 1.125000 0.562500 0.062500
v 1.125000 0.562500 -0.062500
v 0.250000 0.562500 0.062500
v 0.250000 0.562500 -0.062500
v 0.250000 0.437500 0.062500
v 0.250000 0.437500 -0.062500
v 1.250000 1.375000 0.062500
v 1.250000 1.375000 -0.062500
v 1.125000 1.375000 0.062500
v 1.125000 1.375000 -0.062500
v 0.625000 1.625000 0.125000
v 0.625000 1.375000 0.125000
v 0.625000 1.375000 -0.125000
v 0.625000 1.625000 -0.125000
v 0.125000 1.625000 -0.625000
v 0.125000 1.375000 -0.625000
v -0.125000 1.375000 -0.625000
v -0.125000 1.625000 -0.625000
v 0.062500 0.437500 -1.250000
v -0.062500 0.437500 -1.250000
v 0.062500 0.562500 -1.125000
v -0.062500 0.562500 -1.125000
v 0.062500 0.562500 -0.250000
v -0.062500 0.562500 -0.250000
v 0.062500 0.437500 -0.250000
v -0.062500 0.437500 -0.250000
v 0.062500 1.375000 -1.250000
v -0.062500 1.375000 -1.250000
v 0.062500 1.375000 -1.125000
v -0.062500 1.375000 -1.125000
v 1.250000 1.000000 1.250000
v 1.375000 1.000000 1.250000
v 1.250000 1.000000 1.375000
v 1.375000 1.000000 1.375000
v 1.250000 3.375000 1.250000
v 1.375000 3.375000 1.250000
v 1.250000 3.375000 1.375000
v 1.375000 3.500000 1.375000
v 1.250000 3.500000 1.250000
v 1.250000 1.000000 -1.250000
v 1.250000 1.000000 -1.375000
v 1.375000 1.000000 -1.250000
v 1.375000 1.000000 -1.375000
v 1.250000 3.375000 -1.250000
v 1.250000 3.375000 -1.375000
v 1.375000 3.375000 -1.250000
v 1.375000 3.500000 -1.375000
v 1.250000 3.500000 -1.250000
v -1.250000 1.000000 -1.250000
v -1.375000 1.000000 -1.250000
v -1.250000 1.000000 -1.375000
v -1.375000 1.000000 -1.375000
v -1.250000 3.375000 -1.250000
v -1.375000 3.375000 -1.250000
v -1.250000 3.375000 -1.375000
v -1.375000 3.500000 -1.375000
v -1.250000 3.500000 -1.250000
v -1.250000 1.000000 1.250000
v -1.250000 1.000000 1.375000
v -1.375000 1.000000 1.250000
v -1.375000 1.000000 1.375000
v -1.250000 3.375000 1.250000
v -1.250000 3.375000 1.375000
v -1.375000 3.375000 1.250000
v -1.375000 3.500000 1.375000
v -1.250000 3.500000 1.250000
v 0.812500 1.250000 -1.312500
v 0.562500 1.250000 -1.245513
v 0.379487 1.250000 -1.062500
v 0.312500 1.250000 -0.812500
v 0.379487 1.250000 -0.562500
v 0.562500 1.250000 -0.379487
v 0.812500 1.250000 -0.312500
v 1.062500 1.250000 -0.379487
v 1.245513 1.250000 -0.562500
v 1.312500 1.250000 -0.812500
v 1.245513 1.250000 -1.062500
v 1.062500 1.250000 -1.245512
v 0.812500 2.750000 -1.312500
v 0.562500 2.750000 -1.245513
v 0.379487 2.750000 -1.062500
v 0.312500 2.750000 -0.812500
v 0.379487 2.750000 -0.562500
v 0.562500 2.750000 -0.379487
v 0.812500 2.750000 -0.312500
v 1.062500 2.750000 -0.379487
v 1.245513 2.750000 -0.562500
v 1.312500 2.750000 -0.812500
v 1.245513 2.750000 -1.062500
v 1.062500 2.750000 -1.245512
v 0.562500 3.000000 -1.245513
v 0.812500 3.000000 -1.312500
v 0.379487 3.000000 -1.062500
v 0.312500 3.000000 -0.812500
v 0.379487 3.000000 -0.562500
v 0.562500 3.000000 -0.379487
v 0.812500 3.000000 -0.312500
v 1.062500 3.000000 -0.379487
v 1.245513 3.000000 -0.562500
v 1.312500 3.000000 -0.812500
v 1.245513 3.000000 -1.062500
v 1.062500 3.000000 -1.245512
v 0.105393 3.750000 -0.193781
v 0.105393 3.875000 -0.193781
v 0.193781 3.750000 -0.105393
v 0.193781 3.875000 -0.105393
v 0.724112 3.875000 -0.812500
v 0.812500 3.875000 -0.724112
v 0.812500 3.750000 -0.724112
v 0.900888 3.750000 -0.812500
v 0.724112 3.750000 -0.812500
v 0.812500 3.750000 -0.900888
v 0.812500 3.000000 -0.900888
v 0.724112 3.000000 -0.812500
v 0.900888 3.000000 -0.812500
v 0.812500 3.000000 -0.724112
v 0.132683 1.000000 -0.673880
v 0.457107 1.000000 -0.457107
v 0.673879 1.000000 -0.132684
v 0.750000 1.000000 0.250000
v 0.673880 1.000000 0.632684
v 0.457107 1.000000 0.957107
v 0.132683 1.000000 1.173880
v -0.250000 1.000000 1.250000
v -0.632684 1.000000 1.173880
v -0.957107 1.000000 0.957107
v -1.173880 1.000000 0.632684
v -1.250000 1.000000 0.250000
v -1.173880 1.000000 -0.132683
v -0.957107 1.000000 -0.457107
v -0.632683 1.000000 -0.673880
v -0.250000 1.000000 -0.750000
v -0.250000 3.750000 -0.750000
v 0.132683 3.750000 -0.673880
v 0.457107 3.750000 -0.457107
v 0.673879 3.750000 -0.132684
v 0.750000 3.750000 0.250000
v 0.673880 3.750000 0.632684
v 0.457107 3.750000 0.957107
v 0.132683 3.750000 1.173880
v -0.250000 3.750000 1.250000
v -0.632684 3.750000 1.173880
v -0.957107 3.750000 0.957107
v -1.173880 3.750000 0.632684
v -1.250000 3.750000 0.250000
v -1.173880 3.750000 -0.132683
v -0.957107 3.750000 -0.457107
v -0.632683 3.750000 -0.673880
v 0.812500 1.000000 -1.312500
v 0.562500 1.000000 -1.245513
v 0.379487 1.000000 -1.062500
v 0.312500 1.000000 -0.812500
v 0.379487 1.000000 -0.562500
v 0.562500 1.000000 -0.379487
v 0.812500 1.000000 -0.312500
v 1.062500 1.000000 -0.379487
v 1.245513 1.000000 -0.562500
v 1.312500 1.000000 -0.812500
v 1.245513 1.000000 -1.062500
v 1.062500 1.000000 -1.245512
v 0.812500 1.250000 -1.312500
v 0.562500 1.250000 -1.245513
v 0.379487 1.250000 -1.062500
v 0.312500 1.250000 -0.812500
v 0.379487 1.250000 -0.562500
v 0.562500 1.250000 -0.379487
v 0.812500 1.250000 -0.312500
v 1.062500 1.250000 -0.379487
v 1.245513 1.250000 -0.562500
v 1.312500 1.250000 -0.812500
v 1.245513 1.250000 -1.062500
v 1.062500 1.250000 -1.245512
v 0.812500 2.750000 -1.312500
v 0.562500 2.750000 -1.245513
v 0.379487 2.750000 -1.062500
v 0.312500 2.750000 -0.812500
v 0.379487 2.750000 -0.562500
v 0.562500 2.750000 -0.379487
v 0.812500 2.750000 -0.312500
v 1.062500 2.750000 -0.379487
v 1.245513 2.750000 -0.562500
v 1.312500 2.750000 -0.812500
v 1.245513 2.750000 -1.062500
v 1.062500 2.750000 -1.245512
v 0.562500 3.000000 -1.245513
v 0.812500 3.000000 -1.312500
v 0.379487 3.000000 -1.062500
v 0.312500 3.000000 -0.812500
v 0.379487 3.000000 -0.562500
v 0.562500 3.000000 -0.379487
v 0.812500 3.000000 -0.312500
v 1.062500 3.000000 -0.379487
v 1.245513 3.000000 -0.562500
v 1.312500 3.000000 -0.812500
v 1.245513 3.000000 -1.062500
v 1.062500 3.000000 -1.245512
vt 0.041667 0.153846
vt 0.000000 0.230769
vt 0.000000 0.153846
vt 0.875000 0.346154
vt 0.833333 0.423077
vt 0.833333 0.346154
vt 0.041667 0.153846
vt 0.000000 0.230769
vt 0.000000 0.153846
vt 0.041667 0.153846
vt 0.000000 0.230769
vt 0.000000 0.153846
vt 0.041667 0.153846
vt 0.000000 0.230769
vt 0.000000 0.153846
vt 0.604167 0.461538
vt 0.645833 0.538462
vt 0.604167 0.538462
vt 0.083333 0.076923
vt -0.000000 0.153846
vt 0.000000 -0.000000
vt 0.250000 0.153846
vt 0.166667 0.153846
vt 0.166667 0.076923
vt 0.083333 0.153846
vt 0.000000 -0.000000
vt 0.083333 0.000000
vt 0.083333 -0.000000
vt -0.000000 0.153846
vt -0.000000 -0.000000
vt 0.083333 0.076923
vt 0.000000 0.153846
vt 0.000000 -0.000000
vt 0.250000 0.153846
vt 0.166667 0.153846
vt 0.166667 0.076923
vt 0.166667 -0.000000
vt 0.250000 0.076923
vt 0.166667 0.076923
vt 0.083333 0.153846
vt 0.000000 -0.000000
vt 0.083333 0.000000
vt -0.000000 -0.000000
vt 0.083333 0.153846
vt -0.000000 0.153846
vt 0.166667 0.153846
vt 0.083333 0.000000
vt 0.166667 0.000000
vt 0.166667 0.153846
vt 0.083333 0.153846
vt 0.083333 0.076923
vt 0.000000 0.153846
vt 0.000000 0.000000
vt 0.250000 0.153846
vt 0.166667 0.153846
vt 0.166667 0.076923
vt 0.083333 0.153846
vt 0.000000 0.000000
vt 0.083333 0.000000
vt 0.083333 0.153846
vt -0.000000 -0.000000
vt 0.250000 0.153846
vt 0.166667 0.153846
vt 0.166667 0.076923
vt 0.166667 0.153846
vt 0.083333 -0.000000
vt 0.166667 -0.000000
vt 0.166667 0.153846
vt 0.083333 -0.000000
vt 0.166667 -0.000000
vt 0.083333 0.076923
vt -0.000000 0.153846
vt 0.000000 0.000000
vt 0.083333 0.153846
vt 0.083333 0.000000
vt -0.000000 0.153846
vt 0.083333 0.153846
vt 0.083333 0.076923
vt 0.000000 -0.000000
vt 0.166667 -0.000000
vt 0.250000 0.076923
vt 0.166667 0.076923
vt 0.083333 0.076923
vt -0.000000 -0.000000
vt 0.083333 -0.000000
vt 0.000000 0.076923
vt 0.083333 -0.000000
vt 0.083333 0.076923
vt 0.166667 0.076923
vt 0.250000 -0.000000
vt 0.250000 0.076923
vt 0.083333 0.076923
vt 0.000000 0.000000
vt 0.083333 -0.000000
vt 0.166667 0.076923
vt 0.250000 -0.000000
vt 0.250000 0.076923
vt 0.083333 -0.000000
vt 0.104167 0.153846
vt 0.083333 0.153846
vt 0.166667 0.153846
vt 0.145833 -0.000000
vt 0.166667 -0.000000
vt 0.083333 -0.000000
vt 0.104167 0.153846
vt 0.083333 0.153846
vt 0.166667 0.153846
vt 0.145833 -0.000000
vt 0.166667 -0.000000
vt 0.104167 -0.000000
vt 0.145833 0.153846
vt 0.104167 0.115385
vt 0.083333 0.153846
vt 0.145833 0.115385
vt 0.104167 0.115385
vt 0.145833 0.115385
vt 0.145833 0.115385
vt 0.104167 0.115385
vt 0.104167 0.115385
vt 0.083333 0.153846
vt 0.145833 0.115385
vt 0.083333 0.000000
vt 0.104167 0.153846
vt 0.083333 0.153846
vt 0.166667 0.153846
vt 0.145833 0.000000
vt 0.166667 -0.000000
vt 0.166667 0.153846
vt 0.145833 0.000000
vt 0.166667 -0.000000
vt 0.083333 -0.000000
vt 0.104167 0.153846
vt 0.083333 0.153846
vt 0.104167 -0.000000
vt 0.145833 0.153846
vt 0.145833 0.153846
vt 0.104167 0.115385
vt 0.083333 0.153846
vt 0.145833 0.115385
vt 0.104167 0.115385
vt 0.145833 0.115385
vt 0.104167 0.115385
vt 0.145833 0.115385
vt 0.104167 0.115385
vt 0.083333 0.153846
vt 0.145833 0.115385
vt 0.875000 0.423077
vt 0.833333 0.576923
vt 0.958333 0.423077
vt 0.916667 0.576923
vt 0.916667 0.423077
vt 0.875000 0.576923
vt 1.000000 0.423077
vt 0.958333 0.576923
vt 0.576525 0.518404
vt 0.531698 0.718199
vt 0.423476 0.635442
vt 0.365031 0.718200
vt 0.256809 0.635442
vt 0.301636 0.435647
vt 0.645833 0.423077
vt 0.645833 0.461538
vt 0.604167 0.576923
vt 0.583333 0.461538
vt 0.666667 0.538462
vt 0.041667 0.250000
vt 0.010417 0.269231
vt 0.000000 0.250000
vt 0.041667 0.230769
vt 0.000000 0.250000
vt 0.000000 0.230769
vt 0.041667 0.230769
vt 0.000000 0.230769
vt 0.041667 0.230769
vt 0.000000 0.250000
vt 0.041667 0.230769
vt 0.000000 0.250000
vt 0.000000 0.230769
vt 0.041667 0.250000
vt 0.010417 0.269231
vt 0.000000 0.250000
vt 0.041667 0.230769
vt 0.000000 0.250000
vt 0.000000 0.230769
vt 0.041667 0.230769
vt 0.000000 0.250000
vt 0.000000 0.230769
vt 0.041667 0.230769
vt 0.000000 0.250000
vt 0.000000 0.230769
vt 0.041667 0.230769
vt 0.031250 0.269231
vt 0.010417 0.307692
vt 0.010417 0.269231
vt 0.041667 0.250000
vt 0.010417 0.269231
vt 0.041667 0.250000
vt 0.010417 0.269231
vt 0.041667 0.250000
vt 0.031250 0.269231
vt 0.010417 0.307692
vt 0.041667 0.250000
vt 0.010417 0.269231
vt 0.041667 0.250000
vt 0.010417 0.269231
vt 0.041667 0.250000
vt 0.010417 0.269231
vt 0.229167 0.836538
vt 0.218750 0.990385
vt 0.218750 0.836538
vt 0.031250 0.269231
vt 0.010417 0.307692
vt 0.031250 0.269231
vt 0.010417 0.307692
vt 0.031250 0.269231
vt 0.010417 0.307692
vt 0.031250 0.269231
vt 0.010417 0.307692
vt 0.031250 0.269231
vt 0.010417 0.307692
vt 0.031250 0.269231
vt 0.010417 0.307692
vt 0.218750 0.307692
vt 0.229167 0.153846
vt 0.229167 0.307692
vt 0.239583 0.355769
vt 0.239583 0.153846
vt 0.250000 0.288462
vt 0.239583 0.288462
vt 0.218750 0.153846
vt 0.208333 0.288462
vt 0.208333 0.153846
vt 0.208333 0.355769
vt 0.250000 0.326923
vt 0.239583 0.326923
vt 0.208333 0.855769
vt 0.208333 0.990385
vt 0.239583 0.855769
vt 0.229167 0.990385
vt 0.041667 0.250000
vt 0.010417 0.269231
vt 0.000000 0.250000
vt 0.041667 0.230769
vt 0.041667 0.230769
vt 0.000000 0.250000
vt 0.000000 0.230769
vt 0.041667 0.230769
vt 0.000000 0.250000
vt 0.000000 0.230769
vt 0.041667 0.230769
vt 0.000000 0.250000
vt 0.000000 0.230769
vt 0.031250 0.269231
vt 0.010417 0.365385
vt 0.010417 0.269231
vt 0.041667 0.250000
vt 0.010417 0.269231
vt 0.041667 0.250000
vt 0.041667 0.250000
vt 0.010417 0.269231
vt 0.041667 0.250000
vt 0.010417 0.269231
vt 0.000000 0.250000
vt 0.041667 0.230769
vt 0.000000 0.250000
vt 0.041667 0.230769
vt 0.000000 0.250000
vt 0.000000 0.230769
vt 0.041667 0.230769
vt 0.000000 0.250000
vt 0.000000 0.230769
vt 0.041667 0.230769
vt 0.000000 0.230769
vt 0.031250 0.269231
vt 0.010417 0.365385
vt 0.010417 0.269231
vt 0.041667 0.250000
vt 0.041667 0.250000
vt 0.010417 0.269231
vt 0.041667 0.250000
vt 0.010417 0.269231
vt 0.229167 0.836538
vt 0.218750 0.990385
vt 0.218750 0.836538
vt 0.218750 0.307692
vt 0.229167 0.153846
vt 0.229167 0.307692
vt 0.239583 0.355769
vt 0.239583 0.153846
vt 0.250000 0.288462
vt 0.239583 0.288462
vt 0.218750 0.153846
vt 0.208333 0.288462
vt 0.208333 0.153846
vt 0.208333 0.355769
vt 0.250000 0.326923
vt 0.239583 0.326923
vt 0.208333 0.855769
vt 0.208333 0.990385
vt 0.239583 0.855769
vt 0.229167 0.990385
vt 0.812500 0.346154
vt 0.750000 0.461538
vt 0.750000 0.346154
vt 1.000000 0.000000
vt 0.937500 0.346154
vt 0.937500 0.000000
vt 0.875000 0.000000
vt 0.812500 0.000000
vt 0.875000 0.346154
vt 0.750000 0.000000
vt 0.750000 0.461538
vt 0.812500 0.346154
vt 0.812500 0.461538
vt 0.875000 0.000000
vt 0.812500 0.000000
vt 1.000000 0.000000
vt 0.937500 0.346154
vt 0.937500 0.000000
vt 0.750000 0.346154
vt 0.750000 0.000000
vt 0.875000 0.346154
vt 0.093750 0.307692
vt 0.104167 0.153846
vt 0.104167 0.307692
vt 0.114583 0.153846
vt 0.125000 0.288462
vt 0.114583 0.288462
vt 0.093750 0.153846
vt 0.083333 0.288462
vt 0.083333 0.153846
vt 0.125000 0.326923
vt 0.114583 0.451923
vt 0.114583 0.326923
vt 0.093750 0.451923
vt 0.083333 0.326923
vt 0.104167 0.451923
vt 0.093750 0.307692
vt 0.104167 0.153846
vt 0.104167 0.307692
vt 0.031250 0.269231
vt 0.010417 0.365385
vt 0.031250 0.269231
vt 0.010417 0.365385
vt 0.031250 0.269231
vt 0.010417 0.365385
vt 0.031250 0.269231
vt 0.010417 0.365385
vt 0.031250 0.269231
vt 0.010417 0.365385
vt 0.031250 0.269231
vt 0.010417 0.365385
vt 0.114583 0.153846
vt 0.125000 0.288462
vt 0.114583 0.288462
vt 0.093750 0.153846
vt 0.083333 0.288462
vt 0.083333 0.153846
vt 0.125000 0.326923
vt 0.114583 0.451923
vt 0.114583 0.326923
vt 0.093750 0.451923
vt 0.083333 0.326923
vt 0.104167 0.451923
vt 0.177083 0.519231
vt 0.166667 0.153846
vt 0.177083 0.153846
vt 0.177083 0.519231
vt 0.166667 0.153846
vt 0.177083 0.153846
vt 0.187500 0.153846
vt 0.197917 0.519231
vt 0.197917 0.153846
vt 0.208333 0.519231
vt 0.208333 0.153846
vt 0.187500 0.153846
vt 0.197917 0.519231
vt 0.197917 0.153846
vt 0.208333 0.519231
vt 0.208333 0.153846
vt 0.177083 0.519231
vt 0.166667 0.153846
vt 0.177083 0.153846
vt 0.177083 0.519231
vt 0.166667 0.153846
vt 0.177083 0.153846
vt 0.187500 0.153846
vt 0.197917 0.519231
vt 0.197917 0.153846
vt 0.208333 0.519231
vt 0.208333 0.153846
vt 0.187500 0.153846
vt 0.197917 0.519231
vt 0.197917 0.153846
vt 0.208333 0.519231
vt 0.208333 0.153846
vt 0.166667 0.557692
vt 0.156250 0.173077
vt 0.166667 0.173077
vt 0.135417 0.557692
vt 0.125000 0.173077
vt 0.135417 0.173077
vt 0.145833 0.576923
vt 0.145833 0.153846
vt 0.166667 0.557692
vt 0.156250 0.173077
vt 0.166667 0.173077
vt 0.135417 0.557692
vt 0.125000 0.173077
vt 0.135417 0.173077
vt 0.145833 0.576923
vt 0.145833 0.153846
vt 0.166667 0.557692
vt 0.156250 0.173077
vt 0.166667 0.173077
vt 0.135417 0.557692
vt 0.125000 0.173077
vt 0.135417 0.173077
vt 0.145833 0.576923
vt 0.145833 0.153846
vt 0.156250 0.173077
vt 0.166667 0.557692
vt 0.156250 0.557692
vt 0.125000 0.557692
vt 0.135417 0.173077
vt 0.135417 0.557692
vt 0.145833 0.153846
vt 0.145833 0.576923
vt 0.385884 0.771165
vt 0.415619 0.826061
vt 0.364116 0.921143
vt 0.364116 0.921143
vt 0.334381 0.866247
vt 0.385884 0.771165
vt 0.302551 0.771165
vt 0.332286 0.826061
vt 0.280783 0.921143
vt 0.083333 0.288462
vt 0.072917 0.423077
vt 0.072917 0.288462
vt 0.052083 0.288462
vt 0.041667 0.423077
vt 0.041667 0.288462
vt 0.062500 0.288462
vt 0.052083 0.423077
vt 0.062500 0.423077
vt 0.041667 0.269231
vt 0.052083 0.269231
vt 0.041667 0.288462
vt 0.072917 0.269231
vt 0.072917 0.288462
vt 0.062500 0.269231
vt 0.072917 0.153846
vt 0.062500 0.153846
vt 0.052083 0.153846
vt 0.041667 0.153846
vt 0.083333 0.153846
vt 0.166667 0.000000
vt 0.250000 -0.000000
vt -0.000000 0.153846
vt 0.083333 -0.000000
vt 0.166667 0.000000
vt 0.250000 -0.000000
vt 0.250000 0.000000
vt 0.000000 0.153846
vt 0.166667 -0.000000
vt 0.083333 0.000000
vt 0.166667 0.000000
vt 0.250000 -0.000000
vt 0.000000 0.153846
vt -0.000000 0.153846
vt 0.166667 -0.000000
vt 0.250000 -0.000000
vt 0.083333 0.000000
vt -0.000000 0.153846
vt -0.000000 -0.000000
vt 0.000000 0.076923
vt 0.250000 -0.000000
vt 0.000000 0.076923
vt 0.166667 -0.000000
vt -0.000000 0.076923
vt 0.166667 -0.000000
vt 0.104167 -0.000000
vt 0.145833 0.153846
vt 0.104167 -0.000000
vt 1.000000 0.576923
vt 0.582830 0.576923
vt 0.576525 0.635441
vt 0.558570 0.685051
vt 0.500000 0.729839
vt 0.468303 0.718199
vt 0.441431 0.685051
vt 0.417171 0.576923
vt 0.423476 0.518404
vt 0.441431 0.468795
vt 0.468303 0.435647
vt 0.500000 0.424006
vt 0.531698 0.435647
vt 0.558570 0.468795
vt 0.409858 0.518405
vt 0.416163 0.576924
vt 0.409858 0.635442
vt 0.391903 0.685052
vt 0.333333 0.729840
vt 0.301636 0.718200
vt 0.274764 0.685052
vt 0.250504 0.576923
vt 0.256809 0.518405
vt 0.274764 0.468796
vt 0.333333 0.424007
vt 0.365031 0.435647
vt 0.391903 0.468795
vt 0.604167 0.423077
vt 0.645833 0.576923
vt 0.583333 0.538462
vt 0.666667 0.461538
vt 0.031250 0.307692
vt 0.031250 0.307692
vt 0.031250 0.307692
vt 0.031250 0.307692
vt 0.031250 0.307692
vt 0.031250 0.307692
vt 0.031250 0.307692
vt 0.031250 0.307692
vt 0.239583 0.817308
vt 0.250000 0.153846
vt 0.208333 0.817308
vt 0.208333 0.326923
vt 0.250000 0.355769
vt 0.239583 0.990385
vt 0.031250 0.365385
vt 0.031250 0.365385
vt 0.239583 0.817308
vt 0.250000 0.153846
vt 0.208333 0.817308
vt 0.208333 0.326923
vt 0.250000 0.355769
vt 0.239583 0.990385
vt 0.812500 0.461538
vt 1.000000 0.346154
vt 1.000000 0.346154
vt 0.125000 0.153846
vt 0.125000 0.451923
vt 0.083333 0.451923
vt 0.031250 0.365385
vt 0.031250 0.365385
vt 0.031250 0.365385
vt 0.031250 0.365385
vt 0.031250 0.365385
vt 0.031250 0.365385
vt 0.125000 0.153846
vt 0.125000 0.451923
vt 0.083333 0.451923
vt 0.166667 0.519231
vt 0.166667 0.519231
vt 0.187500 0.538462
vt 0.187500 0.538462
vt 0.166667 0.519231
vt 0.166667 0.519231
vt 0.187500 0.538462
vt 0.187500 0.538462
vt 0.156250 0.557692
vt 0.125000 0.557692
vt 0.156250 0.557692
vt 0.125000 0.557692
vt 0.156250 0.557692
vt 0.125000 0.557692
vt 0.166667 0.173077
vt 0.125000 0.173077
vt 0.345265 0.901050
vt 0.334381 0.866247
vt 0.334381 0.826061
vt 0.345265 0.791258
vt 0.364116 0.771165
vt 0.404735 0.791258
vt 0.415619 0.866247
vt 0.404735 0.901050
vt 0.385884 0.921143
vt 0.334381 0.826061
vt 0.345265 0.791258
vt 0.364116 0.771165
vt 0.404735 0.791258
vt 0.415619 0.826061
vt 0.415619 0.866247
vt 0.404735 0.901050
vt 0.385884 0.921143
vt 0.345265 0.901050
vt 0.261931 0.901050
vt 0.251048 0.866247
vt 0.251048 0.826061
vt 0.261931 0.791258
vt 0.280783 0.771165
vt 0.321402 0.791258
vt 0.332286 0.866247
vt 0.321402 0.901050
vt 0.302550 0.921143
vt 0.083333 0.423077
vt 0.083333 0.269231
vt 0.343750 0.000000
vt 0.312500 0.423077
vt 0.312500 0.000000
vt 0.562500 0.000000
vt 0.531250 0.423077
vt 0.531250 0.000000
vt 0.281250 0.423077
vt 0.281250 0.000000
vt 0.500000 0.423077
vt 0.500000 0.000000
vt 0.250000 0.423077
vt 0.250000 0.000000
vt 0.468750 0.423077
vt 0.468750 0.000000
vt 0.750000 0.000000
vt 0.718750 0.423077
vt 0.718750 0.000000
vt 0.437500 0.423077
vt 0.437500 0.000000
vt 0.687500 0.423077
vt 0.687500 0.000000
vt 0.406250 0.423077
vt 0.406250 0.000000
vt 0.656250 0.423077
vt 0.656250 0.000000
vt 0.375000 0.423077
vt 0.375000 0.000000
vt 0.625000 0.000000
vt 0.593750 0.423077
vt 0.593750 0.000000
vt 0.625000 0.423077
vt 0.343750 0.423077
vt 0.562500 0.423077
vt 0.312500 0.730769
vt 0.291667 0.769231
vt 0.291667 0.730769
vt 0.500000 0.730769
vt 0.479167 0.769231
vt 0.479167 0.730769
vt 0.395833 0.730769
vt 0.375000 0.769231
vt 0.375000 0.730769
vt 0.333333 0.730769
vt 0.312500 0.769231
vt 0.270833 0.730769
vt 0.250000 0.769231
vt 0.250000 0.730769
vt 0.416667 0.730769
vt 0.395833 0.769231
vt 0.458333 0.730769
vt 0.437500 0.769231
vt 0.437500 0.730769
vt 0.354167 0.730769
vt 0.333333 0.769231
vt 0.270833 0.769231
vt 0.416667 0.769231
vt 0.458333 0.769231
vt 0.354167 0.769231
vt 0.270833 0.730769
vt 0.250000 0.769231
vt 0.250000 0.730769
vt 0.416667 0.730769
vt 0.395833 0.769231
vt 0.395833 0.730769
vt 0.458333 0.730769
vt 0.437500 0.769231
vt 0.437500 0.730769
vt 0.354167 0.730769
vt 0.333333 0.769231
vt 0.333333 0.730769
vt 0.291667 0.730769
vt 0.270833 0.769231
vt 0.416667 0.769231
vt 0.479167 0.730769
vt 0.458333 0.769231
vt 0.375000 0.730769
vt 0.354167 0.769231
vt 0.312500 0.730769
vt 0.291667 0.769231
vt 0.500000 0.730769
vt 0.479167 0.769231
vt 0.375000 0.769231
vt 0.312500 0.769231
vt 0.750000 0.423077
vt 0.500000 0.769231
vt 0.500000 0.769231
vn 0.0000 0.0000 1.0000
vn 0.0000 -1.0000 0.0000
vn 1.0000 0.0000 0.0000
vn 0.0000 0.0000 -1.0000
vn -1.0000 0.0000 0.0000
vn 0.0000 1.0000 0.0000
vn 0.0000 -0.7071 -0.7071
vn 0.0000 -0.7071 0.7071
vn 0.7071 -0.7071 0.0000
vn -0.7071 -0.7071 0.0000
vn -0.7071 0.0000 -0.7071
vn 0.7071 0.7071 0.0000
vn 0.0000 0.7071 -0.7071
vn 0.7071 0.0000 -0.7071
vn 0.7071 0.0000 0.7071
vn 0.0000 0.7071 0.7071
vn -0.7071 0.0000 0.7071
vn -0.7071 0.7071 0.0000
vn 0.5000 0.7071 -0.5000
vn -0.3827 0.0000 0.9239
vn 0.9239 0.0000 -0.3827
vn -0.9239 0.0000 0.3827
vn 0.9239 0.0000 0.3827
vn -0.9239 0.0000 -0.3827
vn 0.3827 0.0000 0.9239
vn -0.3827 0.0000 -0.9239
vn 0.3827 0.0000 -0.9239
vn -0.5000 0.0000 0.8660
vn -0.8660 0.0000 -0.5000
vn 0.8660 0.0000 -0.5000
vn 0.5000 0.0000 0.8660
vn -0.8660 0.0000 0.5000
vn 0.5000 0.0000 -0.8660
vn -0.5000 0.0000 -0.8660
vn 0.8660 0.0000 0.5000
o Glass
usemtl hbm
s 1
f 25/1/25 48/1/26 36/1/26
f 27/1/27 37/1/28 26/1/28
f 34/1/29 45/1/30 33/1/30
f 31/1/31 42/1/32 30/1/32
f 28/1/33 39/1/27 27/1/27
f 35/1/34 46/1/29 34/1/29
f 32/1/35 43/1/31 31/1/31
f 29/1/36 40/1/33 28/1/33
f 36/1/26 47/1/34 35/1/34
f 26/1/28 38/1/25 25/1/25
f 33/1/30 44/1/35 32/1/35
f 30/1/32 41/1/36 29/1/36
f 25/1/25 38/1/25 48/1/26
f 27/1/27 39/1/27 37/1/28
f 34/1/29 46/1/29 45/1/30
f 31/1/31 43/1/31 42/1/32
f 28/1/33 40/1/33 39/1/27
f 35/1/34 47/1/34 46/1/29
f 32/1/35 44/1/35 43/1/31
f 29/1/36 41/1/36 40/1/33
f 36/1/26 48/1/26 47/1/34
f 26/1/28 37/1/28 38/1/25
f 33/1/30 45/1/30 44/1/35
f 30/1/32 42/1/32 41/1/36
