# HBM 1.7.10 strand_caster.obj split for ReinhardtsHBM
mtllib strand_caster.mtl
usemtl strand_caster
o plate
v -0.500000 0.937500 -1.500000
v 0.500000 0.937500 -1.500000
v -0.500000 0.937500 -5.250000
v 0.500000 0.937500 -5.250000
v -0.500000 1.062500 -5.250000
v -0.500000 1.062500 -1.500000
v 0.500000 1.062500 -1.500000
v 0.500000 1.062500 -5.250000
vt 0.890625 0.566667
vt 0.656250 0.700000
vt 0.656250 0.566667
vt 0.656250 0.566667
vt 0.890625 0.700000
vt 0.656250 0.700000
vt 0.664062 0.700000
vt 0.656250 0.566667
vt 0.664062 0.566667
vt 0.890625 0.683333
vt 0.656250 0.700000
vt 0.656250 0.683333
vt 0.656250 0.583333
vt 0.890625 0.566667
vt 0.890625 0.583333
vt 0.890625 0.700000
vt 0.890625 0.566667
vt 0.656250 0.700000
vt 0.890625 0.700000
vt 0.656250 0.566667
vn 0.0000 -1.0000 0.0000
vn 0.0000 1.0000 0.0000
vn 0.0000 0.0000 -1.0000
vn 1.0000 0.0000 0.0000
vn -1.0000 0.0000 0.0000
s off
f 3/1/1 2/2/1 1/3/1
f 7/4/2 5/5/2 6/6/2
f 3/7/3 8/8/3 4/9/3
f 4/10/4 7/11/4 2/12/4
f 1/13/5 5/14/5 3/15/5
f 3/1/1 4/16/1 2/2/1
f 7/4/2 8/17/2 5/5/2
f 3/7/3 5/18/3 8/8/3
f 4/10/4 8/19/4 7/11/4
f 1/13/5 6/20/5 5/14/5
