# Split from HBM 1.7.10 mining_drill.obj
v -1.000000 2.000000 1.874000
v -1.000000 2.220971 1.965529
v -1.000000 2.312500 2.186500
v -1.000000 2.220971 2.407471
v -1.000000 2.000000 2.499000
v -1.000000 1.779029 2.407471
v -1.000000 1.687500 2.186500
v -1.000000 1.779029 1.965529
v 1.000000 2.000000 1.874000
v 1.000000 2.220971 1.965529
v 1.000000 2.312500 2.186500
v 1.000000 2.220971 2.407471
v 1.000000 2.000000 2.499000
v 1.000000 1.779029 2.407471
v 1.000000 1.687500 2.186500
v 1.000000 1.779029 1.965529
vt 0.824675 0.348493
vt 0.835363 0.370536
vt 0.824675 0.392579
vt 0.904897 0.370536
vt 0.915585 0.348492
vt 0.926272 0.370536
vt 0.835498 0.321429
vt 0.904762 0.303571
vt 0.835498 0.303571
vt 0.835498 0.267857
vt 0.904762 0.250000
vt 0.835498 0.250000
vt 0.835498 0.375000
vt 0.904762 0.357143
vt 0.835498 0.357143
vt 0.835498 0.339286
vt 0.904762 0.321429
vt 0.904762 0.285714
vt 0.835498 0.285714
vt 0.904762 0.267857
vt 0.835498 0.392857
vt 0.904762 0.375000
vt 0.904762 0.339286
vt 0.817118 0.386123
vt 0.813988 0.370536
vt 0.817118 0.354949
vt 0.832233 0.354949
vt 0.832233 0.386123
vt 0.923142 0.386123
vt 0.915585 0.392579
vt 0.908027 0.386123
vt 0.908027 0.354949
vt 0.923142 0.354949
vt 0.904762 0.392857
vn -1.0000 0.0000 0.0000
vn 1.0000 0.0000 0.0000
vn 0.0000 0.9239 -0.3827
vn 0.0000 -0.9239 -0.3827
vn 0.0000 -0.3827 0.9239
vn 0.0000 0.9239 0.3827
vn 0.0000 0.3827 -0.9239
vn 0.0000 -0.3827 -0.9239
vn 0.0000 -0.9239 0.3827
vn 0.0000 0.3827 0.9239
v 0.000000 3.750000 -0.500000
v -0.191342 3.750000 -0.461940
v -0.353553 3.750000 -0.353553
v -0.461940 3.750000 -0.191342
v -0.500000 3.750000 0.000000
v -0.461940 3.750000 0.191342
v -0.353553 3.750000 0.353553
v -0.191342 3.750000 0.461940
v 0.000000 3.750000 0.500000
v 0.191341 3.750000 0.461940
v 0.353553 3.750000 0.353554
v 0.461940 3.750000 0.191342
v 0.500000 3.750000 -0.000000
v 0.461940 3.750000 -0.191342
v 0.353553 3.750000 -0.353554
v 0.191341 3.750000 -0.461940
v 0.000000 1.750000 -0.500000
v -0.191342 1.750000 -0.461940
v -0.353553 1.750000 -0.353553
v -0.461940 1.750000 -0.191342
v -0.500000 1.750000 0.000000
v -0.461940 1.750000 0.191342
v -0.353553 1.750000 0.353553
v -0.191342 1.750000 0.461940
v 0.000000 1.750000 0.500000
v 0.191341 1.750000 0.461940
v 0.353553 1.750000 0.353554
v 0.461940 1.750000 0.191342
v 0.500000 1.750000 -0.000000
v 0.461940 1.750000 -0.191342
v 0.353553 1.750000 -0.353554
v 0.191341 1.750000 -0.461940
vt 0.813853 0.392857
vt 0.820346 0.535714
vt 0.813853 0.535714
vt 0.872294 0.392857
vt 0.878788 0.535714
vt 0.872294 0.535714
vt 0.820346 0.392857
vt 0.826840 0.535714
vt 0.878788 0.392857
vt 0.885281 0.535714
vt 0.826840 0.392857
vt 0.833333 0.535714
vt 0.885281 0.392857
vt 0.891775 0.535714
vt 0.833333 0.392857
vt 0.839827 0.535714
vt 0.891775 0.392857
vt 0.898268 0.535714
vt 0.839827 0.392857
vt 0.846320 0.535714
vt 0.898268 0.392857
vt 0.904762 0.535714
vt 0.852814 0.392857
vt 0.859307 0.535714
vt 0.852814 0.535714
vt 0.846320 0.392857
vt 0.800866 0.392857
vt 0.807359 0.535714
vt 0.800866 0.535714
vt 0.859307 0.392857
vt 0.865801 0.535714
vt 0.807359 0.392857
vt 0.865801 0.392857
vt 0.904762 0.392857
vn 0.7071 0.0000 0.7071
vn 0.9239 0.0000 0.3827
vn -0.9239 0.0000 -0.3827
vn -1.0000 0.0000 0.0000
vn 1.0000 0.0000 0.0000
vn -0.9239 0.0000 0.3827
vn 0.9239 0.0000 -0.3827
vn -0.7071 0.0000 0.7071
vn 0.7071 0.0000 -0.7071
vn -0.3827 0.0000 0.9239
vn 0.3827 0.0000 -0.9239
vn 0.0000 0.0000 1.0000
vn 0.0000 0.0000 -1.0000
vn -0.3827 0.0000 -0.9239
vn 0.3827 0.0000 0.9239
vn -0.7071 0.0000 -0.7071
v 0.000000 1.750000 -0.500000
v -0.191342 1.750000 -0.461940
v -0.353553 1.750000 -0.353553
v -0.461940 1.750000 -0.191342
v -0.500000 1.750000 0.000000
v -0.461940 1.750000 0.191342
v -0.353553 1.750000 0.353553
v -0.191342 1.750000 0.461940
v 0.000000 1.750000 0.500000
v 0.191341 1.750000 0.461940
v 0.353553 1.750000 0.353554
v 0.461940 1.750000 0.191342
v 0.500000 1.750000 -0.000000
v 0.461940 1.750000 -0.191342
v 0.353553 1.750000 -0.353554
v 0.191341 1.750000 -0.461940
v 0.000000 1.500000 -1.000000
v -0.382683 1.500000 -0.923880
v -0.707107 1.500000 -0.707107
v -0.923880 1.500000 -0.382683
v -1.000000 1.500000 0.000000
v -0.923880 1.500000 0.382684
v -0.707107 1.500000 0.707107
v -0.382683 1.500000 0.923880
v 0.000000 1.500000 1.000000
v 0.382683 1.500000 0.923880
v 0.707107 1.500000 0.707107
v 0.923880 1.500000 0.382684
v 1.000000 1.500000 -0.000000
v 0.923880 1.500000 -0.382684
v 0.707107 1.500000 -0.707107
v 0.382683 1.500000 -0.923880
v 0.353553 0.006314 -0.743764
v 0.000000 -0.120512 -0.816988
v -0.353553 0.006314 -0.743764
v -0.500000 0.312500 -0.566988
v -0.353553 0.618686 -0.390211
v 0.000000 0.745513 -0.316987
v 0.353553 0.618686 -0.390211
v 0.500000 0.312500 -0.566988
v 0.353553 0.193814 -1.068523
v 0.000000 0.066988 -1.141747
v -0.353553 0.193814 -1.068523
v -0.500000 0.500000 -0.891747
v -0.353553 0.806186 -0.714970
v 0.000000 0.933013 -0.641747
v 0.353553 0.806186 -0.714970
v 0.500000 0.500000 -0.891747
v 0.000000 0.000000 -0.875000
v -0.334848 0.500000 -0.808395
v -0.618718 0.750000 -0.618718
v -0.808394 0.500000 -0.334848
v -0.875000 0.000000 0.000000
v -0.808394 0.500000 0.334848
v -0.618718 0.750000 0.618718
v -0.334848 0.500000 0.808395
v 0.000000 0.000000 0.875000
v 0.334848 0.500000 0.808395
v 0.618718 0.750000 0.618719
v 0.808395 0.500000 0.334848
v 0.875000 0.000000 -0.000000
v 0.808395 0.500000 -0.334848
v 0.618718 0.750000 -0.618719
v 0.334847 0.500000 -0.808395
v 0.000000 1.000000 0.000000
v 0.500000 0.500000 -0.891747
v 0.353553 0.806186 -0.714970
v 0.000000 0.933013 -0.641747
v -0.353553 0.806186 -0.714970
v -0.500000 0.500000 -0.891747
v -0.353553 0.193814 -1.068523
v 0.000000 0.066988 -1.141747
v 0.353553 0.193814 -1.068523
v 0.500000 0.312500 -0.566988
v 0.353553 0.618686 -0.390211
v 0.000000 0.745513 -0.316987
v -0.353553 0.618686 -0.390211
v -0.500000 0.312500 -0.566988
v -0.353553 0.006314 -0.743764
v 0.000000 -0.120512 -0.816988
v 0.353553 0.006314 -0.743764
v 0.375000 0.250000 -0.458734
v 0.265165 0.479640 -0.326152
v 0.000000 0.574759 -0.271234
v -0.265165 0.479640 -0.326152
v -0.375000 0.250000 -0.458734
v -0.265165 0.020360 -0.591317
v 0.000000 -0.074759 -0.646234
v 0.265165 0.020360 -0.591317
v 0.187500 0.062500 -0.133975
v 0.132583 0.177320 -0.067684
v 0.000000 0.224880 -0.040225
v -0.132583 0.177320 -0.067684
v -0.187500 0.062500 -0.133975
v -0.132583 -0.052320 -0.200266
v 0.000000 -0.099880 -0.227725
v 0.132583 -0.052320 -0.200266
v 0.375000 0.562500 -1.000000
v 0.265165 0.792140 -0.867417
v 0.000000 0.887259 -0.812500
v -0.265165 0.792140 -0.867417
v -0.375000 0.562500 -1.000000
v -0.265165 0.332860 -1.132583
v 0.000000 0.237741 -1.187500
v 0.265165 0.332860 -1.132583
v 0.000000 -0.500000 0.000000
v 0.000000 1.000000 -0.250000
v -0.176777 1.000000 -0.176777
v -0.250000 1.000000 0.000000
v -0.176777 1.000000 0.176777
v 0.000000 1.000000 0.250000
v 0.176777 1.000000 0.176777
v 0.250000 1.000000 -0.000000
v 0.176777 1.000000 -0.176777
v -0.500000 0.500000 0.891747
v -0.353553 0.806186 0.714970
v 0.000000 0.933013 0.641747
v 0.353553 0.806186 0.714970
v 0.500000 0.500000 0.891747
v 0.353553 0.193814 1.068523
v 0.000000 0.066988 1.141747
v -0.353553 0.193814 1.068523
v -0.500000 0.312500 0.566988
v -0.353553 0.618686 0.390211
v 0.000000 0.745513 0.316987
v 0.353553 0.618686 0.390211
v 0.500000 0.312500 0.566988
v 0.353553 0.006314 0.743764
v 0.000000 -0.120512 0.816988
v -0.353553 0.006314 0.743764
v -0.375000 0.250000 0.458734
v -0.265165 0.479640 0.326152
v 0.000000 0.574759 0.271234
v 0.265165 0.479640 0.326152
v 0.375000 0.250000 0.458734
v 0.265165 0.020360 0.591317
v 0.000000 -0.074759 0.646234
v -0.265165 0.020360 0.591317
v -0.187500 0.062500 0.133975
v -0.132583 0.177320 0.067684
v 0.000000 0.224880 0.040225
v 0.132583 0.177320 0.067684
v 0.187500 0.062500 0.133975
v 0.132583 -0.052320 0.200266
v 0.000000 -0.099880 0.227725
v -0.132583 -0.052320 0.200266
v -0.375000 0.562500 1.000000
v -0.265165 0.792140 0.867417
v 0.000000 0.887259 0.812500
v 0.265165 0.792140 0.867417
v 0.375000 0.562500 1.000000
v 0.265165 0.332860 1.132583
v 0.000000 0.237741 1.187500
v -0.265165 0.332860 1.132583
v -0.891747 0.500000 -0.500000
v -0.714970 0.806186 -0.353553
v -0.641747 0.933013 0.000000
v -0.714970 0.806186 0.353553
v -0.891747 0.500000 0.500000
v -1.068523 0.193814 0.353553
v -1.141747 0.066988 0.000000
v -1.068523 0.193814 -0.353553
v -0.566988 0.312500 -0.500000
v -0.390211 0.618686 -0.353553
v -0.316987 0.745513 0.000000
v -0.390211 0.618686 0.353553
v -0.566988 0.312500 0.500000
v -0.743764 0.006314 0.353553
v -0.816988 -0.120512 0.000000
v -0.743764 0.006314 -0.353553
v -0.458734 0.250000 -0.375000
v -0.326152 0.479640 -0.265165
v -0.271234 0.574759 0.000000
v -0.326152 0.479640 0.265165
v -0.458734 0.250000 0.375000
v -0.591317 0.020360 0.265165
v -0.646234 -0.074759 0.000000
v -0.591317 0.020360 -0.265165
v -0.133975 0.062500 -0.187500
v -0.067684 0.177320 -0.132583
v -0.040225 0.224880 0.000000
v -0.067684 0.177320 0.132583
v -0.133975 0.062500 0.187500
v -0.200266 -0.052320 0.132583
v -0.227725 -0.099880 0.000000
v -0.200266 -0.052320 -0.132583
v -1.000000 0.562500 -0.375000
v -0.867417 0.792140 -0.265165
v -0.812500 0.887259 0.000000
v -0.867417 0.792140 0.265165
v -1.000000 0.562500 0.375000
v -1.132583 0.332860 0.265165
v -1.187500 0.237741 0.000000
v -1.132583 0.332860 -0.265165
v 0.891747 0.500000 0.500000
v 0.714970 0.806186 0.353553
v 0.641747 0.933013 -0.000000
v 0.714970 0.806186 -0.353553
v 0.891747 0.500000 -0.500000
v 1.068523 0.193814 -0.353553
v 1.141747 0.066988 -0.000000
v 1.068523 0.193814 0.353553
v 0.566988 0.312500 0.500000
v 0.390211 0.618686 0.353553
v 0.316987 0.745513 -0.000000
v 0.390211 0.618686 -0.353553
v 0.566988 0.312500 -0.500000
v 0.743764 0.006314 -0.353553
v 0.816988 -0.120512 -0.000000
v 0.743764 0.006314 0.353553
v 0.458734 0.250000 0.375000
v 0.326152 0.479640 0.265165
v 0.271234 0.574759 -0.000000
v 0.326152 0.479640 -0.265165
v 0.458734 0.250000 -0.375000
v 0.591317 0.020360 -0.265165
v 0.646234 -0.074759 -0.000000
v 0.591317 0.020360 0.265165
v 0.133975 0.062500 0.187500
v 0.067684 0.177320 0.132583
v 0.040225 0.224880 0.000000
v 0.067684 0.177320 -0.132583
v 0.133975 0.062500 -0.187500
v 0.200266 -0.052320 -0.132583
v 0.227725 -0.099880 -0.000000
v 0.200266 -0.052320 0.132583
v 1.000000 0.562500 0.375000
v 0.867417 0.792140 0.265165
v 0.812500 0.887259 -0.000000
v 0.867417 0.792140 -0.265165
v 1.000000 0.562500 -0.375000
v 1.132583 0.332860 -0.265165
v 1.187500 0.237741 -0.000000
v 1.132583 0.332860 0.265165
v 0.000000 1.500000 -1.000000
v -0.382683 1.500000 -0.923880
v -0.707107 1.500000 -0.707107
v -0.923880 1.500000 -0.382683
v -1.000000 1.500000 0.000000
v -0.923880 1.500000 0.382684
v -0.707107 1.500000 0.707107
v -0.382683 1.500000 0.923880
v 0.000000 1.500000 1.000000
v 0.382683 1.500000 0.923880
v 0.707107 1.500000 0.707107
v 0.923880 1.500000 0.382684
v 1.000000 1.500000 -0.000000
v 0.923880 1.500000 -0.382684
v 0.707107 1.500000 -0.707107
v 0.382683 1.500000 -0.923880
v 0.000000 0.000000 -1.000000
v -0.382683 0.500000 -0.923880
v -0.707107 0.750000 -0.707107
v -0.923880 0.500000 -0.382683
v -1.000000 0.000000 0.000000
v -0.923880 0.500000 0.382684
v -0.707107 0.750000 0.707107
v -0.382683 0.500000 0.923880
v 0.000000 0.000000 1.000000
v 0.382683 0.500000 0.923880
v 0.707107 0.750000 0.707107
v 0.923880 0.500000 0.382684
v 1.000000 0.000000 -0.000000
v 0.923880 0.500000 -0.382684
v 0.707107 0.750000 -0.707107
v 0.382683 0.500000 -0.923880
v 0.000000 0.000000 -1.000000
v -0.382683 0.500000 -0.923880
v -0.707107 0.750000 -0.707107
v -0.923880 0.500000 -0.382683
v -1.000000 0.000000 0.000000
v -0.923880 0.500000 0.382684
v -0.707107 0.750000 0.707107
v -0.382683 0.500000 0.923880
v 0.000000 0.000000 1.000000
v 0.382683 0.500000 0.923880
v 0.707107 0.750000 0.707107
v 0.923880 0.500000 0.382684
v 1.000000 0.000000 -0.000000
v 0.923880 0.500000 -0.382684
v 0.707107 0.750000 -0.707107
v 0.382683 0.500000 -0.923880
v 0.000000 0.000000 -0.875000
v -0.334848 0.500000 -0.808395
v -0.618718 0.750000 -0.618718
v -0.808394 0.500000 -0.334848
v -0.875000 0.000000 0.000000
v -0.808394 0.500000 0.334848
v -0.618718 0.750000 0.618718
v -0.334848 0.500000 0.808395
v 0.000000 0.000000 0.875000
v 0.334848 0.500000 0.808395
v 0.618718 0.750000 0.618719
v 0.808395 0.500000 0.334848
v 0.875000 0.000000 -0.000000
v 0.808395 0.500000 -0.334848
v 0.618718 0.750000 -0.618719
v 0.334847 0.500000 -0.808395
v 0.375000 0.250000 -0.458734
v 0.265165 0.479640 -0.326152
v 0.000000 0.574759 -0.271234
v -0.265165 0.479640 -0.326152
v -0.375000 0.250000 -0.458734
v -0.265165 0.020360 -0.591317
v 0.000000 -0.074759 -0.646234
v 0.265165 0.020360 -0.591317
v 0.187500 0.062500 -0.133975
v 0.132583 0.177320 -0.067684
v 0.000000 0.224880 -0.040225
v -0.132583 0.177320 -0.067684
v -0.187500 0.062500 -0.133975
v -0.132583 -0.052320 -0.200266
v 0.000000 -0.099880 -0.227725
v 0.132583 -0.052320 -0.200266
v 0.375000 0.562500 -1.000000
v 0.265165 0.792140 -0.867417
v 0.000000 0.887259 -0.812500
v -0.265165 0.792140 -0.867417
v -0.375000 0.562500 -1.000000
v -0.265165 0.332860 -1.132583
v 0.000000 0.237741 -1.187500
v 0.265165 0.332860 -1.132583
v -0.500000 0.500000 0.891747
v -0.353553 0.806186 0.714970
v 0.000000 0.933013 0.641747
v 0.353553 0.806186 0.714970
v 0.500000 0.500000 0.891747
v 0.353553 0.193814 1.068523
v 0.000000 0.066988 1.141747
v -0.353553 0.193814 1.068523
v -0.500000 0.312500 0.566988
v -0.353553 0.618686 0.390211
v 0.000000 0.745513 0.316987
v 0.353553 0.618686 0.390211
v 0.500000 0.312500 0.566988
v 0.353553 0.006314 0.743764
v 0.000000 -0.120512 0.816988
v -0.353553 0.006314 0.743764
v -0.375000 0.250000 0.458734
v -0.265165 0.479640 0.326152
v 0.000000 0.574759 0.271234
v 0.265165 0.479640 0.326152
v 0.375000 0.250000 0.458734
v 0.265165 0.020360 0.591317
v 0.000000 -0.074759 0.646234
v -0.265165 0.020360 0.591317
v -0.187500 0.062500 0.133975
v -0.132583 0.177320 0.067684
v 0.000000 0.224880 0.040225
v 0.132583 0.177320 0.067684
v 0.187500 0.062500 0.133975
v 0.132583 -0.052320 0.200266
v 0.000000 -0.099880 0.227725
v -0.132583 -0.052320 0.200266
v -0.375000 0.562500 1.000000
v -0.265165 0.792140 0.867417
v 0.000000 0.887259 0.812500
v 0.265165 0.792140 0.867417
v 0.375000 0.562500 1.000000
v 0.265165 0.332860 1.132583
v 0.000000 0.237741 1.187500
v -0.265165 0.332860 1.132583
v -0.891747 0.500000 -0.500000
v -0.714970 0.806186 -0.353553
v -0.641747 0.933013 0.000000
v -0.714970 0.806186 0.353553
v -0.891747 0.500000 0.500000
v -1.068523 0.193814 0.353553
v -1.141747 0.066988 0.000000
v -1.068523 0.193814 -0.353553
v -0.566988 0.312500 -0.500000
v -0.390211 0.618686 -0.353553
v -0.316987 0.745513 0.000000
v -0.390211 0.618686 0.353553
v -0.566988 0.312500 0.500000
v -0.743764 0.006314 0.353553
v -0.816988 -0.120512 0.000000
v -0.743764 0.006314 -0.353553
v -0.458734 0.250000 -0.375000
v -0.326152 0.479640 -0.265165
v -0.271234 0.574759 0.000000
v -0.326152 0.479640 0.265165
v -0.458734 0.250000 0.375000
v -0.591317 0.020360 0.265165
v -0.646234 -0.074759 0.000000
v -0.591317 0.020360 -0.265165
v -0.133975 0.062500 -0.187500
v -0.067684 0.177320 -0.132583
v -0.040225 0.224880 0.000000
v -0.067684 0.177320 0.132583
v -0.133975 0.062500 0.187500
v -0.200266 -0.052320 0.132583
v -0.227725 -0.099880 0.000000
v -0.200266 -0.052320 -0.132583
v -1.000000 0.562500 -0.375000
v -0.867417 0.792140 -0.265165
v -0.812500 0.887259 0.000000
v -0.867417 0.792140 0.265165
v -1.000000 0.562500 0.375000
v -1.132583 0.332860 0.265165
v -1.187500 0.237741 0.000000
v -1.132583 0.332860 -0.265165
v 0.891747 0.500000 0.500000
v 0.714970 0.806186 0.353553
v 0.641747 0.933013 -0.000000
v 0.714970 0.806186 -0.353553
v 0.891747 0.500000 -0.500000
v 1.068523 0.193814 -0.353553
v 1.141747 0.066988 -0.000000
v 1.068523 0.193814 0.353553
v 0.566988 0.312500 0.500000
v 0.390211 0.618686 0.353553
v 0.316987 0.745513 -0.000000
v 0.390211 0.618686 -0.353553
v 0.566988 0.312500 -0.500000
v 0.743764 0.006314 -0.353553
v 0.816988 -0.120512 -0.000000
v 0.743764 0.006314 0.353553
v 0.458734 0.250000 0.375000
v 0.326152 0.479640 0.265165
v 0.271234 0.574759 -0.000000
v 0.326152 0.479640 -0.265165
v 0.458734 0.250000 -0.375000
v 0.591317 0.020360 -0.265165
v 0.646234 -0.074759 -0.000000
v 0.591317 0.020360 0.265165
v 0.133975 0.062500 0.187500
v 0.067684 0.177320 0.132583
v 0.040225 0.224880 0.000000
v 0.067684 0.177320 -0.132583
v 0.133975 0.062500 -0.187500
v 0.200266 -0.052320 -0.132583
v 0.227725 -0.099880 -0.000000
v 0.200266 -0.052320 0.132583
v 1.000000 0.562500 0.375000
v 0.867417 0.792140 0.265165
v 0.812500 0.887259 -0.000000
v 0.867417 0.792140 -0.265165
v 1.000000 0.562500 -0.375000
v 1.132583 0.332860 -0.265165
v 1.187500 0.237741 -0.000000
v 1.132583 0.332860 0.265165
vt 0.911255 0.785714
vt 0.922078 0.745536
vt 0.917749 0.785714
vt 0.813853 0.785714
vt 0.805195 0.745536
vt 0.818182 0.745536
vt 0.930736 0.785714
vt 0.935065 0.745536
vt 0.826840 0.785714
vt 0.831169 0.745536
vt 0.943723 0.785714
vt 0.948052 0.745536
vt 0.833333 0.785714
vt 0.844156 0.745536
vt 0.839827 0.785714
vt 0.956710 0.785714
vt 0.961039 0.745536
vt 0.846320 0.785714
vt 0.857143 0.745536
vt 0.852814 0.785714
vt 0.963203 0.785714
vt 0.974026 0.745536
vt 0.969697 0.785714
vt 0.859307 0.785714
vt 0.870130 0.745536
vt 0.865801 0.785714
vt 0.982684 0.785714
vt 0.987013 0.745536
vt 0.872294 0.785714
vt 0.883117 0.745536
vt 0.878788 0.785714
vt 0.995671 0.785714
vt 1.000000 0.745536
vt 0.898268 0.785714
vt 0.909091 0.745536
vt 0.904762 0.785714
vt 0.891775 0.785714
vt 0.896104 0.745536
vt 0.794372 0.785714
vt 0.800866 0.785714
vt 0.987013 0.638393
vt 0.974026 0.629464
vt 0.987013 0.629464
vt 0.870130 0.638393
vt 0.857143 0.629464
vt 0.870130 0.629464
vt 0.974026 0.638393
vt 0.961039 0.629464
vt 0.844156 0.638393
vt 0.857143 0.638393
vt 0.948052 0.638393
vt 0.961039 0.638393
vt 0.831169 0.629464
vt 0.844156 0.629464
vt 0.935065 0.629464
vt 0.948052 0.629464
vt 0.818182 0.638393
vt 0.831169 0.638393
vt 0.922078 0.638393
vt 0.935065 0.638393
vt 0.805195 0.638393
vt 0.818182 0.629464
vt 0.909091 0.638393
vt 0.922078 0.629464
vt 0.792208 0.629464
vt 0.805195 0.629464
vt 0.883117 0.638393
vt 0.896104 0.629464
vt 0.896104 0.638393
vt 0.909091 0.629464
vt 1.000000 0.629464
vt 1.000000 0.638393
vt 0.883117 0.629464
vt 0.796537 0.799107
vt 0.785714 0.785714
vt 0.794372 0.785714
vt 0.809524 0.799107
vt 0.820346 0.785714
vt 0.822511 0.799107
vt 0.848485 0.799107
vt 0.837662 0.785714
vt 0.846320 0.785714
vt 0.887446 0.799107
vt 0.876623 0.785714
vt 0.885281 0.785714
vt 0.798701 0.785714
vt 0.807359 0.785714
vt 0.833333 0.785714
vt 0.835498 0.799107
vt 0.859307 0.785714
vt 0.861472 0.799107
vt 0.887511 0.852679
vt 0.893939 0.839420
vt 0.900368 0.852679
vt 0.874459 0.825893
vt 0.885281 0.839286
vt 0.876623 0.839286
vt 0.796537 0.825893
vt 0.807359 0.839286
vt 0.798701 0.839286
vt 0.835498 0.825893
vt 0.824675 0.839286
vt 0.822511 0.825893
vt 0.861472 0.825893
vt 0.850649 0.839286
vt 0.848485 0.825893
vt 0.863636 0.839286
vt 0.783550 0.825893
vt 0.794372 0.839286
vt 0.785714 0.839286
vt 0.811688 0.839286
vt 0.809524 0.825893
vt 0.837662 0.839286
vt 0.844156 0.629464
vt 0.844156 0.535714
vt 0.857143 0.629464
vt 0.857143 0.558036
vt 0.870130 0.629464
vt 0.883117 0.558036
vt 0.883117 0.629464
vt 0.896104 0.535714
vt 0.896104 0.629464
vt 0.909091 0.629464
vt 0.909091 0.558036
vt 0.922078 0.629464
vt 0.935065 0.558036
vt 0.935065 0.629464
vt 0.948052 0.535714
vt 0.948052 0.629464
vt 0.961039 0.629464
vt 0.961039 0.558036
vt 0.974026 0.629464
vt 0.987013 0.558036
vt 0.987013 0.629464
vt 1.000000 0.535714
vt 1.000000 0.629464
vt 0.792208 0.629464
vt 0.792208 0.535714
vt 0.805195 0.629464
vt 0.805195 0.558036
vt 0.818182 0.629464
vt 0.831169 0.558036
vt 0.831169 0.629464
vt 0.848485 0.799107
vt 0.861472 0.825893
vt 0.848485 0.825893
vt 0.835498 0.799107
vt 0.822511 0.825893
vt 0.822511 0.799107
vt 0.796537 0.799107
vt 0.809524 0.825893
vt 0.796537 0.825893
vt 0.887446 0.799107
vt 0.874459 0.825893
vt 0.874459 0.799107
vt 0.835498 0.825893
vt 0.809524 0.799107
vt 0.783550 0.799107
vt 0.783550 0.825893
vt 0.861472 0.799107
vt 0.833333 0.839286
vt 0.826840 0.870536
vt 0.824675 0.839286
vt 0.807359 0.839286
vt 0.800866 0.870536
vt 0.798701 0.839286
vt 0.876623 0.839286
vt 0.883117 0.870536
vt 0.878788 0.870536
vt 0.846320 0.839286
vt 0.839827 0.870536
vt 0.837662 0.839286
vt 0.811688 0.839286
vt 0.818182 0.870536
vt 0.813853 0.870536
vt 0.794372 0.839286
vt 0.787879 0.870536
vt 0.785714 0.839286
vt 0.863636 0.839286
vt 0.870130 0.870536
vt 0.865801 0.870536
vt 0.850649 0.839286
vt 0.857143 0.870536
vt 0.852814 0.870536
vt 0.900433 0.786019
vt 0.913272 0.812500
vt 0.900433 0.838981
vt 0.787879 0.616071
vt 0.790043 0.508929
vt 0.792208 0.616071
vt 0.787879 0.616071
vt 0.792208 0.616071
vt 0.787879 0.616071
vt 0.792208 0.616071
vt 0.792208 0.616071
vt 0.787879 0.616071
vt 0.792208 0.616071
vt 0.787879 0.616071
vt 0.787879 0.616071
vt 0.792208 0.616071
vt 0.792208 0.616071
vt 0.787879 0.616071
vt 0.792208 0.616071
vt 0.787879 0.616071
vt 0.848485 0.799107
vt 0.861472 0.825893
vt 0.848485 0.825893
vt 0.822511 0.799107
vt 0.835498 0.825893
vt 0.822511 0.825893
vt 0.796537 0.799107
vt 0.809524 0.825893
vt 0.796537 0.825893
vt 0.887446 0.799107
vt 0.874459 0.825893
vt 0.874459 0.799107
vt 0.835498 0.799107
vt 0.809524 0.799107
vt 0.783550 0.799107
vt 0.783550 0.825893
vt 0.861472 0.799107
vt 0.833333 0.839286
vt 0.826840 0.870536
vt 0.824675 0.839286
vt 0.807359 0.839286
vt 0.800866 0.870536
vt 0.798701 0.839286
vt 0.885281 0.839286
vt 0.878788 0.870536
vt 0.876623 0.839286
vt 0.846320 0.839286
vt 0.839827 0.870536
vt 0.837662 0.839286
vt 0.811688 0.839286
vt 0.818182 0.870536
vt 0.813853 0.870536
vt 0.794372 0.839286
vt 0.787879 0.870536
vt 0.785714 0.839286
vt 0.863636 0.839286
vt 0.870130 0.870536
vt 0.865801 0.870536
vt 0.859307 0.839286
vt 0.852814 0.870536
vt 0.850649 0.839286
vt 0.900433 0.786019
vt 0.913272 0.812500
vt 0.900433 0.838981
vt 0.848485 0.799107
vt 0.861472 0.825893
vt 0.848485 0.825893
vt 0.835498 0.799107
vt 0.822511 0.825893
vt 0.822511 0.799107
vt 0.796537 0.799107
vt 0.809524 0.825893
vt 0.796537 0.825893
vt 0.887446 0.799107
vt 0.874459 0.825893
vt 0.874459 0.799107
vt 0.835498 0.825893
vt 0.809524 0.799107
vt 0.783550 0.825893
vt 0.783550 0.799107
vt 0.861472 0.799107
vt 0.833333 0.839286
vt 0.826840 0.870536
vt 0.824675 0.839286
vt 0.807359 0.839286
vt 0.800866 0.870536
vt 0.798701 0.839286
vt 0.885281 0.839286
vt 0.878788 0.870536
vt 0.876623 0.839286
vt 0.846320 0.839286
vt 0.839827 0.870536
vt 0.837662 0.839286
vt 0.811688 0.839286
vt 0.818182 0.870536
vt 0.813853 0.870536
vt 0.794372 0.839286
vt 0.787879 0.870536
vt 0.785714 0.839286
vt 0.863636 0.839286
vt 0.870130 0.870536
vt 0.865801 0.870536
vt 0.850649 0.839286
vt 0.857143 0.870536
vt 0.852814 0.870536
vt 0.900433 0.786019
vt 0.913272 0.812500
vt 0.900433 0.838981
vt 0.848485 0.799107
vt 0.861472 0.825893
vt 0.848485 0.825893
vt 0.835498 0.799107
vt 0.822511 0.825893
vt 0.822511 0.799107
vt 0.796537 0.799107
vt 0.809524 0.825893
vt 0.796537 0.825893
vt 0.887446 0.799107
vt 0.874459 0.825893
vt 0.874459 0.799107
vt 0.835498 0.825893
vt 0.809524 0.799107
vt 0.783550 0.825893
vt 0.783550 0.799107
vt 0.861472 0.799107
vt 0.833333 0.839286
vt 0.826840 0.870536
vt 0.824675 0.839286
vt 0.807359 0.839286
vt 0.800866 0.870536
vt 0.798701 0.839286
vt 0.885281 0.839286
vt 0.878788 0.870536
vt 0.876623 0.839286
vt 0.837662 0.839286
vt 0.844156 0.870536
vt 0.839827 0.870536
vt 0.811688 0.839286
vt 0.818182 0.870536
vt 0.813853 0.870536
vt 0.794372 0.839286
vt 0.787879 0.870536
vt 0.785714 0.839286
vt 0.863636 0.839286
vt 0.870130 0.870536
vt 0.865801 0.870536
vt 0.859307 0.839286
vt 0.852814 0.870536
vt 0.850649 0.839286
vt 0.900433 0.786019
vt 0.913272 0.812500
vt 0.900433 0.838981
vt 0.987013 0.745536
vt 0.974026 0.691964
vt 0.987013 0.674107
vt 0.883117 0.745536
vt 0.870130 0.691964
vt 0.883117 0.674107
vt 1.000000 0.745536
vt 1.000000 0.638393
vt 0.896104 0.745536
vt 0.909091 0.674107
vt 0.909091 0.745536
vt 0.896104 0.638393
vt 0.792208 0.745536
vt 0.805195 0.674107
vt 0.805195 0.745536
vt 0.922078 0.691964
vt 0.922078 0.745536
vt 0.818182 0.691964
vt 0.818182 0.745536
vt 0.935065 0.745536
vt 0.935065 0.674107
vt 0.831169 0.745536
vt 0.831169 0.674107
vt 0.948052 0.745536
vt 0.948052 0.638393
vt 0.844156 0.745536
vt 0.844156 0.638393
vt 0.961039 0.674107
vt 0.961039 0.745536
vt 0.857143 0.674107
vt 0.857143 0.745536
vt 0.974026 0.745536
vt 0.870130 0.745536
vt 0.874459 0.799107
vt 0.863636 0.785714
vt 0.872294 0.785714
vt 0.848485 0.825893
vt 0.837662 0.839286
vt 0.835498 0.825893
vt 0.809524 0.825893
vt 0.820346 0.839286
vt 0.811688 0.839286
vt 0.796537 0.825893
vt 0.785714 0.839286
vt 0.783550 0.825893
vt 0.861472 0.825893
vt 0.872294 0.839286
vt 0.863636 0.839286
vt 0.859307 0.839286
vt 0.850649 0.839286
vt 0.824675 0.839286
vt 0.822511 0.825893
vt 0.807359 0.839286
vt 0.798701 0.839286
vt 0.887446 0.825893
vt 0.876623 0.839286
vt 0.874459 0.825893
vt 0.887511 0.852679
vt 0.893939 0.839420
vt 0.900368 0.852679
vt 0.848485 0.799107
vt 0.859307 0.785714
vt 0.861472 0.799107
vt 0.822511 0.799107
vt 0.833333 0.785714
vt 0.835498 0.799107
vt 0.809524 0.799107
vt 0.798701 0.785714
vt 0.807359 0.785714
vt 0.887446 0.799107
vt 0.876623 0.785714
vt 0.885281 0.785714
vt 0.846320 0.785714
vt 0.820346 0.785714
vt 0.796537 0.799107
vt 0.785714 0.785714
vt 0.794372 0.785714
vt 0.872294 0.785714
vt 0.874459 0.799107
vt 0.848485 0.825893
vt 0.837662 0.839286
vt 0.835498 0.825893
vt 0.809524 0.825893
vt 0.820346 0.839286
vt 0.811688 0.839286
vt 0.796537 0.825893
vt 0.785714 0.839286
vt 0.783550 0.825893
vt 0.874459 0.825893
vt 0.863636 0.839286
vt 0.861472 0.825893
vt 0.850649 0.839286
vt 0.824675 0.839286
vt 0.822511 0.825893
vt 0.798701 0.839286
vt 0.885281 0.839286
vt 0.876623 0.839286
vt 0.887511 0.852679
vt 0.893939 0.839420
vt 0.900368 0.852679
vt 0.848485 0.799107
vt 0.859307 0.785714
vt 0.861472 0.799107
vt 0.822511 0.799107
vt 0.833333 0.785714
vt 0.835498 0.799107
vt 0.809524 0.799107
vt 0.798701 0.785714
vt 0.807359 0.785714
vt 0.887446 0.799107
vt 0.876623 0.785714
vt 0.885281 0.785714
vt 0.837662 0.785714
vt 0.846320 0.785714
vt 0.820346 0.785714
vt 0.796537 0.799107
vt 0.785714 0.785714
vt 0.794372 0.785714
vt 0.874459 0.799107
vt 0.863636 0.785714
vt 0.872294 0.785714
vt 0.848485 0.825893
vt 0.837662 0.839286
vt 0.835498 0.825893
vt 0.809524 0.825893
vt 0.820346 0.839286
vt 0.811688 0.839286
vt 0.796537 0.825893
vt 0.785714 0.839286
vt 0.783550 0.825893
vt 0.861472 0.825893
vt 0.872294 0.839286
vt 0.863636 0.839286
vt 0.850649 0.839286
vt 0.824675 0.839286
vt 0.822511 0.825893
vt 0.807359 0.839286
vt 0.798701 0.839286
vt 0.887446 0.825893
vt 0.876623 0.839286
vt 0.874459 0.825893
vt 0.887511 0.852679
vt 0.893939 0.839420
vt 0.900368 0.852679
vt 0.848485 0.799107
vt 0.859307 0.785714
vt 0.861472 0.799107
vt 0.822511 0.799107
vt 0.833333 0.785714
vt 0.835498 0.799107
vt 0.809524 0.799107
vt 0.798701 0.785714
vt 0.807359 0.785714
vt 0.887446 0.799107
vt 0.876623 0.785714
vt 0.885281 0.785714
vt 0.837662 0.785714
vt 0.846320 0.785714
vt 0.820346 0.785714
vt 0.796537 0.799107
vt 0.785714 0.785714
vt 0.794372 0.785714
vt 0.874459 0.799107
vt 0.863636 0.785714
vt 0.872294 0.785714
vt 0.807359 0.785714
vt 0.924242 0.785714
vt 0.820346 0.785714
vt 0.937229 0.785714
vt 0.950216 0.785714
vt 0.976190 0.785714
vt 0.989177 0.785714
vt 0.885281 0.785714
vt 0.792208 0.745536
vt 0.792208 0.638393
vt 0.783550 0.799107
vt 0.811688 0.785714
vt 0.824675 0.785714
vt 0.850649 0.785714
vt 0.898485 0.862054
vt 0.893939 0.865937
vt 0.889394 0.862053
vt 0.889394 0.843304
vt 0.898485 0.843304
vt 0.887446 0.825893
vt 0.833333 0.839286
vt 0.859307 0.839286
vt 0.872294 0.839286
vt 0.820346 0.839286
vt 0.846320 0.839286
vt 0.887446 0.825893
vt 0.831169 0.870536
vt 0.805195 0.870536
vt 0.885281 0.839286
vt 0.844156 0.870536
vt 0.820346 0.839286
vt 0.792208 0.870536
vt 0.872294 0.839286
vt 0.859307 0.839286
vt 0.891354 0.831225
vt 0.887594 0.812500
vt 0.891354 0.793775
vt 0.909512 0.793775
vt 0.909512 0.831225
vt 0.887446 0.825893
vt 0.831169 0.870536
vt 0.805195 0.870536
vt 0.883117 0.870536
vt 0.844156 0.870536
vt 0.820346 0.839286
vt 0.792208 0.870536
vt 0.872294 0.839286
vt 0.857143 0.870536
vt 0.891354 0.831225
vt 0.887594 0.812500
vt 0.891354 0.793775
vt 0.909512 0.793775
vt 0.909512 0.831225
vt 0.887446 0.825893
vt 0.831169 0.870536
vt 0.805195 0.870536
vt 0.883117 0.870536
vt 0.844156 0.870536
vt 0.820346 0.839286
vt 0.792208 0.870536
vt 0.872294 0.839286
vt 0.859307 0.839286
vt 0.891354 0.831225
vt 0.887594 0.812500
vt 0.891354 0.793775
vt 0.909512 0.793775
vt 0.909512 0.831225
vt 0.887446 0.825893
vt 0.831169 0.870536
vt 0.805195 0.870536
vt 0.883117 0.870536
vt 0.846320 0.839286
vt 0.820346 0.839286
vt 0.792208 0.870536
vt 0.872294 0.839286
vt 0.857143 0.870536
vt 0.891354 0.831225
vt 0.887594 0.812500
vt 0.891354 0.793775
vt 0.909512 0.793775
vt 0.909512 0.831225
vt 0.792208 0.638393
vt 0.846320 0.839286
vt 0.794372 0.839286
vt 0.833333 0.839286
vt 0.885281 0.839286
vt 0.898485 0.862054
vt 0.893939 0.865937
vt 0.889394 0.862053
vt 0.889394 0.843304
vt 0.898485 0.843304
vt 0.850649 0.785714
vt 0.824675 0.785714
vt 0.837662 0.785714
vt 0.811688 0.785714
vt 0.783550 0.799107
vt 0.863636 0.785714
vt 0.846320 0.839286
vt 0.794372 0.839286
vt 0.872294 0.839286
vt 0.859307 0.839286
vt 0.833333 0.839286
vt 0.807359 0.839286
vt 0.887446 0.825893
vt 0.898485 0.862054
vt 0.893939 0.865937
vt 0.889394 0.862053
vt 0.889394 0.843304
vt 0.898485 0.843304
vt 0.850649 0.785714
vt 0.824675 0.785714
vt 0.811688 0.785714
vt 0.783550 0.799107
vt 0.846320 0.839286
vt 0.794372 0.839286
vt 0.859307 0.839286
vt 0.833333 0.839286
vt 0.885281 0.839286
vt 0.898485 0.862054
vt 0.893939 0.865937
vt 0.889394 0.862053
vt 0.889394 0.843304
vt 0.898485 0.843304
vt 0.850649 0.785714
vt 0.824675 0.785714
vt 0.811688 0.785714
vt 0.783550 0.799107
vn -0.1711 0.8944 -0.4132
vn -0.3162 0.8944 -0.3162
vn 0.3162 0.8944 0.3162
vn 0.1711 0.8944 0.4132
vn -0.4132 0.8944 -0.1711
vn 0.4132 0.8944 0.1711
vn -0.4472 0.8944 0.0000
vn 0.4472 0.8944 0.0000
vn -0.4132 0.8944 0.1711
vn 0.4132 0.8944 -0.1711
vn -0.3162 0.8944 0.3162
vn 0.3162 0.8944 -0.3162
vn -0.1711 0.8944 0.4132
vn 0.1711 0.8944 -0.4132
vn 0.0000 0.8944 0.4472
vn 0.0000 0.8944 -0.4472
vn -0.6618 -0.6982 -0.2729
vn 0.0052 -0.9993 0.0363
vn -0.6683 -0.6905 -0.2768
vn 0.0352 -0.9987 -0.0352
vn -0.2604 -0.7323 -0.6292
vn 0.0000 -1.0000 0.0000
vn -0.0018 -0.9995 0.0328
vn 0.2604 -0.7323 0.6292
vn -0.0728 -0.9973 0.0000
vn -0.2611 -0.7311 -0.6303
vn 0.0728 -0.9973 0.0000
vn 0.2611 -0.7311 0.6303
vn -0.2604 -0.7323 0.6292
vn 0.2604 -0.7323 -0.6292
vn 0.0018 -0.9995 0.0328
vn -0.2611 -0.7311 0.6303
vn -0.0018 -0.9995 -0.0328
vn 0.2611 -0.7311 -0.6303
vn 0.6618 -0.6982 -0.2729
vn -0.0052 -0.9993 0.0363
vn -0.6370 -0.7160 0.2856
vn 0.0052 -0.9993 -0.0363
vn 0.0000 -0.9981 -0.0617
vn 0.6683 -0.6905 -0.2768
vn 0.6553 -0.7134 0.2482
vn -0.0301 -0.9990 0.0322
vn -0.0248 -0.9991 0.0352
vn -0.6560 -0.7115 0.2516
vn 0.6417 -0.7116 0.2859
vn -0.5000 0.7866 -0.3623
vn 0.0000 0.9659 -0.2588
vn -0.7071 0.3535 -0.6124
vn -0.5000 -0.0794 -0.8624
vn 0.5000 -0.0794 -0.8624
vn 0.0000 -0.2588 -0.9659
vn 0.5000 0.7866 -0.3623
vn 0.7071 0.3535 -0.6124
vn 0.0000 -0.5000 0.8660
vn 0.5000 0.0794 0.8624
vn 0.0000 0.2588 0.9659
vn -0.5000 0.0794 0.8624
vn -0.7071 -0.3535 0.6124
vn 0.0000 -0.9659 0.2588
vn -0.5000 -0.7866 0.3623
vn 0.7071 -0.3535 0.6124
vn 0.5000 -0.7866 0.3623
vn -0.7526 -0.6585 0.0000
vn -0.5948 -0.6153 -0.5172
vn -0.1943 -0.9615 0.1943
vn 0.5172 -0.6153 0.5948
vn 0.0000 -0.6585 0.7526
vn -0.5172 -0.6153 0.5948
vn 0.1943 -0.9615 0.1943
vn 0.5948 -0.6153 -0.5172
vn 0.7526 -0.6585 0.0000
vn 0.5948 -0.6153 0.5172
vn 0.1943 -0.9615 -0.1943
vn -0.5172 -0.6153 -0.5948
vn 0.0000 -0.6585 -0.7526
vn 0.5172 -0.6153 -0.5948
vn -0.1943 -0.9615 -0.1943
vn -0.5948 -0.6153 0.5172
vn 0.7071 -0.6124 -0.3535
vn 1.0000 0.0000 0.0000
vn 0.0000 -0.8660 -0.5000
vn -0.7071 -0.6124 -0.3535
vn -0.7071 0.6124 0.3535
vn -1.0000 0.0000 0.0000
vn 0.0000 0.8660 0.5000
vn 0.7071 0.6124 0.3535
vn 0.0000 -0.9982 -0.0599
vn -0.6324 -0.7713 0.0710
vn -0.8944 -0.2236 0.3873
vn -0.6324 0.3241 0.7035
vn 0.6324 0.3241 0.7035
vn 0.0000 0.5510 0.8345
vn 0.6324 -0.7713 0.0710
vn 0.8944 -0.2236 0.3873
vn 0.0000 0.5000 -0.8660
vn 0.6975 -0.1644 0.6975
vn 0.9864 -0.1644 0.0000
vn 0.0000 -0.1644 0.9864
vn -0.6975 -0.1644 0.6975
vn 0.6975 -0.1644 -0.6975
vn 0.0000 -0.1644 -0.9864
vn -0.9864 -0.1644 0.0000
vn -0.6975 -0.1644 -0.6975
vn -0.7071 -0.6124 0.3535
vn 0.7071 -0.6124 0.3535
vn 0.0000 -0.8660 0.5000
vn 0.7071 0.6124 -0.3535
vn 0.0000 0.8660 -0.5000
vn -0.7071 0.6124 -0.3535
vn 0.0000 -0.9982 0.0599
vn 0.6324 -0.7713 -0.0710
vn 0.8944 -0.2236 -0.3873
vn 0.6324 0.3241 -0.7035
vn 0.0000 0.5510 -0.8345
vn -0.6324 0.3241 -0.7035
vn -0.6324 -0.7713 -0.0710
vn -0.8944 -0.2236 -0.3873
vn 0.0000 0.5000 0.8660
vn -0.3535 -0.6124 -0.7071
vn 0.0000 0.0000 -1.0000
vn -0.5000 -0.8660 0.0000
vn -0.3535 -0.6124 0.7071
vn 0.3535 0.6124 0.7071
vn 0.0000 0.0000 1.0000
vn 0.5000 0.8660 0.0000
vn 0.3535 0.6124 -0.7071
vn -0.0599 -0.9982 0.0000
vn 0.0710 -0.7713 0.6324
vn 0.3873 -0.2236 0.8944
vn 0.7035 0.3241 0.6324
vn 0.8345 0.5510 0.0000
vn 0.7035 0.3241 -0.6324
vn 0.0710 -0.7713 -0.6324
vn 0.3873 -0.2236 -0.8944
vn -0.8660 0.5000 0.0000
vn 0.3535 -0.6124 0.7071
vn 0.5000 -0.8660 0.0000
vn 0.3535 -0.6124 -0.7071
vn -0.3535 0.6124 -0.7071
vn -0.5000 0.8660 0.0000
vn -0.3535 0.6124 0.7071
vn 0.0599 -0.9982 0.0000
vn -0.0710 -0.7713 -0.6324
vn -0.3873 -0.2236 -0.8944
vn -0.7035 0.3241 -0.6324
vn -0.8345 0.5510 0.0000
vn -0.7035 0.3241 0.6324
vn -0.0710 -0.7713 0.6324
vn -0.3873 -0.2236 0.8944
vn 0.8660 0.5000 0.0000
vn -0.3827 0.0000 0.9239
vn -0.7071 0.0000 0.7071
vn -0.3035 0.0000 0.9528
vn 0.3827 0.0000 -0.9239
vn 0.7071 0.0000 -0.7071
vn 0.3035 0.0000 -0.9528
vn -0.3035 0.0000 -0.9528
vn -0.3827 0.0000 -0.9239
vn 0.3035 0.0000 0.9528
vn 0.3827 0.0000 0.9239
vn -0.7071 0.0000 -0.7071
vn 0.7071 0.0000 0.7071
vn -0.9239 0.0000 -0.3827
vn -0.9528 0.0000 -0.3035
vn 0.9239 0.0000 0.3827
vn 0.9528 0.0000 0.3035
vn -0.9528 0.0000 0.3035
vn -0.9239 0.0000 0.3827
vn 0.9528 0.0000 -0.3035
vn 0.9239 0.0000 -0.3827
vn -0.5000 -0.7866 -0.3623
vn 0.0000 -0.9659 -0.2588
vn 0.7071 -0.3535 -0.6124
vn 0.5000 -0.7866 -0.3623
vn 0.5000 0.0794 -0.8624
vn 0.0000 0.2588 -0.9659
vn -0.7071 -0.3535 -0.6124
vn -0.5000 0.0794 -0.8624
vn 0.0000 -0.5000 -0.8660
vn -0.5000 -0.0794 0.8624
vn -0.7071 0.3535 0.6124
vn 0.5000 -0.0794 0.8624
vn 0.0000 -0.2588 0.9659
vn 0.7071 0.3535 0.6124
vn 0.5000 0.7866 0.3623
vn 0.0000 0.9659 0.2588
vn -0.5000 0.7866 0.3623
vn 0.3623 -0.7866 -0.5000
vn 0.2588 -0.9659 0.0000
vn 0.6124 -0.3535 0.7071
vn 0.3623 -0.7866 0.5000
vn 0.8624 0.0794 0.5000
vn 0.9659 0.2588 0.0000
vn 0.8624 0.0794 -0.5000
vn 0.6124 -0.3535 -0.7071
vn 0.8660 -0.5000 0.0000
vn -0.8624 -0.0794 -0.5000
vn -0.6124 0.3535 -0.7071
vn -0.8624 -0.0794 0.5000
vn -0.9659 -0.2588 0.0000
vn -0.6124 0.3535 0.7071
vn -0.3623 0.7866 0.5000
vn -0.2588 0.9659 0.0000
vn -0.3623 0.7866 -0.5000
vn -0.3623 -0.7866 0.5000
vn -0.2588 -0.9659 0.0000
vn -0.6124 -0.3535 -0.7071
vn -0.3623 -0.7866 -0.5000
vn -0.8624 0.0794 -0.5000
vn -0.9659 0.2588 0.0000
vn -0.6124 -0.3535 0.7071
vn -0.8624 0.0794 0.5000
vn -0.8660 -0.5000 0.0000
vn 0.8624 -0.0794 0.5000
vn 0.6124 0.3535 0.7071
vn 0.8624 -0.0794 -0.5000
vn 0.9659 -0.2588 0.0000
vn 0.6124 0.3535 -0.7071
vn 0.3623 0.7866 -0.5000
vn 0.2588 0.9659 0.0000
vn 0.3623 0.7866 0.5000
v -1.000000 2.000000 2.500000
v -1.000000 2.220971 2.591529
v -1.000000 2.312500 2.812500
v -1.000000 2.220971 3.033471
v -1.000000 2.000000 3.125000
v -1.000000 1.779029 3.033471
v -1.000000 1.687500 2.812500
v -1.000000 1.779029 2.591529
v 1.000000 2.000000 2.500000
v 1.000000 2.220971 2.591529
v 1.000000 2.312500 2.812500
v 1.000000 2.220971 3.033471
v 1.000000 2.000000 3.125000
v 1.000000 1.779029 3.033471
v 1.000000 1.687500 2.812500
v 1.000000 1.779029 2.591529
vt 0.824675 0.348493
vt 0.835363 0.370536
vt 0.824675 0.392579
vt 0.904897 0.370536
vt 0.915585 0.348492
vt 0.926272 0.370536
vt 0.835498 0.321429
vt 0.904762 0.339286
vt 0.835498 0.339286
vt 0.835498 0.375000
vt 0.904762 0.392857
vt 0.835498 0.392857
vt 0.835498 0.267857
vt 0.904762 0.285714
vt 0.835498 0.285714
vt 0.835498 0.303571
vt 0.904762 0.321429
vt 0.904762 0.357143
vt 0.835498 0.357143
vt 0.904762 0.375000
vt 0.835498 0.250000
vt 0.904762 0.267857
vt 0.904762 0.303571
vt 0.817118 0.386123
vt 0.813988 0.370536
vt 0.817118 0.354949
vt 0.832233 0.354949
vt 0.832233 0.386123
vt 0.923142 0.386123
vt 0.915585 0.392579
vt 0.908027 0.386123
vt 0.908027 0.354949
vt 0.923142 0.354949
vt 0.904762 0.250000
vn -1.0000 0.0000 0.0000
vn 1.0000 0.0000 0.0000
vn 0.0000 0.9239 -0.3827
vn 0.0000 -0.9239 -0.3827
vn 0.0000 -0.3827 0.9239
vn 0.0000 0.9239 0.3827
vn 0.0000 0.3827 -0.9239
vn 0.0000 -0.3827 -0.9239
vn 0.0000 -0.9239 0.3827
vn 0.0000 0.3827 0.9239
v 1.500000 0.000000 -1.500000
v 3.500000 0.000000 -1.500000
v 1.500000 0.000000 -3.500000
v 3.500000 0.000000 -3.500000
v 1.500000 0.250000 -3.500000
v 1.500000 0.250000 -1.500000
v 3.500000 0.250000 -1.500000
v 3.500000 0.250000 -3.500000
v 1.750000 0.500000 -3.250000
v 1.750000 0.500000 -1.750000
v 3.250000 0.500000 -1.750000
v 3.250000 0.500000 -3.250000
v 1.875000 0.500000 -1.875000
v 3.125000 0.500000 -1.875000
v 1.875000 0.500000 -3.125000
v 3.125000 0.500000 -3.125000
v 1.875000 3.500000 -1.875000
v 3.125000 3.500000 -1.875000
v 1.875000 3.500000 -3.125000
v 3.125000 3.500000 -3.125000
v 3.250000 3.500000 3.250000
v 3.250000 3.500000 -3.250000
v -3.250000 3.500000 3.250000
v -3.250000 3.500000 -3.250000
v 1.750000 3.500000 1.750000
v 1.750000 3.500000 -1.750000
v -1.750000 3.500000 1.750000
v -1.750000 3.500000 -1.750000
v -1.750000 4.000000 1.750000
v -3.250000 4.000000 3.250000
v -1.750000 4.000000 -1.750000
v -3.250000 4.000000 -3.250000
v 1.750000 4.000000 1.750000
v 3.250000 4.000000 3.250000
v 1.750000 4.000000 -1.750000
v 3.250000 4.000000 -3.250000
v 2.250000 2.750000 1.875000
v 2.750000 2.750000 1.875000
v 2.250000 2.250000 1.875000
v 2.750000 2.250000 1.875000
v 2.250000 3.500000 0.625000
v 2.250000 3.500000 1.125000
v 2.750000 3.500000 1.125000
v 2.750000 3.500000 0.625000
v 2.250000 2.750000 -1.875000
v 2.750000 2.750000 -1.875000
v 2.250000 2.250000 -1.875000
v 2.750000 2.250000 -1.875000
v 2.250000 3.500000 -0.625000
v 2.250000 3.500000 -1.125000
v 2.750000 3.500000 -1.125000
v 2.750000 3.500000 -0.625000
v -2.250000 2.750000 1.875000
v -2.750000 2.750000 1.875000
v -2.250000 2.250000 1.875000
v -2.750000 2.250000 1.875000
v -2.250000 3.500000 0.625000
v -2.250000 3.500000 1.125000
v -2.750000 3.500000 1.125000
v -2.750000 3.500000 0.625000
v -2.250000 2.750000 -1.875000
v -2.750000 2.750000 -1.875000
v -2.250000 2.250000 -1.875000
v -2.750000 2.250000 -1.875000
v -2.250000 3.500000 -0.625000
v -2.250000 3.500000 -1.125000
v -2.750000 3.500000 -1.125000
v -2.750000 3.500000 -0.625000
v 1.875000 2.750000 -2.250000
v 1.875000 2.750000 -2.750000
v 1.875000 2.250000 -2.250000
v 1.875000 2.250000 -2.750000
v 0.625000 3.500000 -2.250000
v 1.125000 3.500000 -2.250000
v 1.125000 3.500000 -2.750000
v 0.625000 3.500000 -2.750000
v -1.875000 2.750000 -2.250000
v -1.875000 2.750000 -2.750000
v -1.875000 2.250000 -2.250000
v -1.875000 2.250000 -2.750000
v -0.625000 3.500000 -2.250000
v -1.125000 3.500000 -2.250000
v -1.125000 3.500000 -2.750000
v -0.625000 3.500000 -2.750000
v 1.875000 2.750000 2.250000
v 1.875000 2.750000 2.750000
v 1.875000 2.250000 2.250000
v 1.875000 2.250000 2.750000
v 0.625000 3.500000 2.250000
v 1.125000 3.500000 2.250000
v 1.125000 3.500000 2.750000
v 0.625000 3.500000 2.750000
v -1.875000 2.750000 2.250000
v -1.875000 2.750000 2.750000
v -1.875000 2.250000 2.250000
v -1.875000 2.250000 2.750000
v -0.625000 3.500000 2.250000
v -1.125000 3.500000 2.250000
v -1.125000 3.500000 2.750000
v -0.625000 3.500000 2.750000
v -1.000000 6.500000 0.437500
v 1.000000 6.500000 0.437500
v -1.000000 6.500000 -0.437500
v 1.000000 6.500000 -0.437500
v 3.250000 5.500000 -3.250000
v 1.750000 5.500000 -1.750000
v 3.250000 5.500000 3.250000
v 1.750000 5.500000 1.750000
v -3.250000 5.500000 -3.250000
v -1.750000 5.500000 -1.750000
v -3.250000 5.500000 3.250000
v -1.750000 5.500000 1.750000
v -1.750000 5.000000 -1.750000
v -1.750000 5.000000 1.750000
v 1.750000 5.000000 -1.750000
v 1.750000 5.000000 1.750000
v -3.250000 5.000000 -3.250000
v -3.250000 5.000000 3.250000
v 3.250000 5.000000 -3.250000
v 3.250000 5.000000 3.250000
v -1.000000 3.500000 -0.437500
v -1.000000 3.500000 0.437500
v 1.000000 3.500000 0.437500
v 1.000000 3.500000 -0.437500
v 0.437500 6.500000 -1.000000
v -0.437500 6.500000 -1.000000
v 0.437500 6.500000 1.000000
v -0.437500 6.500000 1.000000
v -0.437500 3.500000 -1.000000
v -0.437500 3.500000 1.000000
v 0.437500 3.500000 1.000000
v 0.437500 3.500000 -1.000000
v -0.437500 6.500000 0.437500
v 0.437500 6.500000 0.437500
v -0.437500 6.500000 -0.437500
v 0.437500 6.500000 -0.437500
v 1.875000 4.000000 -1.875000
v 3.125000 4.000000 -1.875000
v 1.875000 4.000000 -3.125000
v 3.125000 4.000000 -3.125000
v 1.875000 5.000000 -1.875000
v 3.125000 5.000000 -1.875000
v 1.875000 5.000000 -3.125000
v 3.125000 5.000000 -3.125000
v -0.875000 5.000000 0.500000
v -0.875000 4.000000 0.500000
v -0.875000 5.000000 -0.500000
v -0.875000 4.000000 -0.500000
v -2.875000 5.000000 -0.500000
v -2.875000 5.000000 0.500000
v -2.875000 4.000000 0.500000
v -2.875000 4.000000 -0.500000
v 1.875000 5.500000 -1.875000
v 3.125000 5.500000 -1.875000
v 1.875000 5.500000 -3.125000
v 3.125000 5.500000 -3.125000
v 1.875000 6.000000 -1.875000
v 3.125000 6.000000 -1.875000
v 1.875000 6.000000 -3.125000
v 3.125000 6.000000 -3.125000
v 0.875000 5.000000 -0.500000
v 0.875000 4.000000 -0.500000
v 0.875000 5.000000 0.500000
v 0.875000 4.000000 0.500000
v 2.875000 5.000000 0.500000
v 2.875000 5.000000 -0.500000
v 2.875000 4.000000 -0.500000
v 2.875000 4.000000 0.500000
v -2.875000 4.750000 -0.250000
v -2.875000 4.750000 0.250000
v -2.875000 4.250000 0.250000
v -2.875000 4.250000 -0.250000
v -3.500000 4.750000 -0.250000
v -3.500000 4.750000 0.250000
v -3.500000 4.250000 0.250000
v -3.500000 4.250000 -0.250000
v 2.875000 4.750000 0.250000
v 2.875000 4.750000 -0.250000
v 2.875000 4.250000 -0.250000
v 2.875000 4.250000 0.250000
v 3.500000 4.750000 0.250000
v 3.500000 4.750000 -0.250000
v 3.500000 4.250000 -0.250000
v 3.500000 4.250000 0.250000
v 1.000000 4.000000 -2.000000
v 1.000000 5.000000 -2.000000
v -1.000000 4.500000 -3.000000
v 1.000000 4.500000 -3.000000
v -1.000000 4.250000 -2.933013
v 1.000000 4.250000 -2.933013
v -1.000000 4.066987 -2.750000
v 1.000000 4.066987 -2.750000
v -1.000000 4.000000 -2.500000
v 1.000000 4.000000 -2.500000
v -1.000000 4.066987 -2.250000
v 1.000000 4.066987 -2.250000
v -1.000000 4.250000 -2.066987
v 1.000000 4.250000 -2.066987
v -1.000000 4.500000 -2.000000
v 1.000000 4.500000 -2.000000
v -1.000000 4.750000 -2.066987
v 1.000000 4.750000 -2.066987
v -1.000000 4.933012 -2.250000
v 1.000000 4.933012 -2.250000
v -1.000000 5.000000 -2.500000
v 1.000000 5.000000 -2.500000
v -1.000000 4.933013 -2.750000
v 1.000000 4.933013 -2.750000
v -1.000000 4.750000 -2.933012
v 1.000000 4.750000 -2.933012
v 1.000000 5.000000 -3.000000
v 1.000000 4.000000 -3.000000
v 1.125000 4.000000 -3.000000
v 1.125000 5.000000 -3.000000
v 1.125000 4.000000 -2.000000
v 1.125000 5.000000 -2.000000
v -1.125000 4.000000 -2.000000
v -1.125000 5.000000 -2.000000
v -1.125000 5.000000 -3.000000
v -1.125000 4.000000 -3.000000
v -1.000000 4.000000 -3.000000
v -1.000000 5.000000 -3.000000
v -1.000000 4.000000 -2.000000
v -1.000000 5.000000 -2.000000
v 1.000000 5.000000 -3.000000
v 1.000000 4.000000 -3.000000
v -1.000000 4.000000 -3.000000
v -1.000000 5.000000 -3.000000
v 1.000000 4.000000 -2.000000
v 1.000000 5.000000 -2.000000
v -1.000000 4.000000 -2.000000
v -1.000000 5.000000 -2.000000
v 1.875000 4.250000 -2.625000
v 1.875000 4.338388 -2.588388
v 1.875000 4.375000 -2.500000
v 1.875000 4.338388 -2.411612
v 1.875000 4.250000 -2.375000
v 1.875000 4.161612 -2.411612
v 1.875000 4.125000 -2.500000
v 1.875000 4.161612 -2.588388
v 1.875000 4.750000 -2.625000
v 1.875000 4.838388 -2.588388
v 1.875000 4.875000 -2.500000
v 1.875000 4.838388 -2.411612
v 1.875000 4.750000 -2.375000
v 1.875000 4.661612 -2.411612
v 1.875000 4.625000 -2.500000
v 1.875000 4.661612 -2.588388
v 1.125000 4.250000 -2.625000
v 1.125000 4.338388 -2.588388
v 1.125000 4.375000 -2.500000
v 1.125000 4.338388 -2.411612
v 1.125000 4.250000 -2.375000
v 1.125000 4.161612 -2.411612
v 1.125000 4.125000 -2.500000
v 1.125000 4.161612 -2.588388
v 1.125000 4.750000 -2.625000
v 1.125000 4.838388 -2.588388
v 1.125000 4.875000 -2.500000
v 1.125000 4.838388 -2.411612
v 1.125000 4.750000 -2.375000
v 1.125000 4.661612 -2.411612
v 1.125000 4.625000 -2.500000
v 1.125000 4.661612 -2.588388
v -1.125000 4.250000 -2.625000
v -1.125000 4.338388 -2.588388
v -1.125000 4.375000 -2.500000
v -1.125000 4.338388 -2.411612
v -1.125000 4.250000 -2.375000
v -1.125000 4.161612 -2.411612
v -1.125000 4.125000 -2.500000
v -1.125000 4.161612 -2.588388
v -1.125000 4.750000 -2.625000
v -1.125000 4.838388 -2.588388
v -1.125000 4.875000 -2.500000
v -1.125000 4.838388 -2.411612
v -1.125000 4.750000 -2.375000
v -1.125000 4.661612 -2.411612
v -1.125000 4.625000 -2.500000
v -1.125000 4.661612 -2.588388
v -1.875000 4.250000 -2.625000
v -1.875000 4.338388 -2.588388
v -1.875000 4.375000 -2.500000
v -1.875000 4.338388 -2.411612
v -1.875000 4.250000 -2.375000
v -1.875000 4.161612 -2.411612
v -1.875000 4.125000 -2.500000
v -1.875000 4.161612 -2.588388
v -1.875000 4.750000 -2.625000
v -1.875000 4.838388 -2.588388
v -1.875000 4.875000 -2.500000
v -1.875000 4.838388 -2.411612
v -1.875000 4.750000 -2.375000
v -1.875000 4.661612 -2.411612
v -1.875000 4.625000 -2.500000
v -1.875000 4.661612 -2.588388
v 1.000000 5.500000 -2.000000
v 1.000000 6.500000 -2.000000
v -1.000000 6.000000 -3.000000
v 1.000000 6.000000 -3.000000
v -1.000000 5.750000 -2.933013
v 1.000000 5.750000 -2.933013
v -1.000000 5.566987 -2.750000
v 1.000000 5.566987 -2.750000
v -1.000000 5.500000 -2.500000
v 1.000000 5.500000 -2.500000
v -1.000000 5.566987 -2.250000
v 1.000000 5.566987 -2.250000
v -1.000000 5.750000 -2.066987
v 1.000000 5.750000 -2.066987
v -1.000000 6.000000 -2.000000
v 1.000000 6.000000 -2.000000
v -1.000000 6.250000 -2.066987
v 1.000000 6.250000 -2.066987
v -1.000000 6.433012 -2.250000
v 1.000000 6.433012 -2.250000
v -1.000000 6.500000 -2.500000
v 1.000000 6.500000 -2.500000
v -1.000000 6.433013 -2.750000
v 1.000000 6.433013 -2.750000
v -1.000000 6.250000 -2.933012
v 1.000000 6.250000 -2.933012
v 1.000000 6.500000 -3.000000
v 1.000000 5.500000 -3.000000
v 1.125000 5.500000 -3.000000
v 1.125000 6.500000 -3.000000
v 1.125000 5.500000 -2.000000
v 1.125000 6.500000 -2.000000
v -1.125000 5.500000 -2.000000
v -1.125000 6.500000 -2.000000
v -1.125000 6.500000 -3.000000
v -1.125000 5.500000 -3.000000
v -1.000000 5.500000 -3.000000
v -1.000000 6.500000 -3.000000
v -1.000000 5.500000 -2.000000
v -1.000000 6.500000 -2.000000
v 1.000000 6.500000 -3.000000
v 1.000000 5.500000 -3.000000
v -1.000000 5.500000 -3.000000
v -1.000000 6.500000 -3.000000
v 1.000000 5.500000 -2.000000
v 1.000000 6.500000 -2.000000
v -1.000000 5.500000 -2.000000
v -1.000000 6.500000 -2.000000
v 1.000000 6.500000 -2.000000
v 1.000000 6.500000 -3.000000
v -1.000000 6.500000 -3.000000
v -1.000000 6.500000 -2.000000
v 1.875000 5.750000 -2.625000
v 1.875000 5.838388 -2.588388
v 1.875000 5.875000 -2.500000
v 1.875000 5.838388 -2.411612
v 1.875000 5.750000 -2.375000
v 1.875000 5.661612 -2.411612
v 1.875000 5.625000 -2.500000
v 1.875000 5.661612 -2.588388
v 2.375000 6.250000 -2.625000
v 2.375000 6.338388 -2.588388
v 2.375000 6.375000 -2.500000
v 2.375000 6.338388 -2.411612
v 2.375000 6.250000 -2.375000
v 2.375000 6.161612 -2.411612
v 2.375000 6.125000 -2.500000
v 2.375000 6.161612 -2.588388
v 1.125000 5.750000 -2.625000
v 1.125000 5.838388 -2.588388
v 1.125000 5.875000 -2.500000
v 1.125000 5.838388 -2.411612
v 1.125000 5.750000 -2.375000
v 1.125000 5.661612 -2.411612
v 1.125000 5.625000 -2.500000
v 1.125000 5.661612 -2.588388
v 1.125000 6.250000 -2.625000
v 1.125000 6.338388 -2.588388
v 1.125000 6.375000 -2.500000
v 1.125000 6.338388 -2.411612
v 1.125000 6.250000 -2.375000
v 1.125000 6.161612 -2.411612
v 1.125000 6.125000 -2.500000
v 1.125000 6.161612 -2.588388
v -1.125000 5.750000 -2.625000
v -1.125000 5.838388 -2.588388
v -1.125000 5.875000 -2.500000
v -1.125000 5.838388 -2.411612
v -1.125000 5.750000 -2.375000
v -1.125000 5.661612 -2.411612
v -1.125000 5.625000 -2.500000
v -1.125000 5.661612 -2.588388
v -1.125000 6.250000 -2.625000
v -1.125000 6.338388 -2.588388
v -1.125000 6.375000 -2.500000
v -1.125000 6.338388 -2.411612
v -1.125000 6.250000 -2.375000
v -1.125000 6.161612 -2.411612
v -1.125000 6.125000 -2.500000
v -1.125000 6.161612 -2.588388
v -1.875000 5.750000 -2.625000
v -1.875000 5.838388 -2.588388
v -1.875000 5.875000 -2.500000
v -1.875000 5.838388 -2.411612
v -1.875000 5.750000 -2.375000
v -1.875000 5.661612 -2.411612
v -1.875000 5.625000 -2.500000
v -1.875000 5.661612 -2.588388
v -2.375000 6.250000 -2.625000
v -2.375000 6.338388 -2.588388
v -2.375000 6.375000 -2.500000
v -2.375000 6.338388 -2.411612
v -2.375000 6.250000 -2.375000
v -2.375000 6.161612 -2.411612
v -2.375000 6.125000 -2.500000
v -2.375000 6.161612 -2.588388
v -2.463388 6.213388 -2.625000
v -2.525888 6.275888 -2.588388
v -2.551777 6.301777 -2.500000
v -2.525888 6.275888 -2.411612
v -2.463388 6.213388 -2.375000
v -2.400888 6.150888 -2.411612
v -2.400888 6.150888 -2.588388
v -2.500000 6.125000 -2.625000
v -2.588388 6.125000 -2.588388
v -2.625000 6.125000 -2.500000
v -2.588388 6.125000 -2.411612
v -2.500000 6.125000 -2.375000
v -2.411612 6.125000 -2.411612
v -2.411612 6.125000 -2.588388
v -2.375000 6.000000 -2.500000
v -2.500000 6.000000 -2.625000
v -2.588388 6.000000 -2.588388
v -2.625000 6.000000 -2.500000
v -2.588388 6.000000 -2.411612
v -2.500000 6.000000 -2.375000
v -2.411612 6.000000 -2.411612
v -2.411612 6.000000 -2.588388
v 2.463388 6.213388 -2.625000
v 2.525888 6.275888 -2.588388
v 2.551777 6.301777 -2.500000
v 2.525888 6.275888 -2.411612
v 2.463388 6.213388 -2.375000
v 2.400888 6.150888 -2.411612
v 2.400888 6.150888 -2.588388
v 2.500000 6.125000 -2.625000
v 2.588388 6.125000 -2.588388
v 2.625000 6.125000 -2.500000
v 2.588388 6.125000 -2.411612
v 2.500000 6.125000 -2.375000
v 2.411612 6.125000 -2.411612
v 2.411612 6.125000 -2.588388
v 2.375000 6.000000 -2.500000
v 2.500000 6.000000 -2.625000
v 2.588388 6.000000 -2.588388
v 2.625000 6.000000 -2.500000
v 2.588388 6.000000 -2.411612
v 2.500000 6.000000 -2.375000
v 2.411612 6.000000 -2.411612
v 2.411612 6.000000 -2.588388
v -2.625000 4.500000 -1.875000
v -2.588388 4.588388 -1.875000
v -2.500000 4.625000 -1.875000
v -2.411612 4.588388 -1.875000
v -2.375000 4.500000 -1.875000
v -2.411612 4.411611 -1.875000
v -2.500000 4.375000 -1.875000
v -2.588388 4.411611 -1.875000
v -2.625000 4.500000 -0.500000
v -2.588388 4.588388 -0.500000
v -2.500000 4.625000 -0.500000
v -2.411612 4.588388 -0.500000
v -2.375000 4.500000 -0.500000
v -2.411612 4.411611 -0.500000
v -2.500000 4.375000 -0.500000
v -2.588388 4.411611 -0.500000
v 2.625000 4.500000 -0.500000
v 2.588388 4.588388 -0.500000
v 2.500000 4.625000 -0.500000
v 2.411612 4.588388 -0.500000
v 2.375000 4.500000 -0.500000
v 2.411612 4.411611 -0.500000
v 2.500000 4.375000 -0.500000
v 2.588388 4.411611 -0.500000
v 2.625000 4.500000 -1.875000
v 2.588388 4.588388 -1.875000
v 2.500000 4.625000 -1.875000
v 2.411612 4.588388 -1.875000
v 2.375000 4.500000 -1.875000
v 2.411612 4.411611 -1.875000
v 2.500000 4.375000 -1.875000
v 2.588388 4.411611 -1.875000
v -0.500000 4.000000 3.000000
v 0.500000 4.000000 3.000000
v -0.500000 4.000000 2.000000
v 0.500000 4.000000 2.000000
v -0.500000 4.750000 2.000000
v -0.500000 4.750000 3.000000
v 0.500000 4.750000 3.000000
v 0.500000 4.750000 2.000000
v -1.000000 0.000000 3.000000
v 1.000000 0.000000 3.000000
v -1.000000 0.000000 2.000000
v 1.000000 0.000000 2.000000
v -1.000000 0.750000 2.000000
v -1.000000 0.750000 3.000000
v 1.000000 0.750000 3.000000
v 1.000000 0.750000 2.000000
v -1.250000 1.000000 1.750000
v -1.250000 1.000000 3.250000
v 1.250000 1.000000 3.250000
v 1.250000 1.000000 1.750000
v -1.250000 1.250000 1.750000
v -1.250000 1.250000 3.250000
v 1.250000 1.250000 3.250000
v 1.250000 1.250000 1.750000
v -0.500000 0.000000 3.500000
v 0.500000 0.000000 3.500000
v -0.500000 1.000000 3.500000
v 0.500000 1.000000 3.500000
v -0.500000 0.000000 3.250000
v 0.500000 0.000000 3.250000
v -0.500000 1.000000 3.250000
v 0.500000 1.000000 3.250000
v -0.250000 0.250000 3.000000
v 0.250000 0.250000 3.000000
v -0.250000 0.750000 3.000000
v 0.250000 0.750000 3.000000
v -0.375000 0.875000 3.500000
v -0.375000 0.125000 3.500000
v 0.375000 0.125000 3.500000
v 0.375000 0.875000 3.500000
v -0.375000 0.875000 3.375000
v -0.375000 0.125000 3.375000
v 0.375000 0.125000 3.375000
v 0.375000 0.875000 3.375000
v -1.000000 1.250000 1.875000
v -1.000000 1.250000 3.125000
v 1.000000 1.250000 3.125000
v 1.000000 1.250000 1.875000
v -1.000000 1.000000 1.875000
v -1.000000 1.000000 3.125000
v 1.000000 1.000000 3.125000
v 1.000000 1.000000 1.875000
v -0.500000 3.500000 3.000000
v 0.500000 3.500000 3.000000
v -0.500000 3.500000 2.000000
v 0.500000 3.500000 2.000000
v -0.500000 3.250000 3.000000
v 0.500000 3.250000 3.000000
v -0.500000 3.250000 2.000000
v 0.500000 3.250000 2.000000
v -1.250000 1.750000 1.750000
v -1.250000 1.750000 3.250000
v 1.250000 1.750000 3.250000
v 1.250000 1.750000 1.750000
v -1.000000 1.750000 1.875000
v -1.000000 1.750000 3.125000
v 1.000000 1.750000 3.125000
v 1.000000 1.750000 1.875000
v -1.250000 2.125000 1.750000
v -1.250000 2.125000 3.250000
v 1.250000 2.125000 3.250000
v 1.250000 2.125000 1.750000
v -1.000000 2.125000 1.875000
v -1.000000 2.125000 3.125000
v 1.000000 2.125000 3.125000
v 1.000000 2.125000 1.875000
v -0.250000 2.875000 2.250000
v -0.250000 2.875000 2.750000
v 0.250000 2.875000 2.750000
v 0.250000 2.875000 2.250000
v 1.062500 1.250000 3.000000
v 1.187500 1.250000 3.000000
v 1.062500 1.250000 2.000000
v 1.187500 1.250000 2.000000
v 1.062500 1.750000 3.000000
v 1.187500 1.750000 3.000000
v 1.062500 1.750000 2.000000
v 1.187500 1.750000 2.000000
v -1.187500 1.250000 3.000000
v -1.062500 1.250000 3.000000
v -1.187500 1.250000 2.000000
v -1.062500 1.250000 2.000000
v -1.187500 1.750000 3.000000
v -1.062500 1.750000 3.000000
v -1.187500 1.750000 2.000000
v -1.062500 1.750000 2.000000
v -1.250000 2.000000 3.000000
v -1.250000 1.875000 3.000000
v -1.250000 2.000000 2.000000
v -1.250000 1.875000 2.000000
v -1.875000 2.000000 3.000000
v -1.875000 1.875000 3.000000
v -1.875000 2.000000 2.000000
v -1.875000 1.875000 2.000000
v 1.875000 2.000000 3.000000
v 1.875000 1.875000 3.000000
v 1.875000 2.000000 2.000000
v 1.875000 1.875000 2.000000
v 1.250000 2.000000 3.000000
v 1.250000 1.875000 3.000000
v 1.250000 2.000000 2.000000
v 1.250000 1.875000 2.000000
v 0.000000 7.000000 -0.250000
v -0.176777 7.000000 -0.176777
v -0.250000 7.000000 0.000000
v -0.176777 7.000000 0.176777
v 0.000000 7.000000 0.250000
v 0.176777 7.000000 0.176777
v 0.250000 7.000000 -0.000000
v 0.176777 7.000000 -0.176777
v 0.000000 7.250000 -0.250000
v -0.176777 7.250000 -0.176777
v -0.250000 7.250000 0.000000
v -0.176777 7.250000 0.176777
v 0.000000 7.250000 0.250000
v 0.176777 7.250000 0.176777
v 0.250000 7.250000 -0.000000
v 0.176777 7.250000 -0.176777
v -0.073223 7.426777 -0.250000
v -0.198223 7.301777 -0.176777
v -0.198223 7.301777 0.176777
v -0.073223 7.426777 0.250000
v 0.051777 7.551777 0.176777
v 0.103553 7.603553 -0.000000
v 0.051777 7.551777 -0.176777
v -0.250000 7.500000 -0.250000
v -0.250000 7.323224 -0.176777
v -0.250000 7.323224 0.176777
v -0.250000 7.500000 0.250000
v -0.250000 7.676777 0.176777
v -0.250000 7.750000 -0.000000
v -0.250000 7.676777 -0.176777
v -2.250000 7.250000 0.000000
v -2.250000 7.500000 -0.250000
v -2.250000 7.323224 -0.176777
v -2.250000 7.323224 0.176777
v -2.250000 7.500000 0.250000
v -2.250000 7.676777 0.176777
v -2.250000 7.750000 -0.000000
v -2.250000 7.676777 -0.176777
v -2.426777 7.426776 -0.250000
v -2.301777 7.301777 -0.176777
v -2.301777 7.301777 0.176777
v -2.426777 7.426777 0.250000
v -2.551777 7.551777 0.176777
v -2.603553 7.603553 -0.000000
v -2.551777 7.551777 -0.176777
v -2.500000 7.250000 -0.250000
v -2.323224 7.250000 -0.176777
v -2.323224 7.250000 0.176777
v -2.500000 7.250000 0.250000
v -2.676777 7.250000 0.176777
v -2.750000 7.250000 -0.000000
v -2.676777 7.250000 -0.176777
v -2.250000 5.500000 0.000000
v -2.500000 5.500000 -0.250000
v -2.323224 5.500000 -0.176777
v -2.323224 5.500000 0.176777
v -2.500000 5.500000 0.250000
v -2.676777 5.500000 0.176777
v -2.750000 5.500000 -0.000000
v -2.676777 5.500000 -0.176777
v 2.937500 6.625000 0.312500
v 2.937500 6.625000 1.187500
v 2.062500 6.625000 1.187500
v 2.062500 6.625000 0.312500
v 2.937500 6.500000 0.312500
v 2.937500 6.500000 1.187500
v 2.062500 6.500000 1.187500
v 2.062500 6.500000 0.312500
v 2.000000 5.500000 -0.250000
v 3.000000 5.500000 -0.250000
v 2.000000 5.500000 -1.250000
v 3.000000 5.500000 -1.250000
v 2.000000 6.500000 -1.250000
v 2.000000 6.500000 -0.250000
v 3.000000 6.500000 -0.250000
v 3.000000 6.500000 -1.250000
v 2.500000 5.875000 0.250000
v 2.411612 5.838388 0.250000
v 2.375000 5.750000 0.250000
v 2.411612 5.661612 0.250000
v 2.500000 5.625000 0.250000
v 2.588388 5.661612 0.250000
v 2.625000 5.750000 0.250000
v 2.588388 5.838388 0.250000
v 2.500000 5.875000 0.125000
v 2.411612 5.838388 0.125000
v 2.375000 5.750000 0.125000
v 2.411612 5.661612 0.125000
v 2.500000 5.625000 0.125000
v 2.588388 5.661612 0.125000
v 2.625000 5.750000 0.125000
v 2.588388 5.838388 0.125000
v 2.463388 5.875000 0.036612
v 2.400888 5.838388 0.099112
v 2.400888 5.661612 0.099112
v 2.463388 5.625000 0.036612
v 2.525888 5.661612 -0.025888
v 2.551777 5.750000 -0.051777
v 2.525888 5.838388 -0.025888
v 2.375000 5.875000 -0.000000
v 2.375000 5.838388 0.088389
v 2.375000 5.661612 0.088389
v 2.375000 5.625000 -0.000000
v 2.375000 5.661612 -0.088388
v 2.375000 5.750000 -0.125000
v 2.375000 5.838388 -0.088388
v 1.000000 5.750000 0.125000
v 1.000000 5.875000 -0.000000
v 1.000000 5.838388 0.088389
v 1.000000 5.661612 0.088389
v 1.000000 5.625000 -0.000000
v 1.000000 5.661612 -0.088388
v 1.000000 5.750000 -0.125000
v 1.000000 5.838388 -0.088388
v 2.500000 6.125000 -0.250000
v 2.411612 6.161612 -0.250000
v 2.375000 6.250000 -0.250000
v 2.411612 6.338388 -0.250000
v 2.500000 6.375000 -0.250000
v 2.588388 6.338388 -0.250000
v 2.625000 6.250000 -0.250000
v 2.588388 6.161612 -0.250000
v 2.500000 6.125000 -0.125000
v 2.411612 6.161612 -0.125000
v 2.375000 6.250000 -0.125000
v 2.411612 6.338388 -0.125000
v 2.500000 6.375000 -0.125000
v 2.588388 6.338388 -0.125000
v 2.625000 6.250000 -0.125000
v 2.588388 6.161612 -0.125000
v 2.463388 6.125000 -0.036612
v 2.400888 6.161612 -0.099112
v 2.400888 6.338388 -0.099112
v 2.463388 6.375000 -0.036612
v 2.525888 6.338388 0.025888
v 2.551777 6.250000 0.051777
v 2.525888 6.161612 0.025888
v 2.375000 6.125000 0.000000
v 2.375000 6.161612 -0.088389
v 2.375000 6.338388 -0.088389
v 2.375000 6.375000 0.000000
v 2.375000 6.338388 0.088388
v 2.375000 6.250000 0.125000
v 2.375000 6.161612 0.088388
v 1.000000 6.250000 -0.125000
v 1.000000 6.125000 0.000000
v 1.000000 6.161612 -0.088389
v 1.000000 6.338388 -0.088389
v 1.000000 6.375000 0.000000
v 1.000000 6.338388 0.088388
v 1.000000 6.250000 0.125000
v 1.000000 6.161612 0.088388
v 3.000000 6.500000 0.250000
v 3.000000 6.500000 1.250000
v 2.000000 6.500000 1.250000
v 2.000000 6.500000 0.250000
v 3.000000 5.500000 0.250000
v 2.000000 5.500000 0.250000
v 3.000000 5.500000 1.250000
v 2.000000 5.500000 1.250000
v 2.062500 6.500000 -1.187500
v 2.062500 6.500000 -0.312500
v 2.937500 6.500000 -0.312500
v 2.937500 6.500000 -1.187500
v 2.062500 6.625000 -1.187500
v 2.062500 6.625000 -0.312500
v 2.937500 6.625000 -0.312500
v 2.937500 6.625000 -1.187500
v -0.375000 3.125000 1.125000
v 0.375000 3.125000 1.125000
v -0.375000 3.375000 1.125000
v 0.375000 3.375000 1.125000
v 0.375000 3.375000 0.625000
v -0.375000 3.375000 0.625000
v 0.375000 3.125000 0.625000
v -0.375000 3.125000 0.625000
v -0.625000 3.000000 0.625000
v 0.625000 3.000000 0.625000
v -0.625000 3.000000 -0.625000
v 0.625000 3.000000 -0.625000
v 0.625000 3.500000 -0.625000
v -0.625000 3.500000 -0.625000
v 0.625000 3.500000 0.625000
v -0.625000 3.500000 0.625000
v -0.375000 3.500000 1.500000
v 0.375000 3.500000 1.500000
v -0.375000 3.500000 1.250000
v 0.375000 3.500000 1.250000
v -0.375000 4.250000 1.500000
v 0.375000 4.250000 1.500000
v -0.375000 4.250000 1.250000
v 0.375000 4.250000 1.250000
v -0.375000 4.375000 1.625000
v 0.375000 4.375000 1.625000
v -0.375000 4.625000 1.625000
v 0.375000 4.625000 1.625000
v -0.375000 4.375000 2.000000
v 0.375000 4.375000 2.000000
v -0.375000 4.625000 2.000000
v 0.375000 4.625000 2.000000
v -1.250000 4.250000 3.500000
v -0.750000 4.250000 3.500000
v -1.250000 4.750000 3.500000
v -0.750000 4.750000 3.500000
v -1.250000 4.750000 2.875000
v -1.250000 4.250000 2.875000
v -0.750000 4.250000 2.875000
v -0.750000 4.750000 2.875000
v -1.375000 4.750000 2.750000
v -1.375000 4.250000 2.750000
v -1.375000 4.250000 2.250000
v -1.375000 4.750000 2.250000
v -1.875000 4.750000 2.750000
v -1.875000 4.250000 2.750000
v -1.875000 4.250000 2.250000
v -1.875000 4.750000 2.250000
v 1.250000 4.250000 3.500000
v 0.750000 4.250000 3.500000
v 1.250000 4.750000 3.500000
v 0.750000 4.750000 3.500000
v 1.250000 4.750000 2.875000
v 1.250000 4.250000 2.875000
v 0.750000 4.250000 2.875000
v 0.750000 4.750000 2.875000
v 1.375000 4.750000 2.750000
v 1.375000 4.250000 2.750000
v 1.375000 4.250000 2.250000
v 1.375000 4.750000 2.250000
v 1.875000 4.750000 2.750000
v 1.875000 4.250000 2.750000
v 1.875000 4.250000 2.250000
v 1.875000 4.750000 2.250000
v -3.500000 0.000000 -1.500000
v -1.500000 0.000000 -1.500000
v -3.500000 0.000000 -3.500000
v -1.500000 0.000000 -3.500000
v -3.500000 0.250000 -3.500000
v -3.500000 0.250000 -1.500000
v -1.500000 0.250000 -1.500000
v -1.500000 0.250000 -3.500000
v -3.250000 0.500000 -3.250000
v -3.250000 0.500000 -1.750000
v -1.750000 0.500000 -1.750000
v -1.750000 0.500000 -3.250000
v 1.500000 0.000000 3.500000
v 3.500000 0.000000 3.500000
v 1.500000 0.000000 1.500000
v 3.500000 0.000000 1.500000
v 1.500000 0.250000 1.500000
v 1.500000 0.250000 3.500000
v 3.500000 0.250000 3.500000
v 3.500000 0.250000 1.500000
v 1.750000 0.500000 1.750000
v 1.750000 0.500000 3.250000
v 3.250000 0.500000 3.250000
v 3.250000 0.500000 1.750000
v -3.500000 0.000000 3.500000
v -1.500000 0.000000 3.500000
v -3.500000 0.000000 1.500000
v -1.500000 0.000000 1.500000
v -3.500000 0.250000 1.500000
v -3.500000 0.250000 3.500000
v -1.500000 0.250000 3.500000
v -1.500000 0.250000 1.500000
v -3.250000 0.500000 1.750000
v -3.250000 0.500000 3.250000
v -1.750000 0.500000 3.250000
v -1.750000 0.500000 1.750000
v -3.125000 0.500000 -1.875000
v -1.875000 0.500000 -1.875000
v -3.125000 0.500000 -3.125000
v -1.875000 0.500000 -3.125000
v -3.125000 3.500000 -1.875000
v -1.875000 3.500000 -1.875000
v -3.125000 3.500000 -3.125000
v -1.875000 3.500000 -3.125000
v -3.125000 4.000000 -1.875000
v -1.875000 4.000000 -1.875000
v -3.125000 4.000000 -3.125000
v -1.875000 4.000000 -3.125000
v -3.125000 5.000000 -1.875000
v -1.875000 5.000000 -1.875000
v -3.125000 5.000000 -3.125000
v -1.875000 5.000000 -3.125000
v -3.125000 5.500000 -1.875000
v -1.875000 5.500000 -1.875000
v -3.125000 5.500000 -3.125000
v -1.875000 5.500000 -3.125000
v -3.125000 6.000000 -1.875000
v -1.875000 6.000000 -1.875000
v -3.125000 6.000000 -3.125000
v -1.875000 6.000000 -3.125000
v 1.875000 0.500000 3.125000
v 3.125000 0.500000 3.125000
v 1.875000 0.500000 1.875000
v 3.125000 0.500000 1.875000
v 1.875000 3.500000 3.125000
v 3.125000 3.500000 3.125000
v 1.875000 3.500000 1.875000
v 3.125000 3.500000 1.875000
v 1.875000 4.000000 3.125000
v 3.125000 4.000000 3.125000
v 1.875000 4.000000 1.875000
v 3.125000 4.000000 1.875000
v 1.875000 5.000000 3.125000
v 3.125000 5.000000 3.125000
v 1.875000 5.000000 1.875000
v 3.125000 5.000000 1.875000
v 1.875000 5.500000 3.125000
v 3.125000 5.500000 3.125000
v 1.875000 5.500000 1.875000
v 3.125000 5.500000 1.875000
v 1.875000 6.000000 3.125000
v 3.125000 6.000000 3.125000
v 1.875000 6.000000 1.875000
v 3.125000 6.000000 1.875000
v -3.125000 0.500000 3.125000
v -1.875000 0.500000 3.125000
v -3.125000 0.500000 1.875000
v -1.875000 0.500000 1.875000
v -3.125000 3.500000 3.125000
v -1.875000 3.500000 3.125000
v -3.125000 3.500000 1.875000
v -1.875000 3.500000 1.875000
v -3.125000 4.000000 3.125000
v -1.875000 4.000000 3.125000
v -3.125000 4.000000 1.875000
v -1.875000 4.000000 1.875000
v -3.125000 5.000000 3.125000
v -1.875000 5.000000 3.125000
v -3.125000 5.000000 1.875000
v -1.875000 5.000000 1.875000
v -3.125000 5.500000 3.125000
v -1.875000 5.500000 3.125000
v -3.125000 5.500000 1.875000
v -1.875000 5.500000 1.875000
v -3.125000 6.000000 3.125000
v -1.875000 6.000000 3.125000
v -3.125000 6.000000 1.875000
v -1.875000 6.000000 1.875000
v -0.437500 6.500000 0.437500
v 0.437500 6.500000 0.437500
v -0.437500 6.500000 -0.437500
v 0.437500 6.500000 -0.437500
v -0.437500 7.000000 -0.437500
v -0.437500 7.000000 0.437500
v 0.437500 7.000000 0.437500
v 0.437500 7.000000 -0.437500
vt 0.069264 0.142857
vt 0.000000 0.000000
vt 0.069264 0.000000
vt 0.069264 0.160714
vt 0.008658 0.178571
vt -0.000000 0.160714
vt 0.069264 0.142857
vt -0.000000 0.160714
vt -0.000000 0.142857
vt 0.069264 0.142857
vt -0.000000 0.160714
vt -0.000000 0.142857
vt 0.069264 0.142857
vt -0.000000 0.160714
vt -0.000000 0.142857
vt -0.000000 0.142857
vt 0.008658 0.285714
vt 0.060606 0.178571
vt 0.060606 0.285714
vt 0.069264 0.160714
vt 0.008658 0.178571
vt 0.069264 0.160714
vt 0.008658 0.178571
vt 0.069264 0.160714
vt 0.008658 0.178571
vt 0.199134 0.214286
vt 0.155844 -0.000000
vt 0.199134 0.000000
vt 0.155844 0.214286
vt 0.112554 -0.000000
vt 0.242424 0.214286
vt 0.242424 0.000000
vt 0.112554 0.214286
vt 0.069264 -0.000000
vt 0.311688 0.107143
vt 0.259740 0.464286
vt 0.259740 0.000000
vt 0.432900 0.357143
vt 0.484848 0.464286
vt 0.432900 0.107143
vt 0.484848 0.000000
vt 0.259740 0.964286
vt 0.432900 0.857143
vt 0.484848 0.964286
vt 0.484848 0.500000
vt 0.432900 0.607143
vt 0.259740 0.500000
vt 0.311688 0.857143
vt 0.242424 0.500000
vt 0.242424 0.964286
vt 0.415584 0.107143
vt 0.329004 0.357143
vt 0.311688 0.357143
vt 0.259740 1.000000
vt 0.484848 1.000000
vt 0.311688 0.642857
vt 0.432900 0.642857
vt 0.432900 0.821429
vt 0.311688 0.821429
vt 0.502164 0.964286
vt 0.502164 0.500000
vt 0.259740 0.419643
vt 0.246753 0.321429
vt 0.259740 0.348214
vt 0.229437 0.446429
vt 0.216450 0.348214
vt 0.229437 0.321429
vt 0.229437 0.321429
vt 0.216450 0.419643
vt 0.216450 0.348214
vt 0.259740 0.348214
vt 0.246753 0.446429
vt 0.246753 0.321429
vt 0.229437 0.446429
vt 0.199134 0.419643
vt 0.199134 0.348214
vt 0.246753 0.446429
vt 0.216450 0.419643
vt 0.199134 0.348214
vt 0.229437 0.321429
vt 0.216450 0.419643
vt 0.216450 0.348214
vt 0.259740 0.348214
vt 0.246753 0.446429
vt 0.246753 0.321429
vt 0.259740 0.419643
vt 0.246753 0.321429
vt 0.259740 0.348214
vt 0.229437 0.446429
vt 0.216450 0.348214
vt 0.229437 0.321429
vt 0.246753 0.446429
vt 0.216450 0.419643
vt 0.199134 0.348214
vt 0.229437 0.446429
vt 0.199134 0.419643
vt 0.199134 0.348214
vt 0.259740 0.419643
vt 0.246753 0.321429
vt 0.259740 0.348214
vt 0.229437 0.446429
vt 0.216450 0.348214
vt 0.229437 0.321429
vt 0.229437 0.321429
vt 0.216450 0.419643
vt 0.216450 0.348214
vt 0.259740 0.348214
vt 0.246753 0.446429
vt 0.246753 0.321429
vt 0.229437 0.446429
vt 0.199134 0.419643
vt 0.199134 0.348214
vt 0.246753 0.446429
vt 0.216450 0.419643
vt 0.199134 0.348214
vt 0.229437 0.321429
vt 0.216450 0.419643
vt 0.216450 0.348214
vt 0.259740 0.348214
vt 0.246753 0.446429
vt 0.246753 0.321429
vt 0.259740 0.419643
vt 0.246753 0.321429
vt 0.259740 0.348214
vt 0.229437 0.446429
vt 0.216450 0.348214
vt 0.229437 0.321429
vt 0.246753 0.446429
vt 0.216450 0.419643
vt 0.199134 0.348214
vt 0.229437 0.446429
vt 0.199134 0.419643
vt 0.199134 0.348214
vt 0.112554 0.870536
vt 0.142857 0.910714
vt 0.112554 0.910714
vt 0.502164 0.964286
vt 0.484848 0.500000
vt 0.502164 0.500000
vt 0.432900 0.821429
vt 0.311688 0.857143
vt 0.311688 0.821429
vt 0.311688 0.642857
vt 0.432900 0.607143
vt 0.432900 0.642857
vt 0.259740 1.000000
vt 0.484848 0.964286
vt 0.484848 1.000000
vt 0.484848 0.464286
vt 0.259740 0.500000
vt 0.259740 0.464286
vt 0.311688 0.107143
vt 0.329004 0.357143
vt 0.311688 0.357143
vt 0.432900 0.357143
vt 0.415584 0.107143
vt 0.432900 0.107143
vt 0.242424 0.500000
vt 0.259740 0.964286
vt 0.242424 0.964286
vt 0.432900 0.857143
vt 0.259740 0.000000
vt 0.484848 0.000000
vt 0.112554 0.767857
vt 0.142857 0.553571
vt 0.142857 0.767857
vt 0.043290 0.553571
vt 0.062771 0.767857
vt 0.043290 0.767857
vt 0.212121 0.767857
vt 0.192641 0.553571
vt 0.212121 0.553571
vt 0.093074 0.553571
vt 0.093074 0.767857
vt 0.162338 0.767857
vt 0.192641 0.767857
vt 0.162338 0.553571
vt 0.112554 0.553571
vt 0.242424 0.553571
vt 0.242424 0.767857
vt 0.112554 0.808036
vt 0.093074 0.870536
vt 0.093074 0.808036
vt 0.142857 0.808036
vt 0.142857 0.870536
vt 0.162338 0.808036
vt 0.162338 0.870536
vt 0.199134 0.285714
vt 0.155844 0.214286
vt 0.199134 0.214286
vt 0.242424 0.285714
vt 0.242424 0.214286
vt 0.112554 0.285714
vt 0.069264 0.214286
vt 0.112554 0.214286
vt 0.155844 0.285714
vt 0.162338 0.450893
vt 0.093074 0.513393
vt 0.519481 0.071429
vt 0.554113 0.000000
vt 0.554113 0.071429
vt 0.588745 0.214286
vt 0.623377 0.071429
vt 0.623377 0.214286
vt 0.519481 0.214286
vt 0.554113 0.214286
vt 0.484848 0.214286
vt 0.588745 0.071429
vt 0.199134 0.321429
vt 0.155844 0.285714
vt 0.199134 0.285714
vt 0.242424 0.321429
vt 0.242424 0.285714
vt 0.112554 0.321429
vt 0.069264 0.285714
vt 0.112554 0.285714
vt 0.155844 0.321429
vt 0.155844 0.410714
vt 0.519481 0.071429
vt 0.554113 0.000000
vt 0.554113 0.071429
vt 0.588745 0.214286
vt 0.623377 0.071429
vt 0.623377 0.214286
vt 0.519481 0.214286
vt 0.554113 0.214286
vt 0.484848 0.214286
vt 0.588745 0.071429
vt 0.502164 0.250000
vt 0.519481 0.214286
vt 0.519481 0.250000
vt 0.502164 0.250000
vt 0.519481 0.214286
vt 0.519481 0.250000
vt 0.484848 0.294643
vt 0.502164 0.294643
vt 0.519481 0.294643
vt 0.536797 0.250000
vt 0.536797 0.294643
vt 0.554113 0.250000
vt 0.554113 0.294643
vt 0.484848 0.294643
vt 0.502164 0.294643
vt 0.519481 0.294643
vt 0.536797 0.250000
vt 0.536797 0.294643
vt 0.554113 0.250000
vt 0.554113 0.294643
vt 0.571429 0.758929
vt 0.502164 0.830357
vt 0.502164 0.758929
vt 0.571429 0.616071
vt 0.502164 0.687500
vt 0.502164 0.616071
vt 0.627706 0.223214
vt 0.662338 0.151786
vt 0.662338 0.223214
vt 0.666667 0.151786
vt 0.701299 0.223214
vt 0.666667 0.223214
vt 0.666667 0.223214
vt 0.662338 0.151786
vt 0.666667 0.151786
vt 0.623377 0.151786
vt 0.627706 0.223214
vt 0.623377 0.223214
vt 0.627706 0.151786
vt 0.662338 0.223214
vt 0.623377 0.151786
vt 0.627706 0.151786
vt 0.701299 0.151786
vt 0.701299 0.223214
vt 0.571429 0.758929
vt 0.502164 0.830357
vt 0.502164 0.758929
vt 0.571429 0.616071
vt 0.502164 0.687500
vt 0.502164 0.616071
vt 0.627706 0.223214
vt 0.662338 0.151786
vt 0.662338 0.223214
vt 0.666667 0.151786
vt 0.701299 0.223214
vt 0.666667 0.223214
vt 0.666667 0.223214
vt 0.662338 0.151786
vt 0.666667 0.151786
vt 0.623377 0.151786
vt 0.627706 0.223214
vt 0.623377 0.223214
vt 0.627706 0.151786
vt 0.662338 0.223214
vt 0.623377 0.151786
vt 0.627706 0.151786
vt 0.701299 0.151786
vt 0.701299 0.223214
vt 0.627706 0.232143
vt 0.662338 0.232143
vt 0.662338 0.232143
vt 0.502164 0.758929
vt 0.571429 0.687500
vt 0.571429 0.758929
vt 0.783550 -0.000000
vt 0.852814 0.071429
vt 0.783550 0.071429
vt 0.709957 0.535714
vt 0.675325 0.607143
vt 0.675325 0.535714
vt 0.744589 0.482143
vt 0.709957 0.482143
vt 0.675325 0.482143
vt 0.640693 0.535714
vt 0.640693 0.482143
vt 0.779221 0.482143
vt 0.744589 0.535714
vt 0.688312 0.892857
vt 0.766234 0.875000
vt 0.757576 0.892857
vt 0.956710 0.071429
vt 0.887446 0.125000
vt 0.887446 0.071429
vt 0.783550 0.125000
vt 0.852814 0.125000
vt 0.748918 0.125000
vt 0.748918 0.071429
vt 0.774892 0.857143
vt 0.766234 0.750000
vt 0.774892 0.750000
vt 0.757576 0.714286
vt 0.679654 0.732143
vt 0.688312 0.714286
vt 0.783550 0.839286
vt 0.783550 0.767857
vt 0.662338 0.767857
vt 0.670996 0.857143
vt 0.662338 0.839286
vt 0.679654 0.857143
vt 0.759740 0.852679
vt 0.766234 0.857143
vt 0.670996 0.750000
vt 0.679654 0.875000
vt 0.766234 0.732143
vt 0.679654 0.750000
vt 0.926407 0.232143
vt 0.922078 0.169643
vt 0.926407 0.160714
vt 0.935065 0.160714
vt 0.943723 0.214286
vt 0.935065 0.232143
vt 0.891775 0.232143
vt 0.883117 0.160714
vt 0.891775 0.160714
vt 0.891775 0.250000
vt 0.926407 0.142857
vt 0.896104 0.223214
vt 0.883117 0.232143
vt 0.874459 0.178571
vt 0.800866 0.258929
vt 0.805195 0.312500
vt 0.800866 0.312500
vt 0.891775 0.142857
vt 0.917749 0.125000
vt 0.922078 0.223214
vt 0.896104 0.169643
vt 0.831169 0.258929
vt 0.805195 0.258929
vt 0.805195 0.321429
vt 0.831169 0.312500
vt 0.831169 0.321429
vt 0.831169 0.250000
vt 0.805195 0.250000
vt 0.835498 0.312500
vt 0.835498 0.258929
vt 0.874459 0.232143
vt 0.865801 0.142857
vt 0.874459 0.142857
vt 0.688312 0.754464
vt 0.759740 0.754464
vt 0.688312 0.852679
vt 0.796537 0.232143
vt 0.796537 0.142857
vt 0.787879 0.142857
vt 0.787879 0.232143
vt 0.796537 0.250000
vt 0.865801 0.232143
vt 0.865801 0.250000
vt 0.865801 0.125000
vt 0.796537 0.125000
vt 0.709957 0.482143
vt 0.744589 0.464286
vt 0.744589 0.482143
vt 0.640693 0.482143
vt 0.675325 0.464286
vt 0.675325 0.482143
vt 0.779221 0.464286
vt 0.779221 0.482143
vt 0.709957 0.464286
vt 0.718615 0.437500
vt 0.735931 0.437500
vt 0.787879 0.160714
vt 0.709957 0.169643
vt 0.701299 0.160714
vt 0.701299 0.267857
vt 0.779221 0.258929
vt 0.787879 0.267857
vt 0.779221 0.169643
vt 0.709957 0.258929
vt 0.709957 0.392857
vt 0.787879 0.401786
vt 0.701299 0.401786
vt 0.779221 0.303571
vt 0.701299 0.294643
vt 0.787879 0.294643
vt 0.779221 0.392857
vt 0.709957 0.303571
vt 0.779221 0.366071
vt 0.709957 0.366071
vt 0.709957 0.330357
vt 0.779221 0.330357
vt 0.701299 0.428571
vt 0.787879 0.428571
vt 0.766234 0.169643
vt 0.722944 0.258929
vt 0.800866 0.401786
vt 0.800866 0.294643
vt 0.688312 0.294643
vt 0.688312 0.401786
vt 0.701299 0.401786
vt 0.683983 0.437500
vt 0.683983 0.401786
vt 0.640693 0.464286
vt 0.666667 0.437500
vt 0.770563 0.437500
vt 0.701299 0.437500
vt 0.658009 0.267857
vt 0.623377 0.232143
vt 0.658009 0.232143
vt 0.701299 0.267857
vt 0.696970 0.232143
vt 0.701299 0.232143
vt 0.662338 0.267857
vt 0.662338 0.232143
vt 0.696970 0.267857
vt 0.658009 0.267857
vt 0.623377 0.232143
vt 0.658009 0.232143
vt 0.701299 0.267857
vt 0.696970 0.232143
vt 0.701299 0.232143
vt 0.662338 0.267857
vt 0.662338 0.232143
vt 0.696970 0.267857
vt 0.748918 0.160714
vt 0.727273 0.151786
vt 0.748918 0.151786
vt 0.748918 0.080357
vt 0.727273 0.071429
vt 0.748918 0.071429
vt 0.727273 0.000000
vt 0.748918 0.000000
vt 0.727273 0.080357
vt 0.748918 0.160714
vt 0.727273 0.151786
vt 0.748918 0.151786
vt 0.748918 0.080357
vt 0.727273 0.071429
vt 0.748918 0.071429
vt 0.727273 0.000000
vt 0.748918 0.000000
vt 0.727273 0.080357
vt 0.658009 0.071429
vt 0.625541 0.075893
vt 0.623377 0.071429
vt 0.662338 0.151786
vt 0.692641 0.142857
vt 0.692641 0.151786
vt 0.692641 0.071429
vt 0.662338 0.080357
vt 0.662338 0.071429
vt 0.696970 0.142857
vt 0.692641 0.080357
vt 0.696970 0.080357
vt 0.662338 0.142857
vt 0.658009 0.142857
vt 0.655844 0.075893
vt 0.658009 0.071429
vt 0.623377 0.000000
vt 0.588745 0.071429
vt 0.588745 0.000000
vt 0.692641 0.000000
vt 0.658009 0.000000
vt 0.727273 0.000000
vt 0.692641 0.071429
vt 0.623377 0.071429
vt 0.625541 0.138393
vt 0.623377 0.142857
vt 0.655844 0.138393
vt 0.658009 0.080357
vt 0.658009 0.142857
vt 0.727273 0.000000
vt 0.692641 0.071429
vt 0.692641 0.000000
vt 0.658009 0.000000
vt 0.623377 0.000000
vt 0.588745 0.071429
vt 0.588745 0.000000
vt 0.625541 0.075893
vt 0.658009 0.080357
vt 0.662338 0.142857
vt 0.658009 0.142857
vt 0.623377 0.142857
vt 0.655844 0.138393
vt 0.658009 0.142857
vt 0.625541 0.138393
vt 0.655844 0.075893
vt 0.692641 0.080357
vt 0.692641 0.142857
vt 0.696970 0.142857
vt 0.696970 0.080357
vt 0.692641 0.071429
vt 0.662338 0.080357
vt 0.662338 0.071429
vt 0.662338 0.151786
vt 0.692641 0.151786
vt 0.662338 0.678571
vt 0.636364 0.651786
vt 0.662338 0.651786
vt 0.740260 0.607143
vt 0.714286 0.598214
vt 0.740260 0.598214
vt 0.779221 0.678571
vt 0.783550 0.651786
vt 0.792208 0.651786
vt 0.675325 0.660714
vt 0.670996 0.651786
vt 0.662338 0.616071
vt 0.670996 0.616071
vt 0.783550 0.616071
vt 0.792208 0.616071
vt 0.714286 0.562500
vt 0.740260 0.562500
vt 0.181818 0.928571
vt 0.225108 0.892857
vt 0.225108 0.928571
vt 0.225108 0.767857
vt 0.181818 0.803571
vt 0.181818 0.767857
vt 0.164502 0.803571
vt 0.181818 0.892857
vt 0.164502 0.892857
vt 0.242424 0.892857
vt 0.225108 0.803571
vt 0.242424 0.803571
vt 0.636364 0.616071
vt 0.662338 0.732143
vt 0.636364 0.678571
vt 0.740260 0.660714
vt 0.714286 0.607143
vt 0.753247 0.678571
vt 0.779221 0.660714
vt 0.701299 0.660714
vt 0.675325 0.678571
vt 0.662338 0.741071
vt 0.636364 0.732143
vt 0.740260 0.687500
vt 0.714286 0.660714
vt 0.748918 0.687500
vt 0.753247 0.660714
vt 0.714286 0.687500
vt 0.701299 0.678571
vt 0.748918 0.714286
vt 0.714286 0.714286
vt 0.705628 0.687500
vt 0.662338 0.776786
vt 0.636364 0.741071
vt 0.740260 0.714286
vt 0.575758 0.866071
vt 0.558442 0.830357
vt 0.575758 0.830357
vt 0.597403 0.830357
vt 0.601732 0.866071
vt 0.597403 0.866071
vt 0.558442 0.866071
vt 0.541126 0.910714
vt 0.541126 0.866071
vt 0.523810 0.910714
vt 0.523810 0.866071
vt 0.558442 0.910714
vt 0.519481 0.919643
vt 0.575758 0.910714
vt 0.580087 0.955357
vt 0.541126 0.955357
vt 0.519481 0.955357
vt 0.502164 0.919643
vt 0.580087 0.919643
vt 0.597403 0.955357
vt 0.558442 0.955357
vt 0.541126 0.991071
vt 0.601732 0.830357
vt 0.619048 0.866071
vt 0.558442 0.866071
vt 0.575758 0.830357
vt 0.575758 0.866071
vt 0.601732 0.830357
vt 0.597403 0.866071
vt 0.597403 0.830357
vt 0.558442 0.910714
vt 0.541126 0.866071
vt 0.575758 0.910714
vt 0.541126 0.910714
vt 0.523810 0.866071
vt 0.580087 0.919643
vt 0.519481 0.955357
vt 0.523810 0.910714
vt 0.558442 0.955357
vt 0.597403 0.919643
vt 0.580087 0.955357
vt 0.502164 0.955357
vt 0.519481 0.919643
vt 0.558442 0.991071
vt 0.541126 0.955357
vt 0.619048 0.830357
vt 0.601732 0.866071
vt 0.069264 0.142857
vt 0.000000 0.000000
vt 0.069264 0.000000
vt 0.069264 0.160714
vt 0.008658 0.178571
vt -0.000000 0.160714
vt 0.069264 0.142857
vt -0.000000 0.160714
vt -0.000000 0.142857
vt 0.069264 0.142857
vt -0.000000 0.160714
vt -0.000000 0.142857
vt 0.069264 0.142857
vt -0.000000 0.160714
vt -0.000000 0.142857
vt -0.000000 0.142857
vt 0.008658 0.285714
vt 0.060606 0.178571
vt 0.060606 0.285714
vt 0.069264 0.160714
vt 0.008658 0.178571
vt 0.069264 0.160714
vt 0.008658 0.178571
vt 0.069264 0.160714
vt 0.008658 0.178571
vt 0.069264 0.142857
vt 0.000000 0.000000
vt 0.069264 0.000000
vt 0.069264 0.160714
vt 0.008658 0.178571
vt -0.000000 0.160714
vt 0.069264 0.142857
vt -0.000000 0.160714
vt -0.000000 0.142857
vt 0.069264 0.142857
vt -0.000000 0.160714
vt -0.000000 0.142857
vt 0.069264 0.142857
vt -0.000000 0.160714
vt -0.000000 0.142857
vt -0.000000 0.142857
vt 0.008658 0.285714
vt 0.060606 0.178571
vt 0.060606 0.285714
vt 0.069264 0.160714
vt 0.008658 0.178571
vt 0.069264 0.160714
vt 0.008658 0.178571
vt 0.069264 0.160714
vt 0.008658 0.178571
vt 0.069264 0.142857
vt 0.000000 0.000000
vt 0.069264 0.000000
vt 0.069264 0.160714
vt 0.008658 0.178571
vt -0.000000 0.160714
vt 0.069264 0.142857
vt -0.000000 0.160714
vt -0.000000 0.142857
vt 0.069264 0.142857
vt -0.000000 0.160714
vt -0.000000 0.142857
vt 0.069264 0.142857
vt -0.000000 0.160714
vt -0.000000 0.142857
vt -0.000000 0.142857
vt 0.008658 0.285714
vt 0.060606 0.178571
vt 0.060606 0.285714
vt 0.069264 0.160714
vt 0.008658 0.178571
vt 0.069264 0.160714
vt 0.008658 0.178571
vt 0.069264 0.160714
vt 0.008658 0.178571
vt 0.199134 0.214286
vt 0.155844 -0.000000
vt 0.199134 0.000000
vt 0.155844 0.214286
vt 0.112554 -0.000000
vt 0.242424 0.214286
vt 0.242424 0.000000
vt 0.112554 0.214286
vt 0.069264 -0.000000
vt 0.199134 0.285714
vt 0.155844 0.214286
vt 0.199134 0.214286
vt 0.242424 0.285714
vt 0.242424 0.214286
vt 0.112554 0.285714
vt 0.069264 0.214286
vt 0.112554 0.214286
vt 0.155844 0.285714
vt 0.199134 0.321429
vt 0.155844 0.285714
vt 0.199134 0.285714
vt 0.242424 0.321429
vt 0.242424 0.285714
vt 0.112554 0.321429
vt 0.069264 0.285714
vt 0.112554 0.285714
vt 0.155844 0.321429
vt 0.155844 0.410714
vt 0.199134 0.214286
vt 0.155844 -0.000000
vt 0.199134 0.000000
vt 0.155844 0.214286
vt 0.112554 -0.000000
vt 0.242424 0.214286
vt 0.242424 0.000000
vt 0.112554 0.214286
vt 0.069264 -0.000000
vt 0.199134 0.285714
vt 0.155844 0.214286
vt 0.199134 0.214286
vt 0.242424 0.285714
vt 0.242424 0.214286
vt 0.112554 0.285714
vt 0.069264 0.214286
vt 0.112554 0.214286
vt 0.155844 0.285714
vt 0.199134 0.321429
vt 0.155844 0.285714
vt 0.199134 0.285714
vt 0.242424 0.321429
vt 0.242424 0.285714
vt 0.112554 0.321429
vt 0.069264 0.285714
vt 0.112554 0.285714
vt 0.155844 0.321429
vt 0.155844 0.410714
vt 0.199134 0.214286
vt 0.155844 -0.000000
vt 0.199134 0.000000
vt 0.155844 0.214286
vt 0.112554 -0.000000
vt 0.242424 0.214286
vt 0.242424 0.000000
vt 0.112554 0.214286
vt 0.069264 -0.000000
vt 0.199134 0.285714
vt 0.155844 0.214286
vt 0.199134 0.214286
vt 0.242424 0.285714
vt 0.242424 0.214286
vt 0.112554 0.285714
vt 0.069264 0.214286
vt 0.112554 0.214286
vt 0.155844 0.285714
vt 0.199134 0.321429
vt 0.155844 0.285714
vt 0.199134 0.285714
vt 0.242424 0.321429
vt 0.242424 0.285714
vt 0.112554 0.321429
vt 0.069264 0.285714
vt 0.112554 0.285714
vt 0.155844 0.321429
vt 0.155844 0.410714
vt 0.028139 0.803571
vt 0.045455 0.866071
vt 0.028139 0.866071
vt 0.075758 0.803571
vt 0.075758 0.866071
vt 0.093074 0.866071
vt 0.093074 0.803571
vt 0.075758 0.767857
vt 0.045455 0.803571
vt 0.045455 0.767857
vt 0.045455 0.901786
vt 0.075758 0.901786
vt 0.060606 0.178571
vt 0.060606 0.178571
vt 0.060606 0.178571
vt 0.069264 0.214286
vt 0.311688 0.607143
vt 0.415584 0.357143
vt 0.329004 0.107143
vt 0.259740 0.419643
vt 0.199134 0.419643
vt 0.259740 0.419643
vt 0.199134 0.419643
vt 0.259740 0.419643
vt 0.199134 0.419643
vt 0.259740 0.419643
vt 0.199134 0.419643
vt 0.311688 0.607143
vt 0.329004 0.107143
vt 0.415584 0.357143
vt 0.062771 0.553571
vt 0.069264 0.285714
vt 0.093074 0.450893
vt 0.112554 0.410714
vt 0.142857 0.410714
vt 0.162338 0.513393
vt 0.519481 0.000000
vt 0.484848 0.071429
vt 0.069264 0.321429
vt 0.112554 0.410714
vt 0.519481 0.000000
vt 0.484848 0.071429
vt 0.502164 0.214286
vt 0.502164 0.214286
vt 0.484848 0.250000
vt 0.484848 0.250000
vt 0.571429 0.830357
vt 0.571429 0.687500
vt 0.701299 0.151786
vt 0.623377 0.223214
vt 0.571429 0.830357
vt 0.571429 0.687500
vt 0.701299 0.151786
vt 0.623377 0.223214
vt 0.627706 0.232143
vt 0.502164 0.687500
vt 0.852814 -0.000000
vt 0.709957 0.607143
vt 0.779221 0.535714
vt 0.956710 0.125000
vt 0.943723 0.178571
vt 0.926407 0.250000
vt 0.874459 0.214286
vt 0.900433 0.125000
vt 0.766234 0.258929
vt 0.722944 0.169643
vt 0.649351 0.437500
vt 0.753247 0.437500
vt 0.623377 0.267857
vt 0.623377 0.267857
vt 0.727273 0.160714
vt 0.727273 0.160714
vt 0.727273 0.071429
vt 0.727273 0.071429
vt 0.705628 0.714286
vt 0.636364 0.776786
vt 0.502164 0.955357
vt 0.597403 0.919643
vt 0.558442 0.991071
vt 0.619048 0.830357
vt 0.558442 0.830357
vt 0.597403 0.955357
vt 0.502164 0.919643
vt 0.541126 0.991071
vt 0.619048 0.866071
vt 0.060606 0.178571
vt 0.060606 0.178571
vt 0.060606 0.178571
vt 0.060606 0.178571
vt 0.060606 0.178571
vt 0.060606 0.178571
vt 0.060606 0.178571
vt 0.060606 0.178571
vt 0.060606 0.178571
vt 0.069264 0.214286
vt 0.069264 0.285714
vt 0.069264 0.321429
vt 0.112554 0.410714
vt 0.069264 0.214286
vt 0.069264 0.285714
vt 0.069264 0.321429
vt 0.112554 0.410714
vt 0.069264 0.214286
vt 0.069264 0.285714
vt 0.069264 0.321429
vt 0.112554 0.410714
vt 0.571429 0.455357
vt 0.640693 0.437500
vt 0.640693 0.455357
vt 0.571429 0.437500
vt 0.640693 0.419643
vt 0.571429 0.419643
vt 0.640693 0.401786
vt 0.571429 0.616071
vt 0.640693 0.598214
vt 0.640693 0.616071
vt 0.571429 0.598214
vt 0.640693 0.580357
vt 0.571429 0.580357
vt 0.640693 0.562500
vt 0.571429 0.562500
vt 0.640693 0.544643
vt 0.571429 0.544643
vt 0.640693 0.526786
vt 0.571429 0.526786
vt 0.640693 0.508929
vt 0.571429 0.508929
vt 0.640693 0.491071
vt 0.571429 0.491071
vt 0.640693 0.473214
vt 0.571429 0.473214
vt 0.632035 0.678571
vt 0.606061 0.687500
vt 0.606061 0.678571
vt 0.632035 0.616071
vt 0.606061 0.625000
vt 0.606061 0.616071
vt 0.632035 0.616071
vt 0.606061 0.625000
vt 0.606061 0.616071
vt 0.632035 0.625000
vt 0.606061 0.633929
vt 0.632035 0.633929
vt 0.606061 0.642857
vt 0.632035 0.625000
vt 0.606061 0.633929
vt 0.632035 0.633929
vt 0.606061 0.642857
vt 0.632035 0.642857
vt 0.606061 0.651786
vt 0.632035 0.642857
vt 0.606061 0.651786
vt 0.632035 0.651786
vt 0.606061 0.660714
vt 0.632035 0.651786
vt 0.606061 0.660714
vt 0.632035 0.660714
vt 0.606061 0.669643
vt 0.632035 0.660714
vt 0.606061 0.669643
vt 0.632035 0.669643
vt 0.606061 0.678571
vt 0.632035 0.669643
vt 0.632035 0.678571
vt 0.606061 0.687500
vt 0.606061 0.625000
vt 0.632035 0.616071
vt 0.632035 0.625000
vt 0.606061 0.687500
vt 0.632035 0.678571
vt 0.632035 0.687500
vt 0.606061 0.687500
vt 0.632035 0.678571
vt 0.632035 0.687500
vt 0.606061 0.678571
vt 0.632035 0.669643
vt 0.606061 0.669643
vt 0.632035 0.660714
vt 0.606061 0.678571
vt 0.632035 0.669643
vt 0.606061 0.669643
vt 0.632035 0.660714
vt 0.606061 0.660714
vt 0.632035 0.651786
vt 0.606061 0.660714
vt 0.632035 0.651786
vt 0.606061 0.651786
vt 0.632035 0.642857
vt 0.606061 0.651786
vt 0.632035 0.642857
vt 0.606061 0.642857
vt 0.632035 0.633929
vt 0.606061 0.642857
vt 0.632035 0.633929
vt 0.606061 0.633929
vt 0.632035 0.625000
vt 0.606061 0.633929
vt 0.606061 0.625000
vt 0.632035 0.616071
vt 0.502164 0.455357
vt 0.571429 0.437500
vt 0.571429 0.455357
vt 0.502164 0.437500
vt 0.571429 0.419643
vt 0.502164 0.419643
vt 0.571429 0.401786
vt 0.502164 0.616071
vt 0.571429 0.598214
vt 0.571429 0.616071
vt 0.502164 0.598214
vt 0.571429 0.580357
vt 0.502164 0.580357
vt 0.571429 0.562500
vt 0.502164 0.562500
vt 0.571429 0.544643
vt 0.502164 0.544643
vt 0.571429 0.526786
vt 0.502164 0.526786
vt 0.571429 0.508929
vt 0.502164 0.508929
vt 0.571429 0.491071
vt 0.502164 0.491071
vt 0.571429 0.473214
vt 0.502164 0.473214
vt 0.632035 0.678571
vt 0.588745 0.687500
vt 0.588745 0.678571
vt 0.632035 0.616071
vt 0.606061 0.625000
vt 0.606061 0.616071
vt 0.632035 0.616071
vt 0.588745 0.625000
vt 0.588745 0.616071
vt 0.632035 0.625000
vt 0.606061 0.633929
vt 0.632035 0.633929
vt 0.606061 0.642857
vt 0.632035 0.625000
vt 0.588745 0.633929
vt 0.632035 0.633929
vt 0.588745 0.642857
vt 0.632035 0.642857
vt 0.606061 0.651786
vt 0.632035 0.642857
vt 0.588745 0.651786
vt 0.632035 0.651786
vt 0.606061 0.660714
vt 0.632035 0.651786
vt 0.588745 0.660714
vt 0.632035 0.660714
vt 0.606061 0.669643
vt 0.632035 0.660714
vt 0.588745 0.669643
vt 0.632035 0.669643
vt 0.606061 0.678571
vt 0.632035 0.669643
vt 0.632035 0.678571
vt 0.606061 0.687500
vt 0.588745 0.625000
vt 0.632035 0.616071
vt 0.632035 0.625000
vt 0.606061 0.687500
vt 0.632035 0.678571
vt 0.632035 0.687500
vt 0.588745 0.687500
vt 0.632035 0.678571
vt 0.632035 0.687500
vt 0.606061 0.678571
vt 0.632035 0.669643
vt 0.606061 0.669643
vt 0.632035 0.660714
vt 0.588745 0.678571
vt 0.632035 0.669643
vt 0.588745 0.669643
vt 0.632035 0.660714
vt 0.606061 0.660714
vt 0.632035 0.651786
vt 0.588745 0.660714
vt 0.632035 0.651786
vt 0.606061 0.651786
vt 0.632035 0.642857
vt 0.588745 0.651786
vt 0.632035 0.642857
vt 0.606061 0.642857
vt 0.632035 0.633929
vt 0.588745 0.642857
vt 0.632035 0.633929
vt 0.606061 0.633929
vt 0.632035 0.625000
vt 0.588745 0.633929
vt 0.606061 0.625000
vt 0.632035 0.616071
vt 0.586580 0.633929
vt 0.582251 0.642857
vt 0.582251 0.633929
vt 0.582251 0.660714
vt 0.582251 0.651786
vt 0.582251 0.625000
vt 0.584416 0.625000
vt 0.582251 0.669643
vt 0.586580 0.669643
vt 0.582251 0.678571
vt 0.575758 0.642857
vt 0.577922 0.633929
vt 0.575758 0.660714
vt 0.575758 0.651786
vt 0.580087 0.625000
vt 0.580087 0.678571
vt 0.577922 0.669643
vt 0.582251 0.687500
vt 0.584416 0.678571
vt 0.582251 0.616071
vt 0.571429 0.651786
vt 0.575758 0.633929
vt 0.571429 0.625000
vt 0.575758 0.625000
vt 0.571429 0.642857
vt 0.575758 0.669643
vt 0.571429 0.660714
vt 0.571429 0.616071
vt 0.575758 0.616071
vt 0.575758 0.678571
vt 0.571429 0.669643
vt 0.575758 0.687500
vt 0.571429 0.678571
vt 0.571429 0.633929
vt 0.586580 0.669643
vt 0.582251 0.660714
vt 0.582251 0.642857
vt 0.582251 0.678571
vt 0.582251 0.669643
vt 0.582251 0.651786
vt 0.582251 0.633929
vt 0.586580 0.633929
vt 0.582251 0.625000
vt 0.584416 0.625000
vt 0.575758 0.642857
vt 0.580087 0.678571
vt 0.577922 0.669643
vt 0.575758 0.660714
vt 0.575758 0.651786
vt 0.577922 0.633929
vt 0.580087 0.625000
vt 0.584416 0.678571
vt 0.582251 0.687500
vt 0.582251 0.616071
vt 0.575758 0.678571
vt 0.571429 0.669643
vt 0.575758 0.669643
vt 0.571429 0.651786
vt 0.571429 0.633929
vt 0.575758 0.633929
vt 0.575758 0.625000
vt 0.571429 0.616071
vt 0.575758 0.616071
vt 0.571429 0.625000
vt 0.575758 0.687500
vt 0.571429 0.678571
vt 0.571429 0.660714
vt 0.571429 0.642857
vt 0.619048 0.750000
vt 0.571429 0.758929
vt 0.571429 0.750000
vt 0.619048 0.687500
vt 0.571429 0.696429
vt 0.571429 0.687500
vt 0.619048 0.696429
vt 0.571429 0.705357
vt 0.619048 0.705357
vt 0.571429 0.714286
vt 0.619048 0.714286
vt 0.571429 0.723214
vt 0.619048 0.723214
vt 0.571429 0.732143
vt 0.619048 0.732143
vt 0.571429 0.741071
vt 0.619048 0.741071
vt 0.619048 0.750000
vt 0.571429 0.758929
vt 0.571429 0.750000
vt 0.619048 0.687500
vt 0.571429 0.696429
vt 0.571429 0.687500
vt 0.619048 0.696429
vt 0.571429 0.705357
vt 0.619048 0.705357
vt 0.571429 0.714286
vt 0.619048 0.714286
vt 0.571429 0.723214
vt 0.619048 0.723214
vt 0.571429 0.732143
vt 0.619048 0.732143
vt 0.571429 0.741071
vt 0.619048 0.741071
vt 0.675325 0.375000
vt 0.666667 0.361607
vt 0.675325 0.361607
vt 0.675325 0.348214
vt 0.666667 0.334821
vt 0.675325 0.334821
vt 0.675325 0.321429
vt 0.666667 0.308036
vt 0.675325 0.308036
vt 0.675325 0.401786
vt 0.666667 0.388393
vt 0.675325 0.388393
vt 0.666667 0.348214
vt 0.666667 0.321429
vt 0.666667 0.294643
vt 0.675325 0.294643
vt 0.666667 0.375000
vt 0.653680 0.348214
vt 0.660173 0.321429
vt 0.653680 0.334821
vt 0.653680 0.321429
vt 0.660173 0.375000
vt 0.653680 0.388393
vt 0.653680 0.375000
vt 0.653680 0.361607
vt 0.653680 0.308036
vt 0.655844 0.308036
vt 0.647186 0.375000
vt 0.640693 0.361607
vt 0.640693 0.334821
vt 0.651515 0.308036
vt 0.640693 0.348214
vt 0.647186 0.321429
vt 0.655844 0.388393
vt 0.653680 0.401786
vt 0.651515 0.388393
vt 0.653680 0.294643
vt 0.640693 0.401786
vt 0.571429 0.388393
vt 0.640693 0.388393
vt 0.571429 0.334821
vt 0.640693 0.321429
vt 0.571429 0.308036
vt 0.640693 0.308036
vt 0.571429 0.348214
vt 0.571429 0.321429
vt 0.571429 0.375000
vt 0.640693 0.375000
vt 0.571429 0.294643
vt 0.640693 0.294643
vt 0.571429 0.361607
vt 0.558442 0.361607
vt 0.558442 0.348214
vt 0.558442 0.321429
vt 0.564935 0.321429
vt 0.564935 0.375000
vt 0.558442 0.388393
vt 0.558442 0.375000
vt 0.558442 0.334821
vt 0.558442 0.308036
vt 0.560606 0.308036
vt 0.545455 0.334821
vt 0.556277 0.308036
vt 0.545455 0.361607
vt 0.545455 0.348214
vt 0.551948 0.321429
vt 0.556277 0.388393
vt 0.551948 0.375000
vt 0.558442 0.401786
vt 0.560606 0.388393
vt 0.558442 0.294643
vt 0.545455 0.321429
vt 0.484848 0.308036
vt 0.545455 0.308036
vt 0.484848 0.348214
vt 0.484848 0.321429
vt 0.545455 0.375000
vt 0.484848 0.388393
vt 0.484848 0.375000
vt 0.484848 0.294643
vt 0.545455 0.294643
vt 0.484848 0.361607
vt 0.545455 0.401786
vt 0.545455 0.388393
vt 0.484848 0.334821
vt 0.575758 0.794643
vt 0.571429 0.803571
vt 0.571429 0.794643
vt 0.575758 0.776786
vt 0.571429 0.785714
vt 0.571429 0.776786
vt 0.575758 0.758929
vt 0.571429 0.767857
vt 0.571429 0.758929
vt 0.575758 0.812500
vt 0.571429 0.821429
vt 0.571429 0.812500
vt 0.575758 0.803571
vt 0.575758 0.785714
vt 0.575758 0.767857
vt 0.575758 0.821429
vt 0.571429 0.830357
vt 0.577922 0.812500
vt 0.582251 0.821429
vt 0.580087 0.821429
vt 0.582251 0.812500
vt 0.582251 0.794643
vt 0.577922 0.776786
vt 0.582251 0.767857
vt 0.582251 0.776786
vt 0.582251 0.803571
vt 0.582251 0.785714
vt 0.588745 0.794643
vt 0.588745 0.803571
vt 0.586580 0.776786
vt 0.588745 0.785714
vt 0.584416 0.821429
vt 0.586580 0.812500
vt 0.582251 0.830357
vt 0.582251 0.758929
vt 0.580087 0.767857
vt 0.584416 0.767857
vt 0.636364 0.803571
vt 0.588745 0.776786
vt 0.636364 0.785714
vt 0.588745 0.812500
vt 0.636364 0.821429
vt 0.588745 0.821429
vt 0.588745 0.758929
vt 0.636364 0.767857
vt 0.588745 0.767857
vt 0.636364 0.812500
vt 0.636364 0.830357
vt 0.588745 0.830357
vt 0.636364 0.794643
vt 0.636364 0.776786
vt 0.575758 0.794643
vt 0.571429 0.803571
vt 0.571429 0.794643
vt 0.575758 0.776786
vt 0.571429 0.785714
vt 0.571429 0.776786
vt 0.575758 0.758929
vt 0.571429 0.767857
vt 0.571429 0.758929
vt 0.575758 0.812500
vt 0.571429 0.821429
vt 0.571429 0.812500
vt 0.575758 0.803571
vt 0.575758 0.785714
vt 0.575758 0.767857
vt 0.575758 0.821429
vt 0.571429 0.830357
vt 0.577922 0.812500
vt 0.582251 0.821429
vt 0.580087 0.821429
vt 0.582251 0.812500
vt 0.582251 0.794643
vt 0.577922 0.776786
vt 0.582251 0.767857
vt 0.582251 0.776786
vt 0.582251 0.803571
vt 0.582251 0.785714
vt 0.588745 0.794643
vt 0.588745 0.803571
vt 0.588745 0.785714
vt 0.586580 0.812500
vt 0.584416 0.821429
vt 0.586580 0.776786
vt 0.582251 0.830357
vt 0.582251 0.758929
vt 0.580087 0.767857
vt 0.584416 0.767857
vt 0.636364 0.803571
vt 0.588745 0.776786
vt 0.636364 0.785714
vt 0.588745 0.812500
vt 0.636364 0.821429
vt 0.588745 0.821429
vt 0.588745 0.758929
vt 0.636364 0.767857
vt 0.588745 0.767857
vt 0.636364 0.812500
vt 0.636364 0.830357
vt 0.588745 0.830357
vt 0.636364 0.794643
vt 0.636364 0.776786
vt 0.571429 0.401786
vt 0.632035 0.687500
vt 0.632035 0.687500
vt 0.606061 0.616071
vt 0.606061 0.616071
vt 0.502164 0.401786
vt 0.632035 0.687500
vt 0.632035 0.687500
vt 0.588745 0.616071
vt 0.606061 0.616071
vt 0.571429 0.687500
vt 0.571429 0.687500
vt 0.619048 0.758929
vt 0.619048 0.758929
vt 0.666667 0.401786
vt 0.571429 0.401786
vt 0.484848 0.401786
vt 0.575758 0.830357
vt 0.636364 0.758929
vt 0.575758 0.830357
vt 0.636364 0.758929
vn 0.0000 -1.0000 0.0000
vn 0.0000 0.7071 -0.7071
vn -1.0000 0.0000 0.0000
vn 0.0000 0.0000 1.0000
vn 1.0000 0.0000 0.0000
vn 0.0000 0.0000 -1.0000
vn 0.0000 1.0000 0.0000
vn 0.0000 0.7071 0.7071
vn 0.7071 0.7071 0.0000
vn -0.7071 0.7071 0.0000
vn 0.0000 -0.7071 -0.7071
vn 0.0000 -0.7071 0.7071
vn -0.7071 -0.7071 0.0000
vn 0.7071 -0.7071 0.0000
vn 0.7071 0.0000 0.7071
vn -0.7071 0.0000 0.7071
vn -0.7071 0.0000 -0.7071
vn 0.7071 0.0000 -0.7071
vn 0.8321 -0.5547 0.0000
vn -0.8321 -0.5547 0.0000
vn 0.0000 -0.5547 -0.8321
vn 0.0000 -0.5547 0.8321
vn 0.0000 -0.5000 -0.8660
vn 0.0000 -0.8660 -0.5000
vn 0.0000 -0.8660 0.5000
vn 0.0000 -0.5000 0.8660
vn 0.0000 0.5000 0.8660
vn 0.0000 0.8660 0.5000
vn 0.0000 0.8660 -0.5000
vn 0.0000 0.5000 -0.8660
vn -0.1363 -0.6737 0.7263
vn -0.1363 -0.6737 -0.7263
vn 0.0196 0.0473 -0.9987
vn 0.1447 0.7194 -0.6794
vn 0.1866 0.9824 0.0000
vn 0.1447 0.7194 0.6794
vn 0.0196 0.0473 0.9987
vn 0.1363 -0.6737 0.7263
vn 0.1363 -0.6737 -0.7263
vn -0.0196 0.0473 -0.9987
vn -0.1447 0.7194 -0.6794
vn -0.1866 0.9824 0.0000
vn -0.1447 0.7194 0.6794
vn -0.0196 0.0473 0.9987
vn -0.5293 0.5293 0.6630
vn -0.0670 0.0670 0.9955
vn -0.5293 0.5293 -0.6630
vn 0.4617 -0.4617 0.7573
vn -0.0670 0.0670 -0.9955
vn 0.4617 -0.4617 -0.7573
vn -0.7194 0.1447 0.6794
vn -0.0473 0.0196 0.9987
vn -0.7194 0.1447 -0.6794
vn -0.9824 0.1866 0.0000
vn 0.6737 -0.1363 0.7263
vn 0.6737 -0.1363 -0.7263
vn -0.0473 0.0196 -0.9987
vn 0.5293 0.5293 0.6630
vn 0.5293 0.5293 -0.6630
vn -0.4617 -0.4617 0.7573
vn 0.0670 0.0670 0.9955
vn 0.0670 0.0670 -0.9955
vn -0.4617 -0.4617 -0.7573
vn 0.7194 0.1447 -0.6794
vn -0.6737 -0.1363 0.7263
vn 0.0473 0.0196 0.9987
vn 0.7194 0.1447 0.6794
vn 0.9824 0.1866 0.0000
vn 0.0473 0.0196 -0.9987
vn -0.6737 -0.1363 -0.7263
vn 0.9824 0.0000 -0.1866
vn 0.0473 -0.9987 -0.0196
vn 0.0473 0.9987 -0.0196
vn 0.7194 0.6794 -0.1447
vn 0.7194 -0.6794 -0.1447
vn -0.6737 -0.7263 0.1363
vn -0.6737 0.7263 0.1363
vn -0.4617 0.7573 0.4617
vn 0.0670 0.9955 -0.0670
vn -0.4617 -0.7573 0.4617
vn 0.0670 -0.9955 -0.0670
vn 0.5293 0.6630 -0.5293
vn 0.5293 -0.6630 -0.5293
vn 0.1866 0.0000 -0.9824
vn 0.1447 0.6794 -0.7194
vn 0.0196 -0.9987 -0.0473
vn 0.1447 -0.6794 -0.7194
vn -0.1363 0.7263 0.6737
vn 0.0196 0.9987 -0.0473
vn -0.1363 -0.7263 0.6737
vn 0.9824 0.0000 0.1866
vn 0.0473 0.9987 0.0196
vn 0.0473 -0.9987 0.0196
vn 0.7194 -0.6794 0.1447
vn 0.7194 0.6794 0.1447
vn -0.6737 0.7263 -0.1363
vn -0.6737 -0.7263 -0.1363
vn -0.4617 -0.7573 -0.4617
vn 0.0670 -0.9955 0.0670
vn -0.4617 0.7573 -0.4617
vn 0.0670 0.9955 0.0670
vn 0.5293 -0.6630 0.5293
vn 0.5293 0.6630 0.5293
vn 0.1866 0.0000 0.9824
vn 0.1447 -0.6794 0.7194
vn 0.1447 0.6794 0.7194
vn 0.0196 -0.9987 0.0473
vn -0.1363 -0.7263 -0.6737
vn 0.0196 0.9987 0.0473
vn -0.1363 0.7263 -0.6737
usemtl mining_drill
o Crusher1
s off
f 497/697/248 495/698/248 493/699/248
f 503/700/249 505/701/249 499/702/249
f 493/703/250 500/704/250 492/705/250
f 498/706/251 505/707/251 497/708/251
f 496/709/252 503/710/252 495/711/252
f 494/712/253 501/713/253 493/703/253
f 492/705/254 499/714/254 491/715/254
f 491/715/255 506/716/255 498/706/255
f 497/717/256 504/718/256 496/709/256
f 495/711/257 502/719/257 494/712/257
f 493/699/248 492/720/248 491/721/248
f 491/721/248 498/722/248 497/697/248
f 497/697/248 496/723/248 495/698/248
f 495/698/248 494/724/248 493/699/248
f 493/699/248 491/721/248 497/697/248
f 499/702/249 500/725/249 501/726/249
f 501/726/249 502/727/249 503/700/249
f 503/700/249 504/728/249 505/701/249
f 505/701/249 506/729/249 499/702/249
f 499/702/249 501/726/249 503/700/249
f 493/703/250 501/713/250 500/704/250
f 498/706/251 506/716/251 505/707/251
f 496/709/252 504/718/252 503/710/252
f 494/712/253 502/719/253 501/713/253
f 492/705/254 500/704/254 499/714/254
f 491/715/255 499/714/255 506/716/255
f 497/717/256 505/730/256 504/718/256
f 495/711/257 503/710/257 502/719/257
