# Filtered from HBM 1.7.10 particleaccelerator/beamline.obj part BeamlineGlass
mtllib beamline.mtl
v 0.375000 0.750000 -1.000000
v 0.375000 0.250000 -1.000000
v 0.375000 0.250000 1.000000
v 0.375000 0.750000 1.000000
v -0.375000 0.250000 -1.000000
v -0.375000 0.250000 1.000000
v -0.375000 0.750000 1.000000
v -0.375000 0.750000 -1.000000
vt 0.700000 0.437500
vt 0.300000 0.312500
vt 0.700000 0.312500
vt 0.300000 0.812427
vt 0.700000 0.937597
vt 0.300000 0.937427
vt 0.300000 0.437500
vt 0.700000 0.812597
vn 1.0000 0.0000 0.0000
vn -1.0000 0.0000 0.0000
v -0.500000 0.250000 1.000000
v -0.500000 0.750000 1.000000
v -0.500000 0.250000 -1.000000
v -0.500000 0.750000 -1.000000
v 0.500000 0.250000 1.000000
v 0.500000 0.750000 1.000000
v 0.500000 0.250000 -1.000000
v 0.500000 0.750000 -1.000000
v 0.500000 1.000000 -1.500000
v 0.500000 0.000000 -1.500000
v 0.500000 0.000000 1.500000
v 0.500000 1.000000 1.500000
v 0.375000 0.750000 -1.000000
v 0.375000 0.250000 -1.000000
v 0.375000 0.250000 1.000000
v 0.375000 0.750000 1.000000
v -0.500000 0.000000 -1.500000
v -0.500000 0.000000 1.500000
v -0.500000 1.000000 1.500000
v -0.500000 1.000000 -1.500000
v -0.375000 0.250000 -1.000000
v -0.375000 0.250000 1.000000
v -0.375000 0.750000 1.000000
v -0.375000 0.750000 -1.000000
vt 0.700000 0.812597
vt 0.300000 0.843677
vt 0.300000 0.812427
vt 0.800000 0.500000
vt 1.000000 0.250000
vt 1.000000 0.500000
vt 0.300000 0.312469
vt 0.325000 0.437500
vt 0.300000 0.437469
vt 0.200000 0.250000
vt 0.000000 0.500000
vt 0.000000 0.250000
vt 0.800000 0.250000
vt 0.200000 0.000000
vt 0.800000 0.000000
vt 0.800000 0.750000
vt 0.200000 0.500000
vt 0.800000 0.500000
vt 0.700000 0.312500
vt 0.700000 0.437500
vt 0.200000 0.250000
vt 0.300000 0.343750
vt 0.700000 0.406250
vt 0.675000 0.312492
vt 0.700000 0.937597
vt 0.200000 1.000000
vt 0.300000 0.937427
vt 0.300000 0.937458
vt 0.200000 0.750000
vt 0.300000 0.812458
vt 0.800000 1.000000
vt 0.700000 0.906347
vt 0.675000 0.812597
vt 0.325000 0.937427
vt 0.700000 0.843847
vt 0.800000 0.250000
vt 0.325000 0.312500
vt 0.200000 0.500000
vt 0.700000 0.343750
vt 0.300000 0.406250
vt 0.675000 0.437492
vt 0.300000 0.906177
vt 0.675000 0.937597
vt 0.325000 0.812427
vn 0.0000 -1.0000 0.0000
vn 0.0000 0.0000 -1.0000
vn 0.0000 0.0000 1.0000
vn 0.0000 1.0000 0.0000
vn 1.0000 0.0000 0.0000
vn -1.0000 0.0000 0.0000
v -0.500000 0.000000 1.500000
v -0.500000 1.000000 1.500000
v -0.500000 0.000000 -1.500000
v -0.500000 1.000000 -1.500000
v 0.500000 0.000000 1.500000
v 0.500000 1.000000 1.500000
v 0.500000 0.000000 -1.500000
v 0.500000 1.000000 -1.500000
vt 0.200000 0.500000
vt 0.800000 0.750000
vt 0.200000 0.750000
vt 0.800000 0.500000
vt 1.000000 0.250000
vt 1.000000 0.500000
vt 0.800000 0.250000
vt 0.200000 0.000000
vt 0.800000 0.000000
vt 0.200000 0.250000
vt 0.000000 0.500000
vt 0.000000 0.250000
vt 0.800000 1.000000
vt 0.200000 1.000000
vn -1.0000 0.0000 0.0000
vn 0.0000 0.0000 -1.0000
vn 1.0000 0.0000 0.0000
vn 0.0000 0.0000 1.0000
vn 0.0000 -1.0000 0.0000
vn 0.0000 1.0000 0.0000

o BeamlineGlass
usemtl none
s off
f 1/1/1 3/2/1 2/3/1
f 7/4/2 5/5/2 6/6/2
f 1/1/1 4/7/1 3/2/1
f 7/4/2 8/8/2 5/5/2
